<svg width="198" height="48" viewBox="0 0 198 48" fill="none" xmlns="http://www.w3.org/2000/svg">
<circle cx="24" cy="24" r="21.5" fill="white"/>
<path fill-rule="evenodd" clip-rule="evenodd" d="M13.0227 26C12.7046 26 12.3677 26.0236 12.0118 26.0697C11.6559 26.1159 11.3301 26.2103 11.0343 26.3566C10.7384 26.5028 10.4927 26.7019 10.2958 26.9539C10.099 27.207 10 27.5411 10 27.9539C10 28.7199 10.2424 29.2531 10.7273 29.5523C11.2122 29.8504 11.8705 30 12.7046 30C13.2051 30 13.6477 29.9887 14.0347 29.9651C14.4206 29.9426 14.742 29.901 15 29.8391V26.2767C14.8488 26.1991 14.6019 26.135 14.2616 26.081C13.9202 26.027 13.5076 26 13.0227 26Z" fill="#E95420"/>
<path fill-rule="evenodd" clip-rule="evenodd" d="M38.5702 31.5418C38.2279 30.9727 37.8317 30.3917 37.3841 29.7988C36.9353 29.2058 36.4674 28.6368 35.9779 28.0915C35.4884 27.5475 34.9905 27.0476 34.4854 26.5931C33.9804 26.1373 33.4992 25.7555 33.042 25.4465V31.5418H30.7681V13.0114L33.042 12.6224V24.1783C33.4334 23.7882 33.8655 23.3587 34.3394 22.8862C34.8121 22.415 35.2765 21.9354 35.7325 21.4486C36.1897 20.9607 36.6218 20.493 37.0287 20.0456C37.4368 19.5994 37.7875 19.2045 38.0807 18.8633H40.7472C40.3714 19.2701 39.9645 19.7163 39.5241 20.2043C39.0836 20.6922 38.6276 21.1838 38.1549 21.6789C37.6809 22.1752 37.2046 22.6715 36.7235 23.1666C36.2424 23.6629 35.79 24.1306 35.3663 24.5685C35.8546 24.9431 36.3728 25.406 36.9198 25.9584C37.4655 26.5107 38.0029 27.1085 38.5331 27.7503C39.0633 28.3922 39.5648 29.0424 40.0375 29.701C40.5103 30.3595 40.91 30.9727 41.2367 31.5418H38.5702ZM27.0627 30.9323C26.1902 31.5336 24.9479 31.8342 23.3334 31.8342C22.2084 31.8342 21.3275 31.7412 20.692 31.5539C20.0553 31.3677 19.6232 31.2246 19.3958 31.1267L19.8111 29.1773C20.0708 29.2751 20.4873 29.4207 21.0582 29.6163C21.6291 29.8108 22.3879 29.9086 23.3334 29.9086C24.2621 29.9086 24.9515 29.7869 25.4003 29.5424C25.8479 29.299 26.0729 28.9089 26.0729 28.372C26.0729 27.8196 25.8527 27.3806 25.4123 27.056C24.9718 26.7303 24.2466 26.3653 23.2352 25.9584C22.7457 25.764 22.2766 25.5647 21.829 25.3607C21.3802 25.1579 20.9924 24.9181 20.6668 24.6425C20.3413 24.3657 20.0804 24.0329 19.8841 23.6427C19.689 23.2526 19.5909 22.773 19.5909 22.2039C19.5909 21.0824 20.0062 20.1924 20.838 19.5339C21.6698 18.8753 22.8032 18.546 24.2382 18.546C24.596 18.546 24.9551 18.5675 25.3141 18.6081C25.6732 18.6486 26.0071 18.6963 26.3171 18.7536C26.6271 18.8109 26.8999 18.8717 27.1357 18.9373C27.3727 19.0018 27.5558 19.059 27.6862 19.1079L27.2709 21.0574C27.0256 20.9285 26.6426 20.7937 26.122 20.6553C25.599 20.5181 24.9718 20.4489 24.2382 20.4489C23.6027 20.4489 23.0473 20.5742 22.5746 20.8259C22.1018 21.0777 21.8649 21.4726 21.8649 22.0083C21.8649 22.285 21.9175 22.5296 22.024 22.7408C22.1306 22.952 22.2933 23.1428 22.5136 23.3134C22.7338 23.4841 23.0066 23.6427 23.3334 23.7883C23.6589 23.935 24.0503 24.0889 24.5075 24.2524C25.1095 24.4803 25.648 24.7034 26.122 24.9229C26.5935 25.1424 26.9981 25.3977 27.332 25.69C27.6659 25.9823 27.9232 26.3366 28.1027 26.7506C28.2811 27.1658 28.372 27.674 28.372 28.2753C28.372 29.4457 27.9352 30.331 27.0627 30.9323ZM17.1206 31.3224C16.9255 31.3558 16.6527 31.3999 16.302 31.4572C15.9513 31.5145 15.5552 31.567 15.1147 31.6159C14.6755 31.6636 14.198 31.7089 13.6845 31.7495C13.1711 31.7901 12.6612 31.8104 12.1562 31.8104C11.4381 31.8104 10.7774 31.7376 10.1742 31.5908C9.57103 31.4441 9.04922 31.2126 8.60878 30.8953C8.16955 30.5791 7.82725 30.1604 7.5819 29.6402C7.33775 29.12 7.21448 28.4937 7.21448 27.7635C7.21448 27.0644 7.3569 26.4631 7.64294 25.9584C7.92779 25.455 8.31556 25.0481 8.80506 24.7391C9.29457 24.4313 9.86426 24.2035 10.5177 24.0567C11.1688 23.9112 11.8534 23.8372 12.5715 23.8372C12.8001 23.8372 13.0359 23.8491 13.2812 23.8742C13.5254 23.898 13.7575 23.9314 13.9778 23.972C14.198 24.0126 14.3895 24.0484 14.5522 24.0818C14.715 24.114 14.8299 24.1378 14.8945 24.1546V23.5198C14.8945 23.1464 14.8538 22.7766 14.7724 22.4115C14.6911 22.0452 14.5439 21.7207 14.3332 21.4356C14.1202 21.1516 13.8317 20.9238 13.4643 20.7532C13.0969 20.5826 12.6206 20.4967 12.0341 20.4967C11.2837 20.4967 10.6266 20.5503 10.0641 20.6553C9.50162 20.7615 9.08153 20.8713 8.80506 20.9846L8.53578 19.1079C8.829 18.9779 9.3185 18.8514 10.0031 18.7297C10.6889 18.6081 11.4297 18.546 12.2292 18.546C13.1424 18.546 13.9119 18.6653 14.5403 18.9004C15.1674 19.1366 15.6737 19.4694 16.0566 19.9001C16.4396 20.3308 16.7125 20.8426 16.8765 21.4356C17.0392 22.0297 17.1206 22.6835 17.1206 23.3982V31.3224ZM48 23.923C48 10.7112 37.2549 0 24 0C10.7451 0 0 10.7112 0 23.923C0 37.1361 10.7451 47.8473 24 47.8473C28.3541 47.8473 32.4341 46.6865 35.9551 44.6654L48 48L44.9756 35.5481C46.8989 32.1062 48 28.1441 48 23.923Z" fill="#E95420"/>
<path d="M74.7908 40.6344C72.8454 40.6344 71.182 40.3384 69.8005 39.7463C68.4472 39.1542 67.3477 38.3366 66.5019 37.2935C65.6561 36.2503 65.0358 35.038 64.6411 33.6565C64.2746 32.2468 64.0913 30.7385 64.0913 29.1314V10.6928H66.9671V28.7508C66.9671 30.3578 67.1503 31.7534 67.5168 32.9375C67.9115 34.0935 68.4472 35.0521 69.1239 35.8133C69.8005 36.5745 70.6181 37.1384 71.5767 37.5049C72.5353 37.8714 73.6066 38.0547 74.7908 38.0547C75.9749 38.0547 77.0462 37.8714 78.0048 37.5049C78.9634 37.1384 79.781 36.5745 80.4577 35.8133C81.1343 35.0521 81.6559 34.0935 82.0224 32.9375C82.4171 31.7534 82.6145 30.3578 82.6145 28.7508V10.6928H85.4902V29.1314C85.4902 30.7385 85.2929 32.2468 84.8982 33.6565C84.5316 35.038 83.9255 36.2503 83.0797 37.2935C82.2339 38.3366 81.1202 39.1542 79.7387 39.7463C78.3854 40.3384 76.7361 40.6344 74.7908 40.6344Z" fill="white"/>
<path d="M95.2639 19.4469C95.7432 19.0804 96.5044 18.6998 97.5475 18.3051C98.6189 17.8822 99.8735 17.6707 101.311 17.6707C102.89 17.6707 104.286 17.9527 105.498 18.5165C106.739 19.0804 107.782 19.8698 108.628 20.8848C109.473 21.8998 110.108 23.1121 110.531 24.5218C110.982 25.9033 111.207 27.4257 111.207 29.0891C111.207 30.8653 110.939 32.4583 110.404 33.8679C109.896 35.2776 109.163 36.4758 108.205 37.4626C107.274 38.4494 106.147 39.2106 104.821 39.7463C103.525 40.2538 102.073 40.5075 100.466 40.5075C98.5202 40.5075 96.9132 40.3806 95.6445 40.1269C94.3758 39.8732 93.3326 39.6053 92.515 39.3234V7.69022L95.2639 7.18274V19.4469ZM95.2639 37.4203C95.6868 37.5613 96.307 37.7023 97.1246 37.8432C97.9705 37.956 99.07 38.0124 100.423 38.0124C102.792 38.0124 104.695 37.2512 106.132 35.7287C107.57 34.1781 108.289 31.9649 108.289 29.0891C108.289 27.8768 108.162 26.735 107.909 25.6636C107.655 24.5641 107.246 23.6196 106.682 22.8302C106.118 22.0125 105.371 21.3641 104.441 20.8848C103.539 20.4055 102.411 20.1659 101.058 20.1659C100.409 20.1659 99.7889 20.2364 99.1969 20.3773C98.6048 20.4901 98.055 20.6452 97.5475 20.8425C97.0401 21.0399 96.589 21.2513 96.1943 21.4769C95.8277 21.7024 95.5176 21.9139 95.2639 22.1112V37.4203Z" fill="white"/>
<path d="M133.682 39.2388C132.864 39.4644 131.764 39.7181 130.383 40C129.001 40.282 127.31 40.4229 125.308 40.4229C123.673 40.4229 122.306 40.1833 121.206 39.704C120.106 39.2247 119.218 38.5481 118.542 37.6741C117.865 36.8001 117.372 35.7428 117.062 34.5023C116.78 33.2618 116.639 31.8944 116.639 30.4001V18.1359H119.387V29.512C119.387 31.0627 119.5 32.3737 119.726 33.445C119.951 34.5164 120.318 35.3904 120.825 36.067C121.333 36.7155 121.981 37.1948 122.771 37.5049C123.588 37.7868 124.575 37.9278 125.731 37.9278C127.028 37.9278 128.156 37.8573 129.114 37.7164C130.073 37.5754 130.679 37.4485 130.933 37.3357V18.1359H133.682V39.2388Z" fill="white"/>
<path d="M140.692 18.8972C141.509 18.6716 142.609 18.4179 143.99 18.1359C145.372 17.854 147.063 17.713 149.065 17.713C150.728 17.713 152.11 17.9527 153.209 18.432C154.337 18.9113 155.225 19.602 155.874 20.5042C156.55 21.3782 157.03 22.4354 157.312 23.676C157.594 24.9165 157.735 26.2839 157.735 27.7781V40H154.986V28.6662C154.986 27.1156 154.873 25.8046 154.647 24.7332C154.45 23.6619 154.098 22.7879 153.59 22.1112C153.111 21.4346 152.462 20.9553 151.645 20.6734C150.855 20.3632 149.854 20.2082 148.642 20.2082C147.345 20.2082 146.217 20.2786 145.259 20.4196C144.328 20.5606 143.722 20.6874 143.44 20.8002V40H140.692V18.8972Z" fill="white"/>
<path d="M167.07 18.1359H175.782V20.4619H167.07V32.0917C167.07 33.3323 167.169 34.3472 167.366 35.1366C167.592 35.8979 167.902 36.4899 168.297 36.9128C168.692 37.3357 169.171 37.6177 169.735 37.7586C170.299 37.8996 170.919 37.9701 171.595 37.9701C172.751 37.9701 173.682 37.8432 174.387 37.5895C175.091 37.3075 175.641 37.0538 176.036 36.8283L176.713 39.1119C176.318 39.3657 175.627 39.6617 174.64 40C173.654 40.3102 172.582 40.4652 171.426 40.4652C170.073 40.4652 168.931 40.2961 168.001 39.9577C167.099 39.5912 166.366 39.0555 165.802 38.3507C165.266 37.6177 164.885 36.7155 164.66 35.6441C164.434 34.5728 164.322 33.3041 164.322 31.838V11.7078L167.07 11.2003V18.1359Z" fill="white"/>
<path d="M197.356 39.2388C196.539 39.4644 195.439 39.7181 194.058 40C192.676 40.282 190.984 40.4229 188.983 40.4229C187.347 40.4229 185.98 40.1833 184.881 39.704C183.781 39.2247 182.893 38.5481 182.216 37.6741C181.54 36.8001 181.046 35.7428 180.736 34.5023C180.454 33.2618 180.313 31.8944 180.313 30.4001V18.1359H183.062V29.512C183.062 31.0627 183.175 32.3737 183.4 33.445C183.626 34.5164 183.992 35.3904 184.5 36.067C185.007 36.7155 185.656 37.1948 186.445 37.5049C187.263 37.7868 188.25 37.9278 189.406 37.9278C190.703 37.9278 191.83 37.8573 192.789 37.7164C193.747 37.5754 194.354 37.4485 194.607 37.3357V18.1359H197.356V39.2388Z" fill="white"/>
</svg>
