<svg width="258" height="289" viewBox="0 0 258 289" fill="none" xmlns="http://www.w3.org/2000/svg">
<defs>
<linearGradient id="paint0_linear_225_1954" x1="0.643698" y1="144.64" x2="257.569" y2="144.64" gradientUnits="userSpaceOnUse">
<stop offset="0.00022" stop-color="#FF9164"/>
<stop offset="1" stop-color="#BB53AA"/>
</linearGradient>
</defs>
<path d="M2.30644 287.161C1.91055 287.161 1.67302 287.081 1.43548 286.963C1.15836 286.765 1.03959 286.527 1 286.25C1 286.171 1.19795 277.778 4.56302 277.026C5.55275 276.788 6.85919 276.788 8.12605 276.749C9.94715 276.709 12.1641 276.63 12.3621 275.838C12.4413 275.482 12.4413 275.086 12.4809 274.69C12.5996 273.344 12.7184 271.76 14.777 271.048C16.4398 270.494 17.7066 267.485 19.5277 263.209C20.082 261.903 20.7154 260.478 21.3884 258.934C24.4368 252.203 27.4456 241.435 28.2373 236.922C28.9895 232.29 31.0482 228.608 34.2945 225.797C31.4836 218.513 29.2667 212.733 30.5335 210.476C31.8795 208.022 34.3737 207.23 49.7342 207.903C50.3281 206.32 50.8823 204.696 51.2386 202.954C51.8721 199.787 51.9908 195.67 52.1096 191.236C52.1888 188.069 52.3075 184.664 52.5451 181.299C51.8325 179.993 51.2386 178.924 50.8823 178.132C49.9322 176.192 49.5759 175.638 48.8237 175.638C48.3882 175.638 47.8735 176.549 47.4777 177.419C46.7255 178.884 45.7357 180.666 43.8355 180.745C43.4 180.745 43.0041 180.468 42.8853 179.914C42.3707 178.29 43.7959 173.738 46.2108 168.908C47.5173 166.216 51.1199 159.763 55.4747 157.11C57.9292 155.606 61.6506 154.656 65.8074 154.22C69.4496 151.33 73.6461 148.994 78.0405 147.609C81.2868 146.58 85.7208 145.431 90.2735 144.204C98.3101 142.106 107.376 139.77 112.206 137.355C115.888 135.534 119.253 132.565 123.172 129.121C127.21 125.558 131.803 121.44 137.899 117.679C140.71 115.938 144.55 113.958 148.945 112.177C149.261 109.366 150.251 107.109 151.953 105.407C154.527 102.834 158.525 101.765 163.83 102.358C165.691 102.556 167.393 103.031 168.937 103.784C171.867 102.556 175.509 101.369 179.27 100.221C184.773 98.4392 190.434 96.6577 194.828 94.4011C197.56 93.055 199.777 91.8674 201.757 90.6797C198.312 90.0067 195.581 88.9378 193.72 88.1856L193.284 87.9876C192.968 87.8689 185.169 84.7809 185.604 81.9305C185.881 80.3469 188.613 79.476 193.957 79.2384C199.619 79.0009 202.746 78.9613 211.179 80.822C213.317 81.2575 215.098 81.4554 216.563 81.3762C221.947 77.4173 222.541 73.8939 219.255 67.8763C216.365 62.5318 208.526 61.265 199.421 59.7606C195.501 59.1271 191.543 58.4541 187.663 57.3852C173.134 53.4659 168.739 45.746 166.206 37.8678C163.949 30.9793 155.279 24.0512 151.122 20.6861C148.707 18.7858 148.311 18.4295 148.549 17.9544C148.747 17.6773 149.103 17.6773 149.182 17.6773C151.637 17.7565 165.651 22.7447 170.956 35.0569C175.271 45.0334 180.695 48.1214 192.136 51.6052C195.62 52.6345 199.421 53.4263 203.182 54.1785C212.327 55.9996 220.957 57.7415 224.362 63.6007C226.737 67.6388 227.529 71.7165 227.608 75.042C227.687 74.9628 227.806 74.844 227.885 74.8044C230.617 72.3895 232.042 67.6784 231.726 62.413C231.29 55.1286 227.767 48.636 221.987 44.5979C218.622 42.2226 214.821 40.3223 211.139 38.4616C204.29 35.0173 197.798 31.7314 195.304 26.2681C191.543 18.0732 182.754 9.91783 170.481 3.22726C169.65 2.79178 169.531 2.67302 169.61 2.31671L169.729 2L170.085 2.07918C170.283 2.11877 190.988 7.14659 196.372 16.2125C197.6 18.2711 198.273 19.7359 198.827 20.9236C200.173 23.774 200.886 25.2388 206.072 29.1582C209.239 31.5731 213.039 33.4734 217.117 35.5716C225.946 40.0452 235.17 44.7167 237.149 54.2181C239.604 65.7781 236.08 71.954 233.705 76.0317C232.636 77.8924 231.844 79.2384 232.042 80.4261C232.596 84.2267 238.376 87.948 243.167 90.4026C245.898 91.7486 247.878 92.3028 249.58 92.7779C251.203 93.2134 252.391 93.4905 253.262 94.4407C254.766 96.0638 257.419 100.3 256.944 102.358C256.667 103.546 256.31 103.705 255.439 104.14C254.885 104.378 254.133 104.734 252.985 105.605C250.134 107.743 247.759 108.455 241.623 107.149C235.368 105.842 228.915 105.486 223.966 106.199C214.029 107.663 204.29 115.542 199.777 122.549C199.223 123.459 198.471 124.608 197.639 125.795C194.828 130.15 190.87 136.088 187.98 141.354C187.782 141.631 187.702 141.908 187.544 142.106C187.544 143.729 187.504 145.273 187.465 146.777C187.425 148.519 187.386 150.182 187.425 151.568C192.374 150.38 201.44 145.907 205.438 143.887C207.259 142.977 208.566 142.344 209.081 142.146C212.762 140.839 215.613 142.264 217.236 146.223C218.542 149.39 223.689 176.786 222.858 181.735C221.907 187.554 215.019 196.818 211.337 199.391C210.427 199.985 209.754 200.262 209.199 200.104C208.645 199.985 207.893 199.55 207.537 198.045C206.943 195.433 208.091 190.761 209.595 189.573C210.149 189.177 210.625 188.861 211.1 188.623C212.446 187.792 213 187.396 212.525 186.169C211.535 183.714 212.762 183.16 215.019 182.17L215.296 182.051C216.959 181.299 216.919 179.993 216.484 176.39C216.405 175.717 216.286 174.925 216.207 174.094C216.167 173.659 216.127 173.144 216.009 172.55C215.692 168.987 215.138 163.009 213.435 158.931C212.01 163.009 208.685 168.512 204.765 174.49C200.806 180.547 196.452 185.694 192.572 190.286C190.988 192.147 189.484 193.928 188.138 195.591C183.229 201.727 172.936 201.331 170.481 200.381C169.729 200.104 169.412 199.352 169.61 198.323C170.204 195.789 174.005 191.751 177.013 192.028C180.22 192.305 183.15 191.751 183.506 191.038C183.546 190.999 183.585 190.84 183.387 190.603C183.15 190.286 183.07 189.93 183.15 189.534C183.704 186.842 191.463 182.685 191.78 182.487C194.828 180.864 204.686 165.662 205.003 163.286C203.538 163.524 196.65 168.037 192.018 171.046C188.851 173.104 185.881 175.044 184.139 176.073C181.566 177.538 179.389 177.974 177.568 177.34C175.944 176.786 174.678 175.282 173.767 173.025L173.569 172.51C172.659 170.254 171.669 167.641 169.254 166.691C167.195 165.859 164.464 166.374 160.821 168.156C159.317 168.868 157.694 169.779 156.031 170.689C145.936 176.192 132.04 183.754 113.116 178.766C111.612 178.37 110.306 177.855 109.158 177.301C107.178 177.499 105.199 177.538 103.259 177.499C99.9333 177.38 97.2412 177.261 94.9451 177.261C93.9553 181.497 92.1738 186.05 89.838 190.959C92.3322 195.631 95.0242 201.213 94.9055 206.359C94.5887 218.315 89.838 224.531 80.3762 225.322C72.8939 225.916 64.7781 224.768 58.8002 223.343C57.1374 224.056 55.3163 224.689 53.5348 225.402C50.4073 226.589 47.3589 227.658 44.8252 229.083C46.0129 235.259 47.636 244.325 47.9923 248.601C48.1111 250.145 48.3486 251.689 48.5862 253.272C49.2988 258.063 50.0905 263.011 48.1903 267.96C45.9337 273.819 42.3707 280.114 39.7974 280.153C38.8076 280.153 38.0554 278.886 37.6595 277.778C36.7094 275.323 36.2343 270.929 37.9367 269.425C38.3722 269.029 38.8868 268.593 39.2827 268.237C40.5891 267.168 42.2123 265.782 42.2123 265.07C42.2123 264.991 42.1727 264.872 42.0144 264.714C40.3516 263.407 39.9161 262.615 41.0642 258.854C42.0539 255.489 40.5496 245.434 37.8179 236.407C35.878 240.168 34.2945 244.444 32.513 249.195C31.1669 252.956 29.7021 256.796 27.881 260.953L27.208 262.576C23.0512 272.236 20.0028 279.282 12.2433 283.043C6.26536 286.448 3.53371 287.161 2.30644 287.161ZM34.6508 226.589C31.642 229.321 29.7813 232.765 29.0687 237.08C28.3165 241.633 25.2286 252.56 22.1802 259.29C21.5072 260.834 20.8738 262.219 20.3195 263.565C18.3796 268.197 17.1128 271.246 15.0541 271.879C13.4706 272.433 13.3914 273.502 13.2726 274.809C13.233 275.205 13.1935 275.64 13.0747 276.036C12.7976 277.461 10.541 277.54 8.08646 277.58C6.8592 277.62 5.63193 277.659 4.68179 277.857C2.38562 278.411 1.67302 284.983 1.7522 286.29C1.7522 286.329 1.75219 286.369 1.79178 286.369C2.06891 286.567 3.69206 286.765 12.2037 282.647C19.6861 279.005 22.6949 272.117 26.7725 262.615L27.4456 260.992C29.2271 256.915 30.6127 252.995 32.0775 249.274C33.9778 244.206 35.6405 239.654 37.7783 235.655C37.6595 235.259 37.5012 234.784 37.3824 234.388C36.5906 231.736 35.6009 229.123 34.6508 226.589ZM38.768 235.655C41.8164 245.117 43.4 255.687 42.2915 259.329C41.2226 262.892 41.6581 263.288 42.9645 264.357C43.3604 264.674 43.5187 265.07 43.5187 265.347C43.5187 266.495 41.9352 267.802 40.312 269.187C39.8765 269.583 39.3619 269.939 38.966 270.375C37.6991 271.444 37.9367 275.284 38.9264 277.818C39.4807 279.124 39.9953 279.639 40.2724 279.639C41.7768 279.639 45.1419 275.165 47.8735 267.999C49.6946 263.288 48.9425 258.419 48.2299 253.708C47.9923 252.045 47.7152 250.541 47.636 248.957C47.2797 244.84 45.6961 235.972 44.5085 229.836C42.4102 231.102 40.6683 232.567 39.5598 234.428C39.2827 234.745 39.0056 235.22 38.768 235.655ZM35.2842 226.035C36.2739 228.648 37.3428 231.38 38.2138 234.072C38.293 234.27 38.3326 234.428 38.4117 234.626C38.5305 234.388 38.6889 234.111 38.8076 233.913C40.0349 231.855 41.9748 230.271 44.2314 228.925C43.9542 227.421 43.6771 226.114 43.5187 225.124L43.2416 223.699C43.0437 222.63 43.3208 221.641 44.1522 220.968C46.0129 219.384 49.9718 219.74 52.941 220.888C54.4454 221.443 56.504 222.155 59.0773 222.749C61.0567 221.878 62.9174 220.968 64.501 219.899C65.4907 219.226 66.4409 218.592 67.3514 217.998C73.5273 213.96 78.476 210.754 86.7897 195.908C87.7002 194.324 88.4524 192.741 89.2442 191.236C89.0463 190.84 88.8483 190.484 88.6504 190.088C86.5521 186.169 84.929 183.16 85.2061 181.101C85.7604 177.578 88.2545 176.746 94.6283 176.707C96.489 168.393 95.3805 162.099 91.1445 159.169C86.0771 155.645 74.8338 154.141 65.8866 155.012C62.7591 157.506 60.067 160.515 58.1271 163.761C54.96 168.947 53.7327 175.044 53.1785 181.18C53.416 181.576 53.6932 182.051 53.9307 182.487C55.5538 185.1 57.4145 187.04 59.3544 189.059C61.413 191.157 63.4717 193.334 65.3324 196.343C67.391 199.669 67.5098 203.628 65.7678 206.518C64.5802 208.457 62.7195 209.526 60.6608 209.368C56.5832 209.13 53.0597 208.932 50.0509 208.774C47.1214 215.979 41.8956 221.68 37.2637 224.491C36.6698 224.966 35.9572 225.481 35.2842 226.035ZM48.0319 220.77C46.6859 220.77 45.4586 221.047 44.7856 221.68C44.2313 222.195 44.0334 222.828 44.1918 223.62L44.4689 225.045C44.6668 225.995 44.8648 227.183 45.1419 228.569C47.7152 227.223 50.7636 226.075 53.6932 225.006C55.1184 224.451 56.504 223.976 57.9292 223.383C55.8706 222.828 54.089 222.314 52.8222 221.759C51.1199 221.047 49.4175 220.77 48.0319 220.77ZM41.0246 208.457C33.5423 208.457 32.1171 209.328 31.2461 210.872C30.2168 212.773 32.4734 218.79 34.9675 225.243C35.6009 224.689 36.2739 224.253 37.0261 223.778C41.4205 221.007 46.4483 215.623 49.3779 208.695C45.9733 208.537 43.2416 208.457 41.0246 208.457ZM60.3837 223.066C66.2033 224.372 73.7253 225.362 80.693 224.808C89.6401 224.095 94.1533 218.157 94.4304 206.636C94.5491 201.846 92.1342 196.62 89.7589 192.186C89.0859 193.532 88.3337 194.997 87.5419 196.343C79.1094 211.387 74.1212 214.633 67.8265 218.711C66.8763 219.305 65.9658 219.938 65.0157 220.611C63.63 221.561 62.0861 222.314 60.3837 223.066ZM50.5656 207.943C53.4952 208.141 56.9791 208.259 60.8984 208.537C62.6799 208.655 64.2635 207.784 65.2532 206.082C66.8368 203.509 66.5992 199.827 64.8177 196.779C63.0362 193.849 60.8984 191.711 58.9585 189.613C57.0582 187.633 55.0392 185.614 53.416 182.883C53.3368 182.764 53.2973 182.685 53.2181 182.566C53.0201 185.496 52.941 188.465 52.9014 191.315C52.8222 195.71 52.7034 199.946 51.9908 203.113C51.6345 204.776 51.1595 206.399 50.5656 207.943ZM177.093 193.057C174.598 193.057 171.273 196.62 170.798 198.718C170.6 199.669 170.996 199.787 171.115 199.867C173.411 200.777 183.189 201.094 187.821 195.274C189.167 193.611 190.672 191.79 192.255 189.93C196.174 185.377 200.49 180.27 204.409 174.252C208.328 168.274 212.01 162.178 213.198 158.06C212.248 156.2 210.941 154.893 209.239 154.656C205.993 154.22 196.452 161.386 190.197 166.097C189.642 166.532 189.048 166.968 188.534 167.364C181.804 172.392 179.072 169.581 171.431 159.882C168.62 156.318 164.859 150.538 161.257 144.323C158.248 144.917 155.121 145.55 151.993 146.144C150.33 152.28 147.915 158.298 143.521 162.851C136.316 170.293 123.37 175.955 111.137 177.419C111.889 177.736 112.8 177.974 113.671 178.251C132.198 183.2 145.975 175.757 155.952 170.254C157.694 169.304 159.317 168.433 160.821 167.681C164.662 165.78 167.67 165.266 169.927 166.176C172.659 167.206 173.767 170.135 174.638 172.431L174.836 172.946C175.667 175.005 176.776 176.311 178.161 176.786C179.745 177.34 181.724 176.984 184.06 175.559C185.842 174.569 188.771 172.629 191.899 170.571C201.519 164.276 204.884 162.217 205.834 162.732C205.953 162.811 206.151 162.93 206.151 163.326C206.151 164.83 202.628 170.491 200.569 173.579C197.798 177.657 194.274 182.368 192.493 183.358C188.771 185.417 184.614 188.346 184.298 189.85C184.258 190.088 184.298 190.207 184.377 190.286C184.892 190.88 184.694 191.355 184.575 191.592C183.823 193.018 179.705 193.216 177.29 193.018C177.251 193.057 177.172 193.057 177.093 193.057ZM214.069 158.06C216.167 162.376 216.761 168.908 217.117 172.748C217.157 173.302 217.196 173.817 217.315 174.292C217.394 175.123 217.513 175.876 217.592 176.549C218.028 179.953 218.265 181.972 215.929 183.081L215.652 183.2C213.237 184.268 212.881 184.506 213.594 186.129C214.346 188.029 213.158 188.742 211.852 189.534C211.416 189.811 210.902 190.088 210.427 190.484C209.239 191.434 208.051 195.67 208.645 198.204C208.843 199.075 209.199 199.51 209.674 199.629C209.872 199.669 210.268 199.629 211.179 199.035C214.742 196.581 221.472 187.396 222.382 181.933C223.135 177.261 218.067 149.865 216.8 146.896C215.296 143.254 212.96 142.106 209.674 143.254C209.239 143.452 207.853 144.125 206.151 144.917C199.381 148.282 192.176 151.726 187.821 152.637C187.9 154.735 188.217 156.2 189.009 156.596C191.582 157.862 199.54 154.141 203.776 152.162C204.686 151.766 205.438 151.409 206.072 151.132C207.893 150.301 209.635 150.182 211.1 150.816C212.446 151.37 213.554 152.597 214.188 154.299C214.544 155.17 214.465 156.516 214.069 158.06ZM94.5096 177.578C88.7691 177.617 86.473 178.409 86.0771 181.299C85.8395 183.081 87.5023 186.169 89.4421 189.732C89.5609 189.93 89.6797 190.128 89.7985 190.365C91.9759 185.773 93.5594 181.418 94.5096 177.578ZM64.5406 155.21C60.9776 155.645 57.8896 156.516 55.7518 157.783C48.9029 162.019 42.727 176.984 43.5583 179.716C43.6375 179.953 43.6771 179.953 43.7563 179.953C45.1815 179.953 45.9733 178.409 46.6463 177.103C47.2401 175.915 47.834 174.925 48.7445 174.925C50.0114 174.925 50.4864 175.876 51.5158 177.855C51.7929 178.449 52.1492 179.161 52.6638 179.993C53.2577 174.173 54.5641 168.433 57.6125 163.445C59.394 160.396 61.7693 157.625 64.5406 155.21ZM95.4993 176.746C97.7559 176.746 100.448 176.865 103.615 176.984C105.119 177.024 106.624 177.024 108.168 176.905C105.317 175.163 103.813 172.788 103.853 170.016C103.971 166.097 107.257 161.584 112.839 157.665C118.699 153.508 126.656 150.261 135.207 148.519C139.681 147.569 144.115 146.777 148.39 146.025C149.341 145.827 150.291 145.669 151.241 145.471C151.993 142.621 152.587 139.731 153.181 136.999C153.577 135.138 153.933 133.317 154.368 131.575C151.439 125.399 149.261 119.936 148.865 116.65C148.668 115.344 148.668 114.156 148.747 113.008C144.511 114.75 140.868 116.65 138.137 118.313C132.119 122.074 127.527 126.112 123.528 129.675C119.569 133.159 116.244 136.207 112.404 138.068C107.495 140.522 98.3497 142.858 90.3131 144.956C85.6812 146.184 81.3264 147.332 78.1197 148.321C74.1608 149.588 70.3998 151.528 67.1139 154.062C76.0214 153.428 86.473 155.012 91.6196 158.496C95.3805 161.109 96.9641 166.176 96.0931 173.025C96.014 174.252 95.816 175.48 95.4993 176.746ZM151.082 146.382C150.251 146.58 149.42 146.698 148.628 146.817C144.313 147.569 139.918 148.44 135.484 149.311C116.759 153.151 104.961 163.049 104.724 170.016C104.644 172.827 106.347 175.084 109.672 176.786C122.103 175.638 135.564 169.937 142.927 162.336C147.084 157.981 149.459 152.201 151.082 146.382ZM162.128 144.204C165.691 150.38 169.333 156.002 172.065 159.446C179.626 169.066 181.922 171.362 188.019 166.73C188.573 166.335 189.088 165.899 189.682 165.464C196.452 160.396 205.715 153.389 209.358 153.864C211.1 154.101 212.485 155.21 213.475 156.952C213.673 155.962 213.673 155.091 213.396 154.418C212.842 152.914 211.931 151.924 210.783 151.409C209.556 150.855 208.012 151.014 206.428 151.726C205.834 152.003 205.082 152.36 204.171 152.755C199.183 155.131 191.622 158.615 188.692 157.189C187.623 156.635 187.188 155.052 187.069 152.597C185.763 152.795 184.773 152.716 184.219 152.241C182.873 151.053 184.298 147.173 187.148 141.948C187.148 139.572 187.069 137.197 186.792 134.742C185.248 136.049 183.387 137.197 181.21 138.266C176.063 140.879 169.412 142.66 162.128 144.204ZM187.069 143.769C183.862 149.945 184.258 151.449 184.614 151.766C185.01 152.082 185.842 152.122 186.911 151.964C186.871 150.499 186.911 148.797 186.95 146.936C186.99 145.907 187.069 144.877 187.069 143.769ZM155.041 132.723C154.725 134.149 154.408 135.613 154.091 137.118C153.537 139.81 152.943 142.541 152.231 145.273C155.16 144.719 158.09 144.204 160.861 143.61C158.802 140.047 156.744 136.286 155.041 132.723ZM155.318 131.496C156.269 133.436 157.298 135.455 158.446 137.632C159.475 139.612 160.584 141.591 161.653 143.492C172.381 141.235 181.329 138.543 186.594 133.911C186.356 132.248 186.04 130.586 185.604 129.002C182.397 117.957 177.488 110.91 172.54 107.07C169.452 107.268 166.245 107.703 162.959 108.495C160.584 111.108 159.752 114.75 158.604 119.421C158.05 121.836 157.338 124.489 156.427 127.458C156.031 128.685 155.675 130.031 155.318 131.496ZM187.465 134.188C187.742 136.326 187.821 138.503 187.861 140.641C190.394 136.168 193.799 130.783 197.323 125.439C198.154 124.172 198.867 123.064 199.421 122.193C204.053 114.987 214.029 106.951 224.164 105.446C229.192 104.734 235.724 105.09 242.058 106.436C247.918 107.703 250.055 107.03 252.747 105.011C254.014 104.061 254.806 103.705 255.36 103.467C256.073 103.15 256.231 103.071 256.39 102.24C256.746 100.696 254.529 96.816 252.906 95.0345C252.193 94.2823 251.164 94.0052 249.58 93.5697C247.997 93.1738 245.819 92.6196 243.008 91.1152C238.06 88.5815 232.042 84.6226 231.448 80.5053C231.25 79.0405 232.082 77.4965 233.23 75.5566C235.486 71.5977 238.931 65.5802 236.555 54.3368C234.616 45.1918 225.629 40.639 216.919 36.2446C212.802 34.1464 208.883 32.2065 205.715 29.752C200.371 25.7139 199.658 24.2095 198.233 21.2403C197.679 20.0527 196.966 18.5483 195.779 16.5688C191.82 9.91783 179.072 5.40467 173.094 3.66274C184.298 10.195 192.414 17.994 196.056 25.8327C198.471 31.0584 204.805 34.2652 211.535 37.6302C215.217 39.4909 219.057 41.4308 222.462 43.8061C228.4 47.963 232.082 54.6932 232.517 62.2547C232.834 67.6784 231.25 72.6666 228.4 75.2399C228.123 75.4775 227.846 75.7546 227.569 75.9525C227.529 78.4862 227.133 80.5449 226.737 81.5346C226.539 82.168 224.916 84.9393 222.976 86.4436C220.245 88.5419 216.405 90.2442 213.079 90.7589C209.239 91.3923 205.834 91.2735 202.825 90.7985C200.569 92.1049 198.114 93.4113 194.987 95.0345C190.592 97.2515 184.892 99.1122 179.349 100.894C175.865 102.042 172.5 103.071 169.729 104.219C170.798 104.773 171.827 105.486 172.817 106.278C177.053 106.08 180.893 106.595 184.1 108.059C188.534 110.118 191.226 113.721 192.097 118.946C193.245 125.281 191.78 130.269 187.465 134.188ZM173.886 106.99C181.289 113.443 185.09 124.528 186.356 128.764C186.752 130.229 187.069 131.654 187.307 133.198C190.83 129.715 192.374 125.162 191.424 118.986C190.592 114.037 188.098 110.593 183.941 108.693C181.051 107.465 177.647 106.951 173.886 106.99ZM149.697 112.731C149.578 113.958 149.618 115.225 149.776 116.65C150.093 119.461 151.874 124.33 154.804 130.388C155.081 129.319 155.358 128.21 155.714 127.22C156.665 124.33 157.298 121.599 157.892 119.223C158.921 114.908 159.792 111.464 161.732 108.812C157.535 109.762 153.418 111.187 149.697 112.731ZM161.059 103.032C157.338 103.032 154.448 104.021 152.508 105.961C151.043 107.426 150.132 109.405 149.776 111.781C153.735 110.197 158.129 108.732 162.524 107.743C163.118 107.109 163.83 106.476 164.662 105.922C165.572 105.367 166.601 104.773 167.829 104.259C166.403 103.665 165.018 103.309 163.711 103.19C162.801 103.031 161.89 103.032 161.059 103.032ZM168.818 104.694C167.354 105.288 166.087 105.961 165.097 106.595C164.701 106.832 164.384 107.149 164.028 107.426C166.562 106.872 169.096 106.476 171.55 106.357C170.639 105.644 169.729 105.13 168.818 104.694ZM204.171 90.2442C206.784 90.5609 209.833 90.6005 213.119 90.0463C216.286 89.492 220.007 87.9084 222.66 85.8894C224.481 84.5434 225.985 81.8909 226.183 81.4158C226.5 80.5053 226.816 78.9217 226.935 76.8235C223.372 79.9906 220.759 81.8909 216.998 82.168C216.444 82.5243 215.969 82.9202 215.336 83.3161L214.069 84.1475C210.308 86.4832 207.457 88.3439 204.171 90.2442ZM198.233 79.8718C196.927 79.8718 195.62 79.9114 194.076 79.9906C187.504 80.2677 186.594 81.495 186.515 82.0493C186.277 83.3953 189.959 85.7706 193.68 87.2354L194.116 87.4334C196.174 88.2647 199.144 89.4128 202.905 90.0463C206.547 87.948 209.556 86.0082 213.594 83.4349L214.861 82.6035C215.058 82.4847 215.296 82.3264 215.494 82.2076C214.188 82.168 212.723 82.0097 211.1 81.6534C205.003 80.1886 201.677 79.8718 198.233 79.8718ZM149.895 18.5483C150.33 18.9442 151.043 19.4984 151.716 20.0527C155.992 23.4573 164.741 30.5438 167.076 37.6302C169.531 45.2313 173.807 52.8325 187.94 56.5934C191.78 57.5832 195.739 58.2562 199.579 58.9688C208.487 60.4732 216.84 61.8192 219.968 67.4805C223.214 73.4584 222.858 77.2194 218.146 81.1783C221.195 80.5845 223.491 78.7238 226.856 75.7546C226.856 72.4291 226.143 68.1931 223.689 63.9966C220.482 58.4145 211.971 56.7518 203.063 54.9307C199.342 54.2181 195.501 53.3867 191.938 52.3574C180.299 48.7944 174.717 45.6272 170.323 35.3341C165.493 24.1699 153.22 19.2213 149.895 18.5483Z" fill="white" stroke="url(#paint0_linear_225_1954)" stroke-width="1.7842" stroke-miterlimit="10"/>
</svg>
