STARTFONT 2.1
FONT -gbdfed-Unknown-Medium-R-Normal--16-120-96-96-P-100-FontSpecific-0
SIZE 16 75 75
FONTBOUNDINGBOX 8 14 0 -1
STARTPROPERTIES 8
POINT_SIZE 160
PIXEL_SIZE 16
RESOLUTION_X 75
RESOLUTION_Y 75
FONT_ASCENT 14
FONT_DESCENT 2
AVERAGE_WIDTH 80
_GBDFED_INFO "Edited with gbdfed 1.6."
ENDPROPERTIES
CHARS 1
STARTCHAR U+2713
ENCODING 10003
SWIDTH 480 0
DWIDTH 8 0
BBX 8 9 0 0
BITMAP
01
03
06
CC
48
78
30
30
20
ENDCHAR
ENDFONT
