<?xml version="1.0" encoding="UTF-8"?>
<svg width="200px" height="200px" viewBox="0 0 200 200" version="1.1" xmlns="http://www.w3.org/2000/svg"
  xmlns:xlink="http://www.w3.org/1999/xlink">
  <title>QR code</title>
  <g id="Ubuntu-Flutter-Installer---Material-icons" stroke="none" stroke-width="1" fill="none" fill-rule="evenodd">
    <g id="Turn-off-RST" transform="translate(-620.000000, -350.000000)" fill="#111111" fill-rule="nonzero">
      <g id="Content" transform="translate(264.000000, 207.000000)">
        <g id="QR-code" transform="translate(356.000000, 143.000000)">
          <path
            d="M42.2764228,157.55102 L42.2764228,200 L0,200 L0,157.55102 L42.2764228,157.55102 Z M169.918699,127.346939 L169.918699,133.061224 L175.609756,133.061224 L175.609756,139.591837 L181.300813,139.591837 L181.300813,157.55102 L175.609756,157.55102 L175.609756,169.795918 L181.300813,169.795918 L181.300813,175.510204 L194.308943,175.510204 L194.308943,182.040816 L200,182.040816 L200,187.755102 L187.804878,187.755102 L187.804878,200 L169.918699,200 L169.918699,193.469388 L175.609756,193.469388 L175.609756,187.755102 L169.918699,187.755102 L169.918699,182.040816 L163.414634,182.040816 L163.414634,175.510204 L157.723577,175.510204 L157.723577,182.040816 L139.837398,182.040816 L139.837398,163.265306 L145.528455,163.265306 L145.528455,151.836735 L139.837398,151.836735 L139.837398,157.55102 L127.642276,157.55102 L127.642276,151.836735 L139.837398,151.836735 L139.837398,145.306122 L163.414634,145.306122 L163.414634,139.591837 L151.219512,139.591837 L151.219512,133.061224 L163.414634,133.061224 L163.414634,127.346939 L169.918699,127.346939 Z M121.138211,194.285714 L121.138211,200 L115.447154,200 L115.447154,194.285714 L121.138211,194.285714 Z M163.414634,187.755102 L163.414634,194.285714 L157.723577,194.285714 L157.723577,200 L145.528455,200 L145.528455,194.285714 L133.333333,194.285714 L133.333333,187.755102 L163.414634,187.755102 Z M78.8617886,187.755102 L78.8617886,194.285714 L84.5528455,194.285714 L84.5528455,200 L73.1707317,200 L73.1707317,187.755102 L78.8617886,187.755102 Z M60.9756098,187.755102 L60.9756098,194.285714 L66.6666667,194.285714 L66.6666667,200 L55.2845528,200 L55.2845528,187.755102 L60.9756098,187.755102 Z M200,193.469388 L200,200 L193.495935,200 L193.495935,193.469388 L200,193.469388 Z M96.7479675,182.040816 L96.7479675,187.755102 L102.439024,187.755102 L102.439024,182.040816 L108.943089,182.040816 L108.943089,200 L102.439024,200 L102.439024,193.469388 L91.0569106,193.469388 L91.0569106,187.755102 L84.5528455,187.755102 L84.5528455,182.040816 L96.7479675,182.040816 Z M78.8617886,151.836735 L78.8617886,163.265306 L85.3658537,163.265306 L85.3658537,169.795918 L91.0569106,169.795918 L91.0569106,157.55102 L85.3658537,157.55102 L85.3658537,151.836735 L108.943089,151.836735 L108.943089,157.55102 L121.138211,157.55102 L121.138211,163.265306 L133.333333,163.265306 L133.333333,182.040816 L127.642276,182.040816 L127.642276,194.285714 L121.138211,194.285714 L121.138211,176.326531 L108.943089,176.326531 L108.943089,163.265306 L103.252033,163.265306 L103.252033,157.55102 L96.7479675,157.55102 L96.7479675,176.326531 L78.8617886,176.326531 L78.8617886,169.795918 L60.9756098,169.795918 L60.9756098,163.265306 L72.3577236,163.265306 L72.3577236,151.836735 L78.8617886,151.836735 Z M36.5853659,163.265306 L5.69105691,163.265306 L5.69105691,194.285714 L36.5853659,194.285714 L36.5853659,163.265306 Z M187.804878,182.040816 L181.300813,182.040816 L181.300813,187.755102 L187.804878,187.755102 L187.804878,182.040816 Z M73.1707317,175.510204 L73.1707317,187.755102 L60.9756098,187.755102 L60.9756098,182.040816 L66.6666667,182.040816 L66.6666667,175.510204 L73.1707317,175.510204 Z M30.0813008,169.795918 L30.0813008,187.755102 L12.195122,187.755102 L12.195122,169.795918 L30.0813008,169.795918 Z M55.2845528,182.040816 L55.2845528,187.755102 L49.5934959,187.755102 L49.5934959,182.040816 L55.2845528,182.040816 Z M60.9756098,175.510204 L60.9756098,182.040816 L55.2845528,182.040816 L55.2845528,175.510204 L60.9756098,175.510204 Z M102.439024,176.326531 L102.439024,182.040816 L96.7479675,182.040816 L96.7479675,176.326531 L102.439024,176.326531 Z M200,151.836735 L200,169.795918 L187.804878,169.795918 L187.804878,164.081633 L194.308943,164.081633 L194.308943,151.836735 L200,151.836735 Z M169.918699,151.836735 L151.219512,151.836735 L151.219512,169.795918 L169.918699,169.795918 L169.918699,151.836735 Z M18.699187,90.6122449 L18.699187,97.1428571 L13.0081301,97.1428571 L13.0081301,102.857143 L18.699187,102.857143 L18.699187,120.816327 L24.3902439,120.816327 L24.3902439,108.571429 L30.8943089,108.571429 L30.8943089,102.857143 L36.5853659,102.857143 L36.5853659,108.571429 L48.7804878,108.571429 L48.7804878,120.816327 L43.0894309,120.816327 L43.0894309,115.102041 L36.5853659,115.102041 L36.5853659,120.816327 L30.8943089,120.816327 L30.8943089,133.061224 L42.2764228,133.061224 L42.2764228,127.346939 L36.5853659,127.346939 L36.5853659,120.816327 L43.0894309,120.816327 L43.0894309,127.346939 L54.4715447,127.346939 L54.4715447,157.55102 L60.9756098,157.55102 L60.9756098,163.265306 L54.4715447,163.265306 L54.4715447,169.795918 L48.7804878,169.795918 L48.7804878,151.836735 L30.8943089,151.836735 L30.8943089,139.591837 L24.3902439,139.591837 L24.3902439,145.306122 L18.699187,145.306122 L18.699187,151.836735 L0,151.836735 L0,145.306122 L12.195122,145.306122 L12.195122,139.591837 L0,139.591837 L0,133.061224 L6.50406504,133.061224 L6.50406504,127.346939 L12.195122,127.346939 L12.195122,120.816327 L0,120.816327 L0,97.1428571 L6.50406504,97.1428571 L6.50406504,90.6122449 L18.699187,90.6122449 Z M187.804878,157.55102 L187.804878,164.081633 L181.300813,164.081633 L181.300813,157.55102 L187.804878,157.55102 Z M163.414634,157.55102 L163.414634,164.081633 L156.910569,164.081633 L156.910569,157.55102 L163.414634,157.55102 Z M66.6666667,151.836735 L66.6666667,157.55102 L60.9756098,157.55102 L60.9756098,151.836735 L66.6666667,151.836735 Z M85.3658537,139.591837 L85.3658537,151.836735 L78.8617886,151.836735 L78.8617886,139.591837 L85.3658537,139.591837 Z M121.138211,139.591837 L121.138211,145.306122 L127.642276,145.306122 L127.642276,151.836735 L108.943089,151.836735 L108.943089,145.306122 L115.447154,145.306122 L115.447154,139.591837 L121.138211,139.591837 Z M48.7804878,133.061224 L43.0894309,133.061224 L43.0894309,139.591837 L36.5853659,139.591837 L36.5853659,145.306122 L48.7804878,145.306122 L48.7804878,133.061224 Z M78.8617886,133.061224 L78.8617886,139.591837 L66.6666667,139.591837 L66.6666667,145.306122 L60.9756098,145.306122 L60.9756098,133.061224 L78.8617886,133.061224 Z M139.02439,0 L139.02439,5.71428571 L132.520325,5.71428571 L132.520325,11.4285714 L139.02439,11.4285714 L139.02439,17.1428571 L144.715447,17.1428571 L144.715447,35.9183673 L139.02439,35.9183673 L139.02439,42.4489796 L144.715447,42.4489796 L144.715447,35.9183673 L151.219512,35.9183673 L151.219512,48.1632653 L157.723577,48.1632653 L157.723577,53.877551 L163.414634,53.877551 L163.414634,48.1632653 L193.495935,48.1632653 L193.495935,53.877551 L181.300813,53.877551 L181.300813,60.4081633 L187.804878,60.4081633 L187.804878,66.122449 L181.300813,66.122449 L181.300813,72.6530612 L175.609756,72.6530612 L175.609756,66.122449 L169.105691,66.122449 L169.105691,72.6530612 L163.414634,72.6530612 L163.414634,66.122449 L151.219512,66.122449 L151.219512,72.6530612 L163.414634,72.6530612 L163.414634,96.3265306 L169.105691,96.3265306 L169.105691,115.102041 L175.609756,115.102041 L175.609756,108.571429 L181.300813,108.571429 L181.300813,102.040816 L175.609756,102.040816 L175.609756,96.3265306 L187.804878,96.3265306 L187.804878,90.6122449 L193.495935,90.6122449 L193.495935,78.3673469 L200,78.3673469 L200,96.3265306 L193.495935,96.3265306 L193.495935,102.857143 L200,102.857143 L200,145.306122 L194.308943,145.306122 L194.308943,133.061224 L187.804878,133.061224 L187.804878,139.591837 L181.300813,139.591837 L181.300813,133.061224 L187.804878,133.061224 L187.804878,115.102041 L181.300813,115.102041 L181.300813,120.816327 L157.723577,120.816327 L157.723577,115.102041 L163.414634,115.102041 L163.414634,108.571429 L157.723577,108.571429 L157.723577,96.3265306 L144.715447,96.3265306 L144.715447,90.6122449 L139.02439,90.6122449 L139.02439,96.3265306 L144.715447,96.3265306 L144.715447,127.346939 L139.02439,127.346939 L139.02439,120.816327 L133.333333,120.816327 L133.333333,115.102041 L139.02439,115.102041 L139.02439,102.857143 L133.333333,102.857143 L133.333333,90.6122449 L139.02439,90.6122449 L139.02439,84.8979592 L115.447154,84.8979592 L115.447154,90.6122449 L108.943089,90.6122449 L108.943089,97.1428571 L102.439024,97.1428571 L102.439024,84.8979592 L108.943089,84.8979592 L108.943089,66.122449 L102.439024,66.122449 L102.439024,60.4081633 L96.7479675,60.4081633 L96.7479675,66.122449 L91.0569106,66.122449 L91.0569106,60.4081633 L96.7479675,60.4081633 L96.7479675,48.1632653 L102.439024,48.1632653 L102.439024,54.6938776 L108.943089,54.6938776 L108.943089,60.4081633 L120.325203,60.4081633 L120.325203,66.122449 L126.829268,66.122449 L126.829268,60.4081633 L132.520325,60.4081633 L132.520325,54.6938776 L144.715447,54.6938776 L144.715447,48.1632653 L133.333333,48.1632653 L133.333333,35.9183673 L126.01626,35.9183673 L126.01626,42.4489796 L120.325203,42.4489796 L120.325203,24.4897959 L126.01626,24.4897959 L126.01626,30.2040816 L139.02439,30.2040816 L139.02439,24.4897959 L126.829268,24.4897959 L126.829268,17.1428571 L103.252033,17.1428571 L103.252033,11.4285714 L115.447154,11.4285714 L115.447154,0 L139.02439,0 Z M144.715447,133.061224 L144.715447,139.591837 L133.333333,139.591837 L133.333333,133.061224 L144.715447,133.061224 Z M115.447154,109.387755 L115.447154,127.346939 L108.943089,127.346939 L108.943089,133.061224 L103.252033,133.061224 L103.252033,139.591837 L96.7479675,139.591837 L96.7479675,127.346939 L91.0569106,127.346939 L91.0569106,139.591837 L85.3658537,139.591837 L85.3658537,127.346939 L78.8617886,127.346939 L78.8617886,115.102041 L91.0569106,115.102041 L91.0569106,121.632653 L96.7479675,121.632653 L96.7479675,115.102041 L103.252033,115.102041 L103.252033,121.632653 L109.756098,121.632653 L109.756098,109.387755 L115.447154,109.387755 Z M115.447154,133.061224 L115.447154,139.591837 L108.943089,139.591837 L108.943089,133.061224 L115.447154,133.061224 Z M24.3902439,127.346939 L18.699187,127.346939 L18.699187,133.061224 L24.3902439,133.061224 L24.3902439,127.346939 Z M181.300813,127.346939 L181.300813,133.061224 L175.609756,133.061224 L175.609756,127.346939 L181.300813,127.346939 Z M72.3577236,121.632653 L72.3577236,127.346939 L66.6666667,127.346939 L66.6666667,121.632653 L72.3577236,121.632653 Z M53.6585366,72.6530612 L53.6585366,78.3673469 L66.6666667,78.3673469 L66.6666667,72.6530612 L72.3577236,72.6530612 L72.3577236,78.3673469 L78.8617886,78.3673469 L78.8617886,84.8979592 L84.5528455,84.8979592 L84.5528455,90.6122449 L72.3577236,90.6122449 L72.3577236,97.1428571 L84.5528455,97.1428571 L84.5528455,102.857143 L72.3577236,102.857143 L72.3577236,109.387755 L66.6666667,109.387755 L66.6666667,97.1428571 L60.9756098,97.1428571 L60.9756098,127.346939 L54.4715447,127.346939 L54.4715447,108.571429 L48.7804878,108.571429 L48.7804878,102.857143 L54.4715447,102.857143 L54.4715447,97.1428571 L48.7804878,97.1428571 L48.7804878,102.857143 L36.5853659,102.857143 L36.5853659,97.1428571 L48.7804878,97.1428571 L48.7804878,90.6122449 L60.9756098,90.6122449 L60.9756098,84.8979592 L47.9674797,84.8979592 L47.9674797,72.6530612 L53.6585366,72.6530612 Z M127.642276,120.816327 L127.642276,127.346939 L121.138211,127.346939 L121.138211,120.816327 L127.642276,120.816327 Z M133.333333,109.387755 L133.333333,115.102041 L127.642276,115.102041 L127.642276,109.387755 L133.333333,109.387755 Z M96.7479675,109.387755 L96.7479675,115.102041 L91.0569106,115.102041 L91.0569106,109.387755 L96.7479675,109.387755 Z M12.195122,108.571429 L5.69105691,108.571429 L5.69105691,115.102041 L12.195122,115.102041 L12.195122,108.571429 Z M194.308943,108.571429 L187.804878,108.571429 L187.804878,115.102041 L194.308943,115.102041 L194.308943,108.571429 Z M127.642276,102.857143 L127.642276,109.387755 L121.138211,109.387755 L121.138211,102.857143 L127.642276,102.857143 Z M91.0569106,102.857143 L91.0569106,109.387755 L84.5528455,109.387755 L84.5528455,102.857143 L91.0569106,102.857143 Z M30.8943089,97.1428571 L30.8943089,102.857143 L18.699187,102.857143 L18.699187,97.1428571 L30.8943089,97.1428571 Z M102.439024,97.1428571 L102.439024,102.857143 L96.7479675,102.857143 L96.7479675,97.1428571 L102.439024,97.1428571 Z M127.642276,90.6122449 L127.642276,97.1428571 L121.138211,97.1428571 L121.138211,90.6122449 L127.642276,90.6122449 Z M96.7479675,84.8979592 L96.7479675,97.1428571 L84.5528455,97.1428571 L84.5528455,90.6122449 L91.0569106,90.6122449 L91.0569106,84.8979592 L96.7479675,84.8979592 Z M30.0813008,78.3673469 L30.0813008,84.8979592 L42.2764228,84.8979592 L42.2764228,90.6122449 L24.3902439,90.6122449 L24.3902439,78.3673469 L30.0813008,78.3673469 Z M151.219512,84.8979592 L144.715447,84.8979592 L144.715447,90.6122449 L151.219512,90.6122449 L151.219512,84.8979592 Z M181.300813,79.1836735 L181.300813,84.8979592 L187.804878,84.8979592 L187.804878,90.6122449 L169.105691,90.6122449 L169.105691,84.8979592 L175.609756,84.8979592 L175.609756,79.1836735 L181.300813,79.1836735 Z M17.8861789,47.3469388 L17.8861789,54.6938776 L30.8943089,54.6938776 L30.8943089,47.3469388 L60.9756098,47.3469388 L60.9756098,60.4081633 L54.4715447,60.4081633 L54.4715447,53.0612245 L36.5853659,53.0612245 L36.5853659,60.4081633 L30.0813008,60.4081633 L30.0813008,72.6530612 L24.3902439,72.6530612 L24.3902439,78.3673469 L17.8861789,78.3673469 L17.8861789,72.6530612 L12.195122,72.6530612 L12.195122,78.3673469 L6.50406504,78.3673469 L6.50406504,90.6122449 L0,90.6122449 L0,72.6530612 L6.50406504,72.6530612 L6.50406504,66.9387755 L17.8861789,66.9387755 L17.8861789,60.4081633 L0,60.4081633 L0,54.6938776 L12.195122,54.6938776 L12.195122,47.3469388 L17.8861789,47.3469388 Z M157.723577,79.1836735 L151.219512,79.1836735 L151.219512,84.8979592 L157.723577,84.8979592 L157.723577,79.1836735 Z M175.609756,72.6530612 L175.609756,79.1836735 L169.105691,79.1836735 L169.105691,72.6530612 L175.609756,72.6530612 Z M120.325203,71.8367347 L115.447154,71.8367347 L115.447154,78.3673469 L120.325203,78.3673469 L120.325203,71.8367347 Z M42.2764228,72.6530612 L42.2764228,78.3673469 L30.0813008,78.3673469 L30.0813008,72.6530612 L42.2764228,72.6530612 Z M96.7479675,72.6530612 L96.7479675,78.3673469 L91.0569106,78.3673469 L91.0569106,72.6530612 L96.7479675,72.6530612 Z M91.0569106,66.122449 L91.0569106,72.6530612 L84.5528455,72.6530612 L84.5528455,78.3673469 L78.8617886,78.3673469 L78.8617886,66.122449 L91.0569106,66.122449 Z M193.495935,72.6530612 L193.495935,78.3673469 L187.804878,78.3673469 L187.804878,72.6530612 L193.495935,72.6530612 Z M151.219512,54.6938776 L144.715447,54.6938776 L144.715447,66.122449 L139.02439,66.122449 L139.02439,78.3673469 L144.715447,78.3673469 L144.715447,66.122449 L151.219512,66.122449 L151.219512,54.6938776 Z M132.520325,66.122449 L126.829268,66.122449 L126.829268,72.6530612 L132.520325,72.6530612 L132.520325,66.122449 Z M66.6666667,66.9387755 L66.6666667,72.6530612 L60.9756098,72.6530612 L60.9756098,66.9387755 L66.6666667,66.9387755 Z M54.4715447,60.4081633 L54.4715447,66.122449 L36.5853659,66.122449 L36.5853659,60.4081633 L54.4715447,60.4081633 Z M200,53.877551 L200,66.122449 L193.495935,66.122449 L193.495935,53.877551 L200,53.877551 Z M175.609756,53.877551 L169.918699,53.877551 L169.918699,60.4081633 L175.609756,60.4081633 L175.609756,53.877551 Z M72.3577236,47.3469388 L72.3577236,54.6938776 L78.8617886,54.6938776 L78.8617886,60.4081633 L66.6666667,60.4081633 L66.6666667,47.3469388 L72.3577236,47.3469388 Z M72.3577236,0 L72.3577236,5.71428571 L78.8617886,5.71428571 L78.8617886,0 L84.5528455,0 L84.5528455,5.71428571 L96.7479675,5.71428571 L96.7479675,0 L108.943089,0 L108.943089,5.71428571 L103.252033,5.71428571 L103.252033,11.4285714 L96.7479675,11.4285714 L96.7479675,24.4897959 L102.439024,24.4897959 L102.439024,30.2040816 L108.943089,30.2040816 L108.943089,24.4897959 L114.634146,24.4897959 L114.634146,42.4489796 L120.325203,42.4489796 L120.325203,48.1632653 L126.829268,48.1632653 L126.829268,60.4081633 L120.325203,60.4081633 L120.325203,54.6938776 L108.943089,54.6938776 L108.943089,35.9183673 L102.439024,35.9183673 L102.439024,41.6326531 L96.7479675,41.6326531 L96.7479675,35.9183673 L91.0569106,35.9183673 L91.0569106,41.6326531 L85.3658537,41.6326531 L85.3658537,35.9183673 L91.0569106,35.9183673 L91.0569106,30.2040816 L72.3577236,30.2040816 L72.3577236,35.9183673 L66.6666667,35.9183673 L66.6666667,30.2040816 L72.3577236,30.2040816 L72.3577236,24.4897959 L91.0569106,24.4897959 L91.0569106,17.1428571 L72.3577236,17.1428571 L72.3577236,11.4285714 L60.9756098,11.4285714 L60.9756098,17.1428571 L54.4715447,17.1428571 L54.4715447,24.4897959 L60.9756098,24.4897959 L60.9756098,30.2040816 L54.4715447,30.2040816 L54.4715447,41.6326531 L48.7804878,41.6326531 L48.7804878,5.71428571 L66.6666667,5.71428571 L66.6666667,0 L72.3577236,0 Z M78.0487805,35.9183673 L78.0487805,41.6326531 L85.3658537,41.6326531 L85.3658537,47.3469388 L72.3577236,47.3469388 L72.3577236,35.9183673 L78.0487805,35.9183673 Z M96.7479675,41.6326531 L96.7479675,47.3469388 L91.0569106,47.3469388 L91.0569106,41.6326531 L96.7479675,41.6326531 Z M66.6666667,35.9183673 L66.6666667,47.3469388 L60.9756098,47.3469388 L60.9756098,35.9183673 L66.6666667,35.9183673 Z M200,0 L200,42.4489796 L157.723577,42.4489796 L157.723577,0 L200,0 Z M42.2764228,0 L42.2764228,42.4489796 L0,42.4489796 L0,0 L42.2764228,0 Z M194.308943,5.71428571 L163.414634,5.71428571 L163.414634,36.7346939 L194.308943,36.7346939 L194.308943,5.71428571 Z M36.5853659,5.71428571 L5.69105691,5.71428571 L5.69105691,36.7346939 L36.5853659,36.7346939 L36.5853659,5.71428571 Z M30.0813008,12.244898 L30.0813008,30.2040816 L12.195122,30.2040816 L12.195122,12.244898 L30.0813008,12.244898 Z M187.804878,12.244898 L187.804878,30.2040816 L169.918699,30.2040816 L169.918699,12.244898 L187.804878,12.244898 Z M150.406504,11.4285714 L150.406504,17.1428571 L144.715447,17.1428571 L144.715447,11.4285714 L150.406504,11.4285714 Z M126.829268,5.71428571 L121.138211,5.71428571 L121.138211,11.4285714 L126.829268,11.4285714 L126.829268,5.71428571 Z M150.406504,0 L150.406504,5.71428571 L144.715447,5.71428571 L144.715447,0 L150.406504,0 Z">
          </path>
        </g>
      </g>
    </g>
  </g>
</svg>