<svg width="194" height="70" viewBox="0 0 194 70" fill="none" xmlns="http://www.w3.org/2000/svg">
<path d="M65.5055 60.6735C63.5243 60.6735 61.8319 60.3647 60.4285 59.7676C59.0251 59.1706 57.9107 58.3265 57.0438 57.2765C56.177 56.2265 55.5579 54.9706 55.1658 53.55C54.7736 52.1294 54.5879 50.6059 54.5879 48.9794V30.2235H57.5185V48.5882C57.5185 50.2147 57.7043 51.6353 58.0964 52.8294C58.4885 54.0235 59.0251 54.9912 59.7062 55.7735C60.3873 56.5559 61.2334 57.1324 62.2034 57.5029C63.1734 57.8735 64.2672 58.0588 65.4849 58.0588C66.7026 58.0588 67.7758 57.8735 68.7664 57.5029C69.757 57.1324 70.5826 56.5559 71.2636 55.7735C71.9447 54.9912 72.4813 54.0235 72.8734 52.8294C73.2655 51.6353 73.4513 50.2353 73.4513 48.5882V30.2235H76.3819V48.9794C76.3819 50.6059 76.1962 52.15 75.8041 53.55C75.4119 54.9706 74.7928 56.2059 73.926 57.2765C73.0592 58.3471 71.9447 59.1706 70.5413 59.7676C69.1379 60.3647 67.4662 60.6735 65.4849 60.6735H65.5055Z" fill="white"/>
<path d="M86.4532 39.1382C86.9485 38.7676 87.7327 38.3765 88.8059 37.9647C89.8791 37.5529 91.1587 37.3471 92.624 37.3471C94.2338 37.3471 95.6578 37.6353 96.9168 38.2118C98.1757 38.7882 99.2283 39.5912 100.095 40.6206C100.962 41.65 101.602 42.8853 102.056 44.3059C102.51 45.7265 102.716 47.2706 102.716 48.9794C102.716 50.7912 102.448 52.4176 101.911 53.8382C101.375 55.2794 100.632 56.4941 99.6617 57.5029C98.6917 58.5118 97.5566 59.2735 96.2151 59.8088C94.8736 60.3441 93.3876 60.6118 91.7572 60.6118C89.7759 60.6118 88.1455 60.4882 86.8453 60.2206C85.5451 59.9735 84.4925 59.6853 83.667 59.3971V27.1765L86.4738 26.6618V39.1382H86.4532ZM86.4532 57.4206C86.8866 57.5647 87.5264 57.7088 88.3725 57.8324C89.2187 57.9559 90.3332 58.0176 91.7159 58.0176C94.1306 58.0176 96.0706 57.2353 97.5359 55.6706C99.0012 54.1059 99.7442 51.8618 99.7442 48.9382C99.7442 47.7029 99.6204 46.5294 99.3521 45.4382C99.0838 44.3265 98.671 43.3794 98.0932 42.5559C97.5153 41.7324 96.7723 41.0941 95.8229 40.6C94.8942 40.1059 93.7385 39.8588 92.3557 39.8588C91.6953 39.8588 91.0555 39.9206 90.457 40.0441C89.8585 40.1676 89.3012 40.3324 88.7853 40.5382C88.2693 40.7441 87.8153 40.95 87.4232 41.1765C87.031 41.4029 86.7215 41.6294 86.4532 41.8147V57.3794V57.4206Z" fill="white"/>
<path d="M125.645 59.2529C124.82 59.4794 123.685 59.7471 122.281 60.0353C120.878 60.3235 119.144 60.4676 117.101 60.4676C115.429 60.4676 114.046 60.2206 112.911 59.7265C111.797 59.2324 110.889 58.5529 110.187 57.6676C109.485 56.7824 109.011 55.7118 108.701 54.4353C108.392 53.1794 108.247 51.7794 108.247 50.2559V37.7794H111.054V49.35C111.054 50.9353 111.157 52.2529 111.405 53.3441C111.632 54.4353 112.003 55.3206 112.519 55.9794C113.035 56.6588 113.696 57.1324 114.521 57.4412C115.347 57.75 116.337 57.8941 117.514 57.8941C118.835 57.8941 119.99 57.8118 120.96 57.6882C121.93 57.5647 122.549 57.4206 122.818 57.2971V37.7794H125.625V59.2324L125.645 59.2529Z" fill="white"/>
<path d="M132.621 38.5823C133.447 38.3559 134.582 38.0882 135.985 37.8C137.389 37.5118 139.122 37.3676 141.165 37.3676C142.858 37.3676 144.282 37.6147 145.417 38.1088C146.552 38.6029 147.46 39.2824 148.141 40.1882C148.822 41.0941 149.297 42.1647 149.586 43.4412C149.875 44.6971 150.019 46.0971 150.019 47.6206V60.0559H147.212V48.5265C147.212 46.9412 147.109 45.6235 146.882 44.5323C146.655 43.4412 146.304 42.5559 145.809 41.8765C145.314 41.1971 144.653 40.7029 143.828 40.3941C143.002 40.0853 141.991 39.9412 140.753 39.9412C139.432 39.9412 138.297 40.0235 137.327 40.1471C136.357 40.2912 135.737 40.4147 135.449 40.5382V60.0559H132.642V38.6029L132.621 38.5823Z" fill="white"/>
<path d="M159.389 37.8H168.263V40.1676H159.389V51.9853C159.389 53.2412 159.492 54.2706 159.719 55.0529C159.925 55.8353 160.235 56.4529 160.648 56.8853C161.04 57.3176 161.535 57.6059 162.113 57.75C162.691 57.8941 163.31 57.9559 164.012 57.9559C165.188 57.9559 166.138 57.8118 166.86 57.5441C167.582 57.2765 168.139 57.0294 168.532 56.7824L169.213 59.1088C168.8 59.3559 168.098 59.6647 167.108 59.9941C166.096 60.3235 165.002 60.4882 163.826 60.4882C162.443 60.4882 161.288 60.3029 160.359 59.9529C159.43 59.6029 158.666 59.0471 158.109 58.3265C157.552 57.6059 157.16 56.6794 156.933 55.5882C156.706 54.4971 156.582 53.2 156.582 51.7176V31.2735L159.389 30.7588V37.8206V37.8Z" fill="white"/>
<path d="M190.346 59.2529C189.521 59.4794 188.386 59.7471 186.982 60.0353C185.579 60.3235 183.845 60.4676 181.802 60.4676C180.13 60.4676 178.748 60.2206 177.612 59.7265C176.498 59.2324 175.59 58.5529 174.888 57.6676C174.187 56.7824 173.712 55.7118 173.402 54.4353C173.093 53.1794 172.948 51.7794 172.948 50.2559V37.7794H175.755V49.35C175.755 50.9353 175.858 52.2529 176.106 53.3441C176.333 54.4353 176.704 55.3206 177.22 55.9794C177.736 56.6588 178.397 57.1324 179.222 57.4412C180.048 57.75 181.038 57.8941 182.215 57.8941C183.536 57.8941 184.691 57.8118 185.661 57.6882C186.631 57.5647 187.251 57.4206 187.519 57.2971V37.7794H190.326V59.2324L190.346 59.2529Z" fill="white"/>
<path d="M43.3404 0H0V65.8824H43.3404V0Z" fill="#E95420"/>
<path d="M9.90625 48.0118C12.3797 48.0118 14.3848 46.0115 14.3848 43.5441C14.3848 41.0767 12.3797 39.0765 9.90625 39.0765C7.43283 39.0765 5.42773 41.0767 5.42773 43.5441C5.42773 46.0115 7.43283 48.0118 9.90625 48.0118Z" fill="white"/>
<path d="M28.6045 38.2118C31.0779 38.2118 33.083 36.2115 33.083 33.7441C33.083 31.2767 31.0779 29.2765 28.6045 29.2765C26.1311 29.2765 24.126 31.2767 24.126 33.7441C24.126 36.2115 26.1311 38.2118 28.6045 38.2118Z" fill="white"/>
<path d="M20.0186 55.0735C16.7784 54.3735 14.0955 52.3147 12.5682 49.4118C11.3712 49.9471 10.0297 50.1118 8.72949 49.8853C10.5663 54.3941 14.4669 57.6471 19.255 58.6765C20.3076 58.9029 21.3808 59.0059 22.4333 59.0059C21.6078 57.9353 21.1537 56.6176 21.1125 55.2588C20.741 55.2176 20.3695 55.1559 20.0186 55.0735V55.0735Z" fill="white"/>
<path d="M27.5937 59.5618C30.0672 59.5618 32.0723 57.5615 32.0723 55.0941C32.0723 52.6267 30.0672 50.6265 27.5937 50.6265C25.1203 50.6265 23.1152 52.6267 23.1152 55.0941C23.1152 57.5615 25.1203 59.5618 27.5937 59.5618Z" fill="white"/>
<path d="M33.8262 53.4471C35.2296 51.6971 36.1996 49.6176 36.6743 47.4147C37.4998 43.5647 36.7362 39.5294 34.5485 36.2559C34.0326 37.4706 33.1451 38.5 32.0307 39.2C33.2483 41.4853 33.6198 44.1 33.0626 46.6324C32.7943 47.8676 32.3196 49.0412 31.6592 50.0912C32.7117 50.9559 33.4547 52.1088 33.8056 53.4265L33.8262 53.4471Z" fill="white"/>
<path d="M9.55566 37.1412C9.67949 37.1412 9.78269 37.1412 9.90652 37.1412C10.3606 37.1412 10.8146 37.1824 11.2686 37.2853C11.991 37.45 12.6927 37.7176 13.3118 38.1088C15.3344 35.2059 18.5952 33.4765 22.1244 33.4147C22.1244 33.0853 22.1863 32.7353 22.2689 32.4059C22.4752 31.4382 22.888 30.5529 23.4865 29.7912C17.8523 29.3382 12.3625 32.2412 9.5763 37.1618L9.55566 37.1412Z" fill="white"/>
</svg>
