<svg width="190" height="66" viewBox="0 0 190 66" xmlns="http://www.w3.org/2000/svg" xmlns:usvg="https://github.com/RazrFalcon/usvg" usvg:version="0.8.0">
    <defs/>
    <path id="path311" fill="#ffffff" d="M 65.386428 60.563528 C 63.408832 60.563528 61.719504 60.255307 60.318656 59.659272 C 58.917808 59.06335 57.805437 58.220784 56.94011 57.172687 C 56.074885 56.12459 55.45691 54.870962 55.065521 53.45294 C 54.674038 52.034914 54.488674 50.514176 54.488674 48.890623 L 54.488674 30.168718 L 57.413946 30.168718 L 57.413946 48.500134 C 57.413946 50.123687 57.599407 51.541712 57.990792 52.733647 C 58.382181 53.925585 58.917808 54.891527 59.59767 55.672407 C 60.277531 56.45339 61.122093 57.02885 62.090332 57.398676 C 63.058568 57.768579 64.150379 57.953568 65.365864 57.953568 C 66.581348 57.953568 67.652603 57.768598 68.641399 57.398676 C 69.630203 57.02885 70.454302 56.45339 71.134062 55.672407 C 71.813923 54.891527 72.349546 53.925585 72.740935 52.733647 C 73.13232 51.541712 73.317786 50.144247 73.317786 48.500134 L 73.317786 30.168718 L 76.243061 30.168718 L 76.243061 48.890623 C 76.243061 50.514176 76.057713 52.055479 75.666309 53.45294 C 75.274821 54.870962 74.656846 56.104026 73.791617 57.172687 C 72.9264 58.241345 71.813923 59.06335 70.413071 59.659272 C 69.012223 60.255289 67.343562 60.563528 65.365864 60.563528 Z"/>
    <path id="path313" fill="#ffffff" d="M 86.296052 39.067261 C 86.790448 38.697358 87.573223 38.306941 88.644477 37.895891 C 89.715723 37.484834 90.992996 37.279408 92.455635 37.279408 C 94.062509 37.279408 95.483917 37.567075 96.740629 38.142539 C 97.997243 38.717896 99.047925 39.519443 99.913055 40.546976 C 100.77848 41.574509 101.41731 42.807568 101.87049 44.225598 C 102.32366 45.64362 102.52929 47.184923 102.52929 48.890623 C 102.52929 50.699142 102.26177 52.322593 101.72575 53.740615 C 101.19072 55.179205 100.44908 56.391704 99.480545 57.398676 C 98.512306 58.405747 97.379264 59.166067 96.040203 59.700393 C 94.701143 60.234724 93.217841 60.501941 91.590411 60.501941 C 89.612709 60.501941 87.985274 60.378577 86.687437 60.111451 C 85.389601 59.864799 84.338915 59.577117 83.514917 59.289445 L 83.514917 27.127243 L 86.316613 26.613476 L 86.316613 39.067261 Z M 86.296052 57.316524 C 86.728661 57.460373 87.367299 57.604184 88.211861 57.727578 C 89.056525 57.850867 90.168998 57.912435 91.549184 57.912435 C 93.959494 57.912435 95.895969 57.131551 97.358605 55.569691 C 98.821237 54.007824 99.562889 51.767792 99.562889 48.849491 C 99.562889 47.616431 99.439299 46.445057 99.171504 45.355835 C 98.903687 44.246151 98.491643 43.300766 97.914895 42.478761 C 97.338044 41.656751 96.596395 41.01961 95.64872 40.526404 C 94.721708 40.033202 93.568109 39.786546 92.187822 39.786546 C 91.528623 39.786546 90.889989 39.848226 90.29257 39.971516 C 89.695159 40.094805 89.138873 40.25929 88.623912 40.464726 C 88.10885 40.670257 87.655677 40.875776 87.264292 41.101864 C 86.872801 41.327842 86.563862 41.553944 86.296052 41.738911 L 86.296052 57.275399 Z"/>
    <path id="path315" fill="#ffffff" d="M 125.41661 59.145506 C 124.59311 59.371597 123.46017 59.63881 122.05872 59.926489 C 120.65827 60.214148 118.92742 60.358001 116.88814 60.358001 C 115.21918 60.358001 113.83869 60.111462 112.70576 59.618245 C 111.59378 59.125044 110.68743 58.44677 109.98671 57.563078 C 109.28598 56.679478 108.81285 55.610824 108.50341 54.336635 C 108.19496 53.083011 108.05023 51.68555 108.05023 50.164808 L 108.05023 37.710922 L 110.85213 37.710922 L 110.85213 49.260552 C 110.85213 50.84298 110.95493 52.158191 111.20249 53.247413 C 111.42908 54.336635 111.7994 55.220334 112.31447 55.877938 C 112.82953 56.556106 113.48933 57.02885 114.31283 57.337089 C 115.13733 57.645309 116.12553 57.789166 117.30039 57.789166 C 118.61899 57.789166 119.77189 57.707036 120.74013 57.583635 C 121.70837 57.460347 122.32624 57.316536 122.59475 57.193248 L 122.59475 37.710922 L 125.39664 37.710922 L 125.39664 59.125044 Z"/>
    <path id="path317" fill="#ffffff" d="M 132.37993 38.512369 C 133.20443 38.286391 134.33736 38.019164 135.73781 37.731488 C 137.13926 37.44382 138.86911 37.29987 140.9084 37.29987 C 142.59833 37.29987 144.01973 37.54653 145.15267 38.039728 C 146.2856 38.532934 147.19196 39.2112 147.87171 40.115358 C 148.55148 41.019617 149.02562 42.088279 149.31409 43.36246 C 149.60254 44.616087 149.7463 46.013549 149.7463 47.534287 L 149.7463 59.947049 L 146.94441 59.947049 L 146.94441 48.438546 C 146.94441 46.856119 146.8416 45.540809 146.61502 44.451583 C 146.38844 43.36246 146.03807 42.478768 145.54397 41.8006 C 145.04987 41.122432 144.39007 40.629128 143.56657 40.320885 C 142.74207 40.012664 141.73291 39.868808 140.49716 39.868808 C 139.17856 39.868808 138.04563 39.950938 137.07739 40.074339 C 136.10915 40.218187 135.49028 40.341438 135.20281 40.464733 L 135.20281 59.947057 L 132.40091 59.947057 L 132.40091 38.532941 Z"/>
    <path id="path319" fill="#ffffff" d="M 159.09927 37.731488 L 167.95714 37.731488 L 167.95714 40.094793 L 159.09927 40.094793 L 159.09927 51.891077 C 159.09927 53.144701 159.20208 54.172233 159.42866 54.953118 C 159.63427 55.734101 159.94372 56.350579 160.35597 56.782194 C 160.74726 57.21371 161.24136 57.501491 161.81831 57.645324 C 162.39526 57.789173 163.01313 57.850855 163.71385 57.850855 C 164.88772 57.850855 165.83599 57.707006 166.55668 57.439801 C 167.27737 57.172702 167.83335 56.926035 168.22564 56.679478 L 168.9054 59.001665 C 168.49315 59.248317 167.79243 59.556556 166.80423 59.88536 C 165.79407 60.214141 164.70206 60.378562 163.52819 60.378562 C 162.14771 60.378562 160.99481 60.193592 160.06749 59.844235 C 159.14019 59.494893 158.37758 58.940073 157.82159 58.220784 C 157.2656 57.501491 156.87431 56.576667 156.64773 55.487445 C 156.42114 54.398321 156.29736 53.103572 156.29736 51.62386 L 156.29736 31.216825 L 159.09927 30.703058 L 159.09927 37.752056 Z"/>
    <path id="path321" fill="#ffffff" d="M 190 59.145506 C 189.1765 59.371597 188.04356 59.63881 186.64211 59.926489 C 185.24166 60.214148 183.51082 60.358001 181.47153 60.358001 C 179.80257 60.358001 178.42308 60.111462 177.28915 59.618245 C 176.17717 59.125044 175.27082 58.44677 174.5701 57.563078 C 173.87037 56.679478 173.39624 55.610824 173.0868 54.336635 C 172.77834 53.083011 172.63363 51.68555 172.63363 50.164808 L 172.63363 37.710922 L 175.43552 37.710922 L 175.43552 49.260552 C 175.43552 50.84298 175.53833 52.158191 175.78588 53.247413 C 176.01247 54.336635 176.3828 55.220334 176.89786 55.877938 C 177.41293 56.556106 178.07273 57.02885 178.89622 57.337089 C 179.72072 57.645309 180.70892 57.789166 181.88379 57.789166 C 183.20238 57.789166 184.35528 57.707036 185.32352 57.583635 C 186.29176 57.460347 186.91063 57.316536 187.17814 57.193248 L 187.17814 37.710915 L 189.98004 37.710915 L 189.98004 59.125036 Z"/>
    <path id="path323" fill="#e95420" d="M 43.261622 0 L 0 0 L 0 65.762986 L 43.261622 65.762986 Z"/>
    <path id="path325" fill="#ffffff" d="M 9.8882427 47.92478 C 12.357197 47.92478 14.35865 45.928105 14.35865 43.465176 C 14.35865 41.002247 12.357197 39.005673 9.8882427 39.005673 C 7.4193189 39.005673 5.417864 41.002247 5.417864 43.465176 C 5.417864 45.928105 7.4193189 47.92478 9.8882427 47.92478 Z"/>
    <path id="path327" fill="#ffffff" d="M 28.552504 38.142539 C 31.021406 38.142539 33.022865 36.145865 33.022865 33.682937 C 33.022865 31.220009 31.021406 29.223437 28.552504 29.223437 C 26.083602 29.223437 24.082146 31.220009 24.082146 33.682937 C 24.082146 36.145865 26.083602 38.142539 28.552504 38.142539 Z"/>
    <path id="path329" fill="#ffffff" d="M 19.982211 54.973678 C 16.7479 54.27495 14.06988 52.219881 12.545354 49.322242 C 11.35053 49.856569 10.011469 50.02097 8.7136219 49.794883 C 10.547093 54.29551 14.440604 57.542616 19.219998 58.570148 C 20.270687 58.796126 21.341933 58.89893 22.39252 58.89893 C 21.568523 57.830272 21.115249 56.514958 21.074124 55.158618 C 20.703311 55.117498 20.332472 55.055891 19.982211 54.973648 Z"/>
    <path id="path331" fill="#ffffff" d="M 27.543541 59.453844 C 30.012545 59.453844 32.014 57.457168 32.014 54.994239 C 32.014 52.531314 30.012545 50.53474 27.543541 50.53474 C 25.074638 50.53474 23.073183 52.531314 23.073183 54.994239 C 23.073183 57.457168 25.074638 59.453844 27.543541 59.453844 Z"/>
    <path id="path333" fill="#ffffff" d="M 33.764713 53.350228 C 35.165561 51.603398 36.133798 49.527666 36.607637 47.32876 C 37.431634 43.485736 36.669437 39.45775 34.485698 36.190187 C 33.970737 37.402683 33.08485 38.430218 31.972474 39.12895 C 33.187862 41.410107 33.558688 44.020067 33.0025 46.547879 C 32.734679 47.780841 32.260852 48.952313 31.601652 50.000406 C 32.652239 50.863544 33.393887 52.014354 33.744148 53.329663 Z"/>
    <path id="path335" fill="#ffffff" d="M 9.5382898 37.07388 C 9.6618955 37.07388 9.7649065 37.07388 9.8885122 37.07388 C 10.341766 37.07388 10.794942 37.115 11.248116 37.217732 C 11.969203 37.382146 12.669627 37.649247 13.287602 38.039739 C 15.306525 35.1421 18.561397 33.415836 22.084184 33.354149 C 22.084184 33.02536 22.145984 32.67598 22.228414 32.347176 C 22.434325 31.38123 22.846386 30.497534 23.443801 29.737215 C 17.819841 29.285037 12.340021 32.182773 9.5588856 37.094456 Z"/>
</svg>
