<svg width="190" height="66" viewBox="0 0 190 66" xmlns="http://www.w3.org/2000/svg" xmlns:usvg="https://github.com/RazrFalcon/usvg" usvg:version="0.8.0">
    <defs/>
    <path id="path76" d="M 65.622222 60.781808 C 63.637397 60.781808 61.942015 60.472439 60.536172 59.874317 C 59.130234 59.276183 58.013838 58.430637 57.145503 57.378762 C 56.27716 56.326892 55.656874 55.06869 55.264052 53.645599 C 54.871222 52.222508 54.685153 50.696217 54.685153 49.066889 L 54.685153 30.277534 L 57.621012 30.277534 L 57.621012 48.675 C 57.621012 50.304324 57.807104 51.727502 58.199907 52.923759 C 58.592729 54.119932 59.130234 55.089366 59.812507 55.873061 C 60.494781 56.656839 61.342519 57.23438 62.314237 57.605593 C 63.285958 57.97679 64.381662 58.162457 65.601531 58.162457 C 66.821312 58.162457 67.896416 57.976783 68.888821 57.605593 C 69.88123 57.234395 70.708189 56.656839 71.390459 55.873061 C 72.07274 55.089366 72.610328 54.119932 73.003162 52.923759 C 73.39598 51.727502 73.582053 50.325001 73.582053 48.675 L 73.582053 30.277534 L 76.517817 30.277534 L 76.517817 49.066889 C 76.517817 50.696217 76.331725 52.243097 75.938922 53.645599 C 75.546092 55.06869 74.925901 56.306216 74.057558 57.378762 C 73.18922 58.451226 72.07274 59.276183 70.66689 59.874317 C 69.260952 60.472447 67.586265 60.781808 65.601531 60.781808 Z"/>
    <path id="path78" d="M 86.607148 39.208129 C 87.103349 38.836855 87.889009 38.445023 88.964104 38.032458 C 90.038851 37.619977 91.320981 37.41374 92.789354 37.41374 C 94.401696 37.41374 95.827776 37.702497 97.08921 38.279961 C 98.350648 38.857502 99.405151 39.661873 100.27339 40.693078 C 101.14164 41.724356 101.78226 42.961882 102.23753 44.384968 C 102.6919 45.808146 102.89884 47.354943 102.89884 49.066889 C 102.89884 50.881869 102.62983 52.511193 102.09267 53.934371 C 101.55553 55.378135 100.81055 56.594984 99.838826 57.605593 C 98.867108 58.616201 97.729828 59.379303 96.386522 59.915582 C 95.042306 60.451858 93.554129 60.71995 91.920211 60.71995 C 89.935829 60.71995 88.302435 60.596255 86.99997 60.328057 C 85.697418 60.080554 84.64301 59.791872 83.816059 59.503104 L 83.816059 27.225029 L 86.627836 26.709341 L 86.627836 39.208129 Z M 86.607148 57.523061 C 87.041266 57.667429 87.682244 57.811834 88.529891 57.935627 C 89.377542 58.059322 90.494116 58.121188 91.87882 58.121188 C 94.298219 58.121188 96.241658 57.337497 97.709132 55.769933 C 99.177513 54.20246 99.9216 51.954325 99.9216 49.025616 C 99.9216 47.788094 99.79745 46.612506 99.529316 45.51937 C 99.260344 44.405645 98.846413 43.456887 98.267874 42.63184 C 97.688437 41.806883 96.944361 41.167487 95.993324 40.672485 C 95.063002 40.177464 93.905033 39.929961 92.520337 39.929961 C 91.858125 39.929961 91.217511 39.991831 90.618285 40.115636 C 90.01816 40.23933 89.460313 40.404408 88.943409 40.610645 C 88.426509 40.816879 87.971695 41.02312 87.578866 41.250041 C 87.18604 41.476872 86.875904 41.703785 86.607148 41.889346 L 86.607148 57.481902 Z"/>
    <path id="path80" d="M 125.86922 59.358718 C 125.04145 59.585624 123.90508 59.853727 122.49879 60.1425 C 121.09249 60.431196 119.356 60.575567 117.30908 60.575567 C 115.63467 60.575567 114.24906 60.328064 113.11269 59.833142 C 111.99612 59.338128 111.08648 58.657467 110.38288 57.770572 C 109.68018 56.88376 109.20512 55.81121 108.89472 54.532505 C 108.58432 53.27439 108.43944 51.871889 108.43944 50.34559 L 108.43944 37.846896 L 111.25203 37.846896 L 111.25203 49.438102 C 111.25203 51.026252 111.3546 52.346218 111.60293 53.439362 C 111.83056 54.532505 112.20306 55.419313 112.71952 56.079385 C 113.23687 56.759956 113.89818 57.23438 114.72503 57.543742 C 115.5519 57.853111 116.54431 57.997482 117.72297 57.997482 C 119.04649 57.997482 120.20356 57.914942 121.17527 57.791248 C 122.147 57.66744 122.76782 57.523035 123.03593 57.399359 L 123.03593 37.846913 L 125.84853 37.846913 L 125.84853 59.338147 Z"/>
    <path id="path82" d="M 132.85661 38.651264 C 133.68346 38.424358 134.82074 38.156258 136.22703 37.867483 C 137.63242 37.578726 139.36893 37.434327 141.41583 37.434327 C 143.11185 37.434327 144.53793 37.681834 145.67522 38.176848 C 146.81249 38.671854 147.72212 39.352519 148.40412 40.259999 C 149.08612 41.167491 149.56209 42.239951 149.85181 43.518746 C 150.14062 44.776861 150.28548 46.179359 150.28548 47.705566 L 150.28548 60.163089 L 147.47379 60.163089 L 147.47379 48.613145 C 147.47379 47.025 147.37032 45.704939 147.14269 44.611882 C 146.91594 43.518746 146.56416 42.631844 146.06841 41.951277 C 145.57175 41.270615 144.91044 40.775602 144.08358 40.46624 C 143.25581 40.156871 142.24271 40.0125 141.00287 40.0125 C 139.67934 40.0125 138.54208 40.09493 137.57035 40.218772 C 136.59864 40.363139 135.97871 40.486871 135.68899 40.610661 L 135.68899 60.163119 L 132.87732 60.163119 L 132.87732 38.671872 Z"/>
    <path id="path84" d="M 159.67248 37.867483 L 168.56281 37.867483 L 168.56281 40.239323 L 159.67248 40.239323 L 159.67248 52.078133 C 159.67248 53.336245 159.77595 54.367439 160.00358 55.151225 C 160.20962 55.934999 160.52003 56.553715 160.93391 56.986873 C 161.3262 57.419941 161.82286 57.708717 162.40139 57.853096 C 162.98082 57.997463 163.60074 58.059367 164.30344 58.059367 C 165.4821 58.059367 166.43313 57.915 167.15652 57.646889 C 167.8799 57.378751 168.43865 57.131294 168.83183 56.883783 L 169.51383 59.214347 C 169.09994 59.46185 168.39725 59.771211 167.40483 60.101249 C 166.39173 60.431177 165.29584 60.596259 164.11718 60.596259 C 162.73248 60.596259 161.57451 60.410584 160.64419 60.05998 C 159.71384 59.709341 158.94907 59.152496 158.39032 58.430652 C 157.83249 57.708732 157.43931 56.780651 157.21166 55.687511 C 156.98491 54.594375 156.86076 53.294994 156.86076 51.809962 L 156.86076 31.329318 L 159.67243 30.813721 L 159.67243 37.888071 Z"/>
    <path id="path86" d="M 190.68473 59.358718 C 189.85788 59.585624 188.7206 59.853727 187.31521 60.1425 C 185.90892 60.431196 184.17242 60.575567 182.12551 60.575567 C 180.45109 60.575567 179.06549 60.328064 177.92821 59.833142 C 176.81163 59.338128 175.902 58.657467 175.1993 57.770572 C 174.49661 56.88376 174.02064 55.81121 173.71113 54.532505 C 173.40073 53.27439 173.25586 51.871889 173.25586 50.34559 L 173.25586 37.846896 L 176.06754 37.846896 L 176.06754 49.438102 C 176.06754 51.026252 176.17102 52.346218 176.41936 53.439362 C 176.64699 54.532505 177.01859 55.419313 177.53593 56.079385 C 178.05239 56.759956 178.71369 57.23438 179.54146 57.543742 C 180.36832 57.853111 181.36074 57.997482 182.53848 57.997482 C 183.86201 57.997482 185.01997 57.914942 185.9917 57.791248 C 186.96341 57.66744 187.58333 57.523035 187.85236 57.399359 L 187.85236 37.846913 L 190.66404 37.846913 L 190.66404 59.338147 Z"/>
    <path id="path88" fill="#e95420" d="M 43.417253 0 L 0 0 L 0 66.000001 L 43.417253 66.000001 Z"/>
    <path id="path90" fill="#ffffff" d="M 9.9239584 48.097459 C 12.401755 48.097459 14.410428 46.093676 14.410428 43.621867 C 14.410428 41.15005 12.401755 39.146274 9.9239584 39.146274 C 7.4462007 39.146274 5.4375473 41.15005 5.4375473 43.621867 C 5.4375473 46.093676 7.4462007 48.097459 9.9239584 48.097459 Z"/>
    <path id="path92" fill="#ffffff" d="M 28.65557 38.279961 C 31.133366 38.279961 33.142036 36.276185 33.142036 33.80437 C 33.142036 31.332557 31.133366 29.328778 28.65557 29.328778 C 26.177774 29.328778 24.169104 31.332557 24.169104 33.80437 C 24.169104 36.276185 26.177774 38.279961 28.65557 38.279961 Z"/>
    <path id="path94" fill="#ffffff" d="M 20.054861 55.17181 C 16.808864 54.470559 14.12116 52.408073 12.591239 49.499961 C 11.392067 50.036232 10.048213 50.201212 8.7456703 49.974377 C 10.585718 54.491236 14.493294 57.749983 19.289901 58.781268 C 20.344306 59.00806 21.419407 59.111196 22.473812 59.111196 C 21.646771 58.038744 21.191952 56.718686 21.150563 55.357454 C 20.778432 55.316224 20.406299 55.254319 20.054861 55.17178 Z"/>
    <path id="path96" fill="#ffffff" d="M 27.642462 59.668079 C 30.120257 59.668079 32.128931 57.664303 32.128931 55.192487 C 32.128931 52.720678 30.120257 50.716894 27.642462 50.716894 C 25.164666 50.716894 23.155996 52.720678 23.155996 55.192487 C 23.155996 57.664303 25.164666 59.668079 27.642462 59.668079 Z"/>
    <path id="path98" fill="#ffffff" d="M 33.886304 53.542482 C 35.292147 51.789357 36.263867 49.706194 36.739379 47.499325 C 37.56642 43.642456 36.801469 39.600014 34.609875 36.320598 C 34.093063 37.537445 33.204029 38.568733 32.087542 39.269984 C 33.30741 41.55938 33.679544 44.178731 33.121343 46.715634 C 32.852492 47.953069 32.376987 49.128741 31.715408 50.180626 C 32.769814 51.046841 33.51417 52.201836 33.865607 53.521893 Z"/>
    <path id="path100" fill="#ffffff" d="M 9.5725213 37.207498 C 9.6965118 37.207498 9.7998864 37.207498 9.9239527 37.207498 C 10.378773 37.207498 10.833681 37.248748 11.288499 37.351881 C 12.012071 37.516849 12.715039 37.784948 13.33532 38.176844 C 15.361447 35.26872 18.628044 33.536273 22.163485 33.474328 C 22.163485 33.144385 22.225475 32.793759 22.308247 32.46372 C 22.514909 31.494377 22.928445 30.607474 23.528031 29.844371 C 17.883778 29.390628 12.384292 32.298744 9.5931181 37.22808 Z"/>
</svg>
