<?xml version="1.0" encoding="UTF-8" standalone="no"?>
<!-- Created with Inkscape (http://www.inkscape.org/) -->

<svg
   width="190"
   height="66"
   viewBox="0 0 190 66"
   version="1.1"
   id="svg605"
   inkscape:version="1.2.2 (b0a8486541, 2022-12-01)"
   sodipodi:docname="logo-dark.svg"
   xmlns:inkscape="http://www.inkscape.org/namespaces/inkscape"
   xmlns:sodipodi="http://sodipodi.sourceforge.net/DTD/sodipodi-0.dtd"
   xmlns="http://www.w3.org/2000/svg"
   xmlns:svg="http://www.w3.org/2000/svg">
  <sodipodi:namedview
     id="namedview607"
     pagecolor="#ffffff"
     bordercolor="#000000"
     borderopacity="0.25"
     inkscape:showpageshadow="2"
     inkscape:pageopacity="0.0"
     inkscape:pagecheckerboard="0"
     inkscape:deskcolor="#d1d1d1"
     inkscape:document-units="px"
     showgrid="false"
     inkscape:zoom="3.659624"
     inkscape:cx="114.21938"
     inkscape:cy="54.240545"
     inkscape:window-width="1720"
     inkscape:window-height="1376"
     inkscape:window-x="20"
     inkscape:window-y="20"
     inkscape:window-maximized="0"
     inkscape:current-layer="layer1" />
  <defs
     id="defs602" />
  <g
     inkscape:label="Layer 1"
     inkscape:groupmode="layer"
     id="layer1">
    <path
       d="m 65.386428,60.563528 c -1.977596,0 -3.666924,-0.308221 -5.067772,-0.904256 C 58.917808,59.06335 57.805437,58.220784 56.94011,57.172687 56.074885,56.12459 55.45691,54.870962 55.065521,53.45294 54.674038,52.034914 54.488674,50.514176 54.488674,48.890623 V 30.168718 h 2.925272 v 18.331416 c 0,1.623553 0.185461,3.041578 0.576846,4.233513 0.391389,1.191938 0.927016,2.15788 1.606878,2.93876 0.679861,0.780983 1.524423,1.356443 2.492662,1.726269 0.968236,0.369903 2.060047,0.554892 3.275532,0.554892 1.215484,0 2.286739,-0.18497 3.275535,-0.554892 0.988804,-0.369826 1.812903,-0.945286 2.492663,-1.726269 0.679861,-0.78088 1.215484,-1.746822 1.606873,-2.93876 0.391385,-1.191935 0.576851,-2.5894 0.576851,-4.233513 V 30.168718 h 2.925275 v 18.721905 c 0,1.623553 -0.185348,3.164856 -0.576752,4.562317 -0.391488,1.418022 -1.009463,2.651086 -1.874692,3.719747 -0.865217,1.068658 -1.977694,1.890663 -3.378546,2.486585 -1.400848,0.596017 -3.069509,0.904256 -5.047207,0.904256 z"
       fill="#ffffff"
       id="path311"
       style="stroke-width:0.998181" />
    <path
       d="m 86.296052,39.067261 c 0.494396,-0.369903 1.277171,-0.76032 2.348425,-1.17137 1.071246,-0.411057 2.348519,-0.616483 3.811158,-0.616483 1.606874,0 3.028282,0.287667 4.284994,0.863131 1.256614,0.575357 2.307296,1.376904 3.172426,2.404437 0.865425,1.027533 1.504255,2.260592 1.957435,3.678622 0.45317,1.418022 0.6588,2.959325 0.6588,4.665025 0,1.808519 -0.26752,3.43197 -0.80354,4.849992 -0.53503,1.43859 -1.27667,2.651089 -2.245205,3.658061 -0.968239,1.007071 -2.101281,1.767391 -3.440342,2.301717 -1.33906,0.534331 -2.822362,0.801548 -4.449792,0.801548 -1.977702,0 -3.605137,-0.123364 -4.902974,-0.39049 -1.297836,-0.246652 -2.348522,-0.534334 -3.17252,-0.822006 V 27.127243 l 2.801696,-0.513767 v 12.453785 z m 0,18.249263 c 0.432609,0.143849 1.071247,0.28766 1.915809,0.411054 0.844664,0.123289 1.957137,0.184857 3.337323,0.184857 2.41031,0 4.346785,-0.780884 5.809421,-2.342744 1.462632,-1.561867 2.204284,-3.801899 2.204284,-6.7202 0,-1.23306 -0.12359,-2.404434 -0.391385,-3.493656 -0.267817,-1.109684 -0.679861,-2.055069 -1.256609,-2.877074 -0.576851,-0.82201 -1.3185,-1.459151 -2.266175,-1.952357 -0.927012,-0.493202 -2.080611,-0.739858 -3.460898,-0.739858 -0.659199,0 -1.297833,0.06168 -1.895252,0.18497 -0.597411,0.123289 -1.153697,0.287774 -1.668658,0.49321 -0.515062,0.205531 -0.968235,0.41105 -1.35962,0.637138 -0.391491,0.225978 -0.70043,0.45208 -0.96824,0.637047 v 15.536488 z"
       fill="#ffffff"
       id="path313"
       style="stroke-width:0.998181" />
    <path
       d="m 125.41661,59.145506 c -0.8235,0.226091 -1.95644,0.493304 -3.35789,0.780983 -1.40045,0.287659 -3.1313,0.431512 -5.17058,0.431512 -1.66896,0 -3.04945,-0.246539 -4.18238,-0.739756 -1.11198,-0.493201 -2.01833,-1.171475 -2.71905,-2.055167 -0.70073,-0.8836 -1.17386,-1.952254 -1.4833,-3.226443 -0.30845,-1.253624 -0.45318,-2.651085 -0.45318,-4.171827 V 37.710922 h 2.8019 v 11.54963 c 0,1.582428 0.1028,2.897639 0.35036,3.986861 0.22659,1.089222 0.59691,1.972921 1.11198,2.630525 0.51506,0.678168 1.17486,1.150912 1.99836,1.459151 0.8245,0.30822 1.8127,0.452077 2.98756,0.452077 1.3186,0 2.4715,-0.08213 3.43974,-0.205531 0.96824,-0.123288 1.58611,-0.267099 1.85462,-0.390387 V 37.710922 h 2.80189 v 21.414122 z"
       fill="#ffffff"
       id="path315"
       style="stroke-width:0.998181" />
    <path
       d="m 132.37993,38.512369 c 0.8245,-0.225978 1.95743,-0.493205 3.35788,-0.780881 1.40145,-0.287668 3.1313,-0.431618 5.17059,-0.431618 1.68993,0 3.11133,0.24666 4.24427,0.739858 1.13293,0.493206 2.03929,1.171472 2.71904,2.07563 0.67977,0.904259 1.15391,1.972921 1.44238,3.247102 0.28845,1.253627 0.43221,2.651089 0.43221,4.171827 v 12.412762 h -2.80189 V 48.438546 c 0,-1.582427 -0.10281,-2.897737 -0.32939,-3.986963 -0.22658,-1.089123 -0.57695,-1.972815 -1.07105,-2.650983 -0.4941,-0.678168 -1.1539,-1.171472 -1.9774,-1.479715 -0.8245,-0.308221 -1.83366,-0.452077 -3.06941,-0.452077 -1.3186,0 -2.45153,0.08213 -3.41977,0.205531 -0.96824,0.143848 -1.58711,0.267099 -1.87458,0.390394 v 19.482324 h -2.8019 V 38.532941 Z"
       fill="#ffffff"
       id="path317"
       style="stroke-width:0.998181" />
    <path
       d="m 159.09927,37.731488 h 8.85787 v 2.363305 h -8.85787 v 11.796284 c 0,1.253624 0.10281,2.281156 0.32939,3.062041 0.20561,0.780983 0.51506,1.397461 0.92731,1.829076 0.39129,0.431516 0.88539,0.719297 1.46234,0.86313 0.57695,0.143849 1.19482,0.205531 1.89554,0.205531 1.17387,0 2.12214,-0.143849 2.84283,-0.411054 0.72069,-0.267099 1.27667,-0.513766 1.66896,-0.760323 l 0.67976,2.322187 c -0.41225,0.246652 -1.11297,0.554891 -2.10117,0.883695 -1.01016,0.328781 -2.10217,0.493202 -3.27604,0.493202 -1.38048,0 -2.53338,-0.18497 -3.4607,-0.534327 -0.9273,-0.349342 -1.68991,-0.904162 -2.2459,-1.623451 -0.55599,-0.719293 -0.94728,-1.644117 -1.17386,-2.733339 -0.22659,-1.089124 -0.35037,-2.383873 -0.35037,-3.863585 V 31.216825 l 2.80191,-0.513767 v 7.048998 z"
       fill="#ffffff"
       id="path319"
       style="stroke-width:0.998181" />
    <path
       d="m 190,59.145506 c -0.8235,0.226091 -1.95644,0.493304 -3.35789,0.780983 -1.40045,0.287659 -3.13129,0.431512 -5.17058,0.431512 -1.66896,0 -3.04845,-0.246539 -4.18238,-0.739756 -1.11198,-0.493201 -2.01833,-1.171475 -2.71905,-2.055167 -0.69973,-0.8836 -1.17386,-1.952254 -1.4833,-3.226443 -0.30846,-1.253624 -0.45317,-2.651085 -0.45317,-4.171827 V 37.710922 h 2.80189 v 11.54963 c 0,1.582428 0.10281,2.897639 0.35036,3.986861 0.22659,1.089222 0.59692,1.972921 1.11198,2.630525 0.51507,0.678168 1.17487,1.150912 1.99836,1.459151 0.8245,0.30822 1.8127,0.452077 2.98757,0.452077 1.31859,0 2.47149,-0.08213 3.43973,-0.205531 0.96824,-0.123288 1.58711,-0.267099 1.85462,-0.390387 V 37.710915 h 2.8019 v 21.414121 z"
       fill="#ffffff"
       id="path321"
       style="stroke-width:0.998181" />
    <path
       d="M 43.261622,0 H 0 v 65.762986 h 43.261622 z"
       fill="#e95420"
       id="path323"
       style="stroke-width:0.998181" />
    <path
       d="m 9.8882427,47.92478 c 2.4689543,0 4.4704073,-1.996675 4.4704073,-4.459604 0,-2.462929 -2.001453,-4.459503 -4.4704073,-4.459503 -2.4689238,0 -4.4703787,1.996574 -4.4703787,4.459503 0,2.462929 2.0014549,4.459604 4.4703787,4.459604 z"
       fill="#ffffff"
       id="path325"
       style="stroke-width:0.998181" />
    <path
       d="m 28.552504,38.142539 c 2.468902,0 4.470361,-1.996674 4.470361,-4.459602 0,-2.462928 -2.001459,-4.4595 -4.470361,-4.4595 -2.468902,0 -4.470358,1.996572 -4.470358,4.4595 0,2.462928 2.001456,4.459602 4.470358,4.459602 z"
       fill="#ffffff"
       id="path327"
       style="stroke-width:0.998181" />
    <path
       d="M 19.982211,54.973678 C 16.7479,54.27495 14.06988,52.219881 12.545354,49.322242 c -1.194824,0.534327 -2.533885,0.698728 -3.8317321,0.472641 1.8334711,4.500627 5.7269821,7.747733 10.5063761,8.775265 1.050689,0.225978 2.121935,0.328782 3.172522,0.328782 -0.823997,-1.068658 -1.277271,-2.383972 -1.318396,-3.740312 -0.370813,-0.04112 -0.741652,-0.102727 -1.091913,-0.18497 z"
       fill="#ffffff"
       id="path329"
       style="stroke-width:0.998181" />
    <path
       d="m 27.543541,59.453844 c 2.469004,0 4.470459,-1.996676 4.470459,-4.459605 0,-2.462925 -2.001455,-4.459499 -4.470459,-4.459499 -2.468903,0 -4.470358,1.996574 -4.470358,4.459499 0,2.462929 2.001455,4.459605 4.470358,4.459605 z"
       fill="#ffffff"
       id="path331"
       style="stroke-width:0.998181" />
    <path
       d="m 33.764713,53.350228 c 1.400848,-1.74683 2.369085,-3.822562 2.842924,-6.021468 0.823997,-3.843024 0.0618,-7.87101 -2.121939,-11.138573 -0.514961,1.212496 -1.400848,2.240031 -2.513224,2.938763 1.215388,2.281157 1.586214,4.891117 1.030026,7.418929 -0.267821,1.232962 -0.741648,2.404434 -1.400848,3.452527 1.050587,0.863138 1.792235,2.013948 2.142496,3.329257 z"
       fill="#ffffff"
       id="path333"
       style="stroke-width:0.998181" />
    <path
       d="m 9.5382898,37.07388 c 0.1236057,0 0.2266167,0 0.3502224,0 0.4532538,0 0.9064298,0.04112 1.3596038,0.143852 0.721087,0.164414 1.421511,0.431515 2.039486,0.822007 2.018923,-2.897639 5.273795,-4.623903 8.796582,-4.68559 0,-0.328789 0.0618,-0.678169 0.14423,-1.006973 0.205911,-0.965946 0.617972,-1.849642 1.215387,-2.609961 -5.62396,-0.452178 -11.10378,2.445558 -13.8849154,7.357241 z"
       fill="#ffffff"
       id="path335"
       style="stroke-width:0.998181" />
  </g>
</svg>
