<svg width="216" height="78" viewBox="0 0 216 78" fill="none" xmlns="http://www.w3.org/2000/svg">
<path d="M72.9346 67.6076C70.7286 67.6076 68.8443 67.2635 67.2818 66.5982C65.7192 65.9329 64.4784 64.9924 63.5133 63.8224C62.5482 62.6524 61.8588 61.2529 61.4222 59.67C60.9856 58.0871 60.7788 56.3894 60.7788 54.5771V33.6777H64.0418V54.1412C64.0418 55.9535 64.2486 57.5365 64.6852 58.8671C65.1218 60.1976 65.7192 61.2759 66.4775 62.1476C67.2358 63.0194 68.178 63.6618 69.258 64.0747C70.338 64.4876 71.5558 64.6941 72.9116 64.6941C74.2673 64.6941 75.4622 64.4876 76.5652 64.0747C77.6682 63.6618 78.5873 63.0194 79.3456 62.1476C80.1039 61.2759 80.7014 60.1976 81.138 58.8671C81.5746 57.5365 81.7814 55.9765 81.7814 54.1412V33.6777H85.0443V54.5771C85.0443 56.3894 84.8375 58.11 84.4009 59.67C83.9643 61.2529 83.275 62.6294 82.3099 63.8224C81.3448 65.0153 80.1039 65.9329 78.5414 66.5982C76.9788 67.2635 75.1175 67.6076 72.9116 67.6076H72.9346Z" fill="black"/>
<path d="M96.2579 43.6112C96.8094 43.1982 97.6826 42.7624 98.8775 42.3035C100.072 41.8447 101.497 41.6153 103.129 41.6153C104.921 41.6153 106.506 41.9365 107.908 42.5788C109.31 43.2212 110.482 44.1159 111.447 45.2629C112.412 46.41 113.124 47.7865 113.63 49.3694C114.135 50.9524 114.365 52.6729 114.365 54.5771C114.365 56.5959 114.066 58.4082 113.469 59.9912C112.872 61.5971 112.044 62.9506 110.964 64.0747C109.884 65.1988 108.62 66.0476 107.127 66.6441C105.633 67.2406 103.979 67.5388 102.163 67.5388C99.9575 67.5388 98.1421 67.4012 96.6945 67.1029C95.2468 66.8276 94.0749 66.5065 93.1558 66.1853V30.2824L96.2809 29.7088V43.6112H96.2579ZM96.2579 63.9829C96.7404 64.1435 97.4528 64.3041 98.3949 64.4418C99.337 64.5794 100.578 64.6482 102.117 64.6482C104.806 64.6482 106.966 63.7765 108.597 62.0329C110.229 60.2894 111.056 57.7888 111.056 54.5312C111.056 53.1547 110.918 51.8471 110.62 50.6312C110.321 49.3924 109.861 48.3371 109.218 47.4194C108.574 46.5018 107.747 45.7906 106.69 45.24C105.656 44.6894 104.369 44.4141 102.83 44.4141C102.094 44.4141 101.382 44.4829 100.716 44.6206C100.049 44.7582 99.429 44.9418 98.8545 45.1712C98.28 45.4006 97.7745 45.63 97.3379 45.8824C96.9013 46.1347 96.5566 46.3871 96.2579 46.5935V63.9371V63.9829Z" fill="black"/>
<path d="M139.895 66.0247C138.975 66.2771 137.712 66.5753 136.149 66.8965C134.586 67.2176 132.656 67.3782 130.381 67.3782C128.52 67.3782 126.98 67.1029 125.717 66.5524C124.476 66.0018 123.465 65.2447 122.683 64.2582C121.902 63.2718 121.374 62.0788 121.029 60.6565C120.684 59.2571 120.523 57.6971 120.523 55.9994V42.0971H123.649V54.99C123.649 56.7565 123.763 58.2247 124.039 59.4406C124.292 60.6565 124.706 61.6429 125.28 62.3771C125.855 63.1341 126.59 63.6618 127.509 64.0059C128.428 64.35 129.531 64.5106 130.841 64.5106C132.312 64.5106 133.598 64.4188 134.678 64.2812C135.758 64.1435 136.448 63.9829 136.746 63.8453V42.0971H139.872V66.0018L139.895 66.0247Z" fill="black"/>
<path d="M147.661 42.9918C148.58 42.7394 149.844 42.4412 151.407 42.12C152.969 41.7988 154.899 41.6382 157.174 41.6382C159.059 41.6382 160.644 41.9135 161.908 42.4641C163.172 43.0147 164.183 43.7718 164.941 44.7812C165.699 45.7906 166.228 46.9835 166.55 48.4059C166.871 49.8053 167.032 51.3653 167.032 53.0629V66.9194H163.907V54.0724C163.907 52.3059 163.792 50.8376 163.539 49.6218C163.287 48.4059 162.896 47.4194 162.345 46.6624C161.793 45.9053 161.058 45.3547 160.139 45.0106C159.219 44.6665 158.093 44.5059 156.715 44.5059C155.244 44.5059 153.98 44.5976 152.9 44.7353C151.82 44.8959 151.131 45.0335 150.809 45.1712V66.9194H147.684V43.0147L147.661 42.9918Z" fill="black"/>
<path d="M177.465 42.12H187.346V44.7582H177.465V57.9265C177.465 59.3259 177.58 60.4729 177.833 61.3447C178.062 62.2165 178.407 62.9047 178.867 63.3865C179.303 63.8682 179.855 64.1894 180.498 64.35C181.142 64.5106 181.831 64.5794 182.612 64.5794C183.922 64.5794 184.979 64.4188 185.783 64.1206C186.587 63.8224 187.208 63.5471 187.645 63.2718L188.403 65.8641C187.943 66.1394 187.162 66.4835 186.059 66.8506C184.933 67.2176 183.715 67.4012 182.405 67.4012C180.866 67.4012 179.579 67.1947 178.545 66.8047C177.511 66.4147 176.661 65.7953 176.04 64.9924C175.42 64.1894 174.983 63.1571 174.73 61.9412C174.478 60.7253 174.34 59.28 174.34 57.6282V34.8476L177.465 34.2741V42.1429V42.12Z" fill="black"/>
<path d="M211.933 66.0247C211.014 66.2771 209.75 66.5753 208.188 66.8965C206.625 67.2176 204.695 67.3782 202.42 67.3782C200.559 67.3782 199.019 67.1029 197.755 66.5524C196.514 66.0018 195.503 65.2447 194.722 64.2582C193.941 63.2718 193.412 62.0788 193.068 60.6565C192.723 59.2571 192.562 57.6971 192.562 55.9994V42.0971H195.687V54.99C195.687 56.7565 195.802 58.2247 196.078 59.4406C196.331 60.6565 196.744 61.6429 197.319 62.3771C197.893 63.1341 198.628 63.6618 199.548 64.0059C200.467 64.35 201.57 64.5106 202.879 64.5106C204.35 64.5106 205.637 64.4188 206.717 64.2812C207.797 64.1435 208.486 63.9829 208.785 63.8453V42.0971H211.91V66.0018L211.933 66.0247Z" fill="black"/>
<path d="M48.2553 0H0V73.4118H48.2553V0Z" fill="#E95420"/>
<path d="M11.0298 53.4988C13.7837 53.4988 16.0162 51.27 16.0162 48.5206C16.0162 45.7712 13.7837 43.5424 11.0298 43.5424C8.27594 43.5424 6.04346 45.7712 6.04346 48.5206C6.04346 51.27 8.27594 53.4988 11.0298 53.4988Z" fill="white"/>
<path d="M31.8487 42.5788C34.6026 42.5788 36.8351 40.35 36.8351 37.6006C36.8351 34.8512 34.6026 32.6224 31.8487 32.6224C29.0948 32.6224 26.8623 34.8512 26.8623 37.6006C26.8623 40.35 29.0948 42.5788 31.8487 42.5788Z" fill="white"/>
<path d="M22.2896 61.3676C18.6819 60.5876 15.6947 58.2935 13.9943 55.0588C12.6615 55.6553 11.1679 55.8388 9.72021 55.5865C11.7653 60.6106 16.1083 64.2353 21.4394 65.3824C22.6113 65.6347 23.8062 65.7494 24.9781 65.7494C24.0589 64.5565 23.5534 63.0882 23.5074 61.5741C23.0938 61.5282 22.6802 61.4594 22.2896 61.3676V61.3676Z" fill="white"/>
<path d="M30.7227 66.3688C33.4766 66.3688 35.7091 64.14 35.7091 61.3906C35.7091 58.6412 33.4766 56.4124 30.7227 56.4124C27.9688 56.4124 25.7363 58.6412 25.7363 61.3906C25.7363 64.14 27.9688 66.3688 30.7227 66.3688Z" fill="white"/>
<path d="M37.6623 59.5553C39.2248 57.6053 40.3048 55.2882 40.8333 52.8335C41.7525 48.5435 40.9023 44.0471 38.4665 40.3994C37.8921 41.7529 36.904 42.9 35.6631 43.68C37.0189 46.2265 37.4325 49.14 36.8121 51.9618C36.5133 53.3382 35.9848 54.6459 35.2495 55.8159C36.4214 56.7794 37.2487 58.0641 37.6393 59.5324L37.6623 59.5553Z" fill="white"/>
<path d="M10.6392 41.3859C10.777 41.3859 10.8919 41.3859 11.0298 41.3859C11.5353 41.3859 12.0409 41.4318 12.5464 41.5465C13.3506 41.73 14.1319 42.0282 14.8213 42.4641C17.0732 39.2294 20.7038 37.3024 24.6332 37.2335C24.6332 36.8665 24.7021 36.4765 24.7941 36.1094C25.0238 35.0312 25.4834 34.0447 26.1498 33.1959C19.8766 32.6912 13.7643 35.9259 10.6621 41.4088L10.6392 41.3859Z" fill="white"/>
</svg>
