<?xml version="1.0" encoding="UTF-8" standalone="no"?>
<!-- Created with Inkscape (http://www.inkscape.org/) -->

<svg
   width="190"
   height="66"
   viewBox="0 0 190 66"
   version="1.1"
   id="svg943"
   inkscape:version="1.2.2 (b0a8486541, 2022-12-01)"
   sodipodi:docname="logo-light.svg"
   xmlns:inkscape="http://www.inkscape.org/namespaces/inkscape"
   xmlns:sodipodi="http://sodipodi.sourceforge.net/DTD/sodipodi-0.dtd"
   xmlns="http://www.w3.org/2000/svg"
   xmlns:svg="http://www.w3.org/2000/svg">
  <sodipodi:namedview
     id="namedview945"
     pagecolor="#ffffff"
     bordercolor="#000000"
     borderopacity="0.25"
     inkscape:showpageshadow="2"
     inkscape:pageopacity="0.0"
     inkscape:pagecheckerboard="0"
     inkscape:deskcolor="#d1d1d1"
     inkscape:document-units="px"
     showgrid="false"
     inkscape:zoom="2.5877449"
     inkscape:cx="61.057022"
     inkscape:cy="44.247019"
     inkscape:window-width="1720"
     inkscape:window-height="1376"
     inkscape:window-x="20"
     inkscape:window-y="20"
     inkscape:window-maximized="0"
     inkscape:current-layer="layer1" />
  <defs
     id="defs940" />
  <g
     inkscape:label="Layer 1"
     inkscape:groupmode="layer"
     id="layer1">
    <path
       d="m 65.622222,60.781808 c -1.984825,0 -3.680207,-0.309369 -5.08605,-0.907491 -1.405938,-0.598134 -2.522334,-1.44368 -3.390669,-2.495555 -0.868343,-1.05187 -1.488629,-2.310072 -1.881451,-3.733163 -0.39283,-1.423091 -0.578899,-2.949382 -0.578899,-4.57871 V 30.277534 h 2.935859 V 48.675 c 0,1.629324 0.186092,3.052502 0.578895,4.248759 0.392822,1.196173 0.930327,2.165607 1.6126,2.949302 0.682274,0.783778 1.530012,1.361319 2.50173,1.732532 0.971721,0.371197 2.067425,0.556864 3.287294,0.556864 1.219781,0 2.294885,-0.185674 3.28729,-0.556864 0.992409,-0.371198 1.819368,-0.948754 2.501638,-1.732532 0.682281,-0.783695 1.219869,-1.753129 1.612703,-2.949302 0.392818,-1.196257 0.578891,-2.598758 0.578891,-4.248759 V 30.277534 h 2.935764 v 18.789355 c 0,1.629328 -0.186092,3.176208 -0.578895,4.57871 -0.39283,1.423091 -1.013021,2.660617 -1.881364,3.733163 -0.868338,1.072464 -1.984818,1.897421 -3.390668,2.495555 -1.405938,0.59813 -3.080625,0.907491 -5.065359,0.907491 z"
       fill="#000000"
       id="path76"
       style="stroke-width:0.89939" />
    <path
       d="m 86.607148,39.208129 c 0.496201,-0.371274 1.281861,-0.763106 2.356956,-1.175671 1.074747,-0.412481 2.356877,-0.618718 3.82525,-0.618718 1.612342,0 3.038422,0.288757 4.299856,0.866221 1.261438,0.577541 2.315941,1.381912 3.18418,2.413117 0.86825,1.031278 1.50887,2.268804 1.96414,3.69189 0.45437,1.423178 0.66131,2.969975 0.66131,4.681921 0,1.81498 -0.26901,3.444304 -0.80617,4.867482 -0.53714,1.443764 -1.28212,2.660613 -2.253844,3.671222 -0.971718,1.010608 -2.108998,1.77371 -3.452304,2.309989 -1.344216,0.536276 -2.832393,0.804368 -4.466311,0.804368 -1.984382,0 -3.617776,-0.123695 -4.920241,-0.391893 -1.302552,-0.247503 -2.35696,-0.536185 -3.183911,-0.824953 V 27.225029 l 2.811777,-0.515688 v 12.498788 z m 0,18.314932 c 0.434118,0.144368 1.075096,0.288773 1.922743,0.412566 0.847651,0.123695 1.964225,0.185561 3.348929,0.185561 2.419399,0 4.362838,-0.783691 5.830312,-2.351255 1.468381,-1.567473 2.212468,-3.815608 2.212468,-6.744317 0,-1.237522 -0.12415,-2.41311 -0.392284,-3.506246 -0.268972,-1.113725 -0.682903,-2.062483 -1.261442,-2.88753 -0.579437,-0.824957 -1.323513,-1.464353 -2.27455,-1.959355 -0.930322,-0.495021 -2.088291,-0.742524 -3.472987,-0.742524 -0.662212,0 -1.302826,0.06187 -1.902052,0.185675 -0.600125,0.123694 -1.157972,0.288772 -1.674876,0.495009 -0.5169,0.206234 -0.971714,0.412475 -1.364543,0.639396 -0.392826,0.226831 -0.702962,0.453744 -0.971718,0.639305 v 15.592556 z"
       fill="#000000"
       id="path78"
       style="stroke-width:0.89939" />
    <path
       d="m 125.86922,59.358718 c -0.82777,0.226906 -1.96414,0.495009 -3.37043,0.783782 -1.4063,0.288696 -3.14279,0.433067 -5.18971,0.433067 -1.67441,0 -3.06002,-0.247503 -4.19639,-0.742425 -1.11657,-0.495014 -2.02621,-1.175675 -2.72981,-2.06257 -0.7027,-0.886812 -1.17776,-1.959362 -1.48816,-3.238067 -0.3104,-1.258115 -0.45528,-2.660616 -0.45528,-4.186915 V 37.846896 h 2.81259 v 11.591206 c 0,1.58815 0.10257,2.908116 0.3509,4.00126 0.22763,1.093143 0.60013,1.979951 1.11659,2.640023 0.51735,0.680571 1.17866,1.154995 2.00551,1.464357 0.82687,0.309369 1.81928,0.45374 2.99794,0.45374 1.32352,0 2.48059,-0.08254 3.4523,-0.206234 0.97173,-0.123808 1.59255,-0.268213 1.86066,-0.391889 V 37.846913 h 2.8126 v 21.491234 z"
       fill="#000000"
       id="path80"
       style="stroke-width:0.89939" />
    <path
       d="m 132.85661,38.651264 c 0.82685,-0.226906 1.96413,-0.495006 3.37042,-0.783781 1.40539,-0.288757 3.1419,-0.433156 5.1888,-0.433156 1.69602,0 3.1221,0.247507 4.25939,0.742521 1.13727,0.495006 2.0469,1.175671 2.7289,2.083151 0.682,0.907492 1.15797,1.979952 1.44769,3.258747 0.28881,1.258115 0.43367,2.660613 0.43367,4.18682 v 12.457523 h -2.81169 V 48.613145 c 0,-1.588145 -0.10347,-2.908206 -0.3311,-4.001263 -0.22675,-1.093136 -0.57853,-1.980038 -1.07428,-2.660605 -0.49666,-0.680662 -1.15797,-1.175675 -1.98483,-1.485037 -0.82777,-0.309369 -1.84087,-0.45374 -3.08071,-0.45374 -1.32353,0 -2.46079,0.08243 -3.43252,0.206272 -0.97171,0.144367 -1.59164,0.268099 -1.88136,0.391889 v 19.552458 h -2.81167 V 38.671872 Z"
       fill="#000000"
       id="path82"
       style="stroke-width:0.89939" />
    <path
       d="m 159.67248,37.867483 h 8.89033 v 2.37184 h -8.89033 v 11.83881 c 0,1.258112 0.10347,2.289306 0.3311,3.073092 0.20604,0.783774 0.51645,1.40249 0.93033,1.835648 0.39229,0.433068 0.88895,0.721844 1.46748,0.866223 0.57943,0.144367 1.19935,0.206271 1.90205,0.206271 1.17866,0 2.12969,-0.144367 2.85308,-0.412478 0.72338,-0.268138 1.28213,-0.515595 1.67531,-0.763106 l 0.682,2.330564 c -0.41389,0.247503 -1.11658,0.556864 -2.109,0.886902 -1.0131,0.329928 -2.10899,0.49501 -3.28765,0.49501 -1.3847,0 -2.54267,-0.185675 -3.47299,-0.536279 -0.93035,-0.350639 -1.69512,-0.907484 -2.25387,-1.629328 -0.55783,-0.72192 -0.95101,-1.650001 -1.17866,-2.743141 -0.22675,-1.093136 -0.3509,-2.392517 -0.3509,-3.877549 V 31.329318 l 2.81167,-0.515597 v 7.07435 z"
       fill="#000000"
       id="path84"
       style="stroke-width:0.89939" />
    <path
       d="m 190.68473,59.358718 c -0.82685,0.226906 -1.96413,0.495009 -3.36952,0.783782 -1.40629,0.288696 -3.14279,0.433067 -5.1897,0.433067 -1.67442,0 -3.06002,-0.247503 -4.1973,-0.742425 -1.11658,-0.495014 -2.02621,-1.175675 -2.72891,-2.06257 -0.70269,-0.886812 -1.17866,-1.959362 -1.48817,-3.238067 -0.3104,-1.258115 -0.45527,-2.660616 -0.45527,-4.186915 V 37.846896 h 2.81168 v 11.591206 c 0,1.58815 0.10348,2.908116 0.35182,4.00126 0.22763,1.093143 0.59923,1.979951 1.11657,2.640023 0.51646,0.680571 1.17776,1.154995 2.00553,1.464357 0.82686,0.309369 1.81928,0.45374 2.99702,0.45374 1.32353,0 2.48149,-0.08254 3.45322,-0.206234 0.97171,-0.123808 1.59163,-0.268213 1.86066,-0.391889 V 37.846913 h 2.81168 v 21.491234 z"
       fill="#000000"
       id="path86"
       style="stroke-width:0.89939" />
    <path
       d="M 43.417253,0 H 0 v 66.000001 h 43.417253 z"
       fill="#e95420"
       id="path88"
       style="stroke-width:0.89939" />
    <path
       d="m 9.9239584,48.097459 c 2.4777966,0 4.4864696,-2.003783 4.4864696,-4.475592 0,-2.471817 -2.008673,-4.475593 -4.4864696,-4.475593 -2.4777577,0 -4.4864111,2.003776 -4.4864111,4.475593 0,2.471809 2.0086534,4.475592 4.4864111,4.475592 z"
       fill="#ffffff"
       id="path90"
       style="stroke-width:0.89939" />
    <path
       d="m 28.65557,38.279961 c 2.477796,0 4.486466,-2.003776 4.486466,-4.475591 0,-2.471813 -2.00867,-4.475592 -4.486466,-4.475592 -2.477796,0 -4.486466,2.003779 -4.486466,4.475592 0,2.471815 2.00867,4.475591 4.486466,4.475591 z"
       fill="#ffffff"
       id="path92"
       style="stroke-width:0.89939" />
    <path
       d="m 20.054861,55.17181 c -3.245997,-0.701251 -5.933701,-2.763737 -7.463622,-5.671849 -1.199172,0.536271 -2.543026,0.701251 -3.8455687,0.474416 1.8400477,4.516859 5.7476237,7.775606 10.5442307,8.806891 1.054405,0.226792 2.129506,0.329928 3.183911,0.329928 -0.827041,-1.072452 -1.28186,-2.39251 -1.323249,-3.753742 -0.372131,-0.04123 -0.744264,-0.103135 -1.095702,-0.185674 z"
       fill="#ffffff"
       id="path94"
       style="stroke-width:0.89939" />
    <path
       d="m 27.642462,59.668079 c 2.477795,0 4.486469,-2.003776 4.486469,-4.475592 0,-2.471809 -2.008674,-4.475593 -4.486469,-4.475593 -2.477796,0 -4.486466,2.003784 -4.486466,4.475593 0,2.471816 2.00867,4.475592 4.486466,4.475592 z"
       fill="#ffffff"
       id="path96"
       style="stroke-width:0.89939" />
    <path
       d="m 33.886304,53.542482 c 1.405843,-1.753125 2.377563,-3.836288 2.853075,-6.043157 0.827041,-3.856869 0.06209,-7.899311 -2.129504,-11.178727 -0.516812,1.216847 -1.405846,2.248135 -2.522333,2.949386 1.219868,2.289396 1.592002,4.908747 1.033801,7.44565 -0.268851,1.237435 -0.744356,2.413107 -1.405935,3.464992 1.054406,0.866215 1.798762,2.02121 2.150199,3.341267 z"
       fill="#ffffff"
       id="path98"
       style="stroke-width:0.89939" />
    <path
       d="m 9.5725213,37.207498 c 0.1239905,0 0.2273651,0 0.3514314,0 0.4548203,0 0.9097283,0.04125 1.3645463,0.144383 0.723572,0.164968 1.42654,0.433067 2.046821,0.824963 2.026127,-2.908124 5.292724,-4.640571 8.828165,-4.702516 0,-0.329943 0.06199,-0.680569 0.144762,-1.010608 0.206662,-0.969343 0.620198,-1.856246 1.219784,-2.619349 -5.644253,-0.453743 -11.143739,2.454373 -13.9349129,7.383709 z"
       fill="#ffffff"
       id="path100"
       style="stroke-width:0.89939" />
  </g>
</svg>
