<svg width="161" height="150" viewBox="0 0 161 150" fill="none" xmlns="http://www.w3.org/2000/svg">
<g clip-path="url(#clip0_180_1326)">
<path d="M106.844 55.5738L136.844 38.9754" stroke="white" stroke-width="1.5" stroke-linejoin="round"/>
<path d="M110.164 82.2541L125.164 72.2951L151.721 63.9344" stroke="white" stroke-width="1.5" stroke-linejoin="round"/>
<path d="M96.8853 98.8525V125.533" stroke="white" stroke-width="2" stroke-linejoin="round"/>
<path d="M4.05733 38.2377C-2.70496 50.7787 3.19667 64.0574 16.5983 68.6066" stroke="white" stroke-width="2" stroke-linecap="round" stroke-linejoin="round"/>
<path d="M13.7704 27.2951C15.8605 25.6967 22.131 20.9016 29.1392 17.8279" stroke="white" stroke-width="2" stroke-linecap="round" stroke-linejoin="round"/>
<path d="M41.8032 12.541C41.8032 12.541 52.8688 8.11475 61.5983 8.11475" stroke="white" stroke-width="2" stroke-linecap="round" stroke-linejoin="round"/>
<path d="M75.7377 8.36066C88.1557 8.72951 98.9754 14.5082 103.402 16.4754" stroke="white" stroke-width="2" stroke-linecap="round" stroke-linejoin="round"/>
<path d="M116.311 23.2377C135.861 35.2869 147.172 54.0984 149.016 57.1721" stroke="white" stroke-width="2" stroke-linecap="round" stroke-linejoin="round"/>
<path d="M30.1229 72.6639C38.7295 74.5082 44.6311 82.0082 47.8278 85.8197" stroke="white" stroke-width="2" stroke-linecap="round" stroke-linejoin="round"/>
<path d="M58.2787 94.0574C64.4262 98.2377 73.1557 100.451 76.3525 99.7131" stroke="white" stroke-width="2" stroke-linecap="round" stroke-linejoin="round"/>
<path d="M91.3524 98.1148C96.6393 97.2541 100.82 98.7295 103.156 99.959" stroke="white" stroke-width="2" stroke-linecap="round" stroke-linejoin="round"/>
<path d="M117.049 104.508C132.049 118.156 146.434 109.426 148.893 107.828" stroke="white" stroke-width="2" stroke-linecap="round" stroke-linejoin="round"/>
<path d="M157.5 95.4098C160.205 86.9262 156.639 74.2623 155.533 70.4508" stroke="white" stroke-width="2" stroke-linecap="round" stroke-linejoin="round"/>
<path d="M68.6066 13.7705C72.0696 13.7705 74.877 10.9631 74.877 7.5C74.877 4.0369 72.0696 1.22951 68.6066 1.22951C65.1435 1.22951 62.3361 4.0369 62.3361 7.5C62.3361 10.9631 65.1435 13.7705 68.6066 13.7705Z" stroke="white" stroke-width="2" stroke-linecap="round" stroke-linejoin="round"/>
<path d="M8.72948 38.8525C12.1926 38.8525 15 36.0451 15 32.582C15 29.1189 12.1926 26.3115 8.72948 26.3115C5.26638 26.3115 2.45898 29.1189 2.45898 32.582C2.45898 36.0451 5.26638 38.8525 8.72948 38.8525Z" stroke="white" stroke-width="2" stroke-linecap="round" stroke-linejoin="round"/>
<path d="M83.6065 123.811C86.3906 123.811 88.6475 121.555 88.6475 118.77C88.6475 115.986 86.3906 113.73 83.6065 113.73C80.8225 113.73 78.5656 115.986 78.5656 118.77C78.5656 121.555 80.8225 123.811 83.6065 123.811Z" fill="#E65524" stroke="white" stroke-width="2" stroke-linecap="round" stroke-linejoin="round"/>
<path d="M96.8852 136.352C99.6693 136.352 101.926 134.096 101.926 131.311C101.926 128.527 99.6693 126.27 96.8852 126.27C94.1012 126.27 91.8442 128.527 91.8442 131.311C91.8442 134.096 94.1012 136.352 96.8852 136.352Z" stroke="white" stroke-width="2" stroke-linecap="round" stroke-linejoin="round"/>
<path d="M110.164 148.77C112.948 148.77 115.205 146.514 115.205 143.73C115.205 140.945 112.948 138.689 110.164 138.689C107.38 138.689 105.123 140.945 105.123 143.73C105.123 146.514 107.38 148.77 110.164 148.77Z" fill="#E65524" stroke="white" stroke-width="2" stroke-linecap="round" stroke-linejoin="round"/>
<path d="M110.164 108.443C113.627 108.443 116.434 105.635 116.434 102.172C116.434 98.709 113.627 95.9016 110.164 95.9016C106.701 95.9016 103.893 98.709 103.893 102.172C103.893 105.635 106.701 108.443 110.164 108.443Z" stroke="white" stroke-width="2" stroke-linecap="round" stroke-linejoin="round"/>
<path d="M157.938 64.9813C158.492 61.5629 156.171 58.342 152.753 57.7872C149.334 57.2324 146.113 59.5538 145.558 62.9723C145.004 66.3907 147.325 69.6116 150.744 70.1664C154.162 70.7212 157.383 68.3998 157.938 64.9813Z" fill="#E65524" stroke="white" stroke-width="2" stroke-linecap="round" stroke-linejoin="round"/>
<path d="M52.7458 97.0082C56.2089 97.0082 59.0163 94.2008 59.0163 90.7377C59.0163 87.2746 56.2089 84.4672 52.7458 84.4672C49.2827 84.4672 46.4753 87.2746 46.4753 90.7377C46.4753 94.2008 49.2827 97.0082 52.7458 97.0082Z" stroke="white" stroke-width="2" stroke-linecap="round" stroke-linejoin="round"/>
<path d="M110.164 25.3279C113.627 25.3279 116.434 22.5205 116.434 19.0574C116.434 15.5943 113.627 12.7869 110.164 12.7869C106.701 12.7869 103.893 15.5943 103.893 19.0574C103.893 22.5205 106.701 25.3279 110.164 25.3279Z" stroke="white" stroke-width="2" stroke-linecap="round" stroke-linejoin="round"/>
<path d="M48.6885 45.6147H22.0082L12.0492 37.377" stroke="white" stroke-width="1.5" stroke-linejoin="round"/>
<path d="M68.6066 40.6967V14.1393" stroke="white" stroke-width="1.5" stroke-linejoin="round"/>
<path d="M37.0082 20.6557L40.3278 29.0164H68.6065" stroke="white" stroke-width="1.5" stroke-linejoin="round"/>
<path d="M91.8442 37.377L105.246 23.9754" stroke="white" stroke-width="1.5" stroke-linejoin="round"/>
<path d="M100.205 72.2951L110.164 82.2541V95.041" stroke="white" stroke-width="1.5" stroke-linejoin="round"/>
<path d="M56.9261 85.5738L61.9671 78.9344" stroke="white" stroke-width="1.5" stroke-linejoin="round"/>
<path d="M24.4672 69.0984L32.8278 60.8607V48.9344L40.3278 29.0164" stroke="white" stroke-width="1.5" stroke-linejoin="round"/>
<path d="M110.164 108.811V138.811" stroke="white" stroke-width="2" stroke-linejoin="round"/>
<path d="M83.6065 105.123C87.0696 105.123 89.877 102.316 89.877 98.8525C89.877 95.3894 87.0696 92.582 83.6065 92.582C80.1435 92.582 77.3361 95.3894 77.3361 98.8525C77.3361 102.316 80.1435 105.123 83.6065 105.123Z" stroke="white" stroke-width="2" stroke-linecap="round" stroke-linejoin="round"/>
<path d="M153.443 108.443C156.906 108.443 159.713 105.635 159.713 102.172C159.713 98.709 156.906 95.9016 153.443 95.9016C149.98 95.9016 147.172 98.709 147.172 102.172C147.172 105.635 149.98 108.443 153.443 108.443Z" stroke="white" stroke-width="2" stroke-linecap="round" stroke-linejoin="round"/>
<path d="M35.2868 20.5328C38.7499 20.5328 41.5573 17.7254 41.5573 14.2623C41.5573 10.7992 38.7499 7.99181 35.2868 7.99181C31.8238 7.99181 29.0164 10.7992 29.0164 14.2623C29.0164 17.7254 31.8238 20.5328 35.2868 20.5328Z" fill="#E65524" stroke="white" stroke-width="2" stroke-linecap="round" stroke-linejoin="round"/>
<path d="M125.164 72.2951L131.803 85.5738" stroke="white" stroke-width="1.5" stroke-linejoin="round"/>
<path d="M138.443 93.9344L148.402 98.8525" stroke="white" stroke-width="1.5" stroke-linejoin="round"/>
<path d="M83.6064 105.492V113.852" stroke="white" stroke-width="2" stroke-linejoin="round"/>
<path d="M125.164 77.3361C127.948 77.3361 130.205 75.0791 130.205 72.2951C130.205 69.511 127.948 67.2541 125.164 67.2541C122.38 67.2541 120.123 69.511 120.123 72.2951C120.123 75.0791 122.38 77.3361 125.164 77.3361Z" fill="#E65524" stroke="white" stroke-width="2" stroke-linecap="round" stroke-linejoin="round"/>
<path d="M32.8278 50.6557C35.6119 50.6557 37.8688 48.3988 37.8688 45.6148C37.8688 42.8307 35.6119 40.5738 32.8278 40.5738C30.0438 40.5738 27.7869 42.8307 27.7869 45.6148C27.7869 48.3988 30.0438 50.6557 32.8278 50.6557Z" fill="#E65524" stroke="white" stroke-width="2" stroke-linecap="round" stroke-linejoin="round"/>
<path d="M81.8852 92.2131L76.9672 80.5328" stroke="white" stroke-width="1.5" stroke-linejoin="round"/>
<path d="M116.803 100.574L126.762 98.8525L131.803 92.2131" stroke="white" stroke-width="1.5" stroke-linejoin="round"/>
<path d="M135.123 95.6557C137.907 95.6557 140.164 93.3988 140.164 90.6148C140.164 87.8307 137.907 85.5738 135.123 85.5738C132.339 85.5738 130.082 87.8307 130.082 90.6148C130.082 93.3988 132.339 95.6557 135.123 95.6557Z" stroke="white" stroke-width="2" stroke-linecap="round" stroke-linejoin="round"/>
<path d="M121.844 53.6066C125.307 53.6066 128.115 50.7992 128.115 47.3361C128.115 43.873 125.307 41.0656 121.844 41.0656C118.381 41.0656 115.574 43.873 115.574 47.3361C115.574 50.7992 118.381 53.6066 121.844 53.6066Z" fill="#E65524" stroke="white" stroke-width="2" stroke-linecap="round" stroke-linejoin="round"/>
<path d="M108.566 52.5C108.566 70.4508 94.0573 85.082 75.9835 85.082C57.9098 85.082 43.5245 70.4508 43.5245 52.5C43.5245 34.5492 58.0327 19.918 76.1065 19.918C94.1803 19.918 108.566 34.5492 108.566 52.5Z" fill="#E65524" stroke="white" stroke-width="2" stroke-miterlimit="10"/>
<path d="M23.7295 75.2459C27.1926 75.2459 30 72.4385 30 68.9754C30 65.5123 27.1926 62.7049 23.7295 62.7049C20.2664 62.7049 17.459 65.5123 17.459 68.9754C17.459 72.4385 20.2664 75.2459 23.7295 75.2459Z" fill="#E65524" stroke="white" stroke-width="2" stroke-linecap="round" stroke-linejoin="round"/>
<path d="M66.3933 61.2295C66.1474 60.6148 65.7786 59.877 65.4097 59.0164C65.0409 58.1557 64.5491 57.1721 64.0573 56.0656C63.5655 54.959 63.0737 53.8525 62.5819 52.7459C62.0901 51.6393 61.5983 50.5328 61.1065 49.5492C60.6147 48.5656 60.2458 47.7049 59.754 46.8443C59.3851 46.1066 59.0163 45.4918 58.7704 45C58.5245 47.9508 58.2786 51.0246 58.1556 54.4672C58.0327 57.9098 57.7868 61.3525 57.6638 64.7951H54.0983C54.2212 62.582 54.3442 60.3689 54.4671 58.0328C54.5901 55.8197 54.713 53.6066 54.836 51.3934C54.9589 49.1803 55.2048 47.0902 55.3278 45C55.5737 42.9098 55.6966 40.9426 55.9425 39.0984H59.1392C59.754 40.2049 60.4917 41.4344 61.2294 42.9098C61.9671 44.3852 62.7048 45.9836 63.5655 47.582C64.3032 49.1803 65.0409 50.7787 65.7786 52.5C66.5163 54.0984 67.1311 55.5738 67.7458 56.9262C68.3606 55.5738 68.9753 54.0984 69.713 52.5C70.4507 50.9016 71.1884 49.3033 71.9261 47.582C72.6638 45.9836 73.4015 44.3852 74.2622 42.9098C74.9999 41.4344 75.7376 40.082 76.3524 39.0984H79.5491C80.4097 47.3361 81.0245 55.9426 81.3933 64.7951H77.8278C77.7048 61.3525 77.5819 57.9098 77.336 54.4672C77.213 51.0246 76.9671 47.9508 76.7212 45C76.4753 45.3688 76.1065 45.9836 75.7376 46.8443C75.3688 47.582 74.877 48.5656 74.3851 49.5492C73.8933 50.5328 73.4015 51.6393 72.9097 52.7459C72.4179 53.8525 71.9261 54.959 71.4343 56.0656C70.9425 57.1721 70.5737 58.1557 70.0819 59.0164C69.713 59.877 69.3442 60.7377 69.0983 61.2295H66.3933Z" fill="white"/>
<path d="M100.697 61.5984V64.6721H85.2048V39.0984H88.7704V61.7213H100.697V61.5984Z" fill="white"/>
</g>
<defs>
<clipPath id="clip0_180_1326">
<rect width="160.943" height="150" fill="white"/>
</clipPath>
</defs>
</svg>
