<svg width="199" height="150" viewBox="0 0 199 150" fill="none" xmlns="http://www.w3.org/2000/svg">
<g clip-path="url(#clip0_180_1493)">
<path d="M184.426 107.582H14.1393C10.8197 107.582 7.99179 104.877 7.99179 101.434V13.8934C7.99179 10.5738 10.6967 7.7459 14.1393 7.7459H184.426C187.869 7.7459 190.574 10.4508 190.574 13.8934V101.434C190.574 104.877 187.746 107.582 184.426 107.582ZM14.1393 8.9754C11.4344 8.9754 9.2213 11.1885 9.2213 13.8934V101.434C9.2213 104.139 11.4344 106.352 14.1393 106.352H184.426C187.131 106.352 189.344 104.139 189.344 101.434V13.8934C189.344 11.1885 187.131 8.9754 184.426 8.9754H14.1393Z" fill="white"/>
<path d="M189.59 125.656H8.85246C3.93443 125.656 0 121.721 0 116.803V8.85246C0 3.93443 3.93443 0 8.85246 0H189.59C194.508 0 198.443 3.93443 198.443 8.85246V116.803C198.566 121.721 194.508 125.656 189.59 125.656ZM8.85246 2.45902C5.40984 2.45902 2.45902 5.40984 2.45902 8.85246V116.803C2.45902 120.369 5.40984 123.197 8.85246 123.197H189.59C193.156 123.197 195.984 120.246 195.984 116.803V8.85246C195.984 5.28688 193.033 2.45902 189.59 2.45902H8.85246Z" fill="white"/>
<path d="M99.2213 118.402C97.377 118.402 95.9016 116.926 95.9016 115.082C95.9016 113.238 97.377 111.762 99.2213 111.762C101.066 111.762 102.541 113.238 102.541 115.082C102.541 116.926 101.066 118.402 99.2213 118.402ZM99.2213 112.5C97.8689 112.5 96.6393 113.607 96.6393 115.082C96.6393 116.434 97.7459 117.664 99.2213 117.664C100.697 117.664 101.803 116.557 101.803 115.082C101.803 113.73 100.697 112.5 99.2213 112.5Z" fill="white"/>
<path d="M113.975 142.869H84.5902C84.2213 142.869 83.9754 142.623 83.9754 142.254V124.549C83.9754 124.18 84.2213 123.934 84.5902 123.934H113.975C114.344 123.934 114.59 124.18 114.59 124.549V142.254C114.59 142.5 114.344 142.869 113.975 142.869ZM85.2049 141.639H113.361V125.164H85.2049V141.639Z" fill="white"/>
<path d="M127.623 150H70.9426C70.2049 150 69.7131 149.508 69.7131 148.77V142.254C69.7131 141.516 70.2049 141.025 70.9426 141.025H127.623C128.361 141.025 128.852 141.516 128.852 142.254V148.77C128.852 149.508 128.238 150 127.623 150ZM72.1721 147.541H126.393V143.484H72.1721V147.541Z" fill="white"/>
<path d="M64.7951 29.3852H25.8197C24.3443 29.3852 23.2377 28.1557 23.2377 26.8033V20.2869C23.2377 18.8115 24.4672 17.7049 25.8197 17.7049H64.7951C66.2705 17.7049 67.377 18.9344 67.377 20.2869V26.8033C67.5 28.1557 66.2705 29.3852 64.7951 29.3852ZM25.8197 18.5656C24.8361 18.5656 24.0984 19.3033 24.0984 20.2869V26.8033C24.0984 27.7869 24.8361 28.5246 25.8197 28.5246H64.7951C65.7787 28.5246 66.5164 27.7869 66.5164 26.8033V20.2869C66.5164 19.3033 65.7787 18.5656 64.7951 18.5656H25.8197Z" fill="white"/>
<path d="M30.2459 26.3115C28.6475 26.3115 27.418 25.082 27.418 23.4836C27.418 21.8852 28.6475 20.6557 30.2459 20.6557C31.8443 20.6557 33.0738 21.8852 33.0738 23.4836C33.0738 25.082 31.7213 26.3115 30.2459 26.3115ZM30.2459 21.8852C29.3852 21.8852 28.6475 22.623 28.6475 23.4836C28.6475 24.3443 29.3852 25.082 30.2459 25.082C31.1066 25.082 31.8443 24.3443 31.8443 23.4836C31.8443 22.623 31.1066 21.8852 30.2459 21.8852Z" fill="white"/>
<path d="M36.6394 26.3115C35.041 26.3115 33.8115 25.082 33.8115 23.4836C33.8115 21.8852 35.041 20.6557 36.6394 20.6557C38.2377 20.6557 39.4672 21.8852 39.4672 23.4836C39.4672 25.082 38.2377 26.3115 36.6394 26.3115ZM36.6394 21.8852C35.7787 21.8852 35.041 22.623 35.041 23.4836C35.041 24.3443 35.7787 25.082 36.6394 25.082C37.5 25.082 38.2377 24.3443 38.2377 23.4836C38.2377 22.623 37.5 21.8852 36.6394 21.8852Z" fill="white"/>
<path d="M43.1557 26.3115C41.5574 26.3115 40.3279 25.082 40.3279 23.4836C40.3279 21.8852 41.5574 20.6557 43.1557 20.6557C44.7541 20.6557 45.9836 21.8852 45.9836 23.4836C45.9836 25.082 44.6312 26.3115 43.1557 26.3115ZM43.1557 21.8852C42.2951 21.8852 41.5574 22.623 41.5574 23.4836C41.5574 24.3443 42.2951 25.082 43.1557 25.082C44.0164 25.082 44.7541 24.3443 44.7541 23.4836C44.7541 22.623 44.0164 21.8852 43.1557 21.8852Z" fill="white"/>
<path d="M20.9017 28.5246C20.5328 28.5246 20.2869 28.2787 20.2869 27.9098V19.0574C20.2869 18.6885 20.5328 18.4426 20.9017 18.4426C21.2705 18.4426 21.5164 18.6885 21.5164 19.0574V27.9098C21.5164 28.2787 21.2705 28.5246 20.9017 28.5246Z" fill="white"/>
<path d="M64.7951 60.4918H25.8197C24.3443 60.4918 23.2377 59.2623 23.2377 57.9098V51.3934C23.2377 49.918 24.4672 48.8115 25.8197 48.8115H64.7951C66.2705 48.8115 67.377 50.041 67.377 51.3934V57.9098C67.5 59.3852 66.2705 60.4918 64.7951 60.4918ZM25.8197 49.6721C24.8361 49.6721 24.0984 50.4098 24.0984 51.3934V57.9098C24.0984 58.8934 24.8361 59.6312 25.8197 59.6312H64.7951C65.7787 59.6312 66.5164 58.8934 66.5164 57.9098V51.3934C66.5164 50.4098 65.7787 49.6721 64.7951 49.6721H25.8197Z" fill="white"/>
<path d="M30.2459 57.418C28.6475 57.418 27.418 56.1885 27.418 54.5902C27.418 52.9918 28.6475 51.7623 30.2459 51.7623C31.8443 51.7623 33.0738 52.9918 33.0738 54.5902C33.0738 56.1885 31.7213 57.418 30.2459 57.418ZM30.2459 53.1148C29.3852 53.1148 28.6475 53.8525 28.6475 54.7131C28.6475 55.5738 29.3852 56.3115 30.2459 56.3115C31.1066 56.3115 31.8443 55.5738 31.8443 54.7131C31.7213 53.7295 31.1066 53.1148 30.2459 53.1148Z" fill="white"/>
<path d="M36.6394 57.418C35.041 57.418 33.8115 56.1885 33.8115 54.5902C33.8115 52.9918 35.041 51.7623 36.6394 51.7623C38.2377 51.7623 39.4672 52.9918 39.4672 54.5902C39.4672 56.1885 38.2377 57.418 36.6394 57.418ZM36.6394 53.1148C35.7787 53.1148 35.041 53.8525 35.041 54.7131C35.041 55.5738 35.7787 56.3115 36.6394 56.3115C37.5 56.3115 38.2377 55.5738 38.2377 54.7131C38.2377 53.7295 37.5 53.1148 36.6394 53.1148Z" fill="white"/>
<path d="M43.1557 57.418C41.5574 57.418 40.3279 56.1885 40.3279 54.5902C40.3279 52.9918 41.5574 51.7623 43.1557 51.7623C44.7541 51.7623 45.9836 52.9918 45.9836 54.5902C45.9836 56.1885 44.6312 57.418 43.1557 57.418ZM43.1557 53.1148C42.2951 53.1148 41.5574 53.8525 41.5574 54.7131C41.5574 55.5738 42.2951 56.3115 43.1557 56.3115C44.0164 56.3115 44.7541 55.5738 44.7541 54.7131C44.7541 53.7295 44.0164 53.1148 43.1557 53.1148Z" fill="white"/>
<path d="M20.9017 59.7541C20.5328 59.7541 20.2869 59.5082 20.2869 59.1393V50.2869C20.2869 49.918 20.5328 49.6721 20.9017 49.6721C21.2705 49.6721 21.5164 49.918 21.5164 50.2869V59.1393C21.5164 59.3852 21.2705 59.7541 20.9017 59.7541Z" fill="white"/>
<path d="M64.7951 91.7213H25.8197C24.3443 91.7213 23.2377 90.4918 23.2377 89.1393V82.6229C23.2377 81.1475 24.4672 80.041 25.8197 80.041H64.7951C66.2705 80.041 67.377 81.2705 67.377 82.6229V89.1393C67.5 90.4918 66.2705 91.7213 64.7951 91.7213ZM25.8197 80.9016C24.8361 80.9016 24.0984 81.6393 24.0984 82.6229V89.1393C24.0984 90.123 24.8361 90.8607 25.8197 90.8607H64.7951C65.7787 90.8607 66.5164 90.123 66.5164 89.1393V82.6229C66.5164 81.6393 65.7787 80.9016 64.7951 80.9016H25.8197Z" fill="white"/>
<path d="M30.2459 88.6475C28.6475 88.6475 27.418 87.418 27.418 85.8197C27.418 84.2213 28.6475 82.9918 30.2459 82.9918C31.8443 82.9918 33.0738 84.2213 33.0738 85.8197C33.0738 87.418 31.7213 88.6475 30.2459 88.6475ZM30.2459 84.2213C29.3852 84.2213 28.6475 84.959 28.6475 85.8197C28.6475 86.6803 29.3852 87.418 30.2459 87.418C31.1066 87.418 31.8443 86.6803 31.8443 85.8197C31.7213 84.959 31.1066 84.2213 30.2459 84.2213Z" fill="white"/>
<path d="M36.6394 88.6475C35.041 88.6475 33.8115 87.418 33.8115 85.8197C33.8115 84.2213 35.041 82.9918 36.6394 82.9918C38.2377 82.9918 39.4672 84.2213 39.4672 85.8197C39.4672 87.418 38.2377 88.6475 36.6394 88.6475ZM36.6394 84.2213C35.7787 84.2213 35.041 84.959 35.041 85.8197C35.041 86.6803 35.7787 87.418 36.6394 87.418C37.5 87.418 38.2377 86.6803 38.2377 85.8197C38.2377 84.959 37.5 84.2213 36.6394 84.2213Z" fill="white"/>
<path d="M43.1557 88.6475C41.5574 88.6475 40.3279 87.418 40.3279 85.8197C40.3279 84.2213 41.5574 82.9918 43.1557 82.9918C44.7541 82.9918 45.9836 84.2213 45.9836 85.8197C45.9836 87.418 44.6312 88.6475 43.1557 88.6475ZM43.1557 84.2213C42.2951 84.2213 41.5574 84.959 41.5574 85.8197C41.5574 86.6803 42.2951 87.418 43.1557 87.418C44.0164 87.418 44.7541 86.6803 44.7541 85.8197C44.7541 84.959 44.0164 84.2213 43.1557 84.2213Z" fill="white"/>
<path d="M20.9017 90.8607C20.5328 90.8607 20.2869 90.6148 20.2869 90.2459V81.3934C20.2869 81.0246 20.5328 80.7787 20.9017 80.7787C21.2705 80.7787 21.5164 81.0246 21.5164 81.3934V90.2459C21.5164 90.6148 21.2705 90.8607 20.9017 90.8607Z" fill="white"/>
<path d="M89.1393 38.4836L93.9344 23.4836L96.7623 25.6967L99.3443 21.2705L101.311 23.9754L107.459 38.4836H89.1393Z" fill="white"/>
<path d="M107.459 38.7295H89.1393C89.0164 38.7295 88.8934 38.6066 88.7705 38.4836C88.6475 38.3607 88.6475 38.4836 88.6475 38.3607L93.4426 23.3607C93.4426 23.2377 93.5656 23.1148 93.6885 23.1148C93.8115 23.1148 93.9344 23.1148 94.0574 23.2377L96.5164 25.082L98.8525 21.1475C98.9754 21.0246 99.0984 20.9016 99.2213 20.9016C99.3443 20.9016 99.4672 21.0246 99.5902 21.1475L101.557 23.8525L107.828 38.3607C107.951 38.4836 107.828 38.3607 107.828 38.6066C107.828 38.8525 107.705 38.7295 107.459 38.7295ZM89.7541 37.9918H106.844L100.82 24.2213L99.3443 22.1312L97.1311 25.9426C97.0082 26.0656 97.0082 26.1885 96.7623 26.1885C96.6393 26.1885 96.5164 26.1885 96.3934 26.0656L94.0574 24.2213L89.7541 37.9918Z" fill="#29ABE2"/>
<path d="M135.984 38.2377L140.779 35.9016H143.115L147.172 33.3197L149.385 35.1639L154.303 34.5492L156.639 35.9016L160.82 37.2541L164.631 38.2377H135.984Z" fill="white"/>
<path d="M164.631 38.7295H135.984C135.738 38.7295 135.615 38.6066 135.492 38.3607C135.492 38.1148 135.492 38.2377 135.738 38.1148L140.533 35.5328C140.656 35.5328 140.656 35.5328 140.779 35.5328H142.992L146.926 32.9508C147.049 32.8279 147.295 32.8279 147.418 32.9508L149.508 34.6721L154.18 34.0574C154.303 34.0574 154.426 34.0574 154.426 34.0574L156.762 35.4098L164.631 37.9918C164.877 38.1148 165 37.9918 165 38.2377C165 38.4836 164.877 38.7295 164.631 38.7295ZM137.828 37.9918H161.68L156.516 36.2705L154.18 34.918L149.508 35.5328C149.385 35.5328 149.262 35.5328 149.139 35.4098L147.049 33.6885L143.361 36.1475C143.238 36.1475 143.238 36.2705 143.115 36.2705H140.902L137.828 37.9918Z" fill="#29ABE2"/>
<path d="M121.598 65.7787H118.279L114.344 64.918H111.393L108.197 65.7787H105.492L100.943 64.7951H97.2541H92.3361H88.1557L85.3279 65.6557H82.3771L80.6557 66.6393H77.459H76.8443L77.3361 69.3443C82.5 69.3443 116.066 69.3443 121.23 69.3443L121.721 65.6557H121.598V65.7787Z" fill="white"/>
<path d="M118.402 65.4098L114.344 64.4262H111.393H111.27L108.197 65.4098H105.615L101.066 64.4262H88.1557H88.0328L85.2049 65.2869H82.3771C82.2541 65.2869 82.2541 65.2869 82.1312 65.2869L80.4098 66.2705H76.8443V67.2541H80.5328C80.6557 67.2541 80.6557 67.2541 80.7787 67.2541L82.5 66.2705H85.3279H85.4508L88.2787 65.4098H100.943L105.492 66.3934H108.197H108.32L111.393 65.5328H114.221L118.279 66.5164H121.721V65.6557L118.402 65.4098Z" fill="#29ABE2"/>
<path d="M171.885 62.8279H170.41H168.566L165.984 63.6885L163.525 64.1803L160.943 64.918H157.746H154.426L151.598 66.1475H147.172H144.59L140.779 67.2541H137.336L132.295 68.2377H127.008L127.5 69.5902H127.746H171.516L171.885 69.2213V62.8279Z" fill="white"/>
<path d="M137.336 67.6229H140.779H140.902L144.59 66.5164H151.598C151.721 66.5164 151.721 66.5164 151.721 66.5164L154.549 65.2869H160.943H161.066L163.525 64.5492L166.107 64.0574L168.689 63.3197H171.885V62.3361H168.566H168.443L165.861 63.1967L163.279 63.6885L160.82 64.4262H154.303C154.18 64.4262 154.18 64.4262 154.18 64.4262L151.352 65.6557H144.344H144.221L140.533 66.7623H137.09L132.049 67.8689H126.762V68.7295H132.172L137.336 67.6229Z" fill="#29ABE2"/>
<path d="M121.721 98.2377H113.73L106.107 97.1311L96.8852 98.2377L93.9344 95.9016L91.2295 98.2377H76.9672L77.459 100.574H121.23L121.721 98.2377Z" fill="white"/>
<path d="M91.4754 98.6066L93.9344 96.5164L96.6393 98.6066C96.7623 98.7295 96.8852 98.7295 97.0082 98.7295L106.107 97.5L113.73 98.7295H121.721V97.8689H113.73L106.107 96.6393H105.984L97.0082 97.7459L94.1803 95.5328C94.0574 95.4098 93.8115 95.4098 93.5656 95.5328L90.9836 97.8689H76.9672V98.8525H91.2295C91.3525 98.7295 91.4754 98.7295 91.4754 98.6066Z" fill="#29ABE2"/>
<path d="M158.238 98.2377L154.18 96.2705L150.369 94.3033L148.648 86.8033L146.311 96.8852L143.361 97.6229L138.811 97.0082L136.967 93.5656L136.107 97.1311L131.68 99.3443H127.131L127.623 100.574H171.393L158.238 98.2377Z" fill="white"/>
<path d="M171.27 100.574L171.885 100.082L158.361 97.7459L154.426 95.9016L150.738 94.0574L149.016 86.8033C149.016 86.5574 148.77 86.4344 148.525 86.4344C148.279 86.4344 148.156 86.5574 148.033 86.8033L145.82 96.6393L143.361 97.2541L139.057 96.6393L137.336 93.3197C137.213 93.1967 137.09 93.0738 136.844 93.0738C136.598 93.0738 136.475 93.1967 136.475 93.4426L135.738 96.8852L131.557 98.9754H127.131V99.959H131.68C131.803 99.959 131.803 99.959 131.926 99.959L136.352 97.7459C136.475 97.7459 136.598 97.6229 136.598 97.5L137.213 95.1639L138.443 97.5C138.566 97.6229 138.689 97.7459 138.811 97.7459L143.484 98.3607H143.607L146.434 97.6229C146.557 97.6229 146.68 97.5 146.803 97.2541L148.648 89.0164L150 94.6721C150 94.7951 150.123 94.918 150.246 94.918L154.057 96.8852L158.115 98.8525H158.238L166.598 100.328" fill="#29ABE2"/>
<path d="M120.492 38.9754H78.0738C77.0902 38.9754 76.3524 38.2377 76.3524 37.2541V18.8115C76.3524 17.8279 77.0902 17.0902 78.0738 17.0902H120.492C121.475 17.0902 122.213 17.8279 122.213 18.8115V37.1312C122.213 38.1148 121.475 38.9754 120.492 38.9754ZM78.0738 18.0738C77.582 18.0738 77.2131 18.4426 77.2131 18.9344V37.2541C77.2131 37.7459 77.582 38.1148 78.0738 38.1148H120.492C120.984 38.1148 121.352 37.7459 121.352 37.2541V18.8115C121.352 18.3197 120.984 17.9508 120.492 17.9508H78.0738V18.0738Z" fill="white"/>
<path d="M170.656 38.9754H128.361C127.377 38.9754 126.639 38.2377 126.639 37.2541V18.8115C126.639 17.8279 127.377 17.0902 128.361 17.0902H170.656C171.639 17.0902 172.377 17.8279 172.377 18.8115V37.1312C172.377 38.1148 171.516 38.9754 170.656 38.9754ZM128.238 18.0738C127.746 18.0738 127.377 18.4426 127.377 18.9344V37.2541C127.377 37.7459 127.746 38.1148 128.238 38.1148H170.533C171.025 38.1148 171.393 37.7459 171.393 37.2541V18.8115C171.393 18.3197 171.025 17.9508 170.533 17.9508H128.238V18.0738Z" fill="white"/>
<path d="M120.492 69.959H78.0738C77.0902 69.959 76.3524 69.2213 76.3524 68.2377V49.918C76.3524 48.9344 77.0902 48.1967 78.0738 48.1967H120.492C121.475 48.1967 122.213 48.9344 122.213 49.918V68.2377C122.213 69.2213 121.475 69.959 120.492 69.959ZM78.0738 49.0574C77.582 49.0574 77.2131 49.4262 77.2131 49.918V68.2377C77.2131 68.7295 77.582 69.0984 78.0738 69.0984H120.492C120.984 69.0984 121.352 68.7295 121.352 68.2377V49.918C121.352 49.4262 120.984 49.0574 120.492 49.0574H78.0738Z" fill="white"/>
<path d="M170.656 69.959H128.361C127.377 69.959 126.639 69.2213 126.639 68.2377V49.918C126.639 48.9344 127.377 48.1967 128.361 48.1967H170.656C171.639 48.1967 172.377 48.9344 172.377 49.918V68.2377C172.377 69.2213 171.516 69.959 170.656 69.959ZM128.238 49.0574C127.746 49.0574 127.377 49.4262 127.377 49.918V68.2377C127.377 68.7295 127.746 69.0984 128.238 69.0984H170.533C171.025 69.0984 171.393 68.7295 171.393 68.2377V49.918C171.393 49.4262 171.025 49.0574 170.533 49.0574H128.238Z" fill="white"/>
<path d="M120.492 101.066H78.0738C77.0902 101.066 76.3524 100.328 76.3524 99.3443V80.9016C76.3524 79.918 77.0902 79.1803 78.0738 79.1803H120.492C121.475 79.1803 122.213 79.918 122.213 80.9016V99.2213C122.213 100.328 121.475 101.066 120.492 101.066ZM78.0738 80.1639C77.582 80.1639 77.2131 80.5328 77.2131 81.0246V99.3443C77.2131 99.8361 77.582 100.205 78.0738 100.205H120.492C120.984 100.205 121.352 99.8361 121.352 99.3443V80.9016C121.352 80.4098 120.984 80.041 120.492 80.041H78.0738V80.1639Z" fill="white"/>
<path d="M170.656 101.066H128.361C127.377 101.066 126.639 100.328 126.639 99.3443V80.9016C126.639 79.918 127.377 79.1803 128.361 79.1803H170.656C171.639 79.1803 172.377 79.918 172.377 80.9016V99.2213C172.377 100.328 171.516 101.066 170.656 101.066ZM128.238 80.1639C127.746 80.1639 127.377 80.5328 127.377 81.0246V99.3443C127.377 99.8361 127.746 100.205 128.238 100.205H170.533C171.025 100.205 171.393 99.8361 171.393 99.3443V80.9016C171.393 80.4098 171.025 80.041 170.533 80.041H128.238V80.1639Z" fill="white"/>
</g>
<defs>
<clipPath id="clip0_180_1493">
<rect width="198.566" height="150" fill="white"/>
</clipPath>
</defs>
</svg>
