<svg width="225" height="95" viewBox="0 0 225 95" fill="none" xmlns="http://www.w3.org/2000/svg">
<g clip-path="url(#clip0_180_1597)">
<path d="M47.2871 0C34.6313 0 22.7333 4.9259 13.7909 13.8683C-4.62433 32.2836 -4.62433 62.2937 13.7909 80.709C22.7333 89.6514 34.6313 94.5773 47.2113 94.5773C59.7913 94.5773 71.6892 89.6514 80.6316 80.709L145.881 15.4598C163.387 -2.04614 191.957 -2.04614 209.463 15.4598C217.95 23.9475 222.649 35.2392 222.649 47.2887C222.649 59.3382 217.95 70.6299 209.463 79.1176C200.975 87.6053 189.683 92.3038 177.634 92.3038C165.584 92.3038 154.293 87.6053 145.805 79.1176L145.35 78.6629C144.82 78.1324 143.986 77.2988 143.759 77.0714L131.103 64.2641C130.648 63.8094 129.891 63.8094 129.436 64.2641C128.981 64.7188 128.981 65.4766 129.436 65.9313L144.289 80.7848C153.232 89.7272 165.054 94.5773 177.71 94.5773C190.365 94.5773 202.263 89.6514 211.13 80.7848C229.545 62.3695 229.545 32.3594 211.13 13.9441C192.715 -4.54699 162.705 -4.54699 144.289 13.8683L79.0402 79.1176C70.5525 87.6053 59.2608 92.3038 47.2113 92.3038C35.1618 92.3038 23.8701 87.6053 15.3824 79.1176C6.97047 70.5541 2.27193 59.2624 2.27193 47.2887C2.27193 35.2392 6.97048 23.9475 15.4582 15.4598C23.9459 6.97205 35.2375 2.34928 47.2871 2.34928C59.3366 2.34928 70.6282 7.04783 79.1159 15.5355L79.4191 15.8387C79.7222 16.2176 80.3285 16.7481 80.48 16.8996L81.1621 17.5817L89.4982 25.9936H77.4487C76.8424 25.9936 76.312 26.5241 76.312 27.1304C76.312 27.7366 76.8424 28.2671 77.4487 28.2671H92.378C92.9842 28.2671 93.5147 27.7366 93.5147 27.1304V12.1253C93.5147 11.519 92.9842 10.9886 92.378 10.9886C91.7717 10.9886 91.2412 11.519 91.2412 12.1253V24.2506L80.8589 13.8683C71.765 4.9259 59.867 0 47.2871 0Z" fill="white"/>
<path d="M40.5736 66.0071C38.1485 66.0071 35.875 65.5524 33.7531 64.7188C31.6312 63.8094 29.8124 62.5969 28.2967 60.9296C26.7811 59.2624 25.5685 57.2163 24.6591 54.7154C23.7497 52.2903 23.295 49.4864 23.295 46.3035C23.295 43.1206 23.7497 40.3166 24.7349 37.8916C25.7201 35.4665 27.0084 33.3446 28.5999 31.6773C30.1913 30.0101 32.0859 28.7218 34.132 27.8882C36.254 27.0546 38.4517 26.5999 40.7252 26.5999C42.165 26.5999 43.4534 26.6757 44.5901 26.903C45.7269 27.0546 46.7878 27.2819 47.6214 27.5851C48.5308 27.8882 49.2129 28.1155 49.8949 28.4187C50.5012 28.7218 50.9559 28.9491 51.3348 29.1765L50.1223 32.3594C49.2129 31.8289 48.0761 31.2984 46.6363 30.7679C45.2722 30.2375 43.5291 30.0101 41.4072 30.0101C39.0579 30.0101 37.0118 30.389 35.193 31.2226C33.45 32.0563 31.9343 33.1172 30.7218 34.6329C29.5093 36.0728 28.5999 37.8158 27.9936 39.7861C27.3873 41.7565 27.0842 44.03 27.0842 46.455C27.0842 48.9559 27.3873 51.2294 27.9936 53.2755C28.5999 55.3217 29.5093 56.9889 30.646 58.4288C31.7828 59.8687 33.2226 60.9296 34.9656 61.6875C36.6329 62.4453 38.6032 62.8242 40.801 62.8242C43.226 62.8242 45.1964 62.5969 46.8636 62.1422C48.455 61.6875 49.7434 61.2328 50.577 60.7781L51.6379 63.961C51.4106 64.1125 50.9559 64.3399 50.3496 64.5672C49.7434 64.7946 48.9855 65.0219 48.0004 65.325C47.091 65.5524 45.9542 65.7797 44.7417 65.9313C43.4534 65.8555 42.0893 66.0071 40.5736 66.0071Z" fill="#E95420"/>
<path d="M58.0795 27.3577H61.7929V65.1735H58.0795V27.3577Z" fill="#E95420"/>
<path d="M163.616 67.3712C161.191 67.3712 158.917 66.9165 156.795 66.0829C154.673 65.1735 152.854 63.961 151.339 62.2937C149.823 60.6265 148.611 58.5804 147.701 56.0795C146.792 53.6545 146.337 50.8505 146.337 47.6676C146.337 44.4847 146.792 41.6807 147.777 39.2557C148.762 36.8306 150.051 34.7087 151.642 33.0414C153.233 31.3742 155.128 30.0859 157.174 29.2523C159.296 28.4187 161.494 27.964 163.767 27.964C165.207 27.964 166.495 28.0397 167.632 28.2671C168.769 28.4187 169.83 28.646 170.664 28.9491C171.573 29.2523 172.255 29.4796 172.937 29.7828C173.543 30.0859 173.998 30.3132 174.377 30.5406L173.164 33.7235C172.255 33.193 171.118 32.6625 169.678 32.132C168.314 31.6016 166.571 31.3742 164.449 31.3742C162.1 31.3742 160.054 31.7531 158.235 32.5867C156.492 33.4204 154.976 34.4813 153.764 35.997C152.551 37.4369 151.642 39.1799 151.036 41.1502C150.429 43.1206 150.126 45.3941 150.126 47.8192C150.126 50.32 150.429 52.5935 151.036 54.6396C151.642 56.6858 152.551 58.353 153.688 59.7929C154.825 61.2328 156.265 62.2937 158.008 63.0516C159.675 63.8094 161.645 64.1883 163.843 64.1883C166.268 64.1883 168.238 63.961 169.906 63.5063C171.497 63.0516 172.785 62.5969 173.619 62.1422L174.68 65.3251C174.453 65.4766 173.998 65.704 173.392 65.9313C172.785 66.1587 172.028 66.386 171.042 66.6892C170.133 66.9165 168.996 67.1439 167.784 67.2954C166.571 67.2954 165.131 67.3712 163.616 67.3712Z" fill="#E95420"/>
<path d="M211.132 47.6676C211.132 50.9263 210.601 53.7302 209.616 56.1553C208.631 58.5803 207.191 60.5507 205.296 62.1422C203.478 63.7336 201.28 64.9461 198.703 65.7797C196.127 66.6134 193.323 66.9923 190.291 66.9923C188.776 66.9923 187.184 66.9165 185.517 66.7649C183.85 66.6134 182.334 66.386 181.122 66.0071V29.4796C182.41 29.1007 183.85 28.8734 185.517 28.7218C187.184 28.5702 188.776 28.4945 190.291 28.4945C193.323 28.4945 196.127 28.8734 198.703 29.707C201.28 30.5406 203.478 31.6773 205.296 33.3446C207.115 34.936 208.555 36.9822 209.616 39.3314C210.677 41.6049 211.132 44.4089 211.132 47.6676ZM184.835 63.2789C185.062 63.2789 185.593 63.3547 186.502 63.5063C187.412 63.582 188.851 63.6578 190.822 63.6578C193.55 63.6578 195.899 63.2789 197.945 62.5211C199.992 61.7632 201.659 60.7023 203.099 59.3382C204.463 57.9741 205.524 56.3069 206.206 54.2607C206.888 52.2903 207.267 50.0169 207.267 47.5918C207.267 45.091 206.888 42.8932 206.206 40.9229C205.524 38.9525 204.463 37.2853 203.099 35.9212C201.735 34.5571 199.992 33.4961 197.945 32.7383C195.899 31.9805 193.55 31.6016 190.822 31.6016C188.851 31.6016 187.412 31.6773 186.502 31.7531C185.593 31.8289 185.062 31.9047 184.835 31.9805V63.2789Z" fill="#E95420"/>
</g>
<defs>
<clipPath id="clip0_180_1597">
<rect width="225" height="94.5773" fill="white"/>
</clipPath>
</defs>
</svg>
