<svg width="274" height="150" viewBox="0 0 274 150" fill="none" xmlns="http://www.w3.org/2000/svg">
<path d="M1.22949 136.475H271.967C271.967 143.238 266.434 148.77 259.672 148.77H13.5246C6.76228 148.77 1.22949 143.238 1.22949 136.475Z" stroke="white" stroke-width="2" stroke-miterlimit="10" stroke-linecap="round" stroke-linejoin="round"/>
<path d="M25.8196 13.2787H247.377" stroke="white" stroke-miterlimit="10" stroke-linecap="round" stroke-linejoin="round"/>
<path d="M25.8196 12.9098V136.475H247.377V12.9098C247.377 6.39344 242.09 1.22951 235.697 1.22951H38.1147H37.4999C31.1065 1.22951 25.8196 6.51639 25.8196 12.9098Z" stroke="white" stroke-width="2" stroke-miterlimit="10" stroke-linecap="round" stroke-linejoin="round"/>
<path d="M247.377 124.918C247.377 124.918 197.828 124.918 136.598 124.918C75.3688 124.918 25.8196 124.918 25.8196 124.918C25.8196 124.918 75.3688 124.918 136.598 124.918C197.828 124.918 247.377 124.918 247.377 124.918Z" stroke="white" stroke-miterlimit="10" stroke-linecap="round" stroke-linejoin="round"/>
<path d="M42.2952 31.8443H34.7952L33.5657 22.0082H43.5247L42.2952 31.8443Z" stroke="white" stroke-miterlimit="10" stroke-linecap="round" stroke-linejoin="round"/>
<path d="M84.0983 128.852H80.9016V132.049H84.0983V128.852Z" stroke="white" stroke-miterlimit="10" stroke-linecap="round" stroke-linejoin="round"/>
<path d="M57.9099 124.918V136.475" stroke="white" stroke-miterlimit="10" stroke-linecap="round" stroke-linejoin="round"/>
<path d="M38.6064 130.451H52.3769" stroke="white" stroke-miterlimit="10" stroke-linecap="round" stroke-linejoin="round"/>
<path d="M228.443 130.451H233.607" stroke="white" stroke-miterlimit="10" stroke-linecap="round" stroke-linejoin="round"/>
<path d="M237.049 130.451H242.213" stroke="white" stroke-miterlimit="10" stroke-linecap="round" stroke-linejoin="round"/>
<path d="M33.5657 36.1475H43.5247" stroke="white" stroke-miterlimit="10" stroke-linecap="round" stroke-linejoin="round"/>
<path d="M64.3032 132.049C65.1859 132.049 65.9016 131.334 65.9016 130.451C65.9016 129.568 65.1859 128.852 64.3032 128.852C63.4204 128.852 62.7048 129.568 62.7048 130.451C62.7048 131.334 63.4204 132.049 64.3032 132.049Z" stroke="white" stroke-miterlimit="10" stroke-linecap="round" stroke-linejoin="round"/>
<path d="M90.7378 132.049C91.6205 132.049 92.3361 131.334 92.3361 130.451C92.3361 129.568 91.6205 128.852 90.7378 128.852C89.855 128.852 89.1394 129.568 89.1394 130.451C89.1394 131.334 89.855 132.049 90.7378 132.049Z" stroke="white" stroke-miterlimit="10" stroke-linecap="round" stroke-linejoin="round"/>
<path d="M74.877 128.361H72.418L71.1885 130.451L72.418 132.541H74.877L76.1065 130.451L74.877 128.361Z" stroke="white" stroke-miterlimit="10" stroke-linecap="round" stroke-linejoin="round"/>
<path d="M216.025 128.852H212.828V132.049H216.025V128.852Z" stroke="white" stroke-miterlimit="10" stroke-linecap="round" stroke-linejoin="round"/>
<path d="M222.664 132.049C223.547 132.049 224.262 131.334 224.262 130.451C224.262 129.568 223.547 128.852 222.664 128.852C221.781 128.852 221.065 129.568 221.065 130.451C221.065 131.334 221.781 132.049 222.664 132.049Z" stroke="white" stroke-miterlimit="10" stroke-linecap="round" stroke-linejoin="round"/>
<path d="M206.803 128.361H204.344L203.115 130.451L204.344 132.541H206.803L208.033 130.451L206.803 128.361Z" stroke="white" stroke-miterlimit="10" stroke-linecap="round" stroke-linejoin="round"/>
<path d="M31.9671 127.623H29.2622V130.328H31.9671V127.623Z" fill="#F25022"/>
<path d="M35.0409 127.623H32.3359V130.328H35.0409V127.623Z" fill="#7FBA00"/>
<path d="M31.9671 130.574H29.2622V133.279H31.9671V130.574Z" fill="#00A4EF"/>
<path d="M35.0409 130.574H32.3359V133.279H35.0409V130.574Z" fill="#FFB900"/>
<path d="M203.852 111.27H75.3688C74.3852 111.27 73.6475 110.533 73.6475 109.549V33.6885C73.6475 32.7049 74.3852 31.9672 75.3688 31.9672H203.852C204.836 31.9672 205.574 32.7049 205.574 33.6885V109.549C205.574 110.41 204.713 111.27 203.852 111.27Z" stroke="white" stroke-width="1.4163" stroke-miterlimit="10" stroke-linecap="round" stroke-linejoin="round"/>
<path d="M73.6475 38.9754H205.574" stroke="white" stroke-miterlimit="10" stroke-linecap="round" stroke-linejoin="round"/>
<path d="M78.8113 36.6393C79.4903 36.6393 80.0408 36.0889 80.0408 35.4098C80.0408 34.7308 79.4903 34.1803 78.8113 34.1803C78.1323 34.1803 77.5818 34.7308 77.5818 35.4098C77.5818 36.0889 78.1323 36.6393 78.8113 36.6393Z" fill="#E95420"/>
<path d="M82.5 36.6393C83.1791 36.6393 83.7295 36.0889 83.7295 35.4098C83.7295 34.7308 83.1791 34.1803 82.5 34.1803C81.821 34.1803 81.2705 34.7308 81.2705 35.4098C81.2705 36.0889 81.821 36.6393 82.5 36.6393Z" fill="white"/>
<path d="M86.1885 36.6393C86.8675 36.6393 87.418 36.0889 87.418 35.4098C87.418 34.7308 86.8675 34.1803 86.1885 34.1803C85.5095 34.1803 84.959 34.7308 84.959 35.4098C84.959 36.0889 85.5095 36.6393 86.1885 36.6393Z" fill="white"/>
<g clip-path="url(#clip0_180_1844)">
<path d="M107.974 39H82V79H107.974V39Z" fill="white"/>
<path d="M87.6635 68.1202C89.1661 68.1202 90.3842 66.9024 90.3842 65.4002C90.3842 63.898 89.1661 62.6803 87.6635 62.6803C86.161 62.6803 84.9429 63.898 84.9429 65.4002C84.9429 66.9024 86.161 68.1202 87.6635 68.1202Z" fill="#E95420"/>
<path d="M99.0236 62.1474C100.526 62.1474 101.744 60.9296 101.744 59.4274C101.744 57.9252 100.526 56.7075 99.0236 56.7075C97.5211 56.7075 96.303 57.9252 96.303 59.4274C96.303 60.9296 97.5211 62.1474 99.0236 62.1474Z" fill="#E95420"/>
<path d="M93.8154 72.4166C91.8498 71.9947 90.2063 70.7402 89.2846 68.9639C88.5628 69.297 87.7411 69.3969 86.9526 69.2526C88.0742 71.9947 90.4395 73.9819 93.3379 74.6036C93.9708 74.7369 94.626 74.8035 95.2701 74.8035C94.7704 74.1485 94.4928 73.3491 94.4706 72.5276C94.2596 72.4943 94.0375 72.461 93.8154 72.4166Z" fill="#E95420"/>
<path d="M98.4018 75.1476C99.9044 75.1476 101.122 73.9299 101.122 72.4277C101.122 70.9255 99.9044 69.7077 98.4018 69.7077C96.8992 69.7077 95.6812 70.9255 95.6812 72.4277C95.6812 73.9299 96.8992 75.1476 98.4018 75.1476Z" fill="#E95420"/>
<path d="M102.2 71.4285C103.044 70.3628 103.643 69.0971 103.932 67.7538C104.432 65.4113 103.965 62.9578 102.644 60.9706C102.333 61.7144 101.8 62.3361 101.111 62.7691C101.844 64.1568 102.066 65.7555 101.744 67.2986C101.578 68.0536 101.3 68.7641 100.9 69.408C101.533 69.9187 101.989 70.6292 102.2 71.4285Z" fill="#E95420"/>
<path d="M87.4524 61.4924C87.519 61.4924 87.5856 61.4812 87.6634 61.4812C87.941 61.4812 88.2186 61.5146 88.4851 61.5701C88.9293 61.67 89.3513 61.8365 89.7289 62.0696C90.9615 60.3045 92.9381 59.2498 95.0814 59.2054C95.0925 58.9944 95.1258 58.7946 95.1591 58.5948C95.2813 58.0064 95.5367 57.4624 95.9031 56.9961C92.4829 56.7297 89.1514 58.4949 87.4524 61.4924Z" fill="#E95420"/>
</g>
<path d="M82.6228 87.541H110.656" stroke="#7FBA00" stroke-miterlimit="10" stroke-linecap="round" stroke-linejoin="round"/>
<path d="M114.098 87.541H118.771" stroke="white" stroke-miterlimit="10" stroke-linecap="round" stroke-linejoin="round"/>
<path d="M132.172 53.4836H151.352" stroke="#FF8C64" stroke-width="1.5" stroke-miterlimit="10" stroke-linecap="round" stroke-linejoin="round"/>
<path d="M155.656 53.4836H194.139" stroke="#FF8C64" stroke-width="1.5" stroke-miterlimit="10" stroke-linecap="round" stroke-linejoin="round"/>
<path d="M132.172 58.4016H148.893" stroke="#FF8C64" stroke-width="1.5" stroke-miterlimit="10" stroke-linecap="round" stroke-linejoin="round"/>
<path d="M153.197 58.4016H176.926" stroke="white" stroke-width="1.5" stroke-miterlimit="10" stroke-linecap="round" stroke-linejoin="round"/>
<path d="M132.172 63.3197H150.123" stroke="#FF8C64" stroke-width="1.5" stroke-miterlimit="10" stroke-linecap="round" stroke-linejoin="round"/>
<path d="M154.426 63.3197H185.533" stroke="white" stroke-width="1.5" stroke-miterlimit="10" stroke-linecap="round" stroke-linejoin="round"/>
<path d="M132.172 68.2377H155.041" stroke="#FF8C64" stroke-width="1.5" stroke-miterlimit="10" stroke-linecap="round" stroke-linejoin="round"/>
<path d="M159.344 68.2377H175.697" stroke="white" stroke-width="1.5" stroke-miterlimit="10" stroke-linecap="round" stroke-linejoin="round"/>
<path d="M132.172 73.1557H143.975" stroke="#FF8C64" stroke-width="1.5" stroke-miterlimit="10" stroke-linecap="round" stroke-linejoin="round"/>
<path d="M148.279 73.1557H181.844" stroke="white" stroke-width="1.5" stroke-miterlimit="10" stroke-linecap="round" stroke-linejoin="round"/>
<path d="M132.172 78.0738H148.893" stroke="#FF8C64" stroke-width="1.5" stroke-miterlimit="10" stroke-linecap="round" stroke-linejoin="round"/>
<path d="M153.197 78.0738H186.762" stroke="white" stroke-width="1.5" stroke-miterlimit="10" stroke-linecap="round" stroke-linejoin="round"/>
<defs>
<clipPath id="clip0_180_1844">
<rect width="25.974" height="40" fill="white" transform="translate(82 39)"/>
</clipPath>
</defs>
</svg>
