<svg width="258" height="90" viewBox="0 0 258 90" fill="none" xmlns="http://www.w3.org/2000/svg">
<path d="M58.4387 0H0V90H58.4387V0Z" fill="#E95420"/>
<path d="M12.7452 65.5384C16.1323 65.5384 18.8781 62.7926 18.8781 59.4054C18.8781 56.0183 16.1323 53.2725 12.7452 53.2725C9.3581 53.2725 6.6123 56.0183 6.6123 59.4054C6.6123 62.7926 9.3581 65.5384 12.7452 65.5384Z" fill="white"/>
<path d="M38.2862 52.0909C41.6733 52.0909 44.4191 49.3451 44.4191 45.958C44.4191 42.5709 41.6733 39.8251 38.2862 39.8251C34.8991 39.8251 32.1533 42.5709 32.1533 45.958C32.1533 49.3451 34.8991 52.0909 38.2862 52.0909Z" fill="white"/>
<path d="M26.5774 75.1936C24.4099 74.7347 22.3717 73.7996 20.6101 72.4559C18.8486 71.1122 17.408 69.3935 16.3926 67.4244C14.7511 68.1714 12.9199 68.3964 11.1465 68.069C12.6631 71.7852 15.2588 74.9616 18.5986 77.1881C21.9383 79.4146 25.8687 80.589 29.8824 80.5596C28.7572 79.087 28.1267 77.2962 28.0813 75.4434C27.5767 75.386 27.0745 75.301 26.5774 75.1936Z" fill="white"/>
<path d="M36.9049 81.354C40.292 81.354 43.0378 78.6082 43.0378 75.2211C43.0378 71.834 40.292 69.0882 36.9049 69.0882C33.5178 69.0882 30.772 71.834 30.772 75.2211C30.772 78.6082 33.5178 81.354 36.9049 81.354Z" fill="white"/>
<path d="M45.4384 72.9703C48.0661 69.6528 49.5778 65.5895 49.7573 61.3612C49.9367 57.1329 48.7748 52.9561 46.4376 49.4279C45.728 51.0914 44.5269 52.4982 42.9952 53.4599C44.2193 55.7772 44.8171 58.3739 44.7295 60.9932C44.6418 63.6124 43.8718 66.1634 42.4956 68.3937C43.9362 69.5693 44.9666 71.1717 45.4384 72.9703Z" fill="white"/>
<path d="M12.2734 50.6095C12.4283 50.6095 12.5832 50.597 12.7406 50.597C14.383 50.599 15.9926 51.0574 17.3896 51.9211C18.7419 49.9683 20.5399 48.3657 22.6346 47.2457C24.7293 46.1258 27.0606 45.5209 29.4356 45.4809C29.5345 43.6724 30.1829 41.9373 31.2942 40.5071C27.4928 40.2192 23.6877 41.0156 20.3208 42.8039C16.954 44.5921 14.1635 47.2988 12.2734 50.6095V50.6095Z" fill="white"/>
<path d="M86.8797 82.8704C84.17 82.8704 81.8626 82.454 79.9574 81.6213C78.1593 80.877 76.5708 79.7037 75.3308 78.2039C74.1276 76.7033 73.2543 74.966 72.7678 73.1052C72.2233 71.0583 71.9553 68.9478 71.9709 66.8299V41.1516H75.9679V66.3128C75.9296 68.2769 76.1985 70.2348 76.7648 72.1159C77.2134 73.6 77.9654 74.9746 78.9731 76.1529C79.9036 77.205 81.0767 78.0145 82.3905 78.5111C85.2897 79.5304 88.4497 79.5304 91.3488 78.5111C92.6627 78.0145 93.8357 77.205 94.7663 76.1529C95.7728 74.9739 96.5247 73.5995 96.9746 72.1159C97.5409 70.2348 97.8097 68.2769 97.7715 66.3128V41.1516H101.769V66.8424C101.784 68.9603 101.516 71.0708 100.972 73.1177C100.49 74.9769 99.6225 76.714 98.426 78.2163C97.1864 79.7156 95.599 80.8888 93.802 81.6338C91.8984 82.4582 89.591 82.8704 86.8797 82.8704Z" fill="white"/>
<path d="M115.051 53.35C115.717 52.8404 116.788 52.2999 118.261 51.7287C119.933 51.1265 121.701 50.8369 123.478 50.8743C125.494 50.8369 127.495 51.2393 129.341 52.0535C131.014 52.8134 132.494 53.9415 133.67 55.3535C134.889 56.839 135.801 58.5516 136.353 60.3922C136.98 62.4644 137.287 64.6201 137.265 66.7849C137.3 69.052 136.932 71.3073 136.176 73.4449C135.509 75.3039 134.466 77.005 133.11 78.4412C131.79 79.8245 130.184 80.9037 128.404 81.6038C126.456 82.3503 124.384 82.7183 122.298 82.688C119.587 82.688 117.348 82.5114 115.581 82.1584C114.105 81.8808 112.649 81.5069 111.222 81.0392V36.9723L115.051 36.2653V53.35ZM115.051 78.3937C115.905 78.6487 116.778 78.8358 117.662 78.9533C119.176 79.1513 120.702 79.2398 122.228 79.2181C125.529 79.2181 128.181 78.1472 130.185 76.0055C132.188 73.8638 133.188 70.7902 133.183 66.7849C133.191 65.1685 133.012 63.5565 132.651 61.981C132.341 60.5674 131.761 59.2271 130.942 58.034C130.143 56.9033 129.082 55.9835 127.849 55.3535C126.574 54.6873 124.991 54.3542 123.103 54.3542C122.232 54.351 121.362 54.4398 120.51 54.619C119.728 54.7844 118.96 55.0108 118.214 55.296C117.073 55.7285 116.001 56.3243 115.031 57.0647L115.051 78.3937Z" fill="white"/>
<path d="M168.264 80.9393C167.125 81.2541 165.592 81.6071 163.667 81.9985C161.336 82.4269 158.968 82.6244 156.597 82.5881C154.319 82.5881 152.414 82.255 150.882 81.5888C149.423 80.9786 148.145 80.0051 147.169 78.7609C146.183 77.4456 145.491 75.9333 145.141 74.3268C144.714 72.452 144.507 70.5338 144.524 68.611V51.5239H148.354V67.3745C148.324 69.2118 148.481 71.0474 148.823 72.8529C149.138 74.3517 149.649 75.56 150.357 76.4777C151.059 77.3966 152.014 78.0911 153.105 78.4762C154.424 78.9209 155.811 79.1306 157.202 79.0957C158.778 79.11 160.354 79.0115 161.916 78.8009C163.248 78.6027 164.093 78.4254 164.449 78.2688V51.5239H168.279L168.264 80.9393Z" fill="white"/>
<path d="M177.432 52.5831C178.571 52.2716 180.103 51.9186 182.029 51.5239C184.36 51.0955 186.728 50.898 189.098 50.9343C191.417 50.9343 193.352 51.2674 194.904 51.9336C196.374 52.5388 197.655 53.5253 198.616 54.7914C199.578 56.1203 200.25 57.636 200.59 59.2406C200.997 61.1165 201.194 63.0318 201.179 64.9513V81.9785H197.352V66.2004C197.379 64.3584 197.23 62.5181 196.907 60.7045C196.688 59.3944 196.185 58.148 195.434 57.0522C194.755 56.1173 193.81 55.4087 192.723 55.0187C191.604 54.6057 190.199 54.4 188.509 54.4017C186.942 54.3891 185.376 54.4918 183.825 54.709C182.509 54.9038 181.655 55.0804 181.262 55.2386V81.986H177.432V52.5831Z" fill="white"/>
<path d="M213.687 51.5239H225.83V54.7714H213.687V70.9768C213.651 72.3956 213.8 73.813 214.129 75.1936C214.341 76.1172 214.776 76.9748 215.396 77.6917C215.931 78.2738 216.626 78.6841 217.394 78.8709C218.243 79.075 219.114 79.174 219.987 79.1656C221.596 79.1656 222.892 78.9791 223.874 78.6061C224.666 78.3213 225.434 77.9763 226.173 77.5743L227.117 80.7569C226.566 81.1117 225.603 81.5139 224.229 81.9635C222.782 82.4272 221.27 82.6565 219.75 82.643C217.865 82.643 216.283 82.3932 215.004 81.8936C213.792 81.4464 212.731 80.6672 211.941 79.6453C211.126 78.5335 210.572 77.2529 210.32 75.8981C209.98 74.1512 209.82 72.3741 209.842 70.5946V42.5681L213.672 41.8611L213.687 51.5239Z" fill="white"/>
<path d="M255.641 80.9393C254.498 81.2541 252.966 81.6071 251.044 81.9985C248.712 82.4268 246.343 82.6243 243.972 82.5881C241.694 82.5881 239.789 82.255 238.256 81.5888C236.798 80.9777 235.52 80.0043 234.544 78.7609C233.559 77.45 232.867 75.943 232.513 74.3417C232.084 72.4673 231.876 70.5489 231.894 68.626V51.5389H235.723V67.3745C235.694 69.2119 235.852 71.0475 236.195 72.8529C236.51 74.3517 237.021 75.56 237.727 76.4776C238.43 77.3959 239.384 78.0902 240.475 78.4761C241.792 78.9213 243.177 79.1327 244.567 79.1007C246.143 79.115 247.718 79.0165 249.281 78.8059C250.613 78.6094 251.457 78.432 251.814 78.2738V51.5239H255.646L255.641 80.9393Z" fill="white"/>
</svg>
