<svg width="909.2" height="790.3" viewBox="0 0 909.2 790.3" xmlns="http://www.w3.org/2000/svg" xmlns:usvg="https://github.com/RazrFalcon/usvg" usvg:version="0.8.0">
    <defs/>
    <path fill="#ec673b" d="M 750.3 266.5 C 748.1 264.1 745.2 263.3 741.5 262.3 L 740.4 262 C 736.5 260.9 731.5 259.6 725.1 256.4 C 713.5 250.4 699.5 241.4 698.1 232.4 C 697.7 229.9 699.4 226.7 702.1 222.2 C 708 212 716.8 196.6 710.7 167.6 C 705.6 143.6 682.7 132 660.6 120.8 C 650.6 115.7 641.1 110.9 633.4 105.1 C 620.8 95.6 619.2 92.1 615.8 85.1 L 615.6 84.8 C 614.2 81.9 612.5 78.2 609.6 73.3 C 596.2 50.7 544.4 37.9 544 37.8 L 542.3 37.4 L 541.7 39 C 541.1 40.7 542.2 41.3 544.2 42.3 L 544.3 42.4 C 574.4 58.7 596 78.8 605.2 98.8 C 611.6 112.8 627.7 120.9 644.8 129.5 L 645.6 129.9 C 654.4 134.3 663.5 138.9 671.5 144.5 C 685.5 154.3 694.1 170.1 695.2 187.8 C 695.9 199.9 692.8 210.8 686.9 216.8 C 686.4 209.8 684.5 200 678.8 190.1 C 670 175.1 648.5 170.9 625.7 166.3 L 623.9 165.9 C 615.3 164.1 606.5 162.3 598.5 159.9 C 570.7 151.4 557.4 143.9 546.8 119.6 C 539.7 103.1 526.6 92.5 516.9 86.4 C 506 79.6 495.7 76.2 492.1 76.1 C 490.9 76.1 490.1 76.5 489.6 77.4 C 488.7 79.3 490.2 80.4 496.3 85.3 L 496.4 85.4 C 506.6 93.6 527.8 110.7 533.3 127.3 C 539.7 146.9 550.6 166.4 587 176.2 C 596.1 178.7 605.6 180.3 614.8 181.8 L 616.1 182 C 638.3 185.7 657.4 188.8 664.4 201.6 C 672.4 216.1 670.9 224.2 658.3 233.5 C 654.9 233.6 650.8 233.2 645.6 232.1 C 624.6 227.5 616.9 227.6 602.7 228.2 C 588.8 228.7 582 231.1 581.2 235.6 C 579.8 243.8 600.5 251.6 600.7 251.7 L 601.8 252.1 C 606.2 253.9 612.1 256.2 619.2 257.8 C 615.2 260.1 610.6 262.5 604.3 265.7 C 593.7 271.1 579.9 275.5 566.6 279.9 L 565.9 280.1 C 556.7 283.1 548 285.9 540.8 288.8 C 536.8 287 532.7 285.9 528.2 285.4 C 514.8 283.9 504.7 286.5 498 293.2 C 493.9 297.3 491.3 303 490.4 309.9 C 480.3 314 470.8 318.8 463.4 323.4 C 448 333 436.3 343.4 426.9 351.8 L 425.9 352.7 C 416.7 360.8 408.7 367.8 400 372.1 C 388.6 377.7 367.1 383.4 348.1 388.4 L 343.4 389.6 C 333 392.3 323.2 394.9 315.6 397.3 C 304.9 400.7 294.4 406.4 285.2 413.7 C 277.4 414.5 266.8 416.5 259.5 421 C 248.5 427.7 239.6 443.9 236.2 450.6 C 231 461 226.5 473.6 227.9 478.5 C 228.4 480.2 229.7 481.2 231.3 481.2 C 236.6 481.1 239.2 476.1 241.2 472.4 C 242.7 469.4 243.4 468.6 243.7 468.6 C 244.8 468.6 245.4 469.4 247.8 474.2 C 248.7 476.1 250 478.5 251.9 481.9 C 251.2 490 251 497.9 250.8 505.7 L 250.8 506.2 C 250.6 517 250.3 527.2 248.7 534.9 C 247.9 538.5 246.8 542.3 245.3 546.3 C 208.5 544.7 201.4 546.5 197.7 553.2 C 194.5 559 199 571.4 206.7 591.3 C 198.8 598.4 193.8 607.7 191.9 618.9 C 190 630 182.5 656.6 175.1 673.1 L 174.2 675 C 172.8 678 171.5 680.9 170.5 683.6 L 170.4 683.7 C 166.2 693.5 162.9 701.2 159.3 702.4 C 153.6 704.3 153.2 708.7 152.9 712.2 C 152.9 712.5 152.8 712.9 152.8 713.2 C 152.8 713.8 152.7 714.4 152.6 714.9 C 152.5 715.4 150.8 716.1 143.1 716.3 L 141.8 716.3 C 139.1 716.4 136.4 716.5 134.2 717 C 125 719 124.6 740.6 124.6 740.8 L 124.6 740.9 C 124.8 742.1 125.3 742.9 126.2 743.4 C 126.9 743.8 127.7 744 128.8 744 C 133.1 744 141.8 740.7 154.6 734.1 C 174.1 724.6 181.7 707.2 192.1 683 L 193.8 679 C 198.4 668.3 202.2 658.3 205.2 650 L 205.3 649.6 C 209.3 638.8 212.9 629.3 217.1 620.7 C 223.5 642.3 226.8 665.5 224.5 673.2 C 221.7 682.5 222.6 685 227.2 688.7 C 227.3 688.8 227.3 688.9 227.4 688.9 C 227.3 690.2 223.5 693.5 221.1 695.4 L 220.4 696 C 219.4 696.8 218.1 697.9 217 698.9 C 212.4 703 213.5 714.1 216 720.6 C 216.9 723 218.9 727.1 222.3 727.1 C 229.5 727 238.5 710.5 243.9 696.4 C 248.7 684.1 246.8 671.8 245 659.9 L 244.8 658.5 C 244.3 654.9 243.7 651.5 243.5 648 C 242.8 640 240.3 624.5 235.7 600.4 C 241.2 597.4 247.6 595 254.3 592.5 L 256.4 591.7 C 260.6 590.2 265 588.6 269.1 586.8 C 280.1 589.4 301.4 593.4 322.5 591.6 C 346.5 589.6 358.5 573.9 359.3 543.7 C 359.6 531.2 353.6 518 346.9 505.6 C 352.6 493.8 356.8 482.7 359.3 472.7 C 363.7 472.7 368.8 472.9 374.6 473.1 L 378.9 473.3 C 383.2 473.5 387.9 473.4 393.3 472.9 C 396.1 474.3 399.3 475.4 403 476.4 C 413.9 479.3 424 480.5 433.6 480.5 C 465.4 480.5 490.3 467 509.7 456.4 L 510.2 456.1 C 514.2 453.9 518 451.8 521.5 450.1 C 530.3 445.8 536.9 444.6 541.6 446.5 C 547.1 448.6 549.5 454.8 551.6 460.3 L 552.1 461.5 C 554.4 467.5 557.8 471.3 562.1 472.8 C 566.8 474.5 572.3 473.5 579.1 469.6 C 583.3 467.2 590 462.8 597.2 458.1 L 602.7 454.5 C 611.8 448.7 623.7 440.9 628.6 438.7 C 624.9 447.6 603.8 480 596.9 483.7 C 596.8 483.7 596.7 483.8 596.4 484 C 587.3 489.1 576.3 496.4 575.2 501.8 C 574.9 503.1 575.2 504.3 576 505.3 C 576.1 505.4 576.1 505.4 576.1 505.5 C 575.2 506.6 569.1 508 561.2 507.3 C 553.1 506.7 543.4 517 541.8 523.7 C 541.1 526.7 542.1 529.1 544.5 530 C 551 532.4 576.7 533.4 589.2 517.8 C 592.4 513.9 596 509.6 600.2 504.7 L 600.3 504.6 C 609.8 493.4 620.7 480.6 630.4 465.6 C 640 450.8 647.2 438.8 651 429.5 C 654.5 439.2 655.6 452.1 656.4 460.1 L 656.4 460.4 C 656.6 461.6 656.7 462.7 656.7 463.6 L 656.7 464.1 C 656.8 465.5 657 466.7 657.2 467.9 C 657.3 468.6 657.4 469.2 657.4 469.8 C 658.5 479.1 658.5 481.2 655.1 482.8 L 654.4 483.1 C 648.8 485.6 644.8 487.4 647.7 494.3 C 648.5 496.4 648.2 497 644.6 499.1 C 643.2 499.8 641.9 500.7 640.8 501.6 C 636.7 504.7 633.7 516.7 635.3 523.6 C 636.3 527.9 638.8 529.1 640.2 529.4 C 641.9 529.8 643.8 529.1 646.3 527.4 C 655.6 521 672.9 497.7 675.2 483.1 C 677.3 470.4 664.6 402.9 661.2 394.8 C 656.9 384.6 649.3 380.8 639.7 384.2 C 638.6 384.6 636.2 385.8 632.9 387.4 L 630.5 388.6 C 621.2 393.2 599.8 403.8 587.5 407.1 C 587.5 404 587.5 400.5 587.6 396.8 L 587.6 396.6 C 587.7 392.6 587.8 389 587.8 385.3 C 588 385 588.2 384.6 588.4 384.2 C 588.5 384 588.6 383.8 588.8 383.6 C 595.2 372 603.6 359.1 610.3 348.7 L 612.6 345.2 C 614.7 342.1 616.6 339.2 617.9 337.1 C 629 319.9 652.8 300.6 677 297 C 689 295.2 704.8 296.1 720.2 299.4 C 735.7 302.8 741.9 300.8 749.1 295.4 C 752 293.3 753.7 292.5 755 291.9 C 757.2 290.8 758.4 290.1 759.2 286.8 C 761.1 281.1 753.7 270.1 750.3 266.5 Z M 667.6 199.8 C 659.7 185.5 638.9 182 616.9 178.3 L 616.5 178.2 C 606.2 176.5 597 174.8 587.8 172.4 C 553.2 163.1 542.9 144.7 536.9 126.2 C 530.9 108.1 508.3 90 498.6 82.2 C 498.4 82 498.2 81.8 497.9 81.7 C 509.1 85.7 532.9 97.9 543 121.3 C 554.1 147.1 568 155 597.1 163.9 C 606.1 166.6 615.7 168.6 624.7 170.3 L 625.5 170.5 C 647 174.9 667.3 179 675 192.3 C 681.2 202.9 682.6 213.4 682.7 220.3 C 676.4 225.9 671.5 230 666 232.1 C 674.8 223.1 675.2 213.7 667.6 199.8 Z M 658.7 235.7 L 658.7 235.7 L 658.7 235.7 L 658.7 235.7 Z M 658.5 238.2 C 658.8 238 659.1 237.8 659.4 237.6 C 668.5 236.8 674.9 232.3 682.5 225.8 C 682.2 229.3 681.6 232.4 680.9 234.4 C 680.4 235.7 676.8 241.9 672.5 245.1 C 666.2 250 657.1 253.9 649.5 255.2 C 643.3 256.2 637 256.4 630.7 255.9 C 636.2 252.6 641.4 249.3 647.3 245.6 C 649 244.5 650.7 243.5 652.5 242.3 L 655.6 240.3 C 656.6 239.6 657.6 238.9 658.5 238.2 Z M 584.8 236.5 C 584.8 236.4 585.5 233.1 602.6 232.3 C 606.5 232.1 609.7 232 612.8 232 C 621 232 628.9 232.7 644.5 236.2 C 647.2 236.8 649.9 237.2 652.5 237.4 L 650.4 238.7 C 640.4 245.1 633.1 249.8 624.3 254.9 C 614.9 253.3 607.5 250.3 603 248.5 L 601.9 248.1 C 591.6 244.2 584.4 238.7 584.8 236.5 Z M 522.9 387 C 520.4 382.5 517.7 377.8 515.3 373.2 C 512.8 368.4 510.1 363.3 507.8 358.5 C 508.7 355.2 509.5 351.9 510.4 348.7 C 512.8 341.1 514.6 334.1 515.8 328.8 C 518.5 317.6 520.7 308.8 526.2 302.5 C 534 300.7 541.6 299.5 548.9 299.1 C 558.5 306.8 571.7 322.2 580.6 352.7 C 581.6 356.1 582.4 359.9 583 364.1 C 569.3 375.9 545 382.3 522.9 387 Z M 518.8 387.9 C 514.6 388.8 510.3 389.6 505.7 390.4 C 503.9 390.7 502.2 391.1 500.4 391.4 C 501.9 385.7 503.1 380.1 504.2 374.6 L 504.6 372.5 C 505.2 369.8 505.7 367.2 506.3 364.6 C 509.8 371.5 514 379.4 518.8 387.9 Z M 505.1 352.8 C 498.6 338.9 494.7 327.9 494 321.6 C 493.6 318.3 493.5 315.5 493.7 312.8 C 502.1 309.4 511.2 306.3 520.2 303.9 C 516.2 310.4 514.3 318.6 512 327.8 C 511.7 328.9 511.4 330 511.2 331.1 C 509.9 336 508.5 341.6 506.7 347.5 C 506.1 349.2 505.6 351 505.1 352.8 Z M 532.6 297.1 C 534.8 295.8 537.3 294.6 540.1 293.4 C 541.5 294.1 542.7 294.8 543.9 295.5 C 540.4 295.9 536.7 296.4 532.6 297.1 Z M 584.5 351.5 C 581.3 340.8 572.3 315 555.3 299 C 564 299.1 571.2 300.5 577.2 303.2 C 587.2 307.7 593.2 316 595.1 327.8 C 597.2 341.3 594.4 352 586.5 360.6 C 586 357.6 585.3 354.6 584.5 351.5 Z M 500.4 296.1 C 505 291.5 511.9 289.1 520.9 289.1 C 523 289.1 525.1 289.2 527.3 289.4 C 529.8 289.6 532.5 290.2 535.1 291.2 C 532.9 292.3 531 293.4 529.2 294.5 C 527.2 295.9 525.4 297.4 524 298.9 C 514.6 301.1 504.6 304.2 494.3 308.2 C 495.3 303.2 497.4 299.1 500.4 296.1 Z M 251 472.8 C 248.5 467.7 247.1 464.9 243.3 464.9 C 240.3 464.9 238.7 468.1 237.2 470.8 C 235.8 473.6 234 477 231.3 477.3 C 230.6 474.3 233.4 464.3 239.3 452.4 C 246 439 253.9 428.8 261.1 424.4 C 265.4 421.8 271.8 419.8 279.2 418.6 C 273.1 424.3 268.1 430.4 264.3 437 C 258.1 447.2 254.3 459.4 252.3 475.2 C 251.8 474.4 251.4 473.5 251 472.8 Z M 252.4 535.8 C 254.1 527.9 254.4 517.8 254.6 506.4 C 254.7 499.1 254.9 493.3 255.2 487.9 C 258.9 493.5 263.2 498 267.3 502.2 L 268.4 503.4 C 273.1 508.3 278 513.4 282.2 520.3 C 286.6 527.6 287 536.2 283.3 542.3 C 281 546.2 277.5 548.2 273.4 547.9 C 265.7 547.3 258.7 547 252.6 546.7 L 249.1 546.5 C 250.4 543.2 251.5 539.6 252.4 535.8 Z M 200.9 555.2 C 202.7 552 205.5 549.8 224.2 549.8 C 229.3 549.8 235.6 550 243.3 550.2 C 235.6 567.6 223.1 579.9 213.8 585.7 C 212.4 586.6 211 587.5 209.7 588.5 C 204.7 576 198.5 559.5 200.9 555.2 Z M 201.9 647.5 L 201.3 649.1 C 200.7 650.7 200.1 652.3 199.5 654 C 196.6 661.7 193.6 669.7 190 678 L 188.3 682 C 178.3 705.3 171.1 722.2 152.8 731.1 C 134.9 739.7 129.7 740.4 128.3 740.4 C 128.3 735.5 130.5 722.2 134.8 721.2 C 137 720.7 140 720.6 143 720.5 C 148.8 720.4 155.4 720.3 156.3 715.9 C 156.5 714.9 156.6 713.8 156.7 712.8 L 156.7 712.7 C 157 709.5 157.2 707.5 160.4 706.4 C 165.9 704.6 169.1 697 174 685.3 L 175.3 682.3 C 176.3 680 177.4 677.5 178.6 674.8 C 186.2 657.9 193.8 630.9 195.7 619.7 C 197.4 609.8 201.4 601.8 208.1 595.4 C 210 600.5 212.4 606.8 214.4 613.1 C 214.6 613.6 214.7 614.1 214.9 614.7 C 215 615.1 215.2 615.5 215.3 615.8 C 210.2 625.1 206.3 635.5 201.9 647.5 Z M 239.4 648.9 C 239.7 652.4 240.2 655.7 240.7 659.3 L 240.9 660.8 C 242.7 672.2 244.5 684 240.1 695.6 C 233.1 713.7 225.1 723.8 222.3 723.8 C 222.1 723.7 220.9 722.9 219.8 719.9 C 217.3 713.5 217.2 704.8 219.6 702.6 C 220.1 702.1 220.7 701.6 221.3 701.2 C 221.9 700.7 222.5 700.2 223 699.7 C 227.1 696.3 231.4 692.8 231.4 689.4 C 231.4 688.8 231.2 687.3 229.7 686.1 C 226.6 683.7 225.8 683 228.3 674.8 C 231.1 665.6 227.3 639.9 219.7 616.1 C 220.1 615.5 220.5 614.8 220.8 614.2 L 221.3 613.3 C 223.5 609.6 227 606.2 231.9 603.1 C 233.8 612.6 238.4 637.6 239.4 648.9 Z M 255.2 588.6 C 248.7 591 241.4 593.7 235.1 596.9 C 234.6 594.4 234 591.7 233.7 589.5 L 233 586 C 232.7 584.3 233 583.1 234.2 582.1 C 235.6 580.9 238.3 580.2 241.6 580.2 C 244.2 580.2 248.2 580.6 252.9 582.4 C 255.6 583.5 259 584.6 262.8 585.7 C 260.2 586.7 257.6 587.6 255.2 588.6 Z M 355.3 544.3 C 354.6 572.1 343.8 586.5 322.2 588.2 C 304.3 589.7 286 586.8 275.2 584.6 C 278.5 583 281.3 581.4 283.9 579.7 C 286.3 578 288.6 576.5 290.9 575 C 306.6 564.8 319 556.8 340 519.4 C 341.7 516.5 343.2 513.6 344.7 510.8 C 350.3 521.2 355.6 533.2 355.3 544.3 Z M 344.6 501.9 C 339.9 493.2 335.9 485.8 336.5 481.7 C 337.4 475.6 341.8 473.6 355.1 473.4 C 352.8 482.3 349.3 491.9 344.6 501.9 Z M 332.5 481.2 C 331.7 486.7 336.1 494.7 341.1 504 C 341.5 504.7 341.9 505.5 342.4 506.3 C 340.6 509.9 338.7 513.6 336.6 517.3 C 316.2 553.7 304.2 561.5 289 571.5 L 288.9 571.6 C 286.6 573.1 284.3 574.6 281.8 576.3 C 278.4 578.6 274.3 580.8 268.9 583.2 C 262.4 581.6 257.3 579.9 254.2 578.7 C 246.8 575.9 236.6 574.8 231.5 579.1 C 229.3 580.9 228.4 583.6 228.9 586.8 L 229.6 590.3 C 230 592.4 230.5 595.1 231.1 598.1 L 231.3 599 C 225.2 602.6 220.9 606.6 218.1 611.2 C 216.1 605.2 213.7 599.1 211.5 593.2 L 211.3 592.7 C 212 592.1 212.8 591.6 213.5 591 C 214.3 590.4 215.1 589.8 215.8 589.2 C 225.9 583 239.5 569.6 247.5 550.5 C 254.4 550.9 262.8 551.4 273 552 C 278.5 552.3 283.5 549.6 286.6 544.4 C 291.1 537 290.7 526.7 285.5 518.3 C 281 511 276 505.8 271.1 500.7 L 270 499.6 C 265.4 494.8 261.1 490.3 257.2 484.1 C 256.8 483.4 256.4 482.7 256 482.1 C 255.8 481.8 255.7 481.5 255.5 481.2 C 257.1 463.3 260.9 449.8 267.5 439 C 272.2 431.2 278.7 423.9 286.2 417.8 C 309.7 415.6 336.1 420 347.6 428 C 357.3 434.8 360.3 449.5 356 469.6 C 341.3 469.6 334 471.5 332.5 481.2 Z M 379 470 L 375.2 469.9 C 369.5 469.7 364.5 469.5 360.1 469.5 C 360.7 466.8 361.1 464.1 361.4 461.4 C 363.5 444.1 359.6 431.3 349.9 424.6 C 338.4 416.7 315.1 412.1 292.2 413.2 C 299.7 408 308 403.8 316.3 401.2 C 323.6 398.9 333.2 396.4 343.4 393.7 L 346.4 392.9 C 364.2 388.3 388.6 382.1 401.2 375.8 C 410.6 371.2 418.9 363.8 428.5 355.3 L 428.9 354.9 C 438.2 346.6 449.9 336.3 464.9 326.9 C 471.8 322.6 480.5 318.3 489.5 314.5 C 489.4 316.9 489.6 319.4 489.9 322.1 C 490.7 329.6 495.3 342 503.4 359 C 502.8 361.7 502.2 364.4 501.6 367.2 C 501.3 368.8 500.9 370.4 500.6 372.1 C 499.3 378.6 497.8 385.5 496 392.4 C 495 392.6 494 392.8 493.1 392.9 C 491.9 393.1 490.8 393.3 489.6 393.5 C 479.3 395.3 468.2 397.4 457 399.7 C 435.6 404.1 415.9 412.1 401.3 422.5 C 387.2 432.4 379 443.8 378.7 453.8 C 378.5 460.1 381.5 465.7 387.3 470 C 384.8 470.1 382.2 470.1 379 470 Z M 490.3 397.4 C 491.8 397.2 493.4 396.9 494.8 396.6 C 489.9 413.4 483.7 425.3 475.3 434 C 457.6 452.3 425 466.6 394 469.5 C 386.3 465.6 382.4 460.3 382.6 453.9 C 382.9 445.4 390.3 435.3 403 426.2 C 417.2 416 436.6 408 457.7 403.7 C 470 401.2 480.6 399.1 490.3 397.4 Z M 546 526.7 C 545.7 526.6 545.7 525.9 545.9 525.1 C 547.1 520.2 554.8 511.9 560.5 511.9 C 560.7 511.9 561 511.9 561.2 511.8 C 566.8 512.2 577.7 511.9 580 507.7 C 580.7 506.2 580.5 504.7 579.4 503.3 L 579.4 503.3 C 579.4 503.3 579.4 503.2 579.4 503.1 C 580 500.2 588.9 493.4 599.2 487.8 C 604.8 484.7 616.1 468.3 619.4 463.3 C 620.8 461.2 633.4 442.3 633.4 437.4 C 633.4 435.9 632.5 435.3 632.2 435.1 L 632.1 435 C 629.4 433.6 623.5 436.9 596.7 454.4 L 593.8 456.3 C 587.3 460.5 581.2 464.5 577.3 466.7 C 571.8 469.9 567.2 470.9 563.5 469.6 C 560.3 468.5 557.8 465.5 555.9 460.7 L 555.4 459.5 C 553.2 453.9 550.3 446.2 543.1 443.4 C 537.2 441.1 529.6 442.3 519.8 447.1 C 517.2 448.4 514.5 449.9 511.7 451.4 C 510.4 452.1 509.1 452.8 507.8 453.5 C 483.3 466.9 449.7 485.3 404 473.1 C 403.3 472.9 402.5 472.7 401.8 472.5 C 431.6 468 461.2 454.3 478.2 436.8 C 487.5 427.1 494.2 414.1 499.3 395.7 C 508.1 394 514.8 392.7 520.9 391.5 C 530.1 407.4 539.2 421.2 545.7 429.5 C 564.6 453.5 572 461.1 589.4 448.2 C 590 447.8 590.5 447.3 591.1 446.9 C 591.9 446.3 592.7 445.7 593.5 445.1 C 607.9 434.2 632.1 415.9 639.9 417 C 643.4 417.5 646.3 420 648.8 424.5 C 645.7 434.6 636.6 449.4 627.2 463.9 C 617.4 479.1 606.2 492.1 597.3 502.6 C 593.7 506.9 589.8 511.4 586.3 515.8 C 575 529.6 551.6 528.8 546 526.7 Z M 632.8 392.4 C 636.8 390.4 640.3 388.6 641.4 388.2 C 649.1 385.5 654.2 388.1 657.7 396.6 C 660.8 404.1 673.3 471.4 671.4 482.8 C 669.2 496 652.8 518.4 644.1 524.4 C 642 525.8 641.2 525.8 641.1 525.7 C 640.1 525.5 639.5 523.9 639.3 523 C 637.9 516.9 640.9 506.9 643.3 505 C 644.2 504.3 645.1 503.8 645.9 503.3 L 646.7 502.8 C 649.8 501 653.6 498.7 651.4 493.2 C 650.1 490 650 489.9 656 487.2 L 656.7 486.9 C 663.2 483.9 662.4 478 661.4 469.8 C 661.3 469.1 661.2 468.4 661.1 467.7 C 661 466.6 660.8 465.4 660.7 464.1 C 660.5 463.1 660.4 461.8 660.3 460.4 L 660.2 459.5 C 659.3 450.1 657.8 434.5 652.8 424.1 C 653.8 420.2 653.8 416.9 652.9 414.3 C 651.2 409.8 648.4 406.6 644.8 405.1 C 641 403.5 636.4 403.8 631.6 405.9 C 630.6 406.3 629.5 406.8 628.3 407.4 C 627.5 407.7 626.8 408.1 625.9 408.5 L 625.6 408.6 C 616 413.1 596.1 422.3 590.2 419.5 C 589.5 419.2 588.2 417.6 587.9 411.4 C 598.9 408.9 615.9 400.8 632.8 392.4 Z M 588.8 423.1 C 596 426.6 612 419.6 627.9 412.1 C 629.6 411.3 631.1 410.6 632.4 410 L 633.5 409.5 C 637.2 407.8 640.8 407.5 643.5 408.7 C 646.1 409.8 648.1 412.1 649.4 415.5 C 649.7 416.4 649.9 417.5 649.9 418.7 C 647.3 415.4 644.1 413.4 640.5 412.9 C 631.8 411.8 611.3 426.6 591.2 441.8 C 590.4 442.4 589.6 443 588.8 443.6 C 588.2 444 587.6 444.5 587.1 444.9 C 572.5 455.8 567.6 450.7 549 427 C 542.6 418.9 534 405.7 525.2 390.6 C 546.1 386.2 560.3 381.7 571.3 376.3 C 576.1 374 580.3 371.4 583.9 368.6 C 584.4 373.2 584.6 378.3 584.6 384.2 C 576.3 399.5 574.1 407.7 577.6 410.7 C 579 411.9 581.2 412.3 584.4 412 C 584.6 416.7 585.4 421.5 588.8 423.1 Z M 583.9 408.2 C 581.1 408.6 580.2 408.1 579.9 407.9 C 579.9 407.9 578 406 584.2 393.3 C 584.2 394.4 584.1 395.5 584.1 396.6 L 584.1 397.3 C 583.9 401.2 583.8 404.9 583.9 408.2 Z M 611.5 340.4 C 610.9 341.3 610.4 342.2 609.8 343.1 C 600.6 357.1 593.5 368.4 588.1 377.6 C 588 373.7 587.8 369.7 587.2 365.7 C 597.6 355.9 601.5 343.5 598.9 327.6 C 596.7 314.4 589.9 305.1 578.6 300 C 571.2 296.6 561.8 295.1 550.6 295.5 C 548.7 294 546.8 292.7 545 291.7 C 550.5 289.6 556.7 287.6 563.3 285.4 L 566.8 284.3 C 579 280.4 594.3 275.5 605.6 269.7 C 612.7 266.1 618.8 262.8 624.7 259.4 C 633.5 260.7 641.8 260.6 650 259.2 C 658.3 257.9 668 253.6 674.9 248.3 C 679.8 244.5 683.9 237.7 684.5 235.7 C 685.4 233.2 686.4 228.3 686.6 222 C 687.1 221.5 687.7 221 688.3 220.5 C 695.6 214 699.7 201.4 698.8 187.6 C 697.7 168.6 688.5 151.7 673.5 141.2 C 665.1 135.3 655.6 130.5 646.4 125.8 L 646.2 125.7 C 629.9 117.4 614.4 109.6 608.7 97.1 C 600.6 79.4 583 61.6 558.8 46.2 C 574.3 51.5 598.1 61.5 606.2 75.2 C 608.7 79.5 610.4 82.9 611.7 85.6 L 612.2 86.6 C 615.7 94.1 617.5 97.9 631 108.1 C 638.6 113.9 647.8 118.6 657.5 123.5 L 659 124.3 C 680.2 135 702.1 146.2 706.8 168.2 C 712.6 195.6 704.3 210.3 698.7 220 C 695.6 225.3 693.6 229 694.2 232.8 C 695.8 243.4 710.9 253.3 723.3 259.7 C 730.4 263.4 736 264.8 739.7 265.8 C 743.6 266.8 745.8 267.4 747.4 269.1 C 751.5 273.5 756.5 282.9 755.8 286 C 755.4 287.6 755.4 287.6 753.8 288.3 C 752.2 289 750.2 289.9 747.1 292.2 C 740.6 297 735.7 298.5 721.5 295.5 C 705.7 292.1 689.4 291.2 676.8 293 C 651.4 296.8 626.4 316.9 614.9 334.9 C 614 336.6 612.8 338.3 611.5 340.4 Z"/>
</svg>
