<svg viewBox="0 0 1458.63 841.11" xmlns="http://www.w3.org/2000/svg"><path d="m910 769.66c12-6.81 24.89-13.58 37-20.76 16.4 9.32 32.28 19.38 47.93 29.87-28.18-3.58-56.64-6.77-84.93-9.11z" fill="#e76935"/><path d="m828.26 785.83q22.71 1.06 45.37 2.65c24.93-12.38 49.37-25.56 73.37-39.58-39.21 13.56-78.79 25.78-118.74 36.93z" fill="#ed8f68"/><path d="m469.49 676.05c25.92 20.42 44.93 47.64 73.54 64.61 9.45-.53 19-1.5 28.34-2.87q-22.79-37.29-44-75.42c-9.53 3.31-60.67-4.82-58.49 8.19z" fill="#e87342"/><path d="m507 719.36c8.36 5.52 12.54 8.15 20.89 13.2 5.54.11 8.3.1 13.8 0 11 1 16.44 1.22 27.33 1.39-4.53-7.37-6.8-11.12-11.35-18.74a452.22 452.22 0 0 1 -50.67 4.15z" fill="#e87342"/><path d="m192 392.71q23.13 54 47.11 107.7a932 932 0 0 0 80 52.18q-18.68-47.06-36.76-94.35-28.08-31.87-56-63.88c-11.59 0-22.76-.54-34.35-1.65z" fill="#e76935"/><path d="m226.4 394.36q20.72 37.44 41.6 74.78c29.91 21.53 60.42 42 92.22 60.62-31.85-46.05-62.68-92.76-93.05-139.76a392.84 392.84 0 0 1 -40.77 4.36z" fill="#e3571c"/><path d="m252 413.59c25.81 37.74 61.19 67.06 87.86 104.11 8.18 5 12.26 7.42 20.41 12.06-31.9-46.05-62.73-92.76-93.1-139.76-6.71 6.77-7.8 17.46-15.17 23.59z" fill="#e04403"/><path d="m244.2 495c14.63 2.34 29.52 2.22 44.24.85-10.88-17.07-22.21-33.85-33.13-50.89-30.22-58.11-32.4-17.26-50.81-20.52 13.35 23.42 26.5 46.99 39.7 70.56z" fill="#e3571c"/><path d="m174 390.1c22.52 36.22 44.74 72.82 65.09 110.31q-6.6-53-12.72-106a261.28 261.28 0 0 1 -52.37-4.31z" fill="#e04403"/><path d="m239.12 500.41q24.58 50 49.47 99.94c12.55-14.43 21.8-30.87 30.57-47.76a932 932 0 0 1 -80.04-52.18z" fill="#f0a181"/><path d="m319.16 552.59c29.35 46 57.41 92.31 94.73 132.38-46.25-21.11-87.82-50.48-125.3-84.62 12.55-14.43 21.8-30.87 30.57-47.76z" fill="#f4bea7"/><path d="m288.59 600.35c60.74 72.34 138.24 134.63 226 170.82q-6.57 15.93-13.45 31.7c-83.55-50.78-155.54-123.59-212.55-202.52z" fill="#eb855b"/><path d="m288.59 600.35c37.48 34.14 79.05 63.51 125.3 84.62 31.51 31.28 64.7 60.16 100.68 86.2-87.74-36.17-165.24-98.48-225.98-170.82z" fill="#e56029"/><path d="m501.12 802.87q6.88-15.79 13.45-31.7a692.9 692.9 0 0 0 111.49 60.06c-42.86-5-84.21-14.03-124.94-28.36z" fill="#e56029"/><path d="m566.84 802.62a613.61 613.61 0 0 0 59.22 28.61c22.52-5.37 45.53-10.92 67.15-19.35 23.27-9.07 44.19-24 64.85-37.87-31.27 13.19-60 23.75-94 27.19a572.21 572.21 0 0 1 -97.22 1.42z" fill="#f0a181"/><path d="m702.46 807.9c18.7-10.88 37.65-21.81 55.6-33.89q16.31 5.29 32.58 10.66c-28.94 8.83-58.72 16.33-88.18 23.23z" fill="#f1ab8e"/><path d="m702.46 807.9c57-4.5 114.48-11.79 171.17-19.42-27.07-1.93-54.16-3.25-81.28-4.35-29.5 9.04-59.85 16.7-89.89 23.77z" fill="#f4bea7"/><path d="m930.41 771.5 8.7.86c0-3.82-7.14-17.79-7.31-18.28l-8.13 2.72c2.12 3.2 4.63 11.51 6.74 14.7z" fill="#f4bea7"/><path d="m483.56 703a906.52 906.52 0 0 0 79.53 63.55 559.41 559.41 0 0 0 65.43-7.33 621.79 621.79 0 0 1 -88-22.46c-19.52-10.46-36.3-27.3-56.96-33.76z" fill="#e3571c"/><path d="m540.51 736.78c9.47-.5 19-1.47 28.41-2.84 19.58 9.21 39.38 17.6 59.6 25.3a621.79 621.79 0 0 1 -88.01-22.46z" fill="#e87342"/><path d="m468.76 670.29c.28 2.5.55 4.86.73 5.76a490.72 490.72 0 0 0 76.89 19.76c-7.5-12.87-15.18-25.81-21.84-39.14-18.42 7.19-36.16 10.96-55.78 13.62z" fill="#e87342"/><path d="m563.09 766.57a559.41 559.41 0 0 0 65.43-7.33q27.86 12 56.3 22.26c-41.18-1.25-81.53-5.81-121.73-14.93z" fill="#e3571c"/><path d="m628.52 759.24q27.86 12 56.3 22.26c34.12-4.5 67.65-20.5 99.18-33.76-25.28 6-50.66 11.51-76.37 15.37-26.19 3.95-53-.36-79.11-3.87z" fill="#eb855b"/><path d="m688.09 765.2c32.59-2.29 64.79-10 96.5-17.63-13.59-7.57-27.2-15.15-40.69-22.92-18.04 14.35-36.18 28.46-55.81 40.55z" fill="#e87342"/><path d="m820.87 739.55q20.19 3.83 40.29 8c15.55-15.84 30.65-32 45.48-48.56-30.06 8.66-60.19 16.9-90.55 24.46 1.91 6.43 2.91 9.65 4.78 16.1z" fill="#e87342"/><path d="m822.68 738.88c5.7 1.11 17-5.41 22.76-4.29l-8.89-16.41c-7.47 1.88-11.2 2.8-18.65 4.57 1.93 6.46 2.88 9.69 4.78 16.13z" fill="#e87342"/><path d="m861.16 747.52c15.55-15.84 30.65-32 45.48-48.56 8.59 12.53 16.86 25.27 25 38.11q-35.23 5.25-70.48 10.45z" fill="#e24b0d"/><path d="m914.75 711q8.65 12.9 16.89 26.09 53-22.94 104.27-49.48c-40.3 8.25-80.7 15.96-121.16 23.39z" fill="#e56029"/><path d="m723.15 749.36c-21.16-9-40.7-18.72-60.08-31.17 26.63-3.44 51.16-13 76-22.83-5.07 18.07-10.29 36.09-15.92 54z" fill="#f5c1ac"/><path d="m731.29 722.79q-20.65-3.93-40.91-9.7c16.45-5.41 32.62-11.33 48.71-17.73q-3.73 13.76-7.8 27.43z" fill="#ee9672"/><path d="m723.15 749.36c5.63-17.91 10.87-35.93 15.94-54 13.75-8.09 19.6-1 33-9.63 3.42 3.75 55.82 28.13 55.82 28.13a1084.3 1084.3 0 0 1 -104.76 35.5z" fill="#ed8f68"/><path d="m731.29 722.79q4.07-13.66 7.8-27.43c13.75-8.09 11.45-5.75 24.89-14.35l46.26 24.6c-28.24 7.5-50.24 12.04-78.95 17.18z" fill="#e5622b"/><path d="m267.17 390c35.89 55.59 72.45 110.72 110.71 164.71a275.49 275.49 0 0 0 40.74-10.76q-5.31-31.78-10.65-63.55c-43.2-37.71-83.97-77.92-123.97-118.9-3 10.91-4.51 16.23-7.69 26.53-3.64.83-5.47 1.21-9.14 1.97z" fill="#e76935"/><path d="m418.62 543.9c31.51 34.5 64.29 67.47 100.39 97.19-40.42-51.21-76.55-105.4-111-160.74q5.3 31.77 10.61 63.55z" fill="#eb855b"/><path d="m377.88 554.66c43.85 34.23 89.61 65 141.13 86.43-36.1-29.72-68.88-62.69-100.39-97.19a275.49 275.49 0 0 1 -40.74 10.76z" fill="#e56029"/><path d="m377.88 554.66c26.93 37.71 55 86.11 90.95 115.9 35.19.34 68.34-4.84 102-15.14-17.92-3.09-34.67-8.19-51.78-14.33-51.56-21.43-97.32-52.2-141.17-86.43z" fill="#e87342"/><path d="m468.83 670.56c62.27 21.36 124.86 27.45 190.23 20.9a794.74 794.74 0 0 1 -88.27-36c-33.62 10.26-66.79 15.44-101.96 15.1z" fill="#e56029"/><path d="m659.06 691.46c48.09 3.92 97-8.23 143.15-20.76-36.7-4.07-72.59-10.29-107.94-21.18a267.94 267.94 0 0 1 -42.71 6.64q3.78 17.64 7.5 35.3z" fill="#e87342"/><path d="m733.08 712.44c23.6-13.05 46.54-27 69.13-41.74-46.11 12.53-95.06 24.68-143.15 20.76 24.01 10.2 48.42 16.12 74.02 20.98z" fill="#e3571c"/><path d="m733.08 712.44c28.59-4.4 56.72-10.3 84.82-17.12 27.6-17.46 54.5-35.87 81-55-32 11.07-64.07 21.4-96.67 30.37-22.61 14.75-45.55 28.7-69.15 41.75z" fill="#e3571c"/><path d="m817.9 695.32c36.88-9.42 73.38-20.13 109.71-31.48q-14.22-12-28.73-23.51c-26.48 19.12-53.38 37.53-80.98 54.99z" fill="#e76935"/><path d="m927.61 663.84c58.52-38.47 113.17-81.27 174.63-115-70.86 23.57-135.32 60.83-203.36 91.47q14.54 11.6 28.73 23.53z" fill="#eb855b"/><path d="m1021.48 599c31.37-3.17 60.41-.75 91.74 2.1q-5.29-26.19-11-52.28c-28.31 15.6-54.68 31.05-80.74 50.18z" fill="#ea7c4f"/><path d="m1113.22 601.14c41.74-15.59 83.49-31.07 126.06-44.26-45.61-4.1-91.28-6.61-137-8q5.65 26.12 10.94 52.26z" fill="#e87342"/><path d="m1164.3 582.43c48.3-3.2 96.55-5.58 145-4.6q-34.82-11-70-21c-25.3 7.89-50.18 16.53-75 25.6z" fill="#e56029"/><path d="m1309.25 577.83c26.48-9.83 52.84-17.35 80.72-21.91-35.27 1.05-69.32 6.52-103.58 14.85 9.1 2.76 13.67 4.17 22.86 7.06z" fill="#e24d10"/><path d="m1332.06 561.29c-22.43.1-44.67 1.2-67 3.08 8.5 2.51 12.77 3.79 21.35 6.4 15.14-3.63 30.3-6.77 45.65-9.48z" fill="#e24b0d"/><path d="m293.23 430.87c9.8 1.25 14.66 1.7 24.29 2.28q-16.93-35.74-33.52-71.65c-3 10.91-4.51 16.23-7.69 26.53-3.64.83-5.47 1.21-9.14 1.92q13 20.48 26.06 40.92z" fill="#e04403"/><path d="m334 427.14c2.84-10.14 5.51-20.36 8-30.59q-20.85-20.73-41.26-41.89 16.43 36.34 33.26 72.48z" fill="#e56029"/><path d="m311.49 482.77c6.06-8.57 11.73-17.58 16.92-26.69a276.43 276.43 0 0 0 29.21-12.77 565.3 565.3 0 0 1 -83.45-18.37c-1.57 5.51-2.38 8.22-4 13.51q20.5 22.32 41.32 44.32z" fill="#e3571c"/><path d="m274.17 424.94q26.82 16.14 54.24 31.14a276.43 276.43 0 0 0 29.21-12.77 565.3 565.3 0 0 1 -83.45-18.37z" fill="#e56029"/><path d="m376.78 464.47q-9.69-10.47-19.16-21.16a276.43 276.43 0 0 1 -29.21 12.77c-5.19 9.11-10.86 18.12-16.92 26.69a324.1 324.1 0 0 0 65.29-18.3z" fill="#e76935"/><path d="m274.13 473.42c9.32 12.76 17.95 26 27.4 38.64q21.39 34.32 43.08 68.45c5.62-16.8 10.77-33.7 15.62-50.75-28-16.39-54.93-34.16-81.38-52.92" fill="#f0a181"/><path d="m360.23 529.76c-4.85 17-10 34-15.62 50.75q16 27.53 32.22 54.91-8.38-52.81-16.6-105.66z" fill="#f4bea7"/><path d="m364.8 559c26.6 32.4 53.91 64.11 82.78 94.52a361.81 361.81 0 0 1 -70.75-18.1q-6.06-38.2-12.03-76.42z" fill="#f8d6c8"/><path d="m376.83 635.42a361.81 361.81 0 0 0 70.75 18.1c24 27.93 55.87 49.62 86.14 70.35a414.68 414.68 0 0 1 -65.34-2.38c-32.98-25.71-65.78-52.97-91.55-86.07z" fill="#eb8459"/><path d="m474.85 680.44c19.81 17.07 38.78 29.69 58.87 43.43 43.62 4.21 86.21 1.88 129.35-5.68-65.4-.83-127.77-12.48-188.22-37.75z" fill="#e55e26"/><path d="m576.15 726a541 541 0 0 0 86.92-7.76c19.38 12.45 38.92 22.19 60.08 31.17-50.26 3.88-99.15-8.41-147-23.41z" fill="#e04403"/><path d="m723.15 749.36 98.53 4.52 6.27-40a1084.3 1084.3 0 0 1 -104.8 35.48z" fill="#e35317"/><path d="m827.95 713.86 29.31 51.34-35.58-11.32z" fill="#ee946f"/><path d="m925 750.12-30.17 6.62s33.41 17.77 43.9 29.17c-.62-15.55-13.73-35.79-13.73-35.79z" fill="#f4baa2"/><path d="m651.56 656.16q3.78 17.64 7.5 35.3a794.74 794.74 0 0 1 -88.27-36 549.9 549.9 0 0 0 80.77.7z" fill="#ea7c4f"/><path d="m239.12 500.41a222.33 222.33 0 0 0 17.76-23.58q-.83-15.94-1.57-31.9c-25.63-56.32-41.64-14.57-62-23.32 15.28 26.26 30.85 52.39 45.81 78.8z" fill="#e24d10"/><path d="m274.17 424.94a565.3 565.3 0 0 0 83.45 18.37q-.75-47.6-2.34-95.16c-4.93 1.19-7.41 1.75-12.39 2.8q-3.3 32.76-7.34 65.44a478 478 0 0 1 -58.49-1.93c-1.14 4.25-1.72 6.35-2.89 10.48z" fill="#e04403"/><path d="m310 438.25-105.65 1.91c-3.75-6.3-5.63-9.44-9.4-15.68 0 0 68.13-12.59 103.32-8.49z" fill="#e3571c" opacity=".3"/><path d="m298.3 425.58c15.66 1.34 31.18 2 46.9 1.93-3.85-4.44-5.77-6.68-9.61-11.16-12 .36-23.84.36-35.85 0-.57 3.72-.86 5.56-1.44 9.23z" fill="#e3571c" opacity=".3"/><path d="m413.86 248.39a994.7 994.7 0 0 0 93.14 48.21q11.84 38.1 23.72 76.18a742 742 0 0 1 -79.2-27.86q-23.64-29.85-46.35-60.4 4.54-18.03 8.69-36.13z" fill="#e76935"/><path d="m405.19 284.52c19.56 15.35 39.42 30.22 59.76 44.53q19.44 45.94 39.64 91.58c-39.37-28.09-76-59.34-111.34-92.28 4.24-14.54 8.15-29.17 11.94-43.83z" fill="#e3571c"/><path d="m396.69 316.33c31.69 29.8 64.37 58.25 99.1 84.48 3.53 8 5.29 12 8.8 19.82-39.37-28.09-76-59.34-111.34-92.28 1.4-4.79 2.09-7.2 3.44-12.02z" fill="#e04403"/><path d="m436.55 307.7q-5.24 25-11.23 49.72c-13.87-12.71-27.47-25.72-41-38.82q4.73-23.62 8.75-47.36c14.35 12.34 28.77 24.58 43.48 36.46z" fill="#e3571c"/><path d="m410.1 163.91c32.36 44.19 64.47 88.57 96.9 132.69q-51-5.07-101.83-12.08c6.91-39.52-1.01-80.89 4.93-120.61z" fill="#e04403"/><path d="m507 296.6a718.52 718.52 0 0 0 82.76 32.45c-19.34 15.05-39 29.67-59 43.73q-11.92-38.08-23.76-76.18z" fill="#f0a181"/><path d="m530.74 372.78c37.42 21.22 75.17 40.22 118.07 46.36-21.07-29.2-40.66-59.11-59-90.09-19.37 15.05-38.99 29.67-59.07 43.73z" fill="#f4bea7"/><path d="m589.78 329.05c50.86 45.2 112.77 75.05 179.52 87.65q19.63-23.22 39.33-46.38c-74.82 8.34-153.71-1.19-218.85-41.27z" fill="#eb855b"/><path d="m589.78 329.05c18.37 31 38 60.89 59 90.09 40.56 5.19 80.15 4 120.49-2.44-66.72-12.6-128.63-42.45-179.49-87.65z" fill="#e56029"/><path d="m808.63 370.32q-19.7 23.16-39.33 46.38c46-8.78 89.92-23.37 133.38-40.73a502.52 502.52 0 0 1 -94.05-5.65z" fill="#e56029"/><path d="m829.57 401.81c24.54-7.84 49.19-16.26 73.11-25.84q18.63 31.42 35.88 63.57c-37.13-9.9-73.87-22-108.99-37.73z" fill="#f0a181"/><path d="m923.61 412.23c5.08 9 9.44 17.78 14.95 27.31q24.71-15.75 49.46-31.42c-21.42 1.64-42.95 3.15-64.41 4.11z" fill="#f1ab8e"/><path d="m923.61 412.23c54.65-15.61 108.33-34.5 163.37-48.77-33.27 13.47-65.5 28.72-97.69 44.55-21.84 1.68-43.79 3.24-65.68 4.22z" fill="#f4bea7"/><path d="m1041.23 376.27c3.08-1 4.63-1.37 7.74-2.22-4.62 4.83-6.4 6.72-11 11.82l-11.85 3.05c6.25-5.35 8.88-7.37 15.11-12.65z" fill="#f4bea7"/><path d="m1032.06 387.36c18-8.63 36.39-16.4 54.92-23.9 14.77 3.09 29 6.23 43.31 11.23-33.06 2.07-65.64 6.85-98.23 12.67z" fill="#ed8f68"/><path d="m1106.87 367.88c9.31 2.41 15.16 3.95 23.42 6.81a436.66 436.66 0 0 1 87.9-41 632.53 632.53 0 0 0 -111.32 34.19z" fill="#e76935"/><path d="m675.06 467.16c36.15-2.37 70.85-9 105.64-19q12.87 15.62 26 31a452.54 452.54 0 0 1 -73.09-7.24 399.85 399.85 0 0 1 -58.55-4.76z" fill="#e3571c"/><g fill="#e87342"><path d="m733.59 471.89c3.54 7.3 5.3 10.9 8.78 18a580.26 580.26 0 0 0 64.31-10.79 452.54 452.54 0 0 1 -73.09-7.21z"/><path d="m632.33 456.79a396.62 396.62 0 0 0 101.26 15.1c3.54 7.3 5.3 10.9 8.78 18-34.37 18.73-70.24 37.43-108.37 46.74q-.38-39.93-1.67-79.84z"/><path d="m633.07 482.81c-.11-4.42-.27-10.55-.27-10.55 15.13 13.64 37.45 33.61 53.67 45.94-17.29 7.61-34.31 14.44-52.48 19-.15-18.01-.55-36.41-.92-54.39z"/><path d="m693.43 465.58c7.15-.54 21.46-2.79 21.46-2.79 1.87 3.77 6.07 14 8.07 17.32 5.44 5.39 8.1 7.94 13.51 13-9.87 5.28-18.48 10.39-27.87 14.64-4.49-12.19-10.66-29.98-15.17-42.17z"/></g><path d="m780.7 448.14q12.87 15.62 26 31c22.68-7.59 44.91-16.13 67-25.38a499.33 499.33 0 0 1 -93-5.62z" fill="#e3571c"/><path d="m806.68 479.13c22.68-7.59 44.91-16.13 67-25.38 20.91 3.94 41.89 7 63 9.89-43.2 8.36-85.97 15.03-130 15.49z" fill="#eb855b"/><path d="m855.29 476.29c27.41-3.23 54.7-7.41 81.77-12.7-23.62 17.13-31.14 17.56-55.14 34.16z" fill="#e87342"/><path d="m969.91 454.53c18.77-11.49 37.51-23 56.39-34.35q1.71 17.26 3.25 34.55c-27.76 8.24-55.46 16.67-83.24 24.85q11.79-12.58 23.6-25.05z" fill="#e87342"/><path d="m969.91 454.53 19.91-12.19q-13.35 16.05-26.45 32.31c-6.84 2-10.26 3-17.06 4.93q11.79-12.58 23.6-25.05z" fill="#e87342"/><path d="m1026.3 420.18q1.71 17.26 3.25 34.55c22.49-20.84 46.31-40.11 70.09-59.45-24.78 7.45-49.21 15.56-73.34 24.9z" fill="#e24b0d"/><path d="m1052 434.64q23.71-19.81 47.66-39.36a725.4 725.4 0 0 1 82.33 3.58c-44.14 9.21-87.24 21.62-129.99 35.78z" fill="#e56029"/><path d="m871.65 488.94c-29.3 17.16-59 33.31-89.79 47.68 15.38 6.39 30.89 12 46.72 17.17q21.67-32.32 43.07-64.85z" fill="#f5c1ac"/><path d="m850.2 521.46c-17 7.78-34.19 15.3-51.66 22.07 9.87 3.76 19.94 7.16 30 10.26q10.9-16.12 21.66-32.33z" fill="#ee9672"/><path d="m871.65 488.94q-21.46 32.47-43.07 64.85c6.06 5.32 12.11 10.55 18.15 15.75 35.06-27.14 69.16-55.44 103.12-83.94-26.06 1.65-52.09 2.93-78.2 3.34z" fill="#ed8f68"/><path d="m850.2 521.46q-10.76 16.2-21.62 32.33c6.06 5.32 12.11 10.55 18.15 15.75 26.52-20.5 52.51-41.63 78.31-63-24.84 5.59-49.72 10.71-74.84 14.92z" fill="#e5622b"/><path d="m1028.05 592.16c26.82-25.11 56-46.46 85.49-68.34q-28.9 5.77-57.69 12.09c-9.93 18.41-18.72 37.42-27.8 56.25z" fill="#f7cebe"/><path d="m1055.85 535.91c39.9-36.44 79.67-73 121.12-107.68-21.71 31.49-42.74 63.42-63.43 95.59q-28.9 5.77-57.69 12.09z" fill="#e97a4c"/><path d="m1103.93 492.27q25-15.56 50.3-30.52-11.14 16.68-22.12 33.46-14.11-1.6-28.18-2.94z" fill="#e04403"/><path d="m1147.05 472.52c32.49-23.36 65.56-45.59 100.39-65.32-23.88 5.89-47.24 13-70.47 21q-15.17 22.05-29.92 44.32z" fill="#e3571c"/><path d="m1205.89 418.75c11-7.31 22.35-14.58 33.55-21.54 3.2 4 4.8 6 8 10-14.21 3.51-27.72 7.29-41.55 11.54z" fill="#e76b38"/><path d="m1239.44 397.21c3.2 4 4.8 6 8 10 29.6-14.33 59.61-26.12 91.52-34.23-34.3 4.25-66.96 12.75-99.52 24.23z" fill="#f7cebe"/><path d="m393.25 328.35c41.47 38.59 84.65 74.85 132.06 106q-3.9 22.64-8.16 45.2a528 528 0 0 1 -54 .05c-33.95-43.46-65.74-88.43-96.4-134.24 7.44-9-8.81-20.59-.52-28.83 9.96-.09 17.11 11.98 27.02 11.82z" fill="#e76935"/><path d="m517.15 479.53c32 23.79 65.16 44.65 101.69 60.69-56.2-9.44-106.86-31.71-155.66-60.64a528 528 0 0 0 53.97-.05z" fill="#eb855b"/><path d="m525.31 434.33c28.86 37.43 59.26 73.28 93.53 105.89-36.53-16-69.72-36.9-101.69-60.69q4.27-22.53 8.16-45.2z" fill="#e56029"/><path d="m525.31 434.33c34.17 20 69.32 36.54 107.22 48.13q10.53 43.2 20.67 86.5c-12.12-8.78-23.27-18.72-34.36-28.74-34.27-32.61-64.67-68.46-93.53-105.89z" fill="#e87342"/><path d="m632.53 482.46c35.78 33 74.07 61.35 117.11 84.2a419.89 419.89 0 0 1 -96.44 2.34q-10.12-43.33-20.67-86.54z" fill="#e56029"/><path d="m749.64 566.66c41.45 2.35 82.43-2 123.34-8.43-44.21 21.79-89.11 41-136.59 54.52-9.85-3.46-19.66-7.41-29.14-11.77 14.45-11.08 28.52-22.52 42.39-34.32z" fill="#e87342"/><path d="m840.71 534.21q16.11 12 32.27 24c-40.91 6.4-81.89 10.78-123.34 8.43 31.27-8.47 61.3-19.7 91.07-32.43z" fill="#e3571c"/><path d="m840.71 534.21c25.91-4.93 51.52-10.86 77.08-17.36 14 6.74 28 13.49 42 20.36-28.83 7.49-57.69 14.67-86.79 21q-16.16-11.98-32.29-24z" fill="#e3571c"/><path d="m917.79 516.85c34.2-10 68.16-20.75 102.16-31.4q-30.19 25.77-60.18 51.76c-13.96-6.87-27.96-13.62-41.98-20.36z" fill="#e76935"/><path d="m1020 485.45c37.45 7 72 20.62 106.84 35.7-27.94-.43-57-2.08-84.72 1.47-27.51 3.53-55 9.8-82.3 14.59q30.01-25.9 60.18-51.76z" fill="#eb855b"/><path d="m1077.69 501.35c37.57-15 75.31-29.43 113.79-42-22 20.09-43.5 40.76-64.69 61.75q-24.39-10.3-49.1-19.75z" fill="#ea7c4f"/><path d="m1191.48 459.4a891.11 891.11 0 0 1 101.52 13.73c-57.08 10.16-111.79 28.27-166.17 48 21.17-20.97 42.61-41.64 64.65-61.73z" fill="#e87342"/><path d="m1232.65 463.52c55.13-10.09 109.59-13.49 165.12-4.49-35.91-.27-70.14 4.93-104.81 14.1-20.02-3.92-40.06-7.13-60.31-9.61z" fill="#e56029"/><path d="m1397.77 459q26.67 17.81 52.24 37a583.54 583.54 0 0 0 -87.12-35.92c11.7-.75 23.11-1.08 34.88-1.08z" fill="#e24d10"/><path d="m1401.42 473.8a456.58 456.58 0 0 0 -70.52-9.34 289.48 289.48 0 0 1 32-4.31c13 4.24 25.75 8.76 38.52 13.65z" fill="#e24b0d"/><path d="m425.32 357.42c-.25 10.67-.41 16-.76 26.53-25-15.55-49.73-31.55-73.78-48.49 9.53-2.49 6.11-15.94 15.48-18.95 1.19-3.95 20 9.1 21.18 5.11 12.65 11.91 25.15 23.98 37.88 35.8z" fill="#e04403"/><path d="m424.56 384c-10.13 3.89-15.25 5.69-25.6 8.94q-16.33-23.61-32.18-47.55c18.97 13.27 38.22 26.18 57.78 38.61z" fill="#e56029"/><path d="m399 392.89c-8.8 6.46-17.89 12.66-27.15 18.44q-6.94 16.14-14.29 32.08-1.86-47.32-4.41-94.61c5.5-1.3 8.23-2 13.67-3.46q15.82 23.94 32.18 47.55z" fill="#e3571c"/><path d="m375.35 466c8.57-24.17 16.36-48.54 23.61-73.14 19.06 29.58 38.58 58.81 58.82 87.6a534.47 534.47 0 0 1 -82.43-14.46z" fill="#e24f12"/><path d="m353.11 348.8q9.3 31.27 18.7 62.53-6.94 16.14-14.29 32.08-1.86-47.32-4.41-94.61z" fill="#e56029"/><path d="m375.35 466q-9-11.22-17.83-22.62 7.37-16 14.29-32.08c9.26-5.78 18.35-12 27.15-18.44-7.25 24.63-15.04 49-23.61 73.14z" fill="#e76935"/><path d="m375.35 466q18.5 29.31 37.64 58.2c39.13 23.07 79.38 42.19 123.22 54.45-27.85-31.4-53.65-64.34-78.43-98.19a534.47 534.47 0 0 1 -82.43-14.46z" fill="#f0a181"/><path d="m457.78 480.49c24.78 33.85 50.58 66.79 78.43 98.19 28.19-5.85 81.73-28.52 81.73-28.52.16-2.29-40.63-13.46-58.93-20.16-35.21-12.89-69.86-28.86-101.23-49.51z" fill="#e3571c"/><path d="m536.21 578.68c44.6 36.2 92.17 64.85 149.29 75.74a1158 1158 0 0 1 -67.56-104.26 526.73 526.73 0 0 1 -81.73 28.52z" fill="#f4bea7"/><path d="m617.94 550.16a433.54 433.54 0 0 0 71.76 51.2c-10.64 4.77-21.28 9.28-32.13 13.55-13.88-21.19-26.98-42.8-39.63-64.75z" fill="#e04403"/><path d="m689.7 601.36q-1.82 26.57-4.2 53.06-14.31-19.53-27.93-39.51c10.85-4.27 21.49-8.78 32.13-13.55z" fill="#eb855b"/><path d="m685.5 654.42c33.1 10.91 66.6 17.6 101.12 22.13q-10.85-28.14-22-56.18a666.48 666.48 0 0 1 -79.12 34.05z" fill="#f7cebe"/><path d="m764.67 620.37q11.08 28.05 22 56.18c46.5-38.35 89.88-80 132.33-122.71-50.06 25.61-100.81 49.16-154.33 66.53z" fill="#e97a4c"/><path d="m786.62 676.55c44.7-23.55 87.38-50.16 129.26-78.41q1.67-22.14 3.07-44.3c-42.45 42.75-85.83 84.36-132.33 122.71z" fill="#f7cebe"/><path d="m919 553.84q-1.4 22.15-3.07 44.3c37.39-2 74.77-4.24 112.17-6-35.91-14.24-72.39-26.56-109.1-38.3z" fill="#f9ddd2"/><path d="m992.29 578.65c21-14.4 41.68-29.66 63.56-42.74-9.93 18.41-18.72 37.42-27.8 56.25q-17.82-6.93-35.76-13.51z" fill="#e97a4c"/><path d="m689.7 601.36a453 453 0 0 0 75 19 666.48 666.48 0 0 1 -79.17 34q2.34-26.46 4.17-53z" fill="#e5622b"/><path d="m465 329.05c10.55 10.68 21.17 21.29 32 31.67 17.79 11.62 35.82 22.52 54.53 32.58-15.4 9.58-31 18.67-46.9 27.33q-19.21-43.23-37.63-86.77" fill="#f0a181"/><path d="m504.59 420.63c15.93-8.66 31.5-17.75 46.9-27.33 14.93 6.22 30 11.79 45.32 16.88a604.15 604.15 0 0 1 -92.22 10.45z" fill="#f4bea7"/><path d="m529.35 419.24c26.49 19.68 54.23 37.83 83.52 53.08q-7.95-31.08-16.06-62.14c-22.25 4.23-44.89 7.04-67.46 9.06z" fill="#f8d6c8"/><path d="m596.81 410.18q8.13 31.05 16.06 62.14c33.18 10.93 67.55 11.55 102.18 9.66q-9.62-22.5-19.16-45c-35.07-3.81-67.43-10.98-99.08-26.8z" fill="#eb8459"/><path d="m645.58 480c23.2 2.28 46.18 3.32 69.47 2a761.68 761.68 0 0 0 66.81 54.64c-49.11-10.51-93.78-29.99-136.28-56.64z" fill="#e55e26"/><path d="m737.17 501.86c14.51 12.09 29.28 23.84 44.69 34.76 30.78-14.37 60.49-30.52 89.79-47.68-44.57 9.98-88.77 15.39-134.48 12.92z" fill="#e04403"/><path d="m871.65 488.94c35.76-21.8 70.83-44.67 106-67.38-9.55 21.23-18.72 42.62-27.82 64-26.04 1.69-52.07 2.97-78.18 3.38z" fill="#e35317"/><path d="m949.85 485.6c32.92-40.93 65.9-82.11 102.29-120.06-25.58 17.62-50 36.87-74.47 56-9.55 21.25-18.67 42.64-27.82 64.06z" fill="#ee946f"/><path d="m977.67 421.56c24.44-19.15 48.89-38.4 74.47-56a797.08 797.08 0 0 1 59.21-74.17c-50.53 38.01-92.35 82.61-133.68 130.17z" fill="#e6642e"/><path d="m1111.35 291.37c-8.8 9.8-17.35 19.7-25.78 29.81a811.54 811.54 0 0 1 80.77-41.91q-27.66 5.39-54.99 12.1z" fill="#f4baa2"/><path d="m707.25 601c14.45-11.08 28.52-22.52 42.39-34.32a419.89 419.89 0 0 1 -96.44 2.32 590 590 0 0 0 54.05 32z" fill="#ea7c4f"/><path d="m433.73 306.5-23.81 37.5s-18.19-15-24.25-16.7c4.24-14.54 15.73-28.07 19.52-42.73 11.27 9.05 16.86 13.37 28.54 21.93z" fill="#e24d10"/><path d="m353.11 348.8c1.49 27 2.85 54.05 3.88 81.1-27.95 1.09-55.66-1.61-83.56-2.82 1.42-4.92 2.12-7.43 3.48-12.52 15.67 1.65 14-19.51 29.23-17.95 3.29-21.41 34.13-23 36.63-45.51 4.15-.87 6.23-1.33 10.34-2.3z" fill="#e04403"/><path d="m409.92 344c5.5-14 19.69-22.8 23.81-37.45-.67-4.46-11.35-14.36-12-18.85 10.12-30.12 0-64.71 9.38-95.06q-10.47-14.35-21-28.68c-11.54 53.78-17.87 102.62-31.49 156 6.64 6.24 24.62 17.84 31.3 24.04z" fill="#e3571c" opacity=".3"/><path d="m409.92 344c-2.77 10.55-4.2 15.79-7.16 26.15-9.32-2.12-14-3.29-23.37-5.81-7 5.47-10.55 8.11-17.76 13.17-2.83-.93-4.25-1.4-7.08-2.36-5.71.68-20.09 3.66-25.86 4.14 1.08-10.07 13.11-17.85 14.08-28.14 16.16-5.24 7.84-28.49 23.49-34.59 9.93-.07 17.08 12 27 11.84 6.64 6.28 9.98 9.4 16.66 15.6z" fill="#e3571c" opacity=".3"/><path d="m330.05 374.84c-5.4 17.63-14.37 45.89-20 63.41l-15-27.25c4.44-11.95 18.13-23.86 22.32-35.91 3.37.79 9.32-.94 12.68-.25z" fill="#e3571c" opacity=".3"/><path d="m307.54 389.41c15.48-.63 32.82-1.9 48.23-3.52 0 0-1.75-21.5-1.76-20-15 1.86-30.61 9.86-45.79 10.44-.58 3.84-.08 9.28-.68 13.08z" fill="#e3571c" opacity=".3"/><path d="m90.97 174.05 78.78-43.82 74.36 89.24-54.58 4.76z" fill="#eb855b"/><path d="m189.53 224.23-98.56-50.18-23.28 90.64 41.96 42.21 87.57-66.64z" fill="#f3b49a"/><path d="m238.91 328.57-41.69-88.31-87.57 66.64-12.39 45.95 74.62-2.81 127.62 68.86z" fill="#f0a181"/><path d="m97.26 352.85-85.65-30.41 17.72 95.07 36.71 28.78 57.06 21.15 14.86-54.29z" fill="#e3571c"/><path d="m66.04 446.29-36.71-28.78 43.92 47.44 49.85 2.49z" fill="#e24d10"/><path d="m88.85 131.29-10.14-23.36-49.48 70.91 61.74-4.79z" fill="#f4bea7"/><path d="m145.67 101.33-17.32-20.78-11.2-13.45-38.44 40.83 10.14 23.36 2.12 42.76 78.78-43.82z" fill="#f0a181"/><path d="m67.69 264.69 23.28-90.64-61.74 4.79-3.48 67.92-14.14 75.68 85.65 30.41 12.39-45.95z" fill="#e3571c"/><path d="m433.69 307.08-77.92-75.88 33.23 88.31z" fill="#f3b49a"/><path d="m227.17 60.56-57.32 69.58 74.36 89.24 14.53-52.82 13.54 9.4 48.24-121.94z" fill="#eb855b"/><path d="m354.47 102.91-82.19 73.05 83.49 55.24z" fill="#e87342"/><path d="m320.52 54.02 33.95 48.89-82.19 73.05z" fill="#f3b49a"/><path d="m385.67 171.91-29.9 59.29 77.92 75.88z" fill="#e87342"/><path d="m385.67 171.91-31.2-69 1.3 128.29z" fill="#e87342"/><path d="m453.86 149.92-51.96-50.91-47.43 3.9 31.2 69 48.02 135.17 26.73-102.47z" fill="#f3b49a"/><path d="m516.5 95.62-38.75-51.75 21.69 41.3 8.53 5.22-8.53-5.22-21.69-41.3-18.6 31.61-5.29 74.44 6.56 54.69 44.34-29.73 5.19-29.77z" fill="#f4bea7"/><path d="m310.46 9.54-67.44-2.83-15.85 53.85 93.35-6.54z" fill="#f6cbb8"/><path d="m164.35 36.58 21.15 14.18 41.67 9.8 15.85-53.85z" fill="#f4bea7"/><path d="m387.45 9.28-76.99.26 10.06 44.48 33.95 48.89 47.43-3.9 51.96 50.91 5.29-74.44 18.6-31.61z" fill="#f8d6c8"/><path d="m227.17 60.56-41.67-9.8-21.15-14.18-47.1 30.44 11.21 13.44 17.31 20.78 24.08 28.9z" fill="#f6cbb8"/><path d="m292.32 273.96-48.21-54.49-74.36-89.24 19.78 94 49.38 104.34 60.59 90.33 20.29-41.72 49.18-11.23.01-.05-76.56-91.89z" fill="#e87342"/><path d="m355.77 231.2-97.03-64.64-88.89-36.42 74.36 89.24 48.22 54.5.02.1 76.57 91.89.05-.01 19.93-46.35z" fill="#f3b49a"/><path d="m97.26 352.85 40.7 60.3 52.61 16.31-10.69-45.43-8-33.99z" fill="#e76935"/><path d="m171.88 350.04-74.62 2.81 40.7 60.3-14.86 54.29 30.21.27 37.26-38.25 108.93-10.56z" fill="#e87342"/><path d="m847.9 739c5.71 1.11 30.33 4 36.05 5.09l19.47-2.83-62.47-15z" fill="#e87342"/><path d="m836.92 729.57c7.61 13.06 20.34 35.63 20.34 35.63l67.74-15.08z" fill="#e6642e"/><path d="m995.72 593.77 32.33-1.61s10.95-9.85 18.15-16.16c8-7 13.58-11.25 13.58-11.25l7.57-3.07-38.35 34.13-41.19 1.79z" fill="#ea7c4f" opacity=".6"/></svg>