<svg id="Layer_1" data-name="Layer 1" xmlns="http://www.w3.org/2000/svg" viewBox="0 0 290.09 163.18"><defs></defs><path class="cls-1" d="M107.6 71.71a14.18 14.18 0 1 0 14.18 14.18 14.18 14.18 0 0 0-14.18-14.18Zm0 16.82a2.65 2.65 0 1 1 2.65-2.64 2.65 2.65 0 0 1-2.65 2.64ZM183.08 71.71a14.18 14.18 0 1 0 14.18 14.18 14.18 14.18 0 0 0-14.18-14.18Zm0 16.82a2.65 2.65 0 1 1 2.65-2.64 2.65 2.65 0 0 1-2.65 2.64ZM159 154.73a47.91 47.91 0 0 1-13.09 1.15H145.5a48 48 0 0 1-13.1-1.15 21.22 21.22 0 0 0 13.1 5.24h.41a21.22 21.22 0 0 0 13.09-5.24Z"/><path class="cls-1" d="M183.88 49.61c-6.74-3.56-20.18-8.21-34.2-9a46.75 46.75 0 0 0-3.87 19.09 46.15 46.15 0 0 0-3.94-19.11c-14.11.75-27.66 5.42-34.45 9-7.38 3.91-11.07 11.52-1.3 11.52s26.72 6.08 26.72 24.76-22.37 27.8-22.37 43.43 15.85 22.16 20.63 22.81 11.94-1.95 14.55-1.95 9.77 2.6 14.55 1.95 20.64-7.17 20.64-22.81-22.37-24.76-22.37-43.43 16.94-24.76 26.71-24.76 6.08-7.59-1.3-11.5Zm-26.66 78.85c-1.47.48-1.8-2.28-4.08-2.28s-4.23.65-5 2.44.82 1.63.82 4.23-3.26 3.26-3.26 3.26-3.26-.65-3.26-3.26 1.63-2.44.82-4.23-2.77-2.44-5.05-2.44-2.61 2.76-4.07 2.28-5.05-9-.49-11.41 10.91.17 12.05.17 7.49-2.61 12.06-.17.92 10.95-.54 11.41ZM49.22 2.38a19.49 19.49 0 0 0 4.36 11.27 39.8 39.8 0 0 1-8.64-5.11 58.49 58.49 0 0 0 10.75 20.75L32.92 18.38a51.29 51.29 0 0 0 14.23 13.78L18.91 23.3c4.79 7.89 13.65 12.18 22 16.06L12.64 33a43 43 0 0 0 23.58 12.4c-8.87 1-17.83.06-26.71-.85l23.92 10.06a158.06 158.06 0 0 0-21.87-.5A98.72 98.72 0 0 0 29.3 61.5a123 123 0 0 1-25.68 3.69 115 115 0 0 1 23.57 2.19 67 67 0 0 1-21.1 11.46 263.08 263.08 0 0 0 32.31-5 123.57 123.57 0 0 0-24 10.55 159.4 159.4 0 0 0 28.27-5.73 59.31 59.31 0 0 1-14.25 11.76 97.55 97.55 0 0 0 27.25-10.14A68.34 68.34 0 0 1 40.75 93a42.32 42.32 0 0 0 11.25.72c-2.45 1.7-3.48 4.82-4.71 7.58s-5.21 4.85-8.37 4.73c.78 1.77 3.8 4.34 5.53 5.2a14.69 14.69 0 0 1-10.64 4.38c6.3 2.47 7.71 4.1 12.44 3-1.79 3.42-2.61 4.08-7 5.6 1.66 2.2 6.54 2.67 6.42 6.58-2.43-.62-3.81-.39-7.28.8 3.23.8 6.69 2.25 8.35 5.13-3.14.63-3 2.58-7.76 3.16 8.08 2 6 3.66 15.43 5.67 7.25 1.55 7.49 3 10.58 6A12.31 12.31 0 0 0 62 141c-2.06-2.28-4.07-3.53-6.68-9.56-8.8-24.11.94-35.3 2.39-39.47 1.35-3.89.31-6.4.87-8.72.36-1.46.63-1.93 1.06-3.37 1.56-5.16-1.12-7.48-1.27-14.43a37.62 37.62 0 0 1 11.54-27.31C76.78 31.57 80 32.1 84 23.49A88.44 88.44 0 0 1 49.22 2.38ZM241.46 2.38a19.49 19.49 0 0 1-4.36 11.27 39.8 39.8 0 0 0 8.64-5.11A58.49 58.49 0 0 1 235 29.29l22.77-10.91a51.43 51.43 0 0 1-14.23 13.78l28.24-8.86c-4.79 7.89-13.65 12.18-22 16.06L278 33a43 43 0 0 1-23.54 12.4c8.87 1 17.83.06 26.7-.85l-23.91 10.06a158.06 158.06 0 0 1 21.87-.5 98.72 98.72 0 0 1-17.74 7.39 123 123 0 0 0 25.68 3.69 115 115 0 0 0-23.57 2.19 67 67 0 0 0 21.1 11.46 263.08 263.08 0 0 1-32.31-5 123.57 123.57 0 0 1 24 10.55A159.4 159.4 0 0 1 248 78.61a59.31 59.31 0 0 0 14.22 11.81A97.55 97.55 0 0 1 235 80.28 68.52 68.52 0 0 0 249.92 93a42.21 42.21 0 0 1-11.22.76c2.45 1.7 3.48 4.82 4.71 7.58s5.21 4.85 8.37 4.73c-.78 1.77-3.8 4.34-5.53 5.2a14.68 14.68 0 0 0 10.63 4.38c-6.29 2.47-7.7 4.1-12.43 3 1.79 3.42 2.61 4.08 7 5.6-1.66 2.2-6.54 2.67-6.42 6.58 2.43-.62 3.81-.39 7.28.8-3.23.8-6.69 2.25-8.35 5.13 3.14.63 3 2.58 7.76 3.16-8.08 2-6 3.66-15.43 5.67-7.25 1.55-7.49 3-10.58 6a12.31 12.31 0 0 1 2.94-10.59c2.06-2.28 4.07-3.53 6.68-9.56 8.8-24.11-.94-35.3-2.39-39.47-1.35-3.89-.31-6.4-.87-8.72-.36-1.46-.63-1.93-1.06-3.37-1.56-5.16 1.12-7.48 1.27-14.43a37.62 37.62 0 0 0-11.51-27.31c-6.87-6.57-10.11-6-14.12-14.65a88.44 88.44 0 0 0 34.81-21.11Z"/></svg>