<svg id="Layer_2" data-name="Layer 2" xmlns="http://www.w3.org/2000/svg" viewBox="0 0 32 32">
  <rect style="fill:#e95420;" width="32" height="32" />
  <circle style="fill:#fff;" cx="7.18" cy="15.82" r="3.35" />
  <circle style="fill:#fff;" cx="21.1" cy="8.48" r="3.35" />
  <path style="fill:#fff;"
    d="M14.73,24.42a8.08,8.08,0,0,1-5.55-4.25,4.83,4.83,0,0,1-2.85.35,10.87,10.87,0,0,0,7.85,6.58,11,11,0,0,0,2.37.25,4.71,4.71,0,0,1-1-2.8A2.89,2.89,0,0,1,14.73,24.42Z" />
  <circle style="fill:#fff;" cx="20.35" cy="24.45" r="3.35" />
  <path style="fill:#fff;"
    d="M25,23.23a11,11,0,0,0,.55-12.83,4.85,4.85,0,0,1-1.88,2.2,8.22,8.22,0,0,1,.78,5.55,8.08,8.08,0,0,1-1.05,2.6A4.58,4.58,0,0,1,25,23.23Z" />
  <path style="fill:#fff;"
    d="M6.9,11h.25a4.65,4.65,0,0,1,1,.1,4.84,4.84,0,0,1,1.52.63,8.12,8.12,0,0,1,6.58-3.52,6.42,6.42,0,0,1,.1-.75,4.63,4.63,0,0,1,.92-1.95A11,11,0,0,0,6.9,11Z" />
</svg>