<svg width="200" height="200" preserveAspectRatio="none" xmlns="http://www.w3.org/2000/svg"><path d="M0 0v48.275h48.275V0H0zm62.068 0v6.896h13.793v6.897H62.068v6.896h6.897v13.793h-6.897v6.897h6.897v6.896h6.896V27.586h6.897V13.793h6.896V6.896h-6.896V0H62.068zm27.586 6.896h13.795v6.897h6.897V0H89.654v6.896zm20.692 6.897v6.896h6.896v-6.896h-6.896zm6.896 6.896v13.793h-6.896v13.793h6.896V41.38h6.897v-6.897h13.793v13.793h6.896V6.896h-6.896v6.897h-6.897v6.896h-13.793zm20.69 27.586h-6.897v6.897h6.897v-6.897zm-6.897 0V41.38h-6.896v6.896h6.896zm-20.69-13.793V20.69h-6.896v-6.896h-6.898v13.793H82.758v6.896h6.896v6.897h6.897v6.896h6.898V34.482h6.897zM96.552 48.275h-6.897V41.38h-6.896v20.689h6.896v-6.896h6.897v-6.897zm0 6.897v13.793h6.898v-6.897h6.897v-6.896H96.55zm-27.586-6.897h-6.897v13.793h6.897v6.897h6.896V55.172h-6.896v-6.897zm6.896 20.69v6.896h-6.896v6.897h-6.897v6.896H48.275v6.897h6.897v6.898h-6.897v6.897h13.793V96.55h6.897v6.898h6.896V82.758h6.897V75.86h6.896v-6.896H75.861zm-13.793 41.38v6.897H48.275v6.897H20.69v6.896h41.379v-6.896h6.897v-6.897h6.896v-6.896H62.068zm0 20.69v6.897h-6.896v27.586h6.896v-13.793h6.897V131.035h-6.897zm6.897 20.69v13.793h-6.897v20.689h6.897v-6.896h6.896v-6.897H96.551v-13.793h6.898v6.897h6.897v-6.897h6.896v-6.896h-6.896v-13.793h-6.897v13.793h-6.898v-6.897H82.758v6.897h6.896v6.896h-6.896v6.897H75.86v-13.793h-6.896zm13.793-6.897v-13.793H75.86v13.793h6.897zm0-13.793H96.55v6.897h6.898v-6.897h6.897v-6.896h6.896v-6.897h6.897v-6.896h-6.897v-6.897h-6.896v-6.898h-6.897V82.758h6.897v6.896h6.896V75.861H96.551v6.897h-6.897v6.896h-6.896v6.897h6.896v6.898h-6.896v13.793h6.896v-6.896h6.897v6.896h6.898v6.897H82.758v6.896zm34.484-55.174h6.897v6.897h13.793v6.896h6.896V75.861h-13.793v-6.896h6.897v-6.897h-13.793v6.897h-6.897v6.896zm6.897-13.793v-6.896h-6.897v6.896h6.897zm20.69 27.586v6.897h20.689v6.898h13.793v6.897h-6.897v6.896h6.897v6.897h13.793v6.896H200v-13.793h-13.793V96.551h-13.793v-6.897h-13.793V68.965h-6.896v20.689h-6.897zm41.378 6.897H200V82.758h-6.896v6.896h-6.897v6.897zm-6.896 27.588h-6.897v-6.897h-20.689v6.897h-6.897v-13.793h-6.896v6.896h-6.897v13.793h6.897v13.793h-13.793v-6.896h-6.897v13.793h13.793v6.896h-6.896v6.897h6.896v6.896h6.897v6.897h-6.897v6.896h13.793v-6.896h6.897v-6.897h20.689v6.897h-20.689v6.896h-6.897v6.897h13.793v-6.897h6.897v6.897h13.793V200h6.896v-13.793h6.897v-6.896h-6.897v-6.897h-6.896v-6.896h-6.897v-6.897h13.793v-6.896h-6.896v-6.897h-6.897v-13.793h6.897v-6.896zm0 20.69H200v-6.897h-20.689v6.896zm6.896 13.792v13.793h6.897v6.897H200v-13.793h-6.896v-6.897h-6.897zm6.897 27.586v6.897H200v-6.897h-6.896zm-62.069-6.896v-6.897h-13.793v-6.896h-6.896v6.896h-6.897V200h6.897v-6.896h6.896v-6.897h6.897v-6.896h6.896zm-13.793 13.793V200h6.897v-6.896h-6.897zm0-55.172v-6.897h-6.896v6.897h6.896zm0-6.897h6.897v-6.896h-6.897v6.896zm6.897 0v6.897h6.896v-6.897h-6.896zm20.69-20.69h20.689v-6.896H144.828v6.897zm0-6.896v-6.898h-6.897v6.898h6.896zm-6.897-6.898v-6.897H117.242v6.897h6.897v6.898h6.896v-6.898h6.897zm-62.07 82.76v6.896h-6.897V200h13.793v-13.793h6.896v-6.896H75.861zm-13.794 6.896h-6.896V200h6.896v-13.793zm-13.793-68.965v-6.896H34.482v-6.897h-6.896v6.897h-6.897v6.896h27.586zm-27.586-6.896V96.55h-6.896v-6.897h13.793v-6.896H0V96.55h6.896v6.898h6.897v6.897h6.896zm-6.896 0H6.896v-6.897H0v41.379h6.896v-13.793h6.897v-20.689zm13.793-27.588h13.793V75.86h6.896v-6.896H41.38v-6.897h6.896v6.897h13.793v-6.897h-6.896v-6.896H34.482v13.793h-6.896v-6.897H13.793v-6.896H0v6.896h6.896v6.897H0v6.896h27.586v6.897zm34.482-13.793v6.896h6.897v-6.896h-6.897zm0 6.896h-6.896v6.897h6.896V75.86zm-20.69 6.897v6.896h6.897v-6.896H41.38zm6.897 20.691v-6.898H41.38v6.898h6.896zm13.793-55.174V41.38h-6.896v6.896h6.896zm0-13.793V20.69h-6.896v13.793h6.896zM124.138 0v6.896h6.897V0h-6.896zm27.587 0v48.275H200V0h-48.275zM6.896 6.896H41.38V41.38H6.896V6.896zm151.725 0h34.483V41.38H158.62V6.896zM13.793 13.793v20.689h20.689V13.793H13.793zm151.725 0v20.689h20.689V13.793h-20.689zm0 41.379v27.586h13.793V75.86h-6.897V62.068h6.897v-6.896h-13.793zm13.793 6.896v6.897h13.793v-6.897H179.31zm13.793 41.381v6.897H200v-6.897h-6.896zm-34.483 20.69h6.897v6.896h-6.897v-6.896zm-13.793 6.896h6.897v6.897h-6.897v-6.897zm-131.035 6.897v6.896h13.793v-6.896H13.793zm20.69 0v6.896h13.792v-6.896H34.482zm110.345 6.896H165.518V165.518H144.828V144.828zM0 151.725V200h48.275v-48.275H0zm151.725 0v6.896h6.896v-6.896h-6.896zM6.896 158.62H41.38v34.483H6.896V158.62zm6.897 6.897v20.689h20.689v-20.689H13.793zm117.242 27.586V200h6.897v-6.896h-6.897z"/></svg>