<svg width="200" height="200" preserveAspectRatio="none" xmlns="http://www.w3.org/2000/svg"><path d="M0 0v56h56V0H8Zm72 0v8h8V0Zm0 8h-8v16h8v8h24v-8h8V0h-8v8h-8v8H72zm0 24h-8v32h16v-8h-8v-8h8v-8h-8zm8 16v8h8v-8zm8 0h8v-8h-8zm8 0v24h16v-8h-8V48zm8 0h8V32h-8v8zm8-16h8v-8h-8zm8-8h8v-8h8V8h-8V0h-8v8h-8v8h8zm0 8v16h8v8h8V32h-8zm8 24h-8v-8h-8v16h16zM96 72h-8v-8h-8v16h-8v8h16v-8h8zm0 8v16h8v8h8v-8h8v-8h-16v-8zm8 24h-8v8h8zm0 8v16h24v16h-8v8h8v16h-8v24h8v8h8v-16h8v-8h-8v-8h16v16h16v-8h8v8h8v-16h-8v-8h8v-8h-8v-16h8v-8h-16v-16h-8v-8h-8v-8h-8v-8h8v8h8v-8h8v-8h-16v-8h16v-8h-24v8h-16v8h8v16h-8v8h8v8h16v8h8v8h-16v-8h-32v-8zm64 0h8v8h8v-16h-8v-8h-8v8zm16-8h8v16h8V96h-16zm8 16h-8v8h8zm-8 32h8v8h8v-24h-8v8h-8zm8 8h-8v8h8zm-16 24h-8v8h8zm-56 8h-8v-16h-8v8H88v16h32zm-32-8v-16h-8v16zm0-16h8v-8h-8zm8 0v8h8v-8zm8 0h16v-16h-8v8h-8zm8-16v-8h-8v-8H88v-8h-8v-8h-8v8h-8v24h8v-8h24v8h8zm-48-24v-16H48v-8h8v-8h-8v-8h8v-8h-8v-8H32v-8h-8v8h-8v-8H0v8h8v8h8v8H8v16h8v-8h8V80h8v8h8v8H24v8h-8v16h8v8h8v-8h24v8zm-8 0H32v8h24zm-40-8H8v8H0v8h16v-8zm-8 0v-8H0v8zm0-32v-8H0v8zm40-16h16v-8H48zm8 16v8h8v-8zm56 56h8v-8h-8zm-16-32h-8v8h8zm-8 0v-8H72v8h8zM144 0v56h56V0h-48zM8 8h40v40H8V16zm144 0h40v40h-40V16ZM16 16v24h24V16H24zm144 0v24h24V16h-16zm16 48v8h16v-8h-8zm16 8v8h-8v8h16V72ZM32 104h8v8h-8zm104 32h24v24h-24v-16zM0 144v56h56v-56H8Zm144 0v8h8v-8zM8 152h40v40H8v-32zm8 8v24h24v-24H24zm48 8v8h8v-8zm128 8v8h8v-8zm-128 8v16h16v-8h-8v-8zm80 8v8h16v-8h-8zm40 0v8h16v-8h-8z" style="stroke-width:8.00001"/></svg>