<svg width="1671.094" height="856.39252" viewBox="0 0 1671.094 856.39252" xmlns="http://www.w3.org/2000/svg" xmlns:usvg="https://github.com/RazrFalcon/usvg" usvg:version="0.8.0">
    <defs/>
    <path id="path79787" fill="#3e73c5" fill-opacity="0.42857145" stroke="#000000" stroke-opacity="0.24675323" stroke-linecap="round" stroke-linejoin="round" d="M 258.52148 0.50585938 L 258.52148 0.50781238 L 258.52148 73.757812 L 229.74023 85.289062 L 209.83398 96.757812 L 200.30273 115.53906 L 189.05273 149.91406 L 186.89648 148.53906 L 185.99023 149.35156 L 186.17773 150.25781 L 187.08398 150.16411 L 186.99028 151.07036 L 188.80278 151.50786 L 185.99028 151.97661 L 185.11528 152.41411 C 185.88528 154.70161 184.14152 153.41536 182.39653 156.00786 L 181.33403 155.75786 L 181.33403 154.85161 L 182.05278 153.94536 L 181.14653 154.66411 L 179.27153 154.85161 L 175.92778 156.00786 L 174.39653 157.82036 L 173.77153 158.82036 L 172.86528 159.63286 L 172.67778 158.72661 L 172.95903 157.82036 L 172.42778 158.82036 L 172.67778 157.82036 L 172.05278 156.91411 L 172.24028 157.91411 L 171.61528 156.91411 L 172.05278 157.91411 L 171.24028 158.82036 L 171.05278 157.91411 L 170.42778 158.82036 L 170.52148 157.91411 L 168.74023 158.10161 L 168.74023 159.07036 L 167.83398 159.72661 L 166.02148 160.35161 L 164.14648 161.41411 L 164.33398 162.32036 L 165.30273 162.50786 L 166.20898 162.94536 L 165.30273 163.13286 L 163.42773 163.03916 L 162.42773 163.56846 L 163.42773 164.13096 L 161.61523 163.41416 L 161.52153 162.50596 L 162.42778 161.97666 L 163.05278 161.06846 L 164.05278 161.31846 L 164.14648 160.44346 L 165.05273 159.44346 L 165.92773 159.88096 L 166.74023 158.97666 L 167.74023 158.19346 L 168.17773 157.28916 L 169.08398 157.00596 L 170.99023 156.91226 L 171.86523 156.56851 L 172.77148 156.72476 L 173.77148 156.09976 L 174.67773 155.84976 L 175.55273 155.03726 L 179.42773 153.41226 L 179.80273 152.50601 L 179.17773 151.59976 L 177.36523 152.69351 L 176.45898 152.69351 L 175.55273 152.31851 L 174.58398 152.31851 L 173.67773 152.59976 L 172.77148 153.41226 L 172.58398 153.84976 L 171.86523 154.75601 L 171.52148 153.84976 L 169.61523 154.66226 L 168.74023 155.28726 L 167.83398 155.66226 L 166.92773 155.84976 L 166.02148 155.56851 L 166.92773 155.28726 L 165.92773 155.47476 L 166.02143 156.38101 L 164.14643 156.19351 L 163.05268 158.09976 L 161.08393 158.25601 L 160.17768 158.91226 L 159.27143 159.25601 L 158.30268 159.44351 L 157.49018 160.34976 L 156.58393 160.69351 L 156.05268 161.69351 L 157.83393 164.13101 L 157.58393 164.19351 L 156.58393 163.66226 L 155.86518 162.69351 L 154.95893 162.13101 L 154.05268 162.50601 L 153.14643 162.13101 L 152.27143 162.75601 L 152.70893 163.75601 L 153.61518 164.28726 L 153.24018 164.28726 L 153.08393 164.13101 L 151.17768 163.47476 L 150.27143 162.84976 L 148.92768 162.50601 L 147.67768 162.41231 L 147.67768 172.22481 L 148.58393 172.66231 L 149.11518 174.56856 L 148.92768 175.81856 L 148.64643 177.06856 L 148.83393 177.53731 L 154.42768 177.44361 L 159.36518 177.53731 L 159.45888 178.41231 L 159.64638 178.69356 L 159.64638 179.59981 L 160.27138 180.59981 L 160.45888 181.84981 L 159.74013 182.84981 L 160.70888 182.91231 L 160.99013 183.91231 L 160.27138 184.81856 L 160.45888 184.81856 L 161.42763 185.63106 L 163.24013 185.09981 L 163.95888 185.25606 L 166.64638 185.53731 L 165.67763 186.06856 L 167.20888 187.88106 L 167.20888 188.59981 L 166.64638 189.50606 L 165.77138 190.13106 L 164.58388 191.38106 L 165.49013 191.38106 L 166.39638 192.19356 L 165.83388 193.09981 L 165.83388 193.38106 L 165.39638 194.25606 L 167.20888 194.88106 L 168.17763 195.53731 L 168.55263 195.97481 L 169.45888 196.25606 L 169.08388 197.13106 L 169.99013 197.59981 L 170.89638 196.97481 L 171.80263 197.13106 L 172.67763 197.78731 L 173.05263 198.75606 L 173.05263 199.31856 L 174.83388 200.84981 L 176.11513 201.63106 L 175.92763 202.53731 L 176.83388 202.53731 L 177.45888 203.09981 L 178.17763 203.97481 L 177.80263 204.88106 L 177.45888 205.16231 L 177.45888 205.97481 L 178.17763 206.84981 L 179.17763 207.03731 L 178.70888 208.31856 L 178.99013 209.28731 L 180.05263 210.63106 L 181.05263 211.19356 L 180.77138 212.97481 L 181.05263 213.25606 L 182.86513 214.41231 L 183.92763 213.97481 L 184.92763 214.78731 L 185.64638 215.69356 L 186.55263 216.22481 L 186.74013 216.75606 L 188.52138 218.19356 L 189.05263 218.28726 L 190.33388 218.47476 L 191.05263 219.47476 L 191.20888 220.34976 L 190.95888 221.25601 L 191.05258 221.72476 L 191.67758 222.59976 L 191.86508 223.50601 L 192.67758 223.69351 L 193.64633 223.25601 L 194.55258 223.50601 L 195.45883 222.88101 L 195.99008 223.31851 L 196.89633 222.88101 L 198.67758 223.41226 L 200.05258 222.97476 L 200.92758 222.97476 L 201.83383 222.25601 L 202.83383 223.06851 L 202.39633 224.03726 L 203.11508 224.94351 L 204.17758 225.66226 L 204.27128 226.56851 L 205.36503 228.38101 L 205.17753 228.63101 L 206.08378 228.91226 L 223.80253 228.91226 L 223.80253 246.63101 L 222.55253 247.00601 L 217.58378 246.91231 L 216.24003 246.91231 L 212.83378 247.34981 L 211.74003 247.97481 L 211.45878 248.44356 L 211.92753 254.81856 L 211.92753 255.00606 L 212.11503 256.63106 L 211.74003 258.50606 L 211.92753 258.97481 L 212.02123 259.06851 L 214.08373 259.16221 L 215.70873 261.56846 L 216.86498 263.00596 L 218.30248 264.28721 L 218.92748 264.63096 L 222.36498 266.63096 L 223.27123 267.59971 L 223.80248 269.94346 L 224.70873 270.56846 L 224.14623 271.28721 L 224.80248 272.19346 L 225.95873 272.72471 L 228.20873 274.16221 L 229.11498 273.91221 L 229.73998 274.72471 L 230.17748 275.78721 L 230.17748 275.97471 L 229.73998 276.50596 L 228.64623 276.41226 L 227.67748 276.59976 C 228.54248 278.52286 229.68102 279.87156 230.92748 280.97476 C 231.2391 281.25016 231.5429 281.50551 231.86498 281.75601 C 231.87098 281.76601 231.88988 281.75601 231.89618 281.75601 C 232.21172 282.00081 232.51329 282.24346 232.83368 282.47476 C 233.49478 282.95356 234.15297 283.39591 234.80243 283.88101 C 235.12382 284.12041 235.42947 284.37401 235.73993 284.63101 C 236.67838 285.40741 237.56079 286.28416 238.30243 287.41226 C 238.54799 287.78536 238.7767 288.16676 238.98993 288.59976 C 239.05623 288.73366 239.08333 288.89696 239.14618 289.03726 C 239.69094 290.25866 240.13829 291.71576 240.36493 293.53726 L 242.05243 295.78726 L 242.70868 296.94351 L 242.52118 298.03726 L 242.52118 298.19351 L 242.05243 299.56851 L 242.05243 304.94351 L 242.42743 305.94351 L 243.77118 307.56851 L 243.95868 308.47476 L 243.58368 308.63101 L 244.48993 309.34976 L 245.48993 309.81851 L 246.02118 310.53726 L 246.92743 311.53726 L 247.27118 311.78726 L 247.27118 312.06851 L 248.17743 312.97476 L 249.08368 313.41226 L 249.27118 313.41226 L 250.08368 313.50596 L 249.61493 315.38096 L 249.45868 316.75596 L 249.70868 317.63096 L 249.80238 317.81846 L 249.27113 318.72471 L 249.08363 319.72471 L 248.64613 320.06846 L 248.27113 320.59971 L 246.92738 319.97471 L 246.02113 319.63096 L 244.58363 320.69346 L 243.58363 320.34971 L 242.70863 320.34971 L 241.33363 320.59971 L 240.98988 319.72471 L 241.08358 319.06846 L 240.98988 318.19346 L 240.27113 317.28721 L 239.64613 317.09971 L 238.73988 318.00596 L 239.64613 318.44346 L 240.27113 319.34971 L 239.80238 319.97471 L 239.27113 320.88096 L 239.08363 321.88096 L 238.45863 322.69346 L 238.36493 322.94346 L 238.20868 323.84971 L 237.39618 324.75596 L 237.02118 325.56846 L 236.77118 326.53721 L 236.77118 326.91221 L 236.11493 326.91221 L 234.95868 326.19346 L 233.70868 326.19346 L 232.80243 326.63096 L 232.08368 327.81846 L 232.08368 333.56846 L 232.17738 336.09971 L 232.52113 337.06846 L 237.64613 337.06846 L 237.64613 339.88096 L 251.42738 339.88096 L 251.42738 348.16221 L 251.42738 371.28721 L 250.98988 372.16221 L 250.08363 371.72471 L 249.08363 371.53721 L 248.17738 372.00596 L 248.17738 372.34971 L 248.64613 374.41221 L 248.64613 375.41221 L 248.89613 375.88096 L 248.73988 377.66221 L 248.73988 377.75591 L 248.98988 378.66216 L 249.36488 379.00591 L 249.36488 379.09961 L 249.45858 379.19331 L 249.89608 380.09956 L 250.98983 381.25581 L 250.17733 382.16206 L 249.27108 383.06831 L 249.27108 383.41206 L 249.36478 384.31831 L 249.08353 384.94331 L 248.89603 385.50581 L 248.27103 386.38081 L 248.45853 387.38081 L 248.36483 387.56831 L 249.27108 388.00581 L 249.45858 388.63081 L 249.08358 389.44331 L 248.73983 389.44331 L 248.27108 389.53701 L 248.27108 389.63271 L 247.83358 390.63271 L 247.73988 390.72641 L 247.36488 390.72641 L 247.27118 390.82011 L 247.11493 391.16386 L 246.92743 391.60136 L 246.83373 391.88261 L 247.11498 392.35136 L 247.11498 392.41386 L 247.27123 393.78886 L 250.23998 395.47636 L 251.14623 395.85136 L 252.05248 395.22636 L 253.05248 395.66386 L 253.30248 396.57011 L 254.11498 396.91386 L 255.02123 397.00756 L 255.92748 397.47631 L 256.02118 397.91381 L 255.83368 399.82006 L 257.36493 402.50756 L 257.45863 403.50756 L 258.27113 405.03881 L 258.52113 405.35131 L 258.52113 411.10131 L 258.52113 413.53881 L 250.70863 413.57001 L 246.64613 411.07001 L 237.64613 411.07001 L 237.64613 433.38251 L 258.52113 433.47621 L 258.52113 855.88246 L 328.08363 855.88246 L 327.92738 684.88246 L 328.08363 665.06996 L 328.08363 508.50746 L 328.08363 472.25746 L 326.92738 472.16376 L 325.39613 471.16376 L 323.14613 470.44501 L 322.42738 469.53876 L 317.48988 468.38251 L 316.48988 467.66376 L 311.61488 465.94501 L 308.83363 463.78876 L 307.83363 462.78876 L 306.95863 462.53876 L 306.39613 462.78876 L 303.52113 462.07001 L 302.55238 461.53876 L 300.55238 461.00751 C 295.67738 453.95621 294.67363 460.52621 290.20863 451.00751 L 292.02113 450.10126 L 292.17738 449.66376 L 292.08368 449.47626 L 292.08368 449.38056 L 292.17738 449.28686 L 292.36488 449.03686 L 293.27113 448.41186 L 294.17738 447.94311 L 295.05238 448.41186 L 295.42738 448.41186 L 295.52108 448.47436 L 295.70858 448.75561 L 296.58358 449.38061 L 296.58358 449.03686 L 296.95858 448.13061 L 296.95858 447.75561 L 296.86488 447.13061 L 297.58363 447.03691 L 298.20863 446.16191 L 297.14613 445.59941 L 297.30238 444.63066 L 297.48988 444.25566 L 296.58363 443.19316 L 296.05238 442.81816 L 296.42738 441.81816 L 296.52108 441.56816 L 296.42738 441.00566 L 295.80238 441.09936 L 295.70868 441.09936 L 294.89618 440.13061 L 293.80243 440.19311 L 293.27118 440.47436 L 293.70868 439.41186 L 293.27118 438.50561 L 292.36493 438.13061 L 291.45868 438.13061 L 291.45868 437.50561 L 290.48993 437.22436 L 290.39623 437.06811 L 290.02123 436.50561 L 289.77123 435.63061 L 289.48998 435.53691 L 289.11498 434.34941 L 288.86498 432.91191 L 288.67748 432.38066 L 287.77123 431.47441 L 286.80248 431.94316 L 285.89623 431.47441 L 285.36498 430.31816 L 285.17748 429.84941 L 284.27123 429.03691 L 283.73998 428.50566 L 283.45873 427.50566 L 283.55243 426.88066 L 283.83368 425.91191 L 284.36493 425.25566 L 284.98408 424.90019 L 284.80829 423.63457 L 285.97236 422.98222 L 285.90396 422.33574 L 286.22232 422.19121 L 286.12862 421.54082 L 286.73994 421.09746 L 287.14815 420.73222 L 287.51729 421.49199 L 288.10127 422.07207 L 288.67354 421.57597 L 289.13252 422.38457 L 290.30635 422.9705 L 291.35518 422.21464 L 291.61494 422.96074 C 292.25994 422.83404 292.90549 422.36333 293.55049 422.99584 L 294.01924 423.6853 L 295.60518 421.25952 C 295.98127 421.20142 296.29269 420.82505 296.7751 421.29862 L 298.21846 421.97049 L 296.7419 415.26151 L 299.74971 409.95682 L 294.33955 406.68143 L 293.45869 402.90604 L 293.45869 400.3494 C 293.53079 400.0579 293.57004 399.7741 293.61494 399.4744 C 293.74357 398.6157 293.80256 397.71285 293.80244 396.81815 C 293.80228 395.61115 293.73684 394.395 293.80244 393.2244 L 301.98994 393.2244 L 302.27119 392.9744 L 302.27119 388.56815 C 302.27074 387.96705 302.26319 387.35615 302.27119 386.75565 L 302.27119 386.3494 C 302.28499 385.6146 302.32489 384.86315 302.36489 384.13065 L 302.36489 376.6619 L 302.36489 375.5994 L 302.36489 370.19315 L 302.55239 369.75565 L 302.55239 367.13065 L 307.11489 367.13065 L 307.11489 363.0994 L 309.55239 363.0994 C 309.50239 362.6477 309.49169 362.4353 309.45869 362.0994 L 309.45869 362.0057 L 309.36499 359.47445 C 309.39959 359.22385 309.45649 358.99545 309.52124 358.66195 C 309.52424 358.64795 309.51824 358.61345 309.52124 358.59945 L 309.73999 357.9432 L 309.83369 356.8807 L 309.83369 356.4432 L 310.27119 355.6307 L 310.27119 354.34945 L 309.45869 353.1932 L 307.11494 353.1932 L 307.11494 350.9432 L 310.55244 350.9432 L 310.55244 350.1307 L 310.45874 348.59945 L 310.45874 347.59945 L 310.89624 346.6307 L 310.80254 344.8182 L 310.80254 343.28695 L 310.08379 342.28695 L 310.08379 341.41195 L 312.17754 341.31825 L 312.80254 340.037 L 312.80254 339.5995 L 312.99004 338.3495 L 312.89634 337.44325 L 312.52134 336.19325 L 312.70884 335.537 L 312.42759 334.662 L 312.42759 334.287 L 309.81627 334.289 L 309.81627 329.63275 L 310.77525 329.63275 L 310.77525 328.55267 L 311.56627 328.44525 L 313.52134 328.44325 L 314.86509 326.63075 L 314.77139 326.4745 L 314.67769 326.0995 L 313.95894 326.0058 L 313.05269 324.1308 L 313.33394 323.9433 L 314.33394 323.9433 L 314.49019 322.9433 L 314.95894 322.6933 L 315.14644 321.78705 L 315.14644 320.6933 L 314.24019 319.72455 L 314.86519 318.4433 L 314.24019 317.53705 L 312.99019 317.53705 L 309.20504 317.53705 L 309.20504 316.30658 L 309.85543 315.74017 L 310.35738 315.40424 L 311.21871 314.88471 L 311.84762 314.79681 L 312.55465 315.03899 L 313.16207 314.5136 L 313.77144 314.03704 L 312.89644 313.06829 L 312.70894 312.59954 L 311.45894 312.41204 L 311.45894 312.16204 L 310.89644 311.44329 L 312.17769 311.44329 L 312.17769 310.72454 L 311.80269 309.72454 L 310.17769 309.34954 L 310.05269 308.56829 C 310.04079 308.53029 310.03459 308.50759 310.02149 308.47459 C 309.91388 308.20339 309.74848 308.11059 309.55274 308.09959 C 309.54164 308.09889 309.53284 308.09969 309.52154 308.09959 C 309.22517 308.09959 308.80025 308.23589 308.27154 308.28709 L 307.58404 308.28709 C 307.55314 308.28709 307.52174 308.29709 307.49034 308.28709 L 307.42784 308.25589 L 306.30284 307.81839 L 305.24034 308.28714 L 304.14659 308.19344 L 303.27159 307.81844 L 301.45909 307.75594 L 300.74034 307.75594 L 299.83409 308.38094 L 299.11534 307.47469 L 299.11534 307.28719 L 298.20909 306.47469 L 297.86534 306.47469 C 297.86134 304.16469 297.88664 301.87724 297.77164 299.56844 L 270.14664 299.56844 L 270.15664 277.08211 L 271.60586 277.08211 L 271.79531 276.39266 L 272.09414 275.96492 L 272.44766 275.68367 L 272.83047 275.19539 L 273.34023 275.16809 L 273.60195 275.81848 L 273.93789 276.35364 L 274.37148 276.0177 L 274.58047 275.56067 L 274.81094 275.32239 L 274.71524 274.99231 L 274.38712 274.78528 L 274.04923 274.44739 L 273.83634 274.0177 L 273.54532 273.73645 L 273.18595 273.36145 L 272.73087 273.07434 L 272.51798 272.49426 L 272.13517 272.39074 L 271.72306 272.21301 L 271.45157 271.78332 L 271.13321 271.5216 L 270.65665 271.34192 L 270.15665 271.21692 L 270.14665 228.91223 L 307.02165 228.91223 C 307.37727 225.68843 307.37228 222.11928 307.3029 218.50598 C 307.2257 214.68847 307.1419 211.33468 307.2092 207.84973 L 307.2092 177.52746 L 366.41428 177.52746 L 366.41428 159.28918 L 344.57249 136.64074 L 336.2346 136.58414 L 332.13108 130.84 L 313.50217 125.68375 L 309.12717 126.40836 L 306.74045 124.90641 L 306.74045 49.193519 L 328.0842 49.193519 L 328.0842 0.50601926 L 258.5217 0.50601926 Z M 265.52148 665.07031 L 294.75 665.07031 L 294.75 684.88281 L 265.52148 684.88281 L 265.52148 665.07031 Z"/>
    <path id="path41940" fill="#8cce55" stroke="#0f380f" stroke-opacity="0.14509804" stroke-linecap="round" stroke-linejoin="round" transform="matrix(1 0 0 1 0.5 1.2670726)" d="M 313.65625 146.5 L 312.75 146.65625 L 312.9375 147.5625 L 313.84375 148 L 314.8125 148 L 314.8125 147.125 L 313.84375 146.65625 Z"/>
    <path id="path41938" fill="#8cce55" stroke="#0f380f" stroke-opacity="0.14509804" stroke-linecap="round" stroke-linejoin="round" transform="matrix(1 0 0 1 0.5 1.2670726)" d="M 306.71875 153.875 L 307.09375 154.3125 L 308 154.6875 L 308.875 153.78125 L 309.78125 154.6875 L 311.59375 154.84375 L 311.9375 153.96875 L 311.6875 152.15625 L 311.40625 151.15625 L 309.59375 150.8125 L 308.71875 151 L 308.53125 150.09375 L 307.625 149.625 L 306.71875 149.7187 C 306.56254 149.677 306.40612 149.6354 306.25 149.59375 L 306.25 149.5938 L 305.8125 149.4688 L 304.9375 148.6563 L 303.03125 148 L 302.5 147.03125 L 301.5 146.5 L 301.5937 147.375 L 302.49995 147.84375 L 301.5937 147.93745 L 300.68745 147.2187 L 299.7187 147.2187 L 298.81245 146.4062 L 297.9062 145.93745 L 296.37495 144.06245 L 295.56245 143.7812 L 294.56245 142.9687 L 295.31245 142.06245 L 295.21875 141.18745 L 296.09375 140.81245 L 295.75 139.0312 L 295.3125 138.12495 L 294.5625 137.12495 L 293.6875 136.31245 L 293.5 135.4062 L 292.78125 134.43745 L 292.96875 133.5312 L 291.6875 131.7187 L 291.7812 130.74995 L 290.81245 128.8437 L 290.81245 127.93745 L 288.99995 126.31245 L 287.0937 125.68745 L 286.2187 124.9687 L 285.2187 124.5312 L 284.31245 123.7187 L 283.49995 123.8124 L 283.49995 124.71865 L 282.62495 124.71865 L 281.62495 123.9999 L 280.7187 123.6249 L 278.8437 123.34365 L 278.56245 124.2499 L 279.4687 124.71865 L 278.4687 124.62495 L 277.56245 125.06245 L 278.18745 126.06245 L 278.12495 126.7812 L 278.56245 128.6562 L 278.74995 128.8437 L 278.84365 129.8437 L 279.3749 130.74995 L 279.4686 131.62495 L 280.18735 132.5312 L 279.9061 133.43745 L 280.7186 134.3437 L 281.0936 135.24995 L 281.9686 135.9687 L 282.3436 136.8437 L 281.43735 137.0312 L 280.5311 137.56245 L 279.62485 137.8437 L 279.81235 138.4687 L 278.9061 137.93745 L 277.93735 137.74995 L 277.6561 136.8437 L 277.93735 135.9687 L 277.0311 135.31245 L 277.0311 134.3437 L 276.0311 132.5312 L 275.9374 131.5312 L 276.1249 130.6562 L 275.15615 130.0937 L 274.2499 130.2812 L 274.4999 129.31245 L 273.53115 128.93745 L 273.43745 128.56245 L 272.43745 128.65615 L 271.5312 127.9374 L 271.0937 127.0624 L 267.74995 126.3124 L 266.7812 126.3124 L 266.6875 127.21865 L 267.21875 127.84365 L 268.125 127.93735 L 269.03125 128.6561 L 270.5625 128.8436 L 269.65625 129.12485 L 268.75 128.93735 L 270.5625 130.74985 L 269.65625 130.65615 L 268.75 130.28115 L 270.5625 131.3749 L 269.65625 131.2812 L 267.84375 130.37495 L 267.93745 131.2812 L 267.0312 130.99995 L 266.06245 130.4687 L 265.06245 130.99995 L 264.62495 131.9062 L 263.62495 131.9999 L 262.7187 131.71865 L 262.2812 132.6249 L 261.37495 133.2499 L 261.99995 132.34365 L 261.0937 132.34365 L 262 131.625 L 262.90625 131 L 263.8125 130.09375 L 263.96875 129.03125 L 261.09375 127.78125 L 259.21875 127.40625 L 258.21875 126.96875 L 256.34375 126.40625 L 255.4375 126.40625 L 254.53125 126.78125 L 252.90625 128.5625 L 253.8125 128.84375 L 252.90625 129.65625 L 251.03125 129.56255 L 249.125 130.37505 L 248.5 130.28135 L 248.3125 129.9376 L 249.21875 129.46885 L 249.6875 128.5626 L 250.5625 128.21885 L 251.21875 128.12515 L 250.9375 127.2189 L 251.28125 125.3439 L 250.84375 124.43765 L 249.9375 123.5314 L 249.03125 123.2814 L 248.0625 123.1877 L 248.0625 123.18745 L 243.75 124.7187 L 242.84375 124.8124 L 241.9375 125.2499 L 240.9375 125.3436 L 240.03125 125.7811 L 239.15625 125.9686 L 237.25 126.87485 L 235.375 127.31235 L 234.46875 128.2186 L 230.6875 130.4686 L 229.875 131.4686 L 230.78125 132.2811 L 231.78125 132.2811 L 232.03125 133.1561 L 230.15625 133.62485 L 229.25 134.24985 L 228.34375 135.1561 L 227.53125 136.12485 L 227.34375 137.0311 L 227.43745 137.93735 L 228.43745 138.8436 L 229.3437 138.12485 L 230.31245 138.21855 L 231.2187 138.7498 L 232.12495 138.1248 L 233.12495 138.1248 L 234.0312 138.84355 L 233.0312 139.1873 L 232.12495 139.1873 L 231.2187 139.7498 L 232.12495 140.53105 C 234.22495 140.25855 236.5312 140.6373 238.5312 139.8123 L 241.4062 139.46855 L 243.18745 139.03105 L 245.0937 139.5623 L 245.99995 139.28105 L 244.99995 139.7498 L 243.0937 139.6561 L 242.2187 139.81235 L 241.31245 140.0936 L 242.2187 140.4686 L 241.31245 140.81235 L 240.31245 140.81235 L 239.4062 140.99985 L 238.43745 141.2811 L 238.06245 141.5311 L 233.31245 142.43735 L 231.49995 143.24985 L 230.87495 144.1561 L 231.68745 145.12485 L 233.4687 146.0311 L 234.18745 146.93735 L 237.9687 147.12485 L 240.68745 146.8436 L 241.6562 147.37485 L 242.56245 147.2186 L 248.24995 146.93735 L 249.2187 146.49985 L 250.12495 146.56235 L 251.12495 146.2186 C 253.90245 146.7224 256.6112 147.67735 259.4687 147.93735 L 260.2187 148.81235 L 260.8437 149.0936 L 262.7187 149.2811 L 261.81245 149.9061 L 259.93745 149.8124 L 259.0312 149.6249 L 258.0312 150.1874 L 257.1562 150.34365 L 254.24995 149.8124 L 252.37495 149.9061 L 249.5937 149.4686 L 246.7812 149.81235 L 244.9062 149.90605 L 237.43745 151.0623 L 236.43745 151.34355 L 235.56245 151.78105 L 235.18745 152.15605 L 235.99995 153.96855 L 236.9062 154.6873 L 237.87495 155.03105 L 239.1562 156.84355 L 241.93745 157.90605 L 245.62495 158.3748 L 246.62495 158.09355 L 247.49995 158.28105 L 249.4062 157.9998 L 250.31245 158.28105 L 251.2187 158.28105 L 253.0937 158.8123 L 252.74995 159.71855 L 253.0937 160.6248 L 252.9062 161.4998 L 253.18745 162.4998 L 253.81245 163.40605 L 254.7187 163.84355 L 255.7187 164.5623 L 256.5937 164.656 L 257.49995 164.406 L 262.2812 164.031 L 264.06245 164.1247 L 263.18745 163.84345 L 264.9687 163.59345 L 265.9687 163.7497 L 266.87495 163.4997 L 267.74995 163.6872 L 268.6562 163.3122 L 269.6562 163.4059 L 271.5312 163.2184 L 272.5312 162.7809 L 273.43745 162.7809 L 274.3437 162.49965 L 277.12495 160.7809 L 278.99995 160.8746 L 281.81245 160.2496 L 282.68745 159.34335 L 283.68745 158.71835 L 283.68745 157.8121 L 284.68745 157.28085 L 285.2187 156.3746 L 286.2187 156.7496 L 286.74995 157.65585 L 286.31245 158.53085 L 287.18745 159.1871 C 290.60745 158.1709 290.21745 160.1559 292.87495 159.6246 L 291.9687 160.53085 L 292.87495 161.2496 L 294.74995 161.4996 L 295.6562 160.96835 L 296.6562 161.34335 L 299.43745 161.78085 L 300.3437 162.15585 L 301.24995 161.59335 L 302.2187 161.96835 L 304.0312 161.4371 L 304.93745 160.71835 L 306.24995 160.65585 L 306.71875 160.62505 L 306.81245 160.62505 L 307.62495 159.7188 L 307.71865 158.7188 L 306.8124 158.2813 L 306.7187 158.2813 L 306.71875 158.28125 L 306.25 158.46875 L 306.24995 158.46835 L 305.9062 158.6246 C 306.03672 158.30404 306.15702 157.97912 306.2812 157.6563 C 306.38612 157.42962 306.57124 157.21076 306.7187 157.0001 L 306.9062 156.7501 L 306.7187 156.6564 L 306.25 156.46875 L 306.24995 156.46835 L 305.99995 156.37465 L 305.0312 156.46835 L 304.125 157 L 303.21875 157.28125 L 302.3125 158 L 301.59375 158.90625 L 301.96875 158 L 301.96875 156.21875 L 300.15625 155.46875 L 301.0625 155.03125 L 302.84375 156.03125 L 303.84375 155.93755 L 304.375 155.0313 L 303.5625 154.0313 L 304.5625 153.87505 L 305.46875 153.4063 Z"/>
    <path id="path41934" fill="#8cce55" stroke="#0f380f" stroke-opacity="0.14509804" stroke-linecap="round" stroke-linejoin="round" transform="matrix(1 0 0 1 0.5 1.2670726)" d="M 325.09375 153.25 L 324.1875 153.96875 L 323.71875 154.84375 L 324.09375 155.75 L 325 156.5625 L 324.09375 156.375 L 323.1875 155.5625 L 323.2812 157.46875 L 322.37495 157.90625 L 321.8437 158.8125 L 320.0312 159.1875 L 319.06245 159.0938 L 318.1562 159.62505 L 318.3437 160.5313 L 319.24995 161.43755 L 320.2187 161.50005 L 321.12495 160.7813 L 321.31245 161.68755 L 323.0937 162.4063 L 323.4687 161.50005 L 323.9062 162.4063 L 324.9062 162.93755 L 325.81245 163.03125 L 326.7812 163.5 L 327.68745 164.125 L 328.5937 164.125 L 329.49995 163.75 L 330.4062 164.3125 L 332.0937 164.84375 L 332.99995 164.65625 L 333.9062 163.84375 L 334.9062 163.40625 L 337.30683 161.48119 L 336.67569 161.02791 L 335.39851 161.60066 L 334.77494 161.29953 L 334.56245 159.6251 C 334.50415 159.26834 334.4181 158.89275 334.3437 158.5314 L 333.81245 159.5314 L 333.2812 157.6564 L 331.37495 156.6564 L 330.4062 156.2814 L 328.5937 154.68765 L 327.68745 155.0314 L 327.78115 154.12515 L 325.96865 153.25015 L 325.09365 153.25015 Z"/>
    <path id="path41928" fill="#8cce55" stroke="#0f380f" stroke-opacity="0.14509804" stroke-linecap="round" stroke-linejoin="round" transform="matrix(1 0 0 1 0.5 1.2670726)" d="M 335.78125 155.21875 L 334.90625 155.65625 L 334.53125 156.5625 L 335.4375 156.75 L 335.875 155.84375 L 336.0625 156.84375 L 335.875 157.71875 L 336.875 157.5625 L 337.3125 156.65625 L 336.875 155.75 Z"/>
    <path id="path41926" fill="#8cce55" stroke="#0f380f" stroke-opacity="0.14509804" stroke-linecap="round" stroke-linejoin="round" transform="matrix(1 0 0 1 0.5 1.2670726)" d="M 331.1875 155.65625 L 332.09375 156.5625 L 333.09375 157.09375 L 334 156.75 L 333.9063 155.84375 L 333.0938 156.03125 L 331.18755 155.65625 Z"/>
    <path id="path41924" fill="#8cce55" stroke="#0f380f" stroke-opacity="0.14509804" stroke-linecap="round" stroke-linejoin="round" transform="matrix(1 0 0 1 0.5 1.2670726)" d="M 310.875 155.9375 L 309.875 156.21875 L 310.59375 157.09375 L 311.125 156.21875 Z"/>
    <path id="path41914" fill="#8cce55" stroke="#0f380f" stroke-opacity="0.14509804" stroke-linecap="round" stroke-linejoin="round" transform="matrix(1 0 0 1 0.5 1.2670726)" d="M 308.0625 158.71875 L 308.34375 159.625 L 308.96875 158.71875 Z"/>
    <path id="path41912" fill="#8cce55" stroke="#0f380f" stroke-opacity="0.14509804" stroke-linecap="round" stroke-linejoin="round" transform="matrix(1 0 0 1 0.5 1.2670726)" d="M 314.90625 159.625 L 315.09375 160.53125 L 316 160.78125 L 316 160.625 L 315.9063 159.625 L 314.9063 159.625 Z"/>
    <path id="path41910" fill="#8cce55" stroke="#0f380f" stroke-opacity="0.14509804" stroke-linecap="round" stroke-linejoin="round" transform="matrix(1 0 0 1 0.5 1.2670726)" d="M 314.09375 160.15625 L 313.125 160.4375 L 313.125 162.21875 L 314 162.6875 L 314.90625 162.0625 L 315.375 161.0625 L 314.46875 160.34375 Z"/>
    <path id="path41904" fill="#8cce55" stroke="#0f380f" stroke-opacity="0.14509804" stroke-linecap="round" stroke-linejoin="round" transform="matrix(1 0 0 1 0.5 1.2670726)" d="M 306.25 163.4687 L 306.7187 163.5936 L 307.2812 163.74985 L 308.1562 163.12485 L 308.1562 162.2186 L 307.2812 161.87485 L 307.28125 161.875 L 306.71875 162.15625 L 306.375 162.3125 L 306.25 162.4062 L 306.25 162.40625 L 305.375 163.03125 Z"/>
    <path id="path42069" fill="#8cce55" stroke="#0f380f" stroke-opacity="0.14509804" stroke-linecap="round" stroke-linejoin="round" transform="matrix(1 0 0 1 0.5 1.2670726)" d="M 365.78515 158.28125 L 363.9688 159.96875 L 363.50005 160.875 L 363.7813 161.78125 L 363.23938 162.88955 L 362.60696 162.80775 L 361.92875 163.5209 L 361.99575 164.56341 L 360.42449 165.94364 L 360.34379 165.18741 L 359.71879 163.40616 L 359.90629 161.68741 L 359.28129 159.81241 L 356.5 158 L 357.375 157.71875 L 357.375 158.1875 L 358.28125 158.2812 L 358.75 157.37495 L 359.625 156.93745 L 360.53125 156.84375 L 359.625 156.125 L 358.75 156.375 L 356.84375 155.75 L 355.9375 156.03125 L 356.84375 155.3125 L 355.9375 154.9375 L 354.96875 155.3125 L 354.5 155.75 L 353.59375 156.21875 L 352.71875 155.84375 L 351.875 155.3125 L 350.31348 154.56622 L 347.68882 154.48292 L 351.4375 153.37496 L 351.8125 153.15621 L 352.71875 152.24996 L 353.0625 152.15626 L 352.15625 151.43751 L 351.1875 151.53121 L 351.53125 150.62496 L 352.4375 150.71866 L 353.34375 151.15616 L 355.21875 150.99991 L 353.78125 149.09366 L 352.875 149.62491 L 352.875 148.65616 L 352 148.09366 L 352.25 147.12491 L 350.375 146.40616 L 349.46875 145.49991 L 348.375 145.03116 L 348.9375 144.15616 L 349.0312 142.34366 L 348.74995 141.43741 L 347.74995 140.53116 L 347.2187 139.65616 L 345.4062 138.84366 L 345.06245 137.84366 L 344.06245 137.40616 L 343.1562 137.31246 L 342.2812 137.74996 L 341.99995 136.84371 L 341.0937 137.40621 L 341.1874 136.49996 L 341.5624 135.59371 L 340.5624 135.24996 L 340.5625 135.25 L 338.65625 135.59375 L 338.125 136.5 L 339.9375 136.5 L 340.84375 136.3125 L 339.9375 136.59375 L 338.03125 136.78125 L 337.21875 137.65625 L 335.4375 138.46875 L 335.3438 139.375 L 336.25005 139.5625 L 337.2188 139.4688 L 336.7813 140.37505 L 336.6876 141.2813 L 335.78135 141.0938 L 334.6251 140.2813 L 333.71885 140.375 L 332.71885 141.28125 L 332.1876 143.96875 L 331.7501 144.96875 L 332.28135 145.84375 L 333.1876 146.65625 L 334.09385 146.65625 L 334.96885 146.21875 L 334.2501 147.125 L 335.15635 147.46875 L 334.2501 147.21875 L 333.3751 147.5625 L 333.0001 148.46875 L 332.09385 149.1875 L 331.9376 150.1875 L 332.09385 151.0625 L 332.8126 151.96875 L 333.90635 152.5 L 334.09385 153.40625 L 334.96885 153.96875 L 335.8751 153.87505 L 336.78135 154.50005 L 339.5626 155.56255 L 340.5626 154.8438 L 341.46885 155.75005 L 342.28135 156.6563 L 344.15635 156.8438 L 345.0626 156.12505 L 346.0626 156.12505 L 345.9689 157.00005 L 346.68765 157.2813 L 344.87515 158.7188 L 344.68765 157.81255 L 345.5939 157.0938 L 344.68765 157.4688 L 343.81265 157.3751 L 342.81265 157.65635 L 342.43765 158.53135 L 343.3439 159.1876 L 342.81265 160.0626 L 341.9064 160.71885 L 341.0939 161.59385 L 341.37515 162.59385 L 342.81265 162.40635 L 344.62515 161.34385 L 343.7189 161.6876 L 343.9689 160.71885 L 344.68765 159.8126 L 345.50015 160.71885 L 345.7814 161.59385 L 344.9689 163.5001 L 345.87515 163.5001 L 345.96885 163.9376 L 343.96885 164.5626 L 343.09385 165.1876 L 342.90635 166.1876 L 341.09385 167.09385 L 340.1876 168.0001 L 338.40635 167.8126 L 337.40635 167.9063 L 336.78135 168.81255 L 336.68765 169.68755 L 335.9689 170.68755 L 336.87515 171.2188 L 337.68765 172.12505 L 337.50015 173.0313 L 338.31265 173.93755 L 337.5939 175.2813 L 337.71588 176.67282 L 366.04285 176.67282 Z"/>
    <path id="path41930" fill="#8cce55" stroke="#0f380f" stroke-opacity="0.14509804" stroke-linecap="round" stroke-linejoin="round" transform="matrix(1 0 0 1 0.5 1.2670726)" d="M 355.21875 153.59375 L 354.34375 153.875 L 355.21875 154.40625 Z"/>
    <path id="path41920" fill="#8cce55" stroke="#0f380f" stroke-opacity="0.14509804" stroke-linecap="round" stroke-linejoin="round" transform="matrix(1 0 0 1 0.5 1.2670726)" d="M 361.4375 156.9375 L 360.625 157 L 360.28125 157.90625 L 361.25 157.90625 Z"/>
    <path id="path41918" fill="#8cce55" stroke="#0f380f" stroke-opacity="0.14509804" stroke-linecap="round" stroke-linejoin="round" transform="matrix(1 0 0 1 0.5 1.2670726)" d="M 359.1875 157.8125 L 359.625 158.71875 L 360.09375 158 Z"/>
    <path id="path41906" fill="#8cce55" stroke="#0f380f" stroke-opacity="0.14509804" stroke-linecap="round" stroke-linejoin="round" transform="matrix(1 0 0 1 0.5 1.2670726)" d="M 362.6875 161.5 L 362.34375 161.875 L 362.34375 162.15625 C 362.54415 162.05965 362.74583 161.9857 362.96875 161.9375 Z"/>
    <path id="path41964" fill="#8cce55" stroke="#0f380f" stroke-opacity="0.14509804" stroke-linecap="round" stroke-linejoin="round" transform="matrix(1 0 0 1 0.5 1.2670726)" d="M 306.71875 130.9063 L 307 131 L 307.34375 131.90625 L 307.28125 132.09375 L 308.15625 132.71875 L 309.0625 132.81245 L 309.96875 132.43745 L 310.875 132.7187 L 311.5 133.7187 L 312.5 133.43745 L 313.375 133.9687 L 315.09375 135.68745 L 316.90625 137.0312 L 318.6875 138.74995 L 319.5 140.62495 L 320.40625 140.62495 L 321.3125 141.0937 L 322.21875 141.2812 L 323.1875 141.0937 L 324.09375 140.37495 L 324.90625 139.4687 L 324 138.5625 L 323.375 137.65625 L 323.375 136.78125 L 324.28125 136.21875 L 323.71875 137.125 L 324 138.03125 L 325 138.28125 L 326.875 138.46875 L 327.78125 138.46875 L 328.78125 138.125 L 330.65625 136.84375 L 331.65625 136.84375 L 332.28125 135.96875 L 331.375 136.03125 L 332.28125 135.25 L 331.28125 135.0625 L 332.28125 134.34375 L 332.09375 133.4375 L 331.125 132.625 L 333 131.625 L 332.9063 130.75 L 332.37505 129.84375 L 332.0938 128.84375 L 330.31255 129.3125 L 329.4063 129.9375 L 329.68755 129.03125 L 329.32709 128.53348 L 323.9063 126.7813 L 323.2813 127.7813 L 323.0938 126.7813 L 313.5625 124.81245 L 314.46875 125.24995 L 315.28125 126.1562 L 315.71875 127.06245 L 314.75 127.5937 L 314 126.5937 L 314.0937 127.5937 L 314.37495 128.49995 L 313.37495 128.6562 L 312.12495 128.5625 L 311.2187 129.125 L 310.31245 129.0313 L 309.43745 128.31255 L 308.7187 127.4063 L 307.81245 126.9688 L 307.18745 126.06255 L 306.7187 125.87505 L 306.2812 125.68755 L 306.25 125.68745 L 305.28125 125.87495 L 304.375 126.1562 L 304.03125 127.12495 L 303.3125 128.0312 L 303.3125 128.93745 L 305.1875 130.2812 Z"/>
    <path id="path41744" fill="#8cce55" stroke="#0f380f" stroke-opacity="0.14509804" stroke-linecap="round" stroke-linejoin="round" transform="matrix(1 0 0 1 0.5 1.2670726)" d="M 156.53125 154.5 L 156.43755 155.46875 L 155.7188 156.375 L 153.4688 156.375 L 152.5938 156.75 L 152.6563 157.71875 L 152.93755 158.28125 L 151.12505 157.5625 L 151.12505 158.46875 L 150.25005 157.71875 L 150.34375 158.625 L 151.3125 159.25 L 150.34375 158.90625 L 149.4375 158.375 L 149.4375 159.25 L 150.34375 159.90625 L 151.40625 160.15625 L 149.53125 160.625 L 150.34375 161.0625 L 151.3125 161.0625 L 151.6875 160.53125 L 152.65625 160.875 L 153.5625 161.15625 L 154.46875 160.4375 L 154.90625 160.59375 L 154.90625 160.62495 L 155.5 161.37495 L 156.28125 162.4062 L 157.125 162.74995 L 156.78125 162.3437 L 156.34375 161.87495 L 155.28125 160.1562 L 156.09375 159.43745 L 158.96875 156.8437 L 159.59375 155.8437 L 158.6875 156.2187 L 157.71875 155.8437 L 157.4375 154.8437 L 156.53125 154.49995 L 156.53125 154.5 Z"/>
    <path id="path41748" fill="#8cce55" stroke="#0f380f" stroke-opacity="0.14509804" stroke-linecap="round" stroke-linejoin="round" transform="matrix(1 0 0 1 0.5 1.2670726)" d="M 185.15625 146.65625 L 184.71875 147.5625 L 185.6875 147.125 L 185.15625 146.65625 Z"/>
    <path id="path5551" fill="#8cce55" stroke="#0f380f" stroke-opacity="0.14509804" stroke-linecap="round" stroke-linejoin="round" transform="matrix(1 0 0 1 0.5 1.2670726)" d="M 297.71875 65.500004 L 291.875 66.218754 L 290.875 65.937504 L 289.90625 67.750004 L 289.99995 68.718754 L 290.9687 69.187504 L 293.7812 68.906254 L 293.7812 69.812504 L 292.87495 70.812504 L 293.7812 71.343754 L 294.74995 70.812504 L 295.31245 69.812504 L 297.0937 69.531254 L 298.0937 70.187504 L 297.0937 70.968754 L 297 71.781254 L 298.90625 71.437504 L 299.8125 71.531254 L 299.7188 72.437504 L 297.62505 72.875004 L 298.5313 73.218754 L 299.5313 73.218754 L 299.9688 74.125004 L 299 74.312504 L 297 74.218754 L 296.09375 73.875004 L 294.125 73.687504 L 293.125 73.937504 L 292.59375 74.500004 L 293.3125 75.406254 L 295.3125 76.843754 L 297.09375 77.000004 L 298.1875 76.750004 L 299.0625 76.281254 L 302.9375 75.656254 L 302.9375 76.562504 L 304.03125 77.093754 L 305.8125 76.656254 L 306.25 76.687504 L 306.25 68.812504 L 305.90625 69.000004 L 305.46875 69.000004 L 304.9375 69.906254 L 303.9375 70.625004 L 303.3125 69.625004 L 303.84375 68.718754 L 303.03125 67.843754 L 302.5 66.937504 L 301.5 66.406254 L 299.625 66.031254 L 298.625 65.593754 Z M 267.75 71.781254 L 265.875 72.062504 L 263 72.968754 L 262 73.687504 L 261 73.937504 L 260.03125 73.875004 L 259.03125 74.031254 L 256.15625 74.843754 L 255.25 75.218754 L 254.25 76.031254 L 255.25 76.750004 C 263.4125 73.886254 259.7 78.848754 264.6875 75.750004 L 266.59375 76.562504 L 267.59375 76.656254 L 269.5625 76.187504 L 270.5625 76.468754 L 272.4375 76.281254 L 272.96875 74.500004 L 270.1875 72.687504 L 269.65625 72.500004 Z M 302.0625 76.750004 L 301.15625 77.375004 L 301.59375 78.281254 L 302.59375 77.656254 L 302.59375 76.750004 Z M 267.75 78.375004 L 266.875 78.437504 L 265.875 78.812504 L 264.0625 78.625004 C 260.92375 79.497504 256.985 78.820004 254.34375 81.062504 L 254.625 81.968754 L 254.8125 83.750004 L 256.59375 84.937504 L 257.59375 84.843754 L 258.3125 85.843754 L 260.21875 86.187504 L 264.0625 85.187504 L 264.96875 85.375004 L 265.96875 85.031254 L 267.9375 84.656254 L 268.84375 84.218754 L 269.125 83.312504 L 269.1875 82.312504 L 268.21875 81.593754 L 266.3125 81.781254 L 265.59375 80.875004 L 268.65625 80.531254 L 270.65625 79.968754 L 271.53125 79.093754 L 270.65625 78.437504 L 269.65625 78.437504 Z M 249.59375 78.718754 L 247.96875 79.187504 L 246.15625 80.062504 C 248.32875 81.740004 250.555 83.773754 253 81.156254 L 252.09375 80.437504 L 251.125 79.906254 L 250.125 79.625004 Z M 305.375 80.625004 L 304.46875 80.875004 L 304.65625 81.781254 L 305.65625 82.406254 L 306.25 82.593754 L 306.25 80.625004 Z M 288.5625 81.875004 L 288.4688 82.781254 L 289.7188 85.562504 L 291.68755 87.375004 L 292.5938 87.625004 L 293.5938 88.250004 L 294.75005 88.000004 L 295.6563 87.437504 L 295.31255 86.468754 L 294.31255 85.656254 L 293.4063 85.281254 L 293.06255 84.406254 L 292.25 83.500004 L 289.8125 81.968754 Z M 239.40625 83.937504 L 237.53125 84.218754 L 236.53125 84.843754 L 237.53125 85.468754 L 238.53125 85.468754 L 237.625 86.187504 L 236.625 85.843754 L 235.71875 86.375004 C 231.495 85.283754 230.7075 85.861254 227.09375 86.187504 L 226.28125 87.187504 L 224.46875 88.250004 L 223.59375 89.156254 L 223.3125 89.156254 L 222.5 90.156254 L 221.5 90.500004 L 221.25 91.406254 L 218.375 92.500004 L 217.46875 93.125004 L 216.75 94.031254 L 215.84375 94.843754 L 213.875 94.843754 L 212.875 95.000004 L 211.96875 95.375004 L 210.09375 96.812504 L 209.53125 97.718754 L 211.34375 97.343754 L 211.625 98.250004 L 210.8125 99.156257 L 211.78125 99.687507 L 212.78125 99.343757 L 213.6875 98.687504 L 214.65625 98.531254 L 217.375 99.593757 L 218.375 99.062507 L 218.625 98.062504 L 219.09375 97.156254 L 220.0625 97.437504 L 219.875 98.437504 L 220.78125 98.968757 L 221.40625 100.78126 L 222.3125 100.31251 L 223.3125 100.50001 L 224.3125 100.12501 L 224.84375 99.250007 L 225.09375 98.250004 L 224.21875 97.875004 L 225.1875 97.875004 L 225.1875 97.000004 L 224.9375 96.093754 L 225.84375 96.531254 L 226.46875 97.437504 L 227.4375 98.156254 L 228.34375 97.343754 L 228.34375 96.437504 L 229.34375 96.281254 L 229.78125 95.375004 L 228.875 94.656254 L 228.625 93.656254 L 229.53125 94.125004 L 230.5 93.750004 L 230.96875 92.750004 L 231.125 91.875004 L 232.03125 91.687504 L 233.03125 91.218754 L 233.3125 92.125004 L 232.84375 93.125004 L 232.84375 94.031254 L 232.40625 94.906254 C 233.6575 96.532454 235.3975 96.892504 237.15625 95.812504 L 237.15625 94.906254 L 236.90625 94.031254 L 237.875 93.843754 L 238.78125 93.468754 L 240.78125 93.218754 L 241.65625 92.750004 L 242.125 91.875004 L 241.21875 90.968754 L 240.3125 90.406254 L 241.3125 90.250004 L 242.28125 90.343754 L 242.28125 89.437504 L 241.3125 89.156254 L 240.5 88.250004 L 241.40625 87.437504 L 242.375 87.281254 L 244.28125 86.375004 L 243.375 85.468754 L 241.5 84.843754 L 240.40625 84.218754 Z M 296.46875 87.718754 L 296.1875 88.625004 L 297.09375 87.718754 Z M 250.65625 90.406254 L 248.875 90.593754 L 247.875 90.875004 L 247.9687 91.875004 L 250.8437 92.218754 L 253.0937 91.937504 L 253.4687 91.062504 L 252.56245 90.593754 L 251.6562 90.406254 L 250.6562 90.406254 Z M 275.40625 90.781254 L 274.5 91.156254 L 273.53125 91.062504 L 270.71875 93.312504 L 270.65625 94.187504 L 269.65625 94.375004 L 268.65625 94.843754 L 268.125 95.718754 L 269.65625 96.812504 L 270.65625 96.718754 L 272.4375 97.718754 L 272.90625 98.625004 L 271.09375 99.500007 L 270.09375 99.593707 L 269.65625 99.874957 L 269.65625 100.12496 L 270.65625 100.31246 L 271.53125 100.87496 L 273.53125 101.31246 L 274.40625 101.65621 L 275.0625 102.65621 L 273.25 103.56246 L 269.65625 103.28121 L 267.75 103.37491 L 266.78125 103.12491 L 265.875 103.12491 L 263.96875 103.56241 L 263.09375 102.56241 L 263.34375 101.65616 L 262.4375 100.87491 L 261.46875 100.49991 L 260.46875 100.78116 L 259.46875 100.78116 L 260.375 100.06241 L 261.375 99.96871 L 260.46875 99.15621 L 259.5625 98.78121 L 258.59375 98.624957 L 258.03125 97.718707 L 256.0625 96.437457 L 254.25 96.437457 L 251.375 97.156207 L 250.75 96.187457 L 250.6563 95.281207 L 249.75005 94.374957 L 248.7813 94.187457 L 247.87505 94.281207 L 246.87505 94.031207 L 244.9063 94.656207 L 243.9063 94.749957 L 243.0313 95.281207 L 242.2188 96.281207 L 243.18755 96.718707 L 245.18755 96.718707 L 247.06255 97.343707 L 247.9688 97.343707 L 247.06255 97.531207 L 244.2813 97.156207 L 242.2813 97.156207 L 241.2188 97.093707 L 239.4063 97.437457 L 238.5938 98.437457 L 239.50005 98.687457 L 238.5938 99.34371 L 239.5938 100.12496 L 245.3438 100.12496 L 247.25005 99.87496 L 246.25005 100.31246 L 243.37505 100.49996 L 241.56255 100.78121 L 237.7188 100.93746 L 236.81255 101.74996 L 236.0938 102.74996 C 240.39505 103.96746 242.29005 102.17871 246.43755 101.84371 L 244.5313 102.74996 L 243.56255 102.93746 L 241.75005 103.84371 L 236.0938 103.90621 L 235.18755 104.56246 L 234.56255 105.43746 L 234.75005 106.43746 L 236.5313 106.87496 L 237.43755 106.87496 L 238.43755 107.24996 L 239.4063 106.62496 L 240.31255 106.43746 L 240.31255 107.43746 L 241.31255 107.24996 L 241.75005 108.15621 L 242.75005 108.49996 L 243.6563 108.49996 L 243.75 107.53121 L 245.625 107.15621 L 245.4375 108.06246 L 246.34375 108.68746 L 247.34375 108.40621 L 249.21875 107.53121 L 249.6875 106.62496 L 248.78125 105.90621 L 249.6875 106.09371 L 250.5625 105.71871 L 250.84375 104.81246 L 251.84375 104.81246 L 253.71875 104.46871 L 251.84375 105.62496 L 251.46875 106.53121 L 252.46875 106.53121 L 251.46875 106.96871 L 252.46875 107.87496 L 254.34375 107.68746 L 255.25 107.24996 L 256.25 107.43746 L 257.15625 107.06246 L 257.06255 106.15621 L 257.9688 106.62496 L 258.8438 106.43746 L 259.8438 107.06246 L 260.75005 107.06246 L 261.6563 106.71871 L 262.5313 106.81241 L 263.5313 106.43741 L 264.43755 105.90616 L 265.43755 106.09366 L 264.43755 106.96866 L 262.62505 107.68741 L 261.6563 108.49991 L 259.8438 108.34366 L 256.1563 108.59366 L 253.37505 109.84366 L 252.4688 109.93736 L 249.5938 110.84361 L 249.4063 111.84361 L 251.2813 112.90611 L 253.18755 113.62486 L 256.06255 113.90611 L 258.8438 113.62486 L 261.6563 112.99986 L 265.50005 111.65611 L 266.4063 111.21861 L 266.68755 110.21861 L 267.5938 110.31231 L 268.56255 109.84356 L 269.4688 109.84356 L 270.56255 109.59356 L 271.5313 109.68726 L 275.31255 107.78101 L 276.2188 108.15601 L 275.31255 108.49976 L 276.31255 108.68726 L 277.31255 109.12476 L 278.2813 109.06226 L 279.2813 108.24976 L 280.00005 107.43726 L 280.37505 108.34351 L 281.25005 108.96851 L 283.25005 109.06221 L 285.0313 108.34346 L 285.93755 108.34346 L 287.8438 107.96846 L 288.7188 106.96846 L 288.6251 106.09346 L 289.6251 105.18721 L 289.90635 104.28096 L 290.00005 103.28096 L 290.87505 102.46846 L 290.7188 101.59346 L 290.8125 100.59346 L 290.09375 99.68721 L 289.1875 99.06221 L 286.46875 98.437207 L 285.59375 98.437207 L 284.6875 98.96846 L 284.125 99.96846 L 285.125 100.78096 L 284.21875 101.12471 L 284.0625 102.03096 L 283.40625 101.12471 L 283.15625 100.21846 L 282.25 99.87471 L 281.25 99.87471 L 280.375 100.06221 L 279.375 100.93721 L 279.2813 99.96846 L 280.2813 99.40596 L 280.00005 98.530957 L 279.00005 98.343457 L 278.12505 98.530957 L 277.12505 98.530957 L 277.03135 97.624707 L 277.9376 96.999707 L 278.1876 96.093457 L 277.375 95.187507 L 276.40625 95.000007 L 276.65625 94.562507 L 276.5 93.656257 L 275.59375 92.843757 L 276.5 92.593757 L 276.3125 91.687507 Z M 296.8125 92.593754 L 295.5625 92.750004 L 294.5 93.218754 L 294.75 94.125004 L 295.65625 94.906254 L 295.65625 95.906254 L 297.625 95.906254 L 298.625 96.093754 L 300.4375 95.812504 L 301.3125 95.468754 L 301.5 94.562504 L 299.53125 94.031254 L 298.625 93.218754 L 297.71875 92.750004 Z M 306.25 95.875004 L 306.09375 96.625004 L 306.25 96.656254 Z M 301.96875 96.000004 L 296.28125 96.906254 L 295.65625 97.343754 L 295.65625 98.250004 L 298.34375 98.625004 L 300.4375 98.625004 L 302.3125 98.343754 L 303.21875 98.062504 L 304.03125 97.156254 L 303.65625 96.187504 L 302.9375 96.000004 Z M 234.28125 97.875004 L 233.375 97.968754 L 231.59375 99.250007 L 230.59375 99.343707 L 229.6875 99.781207 L 226.8125 101.93746 L 226.1875 102.93746 L 229.15625 103.56246 L 230.0625 103.46876 L 231.0625 103.03126 L 231.9375 102.12501 L 232.84375 101.50001 L 233.21875 100.59376 L 234.75 98.781257 Z M 303.21875 98.250004 L 300.4375 98.875007 L 299.4375 99.156257 L 298.4375 99.968757 L 300.34375 99.875057 L 303.125 99.343807 L 304.125 99.062557 L 305.09375 98.250054 Z M 305.28125 99.156257 L 303.40625 99.500007 L 302.40625 99.781257 L 300.53125 101.31251 L 302.5 101.40621 L 304.28125 100.93746 L 304.9375 100.06246 L 306.25 99.718707 L 306.25 99.187457 L 306.1875 99.156257 Z M 211.0625 99.687507 L 211.0625 99.968757 L 212.0625 99.781257 Z M 218.71875 99.687507 L 218.62505 100.59376 L 218.18755 101.59376 L 219.0938 100.78126 L 219.25005 99.781257 L 218.7188 99.687557 Z M 306.25 100.09376 L 306 100.12496 L 305.03125 100.68746 L 306 100.93746 L 306.25 101.37496 L 306.25 100.09371 Z M 298.625 100.12496 L 299.625 100.49996 L 300.53125 100.12496 Z M 304.65625 101.59371 L 302.78125 102.46871 L 303.5625 103.37496 L 304.5625 103.46866 L 305.46875 103.18741 L 306.25 103.24991 L 306.25 101.78116 L 305.5625 101.59366 L 304.65625 101.59366 Z M 296.1875 104.28121 L 295.3125 104.56246 L 294.3125 105.18746 L 293.9375 106.09371 L 293.125 107.06246 L 294.03125 107.68746 L 295.03125 107.96871 L 296.03125 108.06241 L 298.28125 107.68741 L 299.15625 106.96866 L 298.625 106.09366 L 298.34375 105.09366 L 296.75 104.28116 L 296.1875 104.28116 Z M 215.375 112.56246 L 212.59375 113.18746 L 205.9375 113.71871 L 202.15625 114.28121 L 201.25 114.62496 L 202.15625 115.09371 L 202.625 116.87496 L 203.4375 117.78121 L 203.875 118.78121 L 204.78125 118.93746 L 205.65625 119.40621 L 205.03125 120.31246 L 204.59375 121.28121 L 203.875 122.18746 L 202.96875 122.56246 L 202.0625 124.34371 L 201.09375 125.24996 L 201.09375 126.15621 L 201.96875 126.49996 L 201.71875 127.40621 L 200.8125 127.49991 L 199.8125 127.49991 L 200.09375 128.49991 L 199.90625 130.28116 L 199 130.90616 L 198.75 130.90616 L 197.40625 133.71866 L 195.875 135.59366 L 198.75 135.40616 L 201.53125 136.84366 L 204.3125 137.74991 L 206.21875 139.46866 L 206.84375 140.37491 L 207.1875 141.34366 L 207.84375 142.24991 L 208.71875 142.96866 L 209.625 143.06236 L 210.625 142.87486 L 211.53125 142.15611 L 213.40625 141.53111 L 215.3125 139.90611 L 216.1875 140.37486 L 217.09375 140.46856 L 219 140.09356 L 220.78125 139.37481 L 221.34375 138.46856 L 221.40625 136.59356 L 221.25 135.59356 L 222.125 134.78106 L 222.59375 133.78106 L 222.3125 132.90606 L 223.3125 133.24981 L 224.03125 133.24981 L 225.90625 132.43731 L 227 130.56231 L 227.28125 129.65606 C 229.2325 128.98986 230.83875 127.85851 232.84375 127.31231 L 234.65625 126.31231 L 237.53125 125.34356 L 239.3125 124.43731 L 243.03125 123.28106 L 245 122.18731 L 244.46875 121.28106 L 243.5625 120.46856 L 242.65625 120.21856 L 237.96875 116.87481 C 235.16 114.84601 232.3875 114.46351 229.0625 115.62481 L 228.875 116.59356 L 228.09375 117.49981 L 227.09375 117.40611 L 227.625 116.43736 L 227 115.53111 L 226 115.62481 L 225.09375 116.34356 L 224.46875 117.24981 L 224.21875 117.15611 L 224.5625 116.15611 L 225.46875 115.43736 L 222.84375 115.09361 L 220.0625 114.18736 L 219.15625 113.71861 L 218.28125 112.99986 L 217.28125 112.65611 L 215.375 112.56241 Z M 291.46875 119.62496 C 290.99164 119.59296 290.40781 119.67796 289.625 119.93746 C 286.77375 119.98746 284.9475 119.37491 283.59375 122.28121 L 284.59375 122.37491 L 287.375 123.71866 L 287.90625 124.71866 L 289.71875 126.31241 L 290.625 126.96866 L 290.875 127.40616 L 291.875 127.68741 L 292.0625 126.68741 L 292.875 125.78116 L 293.84375 124.96866 L 294.75 123.09366 L 295.03125 122.09366 L 294.93755 121.18741 C 293.32974 120.82451 292.90013 119.72001 291.4688 119.62491 Z M 279.625 120.93746 L 278.65625 121.37496 L 279.625 121.56246 L 280.53125 121.37496 L 280.62495 120.93746 L 279.62495 120.93746 Z M 202.6875 151.43746 L 202.6875 151.24996 L 201.71875 150.90621 Z M 309.5 307.18751 C 309.449 307.07339 309.38384 306.99014 309.3125 306.93751 C 309.3854 306.99281 309.44687 307.06976 309.5 307.18751 Z M 238.53125 147.46876 L 238.43755 147.65626 L 239.4063 147.46876 L 238.5313 147.46876 Z M 238.15625 147.93751 L 238.15625 148.09376 L 239.15625 148.09376 Z M 259.21875 149.09376 L 259.31245 149.37501 L 260.2187 149.71876 L 261.18745 149.53126 L 259.2187 149.09376 Z M 255.71875 149.62501 L 254.8125 149.71871 L 255.71875 149.81241 L 255.71875 149.62491 Z M 292.78125 163.75001 L 293.21875 164.65626 L 294.125 165.125 L 295.03125 165.1875 L 295.21875 164.31251 L 294.3125 163.75001 Z M 266.21875 164.31251 L 265.34375 164.65626 L 266.21875 164.46876 Z M 271.625 166.37501 L 270.71875 167.28126 L 271.625 166.56251 Z M 295.46875 166.81251 L 295.21875 167.71876 L 295.75 166.81251 Z M 269.65625 167.53126 L 268.75 168.09376 L 269.65625 167.71876 Z M 265.875 168.71876 L 264.96875 169.53126 L 265.875 168.90626 Z M 254.4375 168.90626 L 253.46875 169.15626 L 254.34375 169.15626 L 254.43745 168.90626 Z M 250.125 169.34376 L 251.03125 169.43746 L 251.12495 169.34376 L 250.12495 169.34376 Z M 278.28125 171.21876 L 278.5625 172.12501 L 279 171.21876 Z M 277.84375 171.87501 L 278.28125 172.75001 L 278.03125 171.87501 Z M 279.28125 172.50001 L 278.375 173.12501 L 279.28125 173.56251 L 279.46875 172.68751 Z M 280.8125 174.75001 L 280.9062 175.37501 L 281.81245 175.37501 L 280.81245 174.75001 Z M 224.15625 175.87501 C 224.16815 175.87531 224.17615 175.87411 224.18745 175.87501 C 224.26045 175.88501 224.32034 175.91251 224.37495 175.93751 C 224.40375 175.95151 224.44245 175.95071 224.46865 175.96871 C 224.49935 175.98971 224.53225 176.00521 224.56235 176.03121 C 224.67296 176.12421 224.77987 176.24256 224.9686 176.37496 C 224.9836 176.38496 224.984 176.39626 224.9998 176.40616 C 225.0823 176.46216 225.16531 176.50661 225.28105 176.56241 C 225.43726 176.63741 225.63515 176.71376 225.8748 176.78116 C 226.00758 176.81816 226.17889 176.84286 226.34355 176.87486 C 226.48098 176.90286 226.58702 176.94456 226.7498 176.96856 L 226.8123 176.96856 C 227.1416 177.01256 227.5235 177.03936 227.96855 177.06226 L 227.90605 177.09346 L 227.99975 177.09346 L 224.31225 178.78096 L 224.28105 178.78096 L 223.3123 178.96846 L 222.40605 179.78096 L 221.4373 180.40596 L 222.3123 181.03096 L 223.21855 181.03096 L 224.1873 181.40596 L 224.2185 181.40596 L 225.2185 181.65596 L 226.0935 181.40596 L 226.99975 181.56221 L 229.781 181.46851 L 230.781 181.12476 L 231.656 180.59351 L 232.031 179.68726 L 233.906 178.87476 L 233.9372 178.87476 L 233.8435 179.78101 L 233.156 180.74976 L 234.906 180.49976 L 234.9372 180.49976 L 234.1247 181.40601 L 233.84345 182.31226 L 232.9372 182.84351 L 233.65595 183.71851 L 233.65595 183.74971 L 232.8122 183.59346 L 232.65595 183.56226 L 231.78095 184.46851 L 231.68725 185.34351 L 232.49975 185.43721 L 232.59345 185.43721 L 233.40595 185.12471 L 232.59345 185.62471 L 233.03095 185.84346 L 233.4372 186.06221 L 233.4997 186.09341 L 232.59345 186.09341 L 232.03095 186.53091 L 229.34345 186.53091 L 228.4372 185.62466 L 224.7497 185.53096 L 224.40595 186.43721 L 224.37475 186.43721 L 223.31225 186.96846 L 223.31225 187.24971 L 224.18725 187.96846 L 224.21845 187.96846 L 225.1872 188.15596 L 225.2184 188.15596 L 225.7184 189.12471 L 225.7496 189.15591 L 223.84335 189.06221 L 222.40585 190.31221 L 221.40585 190.84346 L 220.4996 191.56221 L 218.6246 192.12471 L 217.7496 192.90596 L 217.7184 192.90596 L 217.0309 192.99966 L 216.9997 192.99966 L 216.3122 192.12466 L 216.281 192.09346 L 218.156 191.74971 L 218.62475 190.84346 L 220.49975 189.65596 L 221.406 188.78096 L 221.781 187.87471 L 220.81225 187.06221 L 220.78105 187.06221 L 219.8748 186.96851 L 218.96855 187.24976 L 217.9998 187.68726 L 217.09355 188.34351 L 216.1248 188.68726 L 215.7498 189.59351 L 215.8435 190.46851 L 214.93725 191.46851 L 214.031 191.74976 L 213.156 191.74976 L 213.1248 191.74976 L 212.15605 191.46851 L 209.3748 191.12476 L 209.3436 191.12476 L 208.7186 190.93726 L 207.24985 190.49976 L 207.18735 190.46856 L 208.0936 189.93731 L 209.0936 189.93731 L 209.9686 189.65606 L 210.5311 188.68731 L 210.3436 187.78106 L 210.3748 187.78106 L 212.21855 186.78106 L 213.1248 185.96856 L 212.78105 185.09356 L 211.8748 184.81231 L 210.9998 184.28106 L 212.78105 183.90606 L 213.7498 184.09356 L 213.781 184.09356 L 214.656 184.53106 L 216.56225 184.53106 L 217.43725 183.99981 L 216.4685 183.18731 L 214.5935 182.12481 L 214.5623 182.12481 L 210.8123 182.03111 L 210.7811 182.03111 L 209.9061 182.03111 L 209.37485 182.93736 L 208.4686 183.12486 L 208.4374 183.09366 L 207.5624 182.74991 L 204.78115 183.18741 L 203.78115 182.65616 L 201.9999 182.84366 L 202.1249 183.59366 L 202.1561 183.71866 L 202.1561 183.74986 L 201.2811 183.74986 L 201.0936 184.65611 L 201.0624 184.62491 L 200.1874 183.84366 L 200.1874 183.81246 L 199.5624 182.93746 L 199.5312 182.90626 L 199.7187 182.03126 L 199.7499 182.03126 L 200.71865 182.03126 L 201.6249 181.84376 L 202.53115 182.12501 L 203.40615 181.21876 L 203.6874 181.28126 L 204.3124 181.46876 L 205.21865 181.40626 L 207.9999 180.40626 L 208.90615 180.40626 L 209.8124 179.78126 L 211.6874 179.78126 L 212.59365 179.59376 L 214.3749 179.06251 L 214.4061 179.06251 L 215.37485 178.59376 L 216.2811 178.50006 L 218.0936 177.25006 L 219.0936 177.34376 L 220.06235 177.06251 L 220.9686 176.62501 L 221.93735 176.62501 C 222.49337 176.38931 222.85743 176.24481 223.18735 176.12501 C 223.49743 176.01231 223.76482 175.93416 223.93735 175.90626 C 224.01325 175.89426 224.09841 175.87296 224.1561 175.87506 Z M 279.625 176.37501 L 279.46875 177.25001 L 279.90625 176.37501 Z M 267.125 206.78126 L 269.65625 206.78126 L 271.34375 207.21876 L 271.37495 207.21876 L 271.74995 207.28126 L 274.06245 207.65626 L 274.06245 207.68746 L 274.12495 207.87496 L 274.3437 208.56246 L 274.3125 208.56246 L 273.4375 208.84371 L 272.4375 208.31246 L 271.5625 208.21876 L 271.5313 208.21876 L 270.56255 207.84376 L 270.53135 207.84376 L 270.3751 207.81256 L 269.21885 207.68756 L 267.3126 207.68756 L 266.40635 208.12506 L 265.5001 208.21876 L 263.6876 208.84376 L 262.71885 209.65626 L 262.3126 210.53126 L 264.0626 209.09376 L 265.0626 209.03126 L 265.9376 208.75001 L 265.9688 208.75001 L 266.87505 208.84371 L 267.8438 208.03121 L 269.6563 208.03121 L 270.5313 208.37496 L 270.5625 208.40616 L 268.65625 208.31246 L 267.78125 208.65621 L 269.65625 208.74991 L 270.5 209.18741 L 270.5312 209.18741 L 270.5624 209.21861 L 269.65615 209.56236 L 267.7499 209.56236 L 266.96865 209.99986 L 267.7499 209.90616 L 267.6562 209.93736 L 267.7812 209.93736 L 266.9687 210.31236 L 267.8437 209.99986 L 268.74995 210.09356 L 269.6562 209.84356 L 269.6562 209.99981 L 269.6562 210.03101 L 267.875 211.00001 L 267.8438 211.00001 L 266.9688 211.09371 L 266.6563 211.03121 L 265.1563 210.74996 L 263.2813 212.18746 L 262.37505 212.62496 L 262.46875 213.53121 L 262.43755 213.53121 L 259.75005 215.68746 L 258.87505 216.59371 L 257.9688 217.12496 L 257.9376 217.12496 L 256.96885 217.56246 L 255.71885 217.74996 L 255.68765 217.74996 L 255.59395 217.40621 L 254.6252 217.40621 L 253.0002 218.31246 L 252.65645 218.56246 L 252.46895 218.99996 L 252.46895 219.03116 L 252.56265 219.28116 L 252.8439 219.99991 L 252.8127 219.99991 L 251.90645 220.81241 L 251.03145 220.90611 L 250.1252 220.62486 L 248.2502 221.34361 L 248.1565 221.34361 L 247.344 221.28111 L 244.6565 221.90611 L 242.75025 221.71861 L 242.0315 221.81231 L 240.25025 221.18731 L 240.21905 221.15611 L 239.2503 220.56236 L 236.53155 220.28111 L 235.7503 219.81236 L 235.7191 219.81236 L 234.93785 218.93736 L 234.90665 218.90616 L 234.21915 218.62491 L 235.1879 218.81241 L 235.7504 219.15616 L 236.0629 219.37491 L 236.0941 219.37491 L 236.3441 219.43741 L 236.9691 219.62491 L 237.9691 219.28116 L 238.87535 218.37491 L 239.7816 218.74991 L 240.6566 218.74991 L 240.6878 218.74991 L 241.59405 219.28116 L 242.5628 218.56241 L 242.1878 217.65616 L 242.219 217.65616 L 243.094 217.12491 L 243.37525 216.21866 L 244.25025 215.31241 L 244.28145 215.31241 L 245.15645 215.21871 L 245.90645 215.43746 L 246.1877 215.49996 L 247.0627 215.21871 L 247.96895 214.40621 L 247.6877 214.06246 L 247.3127 213.53121 L 247 213.31251 L 246.4375 213.00001 L 246.4375 212.96881 L 246.21875 212.65631 L 245.875 212.09381 L 244.90625 211.90631 L 245.0625 211.00006 L 244.90625 210.09381 L 243.9375 210.18751 L 242.125 208.93751 L 242.0938 208.93751 L 241.8438 208.03126 L 242.18755 208.03126 L 243.0938 208.84376 L 243.125 208.84376 L 243.40625 208.90626 L 245 209.18751 L 245.875 210.00001 L 246.625 210.21876 L 246.875 210.28126 L 246.9062 210.28126 L 247.7812 210.90626 L 248.68745 210.99996 L 249.56245 210.62496 L 249.93745 210.71866 L 249.96865 210.74986 L 250.59365 211.62486 L 251.46865 212.09361 L 252.28115 212.96861 L 253.1874 213.53111 L 254.0624 213.59361 L 254.96865 213.34361 L 254.99985 213.34361 L 255.24985 213.43731 L 257.93735 213.15606 L 258.8436 212.71856 L 260.6561 211.28106 L 261.5311 210.90606 L 263.43735 208.21856 L 264.3436 207.65606 L 266.2186 206.93731 L 267.12485 206.78106 Z M 258.3125 406.28126 L 258.03125 407.18751 L 258.12495 408.09376 L 259.0312 408.53126 L 259.4687 407.28126 L 259.2187 406.28126 L 258.31245 406.28126 Z M 245.53125 410.43751 L 244.8125 411.87501 L 245.71875 411.31251 Z M 256.875 412.28126 L 250.21875 412.31246 L 250.5 412.93746 L 250.5625 413.84371 L 251.46875 413.03121 L 251.65625 414.03121 L 251.56255 414.93746 L 251.2188 414.03121 L 250.31255 413.84371 L 249.4063 413.12496 L 248.4063 413.40621 L 247.43755 413.31251 L 246.5313 413.75001 C 249.7288 415.06001 247.75755 416.24131 250.75005 416.81251 L 250.84375 417.09376 L 251.84375 417.53126 L 252.5625 418.43751 L 253.46875 418.34381 L 254.34375 418.53131 L 255 417.34381 C 254.12375 421.88131 261.99125 418.73761 259.65625 427.71881 L 260.5625 428.34381 L 261.1875 429.25006 L 264.96875 431.75006 L 266.78125 433.46881 L 267.6875 433.90631 L 268.5625 434.81256 L 269.1875 436.62506 L 269.65625 437.43756 L 270.28125 437.43756 L 272.15625 435.96881 L 272.34375 435.09381 L 272 434.18751 L 271.09375 433.71876 L 270.5625 431.93751 L 269.03125 430.93751 L 268.125 430.84381 L 267.6875 431.21881 L 267.3125 431.12511 L 266.40625 430.40636 L 266.15625 429.50011 L 266.21875 428.50011 L 266.21875 427.62511 L 265.5 426.62511 L 264.96875 424.81261 L 264.0625 423.93761 L 263.4375 422.93761 L 263.4375 422.03136 L 262.90625 420.25011 L 262.4375 419.34386 L 261.8125 418.43761 L 260.9375 417.81261 L 260.8438 418.71886 L 260.6563 416.90636 L 259.93755 416.53136 L 259.2188 415.65636 L 258.93755 414.75011 L 257.06255 413.21886 L 256.87505 412.31261 L 256.87505 412.28141 Z M 242.96875 425.21876 C 241.725 425.21876 240.71875 426.22626 240.71875 427.46876 C 240.71875 428.71126 241.725 429.71876 242.96875 429.71876 C 244.21 429.71876 245.21875 428.71126 245.21875 427.46876 C 245.21875 426.22626 244.21 425.21876 242.96875 425.21876 Z M 259.65625 426.18751 L 259.46875 427.06251 L 259.03125 428.06251 L 259.75 428.96876 L 259.40625 428.06251 Z M 266.3125 426.62501 L 266.2188 427.00001 L 267.12505 427.53126 L 266.31255 426.62501 Z M 242.75 427.43751 L 243.625 427.43751 L 242.75 427.78126 Z M 292.53125 454.31251 C 292.72495 454.51592 292.91045 454.69764 293.09375 454.84376 C 292.90514 454.69597 292.73079 454.52071 292.53125 454.31251 Z M 293.125 454.87501 C 293.48958 455.16069 293.84414 455.32932 294.1875 455.46876 C 293.84389 455.33231 293.48901 455.15458 293.125 454.87501 Z M 294.71875 455.65626 C 295.08569 455.76873 295.42388 455.86887 295.8125 456.00001 C 295.43716 455.87335 295.07336 455.76345 294.71875 455.65626 Z"/>
    <path id="path79846" fill="#8cce55" stroke="#0f380f" stroke-opacity="0.14509804" stroke-linecap="round" stroke-linejoin="round" transform="matrix(1 0 0 1 0.5 1.2670726)" d="M 285.4045 421.06932 L 285.72327 420.92517 L 285.62887 420.27464 L 286.24109 419.83133 L 286.6483 419.46534 L 287.0184 420.22465 L 287.60235 420.80461 L 288.17387 420.30865 L 288.63221 421.11752 L 289.80724 421.70366 L 290.85588 420.94729 L 291.1156 421.69408 C 291.7606 421.56738 292.40559 421.09612 293.05059 421.72868 L 293.51982 422.41945 L 295.10472 419.99202 C 295.48081 419.93392 295.79355 419.55909 296.27596 420.03262 L 297.71845 420.70438 L 296.24127 413.99397 L 299.25094 408.68969 L 293.84043 405.41456 L 292.95902 401.6385 L 292.96902 399.09376 C 293.04112 398.80226 293.08037 398.51846 293.12527 398.21876 C 293.2539 397.36006 293.31289 396.45721 293.31277 395.56251 C 293.31261 394.35551 293.24717 393.13936 293.31277 391.96876 L 301.50027 391.96876 L 301.78152 391.71876 L 301.78152 387.31251 C 301.78107 386.71141 301.77352 386.10051 301.78152 385.50001 L 301.78152 385.09376 C 301.79532 384.35896 301.83522 383.60751 301.87522 382.87501 L 301.87522 375.40626 L 301.87522 374.34376 L 301.87522 368.93751 L 302.06272 368.50001 L 302.06272 365.87501 L 306.62522 365.87501 L 306.62522 361.84376 L 309.06272 361.84376 C 309.01272 361.39206 309.00202 361.17966 308.96902 360.84376 L 308.96902 360.75006 C 308.84809 359.50426 308.79982 358.76431 308.87532 358.21881 C 308.90992 357.96821 308.96682 357.73981 309.03157 357.40631 C 309.03457 357.39231 309.02857 357.35781 309.03157 357.34381 C 309.11217 356.92731 309.23057 356.41686 309.34407 355.62506 L 309.34407 355.18756 L 309.78157 354.37506 L 309.78157 353.09381 L 308.96907 351.93756 L 306.62532 351.93756 L 306.62532 349.68756 L 310.06282 349.68756 L 310.06282 348.87506 L 309.96912 347.34381 L 309.96912 346.34381 L 310.40662 345.37506 L 310.31292 343.56256 L 310.31292 342.03131 L 309.59417 341.03131 L 309.59417 340.15631 L 311.68792 340.06261 L 312.31292 338.78136 L 312.31292 338.34386 L 312.50042 337.09386 L 312.40672 336.18761 L 312.03172 334.93761 L 312.21922 334.28136 L 311.93797 333.40636 L 311.93797 333.03136 L 309.31627 333.02136 L 309.31627 328.36536 L 310.27627 328.36536 L 310.27627 327.28436 L 311.06627 327.17736 L 313.03157 327.18736 L 314.37532 325.37486 L 314.28162 325.21861 L 314.18792 324.84361 L 313.46917 324.74991 L 312.56292 322.87491 L 312.84417 322.68741 L 313.84417 322.68741 L 314.00042 321.68741 L 314.46917 321.43741 L 314.65667 320.53116 L 314.65667 319.43741 L 313.75042 318.46866 L 314.37542 317.18741 L 313.75042 316.28116 L 312.50042 316.28116 L 308.70527 316.27066 L 308.70527 315.03866 L 309.35627 314.47266 L 309.85827 314.13666 L 310.71827 313.61766 L 311.34727 313.52966 L 312.05427 313.77266 L 312.66327 313.24566 L 313.28167 312.78119 L 312.40667 311.81244 L 312.21917 311.34369 L 310.96917 311.15619 L 310.96917 310.90619 L 310.40667 310.18744 L 311.68792 310.18744 L 311.68792 309.46869 L 311.31292 308.46869 L 309.68792 308.09369 L 309.56292 307.31244 C 309.55102 307.27444 309.54482 307.25174 309.53172 307.21874 C 309.52672 307.20514 309.50612 307.20014 309.50052 307.18754 L 309.06302 306.84379 C 309.05192 306.84309 309.04312 306.84389 309.03182 306.84379 C 308.73545 306.84379 308.31053 306.98009 307.78182 307.03129 L 307.09432 307.03129 C 307.06342 307.03129 307.03202 307.04129 307.00062 307.03129 L 306.93772 306.99999 L 305.81272 306.56249 L 304.75022 307.03124 L 303.65647 306.93754 L 302.78147 306.56254 L 300.96897 306.50004 L 300.25022 306.50004 L 299.34397 307.12504 L 298.62522 306.21879 L 298.62522 306.03129 L 297.71897 305.21879 L 297.37522 305.21879 C 297.37122 302.90879 297.39652 300.62134 297.28152 298.31254 L 269.65652 298.31254 L 269.65622 275.81481 L 271.10622 275.81481 L 271.29622 275.12581 L 271.59422 274.69681 L 271.94722 274.41681 L 272.30022 273.92781 L 272.83922 273.90081 L 273.10122 274.55081 L 273.43822 275.08681 L 273.87222 274.75081 L 274.08022 274.29281 L 274.31022 274.05581 L 274.21422 273.72481 L 273.88722 273.51881 L 273.54822 273.17981 L 273.33622 272.74981 L 273.04522 272.46981 L 272.68522 272.09481 L 272.23022 271.80681 L 272.01722 271.22781 L 271.63522 271.12381 L 271.22222 270.94581 L 270.95122 270.51581 L 270.63322 270.25481 L 270.15622 270.07481 L 269.65622 269.94981 L 269.65652 227.65629 L 306.53152 227.65629 L 306.71922 176.28081 L 332.65657 176.28081 L 333.62532 176.43754 L 334.53157 175.90629 L 335.43782 176.62504 L 336.34407 176.37504 L 337.21907 176.53129 L 337.31277 175.56254 L 336.87527 174.65629 L 335.96902 174.65629 L 336.59402 173.75004 L 335.68777 173.40629 L 334.71902 174.03129 L 333.81277 174.28129 L 334.00027 173.31254 L 333.09402 172.84379 L 332.37527 171.93754 L 333.53152 170.06254 L 334.62527 166.65629 L 333.71902 166.65629 L 332.71902 167.09379 L 332.46902 168.00004 L 331.46902 168.00004 L 332.37527 166.09378 L 331.46902 166.81254 L 330.46902 166.37504 L 329.59402 166.28134 L 329.21902 165.37508 L 328.31277 164.46884 L 327.34402 164.40634 L 325.53152 164.03134 L 325.71902 165.28133 L 323.90652 165.75008 L 323.00027 165.12508 L 322.03152 165.37508 L 322.84402 166.28134 L 323.71902 167.00009 L 322.84402 167.09379 L 323.18777 168.00004 L 324.18777 168.90629 L 325.09402 168.90629 L 326.96902 168.34379 L 327.87527 169.06254 L 328.78152 168.96884 L 329.50027 170.78134 L 328.87527 171.31259 L 326.96902 171.40629 L 325.18777 170.25004 L 323.28152 168.43754 L 322.37527 167.81254 L 321.93777 168.71879 L 322.84402 169.43754 L 321.93777 170.25004 L 321.03152 170.78129 L 318.15652 169.96879 L 316.25027 169.78129 L 316.00027 169.87499 L 315.09402 169.62499 L 314.18777 169.62499 L 313.28152 169.96874 L 312.31277 169.78124 L 311.40652 170.43749 L 310.50027 170.34379 L 308.62527 170.87504 L 307.62527 170.68754 L 306.71902 170.15629 L 306.25027 170.31256 L 305.81277 170.43756 L 303.03152 169.78131 L 302.06277 169.06256 L 301.15652 168.71881 L 300.34402 167.71881 L 298.43777 168.18756 L 297.56277 168.00006 L 296.65652 168.25006 L 295.75027 168.09381 L 294.75027 167.81256 L 294.56277 166.81256 L 293.68777 166.28131 L 292.68777 165.93755 L 291.78152 165.84385 L 290.87527 165.1251 L 290.87527 164.21886 L 290.43777 163.31261 L 290.34407 162.40636 L 289.43782 161.59386 L 287.56282 160.87511 L 285.59407 161.59386 L 283.68782 162.06261 L 281.87532 162.78136 L 280.00032 163.21886 L 278.18782 163.31256 L 277.31282 163.59381 L 275.78157 165.4688 L 275.21907 166.37506 C 278.12032 166.13755 277.20657 167.62631 279.90657 166.90631 L 279.5625 166 L 280.53125 165.65625 L 281.4375 165.84375 L 282.34375 166.28126 L 284.125 165.375 L 285.03125 165.5625 L 285.3125 164.65626 L 286.21875 164.31251 L 288.09375 163.40626 L 289.09375 163.49996 L 289.53125 164.40621 L 288.625 165.12495 L 287.75 165.37495 L 286.75 165.46865 L 286.03125 166.37491 L 285.03125 166.99991 L 284.6875 167.53116 L 282.78125 167.37491 L 281.875 167.99991 L 281 167.90621 L 280.09375 168.43746 L 279.625 167.53121 L 279.375 168.43746 L 280.28125 168.71871 L 279.28125 169.53121 L 278.84375 170.43746 L 280.4375 172.03121 L 280.8125 173.93746 L 281.25 174.84371 L 282.25 175.28121 L 282.1563 176.18746 L 282.87505 177.15621 L 281.9688 176.62496 L 281.62505 177.62496 L 280.62505 177.15621 L 281.1563 176.18746 L 280.2813 176.37496 L 280.1876 177.24996 L 280.3751 178.15621 L 280.8126 179.06246 L 281.53135 180.06246 L 282.4376 180.87496 L 281.53135 180.49996 L 279.09385 177.81246 L 277.84385 177.43746 L 278.1251 176.53121 L 277.21885 176.09371 L 276.3126 175.37496 L 277.21885 175.71871 L 279.09385 175.71871 L 279.3751 174.84371 L 278.7501 173.93746 L 276.9376 172.84371 L 276.3126 171.93746 L 275.40635 172.84371 L 274.5001 172.84371 L 274.15635 172.49996 L 274.34385 171.59371 L 273.96885 170.59371 L 272.15635 170.43746 L 271.1876 170.68746 L 270.8126 169.78121 L 269.90635 169.24996 L 269.65635 169.53121 L 269.65635 168.53121 L 267.7501 168.81246 L 264.96885 170.24996 L 262.28135 170.49996 L 261.28135 170.34371 L 260.84385 170.96871 L 259.9376 170.49996 L 259.03135 170.43746 L 258.03135 170.96871 L 251.5626 170.78121 L 250.65635 170.49996 L 249.7501 170.59366 L 248.8751 170.15616 L 247.8751 169.87491 L 246.0001 169.96861 L 245.0001 169.34361 L 244.09385 169.24991 L 245.90635 168.34366 L 245.6251 167.37491 L 246.6251 167.18741 L 247.5001 166.90616 L 247.15635 166.46866 L 248.96885 166.28116 L 249.84385 166.56241 L 250.84385 166.46871 L 251.21885 165.56245 L 250.84385 164.65621 L 249.84385 163.74996 L 247.15635 161.78121 L 244.28135 160.78121 L 242.46885 160.34371 L 241.5001 160.62496 L 240.59385 160.53126 L 241.3126 161.43751 L 239.40635 161.50001 L 238.53135 161.34376 L 237.6251 160.87501 L 236.6251 161.25001 L 234.8126 160.62501 L 232.9376 160.34376 L 230.15635 159.18751 L 229.2501 158.46876 L 223.59385 157.56251 C 219.24135 156.54251 221.1151 154.36501 214.03135 153.68751 L 213.0626 153.87501 L 212.15635 153.68751 L 210.2501 153.87501 L 209.3751 153.59376 L 208.90635 154.50001 L 208.71885 155.40626 L 207.7501 156.28126 L 207.28135 157.18751 L 206.40635 157.46876 L 203.4376 157.46876 L 202.53135 157.28126 L 202.96885 156.28126 L 204.40635 154.50001 L 202.53135 154.50001 L 202.78135 152.59376 L 202.68765 151.43751 L 200.81265 151.62501 L 199.18765 152.15626 L 199.09395 152.68751 L 200.09395 152.15626 L 201.8127 152.15626 L 200.53145 152.68751 L 200.0002 153.68751 L 199.09395 154.12501 L 200.0002 154.12501 L 200.90645 154.50001 L 200.0002 154.21876 L 199.09395 154.68751 L 198.1252 155.40626 L 199.09395 156.28126 L 198.1252 156.56251 L 199.0002 157.18751 L 198.03145 157.71876 L 196.21895 157.18751 L 194.4377 156.12501 L 192.53145 154.40626 L 192 153.50001 L 191.8125 152.59376 L 190.09375 149.90626 L 189.21875 149.09376 L 188.5625 148.65626 L 186.40625 147.28126 L 186.40625 147.28121 L 185.5 148.09371 L 185.6875 148.99996 L 186.59375 148.90626 L 186.50005 149.81251 L 188.31255 150.25001 L 185.50005 150.71876 L 184.62505 151.15626 C 184.76341 151.5673 184.82194 151.87026 184.81255 152.09376 C 184.81214 152.10376 184.81321 152.11556 184.81255 152.12496 C 184.80205 152.27613 184.75705 152.371 184.68755 152.46871 C 184.65285 152.51761 184.61015 152.55271 184.56255 152.59371 C 184.46465 152.68221 184.36676 152.7672 184.2188 152.84371 C 183.80336 153.06143 183.20732 153.28706 182.56255 153.93746 C 182.45596 154.04616 182.32724 154.17891 182.2188 154.31246 C 182.11036 154.44601 182.01536 154.58793 181.9063 154.74996 L 180.8438 154.49996 L 180.8438 153.59371 L 181.56255 152.68746 L 180.6563 153.40621 L 178.7813 153.59371 L 175.43755 154.74996 L 173.9063 156.56246 L 173.2813 157.56246 L 172.37505 158.37496 L 172.18755 157.46871 L 172.4688 156.56246 L 171.93755 157.56246 L 172.18755 156.56246 L 171.56255 155.65621 L 171.75005 156.65621 L 171.12505 155.65621 L 171.56255 156.65621 L 170.75005 157.56246 L 170.56255 156.65621 L 169.93755 157.56246 L 170.03125 156.65621 L 168.25 156.84371 L 168.25 157.81246 L 167.34375 158.46871 L 165.53125 159.09371 L 163.65625 160.15621 L 163.84375 161.06246 L 164.8125 161.24996 L 165.71875 161.68746 L 164.8125 161.87496 L 162.9375 161.78126 L 161.9375 162.31251 L 162.9375 162.87501 L 161.125 162.15626 L 161.0313 161.25001 L 161.93755 160.71876 L 162.56255 159.81251 L 163.56255 160.06251 L 163.65625 159.18751 L 164.5625 158.18751 L 165.4375 158.62501 L 166.25 157.71876 L 167.25 156.93751 L 167.6875 156.03126 L 168.59375 155.75001 L 170.5 155.65631 L 171.375 155.31256 L 172.28125 155.46881 L 173.28125 154.84381 L 174.1875 154.59381 L 175.0625 153.78131 L 178.9375 152.15631 L 179.3125 151.25006 L 178.6875 150.34381 L 176.875 151.43756 L 175.96875 151.43756 L 175.0625 151.06256 L 174.09375 151.06256 L 173.1875 151.34381 L 172.28125 152.15631 L 172.09375 152.59381 L 171.375 153.50006 L 171.03125 152.59381 L 169.125 153.40631 L 168.25 154.03131 L 167.34375 154.40631 L 166.4375 154.59381 L 165.53125 154.31256 L 166.4375 154.03131 L 165.4375 154.21881 L 165.5312 155.12506 L 163.6562 154.93756 L 162.56245 156.84381 L 160.5937 157.00006 L 159.68745 157.65631 L 158.7812 158.00006 L 157.81245 158.18756 L 156.99995 159.09381 L 156.0937 159.43756 L 155.56245 160.43756 L 156.5937 161.81256 L 157.3437 162.84381 L 157.3437 162.87501 L 157.0937 162.93751 L 156.0937 162.40626 L 155.37495 161.43751 L 154.4687 160.87501 L 153.56245 161.25001 L 152.6562 160.87501 L 151.7812 161.50001 L 152.2187 162.50001 L 153.12495 163.03126 L 152.74995 163.03126 L 152.5937 162.87501 L 150.68745 162.21876 L 149.7812 161.59376 L 148.43745 161.25001 L 147.18745 161.15631 L 147.18745 170.96881 L 148.0937 171.40631 L 148.62495 173.31256 L 148.43745 174.56256 L 148.1562 175.81256 L 148.3437 176.28131 L 153.93745 176.18761 L 158.87495 176.28131 L 158.96865 177.15631 L 159.15615 177.43756 L 159.15615 178.34381 L 159.78115 179.34381 L 159.96865 180.59381 L 159.2499 181.59381 L 160.21865 181.65631 L 160.4999 182.65631 L 159.78115 183.56256 L 159.96865 183.56256 L 160.9374 184.37506 L 162.7499 183.84381 L 163.46865 184.00006 L 166.15615 184.28131 L 165.1874 184.81256 L 166.71865 186.62506 L 166.71865 187.34381 L 166.15615 188.25006 L 165.28115 188.87506 L 164.09365 190.12506 L 164.9999 190.12506 L 165.90615 190.93756 L 165.34365 191.84381 L 165.34365 192.12506 L 164.90615 193.00006 L 166.71865 193.62506 L 167.6874 194.28131 L 168.0624 194.71881 L 168.96865 195.00006 L 168.59365 195.87506 L 169.4999 196.34381 L 170.40615 195.71881 L 171.3124 195.87506 L 172.1874 196.53131 L 172.5624 197.50006 L 172.5624 198.06256 L 174.34365 199.59381 L 175.6249 200.37506 L 175.4374 201.28131 L 176.34365 201.28131 L 176.96865 201.84381 L 177.6874 202.71881 L 177.3124 203.62506 L 176.96865 203.90631 L 176.96865 204.71881 L 177.6874 205.59381 L 178.6874 205.78131 L 178.21865 207.06256 L 178.4999 208.03131 L 179.5624 209.37506 L 180.5624 209.93756 L 180.28115 211.71881 L 180.5624 212.00006 L 182.3749 213.15631 L 183.4374 212.71881 L 184.4374 213.53131 L 185.15615 214.43756 L 186.0624 214.96881 L 186.2499 215.50006 L 188.03115 216.93756 L 188.5624 217.03126 L 189.84365 217.21876 L 190.5624 218.21876 L 190.71865 219.09376 L 190.46865 220.00001 L 190.56235 220.46876 L 191.18735 221.34376 L 191.37485 222.25001 L 192.18735 222.43751 L 193.1561 222.00001 L 194.06235 222.25001 L 194.9686 221.62501 L 195.49985 222.06251 L 196.4061 221.62501 L 198.18735 222.15626 L 199.56235 221.71876 L 200.43735 221.71876 L 201.3436 221.00001 L 202.3436 221.81251 L 201.9061 222.78126 L 202.62485 223.68751 L 203.68735 224.40626 L 203.78105 225.31251 L 204.8748 227.12501 L 204.6873 227.37501 L 205.59355 227.65626 L 223.3123 227.65626 L 223.3123 245.37501 L 222.0623 245.75001 L 217.09355 245.65631 L 215.7498 245.65631 L 212.34355 246.09381 L 211.2498 246.71881 L 210.96855 247.18756 L 211.4373 253.56256 L 211.4373 253.75006 L 211.6248 255.37506 L 211.2498 257.25006 L 211.4373 257.71881 L 211.531 257.81251 L 213.5935 257.90621 L 215.2185 260.31246 L 216.37475 261.74996 L 217.81225 263.03121 L 218.43725 263.37496 L 221.87475 265.37496 L 222.781 266.34371 L 223.31225 268.68746 L 224.2185 269.31246 L 223.656 270.03121 L 224.31225 270.93746 L 225.4685 271.46871 L 227.7185 272.90621 L 228.62475 272.65621 L 229.24975 273.46871 L 229.68725 274.53121 L 229.68725 274.71871 L 229.24975 275.24996 L 228.156 275.15626 L 227.18725 275.34376 C 228.05225 277.26686 229.19079 278.61556 230.43725 279.71876 C 230.74887 279.99416 231.05267 280.24951 231.37475 280.50001 C 231.38075 280.51001 231.39965 280.50001 231.40595 280.50001 C 231.72149 280.74481 232.02306 280.98746 232.34345 281.21876 C 233.00455 281.69756 233.66274 282.13991 234.3122 282.62501 C 234.63359 282.86441 234.93924 283.11801 235.2497 283.37501 C 236.18815 284.15141 237.07056 285.02816 237.8122 286.15626 C 238.05776 286.52936 238.28647 286.91076 238.4997 287.34376 C 238.566 287.47766 238.5931 287.64096 238.65595 287.78126 C 239.20071 289.00266 239.64806 290.45976 239.8747 292.28126 L 241.5622 294.53126 L 242.21845 295.68751 L 242.03095 296.78126 L 242.03095 296.93751 L 241.5622 298.31251 L 241.5622 303.68751 L 241.9372 304.68751 L 243.28095 306.31251 L 243.46845 307.21876 L 243.09345 307.37501 L 243.9997 308.09376 L 244.9997 308.56251 L 245.53095 309.28126 L 246.4372 310.28126 L 246.78095 310.53126 L 246.78095 310.81251 L 247.6872 311.71876 L 248.59345 312.15626 L 248.78095 312.15626 L 249.59345 312.24996 L 249.1247 314.12496 L 248.96845 315.49996 L 249.21845 316.37496 L 249.31215 316.56246 L 248.7809 317.46871 L 248.5934 318.46871 L 248.1559 318.81246 L 247.7809 319.34371 L 246.43715 318.71871 L 245.5309 318.37496 L 244.0934 319.43746 L 243.0934 319.09371 L 242.2184 319.09371 L 240.8434 319.34371 L 240.49965 318.46871 L 240.59335 317.81246 L 240.49965 316.93746 L 239.7809 316.03121 L 239.1559 315.84371 L 238.24965 316.74996 L 239.1559 317.18746 L 239.7809 318.09371 L 239.31215 318.71871 L 238.7809 319.62496 L 238.5934 320.62496 L 237.9684 321.43746 L 237.8747 321.68746 L 237.71845 322.59371 L 236.90595 323.49996 L 236.53095 324.31246 L 236.28095 325.28121 L 236.28095 325.65621 L 235.6247 325.65621 L 234.46845 324.93746 L 233.21845 324.93746 L 232.3122 325.37496 L 231.59345 326.56246 L 231.59345 332.31246 L 231.68715 334.84371 L 232.0309 335.81246 L 237.1559 335.81246 L 237.1559 338.62496 L 250.93715 338.62496 L 250.93715 346.90621 L 250.93715 370.03121 L 250.49965 370.90621 L 249.5934 370.46871 L 248.5934 370.28121 L 247.68715 370.74996 L 247.68715 371.09371 L 248.1559 373.15621 L 248.1559 374.15621 L 248.4059 374.62496 L 248.24965 376.40621 L 248.24965 376.49991 L 248.49965 377.40616 L 248.87465 377.74991 L 248.87465 377.84361 L 248.96835 377.93731 L 249.40585 378.84356 L 250.5 380.00001 L 249.6875 380.90626 L 248.78125 381.81251 L 248.78125 382.15626 L 248.87495 383.06251 L 248.5937 383.68751 L 248.4062 384.25001 L 247.7812 385.12501 L 247.9687 386.12501 L 247.875 386.31251 L 248.78125 386.75001 L 248.96875 387.37501 L 248.59375 388.18751 L 248.25 388.18751 L 247.78125 388.28121 L 247.78125 388.37491 L 247.34375 389.37491 L 247.25005 389.46861 L 246.87505 389.46861 L 246.78135 389.56231 L 246.6251 389.90606 L 246.4376 390.34356 L 246.3439 390.62481 L 246.62515 391.09356 L 246.62515 391.15606 L 246.7814 392.53106 L 249.75015 394.21856 L 250.6564 394.59356 L 251.56265 393.96856 L 252.56265 394.40606 L 252.81265 395.31231 L 253.62515 395.65606 L 254.5314 395.74976 L 255.43765 396.21851 L 255.53135 396.65601 L 255.34385 398.56226 L 256.8751 401.24976 L 256.9688 402.24976 L 257.7813 403.78101 L 258.0313 404.09351 L 258.50005 404.65601 L 258.59375 405.56226 L 259.46875 406.03101 L 259.56245 406.74976 L 260.12495 407.71851 L 260.99995 408.34351 L 261.37495 409.24976 L 263.18745 410.87476 L 263.7187 411.78101 L 264.62495 412.59351 L 265.5937 413.12476 L 265.6874 412.49976 L 265.8749 412.49976 L 265.7812 412.59346 L 267.2187 413.12471 L 266.68745 414.03096 L 267.0312 415.09346 L 267.8437 416.09346 L 268.74995 416.62471 L 269.8437 416.81221 L 270.56245 418.62471 L 271.18745 418.87471 L 272.0937 418.87471 L 272.9687 419.59346 L 273.1562 420.59346 L 273.68745 420.49976 L 273.24995 420.96851 L 272.9062 421.03101 L 272.3437 422.03101 L 272.3437 422.93726 L 272.5312 423.46851 L 273.43745 424.28101 L 274.06245 424.18731 L 274.9687 424.37481 L 275.93745 425.46856 L 276.5937 425.81231 L 277.4687 426.09356 L 278.75 427.00001 L 278.90625 427.34376 L 278.65625 428.25001 L 279.1875 429.25001 L 280.28125 429.68751 L 280.71875 430.21876 L 282.875 431.84376 L 285.84375 435.18751 L 286.3125 436.06251 L 288.28125 437.78126 L 289.4375 439.40626 L 289.8125 440.31251 L 289.9062 442.09376 L 291.1562 444.00001 L 291.7812 444.25001 L 291.7812 446.06251 L 291.06245 446.96876 L 290.62495 447.87501 L 291.5937 448.21876 L 291.5937 448.12506 L 291.6874 448.03136 L 291.8749 447.78136 L 292.78115 447.15636 L 293.6874 446.68761 L 294.5624 447.15636 L 294.9374 447.15636 L 295.0311 447.21886 L 295.2186 447.50011 L 296.0936 448.12511 L 296.0936 447.78136 L 296.4686 446.87511 L 296.4686 446.50011 L 296.3749 445.87511 L 297.09365 445.78141 L 297.71865 444.90641 L 296.65615 444.34391 L 296.8125 443.37501 L 297 443.00001 L 296.09375 441.93751 L 295.5625 441.56251 L 295.9375 440.56251 L 296.0312 440.31251 L 295.9375 439.75001 L 295.3125 439.84371 L 295.2188 439.84371 L 294.4063 438.87496 L 293.31255 438.93746 L 292.7813 439.21871 L 293.2188 438.15621 L 292.7813 437.24996 L 291.87505 436.87496 L 290.9688 436.87496 L 290.9688 436.24996 L 290.00005 435.96871 L 289.90635 435.81246 L 289.53135 435.24996 L 289.28135 434.37496 L 289.0001 434.28126 L 288.6251 433.09376 L 288.3751 431.65626 L 288.1876 431.12501 L 287.28135 430.21876 L 286.3126 430.68751 L 285.40635 430.21876 L 284.8751 429.06251 L 284.6876 428.59376 L 283.78135 427.78126 L 283.2501 427.25001 L 282.96885 426.25001 L 283.06255 425.62501 L 283.3438 424.65626 L 283.875 424.00001 L 284.485 423.63344 L 284.309 422.36644 L 285.472 421.71544 Z"/>
</svg>
