<svg width="1671.094" height="856.39252" viewBox="0 0 1671.094 856.39252" xmlns="http://www.w3.org/2000/svg" xmlns:usvg="https://github.com/RazrFalcon/usvg" usvg:version="0.8.0">
    <defs/>
    <path id="path5774" fill="#3e73c5" fill-opacity="0.42857145" stroke="#000000" stroke-opacity="0.24675323" stroke-linecap="round" stroke-linejoin="round" transform="matrix(1 0 0 1 0.5 1.2670726)" d="M 397.24 500.74223 L 396.80239 501.02323 L 396.61489 501.30453 L 395.80239 500.86703 L 395.36489 501.02323 L 395.52114 501.30453 L 395.08364 502.30453 L 395.08364 503.36703 L 395.98989 503.92953 L 396.08359 504.08573 L 395.52109 504.36703 L 395.17734 504.74203 L 395.52109 505.80453 L 395.52109 506.17953 L 395.27109 506.33573 L 395.08359 506.42973 L 394.89609 507.05473 L 394.98979 507.05473 L 395.27104 508.24223 L 395.45854 508.33623 L 397.23979 509.77373 L 397.23979 516.02373 L 397.05229 854.61753 L 327.58354 854.61753 L 327.42729 683.61753 L 327.58354 663.80503 L 327.58354 507.24253 L 327.58354 470.99253 L 326.42729 470.89853 L 324.89604 469.89853 L 322.64604 469.17973 L 321.92729 468.27353 L 316.98979 467.11723 L 315.98979 466.39853 L 311.11479 464.67973 L 308.33354 462.52353 L 307.33354 461.52353 L 306.45854 461.27353 L 305.89604 461.52353 L 303.02104 460.80473 L 302.05229 460.27353 L 300.05229 459.74223 C 295.17729 452.69103 294.17354 459.26103 289.70854 449.74223 L 291.52104 448.83603 L 291.67729 448.39853 L 291.58359 448.21103 L 291.58359 448.11703 L 291.67729 448.02303 L 291.86479 447.77303 L 292.77104 447.14803 L 293.67729 446.67923 L 294.55229 447.14803 L 294.92729 447.14803 L 295.02099 447.21003 L 295.20849 447.49123 L 296.08349 448.11623 L 296.08349 447.77253 L 296.45849 446.86623 L 296.45849 446.49123 L 296.36479 445.86623 L 297.08354 445.77223 L 297.70854 444.89723 L 296.64604 444.33473 L 296.80229 443.36603 L 296.98979 442.99103 L 296.08354 441.92853 L 295.55229 441.55353 L 295.92729 440.55353 L 296.02099 440.30353 L 295.92729 439.74103 L 295.30229 439.83503 L 295.20859 439.83503 L 294.39609 438.86623 L 293.30234 438.92823 L 292.77109 439.20953 L 293.20859 438.14703 L 292.77109 437.24073 L 291.86484 436.86573 L 290.95859 436.86573 L 290.95859 436.24073 L 289.98984 435.95953 L 289.89614 435.80323 L 289.52114 435.24073 L 289.27114 434.36573 L 288.98989 434.27173 L 288.61489 433.08423 L 288.36489 431.64673 L 288.17739 431.11553 L 287.27114 430.20923 L 286.30239 430.67803 L 285.39614 430.20923 L 284.86489 429.05303 L 284.67739 428.58423 L 283.77114 427.77173 L 283.23989 427.24053 L 282.95864 426.24053 L 283.05234 425.61553 L 283.33359 424.64673 L 283.86484 423.99053 L 284.485 423.63346 L 284.309 422.36646 L 285.472 421.71546 L 285.4045 421.06934 L 285.72327 420.92519 L 285.62887 420.27466 L 286.24109 419.83135 L 286.6483 419.46536 L 287.0184 420.22467 L 287.60235 420.80463 L 288.17387 420.30867 L 288.63221 421.11754 L 289.80724 421.70368 L 290.85588 420.94731 L 291.1156 421.6941 C 291.7606 421.5674 292.40559 421.09614 293.05059 421.7287 L 293.51982 422.41947 L 295.10472 419.99204 C 295.48081 419.93394 295.79355 419.55911 296.27596 420.03264 L 297.71845 420.7044 L 296.24127 413.99399 L 299.25094 408.68971 L 293.84043 405.41458 L 292.95902 401.63852 L 292.95849 399.08473 C 293.51599 396.83223 293.17099 394.30103 293.30224 391.95973 L 301.48974 391.95973 L 301.77099 391.70973 L 301.77099 385.49103 L 301.86469 382.86603 L 301.86469 375.39723 L 301.86469 368.92853 L 302.05219 368.49103 L 302.05219 365.86603 L 306.61469 365.86603 L 306.61469 361.83473 L 309.05219 361.83473 L 308.95849 360.83473 L 308.95849 360.74073 L 308.86479 357.86573 L 309.23979 356.67823 L 309.33349 355.61573 L 309.33349 355.17823 L 309.77099 354.36573 L 309.77099 353.08453 L 308.95849 351.92823 L 306.61474 351.92823 L 306.61474 349.67823 L 310.05224 349.67823 L 310.05224 348.86573 L 309.95854 347.33453 L 309.95854 346.33453 L 310.39604 345.36573 L 310.30234 343.55323 L 310.30234 342.02203 L 309.58359 341.02203 L 309.58359 340.14703 L 311.67734 340.05303 L 312.30234 338.77173 L 312.30234 338.33423 L 312.48984 337.08423 L 312.39614 336.17803 L 312.02114 334.92803 L 312.20864 334.27173 L 311.92739 333.39673 L 311.927 333.02182 L 309.316 333.02182 L 309.316 328.36582 L 310.276 328.36582 L 310.276 327.28496 L 311.066 327.17782 L 313.02124 327.17773 L 314.36499 325.36523 L 314.27129 325.20903 L 314.17759 324.83403 L 313.45884 324.74003 L 312.55259 322.86503 L 312.83384 322.67753 L 313.83384 322.67753 L 313.99009 321.67753 L 314.45884 321.42753 L 314.64634 320.52123 L 314.64634 319.42753 L 313.74009 318.45873 L 314.36509 317.17753 L 313.74009 316.27123 L 312.49 316.27083 L 308.705 316.27083 L 308.705 315.03834 L 309.356 314.47286 L 309.858 314.13683 L 310.718 313.61774 L 311.347 313.52934 L 312.054 313.77306 L 312.663 313.2463 L 313.27134 312.77122 L 312.39634 311.80252 L 312.20884 311.33372 L 310.95884 311.14622 L 310.95884 310.89622 L 310.39634 310.17752 L 311.67759 310.17752 L 311.67759 309.45872 L 311.30259 308.45872 L 309.67759 308.08372 C 309.42384 305.41122 308.38759 308.07872 305.80259 306.55252 L 304.74009 307.02122 L 303.64634 306.92722 L 302.77134 306.55222 L 300.95884 306.49022 L 300.24009 306.49022 L 299.33384 307.11522 L 298.61509 306.20902 L 298.61509 306.02152 L 297.70884 305.20902 L 297.36509 305.20902 C 297.36109 302.89902 297.38639 300.61152 297.27139 298.30272 L 269.64639 298.30272 L 269.65639 275.81482 L 271.10639 275.81482 L 271.29639 275.12582 L 271.59439 274.69682 L 271.94739 274.41682 L 272.33039 273.92782 L 272.83939 273.90082 L 273.10139 274.55082 L 273.43839 275.08682 L 273.87239 274.75082 L 274.08039 274.29282 L 274.31039 274.05582 L 274.21439 273.72482 L 273.88739 273.51882 L 273.54839 273.17982 L 273.33639 272.74982 L 273.04539 272.46982 L 272.68539 272.09482 L 272.23039 271.80682 L 272.01739 271.22782 L 271.63539 271.12382 L 271.22239 270.94582 L 270.95139 270.51582 L 270.63339 270.25482 L 270.15639 270.07482 L 269.65639 269.94982 L 269.64639 227.64652 L 306.52139 227.64652 C 307.23264 221.19902 306.49019 213.35522 306.70889 206.58402 L 306.709 176.25982 L 365.914 176.25982 L 365.914 158.02182 L 344.072 135.37382 L 335.735 135.31682 L 331.63 129.57282 L 313.0001 124.41582 L 308.627 125.20982 L 306.24 123.63882 L 306.24014 47.927717 L 327.58389 47.927717 L 327.58389 -0.75978262 L 327.58417 -0.75867262 L 327.58422 -0.75867262 L 397.17797 -0.75867262 L 397.24067 31.710427 L 385.24067 31.866677 L 385.24067 180.92923 L 380.24067 185.24173 L 366.24067 210.55423 L 366.24067 248.71043 L 362.34428 253.21903 L 362.34428 267.27003 L 366.23314 267.27003 L 368.50214 269.56003 L 368.50214 271.41603 L 366.25114 273.72103 L 366.25114 275.42303 L 361.86314 275.42303 L 361.86314 280.26403 L 359.57714 281.50003 L 358.20414 283.13003 L 358.20414 284.54103 L 359.44214 286.08503 L 361.65214 287.67603 L 361.65214 295.47303 L 357.22914 296.90403 L 357.07514 300.97103 L 361.77014 302.65803 L 362.34414 304.06303 L 362.33414 304.05403 L 363.95914 304.14803 L 364.30289 304.24203 L 362.42789 308.36703 L 363.05289 311.39823 L 363.92789 312.86703 L 365.20914 312.92903 L 366.24039 313.80403 L 367.33414 313.39773 L 370.89664 313.39773 L 371.24039 314.33523 L 372.20914 314.30423 L 373.17789 314.92923 L 373.45914 315.77303 L 374.39664 316.17923 L 374.70914 317.52303 L 375.70914 318.92923 L 376.95914 318.96023 L 379.45914 320.14773 L 378.55289 321.55403 L 375.27164 329.89773 L 375.11539 339.83523 L 376.99039 339.96023 L 378.42789 339.96023 L 378.42789 340.24153 L 378.61539 340.86653 L 377.70914 341.92903 L 377.08414 342.64773 L 376.55289 342.92903 L 376.36539 344.55403 L 375.74039 345.52273 L 373.77164 345.52273 C 373.46284 348.14403 374.31039 352.48903 373.39664 354.08523 C 373.31534 355.99523 374.73664 356.31403 372.77164 358.14773 L 373.77164 357.77273 L 374.83414 357.58523 L 375.83414 358.14773 L 376.08414 359.30403 L 377.08414 359.58523 L 376.99044 360.55403 L 377.89669 361.27273 L 378.42794 360.46023 L 378.42794 360.30403 L 379.52169 361.11653 L 379.77169 362.17903 L 380.42794 363.08523 L 381.30294 363.52273 L 382.30294 363.61673 L 383.30294 363.99173 L 383.74044 364.71053 L 384.27169 364.61653 L 385.17794 364.52253 L 385.17794 364.80373 L 385.55294 365.14753 L 386.17794 365.96003 L 386.99044 365.96003 L 387.33419 366.96003 L 386.52169 367.86623 L 387.17794 369.11623 L 386.17794 369.64753 L 386.27164 370.64753 L 387.08414 371.55373 L 385.99039 372.27253 L 385.45914 372.89753 L 383.55289 375.77253 L 383.64659 375.86653 L 383.45909 376.21023 L 383.11534 376.39773 L 382.58409 376.39773 C 383.18034 379.02153 383.68784 381.43653 384.11534 384.05403 C 384.37159 385.22903 384.39159 386.19523 384.64659 387.30403 L 384.64659 387.46023 L 385.45909 389.17903 L 385.45909 389.27303 L 385.55279 389.27303 L 385.55279 389.36703 L 385.64649 389.71073 L 385.64649 389.80473 L 385.89649 390.71103 C 384.99524 391.38853 384.58149 392.86223 385.17774 393.86723 L 385.27144 394.05473 L 384.99019 395.64853 L 385.27144 396.36723 L 385.36514 396.64853 L 385.55264 396.92973 L 385.55264 397.08603 L 385.45894 397.08603 L 385.55264 397.18003 L 385.64634 397.55503 L 385.89634 398.18003 L 386.08384 398.55503 L 386.08384 398.61703 L 385.89634 398.99203 L 385.55259 399.52323 L 385.45889 399.99203 L 384.83389 401.77323 L 385.08389 402.14823 L 385.27139 402.24223 L 385.27139 403.30473 L 385.08389 403.49223 L 384.64639 403.67973 L 385.64639 403.58573 L 387.89639 402.67953 L 387.95889 402.24203 L 388.33389 402.24203 L 389.24014 401.67953 L 390.14634 401.77353 L 391.74009 402.77353 L 392.92759 404.55473 L 393.83384 405.27353 L 394.08384 405.74223 L 395.89634 406.89853 L 396.42759 407.80473 L 396.42759 409.61723 L 395.80259 411.49223 L 395.70889 412.39853 L 395.42764 412.92973 L 395.99014 413.92973 L 396.61514 412.92973 L 396.24014 412.11723 L 396.89639 413.02353 L 397.05264 413.92973 L 396.80264 414.27353 L 396.61514 415.17973 L 397.05264 416.27353 L 397.05264 434.24223 L 380.24014 434.24223 L 380.23988 443.58844 L 374.789 443.58844 L 374.7557 444.68501 L 374.18928 445.29969 L 373.14157 445.45732 L 372.69381 445.99505 L 372.31014 446.90339 L 364.567 454.63625 L 364.567 463.04359 L 365.63556 462.89332 L 366.64255 462.77386 L 368.13022 460.18275 L 369.56983 460.3288 L 370.71282 462.01544 L 397.24 462.01544 Z"/>
    <path id="path42044" fill="#8cce55" stroke="#0f380f" stroke-opacity="0.14509804" stroke-linecap="round" stroke-linejoin="round" transform="matrix(1 0 0 1 0.5 1.2670726)" d="M 397.25 31.59375 L 397.09375 31.71875 L 397.25 31.71875 Z"/>
    <path id="path42042" fill="#8cce55" stroke="#0f380f" stroke-opacity="0.14509804" stroke-linecap="round" stroke-linejoin="round" transform="matrix(1 0 0 1 0.5 1.2670726)" d="M 385.09375 31.65625 L 382.9375 31.84375 L 382.03125 32.375 L 383.03125 33 L 383.84375 33.90625 L 382.03125 34.4375 L 380.96875 34.4375 L 380.0625 34.625 L 378 34.53125 L 377 35.0625 L 377.90625 35.71875 L 380.78125 36.0625 L 381.6875 36.4375 L 385.25 36.84375 L 385.25 31.875 L 387.09375 31.84375 L 385.5625 31.75 Z"/>
    <path id="path42040" fill="#8cce55" stroke="#0f380f" stroke-opacity="0.14509804" stroke-linecap="round" stroke-linejoin="round" transform="matrix(1 0 0 1 0.5 1.2670726)" d="M 371.15625 36.0625 L 369.34375 36.34375 L 367.28125 36.96875 L 366.28125 37.875 L 365.3125 38.125 L 366.28125 38.5 L 365.3125 39.21875 L 364.3125 38.84375 L 363.3125 38.0625 L 362.34375 38.40625 L 360.09375 38.40625 L 359.1875 38.84375 L 358.1875 38.9375 L 357.3125 39.75 L 355.21875 39.84375 L 354.34375 40.65625 L 353.34375 41.28125 L 353.59375 41.46875 L 354.59375 41.46875 L 355.5 42.375 L 357.46875 42.1875 L 358.46875 41.1875 L 359.375 40.84375 L 360.34375 41.03125 L 361.4375 40.65625 L 362.34375 41.375 L 363.25 41.28125 L 364.21875 41.46875 C 362.27875 41.8725 360.22625 42.29625 358.46875 43.34375 L 359.46875 43.625 L 360.53125 44.15625 L 361.4375 43.8125 L 367.65625 42.09375 L 368.625 42.09375 L 369.53125 41.90625 L 371.4375 42 L 374.40625 42.625 L 372.5 42.53125 L 371.4375 42.28125 L 368.46875 42.53125 L 367.46875 43.1875 L 366.375 43.28125 L 365.5 43.71875 L 362.59375 44.625 L 365.40625 45.53125 L 366.375 45.34375 L 367.28125 45.4375 L 364.3125 45.875 L 363.3125 45.53125 L 362.34375 45.53125 L 361.71875 45.78125 L 360.71875 46.40625 L 361.4375 47.40625 L 362.34375 47.84375 L 364.84375 48.03125 L 366.75 47.6875 L 369.8125 47.40625 L 374.65625 47.40625 L 378.8125 46.78125 L 380.78125 45.78125 L 384.65625 44.875 L 385.25 44.8125 L 385.25 37.78125 L 384.84375 37.40625 L 383.9375 37.15625 L 382.75 37.96875 L 383.75 38.6875 L 381.78125 37.40625 L 380.78125 36.96875 L 379.78125 36.59375 L 378.8125 36.53125 L 377.8125 36.53125 L 376.90625 37.3125 L 375.9375 37.59375 L 376.90625 38.21875 L 375.03125 37.59375 L 375.03125 36.59375 L 374.125 36.25 Z"/>
    <path id="path42038" fill="#8cce55" stroke="#0f380f" stroke-opacity="0.14509804" stroke-linecap="round" stroke-linejoin="round" transform="matrix(1 0 0 1 0.5 1.2670726)" d="M 346.21875 44 L 345.25 44.4375 L 343.25 44.15625 L 342.53125 44.34375 L 342 45.34375 L 343 45.78125 L 343.96875 45.96875 L 345.875 45.78125 L 347.84375 46.15625 L 347.65625 47.125 L 345.875 47.40625 L 344.96875 47.125 L 343 47.125 L 342.1875 46.96875 L 343.25 47.59375 L 344.25 47.78125 L 342.4375 48.125 L 341.5625 48.5 L 340.65625 47.6875 L 339.5625 47.59375 L 338.65625 47.84375 L 337.6875 48.84375 L 337.40625 49.75 L 338.3125 50.375 L 339.40625 50.1875 L 340.28125 51.09375 L 343.4375 51.28125 L 341.46875 51.46875 L 341.1875 52.34375 L 342.09375 52.34375 L 344.0625 52.71875 L 343.09375 53 L 341.09375 53 L 340.125 52.90625 L 339.21875 52.4375 L 338.21875 52.625 L 337.21875 52.53125 L 335.25 52.71875 L 334.25 53.625 L 335.25 54.0625 L 336.15625 54.6875 L 337.0625 54.875 L 336.0625 54.96875 L 334.15625 54.78125 L 332.28125 55.25 L 331.375 55.25 L 332.375 55.5 L 333.28125 56.3125 L 335.25 56.75 L 336.15625 56.3125 L 337.15625 56.59375 L 338.03125 56.3125 L 337.15625 56.75 L 336.15625 56.84375 L 337.15625 57.5625 L 338.125 57.65625 L 339.03125 57.5 L 340.03125 57.21875 L 340.90625 56.59375 L 341.8125 56.84375 L 342.8125 56.9375 L 340.90625 57.5 L 340.84375 58.375 L 341.8125 58.9375 L 341.09375 58.9375 L 340.125 58.5625 L 338.125 58.5625 L 335.15625 58.28125 L 334.15625 58.125 L 333.28125 57.65625 L 332.28125 57.40625 L 331.375 57.40625 L 331.125 58.28125 L 332.1875 58.28125 L 331.5625 58.9375 L 332.5625 59.5625 L 333.4375 59.65625 L 332.375 59.8125 L 332.65625 60.71875 L 333.4375 61.625 L 334.34375 62 L 335.34375 62.625 L 337.40625 62.71875 L 340.1875 62.34375 L 341.09375 61.71875 L 342 61.4375 L 341.9063 62.4375 L 339.93755 63.15625 L 336.1563 63.59375 L 335.7813 64.5 L 336.87505 65.3125 L 337.7813 65.125 L 338.12505 66.03125 L 339.12505 66.5625 L 342.9063 65.21875 L 343.81255 65.40625 L 343.0938 66.3125 L 344.06255 66.65625 L 345.06255 66.3125 L 346.06255 65.6875 L 346.7813 64.78125 L 346.6876 65.6875 L 347.65635 65.59375 L 347.9376 64.6875 L 348.9376 65.125 L 350.8126 64.6875 L 351.71885 64.6875 L 350.8126 65.125 L 351.8126 65.6875 L 353.8751 65.75 L 354.8751 65.5 L 355.9376 65.5 L 356.84385 65.21875 C 354.98385 66.77375 352.3126 65.8375 350.1876 66.3125 L 351.1876 67.03125 L 352.09385 67.21875 L 353.0626 67.21875 L 354.96885 66.9375 L 355.9376 67.03125 L 356.9376 66.84375 L 359.8126 66.75 C 355.54885 68.25875 350.90385 67.53625 346.5001 67.75 L 345.6876 68.65625 L 344.6876 69 L 343.6251 69.09375 L 342.71885 69.375 L 343.4376 70.25 L 344.34385 71.0625 L 346.40635 71.0625 L 348.3126 71.6875 L 347.3126 71.96875 L 345.2501 71.53125 L 345.6876 72.5 L 346.6876 72.59375 L 347.03135 73.5 L 349.03135 73.15625 L 350.90635 73.5 L 354.6876 73.78125 L 352.71885 74.125 L 350.8126 74.21875 L 348.9376 74.59375 L 349.28135 75.46875 L 350.1876 75.84375 L 351.1876 76.46875 L 352.15635 76.1875 L 352.4376 77.1875 C 355.20135 76.9 358.3901 79.1 361.0626 77.65625 L 360.71885 76.75 L 359.8126 76.65625 L 358.8126 76.1875 L 361.71885 76.1875 L 364.3126 77.90625 L 364.3126 77 L 363.78135 76.125 L 362.34385 74.75 L 361.8751 73.78125 L 362.34385 73.3125 L 363.96885 75.125 L 366.65635 77.65625 L 367.5626 77.90625 L 368.28135 76.9375 L 369.09385 75.03125 L 368.1876 74.125 L 369.09385 73.59375 L 370.0626 74.40625 L 370.96885 74.75 L 371.8751 74.125 L 371.7814 73.15625 L 370.87515 72.78125 L 370.5314 70.96875 L 370.625 70 L 372.5 68.65625 L 372.0625 69.53125 L 371.59375 71.4375 L 372.15625 72.34375 L 373.03125 72.96875 L 373.9375 72.4375 L 374.75 71.4375 L 375.65625 70.90625 L 376.375 69.90625 L 376.2813 69 L 377.18755 69.71875 L 378.0938 69.53125 L 378.7188 68.65625 L 382.75005 67.75 L 385.25005 66.78125 L 385.25005 65.6875 L 384.4688 65.3125 L 382.93755 63.4375 L 382.0313 62.875 L 380.68755 64.78125 L 379.9688 62.96875 L 379.0625 62.625 L 378 62.53125 L 377.09375 62.96875 L 376.09375 63.15625 L 375.21875 63.875 L 374.3125 63.96875 L 375.75 62.0625 L 375.9375 61.1875 L 376.375 60.28125 L 375.375 60.28125 L 374.3125 60.625 L 375.28125 59.71875 L 376.1875 59.46875 L 374.5625 58.125 L 372.59375 58.21875 L 371.59375 57.84375 L 372.59375 57.3125 L 373.5 57.03125 L 373.3125 55.15625 L 372.40625 54.5 L 369.4375 54.25 L 368.53125 54.78125 L 368.46875 55.6875 L 369.34375 56.59375 L 370.34375 56.84375 L 370.78125 57.75 L 369.90625 57.5 L 368.90625 57.75 L 368 57.5 L 366.125 56.40625 L 366.28125 55.5 L 365.84375 54.5 L 366.21875 53.625 L 365.21875 53.15625 L 362.34375 53.15625 L 359.375 52.90625 L 359.5625 51.90625 L 358.65625 51.1875 L 357.65625 51.09375 L 356.9375 50.09375 L 355.21875 48.40625 L 354.25 47.6875 L 353.78125 46.78125 L 352.875 45.875 L 351.90625 45.4375 L 349.09375 44.625 Z"/>
    <path id="path42036" fill="#8cce55" stroke="#0f380f" stroke-opacity="0.14509804" stroke-linecap="round" stroke-linejoin="round" transform="matrix(1 0 0 1 0.5 1.2670726)" d="M 385.25 45.5 L 383.65625 45.875 L 380.78125 47.21875 L 377.71875 48.125 L 374.9375 48.40625 C 371.0275 48.1075 369.29625 47.785 365.21875 48.9375 L 365.65625 49.84375 L 368.46875 50.65625 L 370.4375 51.46875 L 371.4375 51.53125 L 373.3125 52.1875 L 374.3125 52.1875 L 375.375 52 L 376.1875 51 L 378.09375 49.84375 L 379 49.125 L 381.875 47.78125 L 382.84375 47.59375 L 385.25 47.4375 Z"/>
    <path id="path42034" fill="#8cce55" stroke="#0f380f" stroke-opacity="0.14509804" stroke-linecap="round" stroke-linejoin="round" transform="matrix(1 0 0 1 0.5 1.2670726)" d="M 385.25 47.84375 L 382.6875 48.40625 L 381.6875 48.84375 L 379.78125 50.375 L 378.90625 50.8125 L 377.90625 51.625 L 377.53125 52.53125 L 380.5 53.25 L 381.5 52.71875 L 382.40625 52.53125 L 381.5 53.15625 L 385.25 53.53125 Z"/>
    <path id="path42032" fill="#8cce55" stroke="#0f380f" stroke-opacity="0.14509804" stroke-linecap="round" stroke-linejoin="round" transform="matrix(1 0 0 1 0.5 1.2670726)" d="M 335.875 51.46875 L 333.90625 51.71875 L 334.90625 52 L 335.875 51.90625 L 336.875 52.1875 L 338.75 52.25 L 338.8437 51.625 L 337.87495 51.46875 L 335.87495 51.46875 Z"/>
    <path id="path42030" fill="#8cce55" stroke="#0f380f" stroke-opacity="0.14509804" stroke-linecap="round" stroke-linejoin="round" transform="matrix(1 0 0 1 0.5 1.2670726)" d="M 380.34375 55.3125 C 380.06812 55.34314 379.76219 55.40594 379.4375 55.5 L 378.4375 56.125 L 378.09375 57.03125 L 378.00005 58.03125 L 378.81255 58.9375 L 382.5938 59.28125 L 383.56255 59.90625 L 382.68755 59.5625 L 381.68755 59.5625 L 379.7813 59.1875 L 378.81255 59.5625 L 378.71885 61.4375 L 381.59385 62.0625 L 382.6876 62 L 383.65635 62.15625 L 384.5626 62.53125 L 385.2501 63.15625 L 385.2501 56.125 C 383.10102 56.13673 382.1815 55.108241 380.34385 55.3125 Z"/>
    <path id="path42028" fill="#8cce55" stroke="#0f380f" stroke-opacity="0.14509804" stroke-linecap="round" stroke-linejoin="round" transform="matrix(1 0 0 1 0.5 1.2670726)" d="M 317 57.3125 L 315.71875 57.9375 L 315.28125 58.9375 L 315.46875 60.09375 L 316 60.1875 L 318.34375 60.1875 L 319.25 60.53125 L 319.1563 61.4375 L 321.0313 61.90625 L 321.93755 61.71875 L 322.2188 60.71875 L 321.6563 59.8125 L 321.5626 58.5625 L 320.59385 57.84375 L 319.6875 57.5625 L 318.78125 57.75 L 317.875 57.40625 Z"/>
    <path id="path42026" fill="#8cce55" stroke="#0f380f" stroke-opacity="0.14509804" stroke-linecap="round" stroke-linejoin="round" transform="matrix(1 0 0 1 0.5 1.2670726)" d="M 306.8125 68.46875 L 306.7188 68.5625 L 306.25005 68.8125 L 306.25005 76.6875 L 306.7188 76.75 L 307.81255 76.84375 L 309.68755 77.46875 L 310.68755 77.5625 L 311.68755 78.28125 L 312.12505 79.25 L 312.8438 80.15625 L 313.8438 80.96875 L 314.75005 81.34375 L 316.00005 81.5 L 318.87505 81.25 L 319.87505 81.0625 L 320.75005 79.1875 L 318.06255 76.5625 L 317.1563 76.5625 L 317.1563 75.5625 L 317.43755 74.6875 L 318.1563 73.78125 L 317.1563 73.40625 L 316.00005 73.21875 L 316.00005 72.0625 L 315.0938 71.78125 L 314.0938 71.0625 L 313.12505 71.4375 L 311.2188 71.4375 L 311.0313 70.4375 L 310.06255 69.625 L 308.06255 68.5625 L 306.81255 68.46875 Z"/>
    <path id="path42024" fill="#8cce55" stroke="#0f380f" stroke-opacity="0.14509804" stroke-linecap="round" stroke-linejoin="round" transform="matrix(1 0 0 1 0.5 1.2670726)" d="M 382.21875 68.65625 L 381.25 68.71875 L 379.4375 69.625 L 379.4375 70.53125 L 383.46875 69.71875 L 384.125 68.8125 Z"/>
    <path id="path42022" fill="#8cce55" stroke="#0f380f" stroke-opacity="0.14509804" stroke-linecap="round" stroke-linejoin="round" transform="matrix(1 0 0 1 0.5 1.2670726)" d="M 384.5625 70.25 L 382.6875 70.8125 L 377.71875 71.53125 L 376.8125 72.0625 L 376.28125 73.0625 L 376.5625 73.9375 L 375.5625 73.9375 L 374.65625 74.5 L 373.84375 75.40625 L 373.84375 76.375 L 374.5625 77.28125 L 375.46875 77.46875 L 374.5 78.28125 L 375.46875 78.4375 L 377.53125 78.28125 L 378.53125 77.375 L 379.4375 77.46875 L 380.34375 77.09375 L 381.3125 76.46875 L 380.6875 77.375 L 379.71875 78 L 380.34375 78.90625 L 383.3125 78.4375 L 384.21875 77.71875 L 385.25 76.34375 L 385.25 70.25 Z"/>
    <path id="path42020" fill="#8cce55" stroke="#0f380f" stroke-opacity="0.14509804" stroke-linecap="round" stroke-linejoin="round" transform="matrix(1 0 0 1 0.5 1.2670726)" d="M 325.25 71.15625 L 324.28125 71.34375 L 323.5625 72.25 L 324.1875 73.15625 L 325.09375 73.6875 L 324.09375 74.125 L 323.65625 75.03125 L 324.53125 75.40625 L 324.90625 76.28125 L 325.90625 76.65625 L 326.78125 77.375 L 327.78125 77.375 L 328.6875 77.5625 L 330.5625 78.375 L 329.59375 78.71875 L 327.5 78.625 L 326.53125 79.09375 L 329.3125 80.15625 L 329.5 81.0625 L 330.46875 81.59375 L 332.375 80.4375 L 333.375 80.78125 L 334.34375 80.6875 L 336.34375 80.15625 L 338.21875 79.90625 L 339.125 79.53125 L 339.46875 78.625 L 338.65625 77.71875 L 337.6875 77.28125 L 338.59375 76.5625 L 339.5625 76.1875 L 339.21875 75.3125 L 336.40625 74.21875 L 334.34375 74.5 L 333.4375 74.21875 L 333.8125 73.21875 L 332.90625 73.15625 L 331.9375 72.59375 L 330.9375 72.5 L 330.03125 72.0625 L 329.03125 71.78125 L 327.15625 71.34375 Z"/>
    <path id="path42018" fill="#8cce55" stroke="#0f380f" stroke-opacity="0.14509804" stroke-linecap="round" stroke-linejoin="round" transform="matrix(1 0 0 1 0.5 1.2670726)" d="M 371.0625 74.9375 L 370.53125 76.84375 L 371.34375 74.9375 Z"/>
    <path id="path42016" fill="#8cce55" stroke="#0f380f" stroke-opacity="0.14509804" stroke-linecap="round" stroke-linejoin="round" transform="matrix(1 0 0 1 0.5 1.2670726)" d="M 341.375 76.65625 L 340.65625 76.75 L 341.375 77.65625 L 342.375 77.46875 Z"/>
    <path id="path42014" fill="#8cce55" stroke="#0f380f" stroke-opacity="0.14509804" stroke-linecap="round" stroke-linejoin="round" transform="matrix(1 0 0 1 0.5 1.2670726)" d="M 384.9375 79 L 382.9375 79.8125 L 383.125 80.6875 L 385 80.4375 L 385.25 80.4375 L 385.25 79.0625 Z"/>
    <path id="path42012" fill="#8cce55" stroke="#0f380f" stroke-opacity="0.14509804" stroke-linecap="round" stroke-linejoin="round" transform="matrix(1 0 0 1 0.5 1.2670726)" d="M 308.25 80.53125 L 306.71875 80.625 L 306.25 80.625 L 306.25 82.59375 L 306.53125 82.6875 L 306.71875 82.6875 L 307.53125 82.6875 L 309.34375 82.21875 L 311.3125 82.15625 L 310.59375 81.25 Z"/>
    <path id="path42010" fill="#8cce55" stroke="#0f380f" stroke-opacity="0.14509804" stroke-linecap="round" stroke-linejoin="round" transform="matrix(1 0 0 1 0.5 1.2670726)" d="M 374.84375 80.53125 L 371.15625 81.34375 L 370.875 82.3125 L 370.9687 83.21875 L 372.9687 84.03125 L 372.68745 84.9375 L 373.2187 85.90625 L 374.2187 86.09375 L 375.12495 85.84375 L 376.09375 85.75 L 377 85.90625 L 376.09375 86 L 375.125 86.46875 L 376 87.375 L 378 87.625 L 377 88.09375 L 376 87.53125 L 375.125 87.625 L 374.125 88.34375 L 373.21875 88.09375 L 371.34375 88.25 L 370.34375 88.09375 L 368.28125 89.25 L 367.28125 89.53125 L 364.5 90.78125 L 364.9375 92.65625 L 363.96875 93.5625 L 365.9375 94.84375 L 366.84375 94.90625 L 367.75 94.75 L 368.53125 93.75 L 368.71875 94.65625 L 369.28125 93.75 L 368.46875 91.875 L 369.34375 91.40625 L 369.28125 92.40625 L 370 94.28125 L 369.625 95.1875 L 371.53125 95.5625 L 372.40625 95.1875 L 373.3125 95.71875 L 374.3125 95.5625 L 373.6875 94.65625 L 373.9375 93.75 L 374.75 94.65625 L 375.75 95.28125 L 376.75 95.46875 L 377.625 95.375 L 377.90625 94.46875 L 378.90625 93.5625 L 378 92.84375 L 379.875 94.03125 L 379 94.375 L 379.71875 95.375 L 382.59375 95.71875 L 383.46875 96.09375 L 385.25 96.09375 L 385.25 85.625 L 383.84375 85.46875 L 382.9375 84.84375 L 381.96875 85.03125 L 381.78125 84.03125 L 381.40625 83.125 L 380.5 82.15625 L 379.53125 81.4375 L 378.625 81.0625 L 376.75 80.625 Z"/>
    <path id="path42008" fill="#8cce55" stroke="#0f380f" stroke-opacity="0.14509804" stroke-linecap="round" stroke-linejoin="round" transform="matrix(1 0 0 1 0.5 1.2670726)" d="M 385.25 80.65625 L 385 80.6875 L 384.03125 81.5 L 385 81.5 L 384.03125 82.21875 L 384.9375 83.125 L 385.25 83.21875 Z"/>
    <path id="path42006" fill="#8cce55" stroke="#0f380f" stroke-opacity="0.14509804" stroke-linecap="round" stroke-linejoin="round" transform="matrix(1 0 0 1 0.5 1.2670726)" d="M 337.0625 81.4375 L 334.96875 81.875 L 334.09375 82.21875 L 333.1875 82.9375 L 333.53125 83.84375 L 334.4375 84.5625 L 335.34375 84.75 L 338.21875 84.84375 L 339.21875 84.65625 L 342 84.65625 L 343 84.9375 L 345.875 85.03125 L 346.125 84.03125 L 346.6875 83.125 L 347.65625 82.40625 L 345.6875 81.6875 L 344.625 82.0625 L 340.90625 81.59375 L 337.9375 81.96875 Z"/>
    <path id="path42004" fill="#8cce55" stroke="#0f380f" stroke-opacity="0.14509804" stroke-linecap="round" stroke-linejoin="round" transform="matrix(1 0 0 1 0.5 1.2670726)" d="M 358.46875 82.875 L 357.5625 83.125 L 356.84375 84.03125 L 356.93745 85.03125 L 357.37495 85.90625 L 358.37495 86.46875 L 361.24995 87.375 L 362.3437 87.28125 L 363.24995 86.71875 L 363.68745 85.84375 L 363.68745 84.9375 L 362.3437 83.9375 L 360.43745 83.125 L 359.4687 83.125 L 358.4687 82.875 Z"/>
    <path id="path42002" fill="#8cce55" stroke="#0f380f" stroke-opacity="0.14509804" stroke-linecap="round" stroke-linejoin="round" transform="matrix(1 0 0 1 0.5 1.2670726)" d="M 384.28125 83.59375 L 383.3125 84.03125 L 384.28125 84.125 L 385.1875 84.84375 L 385.25 84.8125 L 385.25 83.6875 Z"/>
    <path id="path42000" fill="#8cce55" stroke="#0f380f" stroke-opacity="0.14509804" stroke-linecap="round" stroke-linejoin="round" transform="matrix(1 0 0 1 0.5 1.2670726)" d="M 357.375 86.8125 L 356.75 87.71875 L 357.75 88 L 358.65625 87.90625 L 358.375 86.90625 Z"/>
    <path id="path41998" fill="#8cce55" stroke="#0f380f" stroke-opacity="0.14509804" stroke-linecap="round" stroke-linejoin="round" transform="matrix(1 0 0 1 0.5 1.2670726)" d="M 335.25 88.71875 L 334.34375 88.90625 L 333.375 88.90625 L 332.46875 89.625 L 331.5625 89.53125 L 330.65625 90.0625 L 331.5625 90.78125 L 332.5625 91.15625 L 331.65625 91.78125 L 330.65625 91.21875 L 330.40625 92.125 L 332.28125 92.40625 L 334.15625 93.40625 L 335.15625 93.65625 L 336.0625 93.21875 L 335.15625 94.03125 L 334.25 93.9375 L 334.8125 94.90625 L 336.6875 95.375 L 339.5625 95.625 L 338.59375 96.09375 L 337.6875 96.1875 L 338.59375 96.71875 L 339.5625 96.53125 L 340.5625 96 L 341.5625 96.28125 L 345.5 96.53125 L 346.40625 95.8125 L 347.5 95.46875 L 349.28125 96.90625 L 350.09375 97.875 L 350.09375 98.78125 L 352 99.96875 L 352.53125 100.9375 L 353.0625 102.75 L 352.15625 103.1875 L 351.34375 104.09375 L 351.34375 105 L 350.90625 105.90625 L 351.625 106.875 L 352.625 106.875 L 352.15625 107.875 L 352.875 108.78125 L 352.9687 109.6875 L 353.5312 110.59375 L 354.4062 110.84375 L 355.4062 111.65625 L 356.31245 111.03125 L 357.2187 111.75 L 356.6562 110.84375 L 357.56245 110.40625 L 358.4687 109.5 L 358.18745 111.3125 L 359.99995 112.03125 L 361.87495 112.46875 L 362.3437 112.1875 L 363.31245 112.65625 L 365.12495 112.1875 L 366.0312 112.1875 L 366.56245 111.21875 L 366.74995 110.3125 L 367.56245 111.21875 L 368.9062 109.3125 L 369.3437 110.3125 L 369.5312 111.21875 L 368.99995 112.09375 L 369.99995 113 L 370.87495 112.9063 L 371.87495 113.18755 L 372.7812 112.8438 L 373.68745 113.2813 L 374.56245 112.56255 L 375.56245 113.2813 L 376.4687 113.0938 L 377.37495 113.2813 L 377.18745 112.2813 L 378.99995 113.0938 L 379.7812 112.18755 L 380.3437 113.0938 L 381.24995 113.0938 L 383.12495 112.8438 L 383.03125 111.8438 L 383.84375 112.8438 L 384.75 113 L 385.25 112.15625 L 385.25 102.375 L 383.65625 103.125 L 382.75 102.84375 L 381.875 103.28125 L 380.875 103.37495 L 381.59375 104.2812 L 382.59375 104.4687 L 380.6875 104.375 L 378.8125 104.90625 L 378.34375 104 L 377.46875 103.9063 L 376.46875 103.56255 L 375.46875 102.75005 L 374.5 102.65635 L 374.21875 103.5626 L 373.21875 103.1251 L 372.3125 103.1251 L 370.53125 103.90635 L 369.8125 103.03135 L 368.90625 102.3126 L 368 102.46885 L 368 104.28135 L 367.09375 104.28135 L 366.28125 103.3751 L 365.3125 102.84385 L 364.40625 103.1876 L 363.40625 103.03135 L 365.40625 102.46885 L 366.125 101.59385 L 365.125 100.6876 L 364.21875 100.3126 L 363.3125 100.59385 L 363.4062 99.6876 L 362.5312 98.8751 L 362.3437 98.8751 L 361.43745 99.5001 L 360.43745 99.59385 L 358.6562 99.0626 L 357.74995 99.8751 L 358.0312 98.8751 L 357.0312 98.8751 L 359.81245 98.6251 L 360.81245 98.6876 L 359.9062 98.0626 L 358.9062 98.4376 L 358.0312 97.6251 L 357.0312 97.4376 L 356.12495 97.6251 L 355.49995 96.6251 L 358.37495 97.34385 L 359.37495 97.34385 L 360.2812 97.4376 L 361.1562 97.2501 L 363.31245 97.4376 L 365.2187 97.2501 L 365.8437 96.3751 C 363.6087 95.3113 358.16995 95.0488 355.5937 94.3751 L 356.49995 94.1876 L 359.37495 94.5626 L 359.81245 93.65635 C 356.4612 92.33265 355.20995 91.6113 351.2812 93.3126 L 350.37495 93.1251 L 348.4687 93.03135 L 347.49995 93.65635 L 346.49995 94.5626 L 345.49995 94.84385 L 347.2187 93.1251 L 347.5937 92.21885 L 346.68745 91.3126 L 344.68745 90.15635 L 343.81245 90.0626 L 342.81245 90.40635 L 341.9062 90.15635 L 341 89.53125 L 340.03125 89.625 L 338.125 89.25 L 337.21875 88.8125 Z"/>
    <path id="path41994" fill="#8cce55" stroke="#0f380f" stroke-opacity="0.14509804" stroke-linecap="round" stroke-linejoin="round" transform="matrix(1 0 0 1 0.5 1.2670726)" d="M 362.34375 90.875 L 360.34375 91.21875 L 359.71875 92.125 L 361.4375 93.9375 L 362.34375 94.46875 L 362.6875 94.125 L 363.6875 94.1875 L 362.96875 93.3125 L 363.6875 92.3125 L 363.3125 91.40625 Z"/>
    <path id="path41992" fill="#8cce55" stroke="#0f380f" stroke-opacity="0.14509804" stroke-linecap="round" stroke-linejoin="round" transform="matrix(1 0 0 1 0.5 1.2670726)" d="M 313.46875 91.6875 L 311.59375 91.9375 L 310.59375 92.59375 L 309.59375 92.84375 L 308.625 93.5625 L 309.59375 93.65625 L 310.59375 93.46875 L 313.65625 92.5 L 314.65625 92.03125 Z"/>
    <path id="path41990" fill="#8cce55" stroke="#0f380f" stroke-opacity="0.14509804" stroke-linecap="round" stroke-linejoin="round" transform="matrix(1 0 0 1 0.5 1.2670726)" d="M 316 91.78125 L 316 92.03125 L 317.875 92.03125 Z"/>
    <path id="path41988" fill="#8cce55" stroke="#0f380f" stroke-opacity="0.14509804" stroke-linecap="round" stroke-linejoin="round" transform="matrix(1 0 0 1 0.5 1.2670726)" d="M 321.65625 92.40625 L 322.5625 92.65625 L 321.65625 93.3125 L 320.6875 93.21875 L 320.75 94.125 L 320.21875 95 L 319.6875 94.125 L 317.78125 93.3125 L 315 92.75 L 313.125 93.40625 L 312.125 94.03125 L 312.3125 94.90625 L 313.21875 95.375 L 315.09375 95.375 L 316 95.90625 L 316 96.28125 L 315 96 L 314.09375 96.28125 L 315.09375 97.15625 L 316 97.09375 L 316.90625 97.4375 L 317.875 97.53125 L 316.90625 97.71875 L 316 97.53125 L 315 97.71875 L 315.71875 98.625 L 316 98.625 L 316 98.875 L 317 99.40625 L 317.875 99.25 L 317 99.875 L 316.09375 100.125 L 316.00005 99.6875 L 314.0938 98.34375 L 313.2188 98.25 L 312.6563 97.34375 L 311.68755 96.8125 L 310.68755 96.625 L 310.9688 95.71875 L 310.06255 95.1875 L 309.1563 94.75 L 307.18755 94.75 L 306.7188 95.1875 L 306.2813 95.71875 L 306.2501 95.875 L 306.2501 96.65625 L 306.71885 96.71875 L 308.0001 96.90625 L 308.96885 96.71875 L 307.90635 97.25 L 307.1876 98.15625 L 308.0001 99.0625 L 309.78135 98.78125 L 308.78135 99.59375 L 309.6876 100.5 L 310.78135 100.9375 L 311.6876 100.78125 L 309.6876 101.3125 L 308.78135 100.6875 L 307.8126 100.21875 L 306.90635 100.0625 L 306.71885 100.0625 L 306.2501 100.0937 L 306.2501 101.37495 L 306.53135 101.8437 L 306.2501 101.7812 L 306.2501 103.24995 L 306.46885 103.28115 L 306.71885 103.18745 L 309.2501 102.74995 L 310.2501 102.84365 L 311.21885 102.5624 L 312.1251 102.6561 L 313.1251 102.37485 L 317.0001 101.93735 L 320.9376 101.74985 L 320.03135 102.0311 L 317.15635 102.2186 L 316.2501 103.12485 L 316.0001 103.12485 L 316.0001 103.37485 L 315.09385 103.46855 L 316.0001 103.65605 L 316.0001 103.84355 L 315.09385 103.84355 L 314.09385 104.1873 L 313.1251 104.281 L 314.0001 104.81225 L 313.03135 105.0935 L 314.90635 105.99975 L 316.0001 106.09345 L 314.1876 106.2497 L 314.1876 108.0622 L 315.09385 108.40595 L 316 108.49995 L 317.875 108.59365 L 318.78125 107.6874 L 319.78125 108.34365 L 322.46875 108.34365 L 324.375 108.15615 L 325.34375 108.24985 L 325.25005 107.3436 L 324.9063 106.3436 L 325.81255 107.1561 L 326.7188 107.2498 L 326.43755 106.2498 L 325.5313 105.90605 L 324.62505 105.1873 L 325.62505 104.9998 L 325.00005 104.09355 L 326.9688 103.3748 L 327.5938 104.28105 L 328.5938 104.6248 L 327.9688 103.7498 L 328.0625 101.9373 L 326.15625 101.59355 L 326.96875 100.59355 L 327.15625 98.6873 L 327.5 97.8123 L 327.34375 96.90605 L 326.34375 95.9998 L 326.625 95.09355 L 326.4375 94.1248 L 323.65625 93.5623 L 324.53125 93.40605 L 323.65625 93.1248 L 322.65625 92.4998 L 321.65625 92.40605 Z"/>
    <path id="path41986" fill="#8cce55" stroke="#0f380f" stroke-opacity="0.14509804" stroke-linecap="round" stroke-linejoin="round" transform="matrix(1 0 0 1 0.5 1.2670726)" d="M 339.75 97.53125 L 338.9375 98.53125 L 339.84375 97.625 L 339.75005 97.53125 Z"/>
    <path id="path41984" fill="#8cce55" stroke="#0f380f" stroke-opacity="0.14509804" stroke-linecap="round" stroke-linejoin="round" transform="matrix(1 0 0 1 0.5 1.2670726)" d="M 306.25 99.1875 L 306.25 99.71875 L 306.71875 99.59375 L 306.71875 99.5 Z"/>
    <path id="path41982" fill="#8cce55" stroke="#0f380f" stroke-opacity="0.14509804" stroke-linecap="round" stroke-linejoin="round" transform="matrix(1 0 0 1 0.5 1.2670726)" d="M 341.5625 99.25 L 339.75 99.5 L 339.9375 100.40625 L 340.46875 101.3125 L 342.375 101.2188 L 341.90625 100.2188 L 341.71875 99.3438 Z"/>
    <path id="path41980" fill="#8cce55" stroke="#0f380f" stroke-opacity="0.14509804" stroke-linecap="round" stroke-linejoin="round" transform="matrix(1 0 0 1 0.5 1.2670726)" d="M 332.5625 102.375 L 331.65625 103.125 L 329.6875 103.65625 L 330.125 104.5625 L 331.125 104.8125 L 332.09375 104.1875 L 332.18745 103.28125 L 333.0937 103.75 L 333.99995 103.75 L 334.9687 103.1875 L 334.43745 102.75 L 332.56245 102.375 Z"/>
    <path id="path41978" fill="#8cce55" stroke="#0f380f" stroke-opacity="0.14509804" stroke-linecap="round" stroke-linejoin="round" transform="matrix(1 0 0 1 0.5 1.2670726)" d="M 339.75 102.375 L 337.875 102.75 L 335.96875 103.46875 L 336.06245 104.375 L 334.1562 104.4687 L 335.06245 104.7187 L 332.2812 106.87495 L 331.74995 107.7812 L 332.6562 108.3437 L 333.0937 109.2187 L 333.81245 108.3437 L 334.1562 109.2187 L 335.1562 109.7812 L 336.06245 110.0312 L 336.9687 110.74995 L 337.93745 110.2187 L 340.74995 111.8437 L 342.5312 111.56245 L 345.49995 111.56245 L 346.31245 110.6562 L 346.49995 109.7812 L 346.40625 108.7812 L 345.5 108.06245 L 346.21875 107.06245 L 346.0625 106.1562 L 345.0625 105.5312 L 344.4375 104.62495 L 342.4375 103.12495 L 341.5625 102.6562 L 339.75 102.37495 Z"/>
    <path id="path41976" fill="#8cce55" stroke="#0f380f" stroke-opacity="0.14509804" stroke-linecap="round" stroke-linejoin="round" transform="matrix(1 0 0 1 0.5 1.2670726)" d="M 314.75 102.4687 L 312.84375 102.8437 L 311.84375 103.2812 L 312.84375 103.0312 L 313.75 103.2812 Z"/>
    <path id="path41974" fill="#8cce55" stroke="#0f380f" stroke-opacity="0.14509804" stroke-linecap="round" stroke-linejoin="round" transform="matrix(1 0 0 1 0.5 1.2670726)" d="M 336.0625 111.6562 L 335.15625 112.2812 L 336.0625 112.74995 L 337.0625 112.99995 L 337.9375 112.8437 L 337.21875 111.93745 L 336.25 111.6562 Z"/>
    <path id="path41972" fill="#8cce55" stroke="#0f380f" stroke-opacity="0.14509804" stroke-linecap="round" stroke-linejoin="round" transform="matrix(1 0 0 1 0.5 1.2670726)" d="M 327.96875 111.7499 L 327.0625 112.28115 L 326.25 113.1874 L 327.25 113.1874 L 328.15625 112.7499 L 328.21875 111.84365 L 327.96875 111.74995 Z"/>
    <path id="path41970" fill="#8cce55" stroke="#0f380f" stroke-opacity="0.14509804" stroke-linecap="round" stroke-linejoin="round" transform="matrix(1 0 0 1 0.5 1.2670726)" d="M 345.875 115.96865 L 344.875 116.2499 L 343 116.2499 L 340.125 116.8749 L 339.21875 117.2499 L 338.21875 117.40615 L 337.6875 118.3124 L 339.40625 120.03115 L 340.375 120.3749 L 339.46875 120.5624 L 337.5 119.7499 L 336.59375 119.8436 L 335.78125 120.74985 L 336.25 121.74985 L 336.0625 122.62485 L 336.40625 124.43735 L 336.0625 126.31235 L 336.0625 128.2186 L 336.40625 129.12485 L 337.3125 129.56235 L 337.6875 130.4686 L 338.40625 131.37485 L 338.21875 133.24985 L 339.21875 133.87485 L 340.125 133.78115 L 338.21875 134.2499 L 338.21875 135.2499 L 339.21875 135.3124 L 341.90625 134.96865 L 342.90625 135.15615 L 344.875 132.34365 L 345.78125 131.8124 L 346.21875 130.90615 L 344.6875 129.1249 L 342.8125 128.84365 L 343.8125 128.4999 L 346.59375 128.3124 L 351.34375 129.03115 L 352.25 128.84365 L 353.25 128.1249 L 354.15625 127.21865 L 355.5 125.34365 L 355.21875 124.4374 L 356.21875 124.2499 L 356.9375 123.28115 L 359.625 120.5624 L 360.34375 119.65615 L 360.625 118.78115 L 359.71875 118.0624 L 358.8125 117.78115 L 355.0625 117.2499 L 353.15625 117.40615 L 352.25 117.96865 L 351.34375 117.15615 L 350.46875 116.78115 L 349.75 116.78115 L 348.75 116.2499 L 346.875 115.96865 Z"/>
    <path id="path41968" fill="#8cce55" stroke="#0f380f" stroke-opacity="0.14509804" stroke-linecap="round" stroke-linejoin="round" transform="matrix(1 0 0 1 0.5 1.2670726)" d="M 325.96875 116.4374 L 325 116.59365 L 323 117.2499 L 322.03125 117.2499 L 320.21875 117.96865 L 319.25 118.06235 L 320.125 118.8436 L 321.125 118.8436 L 320.21875 119.0311 L 321.125 119.2186 L 322.03125 118.8436 L 322.9375 118.9373 L 324.8125 118.4998 L 326.625 117.3123 L 326.875 116.59355 L 325.96875 116.4373 Z"/>
    <path id="path41966" fill="#8cce55" stroke="#0f380f" stroke-opacity="0.14509804" stroke-linecap="round" stroke-linejoin="round" transform="matrix(1 0 0 1 0.5 1.2670726)" d="M 362.34375 116.8749 L 361.4375 117.4999 L 362.34375 117.5936 L 362.34375 116.87485 Z"/>
    <path id="path42048" fill="#8cce55" stroke="#0f380f" stroke-opacity="0.14509804" stroke-linecap="round" stroke-linejoin="round" transform="matrix(1 0 0 1 0.5 1.2670726)" d="M 329.32709 128.53348 L 329.0313 128.125 L 328.06255 127.6875 L 328.5938 126.78125 L 326.7188 126.15625 L 325.7188 126.06255 L 324.81255 126.25005 L 323.9063 126.7813 Z"/>
    <path id="path41962" fill="#8cce55" stroke="#0f380f" stroke-opacity="0.14509804" stroke-linecap="round" stroke-linejoin="round" transform="matrix(1 0 0 1 0.5 1.2670726)" d="M 323.0938 126.7813 L 324.9063 125.06255 L 326.7188 123.7188 L 328.5938 123.2813 L 329.0313 122.2813 L 327.1563 122.375 L 327.7813 121.46875 L 328.7813 121.56245 L 329.75005 121.0312 L 330.12505 120.0312 L 329.31255 119.12495 L 327.3438 118.49995 L 325.5313 118.8437 L 324.5313 119.2187 L 322.56255 119.49995 L 321.6563 119.74995 L 320.68755 119.74995 L 319.7813 120.31245 L 318.87505 119.4062 L 317.00005 118.68745 L 316.0938 117.9687 L 316.09375 117.96865 L 316.00005 118.06235 L 315.00005 118.31235 L 316.00005 118.93735 L 316.00005 119.49985 C 312.1063 118.65605 315.29505 118.57605 311.31255 119.31235 L 311.12505 120.2186 L 312.0313 120.4686 L 312.93755 121.0311 L 313.2188 121.99985 L 314.0938 122.7186 L 313.12505 122.4686 L 312.2188 121.56235 L 311.2188 121.18735 L 310.31255 121.09365 L 309.3438 121.5624 L 308.7188 122.46865 L 309.5938 122.8124 L 311.5 124 L 312.40625 124.0625 L 314.1875 123.625 L 315.09375 123.7187 L 316 124.3437 L 317 124.5312 L 316 124.81245 L 314.09375 123.9062 L 313.5625 124.81245 Z"/>
    <path id="path41960" fill="#8cce55" stroke="#0f380f" stroke-opacity="0.14509804" stroke-linecap="round" stroke-linejoin="round" transform="matrix(1 0 0 1 0.5 1.2670726)" d="M 380.5 118.84365 L 377.625 118.93735 L 374.84375 119.49985 L 372.96875 120.0311 L 370.15625 121.56235 L 368.1875 122.99985 L 368.1875 123.9061 L 367.1875 124.62485 L 366.28125 124.87485 L 365.3125 126.68735 L 365.2188 128.56235 L 364.31255 128.8436 L 364.40625 129.74985 L 363.40625 130.0936 L 363.31255 130.99985 L 362.87505 131.99985 L 362.68755 132.9061 L 363.25005 133.7811 L 364.2188 133.8748 L 362.3438 134.59355 L 362.3438 136.40605 L 363.1563 137.3123 L 362.3438 138.28105 L 362.3438 139.90605 L 362.87505 140.8123 L 363.7813 141.09355 L 371.25 142 L 372.15625 141.53125 L 372.59375 142.4375 L 374.5 143.4375 L 375.375 143.59375 L 374.5 144.25 L 372.6875 144.1563 L 371.6875 144.31255 L 370.71875 144.25005 L 369.8125 143.5938 L 368.90625 143.43755 L 366.03125 143.43755 L 365.125 143.06255 L 365.9375 143.9688 L 364.9375 144.50005 L 365.3125 145.4063 L 366.21875 146.12505 L 367.75 147.93755 L 368.625 148.37505 L 370.53125 148.75005 L 371.4375 149.18755 L 370.53125 149.28125 L 372.3125 150.1875 L 374.125 149.46875 L 376 149.71875 L 375.21875 148.8125 L 376.09375 148.28125 L 377 148.90625 L 378 148.90625 L 378.90625 148.28125 L 378.34375 149.28125 L 378.34375 150.1875 L 379.25 150.90625 L 381.6875 152.15625 L 384.28125 152.15625 L 383.40625 151.71875 L 382.40625 151.53125 L 381.5 151.62495 L 382.40625 151.24995 L 385.25 151.5312 L 385.25 143.18745 L 384.9375 142.9687 L 384.9063 142.9687 L 385.25005 142.49995 L 385.25005 142.37495 L 384.4688 142.5312 L 383.4688 142.3437 L 382.4688 142.5312 L 381.50005 142.7812 L 379.5938 143.68745 L 378.7188 143.87495 L 377.81255 143.5937 L 379.5938 143.24995 L 381.5938 142.1562 L 382.4688 142.0625 L 384.2813 141.34375 L 385.25005 141.34375 L 385.25005 140.0625 L 384.56255 140 L 383.6563 139.65625 L 382.75005 139.03125 L 379.9688 136.59375 L 378.9063 134.6875 L 378.9063 132.90625 L 379.62505 131.90625 L 379.43755 131 L 377.62505 129.375 L 377.62505 128.5 L 377.9063 127.5 L 378.9063 126.6875 L 380.68755 123.90625 L 381.5938 123 L 383.4063 121.75 L 385.25005 120.78125 L 385.25005 119.3125 L 384.37505 119.125 L 380.50005 118.84375 Z"/>
    <path id="path41958" fill="#8cce55" stroke="#0f380f" stroke-opacity="0.14509804" stroke-linecap="round" stroke-linejoin="round" transform="matrix(1 0 0 1 0.5 1.2670726)" d="M 385.25 123.6249 L 384.75 124.2499 L 385.25 124.53115 Z"/>
    <path id="path41956" fill="#8cce55" stroke="#0f380f" stroke-opacity="0.14509804" stroke-linecap="round" stroke-linejoin="round" transform="matrix(1 0 0 1 0.5 1.2670726)" d="M 330.9375 124.8124 L 329.84375 125.0624 L 329.21875 125.96865 L 329.75 126.96865 L 330.65625 127.1249 L 331.5625 126.6874 L 331.84375 125.78115 Z"/>
    <path id="path41954" fill="#8cce55" stroke="#0f380f" stroke-opacity="0.14509804" stroke-linecap="round" stroke-linejoin="round" transform="matrix(1 0 0 1 0.5 1.2670726)" d="M 384.65625 125.15615 L 383.65625 125.24985 L 383.03125 126.1561 L 384.9375 126.2498 L 385.25 126.40605 L 385.25 125.34355 L 384.65625 125.15605 Z"/>
    <path id="path41952" fill="#8cce55" stroke="#0f380f" stroke-opacity="0.14509804" stroke-linecap="round" stroke-linejoin="round" transform="matrix(1 0 0 1 0.5 1.2670726)" d="M 383.125 126.6874 L 382.5 127.59365 L 382.3125 129.3749 L 383.21875 130.1874 L 383.03125 131.09365 L 383.9375 131.6249 L 384.9375 131.8124 L 385.25 131.7187 L 385.25 127.2187 L 384.03125 126.7812 L 383.125 126.6875 Z"/>
    <path id="path41950" fill="#8cce55" stroke="#0f380f" stroke-opacity="0.14509804" stroke-linecap="round" stroke-linejoin="round" transform="matrix(1 0 0 1 0.5 1.2670726)" d="M 331.1875 127.40615 L 330.3125 127.84365 L 330.5625 128.7499 L 331.5625 128.40615 L 331.375 127.4999 L 331.1875 127.4062 Z"/>
    <path id="path41948" fill="#8cce55" stroke="#0f380f" stroke-opacity="0.14509804" stroke-linecap="round" stroke-linejoin="round" transform="matrix(1 0 0 1 0.5 1.2670726)" d="M 383.75 133 L 383.5625 133.96875 L 382.6875 134.6875 L 381.78125 135.0625 L 380.78125 135.25 L 382.6875 135.96875 L 383.46875 136.9375 L 383.9375 137.84375 L 385.25 138.125 L 385.25 133.03125 L 384.65625 133 Z"/>
    <path id="path41944" fill="#8cce55" stroke="#0f380f" stroke-opacity="0.14509804" stroke-linecap="round" stroke-linejoin="round" transform="matrix(1 0 0 1 0.5 1.2670726)" d="M 384.03125 403.78125 L 383.65625 402.875 L 383.74995 403.78125 L 384.0312 403.78125 Z"/>
    <path id="path41942" fill="#8cce55" stroke="#0f380f" stroke-opacity="0.14509804" stroke-linecap="round" stroke-linejoin="round" transform="matrix(1 0 0 1 0.5 1.2670726)" d="M 326.78125 429.96875 L 326.4375 432.71875 L 326.5312 432.65625 L 326.7812 429.96875 Z"/>
    <path id="path41936" fill="#8cce55" stroke="#0f380f" stroke-opacity="0.14509804" stroke-linecap="round" stroke-linejoin="round" transform="matrix(1 0 0 1 0.5 1.2670726)" d="M 376.28125 151.15625 L 375.28125 151.24995 L 375.5625 152.1562 L 376.09375 152.1562 L 377.46875 152.43745 L 378.34375 152.34375 L 378.71875 152.15625 L 378.09375 151.25 L 377.1875 151.4375 Z"/>
    <path id="path41932" fill="#8cce55" stroke="#0f380f" stroke-opacity="0.14509804" stroke-linecap="round" stroke-linejoin="round" transform="matrix(1 0 0 1 0.5 1.2670726)" d="M 383.21875 153.3125 L 382.75 153.59375 L 383.65625 153.59375 L 383.40625 155.46875 L 383.03125 156.375 L 383.40625 157.28125 L 383.46875 158.1875 L 384.375 158.8125 L 385.25 158.9062 L 385.25 153.9062 L 385.09375 154.0312 L 384.21875 153.49995 L 383.21875 153.31245 Z"/>
    <path id="path41908" fill="#8cce55" stroke="#0f380f" stroke-opacity="0.14509804" stroke-linecap="round" stroke-linejoin="round" transform="matrix(1 0 0 1 0.5 1.2670726)" d="M 385.25 160.9375 L 384.65625 161.34375 L 385.25 161.6875 Z"/>
    <path id="path41902" fill="#8cce55" stroke="#0f380f" stroke-opacity="0.14509804" stroke-linecap="round" stroke-linejoin="round" transform="matrix(1 0 0 1 0.5 1.2670726)" d="M 378.1875 166.09375 L 377.28125 166.375 L 376.75 167.28125 L 376.90625 168.1875 L 376.46875 169.0625 L 376.90625 170.0625 L 377.90625 170.5 L 378.8125 169.875 L 379.15625 168.90625 L 378.90625 167.09375 Z"/>
    <path id="path41898" fill="#8cce55" stroke="#0f380f" stroke-opacity="0.14509804" stroke-linecap="round" stroke-linejoin="round" transform="matrix(1 0 0 1 0.5 1.2670726)" d="M 367.75 402.25 L 367.8125 402.6875 L 367.8125 402.5 Z"/>
    <path id="path41896" fill="#8cce55" stroke="#0f380f" stroke-opacity="0.14509804" stroke-linecap="round" stroke-linejoin="round" transform="matrix(1 0 0 1 0.5 1.2670726)" d="M 367.8125 402.6875 L 367.65625 403.5 L 367.8125 403.125 Z"/>
    <path id="path41894" fill="#8cce55" stroke="#0f380f" stroke-opacity="0.14509804" stroke-linecap="round" stroke-linejoin="round" transform="matrix(1 0 0 1 0.5 1.2670726)" d="M 354.34375 404.3125 L 353.4375 404.5625 L 354.34375 404.5 Z"/>
    <path id="path41892" fill="#8cce55" stroke="#0f380f" stroke-opacity="0.14509804" stroke-linecap="round" stroke-linejoin="round" transform="matrix(1 0 0 1 0.5 1.2670726)" d="M 339.75 405.75 L 339.03125 406.5625 L 339.9375 405.9375 Z"/>
    <path id="path41890" fill="#8cce55" stroke="#0f380f" stroke-opacity="0.14509804" stroke-linecap="round" stroke-linejoin="round" transform="matrix(1 0 0 1 0.5 1.2670726)" d="M 331.84375 410.78125 L 330.9375 411.3125 L 330.9375 411.6875 Z"/>
    <path id="path41888" fill="#8cce55" stroke="#0f380f" stroke-opacity="0.14509804" stroke-linecap="round" stroke-linejoin="round" transform="matrix(1 0 0 1 0.5 1.2670726)" d="M 330.40625 411.78125 L 330.03125 412.6875 L 330.65625 411.78125 Z"/>
    <path id="path41886" fill="#8cce55" stroke="#0f380f" stroke-opacity="0.14509804" stroke-linecap="round" stroke-linejoin="round" transform="matrix(1 0 0 1 0.5 1.2670726)" d="M 329.125 413.65625 L 328.59375 414.5625 L 328.3125 415.46875 L 328.78125 414.5625 Z"/>
    <path id="path41884" fill="#8cce55" stroke="#0f380f" stroke-opacity="0.14509804" stroke-linecap="round" stroke-linejoin="round" transform="matrix(1 0 0 1 0.5 1.2670726)" d="M 328.0625 416.90625 L 328.21875 418.78125 L 328.875 420.59375 Z"/>
    <path id="path41880" fill="#8cce55" stroke="#0f380f" stroke-opacity="0.14509804" stroke-linecap="round" stroke-linejoin="round" transform="matrix(1 0 0 1 0.5 1.2670726)" d="M 355.3125 457.5 L 354.6875 457.5937 L 353.875 458.12495 L 354.34375 458.03125 Z"/>
    <path id="path41878" fill="#8cce55" stroke="#0f380f" stroke-opacity="0.14509804" stroke-linecap="round" stroke-linejoin="round" transform="matrix(1 0 0 1 0.5 1.2670726)" d="M 379.78125 468.65625 L 378.90625 468.74995 L 378 469.4687 L 379.78125 468.6562 Z"/>
    <path id="path41876" fill="#8cce55" stroke="#0f380f" stroke-opacity="0.14509804" stroke-linecap="round" stroke-linejoin="round" transform="matrix(1 0 0 1 0.5 1.2670726)" d="M 355.59375 545.0625 L 354.875 545.5 L 355.84375 545.9375 L 356.03125 546.84375 L 356.75 547.75 L 356.9375 548.65625 L 356.03125 548.9375 L 355.40625 549.8125 L 356.3125 550.1875 L 357.21875 550.1875 L 358.09375 549.90625 L 358.65625 549 L 357.75 548.1875 L 357.6563 547.3125 L 356.8438 546.40625 L 356.5 545.5 Z"/>
    <path id="path41874" fill="#8cce55" stroke="#0f380f" stroke-opacity="0.14509804" stroke-linecap="round" stroke-linejoin="round" transform="matrix(1 0 0 1 0.5 1.2670726)" d="M 360.625 547.84375 L 359.90625 548.75 L 360.8125 549.09375 L 361.53125 548.1875 Z"/>
    <path id="path41872" fill="#8cce55" stroke="#0f380f" stroke-opacity="0.14509804" stroke-linecap="round" stroke-linejoin="round" transform="matrix(1 0 0 1 0.5 1.2670726)" d="M 364.5 549.28125 L 364.5 549.90625 L 365.40625 549.375 L 364.5 549.2813 Z"/>
    <path id="path81290" fill="#8cce55" stroke="#0f380f" stroke-opacity="0.14509804" stroke-linecap="round" stroke-linejoin="round" d="M 366.41406 159.28906 L 366.41406 177.93945 L 338.2168 177.93945 L 338.4375 177.98635 L 336.65625 178.2676 L 334.75 177.98635 L 336.125 179.79885 L 335.84375 180.7676 L 335.93745 179.8926 L 333.1562 177.93947 L 307.2187 177.93947 L 307.2187 207.86135 C 307 214.63255 307.74245 222.47635 307.0312 228.92385 L 270.1562 228.92385 L 270.1562 271.21682 L 270.6562 271.34182 L 271.13276 271.5215 L 271.45112 271.78322 L 271.72261 272.21291 L 272.13472 272.39064 L 272.51753 272.49416 L 272.73042 273.07424 L 273.1855 273.36135 L 273.54487 273.73635 L 273.83589 274.0176 L 274.04878 274.44729 L 274.38667 274.78713 L 274.71479 274.99221 L 274.81049 275.32229 L 274.58002 275.56057 L 274.37103 276.0176 L 273.93744 276.35354 L 273.6015 275.81838 L 273.33978 275.16799 L 272.83002 275.19529 L 272.44721 275.68357 L 272.09369 275.96482 L 271.79682 276.39256 L 271.60541 277.08201 L 270.15619 277.08201 L 270.15619 299.58006 L 297.78119 299.58006 C 297.89619 301.88886 297.87089 304.17631 297.87489 306.48631 L 298.21864 306.48631 L 299.12489 307.29881 L 299.12489 307.48631 L 299.84364 308.39256 L 300.74989 307.76756 L 301.46864 307.76756 L 303.28114 307.83006 L 304.15614 308.20506 L 305.24989 308.29876 L 306.31239 307.83001 C 308.22738 308.96063 309.28578 307.80141 309.81239 308.20501 C 309.86339 308.24411 309.89619 308.28921 309.93739 308.36126 C 309.94239 308.36926 309.93239 308.38456 309.93739 308.39246 L 309.99989 308.45496 C 310.08239 308.64821 310.14719 308.93787 310.18739 309.36121 L 311.81239 309.73621 L 312.18739 310.73621 L 312.18739 311.45496 L 310.90614 311.45496 L 311.46864 312.17371 L 311.46864 312.42371 L 312.71864 312.61121 L 312.90614 313.07996 L 313.77137 314.03699 L 313.162 314.51355 L 312.55458 315.03894 L 311.84755 314.79676 L 311.21864 314.88466 L 310.35731 315.40419 L 309.85536 315.74012 L 309.20497 316.30653 L 309.20497 317.537 L 312.99989 317.5487 L 314.24989 317.5487 L 314.87489 318.45495 L 314.24989 319.7362 L 315.15614 320.70495 L 315.15614 321.7987 L 314.96864 322.70495 L 314.49989 322.95495 L 314.34364 323.95495 L 313.34364 323.95495 L 313.06239 324.14245 L 313.96864 326.01745 L 314.68739 326.11115 L 314.78109 326.48615 L 314.87479 326.6424 L 313.53104 328.4549 L 311.5662 328.4449 L 310.77518 328.55037 L 310.77518 329.6324 L 309.8162 329.6324 L 309.8162 334.28865 L 312.43729 334.29665 L 312.43729 334.67165 L 312.71854 335.54665 L 312.53104 336.20289 L 312.90604 337.45289 L 312.99974 338.35915 L 312.81224 339.60915 L 312.81224 340.04665 L 312.18724 341.32789 L 310.09349 341.42169 L 310.09349 342.29669 L 310.81224 343.29669 L 310.81224 344.82793 L 310.90594 346.64043 L 310.46844 347.60919 L 310.46844 348.60919 L 310.56214 350.14043 L 310.56214 350.95293 L 307.12464 350.95293 L 307.12464 353.20293 L 309.46839 353.20293 L 310.28089 354.35919 L 310.28089 355.64043 L 309.84339 356.45293 L 309.84339 356.89043 L 309.74969 357.95293 L 309.53094 358.60919 L 309.37469 359.14043 L 309.37469 359.48419 L 309.46839 362.01543 L 309.46839 362.10923 L 309.56209 363.10923 L 307.12459 363.10923 L 307.12459 367.14047 L 302.56209 367.14047 L 302.56209 369.76547 L 302.37459 370.20297 L 302.37459 376.67173 L 302.37459 384.14047 L 302.28089 386.76547 L 302.28089 392.98423 L 301.99964 393.23423 L 293.81214 393.23423 C 293.68089 395.57552 294.02589 398.10673 293.46839 400.35923 L 293.45839 402.9061 L 294.33925 406.68149 L 299.75136 409.95688 L 296.7416 415.26157 L 298.21816 421.97055 L 296.7748 421.29868 C 296.29239 420.82515 295.98097 421.20148 295.60488 421.25958 L 294.01894 423.68731 L 293.55019 422.9959 C 292.90519 422.36334 292.25964 422.83405 291.61464 422.9608 L 291.35488 422.2147 L 290.30605 422.97056 L 289.13222 422.38463 L 288.67324 421.57603 L 288.10293 422.07213 L 287.51894 421.49205 L 287.14785 420.73228 L 286.7416 421.09752 L 286.12832 421.54088 L 286.22202 422.19127 L 285.90366 422.3358 L 285.97206 422.98228 L 284.80799 423.63463 L 284.3744 425.26744 L 283.84315 425.92369 L 283.5619 426.89244 L 283.4682 427.51744 L 283.74945 428.51744 L 284.2807 429.04869 L 285.18695 429.86119 L 285.37445 430.32994 L 285.9057 431.48619 L 286.81195 431.95494 L 287.7807 431.48619 L 288.68695 432.39244 L 288.87445 432.92369 L 289.12445 434.36119 L 289.49945 435.54869 L 289.7807 435.64239 L 290.0307 436.51739 L 290.4057 437.07989 L 290.4994 437.23614 L 291.46815 437.51739 L 291.46815 438.14239 L 292.3744 438.14239 L 293.28065 438.51739 L 293.71815 439.42364 L 293.28065 440.48614 L 293.8119 440.20489 L 294.90565 440.14239 L 295.71815 441.11114 L 295.81185 441.11114 L 296.43685 441.01744 L 296.53055 441.57994 L 296.43685 441.82994 L 296.06185 442.82994 L 296.5931 443.20494 L 297.49935 444.26744 L 297.31185 444.64244 L 297.1556 445.61119 L 298.2181 446.17369 L 297.5931 447.04869 L 296.87435 447.14239 L 296.96805 447.76739 L 296.96805 448.14239 L 296.59305 449.04864 L 296.59305 449.39239 L 295.71805 448.76739 L 295.53055 448.48614 L 295.43685 448.42364 L 295.06185 448.42364 L 294.18685 447.95489 L 293.2806 448.42364 L 292.37435 449.04864 L 292.18685 449.29864 L 292.09315 449.39234 L 292.09315 449.48604 L 292.18685 449.67354 L 292.0306 450.11104 L 290.2181 451.01729 C 290.77623 452.20714 291.28507 453.14719 291.74935 453.89229 C 292.21363 454.63739 292.63152 455.19463 293.0306 455.61104 C 293.23014 455.81924 293.40449 455.96325 293.5931 456.11104 C 293.6036 456.11904 293.6139 456.13434 293.6243 456.14224 C 293.93139 456.3781 294.23942 456.54535 294.53055 456.67349 C 294.58455 456.69729 294.6331 456.74599 294.6868 456.76719 C 294.6948 456.77019 294.7101 456.76419 294.718 456.76719 C 294.88579 456.83259 295.05029 456.87274 295.218 456.92344 C 295.57261 457.03063 295.93641 457.14053 296.31175 457.26719 C 296.49942 457.33049 296.70728 457.39594 296.9055 457.48594 C 297.10372 457.57594 297.2869 457.66735 297.49925 457.79844 C 297.56425 457.83784 297.62025 457.91059 297.68675 457.95469 C 297.83977 458.05756 297.99343 458.1669 298.1555 458.29844 C 298.8511 458.85854 299.63808 459.68119 300.56175 461.01719 L 302.56175 461.54844 L 303.5305 462.07969 L 306.4055 462.79844 L 306.968 462.54844 L 307.843 462.79844 L 308.843 463.79844 L 311.62425 465.95469 L 316.49925 467.67344 L 317.49925 468.39219 L 322.43675 469.54844 L 323.1555 470.45469 L 325.4055 471.17344 L 326.93675 472.17344 L 328.093 472.26714 L 329.43675 472.42339 L 330.968 473.23589 L 332.7805 473.70464 L 332.968 473.51714 L 333.87425 473.51714 L 334.843 473.14214 L 335.4055 472.79839 L 337.18675 472.26714 L 338.9055 471.26714 L 339.093 470.98589 L 339.718 471.07959 L 340.62425 470.89209 L 339.718 470.82959 L 339.718 470.45459 L 340.43675 470.01709 L 340.968 471.07959 L 341.87425 471.07959 L 344.0305 471.79834 L 343.843 471.54834 L 342.93675 471.17334 L 343.93675 471.26704 L 344.843 471.64204 L 345.468 472.51704 L 348.87425 475.32954 L 349.7805 475.86079 L 350.343 476.76704 L 352.4055 478.92329 L 355.718 481.26704 L 356.81175 481.70454 L 357.718 481.89204 L 359.968 481.79834 L 360.68675 481.98584 L 362.843 482.86084 L 363.74925 483.67334 L 365.9055 483.95459 L 366.7805 484.23584 L 368.31175 485.04834 L 370.0305 485.39209 L 369.12425 484.95459 L 370.49925 485.11084 L 370.6555 485.39209 L 372.0305 485.39209 L 372.9055 485.04834 L 372.8118 484.14209 L 372.9055 484.32959 L 373.5305 484.48584 L 374.093 484.39214 L 374.99925 484.39214 L 374.62425 484.57964 L 374.81175 485.48589 L 375.43675 486.01714 L 375.43675 486.57964 L 375.24925 486.57964 L 373.99925 485.92339 L 373.718 486.20464 L 374.2805 487.11089 L 375.87425 488.64214 L 376.1555 488.73584 L 376.2492 488.89209 L 375.96795 488.82959 L 377.78045 489.98584 L 378.21795 490.89209 L 379.7492 492.67334 L 380.5617 493.14209 L 382.8117 495.20459 L 382.1867 495.82959 L 382.093 496.29834 L 382.99925 496.73584 L 382.81175 497.64209 L 381.99925 498.54834 L 382.18675 499.32959 L 383.093 500.79834 L 383.968 500.95459 L 384.87425 501.51709 L 385.343 502.04834 L 386.218 501.51709 L 386.218 500.61084 L 385.343 500.23584 L 384.968 499.89209 L 384.718 498.98584 L 384.87425 499.07954 L 384.96795 499.42329 L 385.6867 499.51699 L 387.6867 501.32949 L 387.593 501.57949 L 388.218 502.48574 L 389.6555 502.76699 L 391.718 504.20449 L 392.43675 505.11074 L 392.62425 505.54824 L 392.093 506.45449 L 392.093 507.07949 L 393.968 507.89199 L 393.8743 507.07949 L 393.53055 506.17324 L 394.4368 506.82949 L 395.78055 509.51699 L 395.4993 508.32949 L 395.4056 508.32949 L 395.5931 507.70449 L 395.7806 507.61079 L 396.0306 507.45454 L 396.0306 507.07954 L 395.68685 506.01704 L 396.0306 505.64204 L 396.5931 505.36079 L 396.4994 505.20454 L 395.59315 504.64204 L 395.59315 503.57954 L 396.03065 502.57954 L 395.8744 502.29829 L 396.3119 502.14204 L 397.1244 502.57954 L 397.3119 502.29829 L 395.78065 501.23579 L 395.15565 500.23579 L 394.8744 500.23579 L 393.6869 498.89204 L 392.90565 497.54829 L 392.34315 496.92329 L 392.43685 496.82959 L 392.24935 495.92334 L 391.99935 495.82964 L 391.62435 495.39214 L 391.2806 494.11089 L 392.18685 492.32964 L 391.4681 491.42339 L 392.0931 490.26714 L 392.24935 489.36089 L 391.99935 488.98589 L 392.3431 488.11089 L 392.2494 487.20464 L 392.8119 487.36089 L 392.53065 488.26714 L 392.34315 488.26714 L 392.43685 489.17339 C 393.4281 487.80459 392.60185 485.89344 392.7181 484.32964 L 393.1556 481.98589 L 394.24935 480.45464 L 394.34305 479.54839 L 393.78055 478.01714 L 394.6868 476.76714 L 394.15555 476.48589 L 393.53055 475.57964 L 392.6243 475.32964 L 392.6243 475.39214 L 391.71805 475.76714 L 390.8118 474.76714 L 391.09305 475.57964 L 390.65555 475.32964 L 390.1868 474.42339 L 390.90555 474.32969 L 391.8118 474.95469 L 391.8118 474.76719 L 390.90555 474.23594 L 389.28055 472.79844 L 388.40555 472.98594 L 387.59305 472.51719 L 386.0618 472.07969 L 383.8118 472.51719 L 382.90555 472.26719 L 382.71805 472.07969 L 381.8118 472.17339 L 381.46805 472.42339 L 380.5618 472.51709 L 379.65555 473.07959 L 379.21805 472.89209 L 376.4368 473.07959 L 375.2493 472.70459 L 374.34305 472.98584 L 373.3743 472.36084 L 372.03055 473.07959 L 371.1243 473.32959 L 370.3118 472.79834 L 369.78055 472.79834 L 369.3118 473.42334 L 369.2181 473.14209 L 367.87435 472.51709 L 367.78065 472.07959 L 368.96815 470.82959 L 369.84315 470.26709 L 370.3119 469.39209 L 370.4994 469.54834 L 370.7494 468.57959 L 370.7494 465.67334 L 371.28065 464.79834 L 370.84315 464.51709 L 370.06971 461.59521 L 368.63026 461.44873 L 367.14198 464.04053 L 366.13417 464.15967 L 365.06581 464.31006 L 365.06581 455.90381 L 372.80995 448.16943 L 373.19276 447.26123 L 371.65565 445.17334 L 370.5619 445.36084 L 370.1244 445.26714 L 368.3119 445.98589 L 363.7494 446.70464 L 361.5619 447.70464 L 360.9369 448.57964 L 361.1244 448.67334 L 360.78065 449.20459 L 360.59315 450.11084 L 360.68685 451.01709 L 360.49935 451.92334 L 360.68685 452.82959 L 360.59315 453.17334 L 359.6869 453.98584 L 359.40565 455.89209 L 358.59315 456.76709 L 356.8119 457.86084 L 355.90565 458.57959 L 356.34315 458.57959 L 356.9994 459.48584 L 356.8119 459.48584 L 355.90565 460.39209 L 355.1869 460.29839 L 354.28065 460.45464 L 353.65565 459.57964 L 354.1869 459.48594 L 353.21815 459.01719 L 351.3119 459.29844 L 350.8744 459.57969 L 350.4994 460.29844 L 350.15565 459.92344 L 349.2494 460.29844 L 348.15565 460.45469 L 346.6244 460.39219 L 343.40565 461.54844 L 342.3119 461.73594 L 341.6869 461.64224 L 340.6244 459.92349 L 339.71815 459.82979 L 338.3744 459.01729 L 336.65565 458.95479 L 336.1244 458.67354 L 336.1244 458.86104 L 335.65565 459.11104 L 335.46815 459.48604 L 335.3119 459.48604 L 335.5619 459.01729 L 335.1244 458.48604 L 336.03065 458.67354 L 335.21815 458.29854 L 334.84315 457.42354 L 333.78065 456.14229 L 333.4994 455.61104 L 333.0619 453.79854 L 332.4369 452.82979 L 329.8119 449.86104 L 328.65565 447.32979 L 328.09315 445.70479 L 327.46815 444.98604 L 327.1244 444.07979 L 327.0307 443.20479 L 327.4682 444.07979 L 328.6557 445.45479 L 328.37445 446.32979 L 328.56195 446.42349 L 328.9057 445.51724 L 328.6557 444.98599 L 327.74945 444.17349 L 327.12445 443.26724 L 326.74945 442.39224 L 326.84315 441.92349 L 326.5619 441.01724 L 326.4682 439.57974 L 326.8432 438.70474 L 326.9369 437.89224 L 326.9369 435.36099 L 326.5619 434.45474 L 326.84315 434.11099 L 326.84315 434.07979 L 326.74945 433.39229 L 326.74945 433.36109 L 326.93695 431.48609 L 326.4682 430.57984 L 327.0932 429.67359 L 327.2807 428.79859 L 327.2807 428.76739 L 327.1557 428.64239 L 326.99945 428.42364 L 326.99945 426.61114 L 327.03065 426.64234 L 327.46815 426.86109 L 327.90565 427.07984 L 327.93685 427.07984 L 327.93685 428.42359 L 327.37435 430.29859 L 327.37435 430.32979 L 327.28065 431.23604 L 327.9994 428.26729 L 329.3744 425.54854 L 329.71815 423.67354 L 328.9994 422.76729 L 327.7494 418.54854 L 328.3744 417.64229 L 327.3744 417.26729 L 326.84315 416.36104 L 327.7494 416.82979 L 328.46815 416.92349 L 329.1869 415.11099 L 328.5619 414.39224 L 328.09315 414.29854 L 329.6244 414.20484 L 330.2494 413.29859 L 330.3431 412.86109 L 331.24935 412.51734 L 331.15565 411.61109 L 331.34315 411.14234 L 332.2494 411.86109 L 333.15565 411.42359 L 332.2494 410.70484 L 332.1557 410.32984 L 332.43695 410.17359 L 332.9682 410.61109 L 333.0619 409.79859 L 333.9369 410.07984 L 334.40565 410.42359 L 334.21815 410.61109 L 335.1244 410.32984 L 334.03065 411.14234 L 336.7494 409.79859 L 337.65565 409.17359 L 337.90565 409.17359 L 338.8119 408.45484 L 338.9994 407.82984 L 340.15565 406.92359 L 339.4369 405.04859 L 339.6244 404.95489 L 340.0619 405.20489 L 340.96815 404.86114 L 341.2494 405.76739 L 342.1244 405.76739 L 341.6869 405.82989 L 340.78065 406.64239 L 342.59315 405.67364 L 343.4994 405.29864 L 344.46815 405.11114 L 344.65565 404.67364 L 344.46815 404.39239 L 345.1869 403.51739 L 344.7494 404.39239 L 344.8431 404.67364 L 346.62435 404.67364 L 347.2806 404.39239 L 349.1556 404.95489 L 350.06185 405.39239 L 351.93685 405.76739 L 352.8431 405.57989 L 353.12435 405.39239 L 353.6556 404.48614 L 354.56185 404.76739 L 356.3431 405.92364 L 357.0931 405.48614 L 356.9994 405.82989 L 358.15565 407.64239 L 359.8744 407.82989 L 359.9681 407.36114 L 360.8431 406.73614 L 362.0306 408.01739 L 362.56185 407.45489 L 362.56185 406.54864 L 362.0306 405.67364 L 363.74935 406.48614 L 364.62435 407.29864 L 365.62435 407.82989 L 365.53065 408.89239 L 366.4369 408.17364 L 367.34315 407.82989 L 367.34315 407.54864 L 366.6244 406.92364 L 365.71815 406.64239 L 364.6244 406.01739 L 364.46815 405.11114 L 365.34315 404.32989 L 365.43685 403.51739 L 364.9056 403.51739 L 363.99935 403.76739 L 363.56185 403.51739 L 364.4681 402.86114 L 364.4681 402.70489 L 363.4681 402.70489 L 362.8431 403.04864 L 362.2181 403.14234 L 360.8431 402.86109 L 361.4056 401.98609 L 362.37435 401.61109 L 363.74935 402.32984 L 363.81185 402.23614 L 364.62435 402.51739 L 364.62435 402.70489 L 365.99935 401.98614 L 365.99935 401.79864 L 368.06185 401.51739 L 368.15555 401.42369 L 367.96805 401.32999 L 369.1243 401.61124 L 371.1243 401.61124 L 371.7493 400.70499 L 372.03055 399.73624 L 372.28055 400.07999 L 372.37425 400.98624 L 373.093 401.89249 L 372.18675 402.23624 L 373.093 402.32994 L 373.99925 402.07994 L 374.718 401.32994 L 374.8117 401.07994 L 375.0617 401.32994 L 375.8742 401.32994 L 375.9679 400.79869 L 376.5929 400.45494 L 376.7804 401.32994 L 376.1554 401.51744 L 378.68665 401.32994 L 380.4679 400.98619 L 380.74915 401.26744 L 380.84285 401.61119 L 380.5616 401.42369 L 379.1241 401.32999 L 380.9366 401.89249 L 382.71785 402.70499 L 382.09285 401.98624 L 382.9991 402.07994 L 382.8116 402.51744 L 384.15535 403.23619 L 383.2491 402.95494 L 383.53035 403.51744 L 384.4366 404.14244 L 384.5303 405.04869 L 385.1553 404.95499 L 385.5928 404.76749 L 385.7803 404.57999 L 385.7803 403.51749 L 385.5928 403.42379 L 385.3428 403.04879 L 385.9678 401.26754 L 386.0615 400.79879 L 386.40525 400.26754 L 386.59275 399.89254 L 386.59275 399.83004 L 386.40525 399.45504 L 386.15525 398.83004 L 386.06155 398.45504 L 385.96785 398.36134 L 386.06155 398.36134 L 386.06155 398.20509 L 385.87405 397.92384 L 385.78035 397.64259 L 385.4991 396.92384 L 385.78035 395.33009 L 385.68665 395.14259 C 385.0904 394.13759 385.50415 392.66384 386.4054 391.98634 L 386.1554 391.08009 L 386.1554 390.98639 L 386.0617 390.64264 L 386.0617 390.54894 L 385.968 390.54894 L 385.968 390.45524 L 385.1555 388.73649 L 385.1555 388.58024 C 385.1017 388.34614 385.0678 388.11743 385.0305 387.89274 L 384.968 387.86154 L 384.8743 387.01779 C 384.804 386.4808 384.75492 385.92925 384.6243 385.33029 C 384.1968 382.71279 383.6893 380.29784 383.09305 377.67404 L 383.6243 377.67404 L 383.96805 377.48654 L 384.15555 377.14279 L 384.06185 377.04909 L 385.9681 374.17409 L 386.49935 373.54909 L 387.5931 372.83034 L 386.7806 371.92409 L 386.6869 370.92409 L 387.6869 370.39284 L 387.03065 369.14284 L 387.84315 368.23659 L 387.4994 367.23659 L 386.6869 367.23659 L 386.0619 366.42409 L 385.6869 366.08034 L 385.6869 365.79909 L 384.78065 365.89279 L 384.2494 365.98649 L 383.8119 365.26774 L 382.8119 364.89274 L 381.8119 364.79904 L 380.9369 364.36154 L 380.28065 363.45529 L 380.03065 362.39279 L 378.9369 361.58029 L 378.9369 361.73654 L 378.40565 362.54904 L 377.4994 361.83029 L 377.5931 360.86154 L 376.5931 360.58029 L 376.3431 359.42404 L 375.3431 358.86154 L 374.2806 359.04904 L 373.2806 359.42404 C 375.2456 357.59034 373.8243 357.27154 373.9056 355.36154 C 374.81935 353.76534 373.9718 349.42034 374.2806 346.79904 L 376.24935 346.79904 L 376.87435 345.83029 L 377.06185 344.20529 L 377.5931 343.92404 L 378.2181 343.20529 L 379.12435 342.14279 L 378.93685 341.51779 L 378.93685 341.23654 L 377.49935 341.23654 L 375.7181 341.95529 L 374.7181 341.76779 L 374.3431 341.51779 L 374.3431 341.48659 L 374.3431 341.42409 L 374.3431 341.39289 L 373.7181 339.89289 L 373.7181 339.86169 L 373.18685 338.98669 L 372.9056 338.08044 L 373.18685 335.73669 L 372.7181 333.83044 L 372.5306 332.95544 L 373.43685 330.14294 L 373.34315 329.26794 L 373.71815 328.26794 L 374.4369 327.36169 L 374.3432 326.45544 L 374.5307 325.58044 L 374.5307 325.54924 L 375.06195 324.58049 L 374.5307 323.67424 L 373.6557 324.14299 L 372.93695 325.04924 L 372.90575 325.04924 L 372.03075 325.11174 L 371.99955 325.11174 L 372.9058 323.23674 L 373.81205 322.95549 L 374.3433 321.61174 L 375.5933 319.70549 L 375.7183 319.51799 L 375.2183 318.79924 L 374.9058 317.45549 L 373.9683 317.04924 L 373.68705 316.20549 L 372.7183 315.58049 L 371.74955 315.61169 L 371.4058 314.67419 L 367.8433 314.67419 L 366.74955 315.08044 L 365.7183 314.20544 L 364.43705 314.14294 L 363.56205 312.67419 L 363.53085 312.54919 L 362.7496 313.14294 L 360.9371 313.79919 L 360.3121 313.70549 L 359.40585 313.33049 L 358.53085 313.51799 L 358.49965 313.51799 L 358.87465 312.61174 L 358.49965 311.70549 L 355.81215 312.79924 L 354.0309 313.14299 L 353.0309 312.70549 L 356.5309 310.17424 L 357.3434 309.29924 L 357.3434 309.26804 L 359.12465 307.73679 L 360.0309 307.29929 L 362.81215 306.48679 L 362.84335 306.48679 L 364.78085 305.51804 L 364.46835 305.42434 L 362.84335 305.33064 L 362.26913 303.92634 L 357.57382 302.23884 L 357.57382 299.3697 L 357.72812 298.17244 L 362.15194 296.74079 L 362.15194 288.94392 L 359.94101 287.35212 L 358.70272 285.80915 L 358.70272 284.39704 L 360.07577 282.76814 L 362.36288 281.53181 L 362.36288 276.69001 L 366.75155 276.69001 L 366.75155 274.98884 L 369.00155 272.68415 L 369.00155 270.82673 L 366.73202 268.53767 L 362.84335 268.53767 L 362.84335 254.48689 L 366.6246 250.14314 L 365.6246 249.79939 L 362.84335 249.17439 L 360.1246 247.83064 L 358.2496 247.54939 L 352.7496 249.08064 L 351.84335 249.61189 L 351.40585 249.70559 L 352.3121 249.08059 L 351.40585 248.98689 L 350.40585 249.61189 L 349.53085 249.89314 L 350.40585 249.45564 L 351.1246 248.45564 L 351.59335 247.54939 L 351.49965 246.64314 L 350.24965 243.95564 L 349.7809 242.04939 L 349.24965 241.17439 L 348.43715 239.26814 L 348.0934 237.48689 L 347.18715 237.83064 L 346.18715 237.39314 L 343.6559 237.48684 L 343.31215 238.36184 L 343.12465 240.17434 L 342.5934 241.08059 L 343.31215 237.48684 L 342.31215 237.73684 L 341.06215 235.95559 L 339.7184 235.48684 L 340.62465 235.23684 L 340.68715 234.33059 L 341.24965 233.42434 L 340.5309 231.54934 L 340.68715 230.64309 L 340.62465 228.92434 L 340.9684 228.01809 L 341.0621 227.11184 L 341.40585 226.14309 L 340.6246 225.51809 L 340.8746 225.23684 L 341.78085 225.23684 L 342.6871 222.98684 L 343.4996 222.08059 L 344.03085 221.08059 L 344.21835 220.20559 L 343.7496 219.73684 L 344.7496 219.83054 L 344.46835 219.20554 L 344.9371 218.20554 L 345.84335 217.58054 L 347.71835 216.76804 L 347.28085 216.14304 L 346.3746 215.95554 L 347.28085 215.61179 L 346.9996 214.61179 L 348.34335 214.51809 L 349.2496 214.17434 L 349.96835 213.26809 L 348.09335 212.36184 L 349.96835 212.83059 L 350.78085 213.70559 L 350.87455 212.83059 L 349.87455 212.36184 L 350.7808 211.54934 L 350.8745 210.64309 L 351.78075 211.11184 L 352.65575 210.58059 L 353.312 211.11184 L 353.84325 210.20559 L 352.84325 210.11189 L 351.937 209.67439 L 351.8433 208.76814 L 352.8433 209.04939 L 353.74955 208.76814 L 356.5308 209.20564 L 357.43705 208.33064 L 358.3433 208.04939 L 359.31205 207.95569 L 359.7808 207.04944 L 359.6871 206.08069 L 359.40585 205.51819 L 357.53085 204.17444 L 356.6246 204.08074 L 355.71835 203.45574 L 354.84335 202.54949 L 353.9371 202.64319 L 352.03085 203.45569 L 351.1246 203.64319 L 352.03085 202.92444 L 353.03085 202.64319 L 352.03085 202.29944 L 351.1246 201.64319 L 350.15585 201.64319 L 349.2496 201.48694 L 346.9996 200.58069 L 347.53085 201.48694 L 346.6246 201.48694 L 345.3746 200.67444 L 345.3746 200.39319 L 346.3746 200.39319 L 345.3746 198.86194 L 346.28085 199.76819 L 347.28085 200.29944 L 350.0621 201.11194 L 351.1246 201.64319 L 351.84335 202.01819 L 352.84335 202.20569 L 353.7496 201.64319 L 354.65585 202.29944 L 356.1871 202.45569 L 357.09335 203.01819 L 358.8746 203.54944 L 360.78085 202.92444 L 361.65585 203.01814 L 362.84335 202.01814 L 362.84335 201.48689 L 362.03085 200.58064 L 362.84335 200.48694 L 363.1871 199.48694 L 362.3121 199.39324 L 362.84335 199.14324 L 363.7496 198.86199 L 363.90585 199.76824 L 364.8121 200.29949 L 365.28085 200.76824 L 364.90585 199.86199 L 365.8121 200.04949 L 366.71835 200.58074 L 366.4371 199.67449 L 367.4371 200.20574 L 368.3121 200.48699 L 369.21835 200.29949 L 372.03085 198.95574 L 372.7496 197.14324 L 374.34335 195.70574 L 374.53085 194.83074 L 376.34335 193.20574 L 376.78085 192.29949 L 376.4996 191.39324 L 375.6246 190.95574 L 374.6246 190.76824 L 373.71835 190.67454 L 371.84335 190.95579 L 369.03085 190.48704 L 367.2496 190.42454 L 366.4371 189.51829 L 365.53085 188.89329 L 364.6246 187.98704 L 363.7496 187.26829 L 362.84335 186.79954 L 360.0621 186.17454 L 358.15585 185.92454 L 357.2496 186.36204 L 356.34335 185.92454 L 358.15585 185.73704 L 360.0621 186.08079 L 361.03085 185.98709 L 361.9371 186.26834 L 362.84335 186.26834 L 363.7496 186.64334 L 362.84335 185.73709 L 364.6246 185.92459 L 367.4371 187.51834 L 370.21835 188.08084 L 368.3121 187.98714 L 370.1246 188.89339 L 371.03085 189.76839 L 371.9371 190.23714 L 372.90585 190.42464 L 374.71835 190.42464 L 375.6246 190.14339 L 376.4371 189.23714 L 379.1246 187.36214 L 379.2183 186.45589 L 380.74955 185.36214 L 381.2808 184.45589 L 381.0933 183.58089 L 378.31205 182.67464 L 378.12455 181.67464 C 380.2771 179.96824 379.87205 182.53839 383.7183 180.76839 L 384.43705 181.67464 L 384.62455 182.58089 L 385.0933 182.76839 L 385.74955 182.20589 L 385.74955 178.64339 L 385.49955 178.79964 L 385.68705 177.89339 L 385.74955 177.89339 L 385.74955 163.61214 L 383.3433 163.76839 L 382.5308 164.67464 L 382.7183 165.67464 L 382.6246 166.54964 L 381.90585 168.36214 L 381.81215 169.36214 C 377.5559 171.84714 380.06215 171.94334 378.93715 174.73714 L 378.0309 174.48714 L 377.1559 174.58084 L 376.7809 175.45584 L 375.87465 175.64334 L 375.43715 176.83084 L 374.43715 176.64334 L 374.9059 175.73709 L 374.62465 174.83084 L 373.62465 174.11209 L 372.74965 173.14334 L 371.8434 172.48709 L 370.6559 170.70584 L 370.4059 169.79959 L 370.74965 168.89334 L 370.56215 167.98709 L 370.74965 167.11209 L 371.74965 167.73709 L 372.6559 167.73709 L 372.81215 167.54959 L 373.0934 166.54959 L 372.37465 164.76834 L 372.37465 163.86209 L 371.74965 162.86209 L 370.8434 162.04959 L 368.9684 161.08084 L 367.1559 159.45584 L 366.41371 159.28982 Z M 325.65625 266.08008 L 325.68745 266.08008 L 326.12495 266.36133 L 325.93745 267.23633 L 325.93745 267.26753 L 325.06245 267.98628 L 325.12495 268.95503 L 326.99995 268.14253 L 326.99995 268.17373 L 327.03115 268.17373 L 326.93745 268.61123 L 326.0312 269.23623 C 326.26901 270.01123 326.46141 270.56943 326.6562 271.04873 C 326.6592 271.05873 326.6532 271.07293 326.6562 271.07993 C 326.84662 271.54513 327.04973 271.91393 327.24995 272.26743 C 327.25395 272.27743 327.24595 272.29163 327.24995 272.29863 C 327.45099 272.65163 327.67603 272.98098 327.93745 273.39238 C 328.20784 273.81778 328.5166 274.31653 328.9062 274.98613 L 328.37495 275.36113 L 328.81245 276.23613 L 328.84365 276.26733 L 329.5624 277.23608 L 330.28115 279.04858 L 330.09365 279.95483 L 331.15615 281.73608 L 331.8749 282.64233 L 331.8749 283.36108 L 332.9374 285.14233 L 333.84365 286.04858 L 333.87485 286.07978 L 333.1561 287.04853 L 333.68735 289.76728 L 333.49985 289.76728 L 332.5936 289.14228 L 332.3436 290.01728 L 332.3436 290.92353 L 332.3124 290.92353 L 331.34365 291.20478 L 330.9999 290.89228 L 330.71865 290.64228 L 330.68745 290.64228 L 330.5312 288.86103 L 330.68745 286.95478 L 331.49995 286.04853 L 331.68745 285.17353 L 330.81245 285.51728 L 330.81245 285.48608 L 331.68745 283.70483 L 330.81245 283.11108 L 329.81245 283.82983 L 329.0937 284.70483 L 329 283.79858 L 329.25 282.82983 L 329.1875 281.92358 L 328.4375 281.01733 L 327.5625 281.39233 L 327.90625 280.42358 L 326.9375 281.11108 L 326.5 282.01733 L 326.4688 282.01733 L 325.5938 281.57983 L 325.5626 281.54863 L 325.5626 281.20488 L 325.1251 280.29863 L 324.5001 279.42363 L 324.0001 279.01738 L 323.6251 278.67363 L 323.5939 278.67363 L 323.31265 278.07988 L 323.1564 277.79863 L 322.25015 277.07988 L 322.25015 277.04868 L 321.7189 276.07993 L 322.43765 275.17368 L 323.25015 274.73618 L 320.9064 274.73618 L 320.00015 273.92368 L 320.18765 273.17368 L 320.7189 272.29868 L 321.43765 269.51743 L 321.43765 269.48623 L 321.7814 269.42373 L 321.8126 269.42373 L 322.8126 269.67373 L 323.6876 269.58003 L 324.59385 269.76753 L 325.5626 270.29878 L 326.09385 270.29878 L 324.34385 268.89253 L 324.31265 268.86133 L 325.12515 266.98633 L 325.6564 266.08008 Z"/>
</svg>
