<svg width="1671.094" height="856.39252" viewBox="0 0 1671.094 856.39252" xmlns="http://www.w3.org/2000/svg" xmlns:usvg="https://github.com/RazrFalcon/usvg" usvg:version="0.8.0">
    <defs/>
    <path id="path41397" fill="#3e73c5" fill-opacity="0.42857145" stroke="#000000" stroke-opacity="0.24675323" stroke-linecap="round" stroke-linejoin="round" transform="matrix(1 0 0 1 0.5 1.2670726)" d="M 536.094 312.93782 L 536.094 278.37482 L 524.656 278.37482 L 521.462 280.48582 L 522.353 272.91682 L 519.911 269.77282 L 516.994 268.04282 L 514.84 268.52782 L 514.356 269.95082 L 512.825 271.41882 L 512.825 273.19282 L 514.356 274.82182 L 514.356 285.09682 L 503.656 292.24982 L 503.656 312.93782 L 516.469 312.93782 L 516.459 313.05282 L 516.459 312.92782 L 516.459 309.27182 L 517.021 308.64682 L 518.896 308.64682 L 519.896 309.27182 L 519.896 312.92782 L 519.896 313.05282 L 519.906 313.06282 L 519.906 312.93782 Z"/>
    <path id="path41399" fill="#8cce55" stroke="#0f380f" stroke-opacity="0.14509804" stroke-linecap="round" stroke-linejoin="round" transform="matrix(1 0 0 1 0.5 1.2670726)" d="M 519.55729 280.40807 L 520.50445 278.51375 L 520.7807 278.63215 L 518.49173 277.40873 L 520.34659 277.96124 L 520.7807 277.72445 L 520.7412 277.25087 L 516.99202 276.34317 L 519.24153 276.61943 L 519.35992 276.02745 L 520.30708 276.02745 L 518.64955 275.08029 L 520.03083 274.80404 L 519.91243 274.21206 L 518.84688 273.93581 L 520.34655 272.87025 L 520.07029 271.6863 L 519.12313 271.41004 L 518.2549 270.38395 L 519.00474 270.30505 L 516.04486 269.55522 L 517.11041 269.16057 L 515.80807 269.35789 L 514.82144 269.39739 L 514.70305 269.98936 L 512.825 271.41882 L 512.825 273.19282 L 514.356 274.76182 L 514.356 283.17082 Z"/>
    <path id="path41401" fill="#8cce55" stroke="#0f380f" stroke-opacity="0.14509804" stroke-linecap="round" stroke-linejoin="round" transform="matrix(1 0 0 1 0.5 1.2670726)" d="M 520.85963 287.8275 L 520.93853 287.59071 L 521.60944 287.35392 L 521.7673 287.55125 Z"/>
    <path id="path41403" fill="#8cce55" fill-rule="evenodd" stroke="#0f380f" stroke-opacity="0.14509804" stroke-linecap="round" stroke-linejoin="round" transform="matrix(1 0 0 1 0.5 1.2670726)" d="M 524.41149 294.97067 L 524.41149 294.73388 L 525.99009 294.29977 L 526.14795 294.49709 Z"/>
    <path id="path41405" fill="#8cce55" fill-rule="evenodd" stroke="#0f380f" stroke-opacity="0.14509804" transform="matrix(1 0 0 1 0.5 1.2670726)" d="M 527.2135 294.69442 L 527.174 293.98405 L 528.16063 293.82619 L 528.55528 294.33923 Z"/>
    <path id="path41407" fill="#8cce55" stroke="#0f380f" stroke-opacity="0.14509804" stroke-linecap="round" stroke-linejoin="round" transform="matrix(1 0 0 1 0.5 1.2670726)" d="M 532.26503 312.13797 L 531.79145 311.74332 L 530.84429 312.25636 L 530.13392 311.86171 L 530.68643 310.87509 L 530.17338 311.23027 L 530.44964 309.09916 L 528.83157 310.87509 L 527.72655 311.07241 L 528.55532 308.30986 L 529.30515 307.63895 L 528.16067 305.11319 L 527.64762 305.03429 L 526.38474 307.87577 L 525.83223 307.87577 L 526.5426 306.73129 L 525.55597 307.91524 L 524.64828 307.75738 L 522.67502 310.63833 L 519.67568 310.83565 L 519.83354 309.7701 L 525.08239 306.29717 L 523.97737 306.65236 L 524.09577 305.5868 L 523.46432 306.65236 L 521.92519 305.94199 L 521.88569 307.2838 L 521.41211 307.52059 L 520.978 307.04701 L 520.54388 307.40219 L 520.34656 307.12594 L 519.67565 307.48112 L 520.26763 306.92861 L 520.22813 306.77075 L 518.5706 307.1654 L 520.70171 306.21824 L 519.71509 306.13934 L 520.22813 304.56074 L 519.59669 305.66576 L 519.16258 305.78416 L 518.53113 305.35004 L 518.49163 306.02095 L 517.78126 305.78416 L 517.66286 306.49453 L 515.68961 306.49453 L 515.53175 306.92864 L 510.44076 305.98148 L 508.38858 306.25774 L 508.62537 305.86309 L 508.15179 306.2972 L 504.36314 306.65239 L 503.53438 304.95539 L 508.50697 301.16675 L 504.24475 301.36407 L 504.32365 301.00889 L 506.17851 299.70654 L 505.626 300.57477 L 506.65209 300.85103 L 508.15176 297.53596 L 508.34908 297.93061 L 510.08555 298.36473 L 509.33571 297.57543 L 510.51966 297.22024 L 509.53303 297.22024 L 510.12501 296.86506 L 508.98052 296.47041 L 508.94102 295.87843 L 510.00658 294.8918 L 512.80859 288.73526 L 513.63736 288.49847 L 512.88752 287.94596 L 514.18987 287.47238 L 514.78185 286.76201 L 514.30827 286.05163 L 515.1765 285.73591 L 516.08419 284.03892 L 519.59658 282.34192 L 519.79391 283.01283 L 520.82 283.13122 L 520.54374 282.69711 L 520.78053 282.46032 L 521.92502 282.61818 L 521.01732 284.27571 L 518.84675 283.92052 L 519.28086 285.10447 L 520.10963 284.86768 L 519.83337 286.80147 L 518.80728 287.82756 L 518.41263 287.03826 L 518.68888 288.34061 L 516.00526 291.7346 L 515.09757 293.78678 L 515.29489 294.8918 L 518.25477 291.65567 L 518.41263 292.6423 L 519.51765 292.01086 L 520.34642 292.76069 L 521.56983 292.60283 L 518.60995 294.69448 L 519.75444 294.29983 L 518.80728 295.68111 L 519.83337 295.24699 L 520.74107 295.99683 L 521.01732 295.64164 L 521.21465 296.07576 L 521.84609 295.40485 L 522.24074 295.60218 L 521.92502 296.19415 L 522.35913 295.87843 L 522.47753 296.47041 L 522.51703 295.08913 L 523.2274 295.40485 L 522.20131 297.97008 L 522.63543 297.77275 L 522.71433 296.98345 L 524.76651 296.66773 L 526.06886 295.20752 L 526.46351 295.60218 L 526.30565 296.66773 L 526.85816 295.72057 L 527.4896 296.07576 L 528.12104 295.52324 L 529.73911 295.95736 L 531.00199 296.86506 L 530.41001 298.08847 L 527.72639 299.66707 L 529.10767 299.39082 L 528.55516 299.90386 L 528.87088 300.45638 L 529.34446 300.29852 L 529.10767 300.02226 L 530.33108 300.18012 L 528.91034 301.00889 L 529.62071 300.92999 L 529.73911 301.16678 L 528.00264 301.95608 L 529.66018 301.32464 L 529.22606 302.03501 L 530.05483 301.12731 L 530.01533 301.71929 L 530.37052 301.75879 L 531.19928 300.57484 L 532.02805 301.08789 L 532.54109 300.49591 L 533.25147 300.77217 L 532.3043 302.15344 L 531.515 301.95612 L 531.35714 302.62702 L 530.56784 303.06114 L 528.98924 303.06114 L 530.48891 303.29793 L 530.21266 303.73204 L 529.1471 303.219 L 529.85747 303.77151 L 529.06817 303.69261 L 530.29159 303.96886 L 529.10764 304.04776 L 530.21266 304.12666 L 529.2655 305.94206 L 530.0548 306.96815 L 530.60731 306.96815 L 531.83072 304.12666 L 533.64612 303.69255 L 532.4227 305.6658 L 532.4227 307.52066 L 533.92237 306.21831 L 534.98793 307.16547 L 534.0013 308.823 L 533.40933 311.50663 L 532.65949 312.217 Z"/>
    <path id="path41409" fill="#8cce55" stroke="#0f380f" stroke-opacity="0.14509804" stroke-linecap="round" stroke-linejoin="round" transform="matrix(1 0 0 1 0.5 1.2670726)" d="M 527.96334 306.29714 L 527.96334 306.455 L 526.85832 307.79681 L 526.77942 307.67842 Z"/>
</svg>
