<svg width="1671.094" height="856.39252" viewBox="0 0 1671.094 856.39252" xmlns="http://www.w3.org/2000/svg" xmlns:usvg="https://github.com/RazrFalcon/usvg" usvg:version="0.8.0">
    <defs/>
    <path id="path4289" fill="#3e73c5" fill-opacity="0.42857145" stroke="#000000" stroke-opacity="0.24675323" stroke-linecap="round" stroke-linejoin="round" transform="matrix(1 0 0 1 0.5 1.2670726)" d="M 675.21875 -0.75 L 675.21875 28.25 L 677.09375 28.96875 L 678 29.125 L 680 29.9375 L 680.34375 30.84375 L 676.46875 32.1875 L 675.9375 33.09375 L 675.21875 33.375 L 675.21875 36.25 L 675.5625 36.25 L 676.5625 36.53125 L 677.28125 37.5 L 677.5625 40.21875 L 677.03125 42.09375 L 676.5625 43 L 675.21875 44.34375 L 675.21875 47.03125 L 676.125 46.5 L 677.1875 45.96875 C 679.26719 45.16172 680.94143 43.27804 682.90625 42.09375 C 683.10273 41.97532 683.29705 41.88423 683.5 41.78125 C 684.51477 41.26637 685.62578 40.96016 686.90625 41.09375 L 685.9375 41.65625 L 685.75 43.625 L 686.75 43.28125 L 687.71875 42.625 L 689.71875 42 L 691.59375 42.1875 L 692.5 42.90625 L 693.5625 42.71875 L 694.5625 43.28125 L 696.375 43.09375 L 696 42.1875 L 697 42.09375 L 697.90625 41.65625 L 696.90625 41.28125 L 697.09375 40.28125 L 698.0625 40.21875 L 699.15625 40.5625 L 698.53125 38.78125 L 699.5 38.9375 L 700.40625 38.6875 L 701.40625 38.78125 L 702.46875 37.875 L 703.46875 38.125 L 705.375 37.96875 L 707.15625 38.21875 L 710.125 37.96875 L 712.125 38.125 L 715 38.9375 L 718.875 39.5 L 719.84375 39.75 L 720.75 40.03125 L 722.71875 41.1875 L 723.625 41.375 L 723.625 42.28125 L 722.71875 42.8125 L 719.84375 43.8125 L 719.21875 44.71875 L 717.34375 45.0625 L 716.4375 45.96875 L 715.34375 46.59375 L 714.4375 46.78125 L 711.5625 46.78125 L 710.59375 46.96875 L 710.59375 47.84375 L 711.65625 48.5 L 711.46875 49.375 L 706.625 50 L 705.71875 51 L 702.9375 51.375 L 699.96875 50.90625 L 698 51 L 697.09375 50.46875 L 696.09375 50.46875 L 696 51.375 L 695 51.53125 L 694.125 52.09375 L 693.125 52.25 L 690.0625 52.09375 L 689 51.8125 C 685.41594 51.11781 685.45848 52.37822 683.75 52.75 C 683.60763 52.781 683.45083 52.7955 683.28125 52.8125 C 682.7725 52.8636 682.11508 52.85215 681.25 52.71875 L 682.25 53 L 683.3125 53.625 L 684.21875 53 L 685.21875 52.8125 L 686.09375 52.1875 L 687.09375 52 L 689 52.1875 L 689.96875 52.53125 L 691.96875 52.625 L 694.03125 53.0625 L 697 52.8125 L 698.96875 52.1875 L 700.875 52.90625 L 703.9375 53.0625 L 704.8125 53.25 L 704.1875 54.15625 L 703.21875 54.875 L 702.3125 54.59375 L 702.75 55.5 L 700.875 56.3125 L 699.96875 56.5 L 696.09375 56.40625 L 694.21875 56.6875 L 688.34375 55.875 L 687.375 56.03125 L 685.46875 57.5 L 684.5 57.75 L 684.21875 58.46875 L 684.5 58.84375 L 684.21875 59.375 L 683.9375 60.375 L 685.84375 61.1875 L 686.75 60.8125 L 686.75 60.625 L 685.84375 60.8125 L 686.09375 59.90625 L 686.75 59 L 688.8125 58.46875 L 689.78125 57.9375 L 690.6875 57.84375 C 693.2875 58.68125 695.4625 56.36385 698.53125 57.9375 L 698.15625 59.09375 L 696.375 60.8125 L 695.375 61.4375 L 694.46875 61.625 L 690.6875 61.09375 L 689.71875 61.53125 L 688.71875 62.34375 L 688.90625 63.25 L 688.09375 64.21875 L 688.625 65.125 L 688.4375 66.03125 L 687.8125 66.9375 L 688.71875 66.03125 L 690.6875 66.03125 L 690.7812 66.9375 L 689.7812 66.46875 L 688.99995 67.46875 L 688.0937 68.09375 L 686.74995 68.375 L 686.74995 69 L 687.18745 69.625 L 686.74995 70.53125 L 686.2812 70.71875 L 684.4062 70.53125 L 683.49995 70.625 L 682.49995 70.96875 L 681.5937 71.6875 L 682.06245 72.59375 L 680.1562 72.96875 L 681.1562 73.0625 L 682.24995 73.59375 L 681.43745 74.5 L 680.43745 76.375 L 680.81245 77.375 L 679.9062 78.1875 L 678.9062 78.09375 L 679.81245 78.8125 L 678.81245 79.34375 L 678.4687 80.34375 L 679.3437 79.90625 L 678.62495 80.875 L 677.74995 81.78125 L 677.74995 82.3125 L 677.74995 82.6875 L 678.7187 82.59375 L 679.7187 83.125 L 678.81245 84.03125 L 679.81245 83.5 L 680.24995 82.59375 L 680.34365 81.59375 L 681.96865 79.71875 L 682.96865 79.34375 L 683.9374 80.15625 L 685.84365 80.875 L 687.9999 81.4375 L 689.8749 81.6875 L 690.78115 82.21875 L 691.59365 83.21875 L 689.71865 83.59375 L 686.7499 82.3125 L 685.84365 82.15625 L 684.84365 82.5 L 683.84365 82.3125 L 682.8749 82.78125 L 683.84365 83.125 L 684.9374 83.75 L 683.9374 83.9375 L 684.9374 84.40625 L 681.96865 84.03125 L 683.84365 84.5625 L 686.7499 85.03125 L 685.84365 85.28125 L 683.9374 85.28125 L 685.84365 85.5625 L 687.6249 85.46875 L 688.6249 85.75 L 690.59365 86.90625 L 691.25 86 L 692.21875 85.75 L 694.21875 86 L 695.09375 86.90625 L 695.5625 89.6875 L 695.09375 90.59375 L 694.125 91.21875 L 693.21875 91.21875 L 692.21875 90.875 L 689.4375 90.5 L 687.53125 89.78125 L 686.75 89.6875 L 686.1875 89.875 L 683.3125 89.4375 L 682.3125 89.875 L 683.3125 90.5 L 681.4375 90.34375 L 679.4375 90.59375 L 681.34375 90.6875 L 683.125 90.96875 L 681.25 91.5 L 680.25 92.03125 L 679.34375 92.75 L 678.46875 92.5 L 677.65625 91.5 L 676.65625 90.78125 L 675.75 90.875 L 675.40625 91.78125 L 675.21875 91.9375 L 675.21875 92.8125 L 675.40625 92.84375 L 676.03125 93.75 L 676.75 92.84375 L 677.75 93.03125 L 677.6563 93.9375 L 678.62505 94.125 L 677.6563 94.5625 L 678.62505 94.75 L 676.75005 94.75 L 675.8438 94.90625 L 676.75 95 L 679.53125 94.84375 L 679.1875 95.8125 L 679.0938 96.71875 L 680.06255 96.375 L 681.9688 96.53125 L 682.9688 97 L 683.8438 97.8125 L 684.8438 97.625 L 682.875 96.90625 L 681.96875 96 L 682.96875 96.1875 L 684.75 96.90625 L 685.75 96.625 L 687.375 96.625 L 688.09375 97.53125 L 687.71875 98.4375 L 686.75 98.4375 L 685.65625 98.96875 L 684.75 99.15625 L 682.78125 98.96875 L 679.09375 99.25 L 678.1875 99.40625 L 681.96875 99.25 L 683.9375 99.34375 L 684.84375 99.59375 L 685.84375 99.6875 L 686.15625 99.65625 C 686.68221 98.98735 687.48937 98.5625 688.40625 98.5625 C 689.9925 98.5625 691.28125 99.84999 691.28125 101.4375 C 691.28125 102.5331 690.65237 103.4531 689.75 103.9375 L 689.7812 104.375 L 689.5312 106.15625 L 688.62495 107.0625 L 687.7187 106.9688 L 686.74995 106.62505 L 686.74995 105.5313 L 685.74995 105.18755 L 683.8437 105.62505 L 681.9687 104.9063 L 681.06245 103.9063 L 680.1562 103.37505 L 677.2812 102.31255 L 676.31245 102.37505 L 677.18745 102.56255 L 679.18745 103.37505 L 680.06245 104.18755 L 678.18745 103.9063 L 677.18745 103.9063 L 675.31245 103.56255 L 677.0937 104.00005 L 678.0937 104.00005 L 679.99995 104.2813 L 680.87495 105.00005 L 681.87495 105.37505 L 682.7812 106.00005 L 683.7812 106.3438 L 683.7812 107.25005 C 680.96245 106.62755 680.90745 107.8425 679.0937 108.4063 L 677.18745 107.3438 L 676.31245 107.1563 L 677.2812 107.62505 L 677.99995 108.50005 L 678.9062 108.7813 L 679.9062 108.50005 L 681.7812 107.5313 L 683.7812 108.06255 L 683.2187 109.93755 L 683.93745 110.8438 L 682.9687 111.4688 L 682.06245 111.6563 L 685.8437 111.37505 L 686.74995 111.8438 L 687.7187 112.0938 L 688.62495 111.8438 L 689.5312 111.31255 L 690.1562 112.18755 L 691.1562 113.00005 L 690.7812 113.9063 L 690.1562 114.81255 L 689.24995 115.25005 L 688.2812 115.34375 L 686.6562 115.09375 L 685.6562 114.34375 L 684.8437 113.46875 L 683.0312 113.46875 L 681.06245 113.1875 L 679.18745 113.46875 L 678.2812 112.84375 L 677.2812 112.375 L 678.2812 113.28125 L 678.0937 114.28125 L 677.18745 114.625 L 675.37495 114.7187 C 675.32365 114.7187 675.2703 114.6924 675.2187 114.6875 C 675.09641 114.6745 674.96745 114.64 674.8437 114.625 C 673.07873 114.4041 671.18629 113.98465 669.2812 113.59375 L 669.2187 113.59375 L 667.06245 113.1875 C 665.78327 112.9768 664.52195 112.82355 663.3437 112.84375 C 663.3226 112.84375 663.3023 112.84375 663.2812 112.84375 L 661.87495 113.0625 L 661.62495 113.0937 C 661.5109 113.1187 661.39478 113.1282 661.2812 113.1562 L 659.5 113.75 L 659.28125 113.8125 L 659.09375 113.9062 L 655.75 115.68745 C 655.6681 115.74045 655.58095 115.79 655.5 115.8437 C 655.03787 116.15 654.58469 116.4578 654.15625 116.7812 C 652.05125 118.543 650.29977 120.9618 648.84375 123.7812 C 648.47975 124.4859 648.13863 125.2196 647.8125 125.9687 C 644.22503 134.2093 642.88063 144.8746 643.09375 152.1562 L 646.59375 151.43745 L 647.0625 151.34375 L 647.9375 151.71875 L 648.9375 151.53125 L 649.84375 152.0625 L 651.71875 151.71875 L 652.03125 152.21875 L 653.15625 152 L 653.4375 151.4375 L 654.15625 150.53125 L 655.15625 150 L 656.0625 150.0937 L 656.9375 150.43745 L 657.84375 150.34375 L 660.625 149.1875 L 661.53125 148.90625 L 662.53125 148.90625 L 662.15625 149.90625 L 663.15625 149.28125 L 664.0625 149.625 L 664.96875 149.7187 L 668.75 151 L 669.625 151 C 671.44187 151.8184 673.36742 151.3961 675.21875 151.25 C 675.83586 151.201 676.43375 151.18 677.03125 151.25 L 676.125 152.15625 L 675.21875 152.15625 L 675.21875 176.21875 L 744.5625 176.21875 L 744.5937 176.21875 L 744.6874 176.21875 L 744.6874 -0.75 L 675.21865 -0.75 L 675.21875 -0.75 Z M 684.3125 35.15625 L 685.375 35.625 L 686.1875 36.53125 L 687.09375 37.15625 L 688 38.125 L 687 38.59375 L 685.9375 38.3125 L 684.03125 36.78125 L 683.3125 35.875 L 684.3125 35.15625 L 684.3125 35.15625 Z M 691.6875 39.3125 L 692.59375 39.3125 L 694.46875 40.5625 L 693.5625 41.09375 L 690.6875 39.84375 L 691.6875 39.3125 Z M 688.53125 56.25 C 689.4275 56.1742 690.59687 56.6125 691.25 57.3125 L 687.375 58.28125 C 687.00688 56.89562 687.635 56.32578 688.53125 56.25 Z M 697.625 67.125 L 698.34375 68 L 696.375 69.1875 L 696 68.1875 L 696.8125 67.28125 L 697.625 67.125 Z M 689.875 70 L 690.875 70.53125 L 690.6875 71.4375 L 689.71875 71.625 L 689.96875 72.0625 L 689 72.0625 L 688.09375 71.34375 L 689.875 70 L 689.875 70 Z M 694.9375 70.8125 L 695.5625 70.8125 L 695.4688 71.6875 L 694.93755 70.8125 L 694.9375 70.8125 Z M 693.84375 72.59375 L 694.75 72.6875 L 693.84375 73.3125 L 692.84375 73.5 L 693.84375 72.59375 Z M 690.59375 75.3125 L 690.875 76.03125 L 689.96875 76.1875 L 690.59375 75.3125 Z M 688.34375 75.65625 L 688.90625 75.65625 L 689.0625 76.5625 L 688.34375 75.65625 Z M 691.15625 76.1875 L 692.03125 76.46875 L 690.59375 77.09375 L 691.15625 76.1875 Z M 691.78125 77.8125 L 692.21875 77.90625 L 691.3125 78.71875 L 691.78125 77.8125 Z M 680.96875 79.4375 L 681.59375 79.4375 L 680.96875 80.34375 L 680.96875 79.4375 Z M 684.84375 79.71875 L 686.75 79.71875 L 686.75 80.0625 L 687.8125 80.53125 L 689.625 80.53125 L 689.5313 81.4375 L 687.7188 81.15625 L 686.75005 80.875 L 685.8438 80.4375 L 684.8438 79.71875 L 684.84375 79.71875 Z M 697.4375 80.34375 L 697.8125 80.53125 L 698.15625 81.4375 L 697.625 82.3125 L 696.625 82.78125 L 695.65625 82.78125 L 695.8125 81.875 L 696.53125 80.96875 L 697.4375 80.34375 Z M 691.25 91.875 L 692.21875 91.9375 L 693.125 92.75 L 692.9375 94.65625 L 693.3125 96.53125 L 693.2188 97.4375 L 693.75005 98.875 L 693.2188 99.78125 L 693.1251 98.875 L 692.1251 97.09375 L 692.0314 96.09375 L 690.9689 94.1875 L 691.4064 93.3125 L 692.4064 93.03125 L 691.5 92.75 L 691.25 91.875 Z M 742.4375 142.15625 L 742.3438 143.15625 L 741.43755 143.78125 L 740.4688 144.0625 L 739.4688 144.0625 L 737.5938 145.40625 L 738.0313 144.40625 L 739.9063 143.6875 L 740.56255 142.71875 L 742.43755 142.15625 L 742.4375 142.15625 Z M 675.21875 206.46875 L 675.21875 343.90625 L 630.9375 343.90625 L 630.9375 371.09375 L 675.21875 371.09375 L 675.21875 456.375 L 654.25 456.375 L 654.25 480.0625 L 675.21875 480.0625 L 675.21875 854.625 L 744.6875 854.625 L 744.6875 757.9375 L 709.875 757.9375 L 709.875 714.21875 L 744.6875 714.21875 L 744.6875 587.40625 L 707.46875 587.40625 L 707.46875 577.8125 L 744.6875 577.8125 L 744.6875 525.34375 L 744.5938 525.34375 L 743.68755 525.25005 L 737.5938 522.37505 L 735.7813 521.0313 L 735.06255 520.2188 L 733.0938 518.50005 L 732.81255 518.06255 L 731.4688 516.9688 L 730.18755 516.62505 L 729.37505 516.1563 L 729.56255 515.81255 L 729.37505 515.81255 L 728.12505 514.9063 L 727.06255 514.4688 L 726.4063 513.56255 L 725.7813 513.18755 L 725.875 513.00005 L 723.09375 511.75005 L 722.1875 511.2188 L 722.0938 510.5938 L 723.00005 510.2188 L 722.37505 510.3125 L 721.4688 509.6875 L 721.18755 509.7812 L 719.4063 508.7812 L 719.6563 508.06245 L 719.31255 507.1562 L 718.4063 506.99995 L 718.1563 506.0937 L 719.0313 506.62495 L 718.68755 506.3437 L 718.87505 506.0937 L 719.8438 505.7187 L 718.93755 505.625 L 719.03125 505.28125 L 718.15625 505.28125 L 718.3125 504.375 L 719.3125 504.375 L 718.78125 503.9375 L 717.875 503.5625 L 717.7813 502.84375 L 716.87505 501.03125 L 716.3438 500.6875 L 716.1563 499.78125 L 715.81255 500.25 L 716.06255 499.34375 L 715.96885 499.25005 L 715.4376 499.68755 L 714.4376 498.9688 L 714.4376 498.25005 L 713.3751 498.25005 L 712.46885 497.5313 L 711.65635 495.9063 L 711.75005 495.75005 L 710.8438 495.18755 L 711.4063 494.2188 L 709.87505 494.4688 L 709.87505 493.56255 L 708.9688 494.0313 L 708.43755 493.0313 L 708.68755 492.31255 L 707.62505 492.5938 L 708.3438 491.68755 L 709.2188 491.06255 L 707.7813 491.25005 L 708.06255 490.3438 L 709.06255 490.3438 L 709.93755 490.68755 L 710.31255 490.68755 L 709.93755 490.5313 L 709.93755 489.81255 L 707.43755 490.1563 L 706.81255 490.5938 L 705.9063 490.7813 L 705.9063 489.87505 L 706.7188 489.62505 L 705.62505 489.71875 L 704.7188 490.15625 L 704.6876 490.12505 L 703.7501 489.62505 L 704.09385 488.62505 L 704.6876 488.2188 L 705 488 L 704.6875 488.0937 L 703.84375 488.3437 L 703.46875 488.7187 L 701.9375 488.0937 L 701.6875 487.7187 L 702.40625 486.8437 L 703.21875 486.8437 L 702.5625 485.93745 L 702.03125 486.0937 L 701.75 485.56245 L 701.8437 484.6562 L 701.5937 484.0312 L 701.5 483.12495 L 702.21875 482.68745 L 702.75 483.5937 L 704.5625 483.5937 L 704.5625 482.9687 L 706.4375 482.875 L 707.34375 482.59375 L 707.78125 482.59375 L 707.34375 482.40625 L 706.34375 482.78125 L 704.5625 482.87495 L 703.65625 483.31245 L 702.65625 482.5937 L 702.65625 482.1562 L 703.03125 481.1562 L 703.03125 480.1562 L 702.5625 480.87495 L 702.03125 481.1562 L 703.125 479.5312 L 701.6875 480.5312 C 701.6295 480.0053 701.49336 479.5562 701.3125 479.1562 C 701.222 478.9562 701.11336 478.7703 701 478.5937 C 700.88666 478.4171 700.75604 478.2524 700.625 478.0937 C 700.48928 477.9293 700.33653 477.77595 700.1875 477.62495 C 700.05356 477.48975 699.92132 477.3479 699.78125 477.2187 C 699.47955 476.9404 699.17469 476.65745 698.875 476.37495 L 699.875 475.93745 L 700.3125 475.49995 L 701.40625 474.12495 L 702.84375 471.62495 C 702.81295 471.30135 702.78415 471.0144 702.78125 470.7187 C 702.78025 470.609 702.77925 470.5124 702.78125 470.4062 C 702.78325 470.3182 702.80845 470.2423 702.81245 470.1562 C 702.82145 469.9552 702.82285 469.75175 702.84365 469.56245 C 702.85775 469.43675 702.88755 469.30845 702.90615 469.18745 C 702.95015 468.89835 702.99615 468.64095 703.0624 468.37495 C 703.1567 467.99215 703.27984 467.6292 703.40615 467.2812 C 703.59546 466.7647 703.81673 466.2636 704.03115 465.7812 C 704.17235 465.4619 704.305 465.13515 704.4374 464.81245 C 704.4713 464.73045 704.4985 464.64535 704.5311 464.56245 C 704.64855 464.26435 704.74944 463.9719 704.8436 463.6562 C 704.8466 463.6462 704.8406 463.634 704.8436 463.625 C 704.8649 463.553 704.8864 463.47975 704.9061 463.40625 C 704.9643 463.19155 705.02101 462.9752 705.06235 462.75 C 705.06935 462.709 705.08685 462.667 705.09355 462.625 C 705.11005 462.5248 705.11615 462.4169 705.12475 462.3125 C 705.13855 462.2007 705.14695 462.08435 705.15595 461.96875 C 705.16195 461.89475 705.18345 461.8257 705.18715 461.75 C 705.19015 461.7 705.18515 461.64445 705.18715 461.59375 C 705.19515 461.34215 705.20405 461.0852 705.18715 460.8125 L 704.99965 458.9375 L 704.68715 457.9375 L 703.99965 455.78125 L 703.12465 455.0625 L 703.12465 454.34375 L 704.18715 452.4375 L 704.37465 450.65625 L 703.0309 448.03125 L 702.4684 448.5 L 701.31215 446.4375 L 700.9684 446.15625 L 700.68715 446.6875 L 700.4059 447.875 L 700.2184 446.96875 L 701.0309 442.28125 L 701.49965 441.375 L 702.2184 440.46875 L 703.12465 440.125 L 703.56215 439.21875 L 703.74965 438.3125 L 704.37465 437.34375 L 704.37465 436.53125 L 704.6875 436 L 706 433.8125 L 706.1875 432.9375 L 705.28125 433.71875 L 705.90625 432.84375 L 707.4375 431.5625 L 709.0625 429.78125 L 709.9375 429.0625 L 710.5 428.15625 L 710.9375 425 L 712.28125 422.3125 L 712.5625 421.21875 L 716.15625 418.96875 L 716.875 418.0625 L 717.15625 417.28125 L 693.8125 417.18755 L 693.8125 386.5313 L 727.65625 350.9688 L 738.90625 338.8438 L 738.3125 338 L 739.375 337.09375 L 739.65625 336.625 L 739.28125 337 L 738.375 337.25 L 739.375 336.28125 L 738.375 336.37495 L 738.5625 335.4687 L 739.03125 334.74995 L 738.125 335.0937 L 738.2187 334.2187 L 738.37495 334.0312 L 737.49995 334.2187 L 737.12495 333.8437 L 737.21865 333.56245 L 736.59365 332.68745 L 738.46865 331.24995 L 739.3749 331.31245 L 740.28115 330.9687 L 741.6249 330.68745 L 741.6249 330.24995 L 741.4374 330.34365 L 741.90615 329.4374 L 742.8124 328.8124 L 744.5624 328.9999 L 744.6874 279.3124 L 744.3124 279.4061 L 743.78115 280.4061 L 743.0624 280.12485 L 742.34365 281.0311 L 741.4374 281.2811 L 740.9999 280.6561 L 740.3749 280.7498 L 740.8124 281.65605 L 736.59365 283.1873 L 735.6874 282.71855 L 734.78115 282.9998 L 733.8749 282.8123 L 735.6874 281.90605 L 733.8124 282.09355 L 733.09365 282.46855 L 733.09365 281.9998 L 734.6874 281.03105 L 733.09365 281.3748 L 732.1874 281.3748 L 731.28115 280.9373 L 731.9999 280.03105 L 733.09365 279.7498 L 734.0624 279.21855 L 733.09365 279.12485 L 731.28115 279.4061 L 731.71865 278.49985 L 734.0624 278.49985 L 733.8124 277.5936 L 735.59365 276.5311 L 737.9374 275.9686 L 738.9374 275.9061 L 738.03115 275.8124 L 738.03115 275.15615 L 737.1249 276.0624 L 735.2499 276.0624 L 733.8749 276.53115 L 735.78115 274.71865 L 735.87485 273.8124 L 736.4061 272.90615 L 737.4061 272.99985 L 737.74985 272.8436 L 737.4061 272.12485 L 735.5936 272.37485 L 735.06235 271.4061 L 734.1561 271.93735 L 733.0936 271.4061 L 732.43735 270.49985 L 733.0936 270.40615 L 733.0936 269.9374 L 734.5311 269.9374 L 733.62485 269.78115 L 734.06235 268.8749 L 734.9686 268.8749 L 734.06235 268.2499 L 733.43735 268.0624 L 733.62485 267.15615 L 733.3436 266.2499 L 733.0936 266.09365 L 733.0936 265.53115 L 734.06235 265.8124 L 735.06235 265.4374 L 735.9686 265.6249 L 736.8436 266.1874 L 737.12485 266.53115 L 738.0311 265.6249 L 739.9061 266.1874 L 739.2811 265.28115 L 740.62485 264.46865 L 740.99985 264.46865 L 741.43735 264.28115 L 741.81235 263.3749 L 739.0936 263.3749 L 739.99985 262.5624 L 740.9061 262.1249 L 740.2811 261.03115 L 740.99985 260.15615 L 742.87485 259.96865 L 743.7811 260.15615 L 744.1561 261.03115 L 744.31235 261.03115 L 744.68735 260.4374 L 744.68735 259.5624 L 744.59365 259.2499 L 744.68735 259.2499 L 744.68735 206.46865 L 744.59365 206.46865 L 744.56245 206.46865 L 675.2187 206.46865 L 675.21875 206.46875 Z M 703.125 479.53125 L 703.65625 479.43755 L 703.21875 479.34385 L 703.12505 479.53135 L 703.125 479.53125 Z M 707.78125 482.59375 L 708.25 482.78125 L 708.59375 482.59375 L 707.78125 482.59375 Z M 733.09375 267.34375 L 733.09375 268.0625 L 732.1875 267.6875 L 733.09375 267.34375 Z M 708.15625 485.75 L 707.4375 485.9375 L 707.25 486.75 L 707.625 486.6563 L 708.15625 485.75005 L 708.15625 485.75 Z M 707.25 486.75 L 707.0625 486.8437 L 707.25 486.8437 L 707.25 486.75 Z M 707.0625 486.8437 L 705.375 486.56245 L 705.1875 486.18745 L 704.90625 486.6562 L 704.6875 486.6874 L 704 486.84365 L 704.6875 486.87485 L 706.71875 486.90605 L 707.0625 486.84355 L 707.0625 486.8437 Z"/>
    <path id="path4349-6" fill="#8cce55" stroke="#0f380f" stroke-opacity="0.14509804" stroke-linecap="round" stroke-linejoin="round" transform="matrix(1 0 0 1 0.5 1.2670726)" d="M 681.46875 43.093747 C 680.84784 43.566247 680.24595 44.068569 679.625 44.531247 C 680.24758 44.064924 680.84611 43.569319 681.46875 43.093747 Z M 687.46875 51.624997 C 687.67947 51.635217 687.9359 51.655087 688.1875 51.687497 C 687.92638 51.654347 687.68553 51.634127 687.46875 51.624997 Z M 696.46875 104.625 L 695.5625 105.375 L 694.5625 105.53125 L 693.65625 104.90625 L 691.875 105.375 L 692.40625 106.25 L 691.96875 108.15625 L 693.75 108.5 L 694.75 108.4063 L 695.65625 108.1563 L 697.53125 108.25 L 698.4375 108.875 L 699.15625 107.875 L 699.4375 106.96875 L 698.53125 106.96875 L 697.53125 107.625 L 696.53125 107.15625 L 696.1875 106.15625 L 695.28125 106.24995 L 696.28125 105.99995 L 697.1875 105.5312 L 696.46875 104.62495 L 696.46875 104.625 Z M 684.84375 107.875 L 683.9375 108.5 L 684.125 109.40625 L 684.125 110.40625 L 685.125 110.9375 L 686.09375 111.125 L 686.75 110.84375 L 687.71875 110.03125 L 687.09375 109.125 L 686.75 109.0625 L 685.84375 109.125 L 686.75 108.59375 L 686.75 108.25 L 685.84375 107.96875 L 684.84375 107.87505 L 684.84375 107.875 Z M 693.75 111.03125 L 694.65625 111.75 L 694.65625 111.125 L 693.75 111.0313 L 693.75 111.03125 Z M 691.875 111.46875 L 690.875 112.03125 L 691.875 112.5625 L 692.75 112.375 L 692.8437 111.9375 L 691.87495 111.46875 L 691.875 111.46875 Z M 663.28125 112.84375 L 661.875 113.0625 L 661.625 113.0937 C 661.51095 113.1187 661.39483 113.1282 661.28125 113.1562 L 659.5 113.75 L 659.28125 113.8125 L 659.09375 113.9062 L 658.78125 114.06245 L 655.75 115.68745 C 655.6681 115.74045 655.58095 115.79 655.5 115.8437 C 655.03787 116.15 654.58469 116.4578 654.15625 116.7812 C 652.05125 118.543 650.29977 120.9618 648.84375 123.7812 C 648.47975 124.4859 648.13863 125.2196 647.8125 125.9687 C 644.22503 134.2093 642.88063 144.8746 643.09375 152.1562 L 646.59375 151.43745 L 647.0625 151.34375 L 647.9375 151.25005 L 648.84375 150.9063 L 649.75 151.25005 L 650.75 151.25005 L 654.4375 149.4688 L 655.34375 149.7188 L 656.3125 149.5313 L 657.21875 149.18755 L 656.6875 148.2813 L 655.78125 148.0938 L 654.78125 148.37505 L 649.125 148.9063 L 648.21875 148.8126 L 648.40625 147.9376 L 647.40625 147.9376 L 645.625 148.3751 L 644.625 148.2814 L 645.53125 147.93765 L 647.40625 147.6564 L 648.3125 146.93765 L 649.21875 146.50015 L 649.75 145.5939 L 649.6563 144.68765 L 647.7813 143.9689 L 648.68755 144.0626 L 649.6563 143.8751 L 651.4688 144.0626 L 650.56255 143.4376 L 650.75005 142.53135 L 651.37505 143.4376 L 652.2813 144.2501 L 655.9688 144.2501 L 656.87505 144.0626 L 657.8438 143.4376 L 658.75005 143.3439 L 660.00005 142.7189 L 660.7188 141.81265 L 661.7188 141.43765 L 661.00005 140.4689 L 660.0938 139.6564 L 658.2188 139.6564 L 657.2188 139.4689 L 656.31255 139.6564 L 654.43755 139.2814 L 652.62505 138.6564 L 651.6563 138.5627 L 648.8438 139.09395 L 647.87505 138.9377 L 648.75005 138.9377 L 649.6563 138.46895 L 650.56255 138.56265 L 651.56255 138.2189 L 652.5313 138.2814 L 652.00005 137.4064 L 651.0938 136.93765 L 650.2813 136.0314 L 648.31255 135.87515 L 647.4063 135.5939 L 647.4063 134.5939 L 646.50005 134.3439 L 647.50005 134.4376 L 649.31255 135.40635 L 650.18755 135.40635 L 651.18755 135.8751 L 652.00005 136.78135 L 653.00005 137.21885 L 653.81255 138.1251 L 654.68755 138.84385 L 655.5938 139.09385 L 658.4063 138.7501 L 660.56255 139.1876 L 663.25005 141.28135 L 664.1563 141.18765 L 665.12505 141.43765 L 667.0313 143.06265 L 667.31255 144.9689 L 668.18755 146.75015 L 669.18755 147.4689 L 671.0938 148.37515 L 671.9688 148.56265 L 673.87505 148.56265 L 674.7813 147.93765 L 674.5938 146.12515 L 675.50005 145.5939 L 675.31255 146.50015 L 675.56255 147.4689 L 676.37505 148.37515 L 677.2813 148.00015 L 678.18755 148.6564 L 679.18755 148.4689 L 679.5313 147.56265 L 679.0938 146.6564 L 679.1875 145.68765 L 678.71875 144.7814 L 678.71875 143.87515 L 677.8125 143.96885 L 678.8125 143.0626 L 676.84375 143.4376 L 675.9375 143.3439 L 678.8125 142.7814 L 678.8125 141.9064 L 677.90625 141.43765 L 678.8125 141.18765 L 679 140.2814 L 678.09375 139.37515 L 677.09375 139.56265 L 676.21875 140.0939 L 675.9375 141.00015 L 675.125 140.0939 L 675.125 139.0939 L 676.03125 138.75015 L 676.9375 138.65645 L 677.75 137.7502 L 676.84375 137.7502 L 675.03125 138.3752 L 675.3125 137.5002 L 674.40625 137.5002 L 672.59375 138.3752 L 672.875 137.5002 L 673.78125 137.03145 L 674.6875 136.3127 L 673.875 135.40645 L 672.875 135.15645 L 671.96875 135.15645 L 671 134.25 L 670.09375 133.875 L 669.1875 134.25 L 669.5625 133.34375 L 668.65625 132.90625 L 666.75 132.34375 L 665.875 131.625 L 663.96875 131.7187 L 663.0625 131.99995 L 662.15625 132.7187 L 661.375 133.62495 L 661.71875 132.62495 L 661.71875 131.7187 L 660.8125 131.7187 L 659.84375 131.4687 L 662.625 131.4687 L 663.625 131.2812 L 664.5 130.9062 L 664.875 130.0312 L 664.6875 129.12495 L 662.8125 128.6562 L 661 127.93745 L 659.125 128.8437 L 658.125 128.9374 L 657.21875 129.7499 L 657.21875 128.7499 L 656.3125 128.9374 L 655.34375 128.9374 L 656.3125 128.21865 L 655.40625 127.9374 L 653.53125 128.21865 L 652.625 127.78115 L 653.53125 127.9374 L 655.34375 127.59365 L 656.21875 127.78115 L 657.21875 128.21865 L 658.21875 128.40615 L 659.125 128.21865 L 660 127.5 L 661.90625 127.4063 L 662.8125 127.12505 L 663.625 126.25005 L 662.71875 125.68755 L 660.8125 125.43755 L 658.9375 124.7188 L 656.9375 124.7188 L 656.0625 125.5313 L 655.15625 125.5313 L 654.15625 125.25005 L 653.15625 125.34375 L 652.625 126.25 L 652.375 125.34375 L 651.375 125.0625 L 652.375 125.0625 L 653.25 124.8125 L 655.15625 125.15625 L 656.15625 124.8125 L 656.21875 123.90625 L 655.34375 123.81255 L 653.4375 123.18755 L 652.53125 122.2813 L 653.4375 122.375 L 654.34375 123.09375 L 655.25 123.53125 L 657.125 123.53125 L 658.125 124.25 L 659.90625 124.25 L 660.90625 123.625 L 661.4375 122.71875 L 662.4375 122.28125 L 664.25 122.09375 L 663.15625 120.3125 L 661.375 119.40625 L 660.46875 118.40625 L 661.4375 118.78125 L 662.34375 119.5 L 663.25 119.9375 L 663.625 120.84375 L 664.59375 121.28125 L 666.5 121.5625 L 666.03125 120.65625 L 666.65625 119.65625 L 667.5625 119.3125 L 669.375 119.9375 L 670.34375 119.9375 L 674.0625 121.46875 L 675.9375 120.9375 L 674.9375 121.46875 L 673.96875 121.56245 L 670.1875 120.12495 L 669.1875 120.03125 L 668.28125 120.03125 L 668.18755 120.9375 L 669.0938 121.65625 L 671.00005 122.71875 L 671.87505 122.90625 L 672.7813 123.4375 L 675.6563 124.15625 L 676.6563 124.24995 L 677.56255 123.62495 L 678.56255 123.18745 L 679.43755 122.99995 L 680.43755 122.2812 L 681.3438 122.4687 L 684.12505 122.4687 L 685.0313 121.81245 L 684.6563 120.8437 L 684.6563 119.8437 L 685.56255 119.0312 L 684.56255 118.49995 L 683.5938 118.59365 L 682.68755 118.21865 L 681.68755 118.0624 L 679.00005 116.96865 L 678.00005 117.2499 L 678.00005 118.21865 L 678.62505 119.1249 L 678.81255 120.03115 L 677.81255 118.21865 L 677.0938 117.3124 L 676.2188 117.2499 L 675.31255 116.8749 L 676.2188 116.6874 L 677.18755 114.8124 C 676.60581 114.8314 676.00581 114.7817 675.37505 114.7187 C 675.32375 114.7187 675.2704 114.6924 675.2188 114.6875 C 675.09651 114.6745 674.96755 114.64 674.8438 114.625 C 673.07883 114.4041 671.18639 113.98465 669.2813 113.59375 L 669.2188 113.59375 L 667.06255 113.1875 C 666.42296 113.08215 665.77881 112.99961 665.1563 112.9375 C 665.0809 112.9295 665.0126 112.9129 664.93755 112.9063 C 664.89505 112.9033 664.85495 112.9093 664.81255 112.9063 C 664.31399 112.8703 663.82221 112.8356 663.3438 112.8438 C 663.3227 112.8438 663.3024 112.8438 663.2813 112.8438 L 663.28125 112.84375 Z M 680.4375 113.46875 L 678.46875 114.1875 L 677.65625 115.15625 L 678.625 115.875 L 681.4375 116.6875 L 685.28125 116.0625 L 686.1875 115.71875 L 685.28125 115.34375 L 684.75 114.4375 L 683.78125 113.8125 L 682.3125 113.46875 L 680.4375 113.46875 Z M 663.625 122.71875 L 662.71875 123.53125 L 663.625 123.62495 L 667.3125 123.9062 L 669.1875 124.43745 L 670.09375 124.53115 L 671.09375 124.0624 L 669.09375 123.28115 L 666.40625 122.71865 L 663.625 122.71865 L 663.625 122.71875 Z M 681.25 125.25 L 680.25 125.59375 L 681.25 125.4375 L 681.25 125.25 Z M 671.8125 125.875 L 669.90625 126.25 L 667.125 126.5 L 666.21875 127.3125 L 668.1875 127.2188 L 670 127.5938 L 672.78125 127.7813 L 673.78125 128.12505 L 674.21875 129.0313 L 676.125 129.125 L 677.90625 128.84375 L 676.9375 127.9375 L 677.90625 127.21875 L 675.65625 126.5 L 673.78125 126.15625 L 672.875 126.15625 L 671.8125 125.875 L 671.8125 125.875 Z M 664.15625 127.3125 L 663.25 127.5 L 662.25 127.9375 L 664.15625 128.3125 L 664.59375 127.40625 L 664.15625 127.31255 L 664.15625 127.3125 Z M 668.46875 127.59375 L 666.59375 127.68745 L 666.3125 128.6562 L 666.4062 129.56245 L 667.2187 130.4687 L 668.0937 130.6562 L 668.99995 131.37495 L 671.87495 132.2812 L 673.68745 133.3437 L 675.49995 134.1562 L 676.4687 134.1562 L 676.8437 133.24995 L 675.31245 132.2812 L 674.4062 132.0937 L 674.4062 131.18745 L 675.31245 131.37495 L 676.31245 131.37495 L 677.18745 131.81245 L 677.4687 130.9062 L 676.56245 130.9999 L 675.6562 130.09365 L 674.7812 129.9374 L 673.87495 129.3124 L 672.87495 128.84365 L 672.24995 127.9374 L 670.2812 127.9374 L 668.4687 127.59365 L 668.46875 127.59375 L 668.46875 127.59375 Z M 660.46875 143.25 L 659.46875 143.4375 L 658.46875 143.78125 L 657.59375 144.3125 L 656.59375 144.59375 L 653.90625 144.78125 L 652.90625 145.59375 L 652 145.9375 L 651.09375 146.75 L 650.1875 146.8437 L 649.75 147.74995 L 650.75 148.4687 L 653.53125 148.0937 L 654.4375 147.74995 L 656.3125 147.84365 L 657.21875 147.46865 L 658.21875 147.28115 L 659.125 147.5624 L 660 147.1249 L 661.90625 146.65615 L 662.09375 145.7499 L 661.8125 144.8749 L 660.90625 143.96865 L 660.46875 143.2499 L 660.46875 143.25 L 660.46875 143.25 Z M 651.8125 144.6875 L 650.84375 145.03125 L 651.1875 145.9375 L 652.09375 145.5 L 653.09375 144.78125 L 651.8125 144.68755 L 651.8125 144.6875 Z M 658.46875 147.75 L 657.59375 148.28125 L 658.5625 147.84375 L 658.4688 147.75005 L 658.46875 147.75 Z M 634.75 350.71875 C 633.5075 350.71875 632.5 351.72625 632.5 352.96875 C 632.5 354.21245 633.5075 355.21875 634.75 355.21875 C 635.9925 355.21875 637 354.21245 637 352.96875 C 637 351.72625 635.9925 350.71875 634.75 350.71875 Z M 653.5 354.46875 C 652.2575 354.46875 651.25 355.47625 651.25 356.71875 C 651.25 357.96245 652.2575 358.96875 653.5 358.96875 C 654.7425 358.96875 655.75 357.96245 655.75 356.71875 C 655.75 355.47625 654.7425 354.46875 653.5 354.46875 Z M 648 355.21875 C 646.7575 355.21875 645.75 356.22625 645.75 357.46875 C 645.75 358.71125 646.7575 359.71875 648 359.71875 C 649.23163 359.71875 650.23256 358.7275 650.25 357.5 L 650.5625 357.5937 L 650.25 357.37495 C 650.2021 356.17465 649.21198 355.2187 648 355.2187 L 648 355.21875 Z M 661.1875 359.46875 C 659.945 359.46875 658.9375 360.47625 658.9375 361.71875 C 658.9375 362.96245 659.945 363.96875 661.1875 363.96875 C 662.43 363.96875 663.4375 362.96245 663.4375 361.71875 C 663.4375 360.47625 662.43 359.46875 661.1875 359.46875 Z M 662.5625 463.75 C 661.32 463.75 660.3125 464.7575 660.3125 466 C 660.3125 467.2425 661.32 468.25 662.5625 468.25 C 663.805 468.25 664.8125 467.2425 664.8125 466 C 664.8125 464.7575 663.805 463.75 662.5625 463.75 Z M 673.21875 465.15625 C 671.97625 465.15625 670.96875 466.16495 670.96875 467.40625 C 670.96875 468.19245 671.38928 468.87885 672 469.28125 C 671.78137 469.62815 671.65625 470.02865 671.65625 470.46875 C 671.65625 471.07305 671.89245 471.62695 672.28125 472.03125 C 672.18455 472.01825 672.10023 472.00005 672 472.00005 C 671.23881 472.00005 670.56343 472.3901 670.15625 472.9688 C 670.06575 472.9578 669.96846 472.9376 669.875 472.9376 C 668.95841 472.9376 668.19445 473.49495 667.84375 474.28135 C 667.45257 473.95185 666.95809 473.7501 666.40625 473.7501 C 665.16375 473.7501 664.15625 474.7576 664.15625 476.0001 C 664.15625 477.2413 665.16375 478.2501 666.40625 478.2501 C 667.32376 478.2501 668.0871 477.69225 668.4375 476.90635 C 668.82786 477.23195 669.32679 477.4376 669.875 477.4376 C 670.63619 477.4376 671.31157 477.04715 671.71875 476.46885 C 671.80875 476.47985 671.90708 476.50005 672 476.50005 C 673.24375 476.50005 674.25 475.49255 674.25 474.25005 C 674.25 473.64415 674.01439 473.09215 673.625 472.68755 C 673.7217 472.70055 673.80612 472.71875 673.90625 472.71875 C 675.1475 472.71875 676.15625 471.71005 676.15625 470.46875 C 676.15625 469.68255 675.73614 469.0276 675.125 468.625 C 675.34499 468.2774 675.46875 467.84795 675.46875 467.40625 C 675.46875 466.16505 674.4625 465.15625 673.21875 465.15625 Z M 666.96875 465.65625 C 665.72625 465.65625 664.71875 466.66375 664.71875 467.90625 C 664.71875 469.14875 665.72625 470.15625 666.96875 470.15625 C 668.21125 470.15625 669.21875 469.14875 669.21875 467.90625 C 669.21875 466.66375 668.21125 465.65625 666.96875 465.65625 Z M 703.21875 479.34375 L 703.12505 479.53125 L 703.6563 479.43755 L 703.2188 479.34385 L 703.21875 479.34375 Z M 707.78125 482.59375 L 708.25 482.78125 L 708.59375 482.59375 L 707.78125 482.59375 Z M 708.15625 485.75 L 707.4375 485.9375 L 707.25 486.75 L 707.625 486.6563 L 708.15625 485.75005 L 708.15625 485.75 Z M 707.25 486.75 L 707.0625 486.8437 L 707.25 486.8437 L 707.25 486.75 Z M 707.0625 486.8437 L 705.375 486.56245 L 705.1875 486.18745 L 704.90625 486.6562 L 704.6875 486.6874 L 704 486.84365 L 704.6875 486.87485 L 706.71875 486.90605 L 707.0625 486.84355 L 707.0625 486.8437 L 707.0625 486.8437 Z M 702.5625 485.93745 L 703.1875 486.8437 L 703.2187 486.8437 L 702.56245 485.93745 L 702.5625 485.93745 Z M 708.6875 492.31245 L 708.40625 493.0312 L 708.96875 494.0312 L 708.4375 493.0312 L 708.6875 492.31245 Z M 718.3125 504.37495 L 718.125 505.2812 L 718.1562 505.2812 L 718.31245 504.37495 L 718.3125 504.37495 Z M 718.125 506.0937 L 718.40625 506.99995 L 718.15625 506.12495 L 718.15625 506.09375 L 718.12505 506.09375 L 718.125 506.0937 Z M 720.65625 510.0312 L 719.75 510.1249 L 719.6563 510.40615 L 720.56255 510.6874 L 721.4688 510.40615 L 720.6563 510.03115 L 720.65625 510.0312 Z M 732.8125 518.06245 L 733.0625 518.49995 L 733.0937 518.49995 L 732.81245 518.06245 L 732.8125 518.06245 Z"/>
    <path id="path10444" fill="#3e73c5" fill-opacity="0.42857145" stroke="#000000" stroke-opacity="0.24675323" stroke-linecap="round" stroke-linejoin="round" transform="matrix(1 0 0 1 0.5 1.2670726)" d="M 742.42764 142.14645 L 740.55264 142.70895 L 739.89634 143.6777 L 738.02134 144.39645 L 737.58394 145.39645 L 739.45894 144.0527 L 740.45894 144.0527 L 741.42764 143.77145 L 742.33394 143.14645 L 742.42794 142.14645 Z"/>
</svg>
