<svg width="1671.094" height="856.39252" viewBox="0 0 1671.094 856.39252" xmlns="http://www.w3.org/2000/svg" xmlns:usvg="https://github.com/RazrFalcon/usvg" usvg:version="0.8.0">
    <defs/>
    <path id="path3074-6-4" fill="#3e73c5" fill-opacity="0.42857145" stroke="#000000" stroke-opacity="0.24675323" stroke-linecap="round" stroke-linejoin="round" d="M 536.59375 704.89258 L 536.0625 706.04883 L 535.34375 706.95508 L 532.5625 709.29883 L 532.09375 709.92383 L 531.84375 710.83008 L 531.03125 711.73633 L 530.75 712.70508 L 529.84375 713.17383 L 529.03125 714.04883 L 525.96875 715.42383 L 525.09375 715.48633 C 524.76981 715.41233 524.49124 715.34688 524.25 715.26758 C 523.6646 715.07531 523.27451 714.88228 522.90625 714.76758 C 522.82475 714.74258 522.73862 714.72108 522.65625 714.70508 C 522.57905 714.69008 522.48796 714.67968 522.40625 714.67388 C 522.32495 714.66388 522.2453 714.67388 522.15625 714.67388 C 521.97793 714.68388 521.79198 714.70888 521.5625 714.76758 C 521.42106 714.80358 521.23157 714.86558 521.0625 714.92383 C 520.92653 714.97083 520.81365 715.01773 520.65625 715.08008 C 520.3771 715.19147 520.04816 715.31913 519.6875 715.48633 L 518.6875 714.76758 L 516.8125 714.33008 L 515 712.98633 L 512.84375 712.98633 L 511.9375 713.23633 L 511.59375 712.61133 L 509.875 710.92383 L 509.25 710.01758 L 509.1563 709.48633 L 509.3438 707.67383 L 509.87505 706.04883 L 509.25005 706.14253 L 509.15635 707.04878 L 508.71885 707.95503 L 508.62515 708.83003 L 509.06265 710.11128 L 509.06265 710.73628 L 509.3439 711.73628 L 509.2502 711.89253 L 508.53145 712.17378 C 510.29769 716.28249 512.3527 713.63253 515.1877 718.01753 L 514.09395 719.83003 L 514.00025 720.54878 L 514.2815 721.45503 L 515.00025 722.42378 L 515.9065 722.95503 L 516.9065 722.79878 L 516.969 722.89248 L 517.344 724.23623 L 517.2503 726.01748 L 516.53155 726.92373 L 515.46905 728.73623 L 513.84405 730.61123 L 513.28155 731.51748 L 513.21905 732.42373 L 512.3128 733.14248 C 507.96155 735.68 501.55905 736.66833 496.5628 737.17373 L 495.65655 737.11123 L 494.7503 737.26748 L 493.84405 737.01748 L 492.8753 737.01748 L 491.96905 736.29873 L 491.0628 736.82998 L 490.9691 737.73623 L 491.43785 738.70498 L 492.31285 739.42373 L 491.43785 739.07998 L 492.31285 739.98623 L 491.87535 741.76748 L 491.25035 741.76748 L 490.62535 743.92373 L 490.53165 744.82998 L 491.4379 745.73623 L 491.4379 746.64248 L 490.8754 747.54873 L 488.09415 748.79873 L 486.21915 749.07998 L 484.40665 749.07998 L 483.5004 748.42373 L 480.8129 747.45498 L 479.90665 746.92373 L 479.0004 746.92373 L 478.09415 747.36123 L 477.9379 748.26748 L 478.0316 749.17373 L 478.75035 750.95498 L 478.37535 753.73623 L 479.37535 754.73623 L 481.1566 755.17373 L 481.00035 756.07998 L 482.87535 756.07998 L 482.96905 755.11123 L 481.96905 754.92373 L 482.96905 754.73623 L 483.8753 754.29873 L 484.78155 754.64248 L 485.21905 755.54873 C 485.23275 757.68283 485.22705 758.87263 482.59405 758.42373 L 482.34405 757.51748 L 481.6253 756.61123 L 480.71905 756.54873 L 478.84405 757.42373 L 479.5628 758.32998 L 481.34405 759.61123 L 479.46905 760.23623 L 478.5628 760.95498 L 478.1878 761.76748 L 477.3753 762.64248 L 477.21905 763.54873 L 477.65655 765.36123 L 477.46905 766.36123 L 477.21905 767.23623 L 476.59405 768.14248 L 475.6878 768.76748 L 475.5003 769.67373 L 475.9378 770.57998 L 475.78155 770.76748 L 473.8753 770.48623 L 472.96905 770.57993 L 471.90655 771.39243 L 471.0003 771.73618 L 470.09405 771.82988 L 469.1878 772.73613 L 467.84405 774.54863 C 467.69623 774.73455 467.55724 774.90938 467.4378 775.07988 C 467.4133 775.11588 467.3992 775.16888 467.3753 775.20488 C 467.3537 775.23688 467.3334 775.26668 467.3128 775.29858 C 467.2934 775.32058 467.2654 775.33608 467.2503 775.36108 C 467.2058 775.43108 467.1651 775.51003 467.1253 775.57983 L 467.1253 775.61103 L 467.1253 778.98603 C 467.31932 779.2614 467.55308 779.50938 467.8128 779.76728 C 468.07252 780.02516 468.36388 780.29313 468.65655 780.54853 C 469.24188 781.05952 469.85468 781.58143 470.3753 782.17353 L 473.0628 782.73603 L 473.96905 782.54853 L 474.96905 783.17353 L 475.3128 784.07978 L 474.96905 785.86103 L 474.0628 786.57978 L 473.15655 787.04853 L 472.2503 787.23603 L 472.4378 787.39228 L 474.2503 786.76728 L 475.0628 787.67353 L 474.2503 788.67353 L 473.2503 789.20478 L 472.53155 790.11103 L 471.6253 790.45478 L 468.84405 792.07978 L 468.3128 792.98603 L 467.40655 793.61103 L 467.11553 793.87861 L 466.58428 794.50361 L 466.30303 795.50361 L 466.39673 796.37861 L 465.86548 799.09736 L 465.14673 799.97236 L 464.42798 800.53486 L 463.42798 800.78486 L 462.52173 799.97236 L 461.80298 798.62861 L 461.36548 798.37861 L 461.70923 798.62861 L 461.89673 799.09736 L 461.64673 799.81611 L 460.74048 799.90981 L 462.27173 799.97231 L 462.52173 801.34731 L 460.74048 802.06606 L 460.02173 802.97231 L 459.64673 803.84731 L 459.20923 805.75356 L 458.67798 806.28481 L 459.30298 805.94106 L 460.11548 808.62856 L 460.11548 809.53481 L 459.20923 809.72231 L 458.20923 809.62861 L 457.30298 809.97236 L 458.39673 809.72236 L 459.30298 810.34736 L 460.27173 809.97236 L 461.27173 811.87861 L 462.61548 813.65986 L 462.89673 814.56611 L 461.89673 816.28876 L 463.17798 817.72431 L 463.61548 818.69306 L 462.70923 818.97431 L 462.27173 819.88056 L 463.17798 820.41181 L 464.05298 820.41181 L 464.86548 822.22431 L 467.02173 824.38056 L 467.12525 824.48603 L 467.93775 825.11103 L 469.844 826.20478 L 470.719 826.54853 L 471.62525 827.54853 L 474.344 828.79853 L 475.219 829.07978 L 476.219 829.07978 L 477.12525 828.89228 L 478.0315 828.98598 L 477.0315 830.76723 L 474.25025 830.61098 L 473.344 831.14223 L 472.43775 831.14223 L 471.5315 831.48598 L 470.62525 830.95473 L 470.61525 830.94303 L 470.61525 831.91178 L 470.92775 833.16178 L 471.24025 834.50748 L 471.33395 837.25748 L 469.3652 839.44498 L 467.12497 840.19498 L 467.12497 851.57975 L 467.12497 855.89225 L 536.59372 855.89225 L 536.59372 851.57975 L 536.59372 704.89225 Z M 458.67773 806.28516 L 458.39648 806.47266 L 458.30278 806.66016 L 458.67778 806.28516 Z M 460.74023 799.91016 L 460.11523 800.06641 L 460.45898 800.06641 L 460.74023 799.91016 Z M 494.41406 805.4082 L 513.15234 805.4082 L 513.15234 816.36719 L 494.41406 816.54492 L 494.41406 805.4082 Z"/>
    <path id="path81284" fill="#3e73c5" fill-opacity="0.42857145" stroke="#000000" stroke-opacity="0.24675323" stroke-linecap="round" stroke-linejoin="round" transform="matrix(1 0 0 1 0.5 1.2670726)" d="M 466.625 -0.74999551 L 466.625 26.250004 L 467.71875 26.437504 L 468.875 26.250004 L 470.78125 26.437504 L 471.75 26.718754 L 471.03125 27.343754 L 469.0625 28.062504 L 466.625 28.593754 L 466.625 29.593754 L 467.15625 29.593754 L 468.0625 29.218754 L 470.0625 29.062504 L 470.9375 28.500004 L 472.9375 27.875004 L 474.8125 27.531254 L 475.8125 28.156254 L 476.71875 27.968754 L 477.53125 26.968754 L 478.5 26.812504 L 479.5 27.156254 L 478.5 27.250004 L 480.3125 28.250004 L 481.3125 28.156254 L 482.375 27.687504 L 483.28125 27.593754 L 484.34375 27.593754 L 485.34375 27.781254 L 485.25005 28.687504 L 484.2813 28.968754 L 485.25005 29.500004 L 486.1563 30.312504 L 487.25005 30.937504 L 486.7813 31.937504 L 485.7188 32.187504 L 486.7813 32.093754 L 488.68755 31.312504 L 489.75005 31.218754 L 490.75005 31.656254 L 493.9063 31.656254 L 495.25005 32.187504 L 496.1563 32.812504 L 496.31255 33.812504 L 495.5313 34.812504 L 494.62505 35.156254 L 493.62505 35.343754 L 491.6563 36.593754 L 486.7813 38.312504 L 484.9063 38.687504 L 483.9063 39.218754 L 481.12505 40.218754 L 477.1563 39.937504 L 475.37505 40.375004 L 473.37505 40.656254 L 476.3438 40.750004 L 474.2813 41.281254 L 473.37505 41.031254 L 472.4688 41.375004 L 471.50005 41.281254 L 466.7188 41.562504 L 466.6251 41.562504 L 466.6251 42.093754 L 468.6876 42.000004 L 470.6876 42.531254 L 466.6251 43.531254 L 466.6251 44.343754 C 471.22259 43.762513 475.7351 42.142504 480.40635 42.281254 L 480.59385 43.187504 C 478.5351 45.227493 475.5076 45.275004 472.9376 46.062504 L 471.9376 46.593754 L 471.03135 47.406254 L 470.0626 47.937504 L 468.15635 48.656254 L 467.2501 48.843754 L 466.6251 49.218754 L 466.6251 67.781254 L 464.6876 68.687504 L 465.1876 68.812504 L 466.09385 68.281254 L 466.6251 68.187504 L 467.90635 67.937504 L 468.8751 68.187504 L 469.8751 68.187504 L 470.78135 67.843754 L 471.65635 67.843754 L 472.7501 68.187504 L 473.84385 68.000004 L 474.8126 67.281254 L 475.71885 66.312504 L 477.59385 65.312504 L 479.0626 63.500004 L 478.2501 62.625004 L 478.3438 61.625004 L 478.1563 59.812504 L 477.87505 58.937504 L 478.7813 58.562504 L 480.93755 58.218754 L 481.8438 57.562504 L 483.81255 57.406254 L 482.8438 57.312504 L 481.93755 56.937504 L 481.0313 57.562504 L 479.93755 57.937504 L 478.1563 58.218754 L 477.1563 58.031254 L 474.18755 58.843754 L 473.18755 58.750004 L 472.2188 58.031254 L 471.31255 57.937504 L 469.3438 58.281254 L 467.43755 57.218754 L 466.7188 56.312504 L 466.7188 55.406254 L 469.5938 54.062504 L 469.9688 53.062504 L 472.93755 52.343754 L 473.9063 51.718754 L 475.81255 51.812504 L 474.9063 51.468754 L 475.8125 51.000004 L 477.78125 50.468754 L 478.0625 49.562504 L 479.0625 49.218754 L 479.3125 48.312504 L 480.3125 48.218754 L 483.28125 47.406254 L 484.28125 46.593754 L 485.15625 46.875004 L 486.0625 48.656254 L 486.96875 49.468754 L 487.6875 50.375004 L 488.59375 50.750004 L 486.78125 48.937504 L 486.25 47.937504 L 485.875 47.031254 L 486.34375 46.156254 L 487.3125 45.781254 L 488.21875 45.687504 L 489.3125 45.968754 L 491.1875 46.062504 L 494.15625 47.406254 L 495.15625 46.968754 L 496.0625 46.875004 L 496.96875 46.406254 L 496.15625 45.531254 L 495.6875 44.625004 L 496.40625 43.625004 L 497.40625 43.187504 L 497.125 42.281254 L 495.25 40.750004 L 494.71875 39.843754 L 495.59375 39.218754 L 498.40625 38.218754 L 501.09375 37.781254 L 502.90625 38.218754 L 506.03125 38.500004 L 507.03125 38.937504 L 507.21875 39.937504 L 507.9375 40.843754 L 508.84375 41.187504 L 510.71875 41.656254 L 511.71875 41.750004 L 513.6875 42.625004 L 514.5 43.531254 L 517.46875 44.156254 L 516.5625 43.718754 L 515.59375 43.531254 L 514.5 42.812504 L 513.59375 42.000004 L 511.625 41.031254 L 510.625 40.937504 L 509.5625 40.281254 L 508.03125 38.406254 L 505.25 37.593754 L 504.25 36.968754 L 507.125 36.250004 L 508.03125 35.875004 L 510.90625 35.437504 L 513.875 35.156254 L 516.84375 34.625004 L 517.84375 34.625004 L 518.8125 35.156254 L 519.375 34.281254 L 520.34375 34.093754 L 522.25 34.437504 L 523.15625 35.000004 L 524.125 35.156254 L 523.59375 34.281254 L 522.6875 33.906254 L 521.78125 33.906254 C 527.16503 32.995006 527.7075 32.036254 531.25 35.875004 L 530.96875 36.781254 L 531.5 37.781254 L 531.34375 38.687504 L 529.96875 40.562504 L 530.15625 41.468754 L 530.625 42.468754 L 531.5 42.531254 L 531.4063 40.750004 L 532.4063 39.937504 L 533.31255 39.500004 L 534.12505 38.593754 L 534.03135 37.687504 L 534.3126 36.687504 L 536.09385 37.156254 L 536.09385 36.687504 L 533.3126 35.968754 L 532.40635 35.156254 L 532.31265 34.281254 L 533.31265 33.468754 L 534.31265 33.468754 L 535.18765 33.718754 L 535.9064 34.625004 L 536.0939 34.718754 L 536.0939 -0.74999551 L 466.62515 -0.74999551 Z"/>
    <path id="path81282" fill="#3e73c5" fill-opacity="0.42857145" stroke="#000000" stroke-opacity="0.24675323" stroke-linecap="round" stroke-linejoin="round" transform="matrix(1 0 0 1 0.5 1.2670726)" d="M 455.75005 628.37491 L 457.00005 627.74991 L 457.37505 627.46866 L 457.37505 626.93741 L 456.6563 626.40616 L 457.9063 625.06241 L 458.7188 624.15616 L 459.62505 623.43741 L 459.68755 623.34371 L 459.5313 623.06246 L 459.5313 622.96876 L 460.3438 623.06246 L 459.9688 622.43746 L 460.0625 622.34376 L 460.78125 622.25006 L 461.3125 621.28131 L 460.34375 621.37501 L 460.25005 621.00001 L 460.50005 620.00001 L 459.62505 619.65626 L 458.9063 618.75001 L 458.00005 618.03126 L 458.09375 617.84376 L 458.71875 616.96876 L 458.62505 616.21876 L 458.00005 615.50001 L 458.00005 614.62501 L 458.62505 613.53126 L 459.5313 612.81251 L 459.625 612.00001 L 460.1564 611.09361 L 459.68765 610.28111 L 459.3439 609.40611 L 459.87515 608.49986 L 459.87515 606.24986 L 459.96885 605.34361 L 460.8751 604.53111 L 461.15635 603.71861 L 459.6876 600.84361 L 457.71885 597.68736 L 457.0001 596.43736 L 457.90635 596.34366 L 458.90635 596.53116 L 459.6876 596.71866 L 460.6876 596.62496 L 460.8751 596.71866 L 461.59385 597.15616 L 462.5001 596.71866 L 463.40635 595.90616 L 464.3751 595.09366 L 465.28135 595.18736 L 465.65635 595.28106 L 465.8126 594.90606 L 466.6251 594.24981 L 466.6251 586.03106 C 464.51381 582.73686 462.47021 579.39199 460.4376 576.03106 C 460.4064 575.97926 460.3752 575.92681 460.3439 575.87481 C 459.32403 574.18801 458.30312 572.49662 457.2814 570.81231 C 457.2694 570.79331 457.2623 570.76981 457.2502 570.74981 C 456.21635 569.04571 455.17571 567.34464 454.1252 565.65606 L 454.84395 565.56236 L 455.03145 565.56236 L 455.1877 565.46866 L 455.1877 565.12491 L 455.2814 565.03121 L 455.2814 564.93751 L 455.93765 561.87501 L 456.4689 558.81251 L 456.4689 558.62501 L 457.00015 555.59376 L 457.5314 552.62501 L 457.6251 552.06251 L 457.90635 551.53126 L 457.6251 550.53126 L 457.6251 550.28126 L 457.28135 549.81251 L 456.90635 548.75001 L 456.81265 547.84376 L 455.0314 546.59376 L 454.75015 545.50001 L 454.75015 545.40631 L 455.0314 542.81256 L 457.00015 542.34381 L 457.81265 542.25011 L 458.7189 542.62511 L 458.9064 542.09386 L 458.8127 541.37511 L 457.90645 540.65636 L 455.7502 540.56266 L 455.7502 537.59391 L 457.0002 537.31266 L 457.90645 537.50016 L 462.3127 537.50016 L 463.21895 537.21891 L 463.03145 536.96891 L 463.9377 536.87521 L 464.84395 537.40646 L 465.71895 536.68771 L 466.53145 535.78146 L 466.62515 535.78146 L 466.62515 534.18771 L 467.2189 534.65646 L 467.2189 535.12521 C 467.2169 535.27625 467.2487 535.42583 467.3126 535.56271 L 467.6251 536.21896 C 467.6231 536.37 467.6549 536.51958 467.7188 536.65646 L 468.0313 537.25021 C 468.03114 537.26061 468.03114 537.27101 468.0313 537.28141 L 468.2813 538.06266 C 468.2903 538.09436 468.3005 538.12566 468.3125 538.15636 L 468.3125 538.18756 L 468.5 539.03131 C 468.49984 539.04171 468.49984 539.05211 468.5 539.06251 L 468.71875 539.87501 C 468.77465 540.10035 468.90725 540.29922 469.09375 540.43751 C 469.84573 541.0001 470.37637 541.45786 470.75 541.81251 C 471.16613 542.20751 471.40259 542.49161 471.90625 542.71876 C 472.10079 542.80646 472.42448 542.87846 472.71875 542.84376 C 473.01302 542.80916 473.24257 542.73257 473.46875 542.62501 C 473.83054 542.45295 474.33851 542.10432 474.875 541.75001 L 475.2188 541.96811 C 475.36458 542.30421 475.69765 542.52926 476.06255 542.56186 C 476.42744 542.59446 476.76578 542.42932 476.9688 542.12436 L 477 542.09316 L 477.71875 541.65566 C 477.79835 541.61366 477.872 541.56106 477.9375 541.49941 L 478 541.43691 C 478.011 541.41641 478.0212 541.39561 478.0312 541.37441 L 478.6562 540.65566 L 478.7187 540.62446 L 478.8437 540.59326 C 478.8649 540.58326 478.8857 540.57316 478.9062 540.56206 L 478.9687 540.53086 L 479.5937 540.34336 L 479.6874 540.31216 C 479.87112 540.28696 480.04424 540.21127 480.1874 540.09341 L 480.7499 539.56216 L 481.1874 539.62466 C 481.45672 539.65646 481.7274 539.57746 481.9374 539.40591 L 482.6874 538.81216 C 482.85646 538.67695 482.97705 538.49053 483.03115 538.28091 L 483.1874 537.62466 C 483.198 537.61466 483.2084 537.60416 483.2186 537.59346 L 483.4686 537.06221 L 483.8436 537.03101 C 484.02418 537.01501 484.19701 536.95021 484.3436 536.84351 L 485.18735 536.24976 L 485.21855 536.24976 C 485.27335 536.22356 485.3257 536.19196 485.3748 536.15606 C 485.37496 536.14566 485.37496 536.13526 485.3748 536.12486 L 485.90605 535.81236 C 486.28725 535.57756 486.46597 535.11801 486.34355 534.68736 L 486.1873 534.12486 C 486.07241 533.72733 485.72457 533.44161 485.3123 533.40611 L 484.6248 533.34361 C 484.5936 533.34261 484.5623 533.34261 484.5311 533.34361 L 484.4999 533.34361 C 484.4687 533.34261 484.4374 533.34261 484.4062 533.34361 L 483.68745 533.40611 L 483.5312 533.34361 L 483.5937 533.15611 C 483.6551 532.92679 483.633 532.68309 483.5312 532.46861 L 483.1562 531.59361 C 483.1217 531.52661 483.0798 531.46371 483.0312 531.40611 L 483 531.34361 C 482.99 531.32241 482.9799 531.30161 482.9688 531.28111 L 482.9376 531.24991 L 482.5626 530.71866 L 482.5626 530.15616 L 482.5626 530.09366 C 482.56325 530.08336 482.56238 530.07286 482.5626 530.06246 L 482.6563 529.34371 C 482.6771 529.13762 482.6334 528.93016 482.5313 528.74996 L 482.12505 527.96871 C 482.04465 527.81617 481.92629 527.68701 481.7813 527.59371 L 481.06255 527.15621 L 480.93755 526.99996 L 481.31255 526.96876 L 481.8438 527.12501 L 482.56255 527.78126 C 482.78273 527.98126 483.08051 528.07296 483.37505 528.03126 L 484.0313 527.93756 L 484.5938 528.18756 C 484.84345 528.29348 485.1254 528.29348 485.37505 528.18756 L 485.81255 527.96881 L 486.2813 528.40631 L 486.375 528.50001 L 486.9688 529.21871 C 487.22006 529.53876 487.64018 529.67469 488.0313 529.56246 L 488.5938 529.40621 C 489.02308 529.28038 489.31655 528.88478 489.31255 528.43746 L 489.31255 527.56246 L 489.40625 527.56246 C 489.63338 527.56263 489.8538 527.48546 490.03125 527.34371 L 490.53125 526.93746 L 491.0625 527.12496 C 491.25267 527.19506 491.45974 527.20616 491.65625 527.15616 L 492.46875 526.90616 C 492.53435 526.88176 492.59725 526.85016 492.65625 526.81246 L 493.21875 526.49996 L 493.24995 526.49996 L 493.93745 526.49996 C 494.16458 526.50013 494.385 526.42296 494.56245 526.28121 L 495.4062 525.56246 L 496.1562 525.28121 L 496.1874 525.28121 L 496.71865 525.21871 C 497.0165 525.17841 497.28043 525.00628 497.4374 524.74996 L 497.8124 524.15621 L 498.4374 523.84371 C 498.6424 523.74531 498.80775 523.57996 498.90615 523.37496 L 499.2499 522.68746 C 499.40958 522.36697 499.38575 521.98557 499.1874 521.68746 L 498.6874 520.93746 C 498.6511 520.88136 498.6092 520.82901 498.5624 520.78121 L 498.5312 520.75001 L 497.6562 519.87501 C 497.6264 519.85241 497.5949 519.83161 497.5625 519.81251 C 497.5426 519.79081 497.5217 519.76991 497.5 519.75001 L 496.9065 518.96811 C 496.8866 518.94641 496.8657 518.92551 496.844 518.90561 L 496.094 518.09311 L 496.0315 518.03061 C 496.0215 518.00941 496.0114 517.98861 496.0003 517.96811 C 495.9953 517.96311 495.9751 517.97311 495.9691 517.96811 C 495.96926 517.95771 495.96926 517.94731 495.9691 517.93691 L 495.9066 517.84321 L 495.9378 517.81201 L 495.969 517.78081 C 496.0158 517.73301 496.0577 517.68066 496.094 517.62456 L 496.75025 516.99956 C 496.98975 516.75112 497.08425 516.39676 497.00025 516.06206 L 496.844 515.31206 L 496.7815 514.99956 L 496.969 514.96836 L 497.0002 514.96836 C 497.021 514.96901 497.0419 514.96901 497.0627 514.96836 C 497.1155 514.96236 497.16775 514.95176 497.21895 514.93716 L 498.09395 514.74966 C 498.14675 514.74366 498.199 514.73306 498.2502 514.71846 L 499.09395 514.37471 L 499.84395 514.06221 C 500.07767 513.96841 500.26739 513.78982 500.3752 513.56221 L 500.6877 512.93721 C 500.84505 512.61593 500.82512 512.23387 500.6252 511.93721 C 500.42528 511.64055 500.0758 511.47441 499.71895 511.49971 L 499.46895 511.53091 L 499.40645 511.28091 C 499.39005 511.22711 499.36915 511.17486 499.34395 511.12466 L 499.31275 511.06216 C 499.28635 511.00736 499.25495 510.95501 499.21905 510.90591 L 498.9378 510.53091 L 499.21905 510.21841 L 499.8753 509.81216 L 499.969 509.78096 C 499.9796 509.77086 499.99 509.76036 500.0002 509.74976 C 500.0214 509.73976 500.0422 509.72966 500.0627 509.71856 C 500.0731 509.71872 500.0835 509.71872 500.0939 509.71856 L 500.1251 509.68736 C 500.1463 509.67736 500.1671 509.66726 500.1876 509.65616 C 500.2672 509.61416 500.34085 509.56166 500.40635 509.49991 L 500.6876 509.21866 L 500.7188 509.18746 C 500.7405 509.16756 500.7614 509.14666 500.7813 509.12496 L 501.4688 508.71871 C 501.5358 508.68421 501.5987 508.64231 501.6563 508.59371 L 501.8438 508.40621 L 501.875 508.37501 C 501.9236 508.31741 501.9655 508.25451 502 508.18751 L 502.1561 507.90601 L 502.49985 507.65601 C 502.93153 507.31094 503.0015 506.68117 502.6561 506.24976 L 502.2186 505.71851 L 502.1874 505.68731 L 502.1874 505.65611 C 502.1645 505.23207 501.87634 504.86871 501.46865 504.74986 L 500.5624 504.49986 C 500.42068 504.45736 500.27125 504.44656 500.1249 504.46866 L 499.21865 504.62491 C 499.09736 504.64511 498.98082 504.68751 498.8749 504.74991 L 498.4374 504.59366 C 498.3155 504.55946 498.18825 504.54906 498.0624 504.56246 L 497.15615 504.62496 C 497.13535 504.62431 497.11445 504.62431 497.09365 504.62496 L 497.40615 503.56246 L 498.34365 502.53121 C 498.52665 502.33036 498.61135 502.05236 498.59365 501.78121 C 498.57595 501.51005 498.45745 501.26909 498.2499 501.09371 L 497.34365 500.28121 C 497.16231 500.12131 496.92918 500.03221 496.6874 500.03121 L 496.0624 500.03121 L 494.59365 499.12496 C 494.4348 499.02391 494.25066 498.96971 494.0624 498.96871 L 493.21865 498.96871 L 493.12495 498.87501 C 493.06145 498.80231 492.9878 498.73911 492.9062 498.68751 L 491.99995 498.12501 C 491.8411 498.02396 491.65696 497.96976 491.4687 497.96876 L 491.0937 497.96876 C 490.91897 497.96576 490.74658 498.00916 490.5937 498.09376 L 490.06245 497.53126 L 490.3437 497.53126 C 490.52895 497.53926 490.71288 497.49636 490.87495 497.40626 L 491.7812 496.87501 L 492.37495 496.65626 L 492.43745 496.65626 L 492.5937 496.59376 C 493.08769 496.43013 493.37232 495.91206 493.24995 495.40626 C 493.12757 494.90046 492.63911 494.57596 492.12495 494.65626 L 491.31245 494.81251 L 488.68745 494.56251 C 488.59265 494.55951 488.498 494.56951 488.4062 494.59371 L 487.68745 494.74996 L 486.87495 494.65626 C 486.75942 494.64626 486.64311 494.65716 486.5312 494.68746 L 484.93745 495.09371 L 484.4687 495.00001 C 484.5325 494.86313 484.5644 494.71355 484.5624 494.56251 L 484.5624 493.65626 C 484.56256 493.27171 484.34648 492.91663 483.9999 492.75001 C 483.65333 492.58339 483.23764 492.63473 482.9374 492.87501 L 482.21865 493.46876 L 481.46865 493.59376 C 481.06555 493.68316 480.7497 493.99808 480.6874 494.40626 C 480.6251 494.81443 480.82929 495.23197 481.1874 495.43751 L 481.53115 495.62501 C 481.37365 495.76478 481.26425 495.95069 481.21865 496.15626 L 480.90615 496.28126 C 480.87445 496.29026 480.84315 496.30046 480.81245 496.31246 L 478.99995 497.37496 C 478.89123 497.43976 478.7958 497.52458 478.7187 497.62496 L 477.5937 497.62496 L 475.7187 497.09371 C 475.6472 497.07541 475.57375 497.06451 475.49995 497.06251 L 474.9687 497.03131 L 474.06245 496.25006 L 473.99995 496.00006 C 473.88866 495.64278 473.58723 495.37756 473.2187 495.31256 L 472.31245 495.12506 C 472.25105 495.10876 472.18835 495.09786 472.12495 495.09386 L 469.87495 495.09386 C 469.82295 495.08986 469.7707 495.08986 469.7187 495.09386 L 465.6562 495.71886 L 464.31245 495.71886 L 464.06245 495.56261 L 464.15615 495.25011 C 464.25185 494.96889 464.21745 494.65973 464.06245 494.40636 L 463.06245 492.87511 C 462.99185 492.75219 462.89603 492.64571 462.7812 492.56261 L 460.99995 491.37511 C 460.85013 491.27951 460.67754 491.22586 460.49995 491.21886 L 457.49995 491.00011 L 457.0937 490.75011 L 456.9062 490.28136 L 456.8437 489.53136 C 456.8216 489.32224 456.7341 489.12541 456.5937 488.96886 L 455.7812 488.06261 C 455.55853 487.79956 455.21609 487.66966 454.87495 487.71886 C 454.78775 487.73876 454.70375 487.77026 454.62495 487.81256 L 453.62495 488.25006 C 453.35472 488.36562 453.14905 488.5942 453.06245 488.87506 L 452.87495 489.53131 C 452.84075 489.65321 452.83035 489.78046 452.84375 489.90631 L 452.93745 490.78131 C 452.94955 490.92412 452.99215 491.06266 453.06245 491.18756 L 453.03125 491.37506 C 453.01435 491.53406 453.03625 491.6948 453.09375 491.84381 L 452.4375 492.09381 L 450.78125 492.43756 C 450.68335 492.45466 450.5886 492.48616 450.5 492.53126 L 448.21875 493.74976 C 448.15605 493.60424 448.05963 493.47571 447.9375 493.37476 L 447.21875 492.74976 L 447.0625 492.31226 L 447.1875 491.68726 C 447.2352 491.43917 447.1885 491.17669 447.0625 490.96851 L 447.46875 490.81226 L 448.8125 490.40601 L 449.0625 490.34351 L 451.625 490.21851 L 450.625 488.21851 L 446.9375 461.37476 L 446.9375 461.06226 L 446.9063 460.34351 L 446.9063 460.03101 L 446.0938 458.90601 L 446.7188 457.87476 L 446.9688 457.18726 L 446.9688 457.15606 L 447 457.06236 L 446.9688 457.03116 L 446.68755 456.81241 L 446.4688 456.59366 L 446.4376 456.56246 L 446.4688 456.53126 L 446.93755 456.18751 L 447.1563 456.03126 L 446.9688 455.06251 L 447 454.75001 L 447.0936 453.84341 L 447.0936 453.81221 L 447.0936 453.71851 L 447.0311 453.59351 L 445.99985 451.24976 L 443.21 439.93644 L 466.781 439.93644 L 466.62485 323.68726 L 467.5311 323.31226 L 468.43735 323.21856 L 468.87485 322.31231 L 468.43735 321.15606 L 467.9686 320.62481 L 467.7186 320.53111 L 467.24985 320.78111 L 466.9061 320.24986 L 467.0936 318.46861 L 466.9999 318.28111 L 466.6249 318.21861 L 466.09365 318.09361 L 465.1874 317.28111 L 465.46865 316.84361 L 465.37495 315.03111 L 465.28125 313.68736 L 465.28125 309.71861 L 464.5625 309.18736 L 464.5625 309.09366 L 463.125 308.03116 L 460.15625 308.99991 L 459.4375 308.37491 C 459.9325 308.24101 460.34137 308.1179 460.6875 307.99991 C 461.13116 307.84861 461.43573 307.7056 461.6875 307.56241 C 461.7089 307.55041 461.7287 307.54421 461.75 307.53121 C 461.86732 307.46081 461.9797 307.38446 462.0625 307.31246 C 462.71883 306.73786 462.4089 306.06367 462.84375 304.68746 L 463.75 304.40621 L 464.1875 304.24996 L 466 304.24996 L 466.625 304.68746 L 466.90625 304.87496 L 468.4375 304.68746 L 469.34375 304.34371 L 469.40625 304.34371 L 469.6875 304.25001 L 471.34375 303.81251 L 473.25 304.00001 L 476.37504 304.84376 L 478.96879 303.96876 L 481.46879 303.15626 L 484.68754 302.09376 L 485.84379 301.37501 L 486.56254 301.09376 L 490.83793 310.82813 L 494.73051 310.58009 L 496.95512 304.56642 L 493.18754 291.62501 L 492.87504 290.84376 L 492.78134 290.18751 L 492.53134 289.62501 L 492.75009 287.71876 L 493.02548 287.25782 L 492.63876 286.76954 L 492.99423 286.23243 L 493.46689 285.72462 L 492.72079 285.17774 L 492.53329 284.76759 L 492.36142 284.25587 L 492.14267 283.75782 L 491.85751 282.72071 L 491.70517 282.04689 L 491.20517 281.51954 L 491.04306 280.92774 L 491.03906 280.5547 L 490.64453 280.17384 L 484 280.03126 L 484.4375 279.75001 L 483.90625 277.96876 L 482.90625 277.78126 L 482.65625 276.87501 L 483.5625 276.15626 L 485.34375 275.96876 L 484.71875 275.15626 L 485 274.28126 L 484.53125 273.37501 L 483.625 273.09376 L 483.1875 273.90626 L 482.28125 274.53126 L 482.03125 276.25001 L 482.28125 278.06251 L 482.28125 278.93751 L 482.09375 279.12501 L 481.46875 280.12501 L 481.21875 281.03126 L 481.5625 281.65626 L 480.125 282.71876 L 479.59375 281.84376 L 479.78125 280.93751 L 478.96875 280.46876 L 478.34375 279.59376 L 477.4375 278.87501 L 476.4375 278.68751 L 475.625 279.65626 L 475 279.40626 L 474 279.65626 L 473.28125 278.78126 L 472.5625 278.40626 L 472.03125 279.12501 L 471.40625 278.21876 L 471.75 277.34376 L 471.59375 276.62501 L 471.75 274.81251 L 472.21875 274.43751 L 471.3125 273.56251 L 470.5 274.53126 L 470.5 275.00001 L 469.59369 275.43736 L 468.68744 275.71861 L 468.53119 275.62491 L 468.62489 274.37491 L 469.06239 273.46866 L 468.96869 272.46866 L 469.34369 271.56241 L 469.15619 271.40616 L 468.34369 270.49991 L 467.43744 270.21866 L 466.62494 269.78116 L 466.90619 268.87491 L 466.62494 268.65616 L 466.18744 268.34366 L 465.56244 267.43741 L 465.81244 266.53116 L 466.62494 266.06241 L 466.71864 265.99991 L 466.62494 265.84366 L 466.18744 265.09366 L 466.09374 264.18741 L 466.62499 264.03116 L 467.90624 263.65616 L 468.78124 263.46866 L 467.90624 262.74991 L 467.24999 261.84366 L 466.90624 261.03116 L 467.71874 261.03116 L 468.87499 261.84366 L 469.87499 262.56241 L 470.78124 262.40616 L 470.21874 261.49991 L 470.49999 261.21866 L 470.49999 261.03116 L 470.12499 260.68741 L 470.40624 259.78116 L 469.87499 258.87491 L 470.68749 259.34366 L 472.37499 261.03116 L 473.65624 261.49991 L 474.28124 261.84366 L 474.90624 262.74991 L 476.71874 262.74991 L 477.15624 262.93741 L 478.06249 262.93741 L 479.06249 262.65616 C 479.48899 262.74856 479.78738 262.77741 480.03124 262.81241 L 480.84374 262.65616 C 480.89294 262.64916 481.00617 262.67186 481.24999 262.74986 L 482.90624 263.37486 L 483.71874 263.65611 L 484.71874 262.84361 L 485.34374 261.03111 L 484.99999 260.15611 L 486.68749 259.15611 L 486.96874 259.06241 L 486.68749 258.06241 L 485.81249 257.43741 L 485.24999 256.71866 L 484.34374 255.81241 L 484.34374 254.93741 L 485.43749 254.37491 L 484.43749 254.37491 L 483.56249 254.12491 L 482.74999 253.56241 L 482.03124 251.78116 L 482.46874 251.78116 L 483.37499 251.68746 L 482.28124 249.87496 L 482.46874 249.53121 L 483.37499 248.81246 L 483.37499 247.90621 L 483.81249 247.28121 L 484.18749 245.28121 L 483.99999 244.40621 L 484.09369 243.93746 L 483.28119 243.03121 L 483.28119 242.78121 L 482.37494 242.49996 L 481.93744 241.59371 L 481.21869 240.87496 L 480.84369 240.62496 L 481.74994 239.81246 L 482.37494 238.90621 L 483.62494 238.28121 L 482.65619 237.81246 L 482.56249 236.93746 L 483.62499 236.56246 L 484.53124 236.56246 L 484.71874 235.56246 L 483.81249 235.40621 L 483.09374 235.74996 L 482.18749 236.28121 L 481.46874 235.40621 L 480.59374 235.31251 L 479.84374 235.03126 L 478.87499 235.12496 L 479.21874 234.21871 L 480.12499 234.40621 L 480.65624 234.68746 L 480.40624 232.15621 L 481.21874 231.24996 L 480.31249 231.15626 L 479.31249 231.34376 L 479.12499 230.34376 L 479.21869 228.56251 L 479.78119 228.37501 L 478.87494 227.93751 L 478.87494 227.65626 L 477.68744 227.65626 L 478.00971 225.82032 L 481.53314 223.57618 L 479.61322 221.93165 L 479.82416 219.73439 L 481.61517 216.44532 L 479.51361 213.28907 L 482.22846 210.23829 L 481.89056 206.61134 L 483.7265 203.38478 L 481.33197 198.33009 L 479.70306 197.53321 L 480.68939 193.33204 L 484.85736 193.7422 L 486.38861 193.12501 L 487.43158 191.56837 L 488.23822 189.33595 L 491.20697 187.51954 L 492.43158 185.63868 L 493.68549 184.75196 L 493.76169 182.95704 L 495.7363 181.92579 L 496.69724 179.31251 L 491.34372 173.87501 L 486.45114 172.43556 L 484.79294 170.34571 L 482.08591 169.24806 L 481.80466 168.09571 L 479.18747 166.8672 L 476.61716 166.97267 L 471.00388 163.60548 L 468.76755 163.23048 L 468.16989 161.27345 L 469.48239 160.3379 L 471.83395 159.96485 L 471.59763 158.32618 L 470.81833 157.14063 L 469.59567 156.34376 L 470.1152 154.58595 L 469.46286 152.42384 L 468.47849 150.75782 L 466.582 149.36134 L 466.625 147.43751 L 466.625 98.875004 L 463.40625 98.250004 L 462.59375 98.250004 L 462.21875 97.531254 L 461.21875 97.437504 L 459.34375 96.375004 L 457.375 95.718754 L 457.53125 94.750004 L 459.53125 94.281254 L 460.5 93.562504 L 461.40625 93.312504 L 462.3125 93.468754 L 463.3125 93.468754 L 464.375 93.218754 L 463.65625 92.218754 L 461.875 92.656254 L 460.78125 92.656254 L 458.8125 92.500004 L 455.03125 91.687504 L 455.03125 90.781254 L 456 89.875004 L 456.90625 89.531254 L 456 89.531254 L 453.40625 91.312504 L 452.40625 91.312504 L 451.4375 91.062504 L 450.53125 90.343754 L 451.4375 90.062504 L 450.53125 89.781254 L 449.53125 89.781254 L 448.625 89.156254 L 449.4375 88.156254 L 450.4375 87.906254 L 451.34375 87.437504 L 454.125 87.000004 L 456.4687 87.093754 L 462.2187 87.718754 L 463.2187 87.718754 L 465.0937 87.375004 L 466.62495 87.625004 L 466.62495 87.437504 L 465.0937 87.187504 L 464.12495 87.187504 L 463.2187 87.375004 L 460.3437 87.093754 L 459.3437 86.656254 L 462.2187 85.750004 L 466.18745 85.562504 L 466.62495 85.593754 L 466.62495 84.093754 L 466.53125 84.125004 L 462.59375 84.468754 L 462.21875 83.593754 L 461.21875 83.593754 L 460.6875 84.468754 L 458.8125 84.937504 L 455.9375 84.125004 L 455.03125 84.031254 L 454.03125 83.593754 L 456 83.031254 L 457 82.156254 L 456 82.500004 L 454.125 82.781254 L 453.125 82.781254 L 452.15625 82.312504 L 454.125 81.250004 L 455.03125 81.250004 L 455.03125 81.062504 L 453.21875 80.875004 L 451.4375 81.687504 L 449.25 81.875004 L 448.375 81.437504 L 449.34375 80.687504 L 448.46875 80.781254 L 447.46875 80.250004 L 446.5625 80.531254 L 445.65625 80.343754 L 444.6875 79.812504 L 443.875 78.906254 L 442.875 78.718754 L 441 77.718754 L 441.96875 77.281254 L 442.96875 76.375004 L 441.96875 76.031254 L 442.59375 75.031254 L 443.5 74.125004 L 446.375 73.781254 L 447.375 73.218754 L 448.28125 73.062504 L 451.25 73.218754 L 452.15625 72.343754 L 455.03125 71.875004 L 455.03125 71.531254 L 455.375 71.437504 L 458.34375 71.156254 L 459.25 70.718754 L 460.25 70.531254 L 459.34375 69.625004 L 462.21875 68.812504 L 463.75 68.562504 L 464.03125 69.000004 L 471.59375 81.062504 L 480.84375 95.187504 L 481.3125 96.000004 L 481.46875 95.625004 L 482.1875 97.531254 L 483.1875 97.531254 L 484.09375 97.000004 L 485 96.093754 L 485.96875 95.468754 L 487.96875 96.000004 L 488.93735 96.531254 L 489.8436 96.531254 L 490.8436 96.281254 L 491.74985 96.812504 L 493.62485 97.250004 L 494.62485 97.437504 L 495.5311 97.250004 L 497.4061 97.812504 L 497.5936 98.687504 L 500.4686 98.687504 L 501.37485 99.250004 L 501.37485 99.593754 L 502.3436 99.343754 L 503.24985 99.781254 L 502.3436 100.50001 L 503.24985 100.68751 L 504.24985 100.21876 L 505.1561 100.21876 L 504.7811 101.12501 L 505.7811 101.31251 L 506.74985 101.75001 L 507.6561 101.50001 L 508.6561 101.59371 L 509.7186 103.37496 L 509.56235 104.28121 L 507.56235 104.90621 L 509.4686 104.62496 L 508.6561 105.53121 L 509.56235 106.34371 L 510.4686 106.53121 L 510.18735 107.43746 L 513.5936 108.96871 L 514.5936 109.12496 L 515.5936 109.78121 L 514.68735 110.21871 L 515.2186 111.21871 L 516.12485 111.31241 L 517.12485 111.65616 L 518.0936 112.56241 L 518.99985 112.46871 L 518.0936 113.28121 L 516.2186 113.46871 L 517.2186 113.81246 L 519.0936 113.81246 L 518.18735 114.28121 L 517.2186 114.34371 L 518.0936 114.71871 L 516.2186 115.71871 L 514.4061 116.15621 L 515.4061 116.34371 L 516.4061 116.25001 L 517.2811 115.96876 L 519.18735 115.00001 L 518.56235 116.78126 L 519.5311 117.15626 L 520.18735 118.06251 L 521.06235 118.50001 L 520.43735 119.40626 L 521.43735 120.03126 L 520.5311 119.84376 L 519.5311 120.56251 L 521.5311 121.28126 L 522.06235 122.18751 L 523.93735 123.00001 L 524.12485 123.34376 L 523.1561 123.18751 L 522.43735 124.06251 L 523.4061 124.34376 L 521.5311 125.34376 L 523.31235 126.15626 L 524.31235 125.96876 L 525.2186 126.31251 L 525.8436 127.21876 L 526.0311 128.12501 L 525.12485 128.31251 L 526.12485 128.56251 L 525.56235 129.46876 L 524.5936 130.18751 L 525.56235 130.75001 L 526.4686 131.00001 L 527.37485 130.81251 L 526.4686 131.09376 L 522.7811 130.81251 L 521.87485 131.09376 L 523.68735 132.00001 L 524.5936 131.53126 L 525.56235 132.09376 L 525.0311 133.00001 L 524.12485 133.53126 L 522.43735 135.50001 L 523.4061 135.87501 L 525.4061 135.59376 L 526.2811 134.96876 L 526.9061 134.06251 L 526.56235 135.06251 L 525.6561 135.68751 L 524.74985 136.12501 L 523.7811 136.12501 L 522.87485 136.31251 L 523.31235 137.21876 L 522.3436 136.93751 L 520.43735 138.03126 L 521.43735 138.46876 L 521.87485 139.46876 L 522.7811 140.37501 L 523.68735 139.81251 L 524.68735 140.09376 L 525.56235 140.71876 L 526.56235 140.71876 L 527.4686 140.62506 L 529.24985 140.09381 L 529.9061 139.18756 L 529.43735 138.21881 L 530.3436 138.28131 L 530.1561 137.40631 L 531.06235 137.31261 L 531.9686 136.59386 L 530.9686 134.68761 L 530.06235 133.96886 L 529.96865 132.65636 L 530.34365 133.43761 L 531.0624 134.34386 L 531.96865 135.06261 L 532.06235 135.96886 L 532.93735 136.78136 L 533.8436 136.59386 L 533.5936 137.03136 L 532.68735 137.75011 L 533.6561 137.93761 L 535.4686 137.93761 L 536.0936 138.25011 L 536.0936 139.09386 C 536.0737 139.09386 536.0511 139.08386 536.0311 139.09386 C 535.88225 139.12836 535.74579 139.19711 535.5936 139.25011 C 535.44989 139.30181 535.30395 139.36261 535.1561 139.43761 C 535.084 139.47261 535.01075 139.52161 534.93735 139.56261 C 534.90795 139.57751 534.87175 139.57681 534.84365 139.59381 C 534.77275 139.63781 534.6973 139.66881 534.6249 139.71881 C 534.5961 139.73781 534.5597 139.76131 534.5312 139.78131 C 534.5191 139.78931 534.5122 139.80251 534.5 139.81251 C 534.3147 139.94671 534.13906 140.09055 533.9375 140.28126 L 536.09375 140.46876 L 536.09375 140.87501 L 535.90625 140.81251 L 534.03125 140.46876 L 533.125 140.81251 L 533.125 141.62501 L 534.03125 142.53126 L 534.9375 142.34376 L 536.09375 141.62501 L 536.09375 146.25001 L 535.28125 145.93751 L 533.40625 145.68751 L 531.5 145.75001 L 530.625 145.50001 L 528.71875 145.21876 L 527.71875 145.50001 L 526.84375 145.93751 L 526.90625 146.93751 L 529.8125 149.00001 L 532.5938 149.28146 L 533.50005 149.53146 L 535.4688 150.25021 L 536.0938 150.87521 L 536.0938 153.06271 L 535.37505 152.87521 L 534.4688 152.15646 L 533.6563 151.15646 L 531.87505 150.25021 L 528.0938 149.53146 L 527.0938 149.53146 L 526.18755 149.90646 L 525.31255 150.71896 L 525.40625 151.62521 L 526.1875 152.15646 L 528 152.87521 L 526.125 152.43771 L 525.21875 152.59396 L 524.84375 153.50021 L 525.84375 153.96896 L 526.75 154.59396 L 525.84375 154.21896 L 524.9375 154.93771 L 525.84375 155.56271 L 526.75 155.75021 L 528.625 155.84391 L 530.53125 156.56266 L 531.5 155.84391 L 532.0625 156.75016 L 531.0625 156.75016 L 530.15625 156.93766 L 529.15625 156.75016 L 528.28125 157.46891 L 529.15625 157.71891 L 530.15625 158.28141 L 531.40625 158.37511 L 536.09375 157.00011 L 536.09375 162.68761 L 535.84375 162.68761 L 534.03125 163.21886 L 534.9375 163.40636 L 536.09375 163.28136 L 536.09375 164.25011 L 535.75 164.40636 L 536.09375 164.37516 L 536.09375 164.62516 L 534.75 165.37516 L 532.875 165.93766 L 533.84375 166.00016 L 534.75 165.75016 L 535.65625 165.75016 L 534.75 166.18766 L 535.75 166.09396 L 536.09375 166.40646 L 536.09375 167.00021 L 535.75 166.81271 L 534.84375 167.09396 L 536.09375 167.59396 L 536.09375 167.65646 L 532.875 166.81271 L 531.96875 167.00021 L 532.875 167.18771 L 534.75 168.43771 L 536.09375 168.62521 L 536.09375 168.87521 L 535.75 168.90641 L 534.75 168.53141 L 533.84375 168.00016 L 532.9375 168.09386 L 533.84375 168.43761 L 532.9375 168.62511 L 532.5 169.53136 L 531.59375 169.34386 L 532.5 169.78136 L 531.59375 169.96886 L 530.6875 169.87516 L 531.25 170.78141 L 530.34375 171.50016 L 531.25 172.12516 L 532.21875 171.68766 L 534.03125 170.25016 L 535.84375 169.96891 L 536.09375 169.84391 L 536.09375 170.31266 L 534.75 170.43766 L 535.65625 170.43766 L 533.84375 170.78141 L 531.96875 172.21891 L 531.0625 172.50016 L 530.0625 173.03141 L 529.90625 173.93766 L 530.78125 174.46891 L 532.59375 173.75016 L 533.59375 174.03141 L 536.09375 173.37516 L 536.09375 173.84391 L 535.125 173.93761 L 534.21875 174.18761 L 531.5 174.37511 L 529.71875 175.09386 L 530.625 175.56261 L 531.5 175.56261 L 530.625 175.71886 L 531.5 176.18761 L 532.40625 176.28131 L 530.625 176.37501 L 531.5 177.00001 L 533.40552 176.8159 L 535.28052 177.0034 L 536.09302 176.5034 L 536.09302 177.4409 L 535.28052 177.3472 L 534.37427 177.62845 L 535.28052 177.62845 L 534.37427 178.25345 L 533.49927 178.25345 L 534.37427 178.44095 L 535.28052 178.34725 L 534.37427 178.78475 L 532.49927 178.69105 L 531.59302 179.3473 L 532.49927 179.69105 L 533.40552 179.78475 L 534.31177 179.59725 L 536.09302 179.78475 L 536.09302 179.81595 L 535.28052 179.9722 L 534.37427 179.7847 L 532.49927 180.1597 L 531.59302 180.066 L 530.68677 180.941 L 530.78047 181.84725 L 531.68672 182.03475 L 532.59297 181.84725 L 531.68672 182.1285 L 530.78047 182.941 L 531.87422 183.191 L 533.65547 182.566 L 535.56172 181.1285 L 536.09297 180.84725 L 536.09297 181.03475 L 535.56172 181.40975 L 534.65547 182.316 L 531.87422 183.566 L 532.78047 183.84725 L 531.87422 184.09725 L 532.78047 184.47225 L 533.65547 184.0035 L 532.78047 184.566 L 533.65547 184.90975 L 535.46797 184.191 L 536.09297 184.53475 L 536.09297 184.8785 L 535.28047 184.47225 L 533.40547 185.441 L 534.31172 185.441 L 533.40547 186.0035 L 534.31172 186.441 L 535.18672 185.53475 L 534.93672 187.34725 L 535.84297 187.15975 L 535.65547 188.066 L 536.09297 188.1597 L 536.09297 278.37845 L 524.65547 278.37845 L 521.46016 280.48978 L 522.35274 272.92142 L 519.91133 269.77689 L 516.99336 268.04642 L 514.83906 268.5308 L 514.35469 269.95462 L 512.82344 271.42338 L 512.82344 273.19681 L 514.35469 274.82572 L 514.35469 285.10111 L 503.65547 292.25345 L 503.65547 312.94095 L 516.46797 312.94095 L 516.46797 313.06595 L 519.90547 313.06595 L 519.90547 312.94095 L 536.09297 312.94095 L 536.09297 522.0972 L 534.03047 520.12845 L 533.74922 520.22215 L 531.49922 519.6909 L 530.62422 519.03465 L 529.71797 518.8784 L 528.81172 520.40965 L 528.43672 520.65965 L 528.99922 519.7534 L 529.24922 518.8784 L 528.28047 518.2534 L 524.59297 517.6909 L 524.59297 518.3159 L 523.93672 518.5034 L 522.96797 517.8784 L 521.15547 517.7847 L 520.24922 518.25345 L 520.43672 518.4097 L 520.34302 519.2222 L 519.43677 518.4097 L 517.65552 517.9722 L 515.31177 517.69095 L 515.21807 517.87845 L 514.96807 517.87845 L 514.68682 519.12845 L 514.15557 520.0347 L 514.06187 520.2222 L 514.21812 521.12845 L 514.31182 521.2847 L 513.96807 522.19095 C 509.87932 522.33975 512.14932 523.99224 510.37432 526.25345 L 510.62432 527.1597 L 511.96807 528.94095 L 512.34307 529.94095 L 513.78057 529.94095 L 514.31182 531.4722 L 514.31182 532.37845 L 514.87432 532.81595 L 515.84307 534.7222 L 516.74932 536.1597 L 517.73955 536.49173 L 516.99737 536.81791 L 513.30596 536.61869 L 512.3001 537.77298 L 507.50713 539.10306 L 507.54033 539.75931 L 506.13408 540.18509 L 505.38017 539.63431 L 505.89775 547.60306 L 506.55009 547.81009 L 506.69267 548.96439 L 507.30204 549.26127 L 507.96806 549.75931 L 508.01496 550.59525 L 508.62043 550.94291 L 509.14387 551.46439 L 509.84114 552.07572 L 510.52278 552.36478 L 511.31965 552.91166 L 511.8509 553.19095 L 512.55012 553.48197 L 513.38606 553.58744 L 513.81184 554.08939 L 514.32551 554.18509 L 514.47786 554.89017 L 515.12825 555.12845 L 515.92317 555.32181 L 515.99157 555.94877 L 517.05407 555.82962 L 517.88415 556.26322 L 517.37243 556.81009 L 508.30797 576.35892 L 507.71618 576.80619 L 507.9486 577.47025 L 508.2943 578.27298 L 509.00719 578.7183 L 509.31383 580.01712 L 509.8529 580.4722 L 510.23961 581.32767 L 510.64586 582.17923 L 510.66926 582.87064 L 511.0345 583.56791 L 511.5384 583.81205 L 511.4974 584.56205 L 511.38997 585.1265 L 511.54427 585.82572 L 512.05208 586.55423 L 513.08333 587.0015 L 513.20052 587.439 L 514.26888 587.94291 L 514.38802 588.76322 L 514.90755 588.76722 L 515.73568 589.26722 L 516.30404 589.26522 L 517.3431 589.4996 L 546.61458 591.30428 L 546.3431 592.03475 L 545.4681 594.191 L 544.9056 595.09725 L 544.9056 597.066 L 544.37435 598.40975 C 544.40965 598.86885 544.43485 599.32893 544.46805 599.78475 L 544.37435 600.22225 L 544.56185 600.7535 L 544.56185 600.7847 C 544.57085 600.9089 544.58405 601.03549 544.59305 601.1597 C 544.59605 601.2746 544.58505 601.39003 544.59305 601.50345 L 544.56185 601.8472 L 544.65555 602.1597 C 544.69395 602.6678 544.73725 603.17803 544.78055 603.69095 L 544.74935 604.19095 L 544.9056 605.1597 L 545.4681 605.3472 L 544.99935 607.4097 L 544.0931 609.2222 L 543.8431 609.4097 L 543.8431 611.19095 L 543.4681 611.4722 L 543.2181 612.2847 L 543.2181 613.19095 L 542.8431 614.5347 L 542.6556 615.06595 L 542.0306 615.50345 L 541.12435 615.50345 L 540.5931 615.9722 L 540.06185 616.87845 L 539.24935 618.8472 L 539.24935 619.0347 L 538.3431 619.6597 L 537.37435 619.7534 L 537.28065 619.7534 L 537.28065 619.8471 L 536.9994 620.2846 L 536.09315 621.0346 L 535.3744 621.62835 L 535.3744 622.9721 L 534.65565 623.87835 L 533.59315 624.7846 L 533.1244 625.69085 L 532.9369 626.69085 L 532.78065 627.12835 L 532.68695 628.12835 L 533.5932 629.9096 L 533.5932 630.81585 L 533.8432 631.7221 L 534.8432 632.06585 L 534.31195 632.9721 L 534.4682 633.1596 L 535.9057 633.2533 L 536.0932 633.2533 L 536.2807 633.2533 L 539.9682 635.22205 L 541.06195 635.40955 L 541.93695 635.9408 L 542.93695 636.3158 L 543.31195 636.9408 L 543.0307 637.84705 L 543.0307 639.4408 L 543.1244 639.90955 L 542.40565 640.90955 L 541.40565 641.34705 L 540.59315 642.2533 L 540.2494 643.22205 L 540.2494 643.59705 L 539.8744 644.03455 L 539.0619 645.22205 L 539.1556 645.84705 L 538.5306 646.7533 L 538.0931 647.09705 L 537.81185 648.0033 L 537.81185 648.097 L 536.7181 649.62825 L 536.6244 649.81575 L 536.09315 650.12825 L 534.7494 650.972 L 533.84315 651.69075 L 533.1244 652.597 L 531.15565 653.4095 L 530.8744 654.0345 L 530.6244 655.12825 L 530.6244 655.19075 L 530.5307 655.37825 L 530.1557 655.75325 L 529.5307 656.00325 C 528.7457 657.45945 529.5519 658.20324 527.9057 659.25325 L 527.812 660.1595 L 527.9995 660.69075 L 527.09325 663.847 L 526.90575 665.00325 L 526.3745 665.9095 L 526.3745 666.722 L 526.187 667.097 L 526.3745 667.81575 L 526.1245 669.972 L 525.84325 671.0345 L 525.46825 672.0345 L 524.59325 672.6595 L 523.59325 673.56575 L 523.40575 673.47205 L 522.4995 673.7533 L 521.78075 674.72205 L 521.34325 675.6283 L 520.90575 675.90955 L 520.09325 675.34705 L 519.187 675.34705 L 518.3745 676.4408 L 517.46825 676.0033 L 516.937 676.0033 L 515.03075 676.0658 L 513.8745 675.90955 L 511.187 675.1908 L 508.28075 675.1908 L 507.84325 675.2845 L 507.562 674.62825 L 508.9995 673.19075 L 509.812 671.75325 L 509.812 671.0345 L 509.9057 670.222 L 510.4682 669.347 L 510.7182 669.1595 L 511.0932 668.87825 L 511.5307 667.972 L 512.06195 667.097 L 512.7182 666.19075 L 512.1557 665.2845 L 511.9682 665.1908 L 511.9057 665.0033 L 510.9057 664.1908 L 509.99945 663.84705 L 508.99945 663.75335 L 508.6557 663.31585 L 506.8432 662.6596 L 505.7807 661.94085 L 504.7807 661.50335 L 503.06195 660.1596 L 501.37445 659.06585 L 499.93695 658.97215 L 499.84325 658.97215 L 497.78075 658.2534 L 496.78075 658.0034 L 496.15575 656.90965 L 495.2495 656.28465 L 493.34325 655.1909 L 492.46825 654.3159 L 491.9995 653.5034 L 491.187 652.59911 L 490.937 651.59911 L 490.562 651.41161 L 490.312 651.34911 L 489.40575 650.69286 L 489.1245 650.25536 L 488.40575 649.09911 L 484.28075 649.25536 L 484.18705 649.34906 L 483.7183 649.16156 L 482.74955 649.88031 L 482.2808 650.78656 L 482.0933 651.25531 L 481.8433 651.59906 L 481.31205 653.41156 L 480.93705 652.59906 L 480.74955 651.69281 L 479.7808 649.97406 L 478.24955 649.53656 L 477.43705 649.63026 L 477.34335 649.63026 L 475.4371 649.53656 L 475.4371 649.63026 L 474.5621 649.53656 L 473.65585 648.72406 L 472.5621 648.09906 L 471.9371 649.72406 L 470.1246 650.25531 L 470.0621 650.88031 L 468.34335 652.59906 L 468.0621 653.13031 L 468.8746 653.94281 L 466.8315 655.0046 L 463.6355 654.87517 L 463.6979 653.60466 L 462.10195 647.34827 L 460.64393 645.81677 L 460.83472 644.4188 L 459.55954 643.10587 L 459.46724 641.53248 L 460.42272 640.81327 L 459.85748 640.05531 C 460.10797 639.56393 460.62819 638.92015 461.11423 638.54655 L 458.54079 636.3385 L 458.11085 631.97888 L 456.8622 631.56723 L 455.93755 629.37487 Z"/>
    <path id="path81280" fill="#3e73c5" fill-opacity="0.42857145" stroke="#000000" stroke-opacity="0.24675323" stroke-linecap="round" stroke-linejoin="round" transform="matrix(1 0 0 1 0.5 1.2670726)" d="M 444.6875 84.843754 L 443.6875 85.656254 L 445.65625 86.375004 L 447.5625 86.187504 L 448.53125 85.468754 Z"/>
    <path id="path81278" fill="#3e73c5" fill-opacity="0.42857145" stroke="#000000" stroke-opacity="0.24675323" stroke-linecap="round" stroke-linejoin="round" transform="matrix(1 0 0 1 0.5 1.2670726)" d="M 449.25 84.843754 L 449.53125 85.187504 L 450.53125 85.750004 L 453.3125 85.562504 L 454.21875 85.281254 L 451.25 84.843754 Z"/>
    <path id="path81276" fill="#3e73c5" fill-opacity="0.42857145" stroke="#000000" stroke-opacity="0.24675323" stroke-linecap="round" stroke-linejoin="round" transform="matrix(1 0 0 1 0.5 1.2670726)" d="M 455.9375 93.218754 L 455.03125 93.406254 L 455.03125 93.656254 L 456 93.843754 L 457 93.750004 Z"/>
    <path id="path81274" fill="#3e73c5" fill-opacity="0.42857145" stroke="#000000" stroke-opacity="0.24675323" stroke-linecap="round" stroke-linejoin="round" transform="matrix(1 0 0 1 0.5 1.2670726)" d="M 516.5625 112.37501 L 517.46875 112.65626 L 516.46875 113.09376 L 513.59375 113.09376 L 513.68745 112.84376 L 515.5937 112.65626 L 516.56245 112.37501 Z"/>
    <path id="path81272" fill="#3e73c5" fill-opacity="0.42857145" stroke="#000000" stroke-opacity="0.24675323" stroke-linecap="round" stroke-linejoin="round" transform="matrix(1 0 0 1 0.5 1.2670726)" d="M 517.46875 118.40626 L 519.375 118.68751 L 518.46875 119.50001 L 516.5625 118.68751 Z"/>
    <path id="path81270" fill="#3e73c5" fill-opacity="0.42857145" stroke="#000000" stroke-opacity="0.24675323" stroke-linecap="round" stroke-linejoin="round" transform="matrix(1 0 0 1 0.5 1.2670726)" d="M 520.1875 121.37501 L 520.625 121.81251 L 521.625 122.09376 L 521.78125 123.00001 L 520.90625 122.37501 Z"/>
    <path id="path81268" fill="#3e73c5" fill-opacity="0.42857145" stroke="#000000" stroke-opacity="0.24675323" stroke-linecap="round" stroke-linejoin="round" transform="matrix(1 0 0 1 0.5 1.2670726)" d="M 523.6875 127.84376 L 524.6875 128.21876 L 522.6875 129.93751 L 521.78125 129.84381 L 520.8125 129.46881 L 521.78125 128.56256 L 523.6875 127.84381 Z"/>
    <path id="path81266" fill="#3e73c5" fill-opacity="0.42857145" stroke="#000000" stroke-opacity="0.24675323" stroke-linecap="round" stroke-linejoin="round" transform="matrix(1 0 0 1 0.5 1.2670726)" d="M 520.96875 128.40626 L 521.53125 128.49996 L 519.625 129.56246 L 520 128.65621 L 520.96875 128.40621 Z"/>
    <path id="path81264" fill="#3e73c5" fill-opacity="0.42857145" stroke="#000000" stroke-opacity="0.24675323" stroke-linecap="round" stroke-linejoin="round" transform="matrix(1 0 0 1 0.5 1.2670726)" d="M 524.5 131.90626 L 523.21875 133.53126 L 522.34375 133.96876 L 521.34375 133.62501 L 521.6875 132.62501 L 522.59375 132.71871 L 524.5 131.90621 Z"/>
    <path id="path81262" fill="#3e73c5" fill-opacity="0.42857145" stroke="#000000" stroke-opacity="0.24675323" stroke-linecap="round" stroke-linejoin="round" transform="matrix(1 0 0 1 0.5 1.2670726)" d="M 522.15625 135.78126 L 522.06255 136.78126 L 521.06255 136.50001 L 522.1563 135.78126 Z"/>
    <path id="path81260" fill="#3e73c5" fill-opacity="0.42857145" stroke="#000000" stroke-opacity="0.24675323" stroke-linecap="round" stroke-linejoin="round" transform="matrix(1 0 0 1 0.5 1.2670726)" d="M 532.59375 138.03126 L 534.46875 138.21876 L 532.78125 139.28126 L 531.875 139.09376 L 531.59375 138.12501 L 532.59375 138.03131 Z"/>
    <path id="path81258" fill="#3e73c5" fill-opacity="0.42857145" stroke="#000000" stroke-opacity="0.24675323" stroke-linecap="round" stroke-linejoin="round" transform="matrix(1 0 0 1 0.5 1.2670726)" d="M 531.15625 141.18751 L 531.78125 142.15626 L 531.96875 143.06251 L 530.96875 143.50001 L 530.0625 143.25001 L 529.4375 142.34376 Z"/>
    <path id="path81256" fill="#3e73c5" fill-opacity="0.42857145" stroke="#000000" stroke-opacity="0.24675323" stroke-linecap="round" stroke-linejoin="round" transform="matrix(1 0 0 1 0.5 1.2670726)" d="M 524.6875 148.09376 L 525.65625 148.46876 L 524.6875 148.90626 Z"/>
    <path id="path81254" fill="#3e73c5" fill-opacity="0.42857145" stroke="#000000" stroke-opacity="0.24675323" stroke-linecap="round" stroke-linejoin="round" transform="matrix(1 0 0 1 0.5 1.2670726)" d="M 533.75 164.40626 L 533.8437 164.46876 L 534.12495 165.37501 L 533.2187 165.28131 L 533.74995 164.40631 Z"/>
    <path id="path81252" fill="#3e73c5" fill-opacity="0.42857145" stroke="#000000" stroke-opacity="0.24675323" stroke-linecap="round" stroke-linejoin="round" transform="matrix(1 0 0 1 0.5 1.2670726)" d="M 533.8437 186.62501 L 533.6562 187.53126 L 532.93745 187.25001 Z"/>
    <path id="path81250" fill="#3e73c5" fill-opacity="0.42857145" stroke="#000000" stroke-opacity="0.24675323" stroke-linecap="round" stroke-linejoin="round" transform="matrix(1 0 0 1 0.5 1.2670726)" d="M 458.875 487.59376 C 458.99291 487.58676 459.11068 487.60866 459.21875 487.65626 L 459.4375 487.74996 L 460.21875 488.03121 C 460.29615 488.05061 460.37 488.08221 460.4375 488.12491 L 461.34375 488.84366 C 461.6397 489.06389 461.7337 489.45436 461.5625 489.78116 C 461.39131 490.10796 461.00583 490.27408 460.65625 490.15616 L 459.75 489.87501 C 459.6596 489.84941 459.5748 489.80701 459.5 489.75001 L 458.5 488.93751 C 458.25465 488.75157 458.13605 488.4215 458.21875 488.12501 C 458.30145 487.82852 458.56886 487.62586 458.875 487.59376 Z"/>
    <path id="path81248" fill="#3e73c5" fill-opacity="0.42857145" stroke="#000000" stroke-opacity="0.24675323" stroke-linecap="round" stroke-linejoin="round" transform="matrix(1 0 0 1 0.5 1.2670726)" d="M 509.71875 701.37501 L 509.65625 701.90626 L 510 703.78126 L 509.65625 704.59376 L 510.28125 704.25001 Z"/>
    <path id="path81246" fill="#3e73c5" fill-opacity="0.42857145" stroke="#000000" stroke-opacity="0.24675323" stroke-linecap="round" stroke-linejoin="round" transform="matrix(1 0 0 1 0.5 1.2670726)" d="M 509.65625 704.59376 L 509.375 704.78126 L 509.65625 704.68756 L 509.65625 704.59386 Z"/>
    <path id="path9979" fill="#8cce55" stroke="#0f380f" stroke-opacity="0.14509804" stroke-linecap="round" stroke-linejoin="round" transform="matrix(1 0 0 1 0.5 1.2670726)" d="M 463.75 68.5625 L 462.21875 68.8125 L 459.34375 69.625 L 460.25 70.53125 L 459.25 70.71875 L 458.34375 71.15625 L 455.375 71.4375 L 455.03125 71.53125 L 455.03125 71.875 L 452.15625 72.34375 L 451.25 73.21875 L 448.28125 73.0625 L 447.375 73.21875 L 446.375 73.78125 L 443.5 74.125 L 442.59375 75.03125 L 441.96875 76.03125 L 442.96875 76.375 L 441.96875 77.28125 L 441 77.71875 L 442.875 78.71875 L 443.875 78.90625 L 444.6875 79.8125 L 445.65625 80.34375 L 446.5625 80.53125 L 447.46875 80.25 L 448.46875 80.78125 L 449.34375 80.6875 L 448.375 81.4375 L 449.25 81.875 L 451.4375 81.6875 L 453.21875 80.875 L 455.03125 81.0625 L 455.03125 81.25 L 454.125 81.25 L 452.15625 82.3125 L 453.125 82.78125 L 454.125 82.78125 L 456 82.5 L 457 82.15625 L 456 83.03125 L 454.03125 83.59375 L 455.03125 84.03125 L 455.9375 84.125 L 458.8125 84.9375 L 460.6875 84.46875 L 461.21875 83.59375 L 462.21875 83.59375 L 462.59375 84.46875 L 466.53125 84.125 L 466.62495 84.09375 L 467.43745 83.84375 L 468.24995 82.9375 L 470.12495 82.3125 L 471.12495 83.03125 L 472.0312 83.21875 L 472.93745 84.125 L 473.03115 85.125 L 471.1249 85.125 L 471.0312 86 L 472.0312 86.65625 L 471.0312 86.5625 L 470.12495 85.90625 L 466.62495 85.59375 L 466.18745 85.5625 L 462.2187 85.75 L 459.3437 86.65625 L 460.3437 87.09375 L 463.2187 87.375 L 464.12495 87.1875 L 465.0937 87.1875 L 466.62495 87.4375 L 469.7812 87.90625 L 472.56245 87.4375 L 471.6562 87.90625 L 469.7812 88.15625 L 466.62495 87.625 L 465.0937 87.375 L 463.2187 87.71875 L 462.2187 87.71875 L 456.4687 87.09375 L 454.125 87 L 451.34375 87.4375 L 450.4375 87.90625 L 449.4375 88.15625 L 448.625 89.15625 L 449.53125 89.78125 L 450.53125 89.78125 L 451.4375 90.0625 L 450.53125 90.34375 L 451.4375 91.0625 L 452.40625 91.3125 L 453.40625 91.3125 L 456 89.53125 L 456.90625 89.53125 L 456 89.875 L 455.03125 90.78125 L 455.03125 91.6875 L 458.8125 92.5 L 460.78125 92.65625 L 461.875 92.65625 L 463.65625 92.21875 L 464.375 93.21875 L 463.3125 93.46875 L 462.3125 93.46875 L 461.40625 93.3125 L 460.5 93.5625 L 459.53125 94.28125 L 457.53125 94.75 L 457.375 95.71875 L 459.34375 96.375 L 461.21875 97.4375 L 462.21875 97.53125 L 462.59375 98.25 L 463.40625 98.25 L 466.625 98.875 L 469.875 99.40625 L 470.78125 99.15625 L 469.875 98.6875 L 468.875 97.96875 L 468.0625 97.09375 L 469.0625 96.4375 L 470.9375 97.8125 L 471.84375 97.96875 L 471.93745 97.09375 L 472.8437 96.28125 L 473.8437 96.4375 L 474.7187 96.375 L 475.62495 96.71875 L 474.7187 97.34375 L 474.625 98.25 L 475.625 98.6875 L 476.53125 98.6875 L 476.53125 97.71875 L 478.34375 97.875 L 478.6875 97.25 L 479.6875 97.4375 L 480.125 96.53125 L 481.03125 96.53125 L 481.3125 96 L 480.84375 95.1875 L 471.59375 81.0625 L 464.03125 69 L 463.75 68.5625 Z"/>
    <path id="path9977" fill="#8cce55" stroke="#0f380f" stroke-opacity="0.14509804" stroke-linecap="round" stroke-linejoin="round" transform="matrix(1 0 0 1 0.5 1.2670726)" d="M 444.6875 84.84375 L 443.6875 85.65625 L 445.65625 86.375 L 447.5625 86.1875 L 448.53125 85.46875 L 444.6875 84.84375 Z"/>
    <path id="path9975" fill="#8cce55" stroke="#0f380f" stroke-opacity="0.14509804" stroke-linecap="round" stroke-linejoin="round" transform="matrix(1 0 0 1 0.5 1.2670726)" d="M 449.25 84.84375 L 449.53125 85.1875 L 450.53125 85.75 L 453.3125 85.5625 L 454.21875 85.28125 L 451.25 84.84375 L 449.25 84.84375 Z"/>
    <path id="path9973" fill="#8cce55" stroke="#0f380f" stroke-opacity="0.14509804" stroke-linecap="round" stroke-linejoin="round" transform="matrix(1 0 0 1 0.5 1.2670726)" d="M 455.9375 93.21875 L 455.03125 93.40625 L 455.03125 93.65625 L 456 93.84375 L 457 93.75 L 455.9375 93.21875 Z"/>
    <path id="path9971" fill="#8cce55" stroke="#0f380f" stroke-opacity="0.14509804" stroke-linecap="round" stroke-linejoin="round" transform="matrix(1 0 0 1 0.5 1.2670726)" d="M 535.59375 139.25 C 535.45004 139.3017 535.30411 139.36268 535.15625 139.4375 C 535.30411 139.3625 535.45004 139.3017 535.59375 139.25 Z"/>
    <path id="path9905" fill="#8cce55" stroke="#0f380f" stroke-opacity="0.14509804" stroke-linecap="round" stroke-linejoin="round" transform="matrix(1 0 0 1 0.5 1.2670726)" d="M 479.0625 224.3125 L 479.6875 225.21875 L 480.40625 225.5 L 480.84375 225.03125 L 479.9375 224.3125 L 479.0625 224.3125 Z"/>
    <path id="path9903" fill="#8cce55" stroke="#0f380f" stroke-opacity="0.14509804" stroke-linecap="round" stroke-linejoin="round" transform="matrix(1 0 0 1 0.5 1.2670726)" d="M 479.40625 225.21875 L 478.5 225.84375 L 478.25 226.75 L 477.6875 227.65625 L 478.875 227.65625 L 478.875 227.9375 L 479.78125 228.375 L 479.21875 228.5625 L 479.12505 230.34375 L 479.31255 231.34375 L 480.31255 231.15625 L 481.2188 231.24995 L 480.4063 232.1562 L 480.6563 234.68745 L 480.12505 234.4062 L 479.2188 234.2187 L 478.87505 235.12495 L 479.8438 235.03125 L 480.5938 235.3125 L 481.4688 235.4062 L 482.18755 236.2812 L 483.0938 235.74995 L 483.81255 235.4062 L 484.7188 235.56245 L 484.5313 236.56245 L 483.62505 236.56245 L 482.56255 236.93745 L 482.65625 237.81245 L 483.625 238.2812 L 482.375 238.9062 L 481.75 239.81245 L 480.84375 240.62495 L 481.21875 240.87495 L 481.9375 241.5937 L 482.375 242.49995 L 483.28125 242.7812 L 483.28125 243.0312 L 484.09375 243.93745 L 484.00005 244.4062 L 484.18755 245.2812 L 483.81255 247.2812 L 483.37505 247.9062 L 483.37505 248.81245 L 482.4688 249.5312 L 482.2813 249.87495 L 483.37505 251.68745 L 482.4688 251.78115 L 482.0313 251.78115 L 482.75005 253.5624 L 483.56255 254.1249 L 484.43755 254.3749 L 485.43755 254.3749 L 484.3438 254.9374 L 484.3438 255.8124 L 485.25005 256.71865 L 485.81255 257.4374 L 486.68755 258.0624 L 486.9688 259.0624 L 486.68755 259.1561 L 485.00005 260.1561 L 485.3438 261.0311 L 484.7188 262.8436 L 483.7188 263.6561 L 482.9063 263.37485 L 481.25005 262.74985 C 481.00622 262.67185 480.893 262.64915 480.8438 262.65615 C 480.67835 262.67815 481.0756 263.00425 479.9688 262.84365 L 480.0313 262.81245 C 479.78743 262.77745 479.48905 262.74855 479.06255 262.6562 L 478.06255 262.93745 L 477.1563 262.93745 L 476.7188 262.74995 L 474.9063 262.74995 L 474.2813 261.8437 L 473.6563 261.49995 L 472.37505 261.0312 L 470.68755 259.3437 L 469.87505 258.87495 L 470.4063 259.7812 L 470.12505 260.68745 L 470.50005 261.0312 L 470.50005 261.2187 L 470.2188 261.49995 L 470.7813 262.4062 L 469.87505 262.56245 L 468.87505 261.8437 L 467.7188 261.0312 L 466.9063 261.0312 L 467.25005 261.8437 L 467.9063 262.74995 L 468.7813 263.4687 L 467.9063 263.6562 L 466.62505 264.0312 L 466.0938 264.18745 L 466.1875 265.0937 L 466.625 265.8437 L 466.7187 265.99995 L 466.625 266.06245 L 465.8125 266.5312 L 465.5625 267.43745 L 466.1875 268.3437 L 466.625 268.6562 L 466.90625 268.87495 L 466.625 269.7812 L 467.4375 270.2187 L 468.34375 270.49995 L 469.15625 271.4062 L 469.34375 271.56245 L 468.96875 272.4687 L 469.06245 273.4687 L 468.62495 274.37495 L 468.53125 275.62495 L 468.6875 275.71865 L 469.59375 275.4374 L 470.5 275 L 470.5 274.53125 L 471.3125 273.5625 L 472.21875 274.4375 L 471.75 274.8125 L 471.59375 276.625 L 471.75 277.34375 L 471.40625 278.21875 L 472.03125 279.125 L 472.5625 278.40625 L 473.28125 278.78125 L 474 279.65625 L 475 279.40625 L 475.625 279.65625 L 476.4375 278.6875 L 477.4375 278.875 L 478.34375 279.59375 L 478.96875 280.46875 L 479.78125 280.9375 L 479.59375 281.84375 L 480.125 282.71875 L 481.5625 281.65625 L 481.21875 281.03125 L 481.46875 280.125 L 482.09375 279.125 L 482.28125 278.9375 L 482.28125 278.0625 L 482.03125 276.25 L 482.28125 274.53125 L 483.1875 273.90625 L 483.625 273.09375 L 484.53125 273.375 L 485 274.28125 L 484.71875 275.15625 L 485.34375 275.96875 L 483.5625 276.15625 L 482.65625 276.875 L 482.90625 277.78125 L 483.90625 277.96875 L 484.4375 279.75 L 484 280.03125 L 490.64547 280.17397 L 491.03928 280.55502 L 491.04128 280.92634 L 491.20458 281.51901 L 491.70604 282.04687 L 491.85717 282.7202 L 492.14268 283.7578 L 492.36022 284.25692 L 492.53289 284.76804 L 492.71944 285.17739 L 493.46688 285.72434 L 492.99375 286.23236 L 492.63756 286.76855 L 493.02459 287.25813 L 492.74956 287.71876 L 492.53081 289.62501 L 492.78081 290.18751 L 492.87451 290.84376 L 493.18701 291.62501 L 494.99951 291.18751 L 496.78076 291.00001 L 498.65576 291.00001 L 500.46826 290.65626 L 501.37451 290.74996 L 501.81201 290.46871 L 502.43701 289.56246 L 503.34326 289.31246 L 504.06201 288.21871 L 504.96826 287.78121 L 505.87451 287.59371 L 506.49951 286.24996 L 507.40576 285.53121 L 507.56201 284.62496 L 509.37451 284.09371 L 510.28076 284.34371 L 512.06201 283.43746 L 512.96826 283.43746 L 514.35556 283.09383 L 514.35556 274.82183 L 512.82456 273.19283 L 512.82456 271.41883 L 514.35556 269.95083 L 514.83956 268.52783 L 513.49946 266.53126 L 511.62446 266.25001 L 510.71821 266.00001 L 509.81196 266.00001 L 508.93696 266.18751 L 509.81196 266.62501 L 510.71821 266.81251 L 509.81196 266.90621 L 507.12446 267.78121 L 506.21821 268.40621 L 505.68696 269.31246 L 504.78071 269.59371 L 503 270.5 L 502 270.4063 L 502 271.0313 L 500.46875 271.93755 L 499.46875 272.12505 L 500.375 271.8438 L 500.75 270.93755 L 499.84375 270.0313 L 498.84375 269.50005 L 497.03125 269.2188 L 497.3125 268.50005 L 498.3125 269.1563 L 499.21875 269.4063 L 500.09375 270.0313 L 501 270.31255 L 501 269.4063 L 501.375 268.87505 L 504.15625 268.4063 L 506.9375 267.1563 L 507.84375 267.1563 L 508.65625 266.25005 L 504.96875 267.25005 L 503.625 267.43755 L 503.78125 267.1563 L 504.78125 267.0626 L 506.59375 266.53135 L 507.5 266.43765 L 508.46875 266.00015 L 509.375 265.81265 L 510.28125 265.0939 L 512.0625 265.0939 L 513.0625 264.4689 L 512.0625 264.5626 L 512.625 264.3751 L 513.5 263.65635 L 510.8125 262.7501 L 509.90625 262.7501 L 508.9375 262.40635 L 507.125 262.21885 L 505.6875 260.40635 L 504.78125 260.59385 L 505.25 259.6876 L 504.34375 260.5001 L 502.4375 261.7501 L 501.625 262.65635 L 502.25 261.7501 L 503.15625 261.03135 L 503.24995 260.0626 L 502.3437 259.8751 L 502.25 258.96885 L 501.375 259.5001 L 500.90625 260.15635 L 500.03125 260.9376 L 500.5625 260.3126 L 501 259.4376 L 500.09375 259.59385 L 498.21875 261.03135 L 500.09375 257.8126 L 499.21875 258.71885 L 499.28125 257.8126 L 499.03125 256.90635 L 499.84375 256.0001 L 498.84375 256.3751 L 498.3125 257.2501 L 497.9375 256.3751 L 496.96875 256.1876 L 497.40625 255.5626 L 496.5 255.5626 L 495.59375 254.7501 L 494.625 254.3751 L 495.59375 254.21885 L 494.625 254.21885 L 494.34375 253.21885 L 492.90625 253.12515 L 492 252.5939 L 492.90625 252.8439 L 493.8125 252.5 L 492 251.21875 L 492.90625 250.78125 L 491.03125 250.5 L 492.46875 250.4375 L 490.65625 249.96875 L 490.46875 249.71875 L 489.84375 249.53125 L 489.87495 249.50005 L 490.18745 249.3438 L 489.93745 248.9688 L 491.7187 249.1563 L 490.81245 249.1563 L 490.2187 249.3438 L 490.3437 249.56255 L 490.4687 249.68755 L 490.4687 249.71875 L 492.62495 250.34375 L 493.62495 250.25005 L 492.81245 249.3438 L 493.7187 249.1563 L 494.24995 248.25005 L 495.1562 248.34375 L 495.1562 247.8125 L 494.5312 246.90625 L 492.7187 246.09375 L 492.5312 245.21875 L 491.6562 244.9375 L 490.74995 245.125 L 489.74995 244.65625 L 490.74995 244.65625 L 491.6562 244.40625 L 492.5312 243.5 L 491.6562 242.78125 L 491.0937 241.78125 L 490.12495 242.25 L 489.74995 241.25 L 490.6562 241.0625 L 489.74995 240.15625 L 487.4062 240.78125 L 486.5312 240.87495 L 487.31245 240.24995 L 488.2187 240.15625 L 489.2187 239.625 L 488.31245 239.5313 L 489.2187 238.9063 L 488.7812 238.00005 L 487.87495 238.18755 L 486.9687 238.09385 L 486.06245 238.3751 L 485.06245 238.90635 L 485.62495 238.0001 L 486.5312 237.9064 L 487.49995 237.4689 L 487.31245 236.56265 L 487.5937 235.6564 L 486.5937 235.7501 L 486.1562 234.84385 L 486.0625 233.96885 L 484.71875 234.3126 L 482.84375 234.2189 L 484.625 234.1252 L 485.625 233.5002 L 485.5313 232.59395 L 484.5313 233.0627 L 484.625 232.15645 L 483.71875 232.06275 L 483.09375 231.719 L 484 231.25 L 483.28125 230.28125 L 482.375 230.8125 L 482.75 229.90625 L 481.75 229.53125 L 482.09375 228.65625 L 482.09375 227.65625 L 480.59375 227.65625 L 480.3125 227.28125 L 479.40625 227.65625 L 479.0625 227.65625 L 480.65625 226.84375 L 480.40625 225.9375 L 479.5 225.9375 L 480.40625 225.59375 Z"/>
    <path id="path9901" fill="#8cce55" stroke="#0f380f" stroke-opacity="0.14509804" stroke-linecap="round" stroke-linejoin="round" transform="matrix(1 0 0 1 0.5 1.2670726)" d="M 482.28125 228.75 L 482.84375 229.625 L 482.65625 228.75 L 482.28125 228.75 Z"/>
    <path id="path9899" fill="#8cce55" stroke="#0f380f" stroke-opacity="0.14509804" stroke-linecap="round" stroke-linejoin="round" transform="matrix(1 0 0 1 0.5 1.2670726)" d="M 495.0625 248.625 L 494.15625 248.7187 L 493.8125 249.62495 L 494.71875 250.49995 L 494.96875 249.62495 L 494.0625 249.62495 L 494.96875 249.06245 L 495.06245 248.62495 Z"/>
    <path id="path9897" fill="#8cce55" stroke="#0f380f" stroke-opacity="0.14509804" stroke-linecap="round" stroke-linejoin="round" transform="matrix(1 0 0 1 0.5 1.2670726)" d="M 494.15625 250.96875 L 495.0625 251.6875 L 495.96875 251.6875 L 495.0625 251.5 L 494.15625 250.96875 Z"/>
    <path id="path9895" fill="#8cce55" stroke="#0f380f" stroke-opacity="0.14509804" stroke-linecap="round" stroke-linejoin="round" transform="matrix(1 0 0 1 0.5 1.2670726)" d="M 496.3125 253.46875 L 495.875 254.375 L 496.875 254.4687 L 496.5 253.56245 L 496.3125 253.46875 Z"/>
    <path id="path9893" fill="#8cce55" stroke="#0f380f" stroke-opacity="0.14509804" stroke-linecap="round" stroke-linejoin="round" transform="matrix(1 0 0 1 0.5 1.2670726)" d="M 510.71875 261.59375 L 509.8125 262.3125 L 510.71875 262.5625 L 510.90625 261.59375 L 510.71875 261.59375 Z"/>
    <path id="path9889" fill="#8cce55" stroke="#0f380f" stroke-opacity="0.14509804" stroke-linecap="round" stroke-linejoin="round" transform="matrix(1 0 0 1 0.5 1.2670726)" d="M 471.5 303.875 L 470.59375 304.0625 L 470.125 304.25 L 469.6875 304.25 L 469.40625 304.3437 L 469.34375 304.3437 L 468.4375 304.68745 L 466.90625 304.87495 L 466.625 304.68745 L 466 304.24995 L 464.1875 304.24995 L 463.75 304.4062 L 462.84375 304.68745 C 462.4089 306.06366 462.71883 306.73785 462.0625 307.31245 C 461.9797 307.38445 461.86732 307.4608 461.75 307.5312 C 461.7287 307.5442 461.7089 307.5504 461.6875 307.5624 C 461.43573 307.70559 461.13116 307.8486 460.6875 307.9999 C 460.34137 308.11789 459.9325 308.241 459.4375 308.3749 L 460.15625 308.9999 L 463.125 308.03115 L 464.5625 309.09365 L 464.5625 309.18735 L 465.28125 309.7186 L 465.28125 313.68735 L 465.37495 315.0311 L 465.46865 316.8436 L 465.1874 317.2811 L 466.09365 318.0936 L 466.6249 318.2186 L 466.9999 318.2811 L 467.0936 318.4686 L 466.9061 320.24985 L 467.24985 320.7811 L 467.7186 320.5311 L 467.9686 320.6248 L 467.9686 320.5936 L 468.24985 320.7811 L 468.5311 321.06235 L 469.4061 321.3436 L 470.31235 321.2499 L 471.31235 320.78115 L 472.2186 320.87485 L 472.74985 320.7186 L 472.65615 319.81235 L 473.5624 319.0936 L 473.1874 320.06235 L 473.7499 320.43735 L 474.71865 320.24985 L 477.4374 318.7186 L 479.21865 318.18735 L 479.84365 317.2811 L 479.93735 316.37485 L 479.4061 315.49985 L 480.6561 317.2811 L 481.56235 316.8436 L 481.56235 317.2811 L 478.87485 319.0936 L 479.31235 319.99985 L 480.31235 319.3436 L 481.2186 319.5311 L 482.0936 319.3436 L 483.99985 319.3436 L 485.81235 319.62485 L 484.81235 319.9061 L 483.9061 319.9061 L 482.0936 320.7811 L 482.37485 321.68735 L 482.0936 321.68735 L 482.0936 321.3436 L 481.2186 320.7811 L 481.1249 319.9061 L 480.21865 320.43735 L 479.21865 320.7186 L 475.6249 322.7811 L 474.71865 323.5936 L 475.6249 323.31235 L 474.71865 323.93735 L 474.5624 323.49985 L 473.65615 324.12485 L 472.84365 325.0311 L 473.7499 324.56235 L 473.03115 325.4686 L 472.7499 326.37485 L 472.8436 328.24985 L 473.4686 329.1561 L 473.6561 328.3436 L 475.43735 329.9686 L 476.3436 330.0623 L 476.7186 329.15605 L 477.5936 329.15605 L 478.06235 328.9998 L 478.5936 328.09355 L 479.49985 327.53105 L 479.93735 326.65605 L 480.8436 326.09355 L 481.37485 325.21855 L 481.56235 325.12485 L 481.8436 324.2186 L 482.74985 324.4061 L 483.37485 323.49985 L 483.0936 324.49985 L 484.0936 324.74985 L 484.99985 324.31235 L 484.62485 323.4061 L 485.24985 323.93735 L 486.1561 323.84365 L 486.5936 323.4999 L 487.49985 323.4062 L 490.31235 322.24995 L 492.0936 321.68745 L 493.7186 320.7812 L 494.62485 320.8749 L 496.4061 319.71865 L 495.5311 319.81235 L 494.7186 319.43735 L 495.5936 319.0936 L 495.06235 318.2811 L 496.06235 318.3748 L 496.9686 318.1873 L 497.8436 318.281 L 499.6561 317.906 L 501.37485 316.656 L 502.24985 316.281 L 502.18735 315.406 L 501.37485 314.781 L 500.4686 314.781 L 499.56235 314.2185 L 498.6561 315.12475 L 499.56235 314.656 L 499.56235 314.6872 L 498.74985 315.5622 L 497.7811 316.28095 L 498.6561 316.28095 L 499.56235 315.9372 L 498.6561 316.65595 L 498.0311 317.53095 L 498.0311 317.56215 L 497.0311 317.37465 L 496.1561 317.74965 L 496.1873 317.68715 L 496.1248 317.71835 L 496.84355 316.7496 L 496.87475 316.7496 L 497.656 316.28085 L 496.781 316.28085 L 497.656 315.5621 L 498.56225 315.21835 L 498.65595 315.12465 L 499.46845 314.2184 L 498.5622 314.7809 L 499.46845 312.9684 L 499.56215 312.06215 L 500.0309 311.06215 L 499.12465 310.7184 L 498.12465 310.7184 L 497.2184 311.43715 L 496.31215 313.24965 L 494.1559 315.8434 L 494.62465 317.6559 L 494.9684 318.18715 L 494.43715 317.74965 L 493.5309 318.0934 L 492.62465 317.56215 L 492.2809 316.6559 L 491.37465 317.37465 L 490.4684 317.81215 L 489.56215 317.81215 L 488.5934 318.0934 L 489.0309 317.4684 L 488.12465 317.18715 L 486.3434 317.0309 L 485.43715 316.6559 L 484.43715 316.93715 L 483.56215 316.2809 L 482.6559 315.93715 L 482.8434 315.6559 L 483.7184 315.12465 L 482.99965 314.8434 L 481.2184 314.68715 L 480.2184 314.2184 L 479.5934 312.43715 L 478.87465 311.43715 L 478.78095 310.5309 L 479.0622 309.62465 L 478.15595 309.56215 L 477.2497 309.81215 L 476.53095 309.62465 L 477.59345 308.99965 L 478.40595 308.0934 L 479.1247 306.2184 L 478.96845 305.31215 L 478.0622 305.12465 L 477.15595 305.31215 L 475.28095 306.49965 L 474.90595 305.68715 L 474.28095 304.7809 L 473.3747 304.5934 L 471.4997 303.87465 Z"/>
    <path id="path9883" fill="#8cce55" stroke="#0f380f" stroke-opacity="0.14509804" stroke-linecap="round" stroke-linejoin="round" transform="matrix(1 0 0 1 0.5 1.2670726)" d="M 482.03125 310.34375 L 480.9375 312.15625 L 481.84375 312.34375 L 482.28125 313.25 L 484.1875 313.875 L 484.2812 314.40625 L 485.1562 314.78125 L 486.06245 315.03125 L 487.06245 314.5 L 488.06245 315.03125 L 487.96875 315.9375 L 488.9375 316.125 L 489.84375 316.0313 L 489.93745 315.0313 L 490.31245 314.12505 L 492.0937 313.4063 L 491.18745 313.1563 L 490.4687 313.1563 L 486.7812 313.4063 L 484.99995 312.7813 L 484.0937 313.06255 L 483.0937 313.15625 L 483.37495 312.25 L 482.4687 311.53125 L 482.9062 310.625 L 482.0312 310.34375 Z"/>
    <path id="path9881" fill="#8cce55" stroke="#0f380f" stroke-opacity="0.14509804" stroke-linecap="round" stroke-linejoin="round" transform="matrix(1 0 0 1 0.5 1.2670726)" d="M 515.4375 312.9375 C 515.72419 313.06985 516.03849 313.15625 516.375 313.15625 C 516.59036 313.15625 516.80279 313.11885 517 313.06255 L 516.46875 313.06255 L 516.46875 312.93755 L 515.4375 312.93755 Z"/>
    <path id="path9879" fill="#8cce55" stroke="#0f380f" stroke-opacity="0.14509804" stroke-linecap="round" stroke-linejoin="round" transform="matrix(1 0 0 1 0.5 1.2670726)" d="M 469.875 322.875 L 469.59375 323.78125 L 470.0625 322.875 L 469.875 322.875 Z"/>
    <path id="path9877" fill="#8cce55" stroke="#0f380f" stroke-opacity="0.14509804" stroke-linecap="round" stroke-linejoin="round" transform="matrix(1 0 0 1 0.5 1.2670726)" d="M 479.4375 388.34375 C 478.195 388.34375 477.1875 389.35125 477.1875 390.59375 C 477.1875 391.83625 478.195 392.84375 479.4375 392.84375 C 480.68 392.84375 481.6875 391.83625 481.6875 390.59375 C 481.6875 389.35125 480.68 388.34375 479.4375 388.34375 Z"/>
    <path id="path9875" fill="#8cce55" stroke="#0f380f" stroke-opacity="0.14509804" stroke-linecap="round" stroke-linejoin="round" transform="matrix(1 0 0 1 0.5 1.2670726)" d="M 448.1875 452.09375 L 447.28125 452.375 L 446.9375 453 L 446.78125 453 L 447.03125 453.59375 L 447.09375 453.71875 L 447.09375 453.81245 L 447.09375 453.84365 L 447 454.75 L 446.9688 455.0625 L 447.1563 456.03125 L 446.93755 456.1875 L 446.4688 456.53125 L 446.4376 456.56245 L 446.4688 456.59365 L 446.68755 456.8124 L 446.9688 457.03115 L 447 457.06235 L 446.9688 457.15605 L 446.9688 457.18725 L 446.7188 457.87475 L 446.0938 458.906 L 446.9063 460.031 L 446.9063 460.3435 L 446.9375 461.06225 L 447.375 461.43725 L 447.8125 462.3435 L 448.71875 462.7185 L 449.96875 460.7185 L 449.96875 459.8435 L 450.53125 459.8435 L 451.4375 459.56225 L 452.3125 459.93725 L 454.21875 460.0935 L 455.03125 459.18725 L 455.5625 458.93725 L 457.28125 459.281 L 458.1875 459.031 L 459.6875 459.281 L 460.59375 459.8435 L 461.5 459.37475 L 461.6875 459.46845 L 462.59375 458.65595 L 462.21875 457.7497 L 460.4375 456.40595 L 459.53125 456.49965 L 458.625 456.31215 L 456.71875 455.4059 L 458 455.4059 L 458.90625 454.9684 L 456.1875 454.9684 L 455.03125 453.1559 L 454.5625 453.43715 L 453.59375 453.24965 L 452.6875 452.7184 L 451.78125 452.5309 L 450.875 452.0934 L 449.96875 452.0934 L 449.09375 452.37465 L 448.1875 452.0934 Z"/>
    <path id="path9873" fill="#8cce55" stroke="#0f380f" stroke-opacity="0.14509804" stroke-linecap="round" stroke-linejoin="round" transform="matrix(1 0 0 1 0.5 1.2670726)" d="M 468.4375 458.75 L 467.8125 459.65625 L 468.34375 461.4375 C 470.8875 461.1725 471.615 461.384 473.84375 461.375 L 474.28125 461.09375 L 475.1875 460.1875 L 474.71875 459.28125 L 473.84375 459.03125 L 468.4375 458.75 Z"/>
    <path id="path9871" fill="#8cce55" stroke="#0f380f" stroke-opacity="0.14509804" stroke-linecap="round" stroke-linejoin="round" transform="matrix(1 0 0 1 0.5 1.2670726)" d="M 460.78125 460.46875 L 461.6875 460.71875 L 461.6875 460.5625 L 460.78125 460.4688 Z"/>
    <path id="path9869" fill="#8cce55" stroke="#0f380f" stroke-opacity="0.14509804" stroke-linecap="round" stroke-linejoin="round" transform="matrix(1 0 0 1 0.5 1.2670726)" d="M 488.125 464.34375 L 489.03125 464.96875 L 489.12495 464.6875 L 488.12495 464.34375 Z"/>
    <path id="path9867" fill="#8cce55" stroke="#0f380f" stroke-opacity="0.14509804" stroke-linecap="round" stroke-linejoin="round" transform="matrix(1 0 0 1 0.5 1.2670726)" d="M 494.34375 468.46875 L 494.25005 469.375 L 494.34375 469.71875 L 495.25 469.1875 L 494.34375 468.46875 Z"/>
    <path id="path9865" fill="#8cce55" stroke="#0f380f" stroke-opacity="0.14509804" stroke-linecap="round" stroke-linejoin="round" transform="matrix(1 0 0 1 0.5 1.2670726)" d="M 494 469.375 L 493.09375 469.625 L 493.28125 470.53125 L 494.15625 470.375 L 494.15625 469.46875 L 494 469.375 Z"/>
    <path id="path9863" fill="#8cce55" stroke="#0f380f" stroke-opacity="0.14509804" stroke-linecap="round" stroke-linejoin="round" transform="matrix(1 0 0 1 0.5 1.2670726)" d="M 494.53125 472.6875 L 495.0625 474.5 L 495.59375 473.875 L 495.4375 472.96875 L 494.53125 472.6875 Z"/>
    <path id="path9861" fill="#8cce55" stroke="#0f380f" stroke-opacity="0.14509804" stroke-linecap="round" stroke-linejoin="round" transform="matrix(1 0 0 1 0.5 1.2670726)" d="M 495.6875 476.21875 L 496.5 478 L 497.40625 478.28125 L 497.49995 478.18755 L 497.2187 477.18755 L 496.5937 476.31255 L 495.68745 476.21885 Z"/>
    <path id="path9859" fill="#8cce55" stroke="#0f380f" stroke-opacity="0.14509804" stroke-linecap="round" stroke-linejoin="round" transform="matrix(1 0 0 1 0.5 1.2670726)" d="M 496.96875 479.71875 L 496.40625 480.71875 L 496.96875 481.59375 L 497.21875 480.71875 L 496.96875 479.71875 Z"/>
    <path id="path9857" fill="#8cce55" stroke="#0f380f" stroke-opacity="0.14509804" stroke-linecap="round" stroke-linejoin="round" transform="matrix(1 0 0 1 0.5 1.2670726)" d="M 503 483.78125 L 503.53125 484.65625 L 503.875 484.125 L 503 483.78125 Z"/>
    <path id="path9847" fill="#8cce55" stroke="#0f380f" stroke-opacity="0.14509804" stroke-linecap="round" stroke-linejoin="round" transform="matrix(1 0 0 1 0.5 1.2670726)" d="M 496.3125 495.1875 L 495.4375 495.2812 L 494.4375 496.0937 L 494.5312 496.99995 L 494.3437 497.9062 L 492.5312 498.7812 L 495.87495 498.7187 L 496.7812 497.9062 L 496.5937 496.0937 L 496.31245 495.18745 Z"/>
    <path id="path9845" fill="#8cce55" stroke="#0f380f" stroke-opacity="0.14509804" stroke-linecap="round" stroke-linejoin="round" d="M 503 508.17383 C 503.006 508.24223 502.9832 508.31007 502.9375 508.36133 C 502.9182 508.37463 502.8972 508.38513 502.875 508.39253 L 502.28125 508.83003 L 502.25005 508.86123 L 502.06255 509.23623 C 502.05355 509.24753 502.04265 509.25803 502.03135 509.26743 L 501.7501 509.54868 C 501.7308 509.56198 501.7098 509.57248 501.6876 509.57988 L 500.84385 510.07988 L 500.81265 510.11108 L 500.50015 510.45483 C 500.48085 510.46813 500.45985 510.47863 500.43765 510.48603 L 500.25015 510.57973 L 499.43765 511.04848 L 499.37515 511.11098 L 498.8439 511.79848 L 499.3439 512.54848 C 499.3572 512.56778 499.3677 512.58878 499.3751 512.61098 L 499.59385 513.32973 L 500.28135 513.26723 C 500.30215 513.26423 500.32305 513.26423 500.34385 513.26723 C 500.37685 513.27123 500.40885 513.28203 500.43755 513.29843 L 500.7188 513.48593 C 500.8083 513.54903 500.8463 513.66302 500.8125 513.76718 C 500.81315 513.77758 500.81315 513.78798 500.8125 513.79838 L 500.34375 514.70463 C 500.33675 514.72683 500.32565 514.74783 500.31255 514.76713 C 500.28365 514.78373 500.25185 514.79443 500.21885 514.79833 L 499.4376 515.17333 C 499.4272 515.17398 499.4168 515.17398 499.4064 515.17333 L 498.5314 515.54833 C 498.5106 515.55133 498.4897 515.55133 498.4689 515.54833 L 497.56265 515.73583 L 496.7814 515.82953 L 496.7189 515.89203 L 496.87515 516.70453 L 497.06265 517.61078 C 497.06865 517.67918 497.04585 517.74702 497.00015 517.79828 C 496.99115 517.80958 496.98025 517.82018 496.96895 517.82948 L 496.09395 518.70448 L 496.09395 518.73568 L 495.78145 519.07943 L 496.1877 519.64193 L 497.0002 520.54818 L 497.78145 521.51693 L 497.81265 521.54813 L 498.5939 522.36063 C 498.6161 522.36763 498.6371 522.37673 498.6564 522.38993 L 498.6876 522.42123 C 498.6976 522.43123 498.7109 522.44153 498.7188 522.45243 L 499.3438 523.35869 C 499.3571 523.37799 499.3676 523.39899 499.375 523.42119 C 499.3856 523.46219 499.3856 523.50519 499.375 523.54619 C 499.378 523.56699 499.378 523.58789 499.375 523.60869 L 498.90625 524.51493 C 498.88405 524.55403 498.85165 524.58653 498.81255 524.60873 L 497.9688 525.04623 L 497.4688 525.85873 C 497.4437 525.91423 497.3993 525.95863 497.3438 525.98373 C 497.323 525.98673 497.3021 525.98673 497.2813 525.98373 L 496.5313 526.07743 L 495.68755 526.38993 L 495.62505 526.42123 L 494.7188 527.20247 C 494.6755 527.24077 494.6203 527.26277 494.56255 527.26497 L 493.68755 527.26497 L 493.65635 527.26497 L 492.8751 527.67123 C 492.8558 527.68453 492.8348 527.69513 492.8126 527.70243 L 491.9376 527.95243 C 491.8869 527.96913 491.8321 527.96913 491.78135 527.95243 L 490.90635 527.63993 L 490.1251 528.26689 C 490.1161 528.27819 490.1052 528.28879 490.0939 528.29809 C 490.065 528.31469 490.0332 528.32539 490.0002 528.32929 C 489.9898 528.32994 489.9794 528.32994 489.969 528.32929 L 489.31275 528.32929 L 489.31275 529.89179 C 489.31075 529.94949 489.28855 530.00474 489.25025 530.04804 C 489.24125 530.05934 489.23035 530.06994 489.21905 530.07924 C 489.19015 530.09584 489.15835 530.10654 489.12535 530.11044 L 488.25035 530.39169 C 488.21935 530.39769 488.18745 530.39769 488.15665 530.39169 C 488.08345 530.38969 488.0149 530.35519 487.96915 530.29799 L 487.1879 529.36049 L 487.1567 529.32929 L 486.4067 528.64179 L 485.56295 529.01679 C 485.55395 529.02809 485.54305 529.03869 485.53175 529.04799 C 485.49075 529.05859 485.44775 529.05859 485.40675 529.04799 C 485.39635 529.04864 485.38595 529.04864 485.37555 529.04799 L 484.5943 528.70424 L 484.5631 528.70424 L 483.6881 528.79794 C 483.6551 528.79394 483.6231 528.78324 483.5944 528.76674 C 483.5722 528.75974 483.5512 528.74874 483.5319 528.73554 C 483.5206 528.72654 483.5101 528.71564 483.5007 528.70434 L 482.59445 527.92309 L 481.8132 527.70434 L 481.782 527.70434 L 481.00075 527.79804 C 480.93235 527.80404 480.86451 527.78124 480.81325 527.73554 L 480.56325 527.54804 L 480.50075 528.01679 L 481.18825 528.76679 L 482.0945 529.29804 C 482.1383 529.32864 482.1713 529.37244 482.1882 529.42304 L 482.6257 530.29804 C 482.639 530.31734 482.6495 530.33834 482.6569 530.36054 C 482.6629 530.39154 482.6629 530.42344 482.6569 530.45424 L 482.5632 531.32924 L 482.5632 531.36044 L 482.5632 532.11044 L 483.15695 532.98544 C 483.16825 532.99444 483.17875 533.00534 483.18815 533.01664 L 483.62565 534.01664 C 483.64235 534.06734 483.64235 534.12214 483.62565 534.17289 L 483.43815 534.89164 L 484.06315 535.20414 L 485.00065 535.11044 C 485.01105 535.10979 485.02145 535.10979 485.03185 535.11044 L 485.9381 535.20414 C 485.9849 535.21314 486.0282 535.23434 486.0631 535.26664 C 486.0744 535.27564 486.0849 535.28654 486.0943 535.29784 C 486.1056 535.30684 486.1161 535.31774 486.1255 535.32904 C 486.1388 535.34834 486.1493 535.36934 486.1567 535.39154 L 486.43795 536.29779 C 486.44095 536.31859 486.44095 536.33949 486.43795 536.36029 C 486.43395 536.39329 486.42325 536.42529 486.40675 536.45399 C 486.39975 536.47619 486.38865 536.49719 486.37555 536.51649 C 486.36655 536.52779 486.35565 536.53839 486.34435 536.54769 C 486.33535 536.55899 486.32445 536.56959 486.31315 536.57889 L 485.43815 537.11014 L 485.40695 537.11014 L 484.53195 537.73514 C 484.51265 537.74844 484.49165 537.75904 484.46945 537.76634 C 484.45015 537.77964 484.42915 537.78824 484.40695 537.79564 L 483.65695 537.85814 L 483.28195 538.57688 L 483.25075 538.63938 L 483.00075 539.48314 C 482.99175 539.52994 482.97055 539.57324 482.93825 539.60814 L 482.032 540.32688 C 482.023 540.33818 482.0121 540.34868 482.0008 540.35818 C 481.9719 540.37478 481.9401 540.38538 481.9071 540.38938 C 481.8863 540.39238 481.8654 540.39238 481.8446 540.38938 L 481.0321 540.29568 L 480.2196 541.04568 C 480.1935 541.07338 480.1614 541.09478 480.1259 541.10818 L 479.2509 541.35818 L 478.90715 541.48318 L 478.87595 541.51438 L 478.0947 542.38938 C 478.0754 542.40268 478.0544 542.41328 478.0322 542.42068 L 477.2197 542.88942 L 476.68845 543.76442 C 476.66335 543.81992 476.61895 543.86432 476.56345 543.88942 C 476.52245 543.90002 476.47945 543.90002 476.43845 543.88942 C 476.40545 543.88542 476.37345 543.87472 476.34475 543.85822 C 476.32255 543.85122 476.30155 543.84012 476.28225 543.82692 C 476.24395 543.78362 476.22185 543.72842 476.21975 543.67068 L 476.12605 542.88942 L 475.4073 542.42068 C 474.695 542.90491 474.15256 543.26098 473.75105 543.45192 C 473.31748 543.65811 472.93095 543.69732 472.5948 543.54572 C 472.25865 543.39412 472.0007 543.11851 471.5948 542.73322 C 471.1956 542.35429 470.66135 541.84943 469.87605 541.26446 C 469.86345 541.25746 469.85585 541.24246 469.84485 541.23326 C 469.81875 541.21846 469.80145 541.19356 469.78235 541.17076 C 469.77435 541.15916 469.75695 541.15206 469.75115 541.13946 C 469.74915 541.12916 469.75181 541.12056 469.75115 541.11016 L 469.4699 540.20391 L 469.2824 539.29766 L 469.3136 539.29766 L 469.03235 538.45391 L 469.03235 538.42271 L 468.59485 537.54771 C 468.58155 537.52841 468.57105 537.50741 468.56365 537.48521 C 468.56297 537.44151 468.57385 537.39841 468.59485 537.36021 C 468.60185 537.33801 468.61295 537.31701 468.62605 537.29771 L 468.25105 536.57896 C 468.23775 536.55966 468.22725 536.53866 468.21985 536.51646 C 468.21685 536.49566 468.21685 536.47476 468.21985 536.45396 L 468.21985 535.67271 L 467.40735 535.01646 C 467.39695 535.01711 467.38655 535.01711 467.37615 535.01646 L 467.12615 534.73521 L 467.12615 537.04771 L 467.03245 537.04771 L 466.21995 537.95396 L 465.34495 538.67271 L 464.4387 538.14146 L 463.53245 538.23516 L 463.71995 538.48516 L 462.8137 538.76641 L 458.40745 538.76641 L 457.5012 538.57891 L 456.2512 538.86016 L 456.2512 541.82891 L 458.40745 541.92071 L 459.3137 542.63945 L 459.4074 543.35821 L 459.2199 543.88945 L 458.31365 543.51445 L 457.50115 543.60825 L 455.5324 544.07699 L 455.25115 546.67075 L 455.25115 546.76445 L 455.5324 547.85821 L 457.31365 549.10821 L 457.40735 550.01445 L 457.78235 551.07695 L 458.1261 551.54571 L 458.1261 551.79571 L 458.40735 552.79571 L 458.1261 553.32695 L 458.0324 553.88945 L 457.50115 556.85821 L 456.9699 559.88945 L 456.9699 560.07695 L 456.43865 563.13945 L 455.7824 566.20195 L 455.7824 566.29575 L 455.6887 566.38945 L 455.6887 566.73321 L 455.53245 566.82691 L 455.34495 566.82691 L 454.6262 566.92071 C 455.67671 568.60929 456.71735 570.31036 457.7512 572.01445 C 457.7633 572.03445 457.7704 572.05795 457.7824 572.07695 C 458.80412 573.76123 459.82503 575.45266 460.8449 577.13945 C 460.8762 577.19145 460.9074 577.24391 460.9386 577.29571 C 462.97121 580.65658 465.01481 584.0015 467.1261 587.29571 L 467.1261 595.51445 L 466.3136 596.17071 L 466.15735 596.54571 L 465.78235 596.45191 L 464.8761 596.35821 L 463.90735 597.17071 L 463.0011 597.98321 L 462.09485 598.42071 L 461.3761 597.98321 L 461.1886 597.88941 L 460.1886 597.98321 L 459.40735 597.79571 L 458.40735 597.60821 L 457.5011 597.70191 L 458.21985 598.95191 L 460.1886 602.10817 L 461.65735 604.98317 L 461.3761 605.79567 L 460.46985 606.60817 L 460.37615 607.51441 L 460.37615 609.76441 L 459.8449 610.67067 L 460.18865 611.54567 L 460.6574 612.35817 L 460.12615 613.26637 L 460.03245 614.07887 L 459.1262 614.79762 L 458.5012 615.89137 L 458.5012 616.76637 L 459.1262 617.48512 L 459.2199 618.23512 L 458.5949 619.11012 L 458.5012 619.29762 L 459.3762 620.01637 L 459.4074 620.01637 L 460.12615 620.92262 L 461.00115 621.26637 L 460.75115 622.26637 L 460.84485 622.61012 L 461.8136 622.51642 L 461.8136 622.54762 L 461.28235 623.51637 L 460.5636 623.61007 L 460.4699 623.70377 L 460.8449 624.32877 L 460.8137 624.32877 L 460.03245 624.23507 L 460.03245 624.32877 L 460.1887 624.61002 L 460.1262 624.70372 L 459.21995 625.42247 L 458.40745 626.32872 L 457.15745 627.67247 L 457.8762 628.20372 L 457.8762 628.73497 L 457.5012 629.01622 L 456.2512 629.64122 L 456.4387 630.64122 L 457.36253 632.83262 L 458.61253 633.24473 L 459.04222 637.60411 L 461.61448 639.81309 C 461.12844 640.18669 460.60911 640.82953 460.35862 641.32091 L 460.92308 642.07872 L 459.968 642.79747 L 460.0598 644.37169 L 461.33519 645.68419 L 461.14574 647.08262 L 462.60277 648.61387 L 464.19848 654.86973 L 464.13598 656.14122 L 467.33324 656.27012 L 468.21801 657.30528 L 468.31371 658.79942 L 469.37621 655.20567 L 468.56371 654.39317 L 468.84496 653.86192 L 470.56371 652.14317 L 470.62621 651.51817 L 472.43871 650.98692 L 473.06371 649.36192 L 474.15746 649.98692 L 475.06371 650.79942 L 475.93871 650.89312 L 475.93871 650.79942 L 477.84496 650.89312 L 477.93866 650.89312 L 478.75116 650.79942 L 480.28241 651.23692 L 481.25116 652.95567 L 481.43866 653.86192 L 481.81366 654.67442 L 482.34491 652.86192 L 482.59491 652.51817 L 482.78241 652.04942 L 483.25116 651.14317 L 484.21991 650.42442 L 484.68866 650.61192 L 484.78236 650.51822 L 488.90736 650.36197 L 489.62611 651.51822 L 489.90736 651.95572 L 490.81361 652.61197 L 491.06361 652.67447 L 491.43861 652.86197 L 491.68861 653.86197 L 492.50111 654.76627 L 492.96986 655.57877 L 493.84486 656.45377 L 495.75111 657.54752 L 496.65736 658.17252 L 497.28236 659.26627 L 498.28236 659.51627 L 500.34486 660.23502 L 500.43856 660.23502 L 501.87606 660.32872 L 503.56356 661.42247 L 505.28231 662.76622 L 506.28231 663.20372 L 507.34481 663.92247 L 509.15731 664.57872 L 509.50106 665.01622 L 510.50106 665.10992 L 511.40731 665.45367 L 512.40731 666.26617 L 512.46981 666.45367 L 512.65731 666.54737 L 513.21981 667.45362 C 512.81931 668.06789 512.41848 668.64777 512.03231 669.23487 L 511.59481 670.14112 L 511.21981 670.42237 C 510.96126 670.78234 510.69384 671.13547 510.40731 671.48487 L 510.31361 672.29737 L 510.31361 673.01612 L 509.50111 674.45362 L 508.06361 675.89112 L 508.34486 676.54737 L 508.78236 676.45367 L 511.68861 676.45367 L 514.37611 677.17242 L 515.53236 677.32867 L 517.43861 677.26617 L 517.96986 677.26617 L 518.87611 677.70367 L 519.68861 676.60992 L 520.59486 676.60992 L 521.40736 677.17242 L 521.84486 676.89117 L 522.28236 675.98492 L 523.00111 675.01617 L 523.90736 674.73492 L 524.09486 674.82862 L 525.09486 673.92237 L 525.96986 673.29737 L 526.34486 672.29737 L 526.62611 671.23487 L 526.87611 669.07862 L 526.68861 668.35987 L 526.87611 667.98487 L 526.87611 667.17237 L 527.40736 666.26612 L 527.59486 665.10987 L 528.50111 661.95362 L 528.31361 661.42237 L 528.40731 660.51612 C 530.05357 659.46609 529.24731 658.72232 530.03231 657.26612 L 530.65731 657.01612 L 531.03231 656.64112 L 531.12601 656.45362 L 531.12601 656.39112 L 531.37601 655.29737 L 531.65726 654.67237 L 533.62601 653.85987 L 534.34476 652.95362 L 535.25101 652.23487 L 536.59476 651.39112 L 537.12601 651.07862 L 537.21971 650.89112 L 538.31346 649.35987 L 538.31346 649.26617 L 538.59471 648.35992 L 539.03221 648.01617 L 539.65721 647.10992 L 539.56351 646.48492 L 540.37601 645.29742 L 540.75101 644.85992 L 540.75101 644.48492 L 541.09476 643.51617 L 541.90726 642.60992 L 542.90726 642.17242 L 543.62601 641.17242 L 543.53231 640.70367 L 543.53231 639.10992 L 543.81356 638.20367 L 543.43856 637.57867 L 542.43856 637.20367 L 541.56356 636.67242 L 540.46981 636.48492 L 536.78231 634.51617 L 536.59481 634.51617 L 536.40731 634.51617 L 534.96981 634.42247 L 534.81356 634.23497 L 535.34481 633.32872 L 534.34481 632.98497 L 534.09481 632.07872 L 534.09481 631.17247 L 533.18856 629.39122 L 533.28226 628.39122 L 533.43851 627.95372 L 533.62601 626.95372 L 534.09476 626.04747 L 535.15726 625.14122 L 535.87601 624.23497 L 535.87601 622.89122 L 536.59476 622.29747 L 537.50101 621.54747 L 537.78226 621.10997 L 537.78226 621.01627 L 537.87596 621.01627 L 538.84471 620.92257 L 539.75096 620.29757 L 539.75096 620.11007 L 540.56346 618.14132 L 541.09471 617.23507 L 541.62596 616.76632 L 542.53221 616.76632 L 543.15721 616.32882 L 543.34471 615.79757 L 543.71971 614.45382 L 543.71971 613.54757 L 543.96971 612.73507 L 544.34471 612.45382 L 544.34471 610.67257 L 544.59471 610.48507 L 545.50096 608.67257 L 545.96971 606.61007 L 545.40721 606.42257 L 545.25096 605.45382 L 545.28216 604.95382 C 545.23826 604.44101 545.19656 603.93047 545.15716 603.42257 L 545.06346 603.11007 L 545.09466 602.76632 C 545.08666 602.65291 545.09766 602.53747 545.09466 602.42257 C 545.08566 602.29836 545.07236 602.17177 545.06346 602.04757 L 545.06346 602.01637 L 544.87596 601.48512 L 544.96966 601.04762 C 544.93596 600.5919 544.91126 600.13172 544.87596 599.67262 L 545.40721 598.32887 L 545.40721 596.36012 L 545.96971 595.45387 L 546.84471 593.29762 L 547.11619 592.5652 L 517.84471 590.76246 L 516.80565 590.52809 L 516.23729 590.52809 L 515.40916 590.03004 L 514.88963 590.02604 L 514.77049 589.20573 L 513.70213 588.69987 L 513.58494 588.26432 L 512.55369 587.81706 L 512.04588 587.08854 L 511.89158 586.38932 L 511.99901 585.82487 L 512.04001 585.07487 L 511.53611 584.82878 L 511.17087 584.13347 L 511.14747 583.44011 L 510.74122 582.5905 L 510.35451 581.73308 L 509.81544 581.278 L 509.5088 579.98112 L 508.79591 579.53581 L 508.45021 578.73308 L 508.21779 578.06706 L 508.80958 577.62175 L 517.87404 558.07292 L 518.38576 557.52604 L 517.55568 557.09245 L 516.49318 557.21159 L 516.42478 556.58464 L 515.62986 556.39128 L 514.97947 556.15104 L 514.82712 555.44597 L 514.31345 555.35227 L 513.88767 554.85031 L 513.05173 554.74289 L 512.35251 554.45383 L 511.82126 554.17453 L 511.02439 553.6257 L 510.34275 553.33859 L 509.64548 552.72727 L 509.12204 552.20383 L 508.51657 551.85813 L 508.46967 551.02219 L 507.80365 550.52414 L 507.19428 550.22727 L 507.0517 549.07297 L 506.39936 548.86398 L 505.88178 540.89719 L 506.63569 541.44797 L 508.04194 541.02219 L 508.00874 540.36398 L 512.80171 539.03586 L 513.80757 537.88156 L 517.49898 538.07883 L 518.24116 537.75461 L 517.25093 537.42258 L 516.34468 535.98508 L 515.37593 534.07883 L 514.81343 533.64133 L 514.81343 532.73508 L 514.28218 531.20383 L 512.84468 531.20383 L 512.46968 530.20383 L 511.12593 528.42258 L 510.87593 527.51633 C 511.13438 527.18708 511.28813 526.87949 511.40718 526.57883 L 511.68843 525.20383 C 511.70383 525.06718 511.72623 524.92067 511.75093 524.79758 C 511.86991 524.16863 512.2285 523.73467 513.46968 523.54758 L 514.18843 523.45388 L 514.46968 523.45388 L 514.81343 522.54763 L 514.71973 522.39138 L 514.56348 521.48513 L 514.65718 521.29763 L 515.00093 520.39138 L 515.00093 518.61013 L 514.28218 517.70388 L 513.37593 517.70388 L 512.46968 516.45388 L 511.21968 515.26638 L 510.31343 515.17268 L 509.87593 514.82893 L 509.15718 514.92263 L 508.62593 515.79763 L 508.34468 516.98513 L 508.00093 517.17263 L 508.34468 516.17263 L 508.34468 515.26638 L 508.78218 514.36013 L 508.96968 513.64138 L 508.96968 512.92263 L 508.43843 512.01638 C 507.46469 510.71508 505.27968 508.55508 503.56343 508.32888 L 504.46968 508.98513 L 503 508.17383 Z"/>
    <path id="path9835" fill="#8cce55" stroke="#0f380f" stroke-opacity="0.14509804" stroke-linecap="round" stroke-linejoin="round" transform="matrix(1 0 0 1 0.5 1.2670726)" d="M 491.65625 736.5625 L 492.625 737.28125 L 492.625 736.65625 L 491.65625 736.56255 Z"/>
    <path id="path9833" fill="#8cce55" stroke="#0f380f" stroke-opacity="0.14509804" stroke-linecap="round" stroke-linejoin="round" transform="matrix(1 0 0 1 0.5 1.2670726)" d="M 484.59375 756.25 C 484.54775 756.41603 484.45721 756.56047 484.375 756.6875 C 484.4635 756.55625 484.54548 756.42432 484.59375 756.25 Z"/>
</svg>
