<svg width="1671.094" height="856.39252" viewBox="0 0 1671.094 856.39252" xmlns="http://www.w3.org/2000/svg" xmlns:usvg="https://github.com/RazrFalcon/usvg" usvg:version="0.8.0">
    <defs/>
    <path id="path5247-2" fill="#3e73c5" fill-opacity="0.42857145" stroke="#000000" stroke-opacity="0.24675323" stroke-linecap="round" stroke-linejoin="round" transform="matrix(1 0 0 1 0.5 1.2670726)" d="M 188.55264 -0.75978262 L 188.55264 148.64652 L 199.80264 114.27152 L 209.33389 95.490217 L 229.24014 84.021467 L 258.02139 72.490217 L 258.02139 -0.75978262 L 188.55264 -0.75978262 L 188.55264 -0.75978262 Z M 125.92764 154.92772 L 125.92764 206.58402 L 125.92764 215.39652 L 125.92764 220.89652 C 125.94314 221.10582 125.93564 221.35832 125.92764 221.64652 C 125.92064 221.93482 125.90494 222.25472 125.89644 222.58402 C 125.89552 222.63802 125.89704 222.68532 125.89644 222.74022 C 125.89244 223.12492 125.90144 223.51982 125.92764 223.89652 C 125.94074 224.07632 125.95764 224.26002 125.99014 224.42772 C 126.01634 224.59662 126.07124 224.74622 126.11514 224.89652 C 126.12114 224.91552 126.10914 224.94052 126.11514 224.95852 C 126.16234 225.10652 126.23335 225.24292 126.30264 225.36472 C 126.31474 225.38672 126.32104 225.40672 126.33384 225.42672 C 126.40344 225.53832 126.48956 225.62862 126.58384 225.70802 C 126.66044 225.77202 126.73957 225.82372 126.83384 225.86422 C 126.89304 225.88922 126.95459 225.91122 127.02134 225.92622 C 127.14281 225.95122 127.27757 225.96922 127.42759 225.95722 L 127.52129 225.95722 C 127.56259 225.94722 127.60589 225.93222 127.64629 225.92622 C 127.76977 225.90422 127.88008 225.88022 128.02129 225.83222 C 128.20942 225.76922 128.4241 225.69462 128.64629 225.58222 L 130.61504 226.30102 L 130.95879 226.11352 L 131.95879 225.39472 L 132.95879 225.30072 L 133.86504 225.20672 L 134.83379 225.76922 L 134.49004 226.64422 L 135.02129 227.64422 L 135.74004 227.92552 L 136.64629 228.26922 L 136.99004 229.26922 L 137.89629 229.89422 L 138.89629 230.70672 L 139.80254 231.42552 L 139.95879 231.51952 L 140.77129 232.14452 L 141.77129 232.95702 L 142.05254 233.86322 L 142.86504 234.83202 L 143.74004 234.30072 L 144.74004 233.76952 L 145.64629 233.39452 L 146.64629 233.23822 L 146.99004 232.23822 L 147.70879 231.33202 L 147.52129 230.42572 L 148.42754 230.08202 L 149.33379 229.98802 L 150.39629 229.51922 L 151.39629 229.08172 L 152.30254 229.61302 L 153.30254 230.26922 L 153.74004 230.80052 L 153.55254 231.76922 L 154.36504 232.67552 L 155.36504 233.30052 L 156.27129 233.67552 L 156.61504 234.58172 L 157.24004 235.48802 L 158.24004 235.92552 L 159.24004 236.36302 L 160.05254 237.45672 L 160.20879 237.64422 L 161.20879 238.51922 L 161.30249 239.33172 L 162.20874 240.14422 L 162.64624 241.14422 L 163.45874 242.05052 L 163.98999 242.95672 L 165.27124 244.73802 L 166.08374 245.64422 L 166.61499 246.64422 L 166.52129 247.51922 L 167.52129 247.98802 L 167.33379 248.95672 L 168.30254 249.33172 L 168.49004 250.23802 L 169.20879 250.58172 L 170.20879 250.95672 L 171.11504 251.39422 L 172.08379 251.95672 L 172.99004 252.11302 L 173.99004 252.73802 L 174.89629 253.30052 L 175.77129 253.92552 L 176.77129 254.20672 L 176.86499 255.14422 L 176.95869 255.08222 L 176.42744 256.08222 L 176.95869 258.86352 L 176.95869 259.23852 L 176.95869 260.48852 L 177.30244 260.14472 L 177.77119 259.14472 L 177.95869 257.33222 L 178.58369 258.23852 L 178.11494 259.23852 L 177.39619 260.14472 L 177.58369 260.61352 L 177.14619 261.17602 L 176.95869 261.20702 L 176.52119 262.01952 L 173.89619 263.26952 L 172.08369 262.55072 L 167.08369 264.83202 L 162.36494 264.26952 L 157.70869 265.80072 L 169.39619 280.73822 L 188.08369 294.64452 L 188.55244 294.83202 L 188.55244 294.98822 L 188.55244 649.05082 L 163.37175 649.05082 L 163.372 668.80082 L 188.552 668.80072 L 188.55244 854.61322 L 258.02119 854.61322 L 258.02119 432.20702 L 237.14619 432.11302 L 237.14619 409.80052 L 246.14619 409.80052 L 250.20869 412.30052 L 258.02119 412.26952 L 258.02119 409.83202 L 258.02119 404.08202 L 257.77119 403.76952 L 256.95869 402.23822 L 256.86499 401.23822 L 255.33374 398.55072 L 255.52124 396.64452 L 255.42754 396.20702 L 254.52129 395.73822 L 253.61504 395.64422 L 252.80254 395.30052 L 252.55254 394.39422 L 251.55254 393.95672 L 250.64629 394.58172 L 249.74004 394.20672 L 246.77129 392.51922 L 246.61504 391.14422 L 246.61504 391.08222 L 246.33379 390.61352 L 246.42749 390.33222 L 246.61499 389.89472 L 246.77124 389.55102 L 246.86494 389.45702 L 247.23994 389.45702 L 247.33364 389.36302 L 247.77114 388.36302 L 247.77114 388.26902 L 248.23989 388.17502 L 248.58364 388.17502 L 248.95864 387.36252 L 248.77114 386.73752 L 247.86489 386.30002 L 247.95859 386.11252 L 247.77109 385.11252 L 248.39609 384.23752 L 248.58359 383.67502 L 248.86484 383.05002 L 248.77114 382.14372 L 248.77114 381.80002 L 249.67739 380.89372 L 250.48989 379.98752 L 249.39614 378.83122 L 248.95864 377.92502 L 248.86494 377.83102 L 248.86494 377.73702 L 248.48994 377.39322 L 248.23994 376.48702 L 248.23994 376.39302 L 248.39619 374.61172 L 248.14619 374.14302 L 248.14619 373.14302 L 247.67744 371.08052 L 247.67744 370.73672 L 248.58369 370.26802 L 249.58369 370.45552 L 250.48994 370.89302 L 250.92744 370.01802 L 250.92744 346.89302 L 250.92744 338.61172 L 237.14619 338.61172 L 237.14619 335.79922 L 232.02119 335.79922 L 231.67744 334.83052 L 231.58374 332.29922 L 231.58374 326.54922 L 232.30249 325.36172 L 233.20874 324.92422 L 234.45874 324.92422 L 235.61499 325.64302 L 236.27124 325.64302 L 236.27124 325.26802 L 236.52124 324.29922 L 236.89624 323.48672 L 237.70874 322.58052 L 237.86499 321.67422 L 237.95869 321.42422 L 238.58369 320.61172 L 238.77119 319.61172 L 239.30244 318.70552 L 239.77119 318.08052 L 239.14619 317.17422 L 238.24014 316.73612 L 239.14639 315.82992 L 239.77139 316.01742 L 240.49014 316.92362 L 240.58384 317.79862 L 240.49014 318.45492 L 240.83389 319.32992 L 242.20889 319.07992 L 243.08389 319.07992 L 244.08389 319.42362 L 245.52139 318.36112 L 246.42764 318.70492 L 247.77139 319.32992 L 248.14639 318.79862 L 248.58389 318.45492 L 248.77139 317.45492 L 249.30264 316.54862 L 249.20894 316.36112 L 248.95894 315.48612 L 249.11519 314.11112 L 249.58394 312.23612 L 248.77144 312.14212 L 248.58394 312.14212 L 247.67769 311.70462 L 246.77144 310.79842 L 246.77144 310.51712 L 246.42769 310.26712 L 245.52144 309.26712 L 244.99019 308.54842 L 243.99019 308.07962 L 243.08394 307.36092 L 243.45894 307.20462 L 243.27144 306.29842 L 241.92769 304.67342 L 241.55269 303.67342 L 241.55269 298.29842 L 242.02144 296.92342 L 242.02144 296.76712 L 242.20894 295.67342 L 241.55269 294.51712 L 239.86519 292.26712 C 238.51894 281.44712 230.63769 283.02212 227.17769 275.32962 L 228.14644 275.14212 L 229.24014 275.23612 L 229.67764 274.70492 L 229.67764 274.51742 L 229.24014 273.45492 L 228.61514 272.64242 L 227.70889 272.89242 L 225.45889 271.45492 L 224.30264 270.92362 L 223.64639 270.01742 L 224.20889 269.29862 L 223.30264 268.67362 L 222.77139 266.32992 L 221.86514 265.36112 L 218.42764 263.36112 L 217.80264 263.01742 L 216.36514 261.73612 L 215.20889 260.29862 L 213.58389 257.89242 L 211.52139 257.79842 L 211.42769 257.70442 L 211.24014 257.23552 L 211.61514 255.36052 L 211.42764 253.73552 L 211.42764 253.54802 L 210.95889 247.17302 L 211.24014 246.70432 L 212.33389 246.07932 L 215.74014 245.64182 L 217.08389 245.64182 L 222.05264 245.73582 L 223.30264 245.36082 L 223.30264 227.64202 L 205.58389 227.64202 L 204.67764 227.36082 L 204.86514 227.11082 L 203.77139 225.29832 L 203.67769 224.39202 L 202.61519 223.67332 L 201.89644 222.76702 L 202.33394 221.79832 L 201.33394 220.98582 L 200.42769 221.70452 L 199.55269 221.70452 L 198.17769 222.14202 L 196.39644 221.61082 L 195.49019 222.04832 L 194.95894 221.61082 L 194.05269 222.23582 L 193.14644 221.98582 L 192.17769 222.42332 L 191.36519 222.23582 L 191.17769 221.32952 L 190.55269 220.45452 L 190.45899 219.98582 L 190.70899 219.07952 L 190.55274 218.20452 L 189.83399 217.20452 L 188.55274 217.01702 L 188.02149 216.92302 L 186.24014 215.48552 L 186.05264 214.95432 L 185.14639 214.42302 L 184.42764 213.51682 L 183.42764 212.70432 L 182.36514 213.14182 L 180.55264 211.98552 L 180.27139 211.70432 L 180.55264 209.92302 L 179.55264 209.36052 L 178.49014 208.01682 L 178.20889 207.04802 L 178.67764 205.76682 L 177.67764 205.57932 L 176.95889 204.70432 L 176.95889 203.89182 L 177.30264 203.61052 L 177.67764 202.70432 L 176.95889 201.82932 L 176.33389 201.26682 L 175.42764 201.26682 L 175.61514 200.36052 L 174.33389 199.57932 L 172.55264 198.04802 L 172.55264 197.48552 L 172.17764 196.51682 L 171.30264 195.86052 L 170.39639 195.70432 L 169.49014 196.32932 L 168.58389 195.86052 L 168.95889 194.98552 L 168.05264 194.70432 L 167.67764 194.26682 L 166.70889 193.61052 L 164.89639 192.98552 L 165.33389 192.11052 L 165.33389 191.82932 L 165.89639 190.92302 L 164.99014 190.11052 L 164.08389 190.11052 L 165.27139 188.86052 L 166.14639 188.23552 L 166.70889 187.32932 L 166.70889 186.61052 L 165.17764 184.79802 L 166.14639 184.26682 L 163.45889 183.98552 L 162.74014 183.82932 L 160.92764 184.36052 L 159.95889 183.54802 L 159.77139 183.54802 L 160.49014 182.64182 L 160.20889 181.64182 L 159.24014 181.57982 L 159.95889 180.57982 L 159.77139 179.32982 L 159.14639 178.32982 L 159.14639 177.42352 L 158.95889 177.14232 L 158.86519 176.26732 L 153.92769 176.17332 L 148.33394 176.26732 L 148.14644 175.79852 L 148.42769 174.54852 L 148.61519 173.29852 L 148.08394 171.39232 L 147.17769 170.95482 L 147.17769 161.14232 L 147.08399 161.14232 L 146.17774 161.32982 L 145.17774 161.14232 L 144.30274 160.70482 L 143.39649 160.76682 L 142.49014 160.23552 L 139.70889 159.32932 L 137.80264 158.45432 L 137.08389 158.36032 L 136.27139 157.45402 L 135.30264 156.92282 L 134.39639 156.11032 L 131.52139 155.39152 L 130.61514 155.29752 L 128.70889 155.45382 L 125.92764 154.92252 L 125.92764 154.92242 L 125.92764 154.92742 Z"/>
    <path id="path5319" fill="#8cce55" stroke="#0f380f" stroke-opacity="0.14509804" stroke-linecap="round" stroke-linejoin="round" transform="matrix(1 0 0 1 0.5 1.2670726)" d="M 125.9375 154.9375 C 125.9375 172.1563 125.9375 189.37495 125.9375 206.59375 C 125.9375 209.53075 125.9375 212.46945 125.9375 215.40625 C 125.9375 217.23895 125.9375 219.07315 125.9375 220.90625 C 125.953 221.11555 125.9455 221.36805 125.9375 221.65625 C 125.9305 221.94455 125.9147 222.26445 125.9063 222.59375 C 125.90538 222.64775 125.9069 222.6951 125.9063 222.75 C 125.9023 223.1347 125.9113 223.52955 125.9375 223.90625 C 125.95 224.0858 125.9671 224.26968 126 224.4375 C 126.0262 224.6064 126.0811 224.75595 126.125 224.90625 C 126.131 224.92525 126.119 224.95075 126.125 224.96875 C 126.1722 225.11675 126.24321 225.2532 126.3125 225.375 C 126.3246 225.397 126.331 225.4175 126.3437 225.4375 C 126.4133 225.5491 126.49942 225.63935 126.5937 225.71875 C 126.6703 225.78275 126.74943 225.8345 126.8437 225.875 C 126.9029 225.9 126.96445 225.9225 127.0312 225.9375 C 127.15267 225.9625 127.28743 225.9808 127.43745 225.9687 C 127.45895 225.9687 127.47935 225.9687 127.49995 225.9687 C 127.50895 225.9677 127.52235 225.9697 127.53115 225.9687 C 127.84063 225.9277 128.22416 225.81224 128.65615 225.5937 L 130.6249 226.31245 L 130.96865 226.12495 L 131.96865 225.4062 L 132.96865 225.3125 L 133.8749 225.2188 L 134.84365 225.7813 L 134.4999 226.6563 L 135.03115 227.6563 L 135.7499 227.93755 L 136.65615 228.2813 L 136.9999 229.2813 L 137.90615 229.9063 L 138.90615 230.7188 L 139.8124 231.43755 L 139.96865 231.53125 L 140.78115 232.15625 L 141.78115 232.96875 L 142.0624 233.875 L 142.8749 234.84375 L 143.7499 234.3125 L 144.7499 233.78125 L 145.65615 233.40625 L 146.65615 233.25 L 146.9999 232.25 L 147.71865 231.34375 L 147.53115 230.4375 L 148.4374 230.09375 L 149.34365 230.00005 L 150.40615 229.5313 L 151.40615 229.0938 L 152.3124 229.62505 L 153.3124 230.2813 L 153.7499 230.81255 L 153.5624 231.7813 L 154.3749 232.68755 L 155.3749 233.31255 L 156.28115 233.68755 L 156.6249 234.5938 L 157.2499 235.50005 L 158.2499 235.93755 L 159.2499 236.37505 L 160.0624 237.4688 L 160.21865 237.6563 L 161.21865 238.5313 L 161.31235 239.3438 L 162.2186 240.1563 L 162.6561 241.1563 L 163.4686 242.06255 L 163.99985 242.9688 L 165.2811 244.75005 L 166.0936 245.6563 L 166.62485 246.6563 L 166.53115 247.5313 L 167.53115 248.00005 L 167.34365 248.9688 L 168.3124 249.3438 L 168.4999 250.25005 L 169.21865 250.5938 L 170.21865 250.9688 L 171.1249 251.4063 L 172.09365 251.9688 L 172.9999 252.12505 L 173.9999 252.75005 L 174.90615 253.31255 L 175.78115 253.93755 L 176.78115 254.2188 L 176.87485 255.1563 L 176.96855 255.0938 L 176.4373 256.0938 L 176.96855 258.87505 L 176.96855 258.96875 L 176.96855 259.25 L 176.96855 260.5 L 177.3123 260.15625 L 177.78105 259.15625 L 177.96855 257.34375 L 178.59355 258.25 L 178.1248 259.25 L 177.40605 260.15625 L 177.59355 260.625 L 177.78105 261.03125 L 178.6873 261.03125 L 177.15605 261.1875 L 176.96855 261.2187 L 176.53105 262.0312 L 176.49985 262.0312 L 176.06235 262.8437 L 176.24985 263.0312 L 175.24985 263.4687 L 176.06235 264.37495 L 176.9686 264.18745 L 176.9686 264.37495 L 176.68735 264.46865 L 176.9686 265.4374 L 176.5936 265.28115 L 174.9061 263.46865 L 174.9061 265.28115 L 175.7811 264.9999 L 175.7186 265.90615 L 175.9686 266.1874 L 176.9686 266.2499 L 177.49985 265.9999 L 179.4061 265.9999 L 177.31235 266.4374 L 177.87485 267.34365 L 176.7811 266.4374 L 176.5936 267.34365 L 176.9686 268.34365 L 179.4061 270.7499 L 180.2811 271.40615 L 180.6561 269.6874 L 181.4686 268.78115 L 182.37485 268.34365 L 183.0936 267.4374 L 183.43735 267.2499 L 183.0936 268.15615 L 184 268.5 L 183.09375 268.4063 L 182.625 269.31255 L 182.90625 270.2188 L 183.8125 271.0313 L 184.96875 270.75005 L 185.78125 271.0313 L 184.875 270.8438 L 183.90625 271.4063 L 183 270.8438 L 182.09375 271.0313 L 182.18745 271.93755 L 183.9062 273.18755 L 183.9062 274.0938 L 184.62495 275.00005 L 185.5937 274.81255 L 185.1562 276.87505 L 185.2499 277.7813 L 186.15615 276.87505 L 186.4999 277.7813 L 186.8749 276.87505 L 186.6874 277.87505 L 186.8749 278.7813 L 189.65615 277.06255 L 191.09365 275.1563 L 190.71865 276.1563 L 189.84365 276.9688 L 190.28115 277.87505 L 191.90615 277.68755 L 191.28115 278.4063 L 191.71865 279.31255 L 191.09365 278.4063 L 190.1874 278.06255 L 189.28115 278.5938 L 188.84365 279.50005 L 187.9374 279.50005 L 187.1249 280.4063 L 186.78115 281.2813 L 187.03115 282.56255 L 187.9374 283.2813 L 188.3124 282.2813 L 188.3124 281.8438 L 189.28115 281.12505 L 189.65615 282.00005 L 191.46865 282.00005 L 192.4374 281.2813 L 192.09365 282.18755 L 189.3749 282.18755 L 188.4999 282.9063 L 187.59365 284.1563 L 189.3749 284.3438 L 190.3749 283.9063 L 189.46865 284.43755 L 187.9374 284.53125 L 187.6874 285.4375 L 189.46865 285.78125 L 188.5624 285.68755 L 189.1249 286.68755 L 189.9999 286.9688 L 190.9999 286.9688 L 189.9999 286.5938 L 190.90615 286.7813 L 192.8124 286.7813 L 193.71865 286.5938 L 194.59365 286.6875 L 193.71865 287.0625 L 194.59365 287.21875 L 194.8749 288.125 L 195.8749 288.125 L 196.7499 287.78125 L 197.5624 285.96875 L 197.6561 286.875 L 197.0311 287.78125 L 196.12485 288.21875 L 194.24985 288.40625 L 194.43735 288.65625 L 195.4061 288.59375 L 194.43735 289.21875 L 195.4061 289.375 L 196.31235 289.03125 L 197.2186 289.46875 L 197.6561 288.59375 L 197.8436 289.46875 L 198.74985 289.46875 L 199.6561 289.21875 L 200.5311 288.40625 L 200.37485 287.5 L 200.81235 286.59375 L 201.0936 286.875 L 200.7186 288.75 L 199.81235 289.375 L 199.81235 290.28125 L 200.81235 290.37495 L 201.7186 289.6562 L 202.62485 289.6562 L 201.7186 290.4687 L 201.8123 291.37495 L 201.6248 292.2812 L 201.09355 292.2812 L 202.4373 293.5312 L 203.34355 293.7187 L 204.21855 293.5312 L 205.1248 293.1562 L 204.78105 292.2812 L 205.59355 291.37495 L 205.03105 292.2812 L 205.3123 292.81245 L 205.1248 293.7187 L 206.03105 294.3437 L 206.9373 294.06245 L 206.40605 294.43745 L 204.4998 294.53115 L 205.21855 295.40615 L 207.03105 295.8749 L 207.5623 294.96865 L 208.46855 294.53115 L 208.28105 295.40615 L 208.65605 296.3124 L 209.3748 296.4999 L 208.8123 297.1249 L 209.1873 297.40615 L 208.9998 298.3124 L 209.28105 298.3124 L 209.6248 297.84365 L 210.53105 298.3124 L 210.71855 299.28115 L 211.6248 299.7499 L 211.96855 300.6249 L 211.6873 301.53115 L 210.8123 301.34365 L 212.2498 302.4374 L 212.3435 303.4374 L 212.87475 304.34365 L 212.3435 305.21865 L 212.156 306.21865 L 212.406 308.03115 L 211.531 308.5624 L 210.906 309.46865 L 209.99975 309.71865 L 209.531 308.9999 L 210.43725 308.09365 L 210.53095 308.9999 L 211.4372 308.1874 L 211.6872 307.1249 L 211.2497 306.21865 L 211.78095 305.21865 L 210.90595 305.31235 L 210.2497 306.2186 L 209.28095 307.0311 L 209.6247 307.8436 L 208.71845 307.9373 L 209.1872 307.03105 L 210.8122 305.21855 L 210.8122 304.2498 L 210.53095 303.34355 L 209.6247 303.53105 L 208.71845 303.15605 L 207.84345 303.4373 L 205.1247 303.15605 L 203.2497 302.53105 L 202.34345 302.09355 L 201.4372 301.90605 L 201.71845 302.53105 L 201.62475 303.4373 L 201.81225 304.34355 L 202.62475 305.21855 L 203.06225 306.1248 L 203.24975 307.1248 L 203.5935 308.03105 L 203.4998 308.1873 L 203.96855 309.09355 L 204.78105 309.9998 L 205.65605 310.28105 L 204.21855 310.71855 L 204.59355 311.71855 L 205.03105 312.2498 L 204.78105 313.15605 L 204.5 312.25 L 204.5937 313.25 L 204.93745 314.125 L 206.8437 314.3125 L 207.74995 314.6875 L 208.6562 314.7812 L 207.74995 315.0312 L 206.8437 314.68745 L 204.93745 314.59375 L 205.12495 315.5625 L 205.12495 319.1875 L 204.49995 322.59375 L 204.1562 328.09375 L 204.5 329 L 203.78125 329.53125 L 203.87495 330.4375 L 203.06245 331.59375 L 202.43745 333.5 L 202.43745 334.375 L 202.9687 335.28125 L 202.875 336.8125 L 203.15625 337.71875 L 203.875 338.625 L 203.875 339.34375 L 204.5 341.125 L 204.4063 342.46875 L 204.1563 343.375 L 204.2188 344.28125 L 204.06255 345.1875 L 203.43755 346.09375 L 203.1563 346.90625 L 203.25 347.78125 L 203.96875 348.78125 L 205.125 349.96875 L 205.59375 350.84375 L 205.84375 351.75 L 205.84375 353.65625 L 206.21875 354.53125 L 206.12505 355.4375 L 208.81255 357.96875 L 209.62505 359.3125 L 210.00005 360.3125 L 210.9063 361.03125 L 211.7813 360.65625 L 212.5938 359.75 L 213.50005 360.21875 L 213.68755 360.03125 L 214.5938 360.12495 L 215.56255 359.6562 L 216.18755 360.12495 L 215.31255 360.4062 L 214.4063 360.2187 L 212.4063 360.4687 L 212.5938 361.37495 L 213.4063 362.2812 L 213.5938 363.2812 L 212.68755 362.6562 L 211.7813 361.74995 L 211.6876 362.7187 L 212.15635 363.62495 L 212.25005 364.5312 L 212.9688 365.43745 L 213.87505 366.06245 L 214.8438 366.3437 L 215.2188 367.2187 L 214.50005 368.6562 L 214.6563 369.56245 L 215.56255 370.18745 L 216.4688 371.0937 L 216.9063 371.99995 L 217.62505 372.9062 L 219.43755 374.43745 L 219.62505 375.3437 L 220.5313 376.06245 L 220.3438 376.93745 L 220.5313 378.74995 L 221.4063 379.18745 L 223.4063 379.18745 L 225.18755 379.4687 L 226.0938 379.9062 L 227.00005 380.81245 L 227.9063 381.2812 L 228.87505 381.62495 L 229.7813 381.37495 L 230.68755 382.1562 L 231.2188 383.1562 L 231.5938 382.81245 C 233.63505 383.78115 236.37005 385.54115 236.00005 388.18745 L 236.62505 389.0937 L 236.81255 389.81245 L 237.62505 390.7187 L 237.81255 391.7187 L 238.68755 392.5937 L 238.87505 394.4062 L 240.31255 396.0312 L 240.68755 397.37495 L 241.56255 398.0937 L 241.65625 398.99995 L 242.21875 399.99995 L 242.5625 400.3437 L 242.75 401.24995 L 242.75 402.24995 L 243.09375 402.5937 L 243.46875 403.5937 L 245.625 405.12495 L 246 405.12495 L 246.875 405.56245 L 248.59375 407.62495 L 250.40625 409.43745 L 250.84375 410.43745 L 250.84375 411.4062 L 250.21875 412.31245 L 256.875 412.28125 L 256.34375 410.875 L 255.0625 409 L 253.28125 407.53125 L 253.18755 406.65625 L 252.75005 405.75 L 250.2188 403.5 L 249.31255 403.125 L 248.5938 402.25 L 248.1563 400.71875 L 248.25 399.8125 L 247.875 398.90625 L 247.875 398 L 247.25 397.03125 L 247.0625 396.125 L 247.34375 393.40625 L 246.4375 392.53125 L 246.3438 392.15625 L 246.4375 392.34375 L 246.78125 392.53125 L 246.625 391.15625 L 246.625 391.09375 L 246.34375 390.625 L 246.43745 390.34375 L 246.62495 389.90625 L 246.7812 389.5625 L 246.8749 389.4688 L 247.2499 389.4688 L 247.3436 389.3751 L 247.7811 388.3751 L 247.7811 388.2814 L 248.24985 388.1877 L 248.5936 388.1877 L 248.9686 387.3752 L 248.7811 386.7502 L 247.87485 386.3127 L 247.96855 386.1252 L 247.78105 385.1252 L 248.40605 384.2502 L 248.59355 383.6877 L 248.8748 383.0627 L 248.7811 382.15645 L 248.7811 381.8127 L 249.68735 380.90645 L 250.5 380 L 249.40625 378.84375 L 248.96875 377.9375 L 248.87505 377.8438 L 248.87505 377.7501 L 248.50005 377.40635 L 248.25005 376.5001 L 248.25005 376.4064 L 248.4063 374.62515 L 248.1563 374.1564 L 248.1563 373.1564 L 247.68755 371.0939 L 247.68755 370.75015 L 248.5938 370.2814 L 249.5938 370.4689 L 250.50005 370.9064 L 250.93755 370.0314 L 250.93755 346.9064 C 250.93755 344.1464 250.93755 341.38515 250.93755 338.62515 C 246.3488 338.62515 241.74505 338.62515 237.1563 338.62515 L 237.1563 335.81265 L 232.0313 335.81265 L 231.68755 334.8439 L 231.59385 332.31265 L 231.59385 326.56265 L 232.3126 325.37515 L 233.21885 324.93765 L 234.46885 324.93765 L 235.6251 325.6564 L 236.28135 325.6564 L 236.28135 325.2814 L 236.53135 324.31265 L 236.90635 323.50015 L 237.71885 322.5939 L 237.8751 321.68765 L 237.9688 321.43765 L 238.5938 320.62515 L 238.7813 319.62515 L 239.31255 318.7189 L 239.7813 318.0939 L 239.1563 317.18765 L 238.25005 316.75015 L 239.1563 315.8439 L 239.7813 316.0314 L 240.50005 316.93765 L 240.59375 317.81265 L 240.50005 318.4689 L 240.8438 319.3439 L 242.2188 319.0939 L 243.0938 319.0939 L 244.0938 319.43765 L 245.5313 318.37515 L 246.43755 318.7189 L 247.7813 319.3439 L 248.1563 318.81265 L 248.5938 318.4689 L 248.7813 317.4689 L 249.31255 316.56265 L 249.21885 316.37515 L 248.96885 315.50015 L 249.1251 314.12515 L 249.59385 312.25015 L 248.78135 312.15645 L 248.59385 312.15645 L 247.6876 311.71895 L 246.78135 310.8127 L 246.78135 310.53145 L 246.4376 310.28145 L 245.53135 309.28145 L 245 308.5625 L 244 308.09375 L 243.09375 307.375 L 243.46875 307.21875 L 243.28125 306.3125 L 241.9375 304.6875 L 241.5625 303.6875 L 241.5625 298.3125 L 242.03125 296.9375 L 242.03125 296.78125 L 242.21875 295.6875 L 241.5625 294.53125 L 239.875 292.28125 C 238.52875 281.46125 230.6475 283.03625 227.1875 275.34375 L 228.15625 275.15625 L 229.25 275.24995 L 229.6875 274.7187 L 229.6875 274.5312 L 229.25 273.4687 L 228.625 272.6562 L 227.71875 272.9062 L 225.46875 271.4687 L 224.3125 270.93745 L 223.65625 270.0312 L 224.21875 269.31245 L 223.3125 268.68745 L 222.78125 266.3437 L 221.875 265.37495 L 218.4375 263.37495 L 217.8125 263.0312 L 216.375 261.74995 L 215.21875 260.31245 L 213.59375 257.9062 L 211.53125 257.8125 L 211.43755 257.7188 L 211.25005 257.25005 L 211.62505 255.37505 L 211.43755 253.75005 L 211.43755 253.56255 L 210.9688 247.18755 L 211.25005 246.7188 L 212.3438 246.0938 L 215.75005 245.6563 L 217.0938 245.6563 L 222.06255 245.75 L 223.31255 245.375 L 223.31255 227.65625 L 205.5938 227.65625 L 204.68755 227.375 L 204.87505 227.125 L 203.7813 225.3125 L 203.6876 224.40625 L 202.6251 223.6875 L 201.90635 222.78125 L 202.34385 221.8125 L 201.34385 221 L 200.4376 221.71875 L 199.5626 221.71875 L 198.1876 222.15625 L 196.40635 221.625 L 195.5001 222.0625 L 194.96885 221.625 L 194.0626 222.25 L 193.15635 222 L 192.1876 222.4375 L 191.3751 222.25 L 191.1876 221.34375 L 190.5626 220.46875 L 190.4689 220 L 190.7189 219.09375 L 190.56265 218.21875 L 189.8439 217.21875 L 188.56265 217.03125 L 188.0314 216.93755 L 186.25015 215.50005 L 186.06265 214.9688 L 185.1564 214.43755 L 184.43765 213.5313 L 183.43765 212.7188 L 182.37515 213.1563 L 180.56265 212.00005 L 180.2814 211.7188 L 180.56265 209.93755 L 179.56265 209.37505 L 178.50015 208.0313 L 178.2189 207.06255 L 178.68765 205.7813 L 177.68765 205.5938 L 176.9689 204.7188 L 176.9689 203.9063 L 177.31265 203.62505 L 177.68765 202.7188 L 176.9689 201.8438 L 176.3439 201.2813 L 175.43765 201.2813 L 175.62515 200.37505 L 174.3439 199.5938 L 172.56265 198.06255 L 172.56265 197.50005 L 172.18765 196.5313 L 171.31265 195.87505 L 170.4064 195.7188 L 169.50015 196.3438 L 168.5939 195.87505 L 168.9689 195.00005 L 168.06265 194.7188 L 167.68765 194.2813 L 166.7189 193.62505 L 164.9064 193.00005 L 165.3439 192.12505 L 165.3439 191.8438 L 165.9064 190.93755 L 165 190.125 L 164.09375 190.125 L 165.28125 188.875 L 166.15625 188.25 L 166.71875 187.34375 L 166.71875 186.625 L 165.1875 184.8125 L 166.15625 184.28125 L 163.46875 184 L 162.75 183.84375 L 160.9375 184.375 L 159.96875 183.5625 L 159.78125 183.5625 L 160.5 182.65625 L 160.21875 181.65625 L 159.25 181.59375 L 159.96875 180.59375 L 159.78125 179.34375 L 159.15625 178.34375 L 159.15625 177.4375 L 158.96875 177.15625 L 158.87505 176.28125 L 153.93755 176.18755 L 148.3438 176.28125 L 148.1563 175.8125 L 148.43755 174.5625 L 148.62505 173.3125 L 148.0938 171.40625 L 147.18755 170.96875 L 147.18755 161.15625 L 147.09385 161.15625 L 146.1876 161.34375 L 145.1876 161.15625 L 144.3126 160.71875 L 143.40635 160.78125 L 142.5 160.25 L 139.71875 159.34375 L 137.8125 158.46875 L 137.09375 158.37505 L 136.28125 157.4688 L 135.3125 156.93755 L 134.40625 156.12505 L 131.53125 155.4063 L 130.625 155.3126 L 128.71875 155.46885 L 125.9375 154.9376 L 125.9375 154.9375 Z M 172.65625 263.5625 L 172.65625 264.46875 L 173.46875 263.5625 L 172.65625 263.5625 Z M 163.375 266.4375 L 162.75 267.4375 L 162.46875 268.34375 L 163.5625 269.9375 L 164.1875 270.9375 L 165.09375 271.125 L 164.1875 271.75 L 165.1875 271.6563 L 165.2812 272.56255 L 166.1562 272.75005 L 167.1562 272.56255 L 167.9687 271.6563 L 167.9687 269.87505 L 168.24995 268.9688 L 168.87495 268.06255 L 169.2187 267.06255 L 168.31245 267.06255 L 167.43745 267.3438 L 167.34375 268.25005 L 166.8125 269.1563 L 165.90625 269.93755 L 165 269.7813 L 165.90625 269.06255 L 166.8125 268.5938 L 167.0625 267.62505 L 166.09375 266.81255 L 165.1875 267.1563 L 164.28125 266.62505 L 163.375 266.43755 L 163.375 266.4375 Z M 175.34375 266.96875 L 174.4375 267.15625 L 174.4375 268.0625 L 175.34375 267.53125 L 174.8125 268.40625 L 175.71875 267.96875 L 175.4375 267.0625 L 175.3438 266.9688 L 175.34375 266.96875 Z M 176.0625 267.96875 L 175.9688 268.96875 L 176.9688 269.6875 L 176.9688 270.125 L 178.5938 272.03125 L 179.50005 271.84375 L 179.50005 270.9375 L 176.9688 268.59375 L 176.06255 267.96875 L 176.0625 267.96875 Z M 175.71875 268.78125 L 175.4375 269.875 L 176.4375 269.6875 L 175.71875 268.78125 Z M 182.375 269.3125 L 181.8125 269.4062 L 180.84375 270.2187 L 180.93745 271.12495 L 182.37495 269.31245 L 182.375 269.3125 Z M 174.53125 269.875 L 175.15625 270.75 L 176.96875 272.375 L 177.25 272.75 L 178.125 272.6563 L 177.78125 271.75005 L 176.96875 270.8438 L 175.4375 270.0313 L 174.53125 269.87505 L 174.53125 269.875 Z M 181.65625 270.5 L 181.375 270.84375 L 181.09375 271.75 L 182 271.40625 L 181.65625 270.5 L 181.65625 270.5 Z M 180.28125 271.75 L 180.84375 272.65625 L 180.5625 271.75 L 180.28125 271.75 Z M 181.75 272.03125 L 180.75 273.8125 L 181.65625 274.09375 L 181.8125 273.1875 L 181.75 274.09375 L 181.09375 275 L 182 275.90625 L 183.09375 274.09375 L 182.8125 275.90625 L 183.71875 275 L 183.81245 274.09375 L 183.5312 273.1875 L 182.62495 272.46875 L 181.74995 272.03125 L 181.75 272.03125 Z M 167.875 272.46875 L 166.96875 272.84375 L 165.1875 272.84375 L 166.09375 273.5625 L 166.96875 273.8125 L 166.09375 274.1875 L 166.8125 275.09375 L 167.6875 275.09375 L 167.7812 275.96875 L 168.7812 276.875 L 169.68745 277.34375 L 170.2187 278.3125 L 171.0312 279.21875 L 171.93745 278.9375 L 172.03115 278.6875 L 171.03115 278.3125 L 170.40615 277.34375 L 169.40615 276.6875 L 168.3124 274.8125 L 168.0624 273.90625 L 168.2499 273.81255 L 168.1562 274.0938 L 169.12495 274.62505 L 169.12495 273.7188 L 168.49995 273.6563 L 168.9687 273.4688 L 168.7812 272.4688 L 167.87495 272.4688 L 167.875 272.46875 Z M 179.5 272.65625 L 179.3125 273.09375 L 180.21875 273.5625 L 179.5 272.65625 Z M 180.46875 274.90625 L 180.46875 275.625 L 181.03125 276.53125 L 182 276.6875 L 181.46875 275.8125 L 180.46875 274.90625 Z M 184.34375 275.09375 L 184.15625 276.0625 L 184.96875 276.96875 L 184.53125 275.09375 L 184.34375 275.09375 Z M 169.21875 275.4375 L 169.59375 276.34375 L 170.125 275.4375 L 169.21875 275.4375 Z M 183.71875 275.96875 L 183.09375 276.96875 L 184 276.87505 L 183.71875 275.9688 L 183.71875 275.96875 Z M 182.71875 277.25 L 183.28125 278.15625 L 183.34375 277.25 L 182.71875 277.25 Z M 189.75 277.5 L 188.84375 277.6875 L 187.03125 278.9375 L 186.78125 279.84375 L 187.6875 279.65625 L 188.125 279.03125 L 189.03125 278.5 L 189.75 277.5 Z M 185.15625 278.875 L 185.34375 279.75 L 185.5 278.875 L 185.15625 278.875 Z M 186.3125 279.65625 L 185.4375 279.9375 L 185.0625 280.84375 L 185.96875 281.5625 L 186.40625 279.75 L 186.31255 279.6563 L 186.3125 279.65625 Z M 186.25 281.84375 L 185.59375 282.09375 L 185.78125 283.09375 L 186.6875 283.625 L 186.6875 282.71875 L 186.25 281.84375 Z M 185.4375 287.125 L 184.53125 287.5 L 184.71875 288.40625 L 185.5 289.3125 L 186.40625 289.375 L 187.3125 288.59375 L 188.3125 289.125 L 188.75 290.03125 L 187.84375 289.3125 L 186.875 289.375 L 186.5 290.28125 L 187.40625 290.75 L 187.03125 291.625 L 188.84375 291.1875 L 189.03125 292.09375 L 189.9375 292.28125 L 190.8125 293.15625 L 191.71875 292.8125 L 191.90625 293 L 192.625 293.71875 L 193.53125 293.62505 L 194.5 294.25005 L 193.15625 294.5938 L 192.90625 295.50005 L 193.78125 295.87505 L 194.6875 295.87505 L 195.59375 296.2188 L 196.5 296.1251 L 196.6875 297.03135 L 196.3125 297.9376 L 198.125 298.65635 L 200 298.3126 L 200.90625 297.65635 L 200.28125 298.5626 L 199.375 299.3751 L 201.1875 300.6251 L 204.875 301.90635 L 206.65625 302.4376 L 207.5625 301.71885 L 207.75 300.8126 L 206.84375 300.0001 L 206.40625 299.09385 L 205.5 298.3126 L 205.03125 297.40635 L 203.25 296.21885 L 202.34375 296.0626 L 201.34375 295.5001 L 200.53125 294.59385 L 200.28125 293.6251 L 199.375 292.8126 L 199.09375 292.28135 L 197.5625 290.1251 L 195.78125 289.9376 L 193.71875 289.3126 L 192.8125 289.3751 L 191.8125 288.9376 L 190 288.59375 L 188.21875 287.5 L 187.3125 287.125 L 185.4375 287.125 L 185.4375 287.125 Z M 191.90625 293 L 191.1875 293.53125 L 191.625 294.4375 L 192.53125 293.875 L 191.90625 293 Z M 193.96875 287.3125 L 193.4375 288.21875 L 194.34375 288.21875 L 194.34375 287.3125 L 193.96875 287.3125 Z M 198.84375 289.65625 L 199.28125 290.5625 L 199.46875 291.46875 L 199.65625 290.5625 L 198.84375 289.65625 Z M 200.4375 290.46875 L 201.1875 291.375 L 200.625 290.46875 L 200.4375 290.46875 Z M 200.09375 291 L 200.09375 291.90625 L 200.625 291.90625 L 200.09375 291 Z M 202.53125 293.875 L 203.25 294.78125 L 204.21875 295.34375 L 203.4375 294.4375 L 202.53125 293.875 Z M 206.75 298.65625 L 206.75 299.03125 L 207.65625 299.65625 L 206.75 298.65625 Z M 208.90625 300.625 L 208.65625 301.1875 L 209.53125 301.53125 L 208.90625 300.625 Z M 223.9375 381.1875 L 223.9375 381.71875 L 224.84375 381.4375 L 223.9375 381.1875 Z M 223.3125 381.71875 L 222.40625 381.81245 L 223.3125 381.90615 L 223.3125 381.71865 L 223.3125 381.71875 Z M 229.875 386.84375 L 230.6875 387.75 L 230.15625 386.84375 L 229.875 386.84375 Z M 253.09375 404.65625 L 253.28125 405.5625 L 255.0625 407.1875 L 254.90625 406.65625 L 254.90625 405.75 L 253.09375 404.65625 Z"/>
    <path id="path41742" fill="#8cce55" stroke="#0f380f" stroke-opacity="0.14509804" stroke-linecap="round" stroke-linejoin="round" transform="matrix(1 0 0 1 0.5 1.2670726)" d="M 134.6875 155.03125 L 133.78125 155.75 L 134.6875 156.03125 L 135.5625 155.3125 L 134.6875 155.03125 Z"/>
    <path id="path41636" fill="#8cce55" stroke="#0f380f" stroke-opacity="0.14509804" stroke-linecap="round" stroke-linejoin="round" transform="matrix(1 0 0 1 0.5 1.2670726)" d="M 185.0625 658.96875 C 183.82 658.96875 182.8125 659.97625 182.8125 661.21875 C 182.8125 662.46115 183.82 663.46875 185.0625 663.46875 C 186.305 663.46875 187.3125 662.46115 187.3125 661.21875 C 187.3125 659.97625 186.305 658.96875 185.0625 658.96875 Z"/>
    <path id="path41634" fill="#8cce55" stroke="#0f380f" stroke-opacity="0.14509804" stroke-linecap="round" stroke-linejoin="round" transform="matrix(1 0 0 1 0.5 1.2670726)" d="M 201.71875 659.78125 C 200.475 659.78125 199.46875 660.78875 199.46875 662.03125 C 199.46875 663.27245 200.475 664.28125 201.71875 664.28125 C 202.96 664.28125 203.96875 663.27245 203.96875 662.03125 C 203.96875 660.78875 202.96 659.78125 201.71875 659.78125 Z"/>
    <path id="path4788" fill="#8cce55" stroke="#0f380f" stroke-opacity="0.14509804" stroke-linecap="round" stroke-linejoin="round" transform="matrix(1 0 0 1 0.5 1.2670726)" d="M 177.125 661.46875 C 175.8825 661.46875 174.875 662.47625 174.875 663.71875 C 174.875 664.96105 175.8825 665.96875 177.125 665.96875 C 178.3675 665.96875 179.375 664.96105 179.375 663.71875 C 179.375 662.47625 178.3675 661.46875 177.125 661.46875 Z"/>
    <path id="path41638" fill="#8cce55" stroke="#0f380f" stroke-opacity="0.14509804" stroke-linecap="round" stroke-linejoin="round" transform="matrix(1 0 0 1 0.5 1.2670726)" d="M 173.8125 656.46875 C 172.57 656.46875 171.5625 657.47625 171.5625 658.71875 C 171.5625 659.96125 172.57 660.96875 173.8125 660.96875 C 175.055 660.96875 176.0625 659.96125 176.0625 658.71875 C 176.0625 657.47625 175.055 656.46875 173.8125 656.46875 Z"/>
</svg>
