<svg width="1671.094" height="856.39252" viewBox="0 0 1671.094 856.39252" xmlns="http://www.w3.org/2000/svg" xmlns:usvg="https://github.com/RazrFalcon/usvg" usvg:version="0.8.0">
    <defs/>
    <path id="path4070" fill="#3e73c5" fill-opacity="0.42857145" stroke="#000000" stroke-opacity="0.24675323" stroke-linecap="round" stroke-linejoin="round" transform="matrix(1 0 0 1 0.5 1.2670726)" d="M 605.64639 -0.75978262 L 605.64639 20.052717 L 605.92764 20.052717 L 606.83389 20.396467 L 608.70889 20.677717 L 609.61514 21.302717 L 610.67764 21.396417 L 609.80264 20.490167 L 609.24014 19.490167 L 610.14639 19.333917 L 612.20889 19.240217 L 616.45889 19.396467 L 618.33389 18.677717 L 619.33389 19.396467 L 620.30264 18.771467 L 621.20889 19.771467 L 622.11514 20.302717 L 623.02139 20.052717 L 622.11514 19.677717 L 622.30264 18.771467 L 626.17764 18.427717 L 629.30264 18.521417 L 630.39639 18.958917 L 632.27139 18.677667 L 634.27139 19.052667 L 636.24014 19.052667 L 637.24014 18.771417 L 638.39639 18.677717 L 641.36514 18.958967 L 642.36514 19.240217 L 643.36514 19.396467 L 644.33389 20.115217 L 645.42764 19.771467 L 646.42764 20.115217 L 645.42764 20.208917 L 646.33389 20.677667 L 647.30264 20.833917 L 648.30264 20.302667 L 650.36514 20.115167 L 654.33389 20.583917 L 658.02139 21.302667 L 659.17764 21.740167 L 660.17764 22.646417 L 658.20889 23.365167 L 657.20889 23.458867 L 654.33389 24.083867 L 651.27139 24.177567 L 643.45889 23.646317 L 640.64639 23.740017 L 637.49014 23.990017 L 636.52139 24.458767 L 634.52139 24.552467 L 632.74014 25.083717 L 630.74014 25.083717 L 628.77139 24.552467 L 626.70889 24.177467 L 624.74014 24.177467 L 625.70889 24.364967 L 626.89639 24.364967 L 627.77139 24.614967 L 628.67764 25.333717 L 624.74014 25.708717 L 621.67764 26.427467 L 614.55264 26.802467 L 615.17764 27.677467 L 614.83389 28.583717 L 616.61514 27.146217 L 618.61514 26.708717 L 621.77139 26.802417 L 622.64639 27.239917 L 622.30264 28.146167 L 623.27139 27.427417 L 623.36509 26.521167 L 624.36509 26.239917 L 631.49009 25.802417 L 632.45884 26.521167 L 633.55259 25.708667 L 636.52134 24.896167 L 638.30259 24.802467 L 640.39634 24.271217 L 643.45884 24.177517 L 646.42759 24.458767 L 647.49009 24.615017 L 648.49009 24.990017 L 650.27134 24.802517 L 653.95884 25.083767 L 655.95884 24.990067 L 658.11509 24.458817 L 663.05259 23.833817 L 664.14634 24.365067 L 664.05264 25.271317 L 664.24014 26.146317 L 662.33389 27.521317 L 660.27139 28.396317 L 663.42764 27.771317 L 665.39639 26.865067 L 667.45889 26.958767 L 668.36514 27.583767 L 668.17764 28.490017 L 669.17764 28.302517 L 670.17764 27.583767 L 671.14639 27.427517 L 672.14639 28.052517 L 673.95889 28.396267 L 674.92764 28.146267 L 675.20889 28.239967 L 675.20889 -0.76003262 L 605.64639 -0.76003262 L 605.64639 -0.75978262 L 605.64639 -0.75978262 Z M 608.17764 23.896467 L 606.02139 23.990167 L 605.64639 23.927667 L 605.64639 24.240167 L 607.27139 24.177667 L 608.17764 23.896417 L 608.17764 23.896467 Z M 605.64639 25.427717 L 605.64639 25.490217 L 606.17764 25.521417 L 605.64639 25.427717 Z M 675.20889 33.365217 L 674.92764 33.458917 L 672.05264 33.896417 L 669.08389 33.896417 L 667.11514 34.333917 L 665.11514 35.052667 L 663.14639 35.427667 L 658.20889 35.521367 L 650.02139 34.990117 L 645.95889 35.240117 L 643.89639 35.615117 L 641.92764 35.615117 C 641.07966 35.288917 638.78398 35.046867 636.67764 34.927617 L 637.05264 34.990117 L 637.86514 35.052617 L 639.83389 35.427617 L 640.83389 36.052617 C 636.16139 37.661367 631.23014 37.342617 626.61514 39.021367 L 626.70884 39.927617 L 627.05259 40.833867 L 627.95884 40.740167 L 628.95884 40.208917 L 631.92759 39.208917 L 635.89634 38.583917 L 636.95884 38.583917 L 641.02134 37.865167 L 641.92759 38.583917 L 642.80259 37.677667 L 644.80259 37.240167 L 652.61509 36.865167 L 658.45884 36.958867 L 661.36509 37.146367 L 662.24009 37.958867 L 662.42759 38.833867 L 661.89634 39.740117 L 658.92759 40.833867 L 654.95884 41.990117 L 652.99009 42.365117 L 651.89634 43.177617 L 652.89634 43.896367 L 651.89634 43.990067 L 652.99009 43.990067 L 654.86509 43.521317 L 655.77134 42.990067 L 662.70884 41.177567 L 663.61509 40.646317 L 665.58384 40.271317 L 666.58384 40.365017 L 667.45884 40.208767 L 668.02134 37.396267 L 669.89634 36.583767 L 673.67759 36.427517 L 674.67759 36.240017 L 675.20884 36.240017 L 675.20884 33.365017 L 675.20889 33.365217 L 675.20889 33.365217 Z M 633.77139 34.833967 C 633.45711 34.841967 633.18764 34.872267 632.99014 34.896467 L 634.86514 34.833967 C 634.46794 34.826967 634.08567 34.825967 633.77139 34.833967 Z M 675.20889 44.333967 L 674.77139 44.771467 L 673.77139 45.240217 L 673.14639 46.146467 L 669.55264 48.833967 L 668.83389 49.740217 L 668.64639 50.646467 L 667.74014 51.271467 L 666.64639 51.615217 L 667.64639 51.708917 L 666.74014 52.177667 L 666.20889 53.146417 L 669.17764 51.615167 L 669.61514 50.740167 L 670.52139 50.271417 L 670.42769 49.271417 L 671.42769 49.271417 L 673.33394 48.490167 L 674.20894 47.677667 L 675.20894 47.021417 L 675.20894 44.333917 L 675.20889 44.333967 Z M 675.20889 152.14602 L 673.58389 153.14602 L 671.70889 153.30222 L 672.67764 154.11472 L 670.80264 154.11472 L 669.89639 154.39602 L 668.89639 154.30202 L 669.80264 154.92702 L 669.70894 155.83322 L 668.83394 156.11452 L 666.92769 155.64572 L 667.83394 156.45822 L 666.02144 157.17702 L 665.11519 157.27102 L 665.30269 158.17722 L 664.39644 158.27122 L 663.52144 157.99002 L 662.52144 158.45872 L 663.52144 158.52072 L 662.80269 159.42702 L 661.89644 159.95822 L 660.99019 159.61452 L 661.52144 160.61452 L 660.61519 160.61452 L 659.99019 161.48952 L 659.02144 162.05202 L 658.11519 162.05202 L 657.30269 163.02072 L 655.39644 162.86452 L 654.52144 163.20822 L 654.05269 163.73952 L 653.14644 163.58322 L 652.17769 164.11452 L 651.27144 164.11452 L 649.39644 164.64572 L 648.39644 164.39572 L 646.58394 165.45822 L 645.67769 165.83322 L 644.70894 165.45822 L 642.89644 166.36452 L 641.92769 166.08322 L 641.20894 165.17702 L 640.39644 165.36452 L 640.39644 166.45822 L 639.49019 166.27072 L 640.20894 167.17702 L 639.30269 167.52072 L 638.49019 166.64572 L 636.70894 166.36452 L 637.58394 166.70822 L 638.30269 167.70822 L 637.42769 167.89572 L 636.42769 167.80172 L 635.52144 167.98922 L 633.74019 167.36422 L 632.83394 167.52052 L 632.45894 166.64552 L 631.55269 166.27052 L 630.67769 165.36422 L 629.77144 164.92672 L 629.49019 164.02052 L 628.58394 164.39552 L 629.05269 165.27052 L 629.95894 165.55172 L 630.58394 166.45802 L 629.67769 166.55202 L 630.58394 167.17702 L 630.49024 168.08322 L 630.92774 168.95822 L 630.02149 169.52072 L 629.14649 169.42672 L 628.24024 169.86422 L 627.33399 170.58302 L 626.42774 170.95802 L 625.70899 171.86422 L 624.80274 172.02052 L 624.99024 172.92672 L 624.02149 173.39552 L 624.80274 174.27052 L 623.92774 174.45802 L 623.92774 175.36422 L 622.11524 176.36422 L 621.58399 178.05172 L 620.95899 178.95802 L 620.05274 179.23922 L 619.86524 178.33302 L 619.42774 180.20802 L 618.86524 181.11422 L 617.08399 181.64552 L 616.17774 181.30172 L 616.55274 182.20802 L 615.64649 181.83302 L 614.64649 181.83302 L 613.74024 181.30172 L 614.64649 182.20802 L 614.02149 183.11422 L 613.11524 183.02022 L 613.11524 183.89522 L 612.11524 184.55152 L 611.24024 184.08272 L 610.33399 183.36402 L 609.52149 184.27022 L 607.70899 184.70772 L 607.80269 183.83272 L 607.08394 185.61402 C 606.15894 185.46022 605.89347 185.20152 605.64644 184.98902 L 605.64644 185.08302 L 605.92769 185.27052 L 605.64644 186.23922 L 605.64644 566.98922 L 605.92769 567.08322 L 607.36519 568.36452 L 608.52144 568.52072 L 609.42769 569.14572 L 613.20894 569.08372 L 614.11519 569.14572 L 615.08394 569.52072 L 615.74019 570.42702 L 616.17769 571.39572 L 616.70894 573.83322 L 617.42769 575.73952 L 617.42769 576.55202 L 617.89644 577.61452 L 617.61519 578.61452 L 617.99019 578.23952 L 618.14644 579.14572 L 618.14644 580.05202 L 617.70894 580.48952 L 617.99019 580.58352 L 617.80269 581.58352 L 618.05269 582.02102 L 617.80269 583.02102 L 617.17769 584.55222 L 617.17769 585.08352 L 616.55269 586.89602 L 615.55269 588.58352 L 613.92769 590.48972 L 613.83399 590.39572 L 613.30274 590.77072 L 613.30274 591.11452 L 611.24024 593.45822 L 610.67774 594.36452 L 610.05274 594.55202 L 608.27149 595.89572 L 607.36524 595.52072 L 607.61524 596.61452 L 606.64649 596.80202 L 607.08399 597.67702 L 606.17774 598.23952 L 605.74024 599.11452 L 606.02149 599.20852 L 605.64649 599.92722 L 605.64649 816.23972 L 579.24024 816.23972 L 579.24024 829.23972 L 605.64649 829.23972 L 605.64649 854.61472 L 675.20899 854.61472 L 675.20899 480.05222 L 654.24024 480.05222 L 654.24024 456.36472 L 675.20899 456.36472 L 675.20899 371.08352 L 630.92774 371.08352 L 630.92774 343.89602 L 675.20899 343.89602 L 675.20899 206.45852 L 663.58399 206.45852 L 663.58399 176.20852 L 675.20899 176.20852 L 675.20899 152.14602 L 675.20889 152.14612 L 675.20889 152.14602 L 675.20889 152.14602 Z M 640.45889 166.55222 L 641.36514 167.08352 L 640.39639 166.98952 L 640.39639 166.64572 L 640.45889 166.55172 L 640.45889 166.55162 L 640.45889 166.55222 Z M 606.02139 181.48972 L 605.64639 181.55172 L 605.64639 182.61422 L 606.02139 182.20802 L 606.89639 181.64552 L 606.02139 181.48922 L 606.02139 181.48972 Z M 610.05264 184.27102 L 609.86514 185.27102 L 609.33389 185.61472 L 609.14639 184.70852 L 610.05264 184.27102 Z M 607.27139 186.23972 L 608.17764 186.42722 L 607.89639 187.14602 L 607.27139 186.23972 Z"/>
    <path id="path4132" fill="#8cce55" stroke="#0f380f" stroke-opacity="0.14509804" stroke-linecap="round" stroke-linejoin="round" transform="matrix(1 0 0 1 0.5 1.2670726)" d="M 639.78125 35.1875 C 640.72446 35.303694 641.51351 35.4619 641.9375 35.625 C 641.51351 35.4619 640.72446 35.303694 639.78125 35.1875 Z M 631.90625 37.78125 C 630.71342 37.964395 629.54627 38.158574 628.375 38.46875 C 629.54627 38.158574 630.71342 37.964395 631.90625 37.78125 Z M 605.84375 185.1562 C 606.06599 185.32582 606.4 185.5096 607.09375 185.62495 C 606.4 185.5096 606.06599 185.32582 605.84375 185.1562 Z M 604.84375 823.8437 L 603.84375 824.12495 L 604.75 824.12495 L 605.125 824.99995 L 606.03125 825.56245 L 606.90625 825.46875 L 608.71875 826.71875 L 609.71875 827.15625 L 610.59375 827.8125 L 611.25 828.6875 L 612.125 829.5 L 612.0625 828.78125 L 612.9375 828.25 L 613.0312 827.34375 L 612.12495 827.43745 L 611.24995 825.56245 L 610.24995 825.37495 L 609.3437 825.46865 L 609.3437 824.5624 L 606.6562 824.1874 L 605.74995 823.84365 L 604.8437 823.84365 L 604.84375 823.8437 Z"/>
    <path id="path41414-7" fill="#8cce55" stroke="#0f380f" stroke-opacity="0.14509804" stroke-linecap="round" stroke-linejoin="round" transform="matrix(1 0 0 1 0.5 1.2670726)" d="M 630.6259506 564.78467 C 630.6259506 566.08891838233 629.56864838233 567.1462206 628.2644 567.1462206 C 626.96015161767 567.1462206 625.9028494 566.08891838233 625.9028494 564.78467 C 625.9028494 563.48042161767 626.96015161767 562.4231194 628.2644 562.4231194 C 629.56864838233 562.4231194 630.6259506 563.48042161767 630.6259506 564.78467 Z"/>
    <path id="path41414-7-0" fill="#8cce55" stroke="#0f380f" stroke-opacity="0.14509804" stroke-linecap="round" stroke-linejoin="round" transform="matrix(1 0 0 1 0.5 1.2670726)" d="M 645.1216206 541.09662 C 645.1216206 542.40086838233 644.06431838233 543.4581706 642.76007 543.4581706 C 641.45582161767 543.4581706 640.3985194 542.40086838233 640.3985194 541.09662 C 640.3985194 539.79237161767 641.45582161767 538.7350694 642.76007 538.7350694 C 644.06431838233 538.7350694 645.1216206 539.79237161767 645.1216206 541.09662 Z"/>
    <path id="path41414-7-9" fill="#8cce55" stroke="#0f380f" stroke-opacity="0.14509804" stroke-linecap="round" stroke-linejoin="round" transform="matrix(1 0 0 1 0.5 1.2670726)" d="M 644.7680406 641.85931 C 644.7680406 643.16355838233 643.71073838233 644.2208606 642.40649 644.2208606 C 641.10224161767 644.2208606 640.0449394 643.16355838233 640.0449394 641.85931 C 640.0449394 640.55506161767 641.10224161767 639.4977594 642.40649 639.4977594 C 643.71073838233 639.4977594 644.7680406 640.55506161767 644.7680406 641.85931 Z"/>
    <path id="path41414-7-3" fill="#8cce55" stroke="#0f380f" stroke-opacity="0.14509804" stroke-linecap="round" stroke-linejoin="round" transform="matrix(1 0 0 1 0.5 1.2670726)" d="M 647.5964706 641.15222 C 647.5964706 642.45646838233 646.53916838233 643.5137706 645.23492 643.5137706 C 643.93067161767 643.5137706 642.8733694 642.45646838233 642.8733694 641.15222 C 642.8733694 639.84797161767 643.93067161767 638.7906694 645.23492 638.7906694 C 646.53916838233 638.7906694 647.5964706 639.84797161767 647.5964706 641.15222 Z"/>
</svg>
