<svg width="1671.094" height="856.39252" viewBox="0 0 1671.094 856.39252" xmlns="http://www.w3.org/2000/svg" xmlns:usvg="https://github.com/RazrFalcon/usvg" usvg:version="0.8.0">
    <defs/>
    <path id="path11648-5" fill="#3e73c5" fill-opacity="0.42857145" stroke="#000000" stroke-opacity="0.24675323" stroke-linecap="round" stroke-linejoin="round" transform="matrix(1 0 0 1 0.5 1.2670726)" d="M 458.875 487.59375 C 458.56886 487.62585 458.30149 487.82851 458.21875 488.125 C 458.13605 488.42149 458.25465 488.75156 458.5 488.9375 L 459.5 489.75 C 459.5748 489.807 459.65957 489.8494 459.75 489.875 L 460.65625 490.15625 C 461.00583 490.27417 461.39131 490.10805 461.5625 489.78125 C 461.7337 489.45445 461.6397 489.06398 461.34375 488.84375 L 460.4375 488.125 C 460.37 488.0823 460.29619 488.0507 460.21875 488.0313 L 459.4375 487.75005 L 459.21875 487.65635 C 459.11068 487.60875 458.99291 487.58735 458.875 487.59385 Z M 454.90625 487.96875 C 454.84125 487.98125 454.77822 488.00225 454.71875 488.03125 L 453.71875 488.46875 C 453.52204 488.55905 453.37394 488.72995 453.3125 488.9375 L 453.125 489.59375 C 453.0926 489.69454 453.082 489.80105 453.0938 489.90625 L 453.1875 490.78125 C 453.2002 490.90439 453.2431 491.02249 453.3125 491.125 L 453.2813 491.40625 C 453.2553 491.60716 453.3116 491.81004 453.43755 491.96875 L 452.62505 492.28125 L 452.59385 492.28125 L 452.53135 492.31245 L 450.8126 492.6562 C 450.746 492.6785 450.6829 492.7101 450.6251 492.7499 L 448.1251 494.09365 C 448.0932 494.10165 448.0619 494.11245 448.0314 494.12485 C 448.03239 493.91022 447.9414 493.70544 447.7814 493.56235 L 447 492.875 L 446.8125 492.375 L 446.96875 491.65625 C 447.03985 491.36045 446.93415 491.05312 446.6875 490.875 C 446.44086 490.69688 446.10219 490.68326 445.84375 490.8438 L 445.40625 491.0938 C 445.2889 491.1605 445.19173 491.2577 445.125 491.37505 L 444.6875 492.12505 C 444.6557 492.19435 444.6346 492.26813 444.625 492.3438 C 444.6136 492.3641 444.6032 492.385 444.5938 492.4063 C 444.35582 492.60915 444.15355 492.75213 443.93755 492.93755 C 443.92615 492.95785 443.91575 492.97875 443.90635 493.00005 C 443.87855 493.01905 443.87935 493.00083 443.84385 493.03125 C 443.02802 493.73137 442.68831 494.02419 442.3751 494.46875 C 442.06189 494.91331 441.8422 495.38244 441.1251 496.5625 C 441.0316 496.73465 441.00918 496.93653 441.0626 497.125 C 441.06173 497.1458 441.06173 497.1667 441.0626 497.1875 L 440.90635 497.90625 L 440.75 498.75 C 440.7341 498.8008 440.7236 498.8532 440.7188 498.90625 L 440.7188 498.96875 L 440.7188 499.125 L 440.7188 499.1562 L 440.7188 499.1874 L 440.5938 499.8749 C 440.6008 499.8527 440.6146 499.8333 440.625 499.8124 C 440.62413 499.8332 440.62413 499.8541 440.625 499.8749 C 440.6146 499.87468 440.6042 499.87468 440.5938 499.8749 C 440.5813 499.9054 440.5709 499.9367 440.5626 499.9686 L 440.5626 499.9998 C 440.5519 500.0099 440.5415 500.0203 440.5314 500.031 L 440.0939 500.68725 L 440.0939 500.71845 L 439.4689 501.59345 C 439.4575 501.61375 439.4471 501.63465 439.4377 501.65595 L 439.1252 502.1872 C 438.97215 502.44043 438.98768 502.75667 439.1564 502.9997 C 439.32518 503.24275 439.61566 503.36715 439.9064 503.3122 L 440.31265 503.2497 L 440.5314 503.3122 C 440.63219 503.3446 440.7387 503.3552 440.8439 503.3434 C 440.8543 503.34362 440.8647 503.34362 440.8751 503.3434 C 440.8855 503.34362 440.8959 503.34362 440.9063 503.3434 C 440.9904 503.4041 441.08617 503.44662 441.18755 503.4684 C 441.19795 503.46862 441.20835 503.46862 441.21875 503.4684 L 441.65625 503.5621 L 441.9375 504.4371 L 441.9375 504.4683 L 442.15625 505.3433 C 442.18725 505.47246 442.25195 505.59109 442.34375 505.68705 L 442.5625 505.9058 L 442.5937 505.937 L 443.2812 506.71825 C 443.3108 506.74135 443.3422 506.76235 443.3749 506.78075 C 443.37468 506.79115 443.37468 506.80155 443.3749 506.81195 L 443.4999 507.37445 L 443.4999 507.40565 L 443.34365 508.15565 C 443.34165 508.18685 443.34165 508.21815 443.34365 508.24935 C 443.34278 508.27015 443.34278 508.29105 443.34365 508.31185 C 443.34343 508.32225 443.34343 508.33265 443.34365 508.34305 L 443.1874 509.03055 C 443.1715 509.08135 443.161 509.13375 443.1562 509.1868 L 443.1562 509.218 L 443.1562 509.2805 L 443.0625 509.968 C 443.0605 509.9992 443.0605 510.0305 443.0625 510.0617 L 443.0625 510.0929 C 443.0645 510.1898 443.0862 510.28532 443.125 510.37415 L 443.40625 511.0929 C 443.47365 511.25413 443.59523 511.38676 443.75 511.4679 C 443.7896 511.4926 443.8315 511.5135 443.875 511.5304 L 443.9062 511.5304 C 443.9163 511.5411 443.9267 511.5515 443.9374 511.5616 L 443.9686 511.5616 L 444.2186 511.78035 C 444.2389 511.79175 444.2598 511.80215 444.2811 511.81155 C 444.2912 511.82225 444.3016 511.83265 444.3123 511.84275 C 444.3224 511.85345 444.3328 511.86385 444.3435 511.87395 C 444.3631 511.89595 444.384 511.91685 444.406 511.93645 L 444.62475 512.12395 L 444.65595 512.15515 L 445 512.8125 C 445.0827 512.98467 445.22802 513.11879 445.40625 513.1875 L 445.875 513.34375 C 445.956 513.36815 446.0405 513.37875 446.125 513.37495 L 446.1562 513.37495 C 446.1874 513.37695 446.2187 513.37695 446.2499 513.37495 L 446.9374 513.28125 L 447.8124 513.37495 C 447.8436 513.37695 447.8749 513.37695 447.9061 513.37495 L 448.74985 513.37495 L 448.78105 513.37495 L 449.5623 513.5312 C 449.6131 513.5471 449.6655 513.5576 449.71855 513.5624 L 449.74975 513.5624 C 449.80275 513.5574 449.85517 513.5471 449.906 513.5312 L 450.5935 513.37495 L 450.6872 513.37495 C 450.7629 513.36495 450.83664 513.34425 450.90595 513.31245 L 451.6247 513.0312 L 452.28095 513.1562 L 452.37465 513.1874 L 453.12465 513.5624 C 453.24221 513.6151 453.37136 513.6366 453.49965 513.6249 L 454.2184 513.5624 L 454.5934 514.0624 C 454.6118 514.0952 454.6328 514.1265 454.6559 514.1561 L 454.87465 514.3436 L 454.90585 514.4061 C 454.92545 514.4281 454.94635 514.449 454.96835 514.4686 L 454.99955 514.4686 C 455.00965 514.4793 455.02005 514.4897 455.03075 514.4998 L 455.312 514.8748 C 455.3224 514.87502 455.3328 514.87502 455.3432 514.8748 L 455.3744 514.906 C 455.37418 514.9164 455.37418 514.9268 455.3744 514.9372 L 455.4056 514.9372 C 455.4157 514.9479 455.4261 514.9583 455.4368 514.9684 L 455.90555 515.62465 C 455.90533 515.63505 455.90533 515.64545 455.90555 515.65585 C 455.93455 515.73525 455.97685 515.80925 456.03055 515.8746 L 456.84305 516.8746 C 456.85315 516.8853 456.86355 516.8957 456.87425 516.9058 L 457.2805 517.3433 C 457.40102 517.48103 457.56773 517.56994 457.74925 517.5933 L 458.43675 517.687 C 458.59904 517.7077 458.76366 517.6748 458.9055 517.5933 L 459.62425 517.1558 L 460.343 517.2495 L 460.3742 517.2495 L 461.09295 517.46825 C 461.23554 517.51175 461.38786 517.51175 461.53045 517.46825 L 462.1875 517.25 C 462.1979 517.24935 462.2084 517.251 462.2187 517.25 L 462.2499 517.25 L 463.0624 517.25 L 463.0936 517.25 C 463.1144 517.25087 463.1353 517.25087 463.1561 517.25 L 464.06235 517.1563 C 464.13805 517.1463 464.21179 517.1256 464.2811 517.0938 L 465.0936 516.7813 L 465.7811 516.7813 L 466.12485 516.93755 L 466.12485 516.96875 C 466.10895 517.01955 466.09845 517.07195 466.09365 517.125 L 466.09365 517.75 L 465.59365 518.5625 C 465.49425 518.70917 465.44995 518.8863 465.46865 519.0625 L 465.53115 519.59375 L 464.9374 520.0625 C 464.75735 520.20665 464.65363 520.42562 464.65615 520.65625 L 464.65615 521.375 L 464.65615 521.4062 C 464.65315 521.4478 464.65315 521.4896 464.65615 521.5312 L 464.74985 521.93745 L 464.74985 521.99995 L 464.71865 522.03115 C 464.68685 522.10045 464.66575 522.17423 464.65615 522.2499 C 464.65593 522.2603 464.65593 522.2707 464.65615 522.2811 L 464.65615 522.3123 L 464.62495 522.4373 C 464.60905 522.4881 464.59855 522.5405 464.59375 522.59355 L 464.59375 522.68725 C 464.57975 522.72795 464.56935 522.76975 464.56255 522.81225 L 464.50005 523.7185 C 464.49205 523.7807 464.49205 523.84375 464.50005 523.906 L 464.6563 524.656 L 464.6563 524.7497 L 464.6563 525.5622 C 464.6583 525.6591 464.68 525.75462 464.7188 525.84345 L 465.00005 526.53095 L 465.00005 526.56215 C 465.00705 526.60465 465.01735 526.64645 465.03125 526.68715 L 465.06245 526.71835 C 465.06945 526.76085 465.07975 526.80265 465.09365 526.84335 L 465.18735 526.96835 L 465.18735 526.99955 L 465.21855 527.03075 C 465.21833 527.04115 465.21833 527.05155 465.21855 527.06195 L 465.46855 527.93695 C 465.51375 528.10024 465.61286 528.24343 465.7498 528.3432 L 466.53105 528.87445 L 466.9373 529.49945 L 466.7498 529.9682 L 466.34355 530.24945 C 466.30955 530.27785 466.27825 530.30925 466.24985 530.34315 L 466.21865 530.37435 L 465.28115 531.2181 C 465.24565 531.2564 465.21425 531.2983 465.18745 531.3431 L 464.93745 531.68685 C 464.79546 531.88118 464.76945 532.14541 464.84375 532.37435 C 464.91805 532.60325 465.08349 532.7691 465.3125 532.8431 L 465.9375 533.0306 L 466.65625 533.87435 C 466.66635 533.88505 466.67675 533.89545 466.68745 533.90555 L 466.71865 533.93675 C 466.73825 533.95875 466.75915 533.97965 466.78115 533.99925 L 467.46865 534.5305 L 467.46865 535.12425 C 467.46665 535.23169 467.48815 535.33826 467.53115 535.43675 L 467.8749 536.12425 L 467.8749 536.15545 C 467.8669 536.29701 467.8996 536.43786 467.9686 536.5617 L 468.24985 537.09295 C 468.25685 537.13545 468.26715 537.17725 468.28105 537.21795 L 468.53105 537.96795 L 468.53105 538.03045 C 468.54005 538.05175 468.55095 538.07265 468.56225 538.09295 L 468.56225 538.12415 L 468.74975 538.9679 C 468.74953 538.9783 468.74953 538.9887 468.74975 538.9991 L 468.9685 539.8116 C 469.0137 539.97489 469.11281 540.11808 469.24975 540.21785 C 470.01043 540.78694 470.52688 541.26423 470.906 541.6241 C 471.3203 542.01737 471.57178 542.30609 471.99975 542.4991 C 472.17076 542.5762 472.43947 542.65328 472.68725 542.6241 C 472.93503 542.5949 473.12759 542.50803 473.3435 542.40535 C 473.72238 542.22517 474.28281 541.88449 474.906 541.46785 L 475.37475 541.7491 L 475.37475 541.7803 C 475.44275 542.07909 475.69712 542.29465 475.99975 542.3428 C 476.30238 542.3909 476.59239 542.262 476.74975 541.99905 L 476.81225 541.90535 L 477.5935 541.4366 C 477.6509 541.4021 477.70348 541.3601 477.74975 541.3116 L 477.81225 541.2491 C 477.82295 541.239 477.83335 541.2286 477.84345 541.2179 L 478.53095 540.43665 L 478.6872 540.37415 L 478.7809 540.34295 C 478.7913 540.34317 478.8017 540.34317 478.8121 540.34295 L 479.5621 540.09295 L 479.5933 540.09295 C 479.6252 540.08495 479.6565 540.07415 479.687 540.06175 C 479.80201 540.03495 479.90908 539.98145 479.9995 539.9055 L 480.65575 539.31175 L 481.21825 539.37425 C 481.41916 539.40025 481.62204 539.34395 481.78075 539.218 L 482.53075 538.62425 C 482.65607 538.51964 482.74384 538.37701 482.78075 538.218 L 482.937 537.56175 C 482.9484 537.54145 482.9588 537.52055 482.9682 537.49925 C 482.9789 537.48915 482.9893 537.47875 482.9994 537.46805 L 483.3119 536.8118 L 483.84315 536.7806 C 483.96629 536.7679 484.08439 536.725 484.1869 536.6556 L 485.03125 536.0625 L 485.125 536 C 485.1698 535.9732 485.2117 535.9418 485.25 535.9063 L 485.75 535.62505 C 486.04184 535.45358 486.18267 535.10789 486.09375 534.7813 L 485.9375 534.2188 C 485.8596 533.91144 485.5969 533.68625 485.28125 533.6563 L 484.59375 533.5938 C 484.57295 533.59293 484.55205 533.59293 484.53125 533.5938 L 484.50005 533.5938 C 484.47925 533.59293 484.45835 533.59293 484.43755 533.5938 L 483.62505 533.6875 L 483.2188 533.46875 L 483.3438 533.09375 C 483.391 532.92843 483.38 532.75191 483.3126 532.59375 L 482.9376 531.71875 C 482.9128 531.66305 482.8813 531.61058 482.8439 531.5625 L 482.8125 531.5 C 482.8024 531.4893 482.792 531.4789 482.7813 531.4688 L 482.7501 531.4376 L 482.3126 530.78135 L 482.3126 530.1251 L 482.3126 530.0626 C 482.31282 530.0522 482.31282 530.0418 482.3126 530.0314 L 482.4063 529.31265 C 482.4203 529.16068 482.3876 529.00805 482.3126 528.87515 L 481.90635 528.0939 C 481.84825 527.98043 481.76223 527.88363 481.65635 527.81265 L 480.9376 527.37515 L 480.8751 527.31265 L 480.40635 526.7814 C 480.48905 526.7954 480.5736 526.7954 480.65635 526.7814 L 481.34385 526.6877 C 481.35425 526.68792 481.36465 526.68792 481.37505 526.6877 L 481.9688 526.8752 L 482 526.9064 L 482.75 527.5939 C 482.9114 527.73948 483.12802 527.80788 483.34375 527.7814 L 484 527.6875 L 484.0625 527.6875 L 484.6875 527.96875 C 484.87699 528.05045 485.09176 528.05045 485.28125 527.96875 L 485.875 527.6875 L 486.53125 528.28125 L 487.15625 529.0625 C 487.344 529.29346 487.65055 529.39155 487.9375 529.3125 L 488.5 529.15625 C 488.82846 529.07145 489.05911 528.77672 489.0625 528.4375 L 489.0625 527.3125 L 489.40625 527.3125 C 489.57566 527.3145 489.74088 527.2598 489.875 527.15625 L 490.46875 526.6875 L 491.125 526.90625 C 491.27724 526.95635 491.44151 526.95635 491.59375 526.90625 L 492.40625 526.65625 C 492.44975 526.63935 492.49165 526.61845 492.53125 526.59375 L 493.15625 526.25 C 493.16665 526.24935 493.17715 526.251 493.18745 526.25 L 493.93745 526.25 C 494.11067 526.244 494.27631 526.1773 494.4062 526.0625 L 495.24995 525.375 L 495.28115 525.3125 L 495.31235 525.3437 L 495.99985 525.06245 L 496.06235 525.06245 L 496.15605 525.03125 L 496.6873 524.96875 C 496.90641 524.93815 497.10083 524.81233 497.21855 524.625 L 497.65605 523.9375 L 498.34355 523.59375 C 498.47674 523.52335 498.58563 523.41444 498.65605 523.28125 L 499 522.59375 C 499.12443 522.35614 499.11251 522.07018 498.9688 521.84375 L 498.4688 521.09375 C 498.442 521.04895 498.4106 521.00705 498.3751 520.96875 L 498.3439 520.93755 L 497.50015 520.12505 L 497.46895 520.06255 C 497.44935 520.04055 497.42845 520.01965 497.40645 520.00005 L 496.71895 519.12505 C 496.70885 519.11435 496.69845 519.10395 496.68775 519.09385 L 495.87525 518.2501 L 495.84405 518.2189 C 495.82975 518.2018 495.82915 518.1714 495.81285 518.1564 L 495.5941 517.8439 L 495.7816 517.62515 L 495.8128 517.56265 C 495.8483 517.52435 495.8797 517.48245 495.9065 517.43765 L 496.56275 516.81265 C 496.73707 516.6297 496.80755 516.37127 496.75025 516.12515 L 496.594 515.37515 L 496.5003 514.7814 L 496.96905 514.7189 L 497.00025 514.7189 C 497.02105 514.71977 497.04195 514.71977 497.06275 514.7189 C 497.09465 514.7109 497.12595 514.7001 497.15645 514.6877 L 498.03145 514.5002 C 498.07395 514.4932 498.11575 514.4829 498.15645 514.469 L 499 514.125 L 499.75 513.8125 C 499.91123 513.7451 500.04386 513.62352 500.125 513.46875 L 500.4375 512.84375 C 500.56255 512.60282 500.55533 512.32061 500.4063 512.09375 C 500.25724 511.86693 499.98957 511.73082 499.7188 511.75 L 499.2813 511.7812 L 499.1563 511.3437 C 499.1394 511.3002 499.1185 511.2583 499.0938 511.2187 L 499.0626 511.1562 C 499.0442 511.1234 499.0232 511.0921 499.0001 511.0625 L 498.6251 510.5625 L 499.03135 510.03125 C 499.04355 510.02325 499.05125 510.00945 499.06255 510.00005 L 499.7813 509.5938 L 499.8438 509.5626 C 499.8545 509.5525 499.8649 509.5421 499.875 509.5314 C 499.8963 509.5224 499.9172 509.5115 499.9375 509.5002 L 499.9687 509.469 L 500.0312 509.4378 C 500.0996 509.4058 500.16285 509.3637 500.2187 509.3128 L 500.43745 509.0628 L 500.5 509 C 500.506 508.995 500.5258 509.005 500.5312 509 L 501.3437 508.5 C 501.3885 508.4732 501.4304 508.4418 501.4687 508.4063 L 501.6562 508.2188 L 501.6874 508.1876 C 501.7229 508.1493 501.7543 508.1074 501.7811 508.0626 L 501.93735 507.78135 L 501.96855 507.75015 L 502.03105 507.68765 L 502.34355 507.4689 C 502.5025 507.34561 502.60129 507.16869 502.6248 506.9689 C 502.6483 506.76911 502.5945 506.56321 502.46855 506.4064 L 502.03105 505.9064 L 501.96855 505.8127 L 501.93735 505.8127 L 501.93735 505.7815 L 501.93735 505.7503 C 501.94845 505.39948 501.71473 505.0879 501.37485 505.0003 L 500.4686 504.7503 C 500.36781 504.7179 500.2613 504.7073 500.1561 504.7191 L 499.25 504.875 C 499.12397 504.8969 499.00563 504.9507 498.90625 505.03125 L 498.34375 504.84375 C 498.25285 504.81555 498.15738 504.80495 498.0625 504.81255 L 497.15625 504.87505 C 497.06995 504.88105 496.98535 504.90245 496.90625 504.93755 L 496.71875 505.03125 L 497.1875 503.40625 L 498.15625 502.34375 C 498.2895 502.19486 498.35548 502.01197 498.34375 501.8125 C 498.33205 501.61303 498.24354 501.41349 498.09375 501.28125 L 497.1875 500.46875 C 497.04948 500.34703 496.87152 500.2803 496.6875 500.28125 L 496 500.28125 L 494.46875 499.34375 C 494.34822 499.26375 494.20714 499.22037 494.0625 499.21875 L 493.09375 499.21875 L 492.9375 499.03125 C 492.8912 498.98275 492.8387 498.94075 492.78125 498.90625 L 491.875 498.34375 C 491.75447 498.26375 491.61339 498.22037 491.46875 498.21875 L 491.09375 498.21875 C 490.89465 498.21827 490.70353 498.29695 490.5625 498.4375 L 489.78125 497.5625 C 489.69765 497.4639 489.59003 497.38852 489.46875 497.34375 L 489.40625 497.25005 L 490.34375 497.28125 C 490.48531 497.28925 490.62616 497.25655 490.75 497.18755 L 491.53125 496.7188 L 491.65625 496.6563 L 492.40625 496.4063 L 492.53125 496.3751 C 492.93683 496.27155 493.16606 495.87443 493.0625 495.46885 C 492.95894 495.06327 492.56183 494.8028 492.15625 494.90635 L 492.03125 494.93755 L 491.3125 495.06255 L 491.25 495.06255 L 488.65625 494.81255 C 488.58375 494.80185 488.51002 494.80185 488.4375 494.81255 L 487.59375 495.00005 L 486.84375 494.90635 C 486.75925 494.90235 486.67473 494.91335 486.59375 494.93755 L 485.03125 495.31255 L 484.125 495.1563 C 484.0834 495.1533 484.0416 495.1533 484 495.1563 C 484.19182 495.0186 484.3076 494.79862 484.3125 494.56255 L 484.3125 493.6563 C 484.3155 493.36648 484.16681 493.09574 483.90625 492.9688 C 483.64567 492.84185 483.32003 492.8814 483.09375 493.0625 L 482.34375 493.65625 L 481.53125 493.8125 C 481.21291 493.8663 480.95587 494.11849 480.90625 494.4375 C 480.85665 494.75651 481.02555 495.07079 481.3125 495.21875 L 482.09375 495.625 L 481.90625 495.6875 C 481.64527 495.7916 481.46436 496.03282 481.4375 496.3125 L 481.03125 496.5 C 480.99935 496.508 480.96805 496.5188 480.93755 496.5312 L 479.12505 497.5937 C 479.03775 497.6506 478.96322 497.72513 478.9063 497.81245 L 478.8751 497.87495 L 477.5001 497.87495 L 475.6251 497.3437 C 475.5844 497.3297 475.5426 497.3193 475.5001 497.3125 L 474.8751 497.2813 L 473.84385 496.37505 L 473.75015 496.06255 C 473.67545 495.79496 473.45906 495.59055 473.18765 495.5313 L 472.2814 495.3438 C 472.2295 495.3388 472.17709 495.3388 472.12515 495.3438 L 469.87515 495.3438 C 469.83355 495.3408 469.79175 495.3408 469.75015 495.3438 L 465.68765 495.9688 L 464.25015 495.9688 L 463.75015 495.68755 L 463.93765 495.18755 C 464.01005 494.96611 463.97535 494.72362 463.84395 494.5313 L 462.84395 493.00005 C 462.78705 492.91275 462.71252 492.83822 462.6252 492.7813 L 460.84395 491.5938 C 460.74144 491.5244 460.62334 491.48146 460.5002 491.4688 L 457.40645 491.2188 L 456.8752 490.9063 L 456.6877 490.37505 L 456.594 489.56255 C 456.5807 489.40023 456.5148 489.24666 456.4065 489.12505 L 455.594 488.2188 C 455.42376 488.02179 455.16352 487.92716 454.9065 487.9688 Z"/>
    <path id="path7162" fill="#8cce55" stroke="#0f380f" stroke-opacity="0.14509804" stroke-linecap="round" stroke-linejoin="round" transform="matrix(1 0 0 1 0.5 1.2670726)" d="M 458.875 487.59375 C 458.56886 487.62585 458.30149 487.82851 458.21875 488.125 C 458.13605 488.42149 458.25465 488.75156 458.5 488.9375 L 459.5 489.75 C 459.5748 489.807 459.65957 489.8494 459.75 489.875 L 460.65625 490.15625 C 461.00583 490.27417 461.39131 490.10805 461.5625 489.78125 C 461.7337 489.45445 461.6397 489.06398 461.34375 488.84375 L 460.4375 488.125 C 460.37 488.0823 460.29619 488.0507 460.21875 488.0313 L 459.4375 487.75005 L 459.21875 487.65635 C 459.11068 487.60875 458.99291 487.58735 458.875 487.59385 Z"/>
    <path id="path11648" fill="#8cce55" stroke="#0f380f" stroke-opacity="0.14509804" stroke-linecap="round" stroke-linejoin="round" transform="matrix(1 0 0 1 0.5 1.2670726)" d="M 454.90625 487.96875 C 454.84125 487.98125 454.77822 488.00225 454.71875 488.03125 L 453.71875 488.46875 C 453.52204 488.55905 453.37394 488.72995 453.3125 488.9375 L 453.125 489.59375 C 453.0926 489.69454 453.082 489.80105 453.0938 489.90625 L 453.1875 490.78125 C 453.2002 490.90439 453.2431 491.02249 453.3125 491.125 L 453.2813 491.40625 C 453.2553 491.60716 453.3116 491.81004 453.43755 491.96875 L 452.62505 492.28125 L 452.59385 492.28125 L 452.53135 492.31245 L 450.8126 492.6562 C 450.746 492.6785 450.6829 492.7101 450.6251 492.7499 L 448.1251 494.09365 C 448.0932 494.10165 448.0619 494.11245 448.0314 494.12485 C 448.03239 493.91022 447.9414 493.70544 447.7814 493.56235 L 447 492.875 L 446.8125 492.375 L 446.96875 491.65625 C 447.03985 491.36045 446.93415 491.05312 446.6875 490.875 C 446.44086 490.69688 446.10219 490.68326 445.84375 490.8438 L 445.40625 491.0938 C 445.2889 491.1605 445.19173 491.2577 445.125 491.37505 L 444.6875 492.12505 C 444.6557 492.19435 444.6346 492.26813 444.625 492.3438 C 444.6136 492.3641 444.6032 492.385 444.5938 492.4063 C 444.35582 492.60915 444.15355 492.75213 443.93755 492.93755 C 443.92615 492.95785 443.91575 492.97875 443.90635 493.00005 C 443.87855 493.01905 443.87935 493.00083 443.84385 493.03125 C 443.02802 493.73137 442.68831 494.02419 442.3751 494.46875 C 442.06189 494.91331 441.8422 495.38244 441.1251 496.5625 C 441.0316 496.73465 441.00918 496.93653 441.0626 497.125 C 441.06173 497.1458 441.06173 497.1667 441.0626 497.1875 L 440.90635 497.90625 L 440.75 498.75 C 440.7341 498.8008 440.7236 498.8532 440.7188 498.90625 L 440.7188 498.96875 L 440.7188 499.125 L 440.7188 499.1562 L 440.7188 499.1874 L 440.5938 499.8749 C 440.6008 499.8527 440.6146 499.8333 440.625 499.8124 C 440.62413 499.8332 440.62413 499.8541 440.625 499.8749 C 440.6146 499.87468 440.6042 499.87468 440.5938 499.8749 C 440.5813 499.9054 440.5709 499.9367 440.5626 499.9686 L 440.5626 499.9998 C 440.5519 500.0099 440.5415 500.0203 440.5314 500.031 L 440.0939 500.68725 L 440.0939 500.71845 L 439.4689 501.59345 C 439.4575 501.61375 439.4471 501.63465 439.4377 501.65595 L 439.1252 502.1872 C 438.97215 502.44043 438.98768 502.75667 439.1564 502.9997 C 439.32518 503.24275 439.61566 503.36715 439.9064 503.3122 L 440.31265 503.2497 L 440.5314 503.3122 C 440.63219 503.3446 440.7387 503.3552 440.8439 503.3434 C 440.8543 503.34362 440.8647 503.34362 440.8751 503.3434 C 440.8855 503.34362 440.8959 503.34362 440.9063 503.3434 C 440.9904 503.4041 441.08617 503.44662 441.18755 503.4684 C 441.19795 503.46862 441.20835 503.46862 441.21875 503.4684 L 441.65625 503.5621 L 441.9375 504.4371 L 441.9375 504.4683 L 442.15625 505.3433 C 442.18725 505.47246 442.25195 505.59109 442.34375 505.68705 L 442.5625 505.9058 L 442.5937 505.937 L 443.2812 506.71825 C 443.3108 506.74135 443.3422 506.76235 443.3749 506.78075 C 443.37468 506.79115 443.37468 506.80155 443.3749 506.81195 L 443.4999 507.37445 L 443.4999 507.40565 L 443.34365 508.15565 C 443.34165 508.18685 443.34165 508.21815 443.34365 508.24935 C 443.34278 508.27015 443.34278 508.29105 443.34365 508.31185 C 443.34343 508.32225 443.34343 508.33265 443.34365 508.34305 L 443.1874 509.03055 C 443.1715 509.08135 443.161 509.13375 443.1562 509.1868 L 443.1562 509.218 L 443.1562 509.2805 L 443.0625 509.968 C 443.0605 509.9992 443.0605 510.0305 443.0625 510.0617 L 443.0625 510.0929 C 443.0645 510.1898 443.0862 510.28532 443.125 510.37415 L 443.40625 511.0929 C 443.47365 511.25413 443.59523 511.38676 443.75 511.4679 C 443.7896 511.4926 443.8315 511.5135 443.875 511.5304 L 443.9062 511.5304 C 443.9163 511.5411 443.9267 511.5515 443.9374 511.5616 L 443.9686 511.5616 L 444.2186 511.78035 C 444.2389 511.79175 444.2598 511.80215 444.2811 511.81155 C 444.2912 511.82225 444.3016 511.83265 444.3123 511.84275 C 444.3224 511.85345 444.3328 511.86385 444.3435 511.87395 C 444.3631 511.89595 444.384 511.91685 444.406 511.93645 L 444.62475 512.12395 L 444.65595 512.15515 L 445 512.8125 C 445.0827 512.98467 445.22802 513.11879 445.40625 513.1875 L 445.875 513.34375 C 445.956 513.36815 446.0405 513.37875 446.125 513.37495 L 446.1562 513.37495 C 446.1874 513.37695 446.2187 513.37695 446.2499 513.37495 L 446.9374 513.28125 L 447.8124 513.37495 C 447.8436 513.37695 447.8749 513.37695 447.9061 513.37495 L 448.74985 513.37495 L 448.78105 513.37495 L 449.5623 513.5312 C 449.6131 513.5471 449.6655 513.5576 449.71855 513.5624 L 449.74975 513.5624 C 449.80275 513.5574 449.85517 513.5471 449.906 513.5312 L 450.5935 513.37495 L 450.6872 513.37495 C 450.7629 513.36495 450.83664 513.34425 450.90595 513.31245 L 451.6247 513.0312 L 452.28095 513.1562 L 452.37465 513.1874 L 453.12465 513.5624 C 453.24221 513.6151 453.37136 513.6366 453.49965 513.6249 L 454.2184 513.5624 L 454.5934 514.0624 C 454.6118 514.0952 454.6328 514.1265 454.6559 514.1561 L 454.87465 514.3436 L 454.90585 514.4061 C 454.92545 514.4281 454.94635 514.449 454.96835 514.4686 L 454.99955 514.4686 C 455.00965 514.4793 455.02005 514.4897 455.03075 514.4998 L 455.312 514.8748 C 455.3224 514.87502 455.3328 514.87502 455.3432 514.8748 L 455.3744 514.906 C 455.37418 514.9164 455.37418 514.9268 455.3744 514.9372 L 455.4056 514.9372 C 455.4157 514.9479 455.4261 514.9583 455.4368 514.9684 L 455.90555 515.62465 C 455.90533 515.63505 455.90533 515.64545 455.90555 515.65585 C 455.93455 515.73525 455.97685 515.80925 456.03055 515.8746 L 456.84305 516.8746 C 456.85315 516.8853 456.86355 516.8957 456.87425 516.9058 L 457.2805 517.3433 C 457.40102 517.48103 457.56773 517.56994 457.74925 517.5933 L 458.43675 517.687 C 458.59904 517.7077 458.76366 517.6748 458.9055 517.5933 L 459.62425 517.1558 L 460.343 517.2495 L 460.3742 517.2495 L 461.09295 517.46825 C 461.23554 517.51175 461.38786 517.51175 461.53045 517.46825 L 462.1875 517.25 C 462.1979 517.24935 462.2084 517.251 462.2187 517.25 L 462.2499 517.25 L 463.0624 517.25 L 463.0936 517.25 C 463.1144 517.25087 463.1353 517.25087 463.1561 517.25 L 464.06235 517.1563 C 464.13805 517.1463 464.21179 517.1256 464.2811 517.0938 L 465.0936 516.7813 L 465.7811 516.7813 L 466.12485 516.93755 L 466.12485 516.96875 C 466.10895 517.01955 466.09845 517.07195 466.09365 517.125 L 466.09365 517.75 L 465.59365 518.5625 C 465.49425 518.70917 465.44995 518.8863 465.46865 519.0625 L 465.53115 519.59375 L 464.9374 520.0625 C 464.75735 520.20665 464.65363 520.42562 464.65615 520.65625 L 464.65615 521.375 L 464.65615 521.4062 C 464.65315 521.4478 464.65315 521.4896 464.65615 521.5312 L 464.74985 521.93745 L 464.74985 521.99995 L 464.71865 522.03115 C 464.68685 522.10045 464.66575 522.17423 464.65615 522.2499 C 464.65593 522.2603 464.65593 522.2707 464.65615 522.2811 L 464.65615 522.3123 L 464.62495 522.4373 C 464.60905 522.4881 464.59855 522.5405 464.59375 522.59355 L 464.59375 522.68725 C 464.57975 522.72795 464.56935 522.76975 464.56255 522.81225 L 464.50005 523.7185 C 464.49205 523.7807 464.49205 523.84375 464.50005 523.906 L 464.6563 524.656 L 464.6563 524.7497 L 464.6563 525.5622 C 464.6583 525.6591 464.68 525.75462 464.7188 525.84345 L 465.00005 526.53095 L 465.00005 526.56215 C 465.00705 526.60465 465.01735 526.64645 465.03125 526.68715 L 465.06245 526.71835 C 465.06945 526.76085 465.07975 526.80265 465.09365 526.84335 L 465.18735 526.96835 L 465.18735 526.99955 L 465.21855 527.03075 C 465.21833 527.04115 465.21833 527.05155 465.21855 527.06195 L 465.46855 527.93695 C 465.51375 528.10024 465.61286 528.24343 465.7498 528.3432 L 466.53105 528.87445 L 466.9373 529.49945 L 466.7498 529.9682 L 466.34355 530.24945 C 466.30955 530.27785 466.27825 530.30925 466.24985 530.34315 L 466.21865 530.37435 L 465.28115 531.2181 C 465.24565 531.2564 465.21425 531.2983 465.18745 531.3431 L 464.93745 531.68685 C 464.79546 531.88118 464.76945 532.14541 464.84375 532.37435 C 464.91805 532.60325 465.08349 532.7691 465.3125 532.8431 L 465.9375 533.0306 L 466.65625 533.87435 C 466.66635 533.88505 466.67675 533.89545 466.68745 533.90555 L 466.71865 533.93675 C 466.73825 533.95875 466.75915 533.97965 466.78115 533.99925 L 467.46865 534.5305 L 467.46865 535.12425 C 467.46665 535.23169 467.48815 535.33826 467.53115 535.43675 L 467.8749 536.12425 L 467.8749 536.15545 C 467.8669 536.29701 467.8996 536.43786 467.9686 536.5617 L 468.24985 537.09295 C 468.25685 537.13545 468.26715 537.17725 468.28105 537.21795 L 468.53105 537.96795 L 468.53105 538.03045 C 468.54005 538.05175 468.55095 538.07265 468.56225 538.09295 L 468.56225 538.12415 L 468.74975 538.9679 C 468.74953 538.9783 468.74953 538.9887 468.74975 538.9991 L 468.9685 539.8116 C 469.0137 539.97489 469.11281 540.11808 469.24975 540.21785 C 470.01043 540.78694 470.52688 541.26423 470.906 541.6241 C 471.3203 542.01737 471.57178 542.30609 471.99975 542.4991 C 472.17076 542.5762 472.43947 542.65328 472.68725 542.6241 C 472.93503 542.5949 473.12759 542.50803 473.3435 542.40535 C 473.72238 542.22517 474.28281 541.88449 474.906 541.46785 L 475.37475 541.7491 L 475.37475 541.7803 C 475.44275 542.07909 475.69712 542.29465 475.99975 542.3428 C 476.30238 542.3909 476.59239 542.262 476.74975 541.99905 L 476.81225 541.90535 L 477.5935 541.4366 C 477.6509 541.4021 477.70348 541.3601 477.74975 541.3116 L 477.81225 541.2491 C 477.82295 541.239 477.83335 541.2286 477.84345 541.2179 L 478.53095 540.43665 L 478.6872 540.37415 L 478.7809 540.34295 C 478.7913 540.34317 478.8017 540.34317 478.8121 540.34295 L 479.5621 540.09295 L 479.5933 540.09295 C 479.6252 540.08495 479.6565 540.07415 479.687 540.06175 C 479.80201 540.03495 479.90908 539.98145 479.9995 539.9055 L 480.65575 539.31175 L 481.21825 539.37425 C 481.41916 539.40025 481.62204 539.34395 481.78075 539.218 L 482.53075 538.62425 C 482.65607 538.51964 482.74384 538.37701 482.78075 538.218 L 482.937 537.56175 C 482.9484 537.54145 482.9588 537.52055 482.9682 537.49925 C 482.9789 537.48915 482.9893 537.47875 482.9994 537.46805 L 483.3119 536.8118 L 483.84315 536.7806 C 483.96629 536.7679 484.08439 536.725 484.1869 536.6556 L 485.03125 536.0625 L 485.125 536 C 485.1698 535.9732 485.2117 535.9418 485.25 535.9063 L 485.75 535.62505 C 486.04184 535.45358 486.18267 535.10789 486.09375 534.7813 L 485.9375 534.2188 C 485.8596 533.91144 485.5969 533.68625 485.28125 533.6563 L 484.59375 533.5938 C 484.57295 533.59293 484.55205 533.59293 484.53125 533.5938 L 484.50005 533.5938 C 484.47925 533.59293 484.45835 533.59293 484.43755 533.5938 L 483.62505 533.6875 L 483.2188 533.46875 L 483.3438 533.09375 C 483.391 532.92843 483.38 532.75191 483.3126 532.59375 L 482.9376 531.71875 C 482.9128 531.66305 482.8813 531.61058 482.8439 531.5625 L 482.8125 531.5 C 482.8024 531.4893 482.792 531.4789 482.7813 531.4688 L 482.7501 531.4376 L 482.3126 530.78135 L 482.3126 530.1251 L 482.3126 530.0626 C 482.31282 530.0522 482.31282 530.0418 482.3126 530.0314 L 482.4063 529.31265 C 482.4203 529.16068 482.3876 529.00805 482.3126 528.87515 L 481.90635 528.0939 C 481.84825 527.98043 481.76223 527.88363 481.65635 527.81265 L 480.9376 527.37515 L 480.8751 527.31265 L 480.40635 526.7814 C 480.48905 526.7954 480.5736 526.7954 480.65635 526.7814 L 481.34385 526.6877 C 481.35425 526.68792 481.36465 526.68792 481.37505 526.6877 L 481.9688 526.8752 L 482 526.9064 L 482.75 527.5939 C 482.9114 527.73948 483.12802 527.80788 483.34375 527.7814 L 484 527.6875 L 484.0625 527.6875 L 484.6875 527.96875 C 484.87699 528.05045 485.09176 528.05045 485.28125 527.96875 L 485.875 527.6875 L 486.53125 528.28125 L 487.15625 529.0625 C 487.344 529.29346 487.65055 529.39155 487.9375 529.3125 L 488.5 529.15625 C 488.82846 529.07145 489.05911 528.77672 489.0625 528.4375 L 489.0625 527.3125 L 489.40625 527.3125 C 489.57566 527.3145 489.74088 527.2598 489.875 527.15625 L 490.46875 526.6875 L 491.125 526.90625 C 491.27724 526.95635 491.44151 526.95635 491.59375 526.90625 L 492.40625 526.65625 C 492.44975 526.63935 492.49165 526.61845 492.53125 526.59375 L 493.15625 526.25 C 493.16665 526.24935 493.17715 526.251 493.18745 526.25 L 493.93745 526.25 C 494.11067 526.244 494.27631 526.1773 494.4062 526.0625 L 495.24995 525.375 L 495.28115 525.3125 L 495.31235 525.3437 L 495.99985 525.06245 L 496.06235 525.06245 L 496.15605 525.03125 L 496.6873 524.96875 C 496.90641 524.93815 497.10083 524.81233 497.21855 524.625 L 497.65605 523.9375 L 498.34355 523.59375 C 498.47674 523.52335 498.58563 523.41444 498.65605 523.28125 L 499 522.59375 C 499.12443 522.35614 499.11251 522.07018 498.9688 521.84375 L 498.4688 521.09375 C 498.442 521.04895 498.4106 521.00705 498.3751 520.96875 L 498.3439 520.93755 L 497.50015 520.12505 L 497.46895 520.06255 C 497.44935 520.04055 497.42845 520.01965 497.40645 520.00005 L 496.71895 519.12505 C 496.70885 519.11435 496.69845 519.10395 496.68775 519.09385 L 495.87525 518.2501 L 495.84405 518.2189 C 495.82975 518.2018 495.82915 518.1714 495.81285 518.1564 L 495.5941 517.8439 L 495.7816 517.62515 L 495.8128 517.56265 C 495.8483 517.52435 495.8797 517.48245 495.9065 517.43765 L 496.56275 516.81265 C 496.73707 516.6297 496.80755 516.37127 496.75025 516.12515 L 496.594 515.37515 L 496.5003 514.7814 L 496.96905 514.7189 L 497.00025 514.7189 C 497.02105 514.71977 497.04195 514.71977 497.06275 514.7189 C 497.09465 514.7109 497.12595 514.7001 497.15645 514.6877 L 498.03145 514.5002 C 498.07395 514.4932 498.11575 514.4829 498.15645 514.469 L 499 514.125 L 499.75 513.8125 C 499.91123 513.7451 500.04386 513.62352 500.125 513.46875 L 500.4375 512.84375 C 500.56255 512.60282 500.55533 512.32061 500.4063 512.09375 C 500.25724 511.86693 499.98957 511.73082 499.7188 511.75 L 499.2813 511.7812 L 499.1563 511.3437 C 499.1394 511.3002 499.1185 511.2583 499.0938 511.2187 L 499.0626 511.1562 C 499.0442 511.1234 499.0232 511.0921 499.0001 511.0625 L 498.6251 510.5625 L 499.03135 510.03125 C 499.04355 510.02325 499.05125 510.00945 499.06255 510.00005 L 499.7813 509.5938 L 499.8438 509.5626 C 499.8545 509.5525 499.8649 509.5421 499.875 509.5314 C 499.8963 509.5224 499.9172 509.5115 499.9375 509.5002 L 499.9687 509.469 L 500.0312 509.4378 C 500.0996 509.4058 500.16285 509.3637 500.2187 509.3128 L 500.43745 509.0628 L 500.5 509 C 500.506 508.995 500.5258 509.005 500.5312 509 L 501.3437 508.5 C 501.3885 508.4732 501.4304 508.4418 501.4687 508.4063 L 501.6562 508.2188 L 501.6874 508.1876 C 501.7229 508.1493 501.7543 508.1074 501.7811 508.0626 L 501.93735 507.78135 L 501.96855 507.75015 L 502.03105 507.68765 L 502.34355 507.4689 C 502.5025 507.34561 502.60129 507.16869 502.6248 506.9689 C 502.6483 506.76911 502.5945 506.56321 502.46855 506.4064 L 502.03105 505.9064 L 501.96855 505.8127 L 501.93735 505.8127 L 501.93735 505.7815 L 501.93735 505.7503 C 501.94845 505.39948 501.71473 505.0879 501.37485 505.0003 L 500.4686 504.7503 C 500.36781 504.7179 500.2613 504.7073 500.1561 504.7191 L 499.25 504.875 C 499.12397 504.8969 499.00563 504.9507 498.90625 505.03125 L 498.34375 504.84375 C 498.25285 504.81555 498.15738 504.80495 498.0625 504.81255 L 497.15625 504.87505 C 497.06995 504.88105 496.98535 504.90245 496.90625 504.93755 L 496.71875 505.03125 L 497.1875 503.40625 L 498.15625 502.34375 C 498.2895 502.19486 498.35548 502.01197 498.34375 501.8125 C 498.33205 501.61303 498.24354 501.41349 498.09375 501.28125 L 497.1875 500.46875 C 497.04948 500.34703 496.87152 500.2803 496.6875 500.28125 L 496 500.28125 L 494.46875 499.34375 C 494.34822 499.26375 494.20714 499.22037 494.0625 499.21875 L 493.09375 499.21875 L 492.9375 499.03125 C 492.8912 498.98275 492.8387 498.94075 492.78125 498.90625 L 491.875 498.34375 C 491.75447 498.26375 491.61339 498.22037 491.46875 498.21875 L 491.09375 498.21875 C 490.89465 498.21827 490.70353 498.29695 490.5625 498.4375 L 489.78125 497.5625 C 489.69765 497.4639 489.59003 497.38852 489.46875 497.34375 L 489.40625 497.25005 L 490.34375 497.28125 C 490.48531 497.28925 490.62616 497.25655 490.75 497.18755 L 491.53125 496.7188 L 491.65625 496.6563 L 492.40625 496.4063 L 492.53125 496.3751 C 492.93683 496.27155 493.16606 495.87443 493.0625 495.46885 C 492.95894 495.06327 492.56183 494.8028 492.15625 494.90635 L 492.03125 494.93755 L 491.3125 495.06255 L 491.25 495.06255 L 488.65625 494.81255 C 488.58375 494.80185 488.51002 494.80185 488.4375 494.81255 L 487.59375 495.00005 L 486.84375 494.90635 C 486.75925 494.90235 486.67473 494.91335 486.59375 494.93755 L 485.03125 495.31255 L 484.125 495.1563 C 484.0834 495.1533 484.0416 495.1533 484 495.1563 C 484.19182 495.0186 484.3076 494.79862 484.3125 494.56255 L 484.3125 493.6563 C 484.3155 493.36648 484.16681 493.09574 483.90625 492.9688 C 483.64567 492.84185 483.32003 492.8814 483.09375 493.0625 L 482.34375 493.65625 L 481.53125 493.8125 C 481.21291 493.8663 480.95587 494.11849 480.90625 494.4375 C 480.85665 494.75651 481.02555 495.07079 481.3125 495.21875 L 482.09375 495.625 L 481.90625 495.6875 C 481.64527 495.7916 481.46436 496.03282 481.4375 496.3125 L 481.03125 496.5 C 480.99935 496.508 480.96805 496.5188 480.93755 496.5312 L 479.12505 497.5937 C 479.03775 497.6506 478.96322 497.72513 478.9063 497.81245 L 478.8751 497.87495 L 477.5001 497.87495 L 475.6251 497.3437 C 475.5844 497.3297 475.5426 497.3193 475.5001 497.3125 L 474.8751 497.2813 L 473.84385 496.37505 L 473.75015 496.06255 C 473.67545 495.79496 473.45906 495.59055 473.18765 495.5313 L 472.2814 495.3438 C 472.2295 495.3388 472.17709 495.3388 472.12515 495.3438 L 469.87515 495.3438 C 469.83355 495.3408 469.79175 495.3408 469.75015 495.3438 L 465.68765 495.9688 L 464.25015 495.9688 L 463.75015 495.68755 L 463.93765 495.18755 C 464.01005 494.96611 463.97535 494.72362 463.84395 494.5313 L 462.84395 493.00005 C 462.78705 492.91275 462.71252 492.83822 462.6252 492.7813 L 460.84395 491.5938 C 460.74144 491.5244 460.62334 491.48146 460.5002 491.4688 L 457.40645 491.2188 L 456.8752 490.9063 L 456.6877 490.37505 L 456.594 489.56255 C 456.5807 489.40023 456.5148 489.24666 456.4065 489.12505 L 455.594 488.2188 C 455.42376 488.02179 455.16352 487.92716 454.9065 487.9688 Z"/>
</svg>
