<svg width="1671.094" height="856.39252" viewBox="0 0 1671.094 856.39252" xmlns="http://www.w3.org/2000/svg" xmlns:usvg="https://github.com/RazrFalcon/usvg" usvg:version="0.8.0">
    <defs/>
    <path id="path4961" fill="#3e73c5" fill-opacity="0.42857145" stroke="#000000" stroke-opacity="0.24675323" stroke-linecap="round" stroke-linejoin="round" transform="matrix(1 0 0 1 0.5 1.2670726)" d="M 49.46875 -0.75 L 49.46875 143.96875 L 50.90625 143.0625 L 51.71875 142.0625 L 52.59375 141.28125 L 54.40625 140.375 L 53.96875 141.28125 L 57.65625 142.0625 L 58.53125 142.875 L 57.65625 143.78125 L 56.75 143.96875 L 55.75 144.40625 L 56.65625 144.96875 L 56.5625 145.21875 L 58.375 145.12505 L 58.71875 144.25005 L 60.15625 142.7813 L 61.0625 143.50005 L 61.96875 142.9688 L 62.875 143.5938 L 62.59375 144.50005 L 63.5 145.2188 L 65.375 145.3125 L 66.375 144.6875 L 68.1875 144.6875 L 69.15625 144.40625 L 71.0625 144.96875 L 71.9375 145.03125 L 72.84375 144.875 L 73.84375 145.125 L 73.125 146.03125 L 73.03125 146.9375 L 73.9375 147.21875 L 72.125 147.375 L 74.03125 147.5625 L 74.9375 147.375 L 75.8125 147.4687 L 75.09375 148.375 L 77 148.46875 L 78.78125 149 L 78.96875 148.46875 L 81.75 147.9375 C 82.05812 148.2504 82.32633 148.4183 82.5625 148.5 C 82.81496 148.587 83.04172 148.569 83.28125 148.5 C 83.5912 148.408 83.9188 148.23535 84.34375 148.09375 C 84.66246 147.98755 85.04112 147.8908 85.5 147.875 C 85.80592 147.864 86.13907 147.9017 86.53125 147.9687 C 86.72729 148.0027 86.935 148.0347 87.15625 148.0937 L 88.0625 148 L 89.0625 148.5625 L 90.21875 148.75 L 90.9375 148.90625 L 91.84375 149.53125 L 92.65625 149.1875 L 93.1875 149.46875 L 94 149.53125 L 94.53125 150 L 95.4375 150.4375 L 98.21875 150.8125 L 99.125 150.625 L 101.03125 150.625 L 103.8125 151 L 104.71875 151.625 L 105.59375 151.78125 L 106.0625 152.15625 L 107.5 152.34375 L 109.375 152.25005 L 110.46875 151.7813 L 111.46875 151.7188 L 111.8125 152.1563 L 112.8125 151.43755 L 115.59375 151.25005 L 117.40625 151.62505 L 118.375 151.9688 L 119 152.3438 L 119 -0.74995 L 49.46875 -0.74995 Z M 40.632 263.98382 L 0 274.89582 L 0 303.97282 L 49.469 303.97282 L 49.469 402.25005 L 0.062 401.9688 L 0.0625 475.25005 L 49.46875 475.25005 L 49.1875 522.28182 L 57.749 522.28182 L 83.223 592.28582 L 83.223 600.03282 L 62.111 600.03282 L 55.181 572.62382 L 0 572.62382 L 0 606.42882 L 5.469 606.42882 L 5.469 649.37282 L 23.982 649.37282 L 23.982 664.60282 L 49.469 664.60282 L 49.46875 738.8438 L 49.46875 796.7188 L 49.46875 854.62505 L 119 854.62505 L 118.969 683.25882 L 131.558 683.25882 L 131.558 674.15582 L 163.372 674.15582 L 163.372 649.05082 L 144.4688 606.06255 L 118.9688 606.06255 L 119 391.28125 L 119 227.12582 L 102.373 233.08082 L 80.893 245.07782 L 58.872 257.55182 Z M 1640.841 208.04882 L 1567.188 273.5 L 1613.688 304.24982 L 1670.094 304.00082 L 1670.094 278.40682 L 1662.875 279.46682 L 1662.875 268.34382 L 1640.841 227.49482 Z M 1629.487 402.67682 L 1629.487 414.73182 L 1619.218 414.73182 L 1619.218 402.67682 L 1613.688 402.67682 L 1613.688 428.36282 L 1649.007 428.36282 L 1649.007 475.59382 L 1670.062 475.59375 L 1670.062 402.67682 Z"/>
    <path id="path42059" fill="#8cce55" stroke="#0f380f" stroke-opacity="0.14509804" stroke-linecap="round" stroke-linejoin="round" transform="matrix(1 0 0 1 0.5 1.2670726)" d="M 1580.875 272.28125 C 1579.6376 272.28125 1578.625 273.28875 1578.625 274.53125 C 1578.625 275.77495 1579.6376 276.78125 1580.875 276.78125 C 1581.1736 276.78125 1581.4572 276.73125 1581.7188 276.625 C 1581.6118 276.8865 1581.5625 277.16895 1581.5625 277.46875 C 1581.5625 278.71125 1582.5751 279.71875 1583.8125 279.71875 C 1585.0625 279.71875 1586.0625 278.71125 1586.0625 277.46875 C 1586.0625 276.22625 1585.0625 275.21875 1583.8125 275.21875 C 1583.5141 275.21875 1583.2297 275.26875 1582.9688 275.375 C 1583.0754 275.1134 1583.125 274.83125 1583.125 274.53125 C 1583.125 273.28875 1582.1124 272.28125 1580.875 272.28125 Z"/>
    <path id="path42057" fill="#8cce55" stroke="#0f380f" stroke-opacity="0.14509804" stroke-linecap="round" stroke-linejoin="round" transform="matrix(1 0 0 1 0.5 1.2670726)" d="M 1660.0625 272.28125 C 1658.8251 272.28125 1657.8125 273.28875 1657.8125 274.53125 C 1657.8125 274.67635 1657.8134 274.83125 1657.8435 274.96875 C 1657.4316 274.52545 1656.8365 274.25 1656.1872 274.25 C 1654.9498 274.25 1653.9372 275.2575 1653.9372 276.5 C 1653.9372 277.7425 1654.9498 278.75 1656.1872 278.75 C 1657.4246 278.75 1658.4372 277.7425 1658.4372 276.5 C 1658.4372 276.355 1658.4364 276.1999 1658.4062 276.0625 C 1658.8184 276.5078 1659.4114 276.78125 1660.0625 276.78125 C 1661.3125 276.78125 1662.3125 275.77495 1662.3125 274.53125 C 1662.3125 273.28875 1661.3125 272.28125 1660.0625 272.28125 Z"/>
    <path id="path42055" fill="#8cce55" stroke="#0f380f" stroke-opacity="0.14509804" stroke-linecap="round" stroke-linejoin="round" transform="matrix(1 0 0 1 0.5 1.2670726)" d="M 1638.8125 276.25 C 1637.5751 276.25 1636.5625 277.2575 1636.5625 278.5 C 1636.5625 278.9008 1636.6595 279.26775 1636.8438 279.59375 L 1636.4375 279.84375 L 1635.5625 279.93745 L 1636.4375 280.03115 L 1637.0312 279.84365 C 1637.4434 280.38305 1638.085 280.7499 1638.8125 280.7499 C 1639.7754 280.7499 1640.5832 280.1549 1640.9062 279.3124 L 1641.125 279.3124 L 1641.3125 278.40615 L 1640.8438 277.4999 L 1640.8128 277.4999 C 1640.4457 276.7609 1639.7001 276.2499 1638.8128 276.2499 L 1638.8125 276.25 Z"/>
    <path id="path42053" fill="#8cce55" stroke="#0f380f" stroke-opacity="0.14509804" stroke-linecap="round" stroke-linejoin="round" transform="matrix(1 0 0 1 0.5 1.2670726)" d="M 1644.4375 277.09375 C 1643.2001 277.09375 1642.1875 278.10125 1642.1875 279.34375 C 1642.1875 279.42175 1642.2115 279.4865 1642.2185 279.5625 L 1642.0309 279.6562 L 1642.2185 279.6562 C 1642.3777 280.7436 1643.3104 281.5937 1644.4372 281.5937 C 1645.6872 281.5937 1646.6872 280.5862 1646.6872 279.3437 C 1646.6872 278.1012 1645.6872 277.0937 1644.4372 277.0937 L 1644.4375 277.09375 Z"/>
    <path id="path42051" fill="#8cce55" stroke="#0f380f" stroke-opacity="0.14509804" stroke-linecap="round" stroke-linejoin="round" transform="matrix(1 0 0 1 0.5 1.2670726)" d="M 1602.0625 278.1875 C 1600.8125 278.1875 1599.8125 279.195 1599.8125 280.4375 C 1599.8125 281.68 1600.8125 282.6875 1602.0625 282.6875 C 1603.3001 282.6875 1604.3125 281.68 1604.3125 280.4375 C 1604.3125 279.195 1603.3001 278.1875 1602.0625 278.1875 Z"/>
    <path id="path42049" fill="#8cce55" stroke="#0f380f" stroke-opacity="0.14509804" stroke-linecap="round" stroke-linejoin="round" transform="matrix(1 0 0 1 0.5 1.2670726)" d="M 1624.4375 278.96875 C 1623.2001 278.96875 1622.1875 279.97625 1622.1875 281.21875 C 1622.1875 282.46125 1623.2001 283.46875 1624.4375 283.46875 C 1625.5642 283.46875 1626.4537 282.6336 1626.625 281.5625 L 1627 281.28125 L 1626.8125 280.40625 L 1626.625 280.84375 C 1626.4512 279.77555 1625.562 278.96875 1624.4375 278.96875 Z"/>
    <path id="path42047" fill="#8cce55" stroke="#0f380f" stroke-opacity="0.14509804" stroke-linecap="round" stroke-linejoin="round" transform="matrix(1 0 0 1 0.5 1.2670726)" d="M 1627 281.28125 C 1626.9995 281.30225 1627 281.32375 1627 281.34375 C 1627 282.58625 1628 283.59375 1629.25 283.59375 C 1630.4876 283.59375 1631.5 282.58625 1631.5 281.34375 C 1631.5 280.10125 1630.4876 279.09375 1629.25 279.09375 C 1628.0207 279.09375 1627.0325 280.06725 1627 281.28125 Z"/>
    <path id="path42045" fill="#8cce55" stroke="#0f380f" stroke-opacity="0.14509804" stroke-linecap="round" stroke-linejoin="round" transform="matrix(1 0 0 1 0.5 1.2670726)" d="M 1609.2188 281.03125 C 1607.9688 281.03125 1606.9688 282.03875 1606.9688 283.28125 C 1606.9688 284.52505 1607.9688 285.53125 1609.2188 285.53125 C 1610.456 285.53125 1611.4688 284.52505 1611.4688 283.28125 C 1611.4688 282.03875 1610.456 281.03125 1609.2188 281.03125 Z"/>
    <path id="path42043" fill="#8cce55" stroke="#0f380f" stroke-opacity="0.14509804" stroke-linecap="round" stroke-linejoin="round" transform="matrix(1 0 0 1 0.5 1.2670726)" d="M 40.09375 440.84375 L 39.1875 441.1875 L 39.5625 442.09375 L 40.46875 442.5625 L 41 441.84375 L 41 440.9375 L 40.09375 440.8438 L 40.09375 440.84375 Z"/>
    <path id="path42041" fill="#8cce55" stroke="#0f380f" stroke-opacity="0.14509804" stroke-linecap="round" stroke-linejoin="round" transform="matrix(1 0 0 1 0.5 1.2670726)" d="M 46.84375 443.625 L 46.21875 444.53125 L 47.125 444.90625 L 48.03125 445.53125 L 48.5625 444.96875 L 47.84375 444 L 46.84375 443.625 L 46.84375 443.625 Z"/>
    <path id="path42039" fill="#8cce55" stroke="#0f380f" stroke-opacity="0.14509804" stroke-linecap="round" stroke-linejoin="round" transform="matrix(1 0 0 1 0.5 1.2670726)" d="M 55.21875 447.0625 L 53.3125 447.40625 L 54.3125 447.875 L 54.6875 448.75 L 56.03125 448.5 L 56.125 447.59375 L 55.21875 447.0625 Z"/>
    <path id="path42037" fill="#8cce55" stroke="#0f380f" stroke-opacity="0.14509804" stroke-linecap="round" stroke-linejoin="round" transform="matrix(1 0 0 1 0.5 1.2670726)" d="M 51.71875 447.1562 L 52.25 448.0312 L 52.59375 447.4062 L 51.71875 447.1562 Z"/>
    <path id="path42035" fill="#8cce55" stroke="#0f380f" stroke-opacity="0.14509804" stroke-linecap="round" stroke-linejoin="round" transform="matrix(1 0 0 1 0.5 1.2670726)" d="M 58.09375 450.6562 L 57.65625 451.56245 L 56.84375 452.43745 L 56.84375 453.3437 L 57.1875 454.24995 L 57.28125 456.1562 L 58.09375 456.49995 L 59.90625 455.24995 L 60.78125 455.06245 L 61.6875 454.5312 L 61.96875 453.625 L 61.0625 452.90625 L 60.78125 452 L 59.90625 451.375 L 58.09375 450.65625 L 58.09375 450.6562 Z"/>
    <path id="path42033" fill="#8cce55" stroke="#0f380f" stroke-opacity="0.14509804" stroke-linecap="round" stroke-linejoin="round" transform="matrix(1 0 0 1 0.5 1.2670726)" d="M 1661.75 463.9062 C 1660.5126 463.9062 1659.5 464.9149 1659.5 466.1562 C 1659.5 467.3987 1660.5126 468.4062 1661.75 468.4062 C 1662.9874 468.4062 1664 467.3987 1664 466.1562 C 1664 464.9149 1662.9874 463.9062 1661.75 463.9062 Z"/>
    <path id="path42031" fill="#8cce55" stroke="#0f380f" stroke-opacity="0.14509804" stroke-linecap="round" stroke-linejoin="round" transform="matrix(1 0 0 1 0.5 1.2670726)" d="M 10.0625 593.6562 C 8.82 593.6562 7.8125 594.6637 7.8125 595.9062 C 7.8125 597.1487 8.82 598.1562 10.0625 598.1562 C 11.305 598.1562 12.3125 597.1487 12.3125 595.9062 C 12.3125 594.6637 11.305 593.6562 10.0625 593.6562 Z"/>
    <path id="path42029" fill="#8cce55" stroke="#0f380f" stroke-opacity="0.14509804" stroke-linecap="round" stroke-linejoin="round" transform="matrix(1 0 0 1 0.5 1.2670726)" d="M 13.1875 597.0937 C 11.945 597.0937 10.9375 598.1012 10.9375 599.3437 C 10.9375 600.5862 11.945 601.5937 13.1875 601.5937 C 14.43 601.5937 15.4375 600.5862 15.4375 599.3437 C 15.4375 598.1012 14.43 597.0937 13.1875 597.0937 Z"/>
    <path id="path42027" fill="#8cce55" stroke="#0f380f" stroke-opacity="0.14509804" stroke-linecap="round" stroke-linejoin="round" transform="matrix(1 0 0 1 0.5 1.2670726)" d="M 102.40625 611.18745 C 101.16375 611.18745 100.15625 612.19495 100.15625 613.43745 C 100.15625 613.81825 100.23895 614.18555 100.40625 614.49995 C 100.1949 614.43395 99.98297 614.37495 99.75 614.37495 C 98.5075 614.37495 97.5 615.38245 97.5 616.62495 C 97.5 617.86745 98.5075 618.87495 99.75 618.87495 C 100.9925 618.87495 102 617.86745 102 616.62495 C 102 616.24915 101.88171 615.9051 101.71875 615.5937 C 101.93441 615.6627 102.16782 615.6874 102.40625 615.6874 C 103.64875 615.6874 104.65625 614.6786 104.65625 613.4374 C 104.65625 612.1949 103.64875 611.1874 102.40625 611.1874 L 102.40625 611.18745 Z"/>
    <path id="path42025" fill="#8cce55" stroke="#0f380f" stroke-opacity="0.14509804" stroke-linecap="round" stroke-linejoin="round" transform="matrix(1 0 0 1 0.5 1.2670726)" d="M 107.28125 611.7187 C 106.03875 611.7187 105.03125 612.7262 105.03125 613.9687 C 105.03125 614.818 105.49276 615.55405 106.1875 615.93745 C 105.91832 615.82345 105.62313 615.7812 105.3125 615.7812 C 104.07 615.7812 103.0625 616.7887 103.0625 618.0312 C 103.0625 619.2725 104.07 620.2812 105.3125 620.2812 C 105.58703 620.2812 105.8505 620.2151 106.09375 620.12495 C 105.78072 620.51135 105.59375 620.9953 105.59375 621.5312 C 105.59375 622.7737 106.6025 623.7812 107.84375 623.7812 C 109.08625 623.7812 110.09375 622.7737 110.09375 621.5312 C 110.09375 620.2887 109.08625 619.2812 107.84375 619.2812 C 107.5804 619.2812 107.32875 619.3232 107.09375 619.4062 C 107.3906 619.0249 107.5625 618.5512 107.5625 618.0312 C 107.5625 617.1791 107.10475 616.4135 106.40625 616.0312 C 106.67543 616.1452 106.97062 616.2187 107.28125 616.2187 C 108.52375 616.2187 109.53125 615.2112 109.53125 613.9687 C 109.53125 612.7262 108.52375 611.7187 107.28125 611.7187 Z"/>
    <path id="path42023" fill="#8cce55" stroke="#0f380f" stroke-opacity="0.14509804" stroke-linecap="round" stroke-linejoin="round" transform="matrix(1 0 0 1 0.5 1.2670726)" d="M 90.46875 612.8437 C 89.225 612.8437 88.21875 613.8512 88.21875 615.0937 C 88.21875 616.3375 89.225 617.3437 90.46875 617.3437 C 91.71 617.3437 92.71875 616.3375 92.71875 615.0937 C 92.71875 613.8512 91.71 612.8437 90.46875 612.8437 Z"/>
    <path id="path42021" fill="#8cce55" stroke="#0f380f" stroke-opacity="0.14509804" stroke-linecap="round" stroke-linejoin="round" transform="matrix(1 0 0 1 0.5 1.2670726)" d="M 95.15625 613.2187 C 93.9125 613.2187 92.90625 614.2262 92.90625 615.4687 C 92.90625 616.7099 93.9125 617.7187 95.15625 617.7187 C 96.3975 617.7187 97.40625 616.7099 97.40625 615.4687 C 97.40625 614.2262 96.3975 613.2187 95.15625 613.2187 Z"/>
    <path id="path42019" fill="#8cce55" stroke="#0f380f" stroke-opacity="0.14509804" stroke-linecap="round" stroke-linejoin="round" transform="matrix(1 0 0 1 0.5 1.2670726)" d="M 63.1875 617.0937 C 61.945 617.0937 60.9375 618.1012 60.9375 619.3437 C 60.9375 620.5862 61.945 621.5937 63.1875 621.5937 C 64.43 621.5937 65.4375 620.5862 65.4375 619.3437 C 65.4375 618.1012 64.43 617.0937 63.1875 617.0937 Z"/>
    <path id="path42017" fill="#8cce55" stroke="#0f380f" stroke-opacity="0.14509804" stroke-linecap="round" stroke-linejoin="round" transform="matrix(1 0 0 1 0.5 1.2670726)" d="M 119.09375 617.9062 C 117.8525 617.9062 116.84375 618.9137 116.84375 620.1562 C 116.84375 621.3999 117.8525 622.4062 119.09375 622.4062 C 120.3375 622.4062 121.34375 621.3999 121.34375 620.1562 C 121.34375 618.9137 120.3375 617.9062 119.09375 617.9062 Z"/>
    <path id="path42015" fill="#8cce55" stroke="#0f380f" stroke-opacity="0.14509804" stroke-linecap="round" stroke-linejoin="round" transform="matrix(1 0 0 1 0.5 1.2670726)" d="M 130.0625 617.9687 C 128.82 617.9687 127.8125 618.9762 127.8125 620.2187 C 127.8125 621.4599 128.82 622.4687 130.0625 622.4687 C 131.305 622.4687 132.3125 621.4599 132.3125 620.2187 C 132.3125 618.9762 131.305 617.9687 130.0625 617.9687 Z"/>
    <path id="path42013" fill="#8cce55" stroke="#0f380f" stroke-opacity="0.14509804" stroke-linecap="round" stroke-linejoin="round" transform="matrix(1 0 0 1 0.5 1.2670726)" d="M 101.5 619.375 C 100.2575 619.375 99.25 620.3825 99.25 621.625 C 99.25 622.8675 100.2575 623.875 101.5 623.875 C 102.7425 623.875 103.75 622.8675 103.75 621.625 C 103.75 620.3825 102.7425 619.375 101.5 619.375 Z"/>
    <path id="path42011" fill="#8cce55" stroke="#0f380f" stroke-opacity="0.14509804" stroke-linecap="round" stroke-linejoin="round" transform="matrix(1 0 0 1 0.5 1.2670726)" d="M 114.0625 619.75 C 112.82 619.75 111.8125 620.7575 111.8125 622 C 111.8125 622.3883 111.92038 622.7437 112.09375 623.0625 C 111.74579 622.8419 111.31743 622.71875 110.875 622.71875 C 109.6325 622.71875 108.625 623.72625 108.625 624.96875 C 108.625 626.21125 109.6325 627.21875 110.875 627.21875 C 112.1175 627.21875 113.125 626.21125 113.125 624.96875 C 113.125 624.55825 113.0358 624.17495 112.84375 623.84375 C 113.19861 624.07715 113.60622 624.25 114.0625 624.25 C 115.30375 624.25 116.3125 623.2425 116.3125 622 C 116.3125 620.7575 115.30375 619.75 114.0625 619.75 Z"/>
    <path id="path42009" fill="#8cce55" stroke="#0f380f" stroke-opacity="0.14509804" stroke-linecap="round" stroke-linejoin="round" transform="matrix(1 0 0 1 0.5 1.2670726)" d="M 66.3125 621.46875 C 65.07 621.46875 64.0625 622.47625 64.0625 623.71875 C 64.0625 624.96125 65.07 625.96875 66.3125 625.96875 C 67.555 625.96875 68.5625 624.96125 68.5625 623.71875 C 68.5625 622.47625 67.555 621.46875 66.3125 621.46875 Z"/>
    <path id="path42007" fill="#8cce55" stroke="#0f380f" stroke-opacity="0.14509804" stroke-linecap="round" stroke-linejoin="round" transform="matrix(1 0 0 1 0.5 1.2670726)" d="M 118.4375 622.875 C 117.195 622.875 116.1875 623.8825 116.1875 625.125 C 116.1875 626.3663 117.195 627.375 118.4375 627.375 C 119.68125 627.375 120.6875 626.3663 120.6875 625.125 C 120.6875 623.8825 119.68125 622.875 118.4375 622.875 Z"/>
    <path id="path42005" fill="#8cce55" stroke="#0f380f" stroke-opacity="0.14509804" stroke-linecap="round" stroke-linejoin="round" transform="matrix(1 0 0 1 0.5 1.2670726)" d="M 137.8125 624.53125 C 136.57 624.53125 135.5625 625.53995 135.5625 626.78125 C 135.5625 628.02375 136.57 629.03125 137.8125 629.03125 C 139.05625 629.03125 140.0625 628.02375 140.0625 626.78125 C 140.0625 625.53995 139.05625 624.53125 137.8125 624.53125 Z"/>
    <path id="path42003" fill="#8cce55" stroke="#0f380f" stroke-opacity="0.14509804" stroke-linecap="round" stroke-linejoin="round" transform="matrix(1 0 0 1 0.5 1.2670726)" d="M 105.125 624.71875 C 103.8825 624.71875 102.875 625.72745 102.875 626.96875 C 102.875 628.21125 103.8825 629.21875 105.125 629.21875 C 106.3675 629.21875 107.375 628.21125 107.375 626.96875 C 107.375 625.72745 106.3675 624.71875 105.125 624.71875 Z"/>
    <path id="path42001" fill="#8cce55" stroke="#0f380f" stroke-opacity="0.14509804" stroke-linecap="round" stroke-linejoin="round" transform="matrix(1 0 0 1 0.5 1.2670726)" d="M 114.84375 626.03125 C 113.60125 626.03125 112.59375 627.03875 112.59375 628.28125 C 112.59375 629.52245 113.60125 630.53125 114.84375 630.53125 C 116.085 630.53125 117.09375 629.52245 117.09375 628.28125 C 117.09375 627.03875 116.085 626.03125 114.84375 626.03125 Z"/>
    <path id="path41999" fill="#8cce55" stroke="#0f380f" stroke-opacity="0.14509804" stroke-linecap="round" stroke-linejoin="round" transform="matrix(1 0 0 1 0.5 1.2670726)" d="M 127.53125 626.06245 C 126.29 626.06245 125.28125 627.06995 125.28125 628.31245 C 125.28125 629.55615 126.29 630.56245 127.53125 630.56245 C 128.775 630.56245 129.78125 629.55615 129.78125 628.31245 C 129.78125 627.06995 128.775 626.06245 127.53125 626.06245 Z"/>
    <path id="path41997" fill="#8cce55" stroke="#0f380f" stroke-opacity="0.14509804" stroke-linecap="round" stroke-linejoin="round" transform="matrix(1 0 0 1 0.5 1.2670726)" d="M 86.96875 626.2187 C 85.72625 626.2187 84.71875 627.2262 84.71875 628.4687 C 84.71875 629.7112 85.72625 630.7187 86.96875 630.7187 C 88.2125 630.7187 89.21875 629.7112 89.21875 628.4687 C 89.21875 627.2262 88.2125 626.2187 86.96875 626.2187 Z"/>
    <path id="path41995" fill="#8cce55" stroke="#0f380f" stroke-opacity="0.14509804" stroke-linecap="round" stroke-linejoin="round" transform="matrix(1 0 0 1 0.5 1.2670726)" d="M 120.46875 627.4062 C 119.225 627.4062 118.21875 628.4137 118.21875 629.6562 C 118.21875 630.8987 119.225 631.9062 120.46875 631.9062 C 121.71 631.9062 122.71875 630.8987 122.71875 629.6562 C 122.71875 628.4137 121.71 627.4062 120.46875 627.4062 Z"/>
    <path id="path41993" fill="#8cce55" stroke="#0f380f" stroke-opacity="0.14509804" stroke-linecap="round" stroke-linejoin="round" transform="matrix(1 0 0 1 0.5 1.2670726)" d="M 91.5625 627.4687 C 90.32 627.4687 89.3125 628.4762 89.3125 629.7187 C 89.3125 630.9612 90.32 631.9687 91.5625 631.9687 C 92.80625 631.9687 93.8125 630.9612 93.8125 629.7187 C 93.8125 628.4762 92.80625 627.4687 91.5625 627.4687 Z"/>
    <path id="path41991" fill="#8cce55" stroke="#0f380f" stroke-opacity="0.14509804" stroke-linecap="round" stroke-linejoin="round" transform="matrix(1 0 0 1 0.5 1.2670726)" d="M 23.8125 628.5312 C 22.57 628.5312 21.5625 629.5387 21.5625 630.7812 C 21.5625 632.0225 22.57 633.0312 23.8125 633.0312 C 25.055 633.0312 26.0625 632.0225 26.0625 630.7812 C 26.0625 629.5387 25.055 628.5312 23.8125 628.5312 Z"/>
    <path id="path41989" fill="#8cce55" stroke="#0f380f" stroke-opacity="0.14509804" stroke-linecap="round" stroke-linejoin="round" transform="matrix(1 0 0 1 0.5 1.2670726)" d="M 144.125 629.2187 C 142.8825 629.2187 141.875 630.2275 141.875 631.4687 C 141.875 632.7112 142.8825 633.7187 144.125 633.7187 C 144.72241 633.7187 145.25336 633.4737 145.65625 633.0937 C 145.94573 634.0019 146.80843 634.6562 147.8125 634.6562 C 149.05625 634.6562 150.0625 633.6487 150.0625 632.4062 C 150.0625 631.165 149.05625 630.1562 147.8125 630.1562 C 147.20755 630.1562 146.65437 630.42405 146.25 630.81245 C 145.96509 629.89725 145.13453 629.2187 144.125 629.2187 Z"/>
    <path id="path41987" fill="#8cce55" stroke="#0f380f" stroke-opacity="0.14509804" stroke-linecap="round" stroke-linejoin="round" transform="matrix(1 0 0 1 0.5 1.2670726)" d="M 135.03125 632.5937 C 133.79 632.5937 132.78125 633.6012 132.78125 634.8437 C 132.78125 636.0874 133.79 637.0937 135.03125 637.0937 C 136.275 637.0937 137.28125 636.0874 137.28125 634.8437 C 137.28125 633.6012 136.275 632.5937 135.03125 632.5937 Z"/>
    <path id="path41985" fill="#8cce55" stroke="#0f380f" stroke-opacity="0.14509804" stroke-linecap="round" stroke-linejoin="round" transform="matrix(1 0 0 1 0.5 1.2670726)" d="M 126.3125 633.0312 C 125.07 633.0312 124.0625 634.0387 124.0625 635.2812 C 124.0625 636.5249 125.07 637.5312 126.3125 637.5312 C 127.555 637.5312 128.5625 636.5249 128.5625 635.2812 C 128.5625 634.0387 127.555 633.0312 126.3125 633.0312 Z"/>
    <path id="path41983" fill="#8cce55" stroke="#0f380f" stroke-opacity="0.14509804" stroke-linecap="round" stroke-linejoin="round" transform="matrix(1 0 0 1 0.5 1.2670726)" d="M 38.8125 633.1249 C 37.57 633.1249 36.5625 634.1324 36.5625 635.3749 C 36.5625 636.6174 37.57 637.6249 38.8125 637.6249 C 40.055 637.6249 41.0625 636.6174 41.0625 635.3749 C 41.0625 634.1324 40.055 633.1249 38.8125 633.1249 Z"/>
    <path id="path41981" fill="#8cce55" stroke="#0f380f" stroke-opacity="0.14509804" stroke-linecap="round" stroke-linejoin="round" transform="matrix(1 0 0 1 0.5 1.2670726)" d="M 108.03125 637.2499 C 106.78875 637.2499 105.78125 638.2574 105.78125 639.4999 C 105.78125 640.7424 106.78875 641.7499 108.03125 641.7499 C 109.27375 641.7499 110.28125 640.7424 110.28125 639.4999 C 110.28125 638.2574 109.27375 637.2499 108.03125 637.2499 Z"/>
    <path id="path41979" fill="#8cce55" stroke="#0f380f" stroke-opacity="0.14509804" stroke-linecap="round" stroke-linejoin="round" transform="matrix(1 0 0 1 0.5 1.2670726)" d="M 115.875 639.78115 C 114.6325 639.78115 113.625 640.78865 113.625 642.03115 C 113.625 643.27245 114.6325 644.28115 115.875 644.28115 C 117.1175 644.28115 118.125 643.27245 118.125 642.03115 C 118.125 640.78865 117.1175 639.78115 115.875 639.78115 Z"/>
    <path id="path41977" fill="#8cce55" stroke="#0f380f" stroke-opacity="0.14509804" stroke-linecap="round" stroke-linejoin="round" transform="matrix(1 0 0 1 0.5 1.2670726)" d="M 135.46875 640.6249 C 134.225 640.6249 133.21875 641.6324 133.21875 642.8749 C 133.21875 644.1174 134.225 645.1249 135.46875 645.1249 C 136.71 645.1249 137.71875 644.1174 137.71875 642.8749 C 137.71875 641.6324 136.71 640.6249 135.46875 640.6249 Z"/>
    <path id="path41975" fill="#8cce55" stroke="#0f380f" stroke-opacity="0.14509804" stroke-linecap="round" stroke-linejoin="round" transform="matrix(1 0 0 1 0.5 1.2670726)" d="M 150.0625 643.1249 C 148.93116 643.1249 148.00227 643.975 147.84375 645.0624 C 147.62291 644.0525 146.70193 643.28115 145.625 643.28115 C 144.3825 643.28115 143.375 644.28985 143.375 645.53115 C 143.375 646.77365 144.3825 647.78115 145.625 647.78115 C 146.75342 647.78115 147.68164 646.9582 147.84375 645.8749 C 148.06528 646.885 148.98623 647.6249 150.0625 647.6249 C 151.305 647.6249 152.3125 646.6174 152.3125 645.3749 C 152.3125 644.1324 151.305 643.1249 150.0625 643.1249 Z"/>
    <path id="path41973" fill="#8cce55" stroke="#0f380f" stroke-opacity="0.14509804" stroke-linecap="round" stroke-linejoin="round" transform="matrix(1 0 0 1 0.5 1.2670726)" d="M 135.21875 646.21865 C 133.975 646.21865 132.96875 647.22615 132.96875 648.46865 C 132.96875 649.71115 133.975 650.71865 135.21875 650.71865 C 136.46125 650.71865 137.46875 649.71115 137.46875 648.46865 C 137.46875 647.22615 136.46125 646.21865 135.21875 646.21865 Z"/>
    <path id="path41971" fill="#8cce55" stroke="#0f380f" stroke-opacity="0.14509804" stroke-linecap="round" stroke-linejoin="round" transform="matrix(1 0 0 1 0.5 1.2670726)" d="M 61.96875 647.03115 C 60.72625 647.03115 59.71875 648.03985 59.71875 649.28115 C 59.71875 650.52365 60.72625 651.53115 61.96875 651.53115 C 63.2125 651.53115 64.21875 650.52365 64.21875 649.28115 C 64.21875 648.03985 63.2125 647.03115 61.96875 647.03115 Z"/>
    <path id="path41969" fill="#8cce55" stroke="#0f380f" stroke-opacity="0.14509804" stroke-linecap="round" stroke-linejoin="round" transform="matrix(1 0 0 1 0.5 1.2670726)" d="M 145.46875 649.78115 C 144.225 649.78115 143.21875 650.78865 143.21875 652.03115 C 143.21875 653.27235 144.225 654.28115 145.46875 654.28115 C 146.71 654.28115 147.71875 653.27235 147.71875 652.03115 C 147.71875 650.78865 146.71 649.78115 145.46875 649.78115 Z"/>
    <path id="path5039" fill="#8cce55" stroke="#0f380f" stroke-opacity="0.14509804" stroke-linecap="round" stroke-linejoin="round" transform="matrix(1 0 0 1 0.5 1.2670726)" d="M 87.125 653.96865 C 85.8825 653.96865 84.875 654.97615 84.875 656.21865 C 84.875 657.46115 85.8825 658.46865 87.125 658.46865 C 88.3675 658.46865 89.375 657.46115 89.375 656.21865 C 89.375 654.97615 88.3675 653.96865 87.125 653.96865 Z"/>
    <path id="path42033-9" fill="#8cce55" stroke="#0f380f" stroke-opacity="0.14509804" stroke-linecap="round" stroke-linejoin="round" transform="matrix(1 0 0 1 0.5 1.2670726)" d="M 1626.6992 408.03184 C 1625.4618 408.03184 1624.4492 409.04054 1624.4492 410.28184 C 1624.4492 411.52434 1625.4618 412.53184 1626.6992 412.53184 C 1627.9366 412.53184 1628.9492 411.52434 1628.9492 410.28184 C 1628.9492 409.04054 1627.9366 408.03184 1626.6992 408.03184 Z"/>
    <path id="path42033-5" fill="#8cce55" stroke="#0f380f" stroke-opacity="0.14509804" stroke-linecap="round" stroke-linejoin="round" transform="matrix(1 0 0 1 0.5 1.2670726)" d="M 1622.1031 407.67829 C 1620.8657 407.67829 1619.8531 408.68699 1619.8531 409.92829 C 1619.8531 411.17079 1620.8657 412.17829 1622.1031 412.17829 C 1623.3405 412.17829 1624.3531 411.17079 1624.3531 409.92829 C 1624.3531 408.68699 1623.3405 407.67829 1622.1031 407.67829 Z"/>
</svg>
