<svg width="1671.094" height="856.39252" viewBox="0 0 1671.094 856.39252" xmlns="http://www.w3.org/2000/svg" xmlns:usvg="https://github.com/RazrFalcon/usvg" usvg:version="0.8.0">
    <defs/>
    <path id="path41404" fill="#3e73c5" fill-opacity="0.42745098" stroke="#000000" stroke-opacity="0.24705882" stroke-linecap="round" stroke-linejoin="round" transform="matrix(1 0 0 1 0.5 1.2670726)" d="M 1670.094 854.59382 L 1648.5 854.59382 L 1648.5 615.74982 L 1654.491 613.42297 L 1655.607 610.744 L 1654.044 597.12587 L 1655.83 589.31219 L 1658.733 583.50774 L 1662.974 572.79182 L 1670.094 572.79182 Z"/>
    <path id="path41406" fill="#3e73c5" fill-opacity="0.42745098" stroke="#000000" stroke-opacity="0.24705882" stroke-linecap="round" stroke-linejoin="round" transform="matrix(1 0 0 1 0.5 1.2670726)" d="M 1670.049 557.38782 L 1649.356 557.38773 L 1649.356 475.45582 L 1670.094 475.45582 Z"/>
    <path id="path41408" fill="#3e73c5" fill-opacity="0.42745098" stroke="#000000" stroke-opacity="0.24705882" stroke-linecap="round" stroke-linejoin="round" transform="matrix(1 0 0 1 0.5 1.2670726)" d="M 1669.2253 402.67682 L 1629.487 402.67682 L 1629.487 414.73182 L 1619.218 414.73182 L 1619.218 402.67682 L 1613.688 402.67682 L 1613.688 377.22682 L 1648.463 377.22682 L 1648.463 304.00082 L 1670.094 304.00082 Z"/>
    <path id="path41410" fill="#3e73c5" fill-opacity="0.42745098" stroke="#000000" stroke-opacity="0.24705882" stroke-linecap="round" stroke-linejoin="round" transform="matrix(1 0 0 1 0.5 1.2670726)" d="M 1670.094 164.89382 L 1664.748 167.74982 L 1648.218 147.52882 L 1648.692 -0.75018262 L 1670.094 -0.75018262 Z"/>
    <path id="path41759" fill="#3e73c5" fill-opacity="0.42857145" stroke="#000000" stroke-opacity="0.24675323" stroke-linecap="round" stroke-linejoin="round" transform="matrix(1 0 0 1 0.5 1.2670726)" d="M 49.469 854.62482 L 0 854.62482 L 0 606.42882 L 5.469 606.42882 L 5.469 649.37282 L 23.982 649.37282 L 23.982 664.60282 L 49.469 664.60282 Z"/>
    <path id="path41761" fill="#3e73c5" fill-opacity="0.42857145" stroke="#000000" stroke-opacity="0.24675323" stroke-linecap="round" stroke-linejoin="round" transform="matrix(1 0 0 1 0.5 1.2670726)" d="M 0 557.06782 L 43.604 557.06782 L 43.841 546.92882 L 33.958 538.47282 L 33.958 522.28182 L 49.469 522.28182 L 49.469 475.24982 L 0 475.24982 Z"/>
    <path id="path41763" fill="#3e73c5" fill-opacity="0.42857145" stroke="#000000" stroke-opacity="0.24675323" stroke-linecap="round" stroke-linejoin="round" transform="matrix(1 0 0 1 0.5 1.2670726)" d="M 0 401.96882 L 49.469 402.24982 L 49.469 303.97282 L 0 303.97282 Z"/>
    <path id="path41752-9" fill="#3e73c5" fill-opacity="0.42745098" stroke="#000000" stroke-opacity="0.24705882" stroke-linecap="round" stroke-linejoin="round" transform="matrix(1 0 0 1 0.5 1.2670726)" d="M 49.469 -0.75018262 L 49.46875 143.96875 L 48.09375 144.78125 L 47.21875 145.125 L 42.53125 145.6875 L 41.625 145.75 L 40.71875 145.59375 L 41.625 144.78125 L 39.75 145.3125 L 37.9375 146.5625 L 37.9375 146.84375 L 38.65625 147.5625 L 40.5625 148 L 38.75 148.1875 L 38.5625 149.1875 L 38.65625 150.09375 L 37.9375 149.1875 L 37.3125 149.46875 L 37.9375 148.5625 L 37.9375 148.1875 L 36.9375 148.1875 L 37.9375 147.84375 L 37.9375 147.21875 L 37.125 147.12505 L 33.4375 149.7188 L 32.09375 149.9063 L 30.65625 150.0938 L 29.65625 150.5313 L 28.75 150.5313 L 29.65625 150.25005 L 29.84375 149.81255 L 28.84375 149.62505 L 27.9375 150.5313 L 27.0625 151.1563 L 26.34375 152.3438 L 24.4375 153.7813 L 24.25 154.68755 L 23.71875 155.12505 L 23.375 155.4688 L 23.53125 156.37505 L 23 157.2813 L 21.375 159.18755 L 19.59375 160.3438 L 18.6875 160.7188 L 17.40625 160.9688 L 11.75 161.5 L 9.9375 161.34375 L 9.0625 161.5 L 9.21875 162.40625 L 8.0839466 160.76808 L 0 165.99982 L 0 -0.75018262 Z"/>
    <path id="path42033-3" fill="#8cce55" stroke="#0f380f" stroke-opacity="0.14509804" stroke-linecap="round" stroke-linejoin="round" transform="matrix(1 0 0 1 0.5 1.2670726)" d="M 1663.1153 609.91084 C 1661.8779 609.91084 1660.8653 610.91954 1660.8653 612.16084 C 1660.8653 613.40334 1661.8779 614.41084 1663.1153 614.41084 C 1664.3527 614.41084 1665.3653 613.40334 1665.3653 612.16084 C 1665.3653 610.91954 1664.3527 609.91084 1663.1153 609.91084 Z"/>
    <path id="path42033-6" fill="#8cce55" stroke="#0f380f" stroke-opacity="0.14509804" stroke-linecap="round" stroke-linejoin="round" transform="matrix(1 0 0 1 0.5 1.2670726)" d="M 1657.4584 610.61794 C 1656.221 610.61794 1655.2084 611.62664 1655.2084 612.86794 C 1655.2084 614.11044 1656.221 615.11794 1657.4584 615.11794 C 1658.6958 615.11794 1659.7084 614.11044 1659.7084 612.86794 C 1659.7084 611.62664 1658.6958 610.61794 1657.4584 610.61794 Z"/>
    <path id="path42033-7" fill="#8cce55" stroke="#0f380f" stroke-opacity="0.14509804" stroke-linecap="round" stroke-linejoin="round" transform="matrix(1 0 0 1 0.5 1.2670726)" d="M 1660.9939 633.59892 C 1659.7565 633.59892 1658.7439 634.60762 1658.7439 635.84892 C 1658.7439 637.09142 1659.7565 638.09892 1660.9939 638.09892 C 1662.2313 638.09892 1663.2439 637.09142 1663.2439 635.84892 C 1663.2439 634.60762 1662.2313 633.59892 1660.9939 633.59892 Z"/>
</svg>
