<svg width="1671.094" height="856.39252" viewBox="0 0 1671.094 856.39252" xmlns="http://www.w3.org/2000/svg" xmlns:usvg="https://github.com/RazrFalcon/usvg" usvg:version="0.8.0">
    <defs/>
    <path id="path41628" fill="#3e73c5" fill-opacity="0.42857145" stroke="#000000" stroke-opacity="0.24675323" stroke-linecap="round" stroke-linejoin="round" transform="matrix(1 0 0 1 0.5 1.2670726)" d="M 163.372 668.80082 L 163.372 674.15582 L 131.558 674.15582 L 131.558 683.25872 L 119 683.25882 L 119 854.62542 L 188.56245 854.62542 L 188.562 668.80082 Z"/>
    <path id="path41860" fill="#3e73c5" fill-opacity="0.42745098" stroke="#000000" stroke-opacity="0.24705882" stroke-linecap="round" stroke-linejoin="round" transform="matrix(1 0 0 1 0.5 1.2670726)" d="M 1670.094 164.89382 L 1664.748 167.74982 L 1664.748 187.31282 L 1640.841 208.04929 L 1640.841 227.49482 L 1662.875 268.34383 L 1662.875 279.46683 L 1670.094 278.40683 Z"/>
    <path id="path41626" fill="#3e73c5" fill-opacity="0.42857145" stroke="#000000" stroke-opacity="0.24675323" stroke-linecap="round" stroke-linejoin="round" transform="matrix(1 0 0 1 0.5 1.2670726)" d="M 119 227.12582 L 118.99995 236.84422 L 118.99995 391.28172 L 118.99995 578.00052 L 144.4687 578.00052 L 144.4687 606.06302 L 163.372 649.05082 L 188.562 649.05082 L 188.562 295.00052 L 169.4062 280.75052 L 157.7187 265.81302 L 162.37495 264.28172 L 167.0937 264.84422 L 172.0937 262.56302 L 173.9062 263.28172 L 176.5312 262.03172 L 176.9687 261.21922 L 177.1562 261.18822 L 177.5937 260.62572 L 177.4062 260.15702 L 178.12495 259.25072 L 178.5937 258.25072 L 177.9687 257.34452 L 177.7812 259.15702 L 177.31245 260.15702 L 176.9687 260.50072 L 176.9687 259.25072 L 176.9687 258.87572 L 176.43745 256.09452 L 176.9687 255.09452 L 176.875 255.18852 L 176.7813 254.21972 L 175.7813 253.93852 L 174.9063 253.31352 L 173.99995 252.75092 L 172.99995 252.12592 L 172.0937 251.96962 L 171.12495 251.40712 L 170.2187 250.96962 L 169.2187 250.59462 L 168.49995 250.25092 L 168.31245 249.34462 L 167.3437 248.96962 L 167.5312 248.00092 L 166.5312 247.53212 L 166.6249 246.65712 L 166.09365 245.65712 L 165.28115 244.75092 L 163.9999 242.96962 L 163.46865 242.06342 L 162.65615 241.15712 L 162.21865 240.15712 L 161.3124 239.34462 L 161.2187 238.53212 L 160.2187 237.65712 L 160.06245 237.46962 L 159.24995 236.37592 L 158.24995 235.93842 L 157.24995 235.50092 L 156.62495 234.59462 L 156.2812 233.68842 L 155.37495 233.31342 L 154.37495 232.68842 L 153.56245 231.78212 L 153.74995 230.81342 L 153.31245 230.28212 L 152.31245 229.62592 L 151.4062 229.09462 L 150.4062 229.53212 L 149.3437 230.00092 L 148.43745 230.09492 L 147.5312 230.43862 L 147.7187 231.34492 L 146.99995 232.25122 L 146.6562 233.25122 L 145.6562 233.40742 L 144.74995 233.78242 L 143.74995 234.31372 L 142.87495 234.84492 L 142.06245 233.87622 L 141.7812 232.96992 L 140.7812 232.15742 L 139.9687 231.53242 L 139.81245 231.43842 L 138.9062 230.71972 L 137.9062 229.90722 L 136.99995 229.28222 L 136.6562 228.28222 L 135.74995 227.93842 L 135.0312 227.65722 L 134.49995 226.65722 L 134.8437 225.78222 L 133.87495 225.21972 L 132.9687 225.31372 L 131.9687 225.40772 L 130.9687 226.12642 L 130.62495 226.31392 L 128.6562 225.59522 C 128.43401 225.70762 128.21933 225.78192 128.0312 225.84522 C 127.89468 225.88722 127.77623 225.92022 127.6562 225.93922 C 127.6062 225.94922 127.54748 225.96622 127.49995 225.97022 L 127.43745 225.97022 C 126.69956 226.03022 126.32672 225.61082 126.12495 224.97022 C 126.11895 224.95122 126.13095 224.92622 126.12495 224.90822 C 126.08105 224.75792 126.02615 224.60832 125.99995 224.43942 C 125.96745 224.27172 125.95055 224.08802 125.93745 223.90822 C 125.88535 223.15482 125.91885 222.32732 125.93745 221.65822 C 125.94545 221.37002 125.95295 221.11752 125.93745 220.90822 L 125.93745 215.40822 L 125.93745 206.59572 L 125.93745 154.93942 L 128.7187 155.47072 L 130.62495 155.31442 L 131.5312 155.40842 L 134.4062 156.12722 L 135.31245 156.93972 L 136.2812 157.47092 L 137.0937 158.37722 L 137.81245 158.47122 L 139.7187 159.34622 L 142.49995 160.25242 L 143.4062 160.78372 L 144.31245 160.72172 L 145.18745 161.15922 L 146.18745 161.34672 L 147.0937 161.15922 L 147.1874 161.15922 L 148.4374 161.25322 L 149.78115 161.59692 L 150.6874 162.22192 L 152.59365 162.87822 L 152.7499 163.03442 L 153.1249 163.03442 L 152.21865 162.50322 L 151.78115 161.50322 L 152.65615 160.87822 L 153.5624 161.25322 L 154.46865 160.87822 L 155.3749 161.44072 L 156.09365 162.40942 L 157.09365 162.94072 L 157.34365 162.87872 L 155.5624 160.44122 L 156.09365 159.44122 L 156.9999 159.09742 L 157.8124 158.19122 L 158.78115 158.00372 L 159.6874 157.65992 L 160.59365 157.00372 L 162.5624 156.84742 L 163.65615 154.94122 L 165.53115 155.12872 L 165.43745 154.22242 L 166.43745 154.03492 L 165.5312 154.31622 L 166.43745 154.59742 L 167.3437 154.40992 L 168.24995 154.03492 L 169.12495 153.40992 L 171.0312 152.59742 L 171.37495 153.50372 L 172.0937 152.59742 L 172.2812 152.15992 L 173.18745 151.34742 L 174.0937 151.06622 L 175.06245 151.06622 L 175.9687 151.44122 L 176.87495 151.44122 L 178.68745 150.34742 L 179.31245 151.25372 L 178.93745 152.15992 L 175.06245 153.78492 L 174.18745 154.59742 L 173.2812 154.84742 L 172.2812 155.47242 L 171.37495 155.31622 L 170.49995 155.65992 L 168.5937 155.75392 L 167.68745 156.03522 L 167.24995 156.94142 L 166.24995 157.72272 L 165.43745 158.62892 L 164.56245 158.19142 L 163.6562 159.19142 L 163.5625 160.06642 L 162.5625 159.81642 L 161.9375 160.72272 L 161.03125 161.25392 L 161.12495 162.16022 L 162.93745 162.87892 L 161.93745 162.31642 L 162.93745 161.78522 L 164.81245 161.87922 L 165.7187 161.69172 L 164.81245 161.25422 L 163.8437 161.06672 L 163.6562 160.16042 L 165.5312 159.09792 L 167.3437 158.47292 L 168.24995 157.81672 L 168.24995 156.84792 L 170.0312 156.66042 L 169.9375 157.56672 L 170.5625 156.66042 L 170.75 157.56672 L 171.5625 156.66042 L 171.125 155.66042 L 171.75 156.66042 L 171.5625 155.66042 L 172.1875 156.56672 L 171.9375 157.56672 L 172.46875 156.56672 L 172.1875 157.47292 L 172.375 158.37922 L 173.28125 157.56672 L 173.90625 156.56672 L 175.4375 154.75422 L 178.78125 153.59792 L 180.65625 153.41042 L 181.5625 152.69172 L 180.84375 153.59792 L 180.84375 154.50422 L 181.90625 154.75422 C 183.65124 152.16172 185.395 153.44792 184.625 151.16042 L 185.5 150.72292 L 188.3125 150.25422 L 186.5 149.81672 L 186.5937 148.91042 L 185.68745 149.00442 L 185.49995 148.09822 L 186.4062 147.28572 L 188.56245 148.66072 L 188.56245 -0.74558262 L 118.99995 -0.74558262 L 119.00005 -0.74513262 L 119.00005 -0.74953262 L 119.00005 145.84422 L 119.00005 152.34422 L 118.37505 151.96922 L 117.4063 151.62552 L 115.5938 151.25052 L 112.81255 151.43802 L 111.81255 152.15672 L 111.4688 151.71922 C 110.67826 151.65732 110.08092 151.94747 109.37505 152.25002 L 107.50005 152.34402 L 106.06255 152.15652 L 105.5938 151.78152 L 104.7188 151.62522 L 103.81255 151.00022 L 101.0313 150.62522 L 99.12505 150.62522 L 98.2188 150.81272 L 95.43755 150.43772 L 94.5313 150.00032 L 94.00005 149.53152 L 93.18755 149.46952 L 92.6563 149.18832 L 91.8438 149.53202 L 90.93755 148.90702 L 90.2188 148.75082 L 89.06255 148.56332 L 88.06255 148.00082 L 87.1563 148.09482 C 83.6163 147.15732 83.45005 149.66482 81.75005 147.93852 L 78.9688 148.46982 L 78.7813 149.00112 L 77.00005 148.46982 L 75.0938 148.37582 L 75.81255 147.46962 L 74.93755 147.37562 L 74.0313 147.56312 L 72.12505 147.37562 L 73.93755 147.21932 L 73.0313 146.93812 L 73.125 146.03182 L 73.84375 145.12562 L 72.84375 144.87562 L 71.9375 145.03182 L 71.0625 144.96982 L 69.15625 144.40732 L 68.1875 144.68862 L 66.375 144.68862 L 65.375 145.31362 L 63.5 145.21962 L 62.59375 144.50082 L 62.875 143.59462 L 61.96875 142.96962 L 61.0625 143.50082 L 60.15625 142.78212 L 58.71875 144.25082 L 58.375 145.12582 L 56.5625 145.21982 L 56.6562 144.96982 L 55.74995 144.40732 L 56.74995 143.96982 L 57.6562 143.78232 L 58.5312 142.87612 L 57.6562 142.06362 L 53.9687 141.28232 L 54.4062 140.37612 L 52.5937 141.28232 L 51.7187 142.06362 L 50.9062 143.06362 L 49.4687 143.96982 L 48.0937 144.78232 L 47.2187 145.12612 L 42.5312 145.68862 L 41.62495 145.75062 L 40.7187 145.59432 L 41.62495 144.78182 L 39.74995 145.31312 L 37.93745 146.56312 L 37.93745 146.84432 L 38.6562 147.56312 L 40.56245 148.00062 L 38.74995 148.18812 L 38.56245 149.18812 L 38.65615 150.09432 L 37.9374 149.18812 L 37.3124 149.46932 L 37.9374 148.56312 L 37.9374 148.18812 L 36.9374 148.18812 L 37.9374 147.84432 L 37.9374 147.21932 L 37.1249 147.12532 L 33.4374 149.71912 L 32.09365 149.90662 L 30.65615 150.09412 L 29.65615 150.53162 L 28.7499 150.53162 L 29.65615 150.25032 L 29.84365 149.81282 L 28.84365 149.62532 L 27.9374 150.53162 L 27.0624 151.15662 L 26.34365 152.34412 L 24.4374 153.78162 L 24.2499 154.68782 L 23.71865 155.12532 L 23.3749 155.46912 L 23.53115 156.37532 L 22.9999 157.28162 L 21.3749 159.18782 L 19.59365 160.34412 L 18.6874 160.71912 L 17.40615 160.96912 L 11.7499 161.50022 L 9.9374 161.34392 L 9.062 161.49982 L 0 165.99982 L 0 274.89582 L 40.632 263.98347 L 58.872 257.55137 L 80.893 245.07822 L 102.373 233.08121 Z"/>
    <path id="path41724" fill="#8cce55" stroke="#0f380f" stroke-opacity="0.14509804" stroke-linecap="round" stroke-linejoin="round" transform="matrix(1 0 0 1 0.5 1.2670726)" d="M 9.40625 225.03125 L 8.5 225.12495 L 7.625 225.12495 L 7.59375 225.12495 L 5.8125 226.12495 L 4.8125 226.12495 L 3.9375 226.74995 L 4.8125 227.6562 L 5.25 227.6562 L 5.4375 227.6562 L 6.25 228.18745 L 7.15625 228.62495 L 8.0625 228.62495 L 9.03125 228.71865 L 9.6875 228.65615 L 10.84375 228.46865 L 11.75 227.65615 L 11.65625 227.28115 L 11.5625 227.03115 L 11.375 226.3749 L 11.28125 225.4999 L 10.3125 225.4999 L 9.40625 225.03115 L 9.40625 225.03125 Z"/>
    <path id="path41752" fill="#8cce55" stroke="#0f380f" stroke-opacity="0.14509804" stroke-linecap="round" stroke-linejoin="round" transform="matrix(1 0 0 1 0.5 1.2670726)" d="M 54.40625 140.375 L 52.59375 141.28125 L 51.71875 142.0625 L 50.90625 143.0625 L 49.46875 143.96875 L 48.09375 144.78125 L 47.21875 145.125 L 42.53125 145.6875 L 41.625 145.75 L 40.71875 145.59375 L 41.625 144.78125 L 39.75 145.3125 L 37.9375 146.5625 L 37.9375 146.84375 L 38.65625 147.5625 L 40.5625 148 L 38.75 148.1875 L 38.5625 149.1875 L 38.65625 150.09375 L 37.9375 149.1875 L 37.3125 149.46875 L 37.9375 148.5625 L 37.9375 148.1875 L 36.9375 148.1875 L 37.9375 147.84375 L 37.9375 147.21875 L 37.125 147.12505 L 33.4375 149.7188 L 32.09375 149.9063 L 30.65625 150.0938 L 29.65625 150.5313 L 28.75 150.5313 L 29.65625 150.25005 L 29.84375 149.81255 L 28.84375 149.62505 L 27.9375 150.5313 L 27.0625 151.1563 L 26.34375 152.3438 L 24.4375 153.7813 L 24.25 154.68755 L 23.71875 155.12505 L 23.375 155.4688 L 23.53125 156.37505 L 23 157.2813 L 21.375 159.18755 L 19.59375 160.3438 L 18.6875 160.7188 L 17.40625 160.9688 L 11.75 161.5 L 9.9375 161.34375 L 9.0625 161.5 L 9.21875 162.40625 L 8.4375 165.1875 L 7.53125 165.5625 L 7.0625 165.4688 L 6.8125 165.6563 L 7.78125 165.75 L 8.6875 166 L 9.59375 166.5625 L 10.5 167.375 L 11.46875 167.53125 L 13.28125 168.1875 L 15.15625 169.4375 L 16.0625 169.96875 L 16.15625 169.87505 L 19.03125 171.68755 L 20.21875 173.56255 L 20.75 175.37505 L 23.53125 175.9063 L 25.34375 175.9063 L 25.53125 176.0938 L 26.40625 175.81255 L 26.59375 175.00005 C 26.805156 175.26739 26.980481 175.44747 27.15625 175.5938 C 27.24413 175.667 27.356127 175.73224 27.4375 175.7813 C 28.169857 176.22288 28.647681 175.7863 29.5 175.93755 C 29.784106 175.98785 30.116245 176.1043 30.5 176.3438 C 30.627918 176.4236 30.764063 176.51599 30.90625 176.62505 L 30.03125 176.62505 L 29.21875 177.7188 L 29.375 178.68755 L 30.65625 179.68755 L 31.71875 179.87505 L 32.8125 178.9688 L 33.71875 178.8751 L 34.59375 179.34385 L 36.40625 179.15635 L 36.9375 180.0626 L 36.5 180.9376 L 34.6875 181.1251 L 33.71875 180.8751 L 32.8125 180.21885 L 31.90625 180.15635 L 31 180.5 L 30.03125 180.3125 L 29.125 179.78125 L 28.3125 178.875 L 28.5 177.96875 L 27.59375 177.15625 L 26.6875 176.90625 L 25.78125 177.4375 L 26.5 178.34375 L 27.40625 178.43745 L 29.21875 180.2187 L 29.21875 181.12495 L 30.1875 180.87495 L 32.09375 181.2187 L 33 181.75 L 33.15625 182.65625 L 31.28125 181.9375 L 30.375 182.46875 L 29.65625 183.375 L 29.75 183.4687 L 28.84375 183.6562 L 27.9375 183.37495 L 26.96875 183.74995 L 26.0625 183.65625 L 25.15625 183.1875 L 24.15625 183.1875 L 23.28125 183.46875 L 22.28125 183.28125 L 20.46875 183.28125 L 19.65625 182.40625 L 18.78125 182.46875 L 19.65625 182.125 L 20.40625 180.3125 L 20.46875 179.40625 L 17.6875 179.40625 L 16.78125 179.59375 L 15 180.5 L 13.1875 180.78125 L 11.40625 181.5 L 11.3125 182.40625 L 12.1875 182.84375 L 11.3125 183.1875 L 9.5 182.75 L 8.5 182.75 L 6.71875 183.65625 L 6 184.5625 L 5.09375 185 L 4.1875 184.8125 L 3.28125 185.28125 L 2.75 186.15625 L 1.75 186.15625 L 0.875 186.71875 L 0.875 187.25 L 3.375 188.40625 L 5.28125 188.6875 L 6.1875 188.96875 L 7.0625 189.06245 L 6.1875 188.7812 L 8.96875 189.2187 L 9.875 189.7812 L 8.15625 189.7812 L 7.53125 190.6562 L 6.53125 190.6562 L 5.625 190.0312 L 6.1875 190.93745 L 7.0625 191.74995 L 8.25 192.4687 L 7.875 193.37495 L 8.4375 194.37495 L 9.3125 194.7187 L 13.09375 195.3437 L 14 195.625 C 16.088281 195.20391 18.470399 194.40739 20.625 194.71875 C 21.016746 194.77535 21.40845 194.86102 21.78125 195 C 22.34045 195.20848 22.876719 195.5246 23.375 195.96875 L 23 194.1875 L 24.8125 195.875 L 25.6875 196.0625 L 25.96875 195.15625 L 26.96875 194.625 L 27.875 193.90625 L 28.75 193.81255 L 29.75 193.00005 L 30.65625 193.2813 L 31.5625 193 L 32.34375 192.125 L 33.34375 192.0313 L 32.90625 192.56255 L 33.875 193.0938 L 34.25 194.00005 L 33.4375 194.9063 L 32.4375 195.3438 L 31.5625 195.0938 L 31.46875 195.87505 L 32.34375 195.96875 L 33.53125 197.78125 L 33.625 198.6875 L 34.0625 199.59375 L 34.34375 200.5625 L 33.8125 201.46875 L 32.90625 202.375 L 31.90625 202.90625 L 29.125 203.09375 L 28.21875 202.625 L 27.3125 202.625 L 25.78125 204.53125 L 24.875 204.875 L 24 205.78125 L 23 206.0625 L 22.09375 205.875 L 21.1875 205.9687 L 20.3125 206.49995 L 21.125 205.7812 L 20.65625 204.87495 L 19.21875 204.5312 L 17.40625 204.87495 L 16.96875 205.7812 L 17.875 206.3437 L 16.53125 206.1562 L 15.625 207.06245 L 15.8125 207.93745 L 15.34375 208.03115 L 16.0625 208.9374 L 17.15625 208.21865 L 16.15625 209.21865 L 15.71875 210.09365 L 16.625 210.3749 L 15.90625 210.2812 L 15 209.75 L 14.09375 210.03125 L 11.46875 212.8125 L 11.21875 213.71875 L 12.03125 214.59375 L 11.125 214.875 L 10.21875 215.59375 L 11.125 215.875 L 10.21875 216.0625 L 9.3125 215.9688 L 9.9375 216.8438 L 10.84375 217.56255 L 10.84375 218.4688 L 11.75 219.0938 L 12.125 220 L 13 219.46875 L 13.71875 218.5625 L 14 217.65625 L 15.8125 216.21875 L 16.0625 216.31245 L 15.4375 217.2187 L 14.4375 217.49995 L 13.28125 219.37495 L 14.1875 219.0312 L 14.09375 219.9062 L 15 220.4687 L 14.375 221.3437 L 15.34375 221.0937 L 16.25 221.1874 L 17.25 221.71865 L 19.03125 221.71865 L 20.84375 220.71865 L 20.75 221.6249 L 19.84375 221.8124 L 20.75 221.8124 L 21.65625 222.0624 L 21.75 223.0624 L 20.84375 223.59365 L 20.125 223.2499 L 20.03125 222.34365 L 19.125 222.43735 L 17.34375 223.68735 L 18.0625 223.06235 L 17.6875 222.1561 L 16.78125 222 L 15.8125 221.4375 L 14.90625 221.4375 L 14.625 222.34375 L 13 224.15625 L 14.90625 224.06255 L 14.375 224.9688 L 15 225.4063 L 15.90625 225.68755 L 16.25 225.50005 L 17.96875 227.2813 L 18.875 227.6563 L 18.6875 228.6563 L 19.59375 229.00005 L 20.46875 229.09375 L 22.375 228.90625 L 23.28125 228.75 L 24.25 228.28125 L 25.15625 227.65625 L 26.25 227.65625 L 26.40625 227.125 L 26.40625 226.21875 L 26.0625 225.3125 L 26.96875 224.40625 L 27.875 222.53125 L 28.3125 223.0625 L 29.21875 222.78125 L 28.40625 223.15625 L 27.59375 224.0625 L 27.0625 225.03125 L 26.78125 225.9375 L 27.6875 226.75 L 27.78125 227.65625 L 28.84375 229.28125 L 29.21875 230.1875 L 30.03125 231.15625 L 29.125 231.875 L 28.40625 232.875 L 29.3125 233.78125 L 30.1875 234.125 L 29.3125 234.3125 L 29.65625 236.21875 L 28.75 236.75 L 27.875 236.9375 L 30.65625 237.1875 L 31.5625 236.84375 L 31.8125 235.9375 L 32.71875 235.8438 L 34.59375 235.0313 L 35.5 234.5 L 36.40625 234.21875 L 37.03125 235.125 L 37.9375 235.40625 L 38.75 235.9375 L 39.09375 235.03125 L 40.09375 235.65625 L 41 236.5625 L 42.34375 238.375 L 42.71875 238.53125 L 43.59375 237.75 L 43.15625 236.84375 L 44.96875 234.21875 L 44.6875 233.3125 L 45.40625 234.125 L 46.3125 234.3125 L 46.75 234.78125 L 45.84375 234.40625 L 44.875 235.03125 L 44.6875 235.9375 L 45.9375 237.09375 L 46.84375 237.09375 L 48.65625 236.28125 L 51.4375 235.3125 L 52.4375 234.40625 L 52.875 233.5 L 52.53125 234.5 L 51.71875 235.40625 L 52.0625 236.28125 L 51 236.84375 L 49.28125 238.625 L 49.375 239.53125 L 50.28125 239.71875 L 51.15625 240.25 L 50.1875 239.90625 L 49.28125 240.15625 L 49 241.0625 L 48.90625 242.0625 L 48.65625 242.96875 L 49.1875 244.75 L 50 244.3125 L 49.71875 244.75 L 48.75 244.8437 L 48.5625 244.2187 L 47.65625 244.6562 L 46.84375 245.56245 L 45.84375 245.8437 L 44.25 247.62495 L 43.96875 248.5312 L 43.34375 249.43745 L 42.4375 249.1562 L 41.53125 249.9687 L 38.84375 250.9687 L 36.84375 252.31245 L 35.96875 253.2187 L 35.59375 254.12495 L 35.59375 254.99995 L 36.125 255.9062 L 35.25 255.4687 L 34.34375 255.5624 L 34.25 256.46865 L 33.625 255.5624 L 33.8125 254.5624 L 32.90625 255 L 32 254.65625 L 28.21875 256.09375 L 27.3125 256.8125 L 26.5 257.71875 L 26.34375 258.71875 L 25.4375 258.96875 L 24.53125 259.875 L 23.625 259.7813 L 22.65625 260.1563 L 22.71875 261.12505 L 23 262.0313 L 23.375 261.12505 L 23.1875 260.1563 L 24.09375 261.12505 L 25.0625 261.50005 L 25.96875 261.12505 L 25.875 260.2188 L 25.4375 259.3438 L 26.34375 259.87505 L 26.875 260.87505 L 27.875 260.06255 L 28.75 260.2188 L 29.3125 259.25005 L 30.03125 258.3438 L 30.28125 257.43755 L 31.1875 257.00005 L 32.09375 257.62505 L 31.1875 257.81255 L 31.1875 258.7188 L 32.09375 258.7813 L 33.96875 257.7188 L 34.875 257.5313 L 35.78125 257.81255 L 36.0625 256.81255 L 37.03125 256.81255 L 37.9375 256.00005 L 38.46875 256.00005 L 39.375 256.2813 L 39.03125 257.18755 L 40 256.9063 L 40.46875 255.9063 L 41.4375 255.2813 L 42.34375 255.2813 L 43.25 254.4688 L 44.15625 254.6563 L 44.59375 253.75005 L 44.875 254.6563 L 45.21875 254.4688 L 45.59375 253.56255 L 46.5 253.0313 L 45.59375 253.4063 L 45.6875 252.50005 L 44.6875 252.31255 L 45.6875 251.4063 L 46.5625 251.2188 L 47.46875 250.7813 L 46.5625 251.06255 L 47.46875 250.43755 L 48.375 250.25005 L 49.28125 249.7813 L 50.1875 249.06255 L 51.34375 249.15625 L 52.34375 248.25 L 54.125 247.625 L 54.6875 246.71875 L 54.03125 245.84375 L 54.9375 245.21875 L 56.75 244.5 L 57.65625 244.3125 L 58 243.6875 L 58.90625 242.96875 L 60.71875 242.0625 L 61.4375 241.15625 L 63.21875 240.625 L 64.21875 240.78125 L 64.9375 239.90625 L 64.75 239 L 65.21875 238.09375 L 66.1875 237.1875 L 67.09375 237.1875 L 68 236.5625 L 68.625 235.65625 L 68.4375 234.78125 L 67.53125 234.59375 L 66.65625 234.03125 L 64.75 234.12495 L 64.9375 233.7812 L 65.125 231.9687 L 66.09375 231.7187 L 66.375 230.81245 L 67.28125 230.18745 L 69.0625 229.99995 L 69.96875 229.7187 L 70.15625 228.81245 L 69.25 228.6562 L 71.0625 228.4687 L 72.03125 227.6562 L 72.21875 227.0312 L 70.4375 225.49995 L 71.3125 226.0312 L 72.21875 226.1249 L 73.125 225.4999 L 73.40625 224.59365 L 74.1875 223.6874 L 75.09375 222.78115 L 76.09375 222.15615 L 76.28125 221.28115 L 77.1875 220.71865 L 78.96875 220.1874 L 79.875 219.28115 L 80.78125 219.03115 L 81.59375 218.1249 L 82.40625 218.9374 L 84.28125 219.0311 L 85.1875 217.8436 L 86.09375 217.2186 L 86.96875 217.49985 L 85.1875 218.37485 L 84.28125 219.2811 L 84.28125 219.74985 L 86.09375 220.7186 L 87.875 221.43735 L 85.1875 220.9061 L 83.90625 221.3436 L 82.03125 220.56235 L 81.125 220.9061 L 79.34375 222.1561 L 78.4375 222.2498 L 77.96875 223.15605 L 78.34375 224.15605 L 78.15625 225.03105 L 77.8125 225.84355 L 76.1875 227.65605 L 75.65625 228.9998 L 76.28125 229.90605 L 77.25 230.1873 L 78.15625 229.8123 L 79.0625 229.8123 L 78.25 230.71855 L 77.34375 231.34355 L 76.375 231.43725 L 75.46875 231.781 L 75.1875 232.781 L 76.09375 233.31225 L 78.875 232.531 L 79.78125 232.9685 L 80.59375 232.06225 L 81.5 231.531 L 81.59375 230.62475 L 82.46875 230.62475 L 83.28125 229.62475 L 83.375 230.62475 L 84.28125 230.18725 L 84.28125 229.0935 L 85.4375 229.62475 L 85 228.656 L 85.90625 228.5623 L 86.4375 229.46855 L 86.15625 228.5623 L 87.0625 227.65605 L 87.4375 227.65605 L 87.625 228.5623 L 87.96875 227.65605 L 90.125 228.03105 L 91.03125 227.65605 L 91.65625 227.65605 L 91.84375 226.7498 L 92.84375 226.6561 L 92.1875 225.7811 L 93.09375 224.9686 L 93.5625 224.06235 L 92.65625 223.87485 L 91.75 224.06235 L 90.75 224.06235 L 91.65625 223.7811 L 92.5625 223.24985 L 92.46875 222.3436 L 91.5625 223.24985 L 91.3125 222.3436 L 90.40625 222.7811 L 91.03125 221.9061 L 91.9375 221.9061 L 92.375 221 L 92.28125 220 L 93.28125 220.5625 L 93.90625 219.65625 L 94.8125 218.75 L 94.625 219.375 L 93.90625 220.28125 L 93.5625 221.28125 L 95.34375 221.625 L 95.34375 220.71875 L 95.71875 219.8125 L 95.96875 220.71875 L 97.78125 220.62505 L 98.6875 220.9063 L 99.59375 220.18755 L 100.46875 219.81255 L 101.46875 220.0938 L 100.46875 220.0938 L 99.59375 220.62505 L 99.59375 221.5313 L 100.5625 222.00005 L 101.46875 221.7188 L 102.375 221.9063 L 100.84375 222.25005 L 99.9375 222.87505 L 100.84375 222.78135 L 102.625 222.2501 L 102.375 223.15635 L 103.28125 222.96885 L 104.15625 223.53135 L 103.71875 224.40635 L 104.71875 224.59385 L 105.59375 225.1251 L 106.5 224.96885 L 108.3125 223.2501 L 109.21875 222.71885 L 109.21875 222.8751 L 108.3125 223.6876 L 108.03125 225.59385 L 108.9375 226.1251 L 110.03125 226.5001 L 110.90625 226.5626 L 111.28125 227.46885 L 112.8125 227.65635 L 113.625 227.3751 L 118.28125 226.9376 L 119 227.1251 L 122.0625 227.65635 L 122.78125 228.03135 L 123.78125 227.65635 L 124.25 226.7501 L 124.78125 227.65635 L 124.15625 228.5626 C 127.46625 229.5251 128.805 230.6701 131.71875 228.5626 L 132.5 227.65635 L 133.3125 227.65635 L 133.875 228.28135 L 135.75 229.0001 L 134.84375 228.7501 L 133.9375 229.53135 L 133.6875 230.4376 L 133.875 228.65635 L 132.875 227.9376 L 132.5 228.8126 L 133.0625 229.71885 L 132.25 230.6251 L 131.34375 230.90635 L 132.25 231.2501 L 133.15625 231.8751 L 134.03125 231.9688 L 134.9375 232.5938 L 135.9375 232.9688 L 136.84375 233.50005 L 137.8125 233.31255 L 137.46875 233.87505 L 138.375 234.0313 L 139.25 234.68755 L 140.15625 235.50005 L 141.59375 237.2813 L 143.5 238.2813 L 145.28125 239.00005 L 146.09375 239.9063 L 146.28125 239.00005 L 147.1875 238.62505 L 148.09375 239.18755 L 148.96875 238.7188 L 148.15625 237.81255 L 147.90625 236.93755 L 147 236.84385 L 146.8125 235.84385 L 145.03125 235.3126 L 144.03125 235.5001 L 144.9375 235.03135 L 144.21875 234.1251 L 145.125 234.6876 L 146 234.5939 L 146.8125 235.50015 L 147.71875 236.12515 L 148.71875 235.4064 L 148.71875 234.50015 L 148.90625 235.4064 L 149.78125 235.4064 L 148.90625 235.93765 L 149.875 237.75015 L 149.9687 238.7189 L 150.87495 238.4689 L 151.87495 238.62515 L 152.2187 239.5314 L 153.12495 239.9064 L 153.56245 239.00015 L 153.12495 238.0939 L 153.03125 237.18765 L 151.9375 234.7814 L 151.9375 233.87515 L 151.3125 232.9689 L 152.21875 233.31265 L 151.5 232.43765 L 151.9375 232.34395 L 152.21875 231.4377 L 152.12505 232.15645 L 152.31255 233.0627 L 152.75005 233.96895 L 153.2188 235.7502 L 154.12505 236.1252 L 153.93755 237.0002 L 155.0938 238.8127 L 156.0938 238.9064 L 157.00005 239.62515 L 157.87505 239.71885 L 158.5938 237.90635 L 159.50005 237.81265 L 158.5938 238.5314 L 158.1563 239.43765 L 158.0626 240.3439 L 158.59385 241.25015 L 159.5001 240.87515 L 159.2501 241.87515 L 160.0626 242.7814 L 160.5001 241.87515 L 161.40635 241.96885 L 162.3126 242.3126 L 161.40635 242.15635 L 160.5001 242.3126 L 161.21885 243.21885 L 163.03135 244.5626 L 160.3126 243.3126 L 160.6876 244.21885 L 161.59385 244.12515 L 160.84385 245.0314 L 161.7501 245.8439 L 162.65635 245.8439 L 160.84385 246.18765 L 161.1251 247.0939 L 162.03135 247.0939 L 163.03135 247.62515 L 163.90635 247.71885 L 163.7501 248.6251 L 164.6251 249.34385 L 165.53135 249.6251 L 165.34385 250.5001 L 166.2501 250.4376 L 166.53135 251.40635 L 167.53135 252.1251 L 168.0626 253.03135 L 169.6876 253.40635 L 168.78135 253.31265 L 167.8751 253.8439 L 167.9688 254.75015 L 166.7188 256.62515 L 167.3438 257.5314 L 168.25005 257.18765 L 168.68755 256.2814 L 168.78125 255.37515 L 169.6875 254.93765 L 171.5625 254.56265 L 172.8125 256.4689 L 172.9062 258.25015 L 173.4687 259.25015 L 172.56245 259.43765 L 172.9062 260.31265 L 173.81245 259.9689 L 174.7187 259.1564 L 173.9062 260.06265 L 172.99995 260.4064 L 172.6562 261.4064 L 172.6562 262.31265 L 173.56245 261.68765 L 173.81245 262.56265 L 174.81245 262.0314 L 175.7187 261.12515 L 176.1562 260.2189 L 176.9687 259.25015 L 176.43745 257.9064 L 176.34375 257.18765 L 176.15625 256.0939 L 176.875 255.18765 L 176.7813 254.2189 L 175.7813 253.93765 L 174.9063 253.31265 L 174 252.75 L 173 252.125 L 172.09375 251.96875 L 171.125 251.40625 L 170.21875 250.96875 L 169.21875 250.59375 L 168.5 250.25 L 168.3125 249.34375 L 167.34375 248.96875 L 167.53125 248 L 166.53125 247.53125 L 166.62495 246.65625 L 166.0937 245.65625 L 165.2812 244.75 L 163.99995 242.96875 L 163.4687 242.0625 L 162.6562 241.15625 L 162.2187 240.15625 L 161.31245 239.34375 L 161.21875 238.53125 L 160.21875 237.65625 L 160.0625 237.46875 L 159.25 236.375 L 158.25 235.9375 L 157.25 235.5 L 156.625 234.59375 L 156.28125 233.6875 L 155.375 233.3125 L 154.375 232.6875 L 153.5625 231.78125 L 153.75 230.8125 L 153.3125 230.28125 L 152.3125 229.625 L 151.40625 229.09375 L 150.40625 229.53125 L 149.34375 230 L 148.4375 230.0937 L 147.53125 230.43745 L 147.71875 231.3437 L 147 232.25 L 146.65625 233.25 L 145.65625 233.40625 L 144.75 233.78125 L 143.75 234.3125 L 142.875 234.84375 L 142.0625 233.875 L 141.78125 232.96875 L 140.78125 232.15625 L 139.96875 231.53125 L 139.8125 231.43755 L 138.90625 230.7188 L 137.90625 229.9063 L 137 229.2813 L 136.65625 228.2813 L 135.75 227.93755 L 135.03125 227.6563 L 134.5 226.6563 L 134.84375 225.7813 L 133.875 225.2188 L 132.96875 225.3125 L 131.96875 225.4062 L 130.96875 226.12495 L 130.625 226.31245 L 128.65625 225.5937 L 127.65625 226.0312 L 127.5 225.9687 C 127.4759 225.9687 127.4609 225.9687 127.4375 225.9687 C 126.69961 226.0287 126.32677 225.6093 126.125 224.9687 C 126.119 224.9497 126.131 224.9242 126.125 224.9062 L 125.9375 224.68745 C 125.9375 224.42735 125.9375 224.1663 125.9375 223.9062 C 125.8854 223.1528 125.9189 222.3253 125.9375 221.6562 C 125.9455 221.368 125.953 221.1155 125.9375 220.9062 C 125.9375 219.0731 125.9375 217.2389 125.9375 215.4062 C 125.9375 212.4694 125.9375 209.5307 125.9375 206.5937 C 125.9375 189.3749 125.9375 172.15625 125.9375 154.93745 L 125.6875 154.93745 L 124.78125 155.12495 L 124.68755 155.12495 L 123.7813 154.74995 L 122.7188 154.0312 L 121.7188 153.68745 L 121.43755 153.87495 L 119.00005 152.3437 L 118.37505 151.9687 L 117.4063 151.62495 L 115.5938 151.24995 L 112.81255 151.43745 L 111.81255 152.1562 L 111.4688 151.7187 L 110.4688 151.7812 L 109.37505 152.24995 L 107.50005 152.34365 L 106.06255 152.15615 L 105.5938 151.78115 L 104.7188 151.6249 L 103.81255 150.9999 L 101.0313 150.6249 L 99.12505 150.6249 L 98.2188 150.8124 L 95.43755 150.4374 L 94.53125 150 L 94 149.53125 L 93.1875 149.46875 L 92.65625 149.1875 L 91.84375 149.53125 L 90.9375 148.90625 L 90.21875 148.75 L 89.0625 148.5625 L 88.0625 148 L 87.15625 148.0937 C 85.38625 147.62495 84.446562 148.0185 83.75 148.31245 C 83.575859 148.38595 83.436226 148.4538 83.28125 148.49995 C 82.816323 148.63842 82.3875 148.58475 81.75 147.93745 L 78.96875 148.46875 L 78.78125 149 L 77 148.46875 L 75.09375 148.37505 L 75.8125 147.4688 L 74.9375 147.3751 L 74.03125 147.5626 L 72.125 147.3751 L 73.9375 147.21885 L 73.03125 146.9376 L 73.125 146.03135 L 73.84375 145.1251 L 72.84375 144.8751 L 71.9375 145.03135 L 71.0625 144.96885 L 69.15625 144.40635 L 68.1875 144.6876 L 66.375 144.6876 L 65.375 145.3126 L 63.5 145.2189 L 62.59375 144.50015 L 62.875 143.5939 L 61.96875 142.9689 L 61.0625 143.50015 L 60.15625 142.7814 L 58.71875 144.25015 L 58.375 145.12515 L 56.5625 145.21885 L 56.65625 144.96885 L 55.75 144.40635 L 56.75 143.96885 L 57.65625 143.78135 L 58.53125 142.8751 L 57.65625 142.0626 L 53.96875 141.28135 L 54.40625 140.3751 L 54.40625 140.375 Z"/>
    <path id="path41712" fill="#8cce55" stroke="#0f380f" stroke-opacity="0.14509804" stroke-linecap="round" stroke-linejoin="round" transform="matrix(1 0 0 1 0.5 1.2670726)" d="M 72.21875 238.25 L 71.40625 238.5625 L 71.5 239.4375 L 71.40625 239.4375 L 71.40625 239.5 L 70.5 239.4063 L 70.46875 239.4375 L 69.71875 239.90625 L 70.0625 240.78125 L 71.03125 241.3125 L 71.625 241.0625 L 71.84375 240.9375 L 71.84375 240.9063 L 72.21875 240.0313 L 72.28125 240.0625 L 72.3125 240 L 73.15625 240.40625 L 73.5625 239.59375 L 73.59375 239.62495 L 73.65625 239.53125 L 74.59375 240.1875 L 75 239.40625 L 74 238.96875 L 73.09375 238.96875 L 72.21875 238.25 Z"/>
    <path id="path41700" fill="#8cce55" stroke="#0f380f" stroke-opacity="0.14509804" stroke-linecap="round" stroke-linejoin="round" transform="matrix(1 0 0 1 0.5 1.2670726)" d="M 69.25 241.46875 L 69.96875 242.25 L 69.4375 243.125 L 69.375 243.0938 L 69.3125 243.1875 L 68.5 242.625 L 68.34375 243.40625 L 68.28125 243.31255 L 68.25 243.4688 L 67.625 242.56255 L 66.75 242.12505 L 66 242.9688 L 66.90625 243.4063 L 67.1875 244.31255 L 66.5625 245.2188 L 67.375 246.0938 L 66.90625 245.7813 L 67.25 246.1563 L 66.34375 245.5313 L 65.90625 244.62505 L 65.375 243.7188 L 64.5 243.6251 L 64.46875 243.6251 L 63.5625 244.1876 L 62.78125 244.65635 L 62.3125 245.5626 L 63.03125 246.46885 L 63.3125 247.3751 L 64.03125 248.34385 L 64.84375 248.34385 L 65.03125 247.6876 L 65 248.03135 L 65.03125 248.03135 L 65.125 247.6251 L 65.125 247.96885 L 65.90625 247.5001 L 66.6875 247.1876 L 66.8125 247.1564 L 66 247.9064 L 65.75 248.81265 L 65.03125 249.7189 L 65.84375 249.6252 L 66.8125 249.03145 L 66.90625 248.96895 L 67.71875 248.21895 L 66.8125 247.78145 L 66.96875 247.75025 L 66.90625 247.71905 L 67.78125 247.53155 L 67.8125 247.53155 L 68.46875 246.96905 L 68.53125 246.90655 L 68.8125 246.81285 L 69.40625 246.5941 L 69.875 246.5004 L 71.3125 246.09415 L 72.125 245.6254 L 71.21875 244.96915 L 70.3125 245.06285 L 70.4375 245.03165 L 71.21875 244.71915 L 71.3125 244.65665 L 73.0625 245.09415 L 73.90625 244.25 L 73 243.90625 L 72.65625 243 L 72.75 242.09375 L 71.875 242.18745 L 71.84375 242.18745 L 71.5625 242.31245 L 71.0625 242.49995 L 70.9375 242.56245 L 69.96875 241.75 L 69.25 241.46875 L 69.25 241.46875 Z"/>
    <path id="path41652" fill="#8cce55" stroke="#0f380f" stroke-opacity="0.14509804" stroke-linecap="round" stroke-linejoin="round" transform="matrix(1 0 0 1 0.5 1.2670726)" d="M 20.46875 260.71875 L 17.90625 261.75 L 17.875 261.75 L 17.75 261.8125 L 16.84375 261.8125 L 16.4375 262.65625 L 15.53125 263.46875 L 15.5 263.46875 L 15.4375 263.53125 L 15.25 263.59375 L 15.34375 264.46875 L 16.25 264.90625 L 17.09375 264.81255 L 17.9375 263.9688 L 18.625 263.6563 L 18.84375 263.5313 L 18.9375 263.4688 L 20.75 263.4688 L 21.75 263.2813 L 22.0625 263.1563 L 22.53125 262.9688 L 22.5625 262.9688 L 22.65625 262.9376 L 23.125 263.0626 L 22.53125 262.71885 L 22 261.8125 L 21.375 260.8125 L 20.46875 260.7188 L 20.46875 260.71875 Z"/>
    <path id="path41644" fill="#8cce55" stroke="#0f380f" stroke-opacity="0.14509804" stroke-linecap="round" stroke-linejoin="round" transform="matrix(1 0 0 1 0.5 1.2670726)" d="M 11.71875 265.9375 L 12.09375 266.71875 L 12.46875 266.21875 L 11.71875 265.9375 Z"/>
    <path id="path41642" fill="#8cce55" stroke="#0f380f" stroke-opacity="0.14509804" stroke-linecap="round" stroke-linejoin="round" transform="matrix(1 0 0 1 0.5 1.2670726)" d="M 10.53125 266.15625 L 9.6875 266.90625 L 10.59375 267.25 L 11.375 266.75 L 10.53125 266.15625 Z"/>
    <path id="path41640" fill="#8cce55" stroke="#0f380f" stroke-opacity="0.14509804" stroke-linecap="round" stroke-linejoin="round" transform="matrix(1 0 0 1 0.5 1.2670726)" d="M 6.6875 267.5625 L 5.84375 267.6562 L 5.21875 267.93745 L 5 268.06245 L 5.28125 269.06245 L 6.1875 269.68745 L 6.03125 269.68745 L 6.0625 269.71865 L 5.28125 269.71865 L 5 270.59375 L 4.90625 270.62495 L 4.5 270.8437 L 4.09375 271.0312 L 4 271.0937 L 3.125 271.31245 L 2.40625 272.18745 L 2.75 272.15625 C 2.779146 272.14825 2.815742 272.13355 2.84375 272.12505 C 2.9626184 272.08895 3.0537974 272.04395 3.15625 272.00005 L 3.28125 271.96885 C 3.373061 271.92565 3.4460515 271.85955 3.53125 271.8126 C 3.8226158 271.65205 4.114426 271.49166 4.46875 271.34385 L 4.5 271.34385 L 4.71875 271.21885 L 4.84375 271.18765 C 5.1278281 271.10365 5.4792209 271.0639 5.90625 271.0314 L 6.53125 270.9377 L 6.96875 270.09395 L 7.03125 270.06275 L 7.0625 270.03155 L 7.875 269.8128 L 8.375 268.9378 L 7.53125 269.40655 L 7.40625 269.46905 L 8.21875 268.5628 L 8.125 267.71905 L 7.34375 268.40655 L 7.3125 268.37535 L 7.21875 268.46905 L 6.6875 267.5628 L 6.6875 267.5625 Z"/>
    <path id="path41750" fill="#8cce55" stroke="#0f380f" stroke-opacity="0.14509804" stroke-linecap="round" stroke-linejoin="round" transform="matrix(1 0 0 1 0.5 1.2670726)" d="M 176.875 255.1875 L 176.25 256.28125 L 176.3437 257.1875 L 176.68745 258.0625 L 176.9687 258.96875 L 176.9687 258.87505 L 176.43745 256.0938 L 176.9687 255.0938 L 176.875 255.1875 Z"/>
    <path id="path41746" fill="#8cce55" stroke="#0f380f" stroke-opacity="0.14509804" stroke-linecap="round" stroke-linejoin="round" transform="matrix(1 0 0 1 0.5 1.2670726)" d="M 184.21875 152.84375 C 183.93984 152.98798 183.58434 153.12652 183.1875 153.40625 C 183.58434 153.12652 183.93984 152.98798 184.21875 152.84375 Z"/>
    <path id="path41740" fill="#8cce55" stroke="#0f380f" stroke-opacity="0.14509804" stroke-linecap="round" stroke-linejoin="round" transform="matrix(1 0 0 1 0.5 1.2670726)" d="M 23.34375 155.1875 L 23.28125 155.2187 L 23.1875 155.4687 L 23.1875 155.93745 L 23.21875 155.96865 L 23.34375 155.1874 L 23.34375 155.1875 Z"/>
    <path id="path41738" fill="#8cce55" stroke="#0f380f" stroke-opacity="0.14509804" stroke-linecap="round" stroke-linejoin="round" transform="matrix(1 0 0 1 0.5 1.2670726)" d="M 151.5 157.375 L 152.40625 157.8125 L 152.40625 157.46875 L 151.5 157.375 Z"/>
    <path id="path41736" fill="#8cce55" stroke="#0f380f" stroke-opacity="0.14509804" stroke-linecap="round" stroke-linejoin="round" transform="matrix(1 0 0 1 0.5 1.2670726)" d="M 1652 200.75 L 1651.4688 202.625 L 1651.9375 203.53125 L 1652.8125 203.90625 L 1653.7188 203.90625 L 1654.7188 203.4375 L 1655.625 203.28125 L 1657.5 203.71875 L 1655.625 203.1875 L 1657.5 203.53125 L 1658.4062 204.09375 L 1659.125 204.96875 L 1660.0312 205.25 L 1660.1875 205.25 L 1661.0938 205.78125 L 1662.0938 205.96875 L 1663 205.25 L 1665.6875 204.96875 L 1665.5 204.09375 L 1664.625 203.90625 L 1663.7188 204.09375 L 1662.8125 203.8125 L 1661.8125 203.28125 L 1659.75 202.71875 L 1659.3125 201.84375 L 1658.4062 201.375 L 1657.5 201.4687 L 1655.6875 202.18745 L 1654.8125 201.9062 L 1653.8125 201.9062 L 1652.9062 201.4687 L 1652 200.75 Z"/>
    <path id="path41734" fill="#8cce55" stroke="#0f380f" stroke-opacity="0.14509804" stroke-linecap="round" stroke-linejoin="round" transform="matrix(1 0 0 1 0.5 1.2670726)" d="M 103.8125 223.4375 L 102.90625 223.6875 L 102 224.40625 L 103.8125 223.6875 L 103.8125 223.4375 Z"/>
    <path id="path41732" fill="#8cce55" stroke="#0f380f" stroke-opacity="0.14509804" stroke-linecap="round" stroke-linejoin="round" transform="matrix(1 0 0 1 0.5 1.2670726)" d="M 1646.1562 223.6875 L 1646.6875 224.59375 L 1647.5938 225.21875 L 1648.5938 225.31245 L 1649.5 225.5937 L 1648.9375 224.9687 L 1648.0625 224.875 L 1647.0625 224.40625 L 1646.1562 223.6875 Z"/>
    <path id="path41730" fill="#8cce55" stroke="#0f380f" stroke-opacity="0.14509804" stroke-linecap="round" stroke-linejoin="round" transform="matrix(1 0 0 1 0.5 1.2670726)" d="M 94.8125 224.25 L 94.1875 225.125 L 94 226.03125 L 94.875 225.65625 L 95.25 224.78125 L 94.8125 224.25 Z"/>
    <path id="path41728" fill="#8cce55" stroke="#0f380f" stroke-opacity="0.14509804" stroke-linecap="round" stroke-linejoin="round" transform="matrix(1 0 0 1 0.5 1.2670726)" d="M 75.09375 224.3125 L 74.84375 225.15625 L 75.625 224.3125 L 75.09375 224.3125 Z"/>
    <path id="path41726" fill="#8cce55" stroke="#0f380f" stroke-opacity="0.14509804" stroke-linecap="round" stroke-linejoin="round" transform="matrix(1 0 0 1 0.5 1.2670726)" d="M 100.03125 224.3125 L 99.59375 225.21875 L 99.84375 225.31245 L 100.46875 225.56245 L 101.375 225.2187 L 102.3125 224.93745 L 101.25 224.43745 L 100.9375 224.31245 L 100.03125 224.31245 L 100.03125 224.3125 Z"/>
    <path id="path41722" fill="#8cce55" stroke="#0f380f" stroke-opacity="0.14509804" stroke-linecap="round" stroke-linejoin="round" transform="matrix(1 0 0 1 0.5 1.2670726)" d="M 97.34375 225.40625 L 95.875 227.21875 L 95 227.65625 L 94.4375 228.28125 L 94.1875 229.1875 L 95.96875 228.5625 L 96.53125 227.375 L 98.21875 225.59375 L 97.34375 225.40625 Z"/>
    <path id="path41720" fill="#8cce55" stroke="#0f380f" stroke-opacity="0.14509804" stroke-linecap="round" stroke-linejoin="round" transform="matrix(1 0 0 1 0.5 1.2670726)" d="M 93.1875 226.40625 L 92.90625 227.28125 L 93.34375 226.40625 L 93.1875 226.40625 Z"/>
    <path id="path41718" fill="#8cce55" stroke="#0f380f" stroke-opacity="0.14509804" stroke-linecap="round" stroke-linejoin="round" transform="matrix(1 0 0 1 0.5 1.2670726)" d="M 110.8125 227.65625 L 110.1875 228.28125 L 111.09375 227.65625 L 110.8125 227.65625 Z"/>
    <path id="path41716" fill="#8cce55" stroke="#0f380f" stroke-opacity="0.14509804" stroke-linecap="round" stroke-linejoin="round" transform="matrix(1 0 0 1 0.5 1.2670726)" d="M 34.5 235.90625 L 34.4375 235.93745 L 32.71875 236.93745 L 33.21875 237.5312 L 34.0625 236.7812 L 34.5 235.9062 L 34.5 235.90625 Z"/>
    <path id="path41714" fill="#8cce55" stroke="#0f380f" stroke-opacity="0.14509804" stroke-linecap="round" stroke-linejoin="round" transform="matrix(1 0 0 1 0.5 1.2670726)" d="M 72.71875 237.25 L 72.53125 238.03125 L 73.28125 237.34375 L 72.71875 237.25005 L 72.71875 237.25 Z"/>
    <path id="path41710" fill="#8cce55" stroke="#0f380f" stroke-opacity="0.14509804" stroke-linecap="round" stroke-linejoin="round" transform="matrix(1 0 0 1 0.5 1.2670726)" d="M 154.125 238.625 L 154.125 239.53125 L 154.65625 240.4375 L 154.90625 241.34375 L 155.09375 243.21875 L 155.71875 244.65625 L 156.625 244.3125 L 155.71875 244.75 L 156.625 245.46875 L 155.71875 246.09375 L 155.71875 247 L 156.625 247.53125 L 157.53125 246.8125 L 157.8125 245.84375 L 158.6875 245.93745 L 158.53125 245.0312 L 158.6875 244.12495 L 157.34375 242.24995 L 157.34375 241.3437 L 158.53125 243.2187 L 159.25 244.12495 L 158.59375 242.31245 L 158.0625 241.43745 L 157.71875 240.43745 L 155.8125 240.1562 L 154.90625 239.5312 L 154.125 238.62495 L 154.125 238.625 Z"/>
    <path id="path41708" fill="#8cce55" stroke="#0f380f" stroke-opacity="0.14509804" stroke-linecap="round" stroke-linejoin="round" transform="matrix(1 0 0 1 0.5 1.2670726)" d="M 156 239.09375 L 156 239.90625 L 156.90625 239.71875 L 156 239.09375 Z"/>
    <path id="path41706" fill="#8cce55" stroke="#0f380f" stroke-opacity="0.14509804" stroke-linecap="round" stroke-linejoin="round" transform="matrix(1 0 0 1 0.5 1.2670726)" d="M 147.53125 239.8125 L 147.28125 240.71875 L 148.15625 241.59375 L 147.1875 242.5 L 148.15625 242.96875 L 148.625 243.84375 L 150.15625 245.125 L 149.25 244.5625 L 149.96875 245.46875 L 150.875 245.28125 L 151.125 244.40625 L 150.25 243.6875 L 151.125 243.5 L 153.03125 244.5625 L 153.9375 244.9375 L 154.46875 244.03125 L 154.1875 243.125 L 152.40625 243.125 L 151.5 242.40625 L 149.6875 241.4375 L 152.40625 242.59375 L 153.3125 242.78125 L 152.9375 241.875 L 153.84375 242.15625 L 154.1875 241.25 L 153.21875 240.71875 L 152.3125 240.62505 L 150.40625 241.43755 L 151.3125 240.7188 L 150.5 239.81255 L 148.625 239.81255 L 148.4375 240.7188 L 147.53125 239.81255 L 147.53125 239.8125 Z"/>
    <path id="path41704" fill="#8cce55" stroke="#0f380f" stroke-opacity="0.14509804" stroke-linecap="round" stroke-linejoin="round" transform="matrix(1 0 0 1 0.5 1.2670726)" d="M 69.15625 240.5625 L 69.15625 240.78125 L 69.75 240.90625 L 69.15625 240.5625 Z"/>
    <path id="path41702" fill="#8cce55" stroke="#0f380f" stroke-opacity="0.14509804" stroke-linecap="round" stroke-linejoin="round" transform="matrix(1 0 0 1 0.5 1.2670726)" d="M 146.8125 240.71875 L 147.375 241.59375 L 147 240.71875 L 146.8125 240.71875 Z"/>
    <path id="path41698" fill="#8cce55" stroke="#0f380f" stroke-opacity="0.14509804" stroke-linecap="round" stroke-linejoin="round" transform="matrix(1 0 0 1 0.5 1.2670726)" d="M 68.25 241.625 L 68.25 242.0625 L 69 242.0625 L 68.25 241.625 Z"/>
    <path id="path41696" fill="#8cce55" stroke="#0f380f" stroke-opacity="0.14509804" stroke-linecap="round" stroke-linejoin="round" transform="matrix(1 0 0 1 0.5 1.2670726)" d="M 152.125 244.9375 L 151.21875 245.125 L 150.96875 246 L 151.9375 246.375 L 152.0312 247.28125 L 152.93745 247.71875 L 152.0312 248.34375 L 152.31245 249.34375 L 153.2187 249.15625 L 152.8437 250.0625 L 153.74995 249.53125 L 153.2187 250.4375 L 153.37495 250.6875 L 154.2812 250.15625 L 153.6562 251.0625 L 154.74995 252.84375 L 155.56245 251.96875 L 155.37495 250.96875 L 155.56245 250.0625 L 154.56245 246.46875 L 154.0312 245.5625 L 153.0312 245.125 L 152.12495 244.9375 L 152.125 244.9375 Z"/>
    <path id="path41694" fill="#8cce55" stroke="#0f380f" stroke-opacity="0.14509804" stroke-linecap="round" stroke-linejoin="round" transform="matrix(1 0 0 1 0.5 1.2670726)" d="M 150.5 245.9375 L 149.875 246.28125 L 150.34375 247.1875 L 150.0625 248.09375 L 150.96875 247.71875 L 150.96875 246.8125 L 150.5 245.9375 Z"/>
    <path id="path41692" fill="#8cce55" stroke="#0f380f" stroke-opacity="0.14509804" stroke-linecap="round" stroke-linejoin="round" transform="matrix(1 0 0 1 0.5 1.2670726)" d="M 70.59375 246.8125 L 69.625 246.96875 L 69.5 246.96875 L 69.375 246.99995 L 68.71875 247.09365 L 68.71875 247.12485 L 68.59375 247.15605 L 68.875 248.1248 L 68.96875 248.0623 L 68.96875 248.0935 L 69.875 247.37475 L 70.75 247.156 L 70.71875 247.1248 L 70.875 247.0936 L 70.59375 246.81235 L 70.59375 246.8125 Z"/>
    <path id="path41690" fill="#8cce55" stroke="#0f380f" stroke-opacity="0.14509804" stroke-linecap="round" stroke-linejoin="round" transform="matrix(1 0 0 1 0.5 1.2670726)" d="M 65.09375 247.15625 L 65.0625 247.5 L 64.1875 247.3125 L 65.09375 247.15625 Z"/>
    <path id="path41688" fill="#8cce55" stroke="#0f380f" stroke-opacity="0.14509804" stroke-linecap="round" stroke-linejoin="round" transform="matrix(1 0 0 1 0.5 1.2670726)" d="M 158.625 247.59375 L 159 248.46875 L 159.90625 249.375 L 159.90625 251.28125 L 160.34375 251.8125 L 161.25 251.375 L 162.15625 251.625 L 162.40625 250.71875 L 161.96875 249.84375 L 162.875 250.65625 L 163.21875 249.75 L 163.21875 248.75 L 162.3125 248.03125 L 161.34375 248.03125 L 159.53125 247.59375 L 158.625 247.59375 Z"/>
    <path id="path41686" fill="#8cce55" stroke="#0f380f" stroke-opacity="0.14509804" stroke-linecap="round" stroke-linejoin="round" transform="matrix(1 0 0 1 0.5 1.2670726)" d="M 157.875 248.625 L 157 248.7187 L 156.625 249.62495 L 157.15625 250.49995 L 158.0625 250.9687 L 158.25 251.87495 L 157.34375 251.87495 L 157.43745 253.6562 L 157.81245 254.56245 L 158.06245 252.68745 L 158.3437 253.6562 L 158.7812 252.74995 L 159.06245 250.87495 L 159.49995 249.9687 L 158.5312 250.43745 L 158.7812 249.5312 L 157.87495 248.62495 L 157.875 248.625 Z"/>
    <path id="path41684" fill="#8cce55" stroke="#0f380f" stroke-opacity="0.14509804" stroke-linecap="round" stroke-linejoin="round" transform="matrix(1 0 0 1 0.5 1.2670726)" d="M 163.28125 249.4375 L 163.5625 250.34375 L 163.375 251.21875 L 164.375 251.21875 L 164.8125 250.34375 L 164 249.4375 L 163.28125 249.4375 Z"/>
    <path id="path41682" fill="#8cce55" stroke="#0f380f" stroke-opacity="0.14509804" stroke-linecap="round" stroke-linejoin="round" transform="matrix(1 0 0 1 0.5 1.2670726)" d="M 50.71875 250.84375 L 50.71875 251.15625 L 50.8125 251.12505 L 51.4375 250.93755 L 50.71875 250.84385 L 50.71875 250.84375 Z"/>
    <path id="path41680" fill="#8cce55" stroke="#0f380f" stroke-opacity="0.14509804" stroke-linecap="round" stroke-linejoin="round" transform="matrix(1 0 0 1 0.5 1.2670726)" d="M 166.15625 251.40625 L 166.09375 252.84375 L 166.96875 253.46875 L 167.96875 253.03125 L 166.15625 251.40625 Z"/>
    <path id="path41678" fill="#8cce55" stroke="#0f380f" stroke-opacity="0.14509804" stroke-linecap="round" stroke-linejoin="round" transform="matrix(1 0 0 1 0.5 1.2670726)" d="M 163.75 251.59375 L 162.84375 252.40625 L 163.75 253.03125 L 164.71875 252.5 L 164.46875 251.59375 L 163.75 251.59375 Z"/>
    <path id="path41676" fill="#8cce55" stroke="#0f380f" stroke-opacity="0.14509804" stroke-linecap="round" stroke-linejoin="round" transform="matrix(1 0 0 1 0.5 1.2670726)" d="M 160.5 252.25 L 160.3125 253.15625 L 161.21875 253.4375 L 161.375 253.6875 L 161.75 253.53125 L 161.8437 253.6875 L 161.56245 253.875 L 161.99995 254.3125 L 161.99995 256.125 L 161.56245 257.03125 L 162.4687 257.12495 L 163.37495 256.8437 L 162.56245 257.8437 L 163.4687 258.6562 L 162.56245 258.5625 L 164.3437 259.90625 L 165.3437 260.28125 L 165.4374 260.71875 L 166.15615 261.71875 L 166.4374 262.59375 L 167.3124 262.78125 L 167.8749 261.875 L 167.8749 261 L 166.96865 261.0625 L 167.6874 260.1875 L 167.7811 259.28125 L 166.87485 259.53125 L 167.06235 258.65625 L 166.1561 258.56255 L 165.24985 257.93755 L 165.24985 257.0313 L 167.06235 258.0938 L 166.24985 257.2188 L 165.1561 255.31255 L 164.18735 254.50005 L 163.2811 254.25005 L 162.9061 253.3438 L 162.2811 252.3438 L 160.5 252.25 L 160.5 252.25 Z"/>
    <path id="path41674" fill="#8cce55" stroke="#0f380f" stroke-opacity="0.14509804" stroke-linecap="round" stroke-linejoin="round" transform="matrix(1 0 0 1 0.5 1.2670726)" d="M 165.4375 252.3125 L 164.46875 253.21875 L 165.09375 254.125 L 166 254.9375 L 166.875 254.28125 L 166.4375 253.40625 L 165.4375 253.31255 L 165.90625 252.4063 L 165.4375 252.3126 L 165.4375 252.3125 Z"/>
    <path id="path41672" fill="#8cce55" stroke="#0f380f" stroke-opacity="0.14509804" stroke-linecap="round" stroke-linejoin="round" transform="matrix(1 0 0 1 0.5 1.2670726)" d="M 161.3125 253.75 L 160.78125 254.03125 L 159.875 254.21875 L 159.875 255.1875 L 161.5 253.9375 L 161.3125 253.75 Z"/>
    <path id="path41670" fill="#8cce55" stroke="#0f380f" stroke-opacity="0.14509804" stroke-linecap="round" stroke-linejoin="round" transform="matrix(1 0 0 1 0.5 1.2670726)" d="M 171.125 254.84375 L 170.21875 255 L 169.3125 255.65625 L 169.3125 257.53125 L 168.78125 258.4375 L 169.5 258.96875 L 169.9375 258.0625 L 170.84375 258.1562 L 170.65625 257.24995 L 171.03125 258.1562 L 170.21875 259.06245 L 171.125 259.06245 L 172.03125 259.43745 L 172.46875 256.62495 L 172.03125 255.7187 L 171.125 254.8437 L 171.125 254.84375 Z"/>
    <path id="path41668" fill="#8cce55" stroke="#0f380f" stroke-opacity="0.14509804" stroke-linecap="round" stroke-linejoin="round" transform="matrix(1 0 0 1 0.5 1.2670726)" d="M 58.1875 255.1875 L 58.25 255.84375 L 58.4375 255.25 L 58.1875 255.1875 Z"/>
    <path id="path41666" fill="#8cce55" stroke="#0f380f" stroke-opacity="0.14509804" stroke-linecap="round" stroke-linejoin="round" transform="matrix(1 0 0 1 0.5 1.2670726)" d="M 160.3125 258.4375 L 160.3125 259.4375 L 160.9375 258.4375 L 160.3125 258.4375 Z"/>
    <path id="path41664" fill="#8cce55" stroke="#0f380f" stroke-opacity="0.14509804" stroke-linecap="round" stroke-linejoin="round" transform="matrix(1 0 0 1 0.5 1.2670726)" d="M 168.5 258.4375 L 168.4063 259.15625 L 168.87505 260.0625 L 169.4063 259.15625 L 168.5 258.4375 L 168.5 258.4375 Z"/>
    <path id="path41662" fill="#8cce55" stroke="#0f380f" stroke-opacity="0.14509804" stroke-linecap="round" stroke-linejoin="round" transform="matrix(1 0 0 1 0.5 1.2670726)" d="M 34.59375 258.5 L 34 258.84375 L 33.96875 258.87495 L 34.4375 259.7812 L 35.3125 259.4687 L 34.59375 258.5 L 34.59375 258.5 Z"/>
    <path id="path41660" fill="#8cce55" stroke="#0f380f" stroke-opacity="0.14509804" stroke-linecap="round" stroke-linejoin="round" transform="matrix(1 0 0 1 0.5 1.2670726)" d="M 162.5625 259.5 L 162.03125 260.0625 L 162.375 261.03125 L 163.65625 262.84375 L 164.5625 263.125 L 164.1875 262.21875 L 163.375 261.3125 L 163.09375 260.40625 L 162.5625 259.5 Z"/>
    <path id="path41658" fill="#8cce55" stroke="#0f380f" stroke-opacity="0.14509804" stroke-linecap="round" stroke-linejoin="round" transform="matrix(1 0 0 1 0.5 1.2670726)" d="M 170.125 259.5 L 169.84375 260.0625 L 169.78125 261.03125 L 170.65625 260.40625 L 170.125 259.5 Z"/>
    <path id="path41656" fill="#8cce55" stroke="#0f380f" stroke-opacity="0.14509804" stroke-linecap="round" stroke-linejoin="round" transform="matrix(1 0 0 1 0.5 1.2670726)" d="M 40 259.5625 L 40.0625 260.03125 L 40.09375 259.5625 L 40 259.5625 Z"/>
    <path id="path41654" fill="#8cce55" stroke="#0f380f" stroke-opacity="0.14509804" stroke-linecap="round" stroke-linejoin="round" transform="matrix(1 0 0 1 0.5 1.2670726)" d="M 163.90625 259.875 L 163.65625 260.875 L 164.5625 260.7813 L 163.90625 259.87505 L 163.90625 259.875 Z"/>
    <path id="path41650" fill="#8cce55" stroke="#0f380f" stroke-opacity="0.14509804" stroke-linecap="round" stroke-linejoin="round" transform="matrix(1 0 0 1 0.5 1.2670726)" d="M 176.15625 260.9375 L 174.90625 262.40625 L 175.875 261.9375 L 176.15625 260.9375 Z"/>
    <path id="path41648" fill="#8cce55" stroke="#0f380f" stroke-opacity="0.14509804" stroke-linecap="round" stroke-linejoin="round" transform="matrix(1 0 0 1 0.5 1.2670726)" d="M 164 261.75 L 164.71875 262.65625 L 164.81245 261.75 L 163.99995 261.75 L 164 261.75 Z"/>
    <path id="path41646" fill="#8cce55" stroke="#0f380f" stroke-opacity="0.14509804" stroke-linecap="round" stroke-linejoin="round" transform="matrix(1 0 0 1 0.5 1.2670726)" d="M 25.15625 264.46875 L 25.15625 264.90625 L 25.875 264.75 L 25.15625 264.46875 Z"/>
    <path id="path41840" fill="#8cce55" stroke="#0f380f" stroke-opacity="0.14509804" stroke-linecap="round" stroke-linejoin="round" transform="matrix(1 0 0 1 0.5 1.2670726)" d="M 1661.0938 250.59375 L 1662 251.0625 L 1662 250.59375 Z"/>
    <path id="path41810" fill="#8cce55" stroke="#0f380f" stroke-opacity="0.14509804" stroke-linecap="round" stroke-linejoin="round" transform="matrix(1 0 0 1 0.5 1.2670726)" d="M 1670.0938 270.0312 L 1669.6562 270.1249 L 1668.3125 270.40615 L 1667.4062 271.3124 L 1667.5002 272.1874 L 1666.594 272.1249 L 1665.594 272.84365 L 1665.344 273.71865 L 1664.6877 274.6249 L 1665.594 274.28115 L 1666.594 273.65615 L 1667.5 273 L 1668.375 272.125 L 1669.6562 271.5625 L 1670.0938 271.40625 L 1670.0938 270.03125 Z"/>
</svg>
