<svg width="1671.094" height="856.39252" viewBox="0 0 1671.094 856.39252" xmlns="http://www.w3.org/2000/svg" xmlns:usvg="https://github.com/RazrFalcon/usvg" usvg:version="0.8.0">
    <defs/>
    <path id="path41412" fill="#3e73c5" fill-opacity="0.42857145" stroke="#000000" stroke-opacity="0.24675323" stroke-linecap="round" stroke-linejoin="round" transform="matrix(1 0 0 1 0.5 1.2670726)" d="M 144.469 606.06282 L 144.469 578.00082 L 119 578.00082 L 119 606.06282 Z"/>
    <path id="path41414" fill="#8cce55" stroke="#0f380f" stroke-opacity="0.14509804" stroke-linecap="round" stroke-linejoin="round" transform="matrix(1 0 0 1 0.5 1.2670726)" d="M 136.6216406 592.14246 C 136.6216406 593.44670838233 135.56433838233 594.5040106 134.26009 594.5040106 C 132.95584161767 594.5040106 131.8985394 593.44670838233 131.8985394 592.14246 C 131.8985394 590.83821161767 132.95584161767 589.7809094 134.26009 589.7809094 C 135.56433838233 589.7809094 136.6216406 590.83821161767 136.6216406 592.14246 Z"/>
    <path id="path41414-3" fill="#8cce55" stroke="#0f380f" stroke-opacity="0.14509804" stroke-linecap="round" stroke-linejoin="round" transform="matrix(1 0 0 1 0.5 1.2670726)" d="M 132.5961806 590.01135 C 132.5961806 591.31559838233 131.53887838233 592.3729006 130.23463 592.3729006 C 128.93038161767 592.3729006 127.8730794 591.31559838233 127.8730794 590.01135 C 127.8730794 588.70710161767 128.93038161767 587.6497994 130.23463 587.6497994 C 131.53887838233 587.6497994 132.5961806 588.70710161767 132.5961806 590.01135 Z"/>
    <path id="path41414-9" fill="#8cce55" stroke="#0f380f" stroke-opacity="0.14509804" stroke-linecap="round" stroke-linejoin="round" transform="matrix(1 0 0 1 0.5 1.2670726)" d="M 132.1226106 587.3277 C 132.1226106 588.63194838233 131.06530838233 589.6892506 129.76106 589.6892506 C 128.45681161767 589.6892506 127.3995094 588.63194838233 127.3995094 587.3277 C 127.3995094 586.02345161767 128.45681161767 584.9661494 129.76106 584.9661494 C 131.06530838233 584.9661494 132.1226106 586.02345161767 132.1226106 587.3277 Z"/>
    <path id="path41414-0" fill="#8cce55" stroke="#0f380f" stroke-opacity="0.14509804" stroke-linecap="round" stroke-linejoin="round" transform="matrix(1 0 0 1 0.5 1.2670726)" d="M 128.6496806 583.8548 C 128.6496806 585.15904838233 127.59237838233 586.2163506 126.28813 586.2163506 C 124.98388161767 586.2163506 123.9265794 585.15904838233 123.9265794 583.8548 C 123.9265794 582.55055161767 124.98388161767 581.4932494 126.28813 581.4932494 C 127.59237838233 581.4932494 128.6496806 582.55055161767 128.6496806 583.8548 Z"/>
</svg>
