<svg width="1671.094" height="856.39252" viewBox="0 0 1671.094 856.39252" xmlns="http://www.w3.org/2000/svg" xmlns:usvg="https://github.com/RazrFalcon/usvg" usvg:version="0.8.0">
    <defs/>
    <path id="path4517" fill="#3e73c5" fill-opacity="0.42857145" stroke="#000000" stroke-opacity="0.24675323" stroke-linecap="round" stroke-linejoin="round" transform="matrix(1 0 0 1 0.5 1.2670726)" d="M 744.6875 -0.75 L 744.6875 176.21875 L 744.5938 176.21875 L 744.5626 176.21875 L 675.21885 176.21875 L 663.59385 176.21875 L 663.59385 206.46875 L 675.21885 206.46875 L 744.5626 206.46875 L 744.5938 206.46875 L 744.6875 206.46875 L 744.6875 259.25 L 744.5938 259.25 L 744.6875 259.5625 L 744.6875 260.4375 L 744.3125 261.03125 L 744.15625 261.03125 L 743.78125 260.15625 L 742.875 259.96875 L 741 260.15625 L 740.28125 261.03125 L 740.90625 262.125 L 740 262.5625 L 739.09375 263.375 L 741.8125 263.375 L 741.4375 264.28125 L 741 264.46875 L 740.625 264.46875 L 739.28125 265.28125 L 739.90625 266.1875 L 738.03125 265.625 L 737.125 266.53125 L 736.84375 266.1875 L 735.96875 265.625 L 735.0625 265.4375 L 734.0625 265.8125 L 733.09375 265.53125 L 733.09375 266.09375 L 733.34375 266.25 L 733.625 267.15625 L 733.4375 268.0625 L 734.0625 268.25 L 734.96875 268.875 L 734.0625 268.875 L 733.625 269.78125 L 734.53125 269.9375 L 733.09375 269.9375 L 733.09375 270.40625 L 732.4375 270.49995 L 733.09375 271.4062 L 734.15625 271.93745 L 735.0625 271.4062 L 735.59375 272.37495 L 737.40625 272.12495 L 737.75 272.8437 L 737.40625 272.99995 L 736.40625 272.90625 L 735.875 273.8125 L 735.7813 274.71875 L 733.87505 276.53125 L 735.25005 276.0625 L 737.12505 276.0625 L 738.0313 275.15625 L 738.0313 275.8125 L 738.93755 275.9062 L 737.93755 275.9687 L 735.5938 276.5312 L 733.81255 277.5937 L 734.06255 278.49995 L 731.7188 278.49995 L 731.2813 279.4062 L 733.0938 279.12495 L 734.06255 279.21865 L 733.0938 279.7499 L 732.00005 280.03115 L 731.2813 280.9374 L 732.18755 281.3749 L 733.0938 281.3749 L 734.68755 281.03115 L 733.0938 281.9999 L 733.0938 282.46865 L 733.81255 282.09365 L 735.68755 281.90615 L 733.87505 282.8124 L 734.7813 282.9999 L 735.68755 282.71865 L 736.5938 283.1874 L 740.81255 281.65615 L 740.37505 280.7499 L 741.00005 280.6562 L 741.43755 281.2812 L 742.3438 281.0312 L 743.06255 280.12495 L 743.7813 280.4062 L 744.31255 279.4062 L 744.68755 279.3125 L 744.56255 329 L 744.68755 329 L 745.5938 329.625 L 746.56255 329.875 L 746.8438 330.25 L 747.75005 329.78125 L 748.2813 329.96875 L 751.3438 329.87505 L 752.25005 329.5313 L 753.1563 329.9688 C 755.6953 329.8101 758.1649 331.5238 760.7188 330.5938 L 760.7813 330.7813 C 763.0325 329.3263 763.9875 331.1551 765.4688 331.1563 L 765.8438 330.68755 L 766.7188 330.43755 L 768.25005 331.25005 L 769.1563 331.31255 L 770.25005 331.25005 L 771.2188 330.9688 L 772.125 330.5 C 774.1087 326.4025 773.5362 323.13995 774.1875 318.90625 L 775.09375 318.99995 L 775.90625 319.9062 L 776.09375 320.87495 L 776.8125 321.68745 L 777 322.31245 L 776.9063 321.68745 L 776.37505 320.7812 L 776.18755 319.81245 L 775.7188 318.9062 L 774.8438 318.18745 L 773.93755 317.6562 L 773.6563 317.6562 L 774.2813 317.18745 L 774.4688 316.2812 L 774.18755 314.49995 L 774.28125 314.0312 L 773.40625 314.0312 L 772.5 313.5 L 771.78125 313.3125 L 771.21875 312.875 L 770.59375 311.96875 L 769.625 311.0625 L 770.25 309.90625 L 769.34375 309.375 L 769.53125 308.46875 L 770.4375 308.46875 L 771.40625 308.90625 L 770.5 308.375 L 769.34375 308.375 L 768.4375 308.4687 L 768.09375 307.4687 L 768.53125 307.12495 L 766.65625 307.12495 L 765.75 306.4062 L 765.125 307.31245 L 764.65625 306.4062 L 763.75 305.7812 L 760.78125 305.12495 L 759.90625 305.4062 L 759 304.5 L 758.09375 304.0625 L 757.5625 303.9688 L 759.34375 303.5938 L 758.46875 303.06255 L 758.37505 302.1563 L 759.3438 302.5313 L 759.2501 301.9063 L 757.46885 302.25005 L 757.37515 301.3438 L 758.2814 300.62505 L 759.18765 300.2813 L 760.9689 299.9063 L 762.5939 300.18755 L 763.31265 299.18755 L 764.2189 299.28125 L 765.12515 299.03125 L 766.6564 300.8125 L 767.5314 300.7188 L 768.7189 300.0938 L 770.1564 300.81255 L 770.3439 301.18755 L 770.4376 301.00005 L 770.2501 300.81255 L 773.03135 300.37505 L 772.21885 299.56255 L 772.31255 298.6563 L 771.7813 296.7813 L 771.06255 295.87505 L 770.43755 294.06255 L 771.93755 294.3438 L 773.31255 294.06255 L 773.40625 294.9688 L 774.1875 296.2188 L 775.1875 295.87505 L 776.09375 296.12505 L 777 296.12505 L 778.78125 296.50005 L 780.78125 295.68755 L 781.59375 295.50005 L 781.75 295.3438 L 780.6875 295.50005 L 780.0625 294.5938 C 782.865 291.6188 784.29785 294.2201 786.53125 290.9063 L 787.0625 291.0938 L 786.625 290.18755 L 786.90625 290.0313 L 786.71875 288.2188 L 786.90625 287.31255 L 787.78125 286.4063 L 790.9375 285.7813 L 793.90625 284.25005 L 795.96875 283.7188 L 796.875 284.0938 L 797.78125 283.9063 L 799.125 284 L 799.40625 284.53125 L 799.125 283.90625 L 798.0625 283.4375 L 797.15625 283.8125 L 796.25 283.4375 L 795.875 282.5625 L 797.40625 282.4688 L 798.3125 283.0938 L 799.21875 283.43755 L 799.03125 283.00005 L 798.125 282.7188 L 798.9375 282.56255 L 798.5 282.18755 L 797.6875 282.28125 L 797.15625 281.65625 L 797.5 281.65625 L 798.5 282.1875 L 798.9375 282.2812 L 799.84375 281.9062 L 800.9375 281.74995 L 799.84375 281.74995 L 798.40625 281.0312 L 798.0625 280.12495 L 798.5 280.12495 L 800.125 278.31245 L 800.75 277.06245 L 801.03125 275.24995 L 801.28125 274.43745 L 802.28125 274.37495 L 803.53125 273.7187 L 804.4375 273.0937 L 804.5312 272.74995 L 805.5312 271.8437 L 807.2187 271.31245 L 808.93745 271.21875 L 810.74995 270.84375 L 811.62495 271.75 L 812.9062 272.28125 L 813.62495 271.9375 L 812.99995 271.65625 L 811.99995 271.46875 L 812.09365 270.59375 L 812.8124 269.6875 L 813.71865 269.40625 L 814.2499 269.49995 L 814.2499 241.24995 L 813.0624 241.06245 L 812.09365 240.62495 L 810.28115 240.7812 L 810.7499 239.9062 L 811.6249 239.3437 L 811.09365 239.62495 L 809.1249 239.43745 L 808.84365 239.18745 L 807.9374 238.9062 L 806.96865 238.18745 L 806.0624 237.74995 L 805.2499 236.8437 L 804.96865 236.2812 L 805.53115 235.31245 L 805.78115 234.4062 L 806.6874 235.0312 L 807.59365 235.2187 L 808.1249 235.49995 L 808.65615 234.49995 L 809.65615 234.2187 L 808.65615 234.4062 L 807.6874 235.12495 L 807.40615 234.5937 L 807.21865 233.68745 L 808.1249 232.87495 L 809.1249 232.3437 L 808.1249 232.68745 L 808.5624 232.24995 L 807.6874 231.87495 L 808.03115 231.62495 L 807.1249 231.43745 L 808.03115 231.24995 L 806.15615 231.34365 L 806.59365 232.2499 L 805.6874 232.59365 L 805.53115 231.6249 L 804.8749 232.59365 L 804.15615 231.96865 L 804.06245 231.15615 L 804.24995 230.28115 L 805.1562 230.09365 L 804.5312 231.0624 L 805.43745 230.71865 L 805.5937 229.90615 L 806.49995 230.34365 L 807.06245 229.46865 L 807.7812 229.46865 L 808.74995 228.7499 L 807.7812 229.28115 L 806.87495 229.18745 L 806.06245 228.81245 L 806.4062 228.18745 L 807.31245 227.74995 L 807.21875 227.65625 L 808.21875 226.9375 L 808.31245 225.9375 L 809.2187 225.125 L 810.0937 224.6875 L 810.1874 225.59375 L 810.03115 226.5 L 810.90615 224.6875 L 811.8124 224.3125 L 809.84365 224.5 L 808.9374 224.875 L 808.21865 225.78125 L 807.3124 226.125 L 806.78115 227.65625 L 806.2499 227.65625 L 806.40615 226.21875 L 805.53115 226.40625 L 805.59365 225.5 L 804.71865 226.5 L 803.8124 225.84375 L 803.6249 224.96875 L 804.4374 224.0625 L 805.34365 224.59375 L 805.43735 224.50005 L 804.62485 224.06255 L 805.5311 223.25005 L 805.9686 223.9688 L 806.1561 223.68755 L 806.4061 222.7813 L 805.43735 222.7813 L 803.99985 223.68755 L 803.62485 222.7813 L 802.62485 222.06255 L 803.9061 222.43755 L 804.81235 222.87505 L 804.3436 222.00005 L 805.24985 221.62505 L 804.06235 221.9063 L 803.18735 221.8126 L 803.62485 220.8126 L 806.4061 219.8126 L 809.74985 220.0001 L 810.74985 219.5626 L 811.62485 220.09385 L 811.62485 221.0001 L 812.5311 221.0001 L 812.18735 220.09385 L 813.24985 219.65635 L 814.1561 219.90635 L 814.2498 219.81265 L 814.2498 219.25015 L 814.1561 219.28135 L 813.87485 219.18765 L 813.5311 218.6564 L 814.06235 217.75015 L 813.1561 218.56265 L 813.62485 219.4689 L 812.7186 219.6564 L 811.7186 219.6564 L 812.2811 219.18765 L 810.37485 219.18765 L 810.18735 219.09395 L 810.6561 218.3127 L 809.37485 219.8127 L 808.49985 219.28145 L 806.5936 219.28145 L 804.7186 220.09395 L 803.7186 219.09395 L 802.81235 218.65645 L 803.81235 218.21895 L 805.5936 218.03145 L 803.7186 218.12515 L 802.81235 217.8439 L 804.7186 217.31265 L 805.5936 217.50015 L 806.49985 217.40645 L 805.5936 217.40645 L 803.81235 217.03145 L 804.7186 216.78145 L 803.7186 216.5002 L 804.7186 216.5939 L 803.7186 216.4064 L 802.81235 216.5001 L 804.62485 216.1251 L 803.7186 216.2188 L 802.81235 215.9688 C 804.06235 213.9051 805.39985 213.6938 807.12485 215.4063 L 809.0311 214.68755 L 809.93735 214.87505 L 810.9061 214.5313 C 808.0886 214.8201 806.3312 214.1463 803.5311 213.9688 L 804.43735 213.3438 L 803.43735 212.81255 L 804.3436 212.5313 L 805.06235 213.43755 L 804.81235 212.5313 L 806.5936 212.18755 L 807.06235 213.06255 L 808.8436 213.00005 L 807.93735 212.62505 L 807.4061 211.62505 L 808.31235 211.0938 L 809.31235 211.1875 L 809.93735 212.1875 L 809.74985 211.5625 L 809.84355 210.65625 L 810.7498 210.28125 L 811.71855 211 L 812.09355 212 L 812.09355 212.4375 L 812.4373 211.5625 L 813.4373 211.4688 L 812.53105 211.4688 L 811.8123 210.56255 L 810.90605 210.18755 L 809.9373 210.37505 L 808.7498 210.18755 L 809.84355 209.6563 L 808.7498 209.31255 L 810.65605 209.0313 L 811.6248 209.31255 L 812.53105 209.12505 L 813.4373 209.21875 L 814.2498 209.5625 L 814.2498 208.3125 L 813.96855 208.2188 L 814.2498 208.0938 L 814.2498 208.0001 L 812.9998 208.3126 L 812.09355 207.78135 L 813 207.5 L 812 206.78125 L 813 206.34375 L 813.875 206.59375 L 813.9687 206.59375 L 814.24995 206.40625 L 814.24995 -0.75 L 744.68745 -0.75 Z M 697.625 67.125 L 696.8125 67.28125 L 696 68.1875 L 696.375 69.1875 L 698.34375 68 Z M 689.875 70 L 688.09375 71.34375 L 689 72.0625 L 689.96875 72.0625 L 689.71875 71.625 L 690.6875 71.4375 L 690.875 70.53125 Z M 694.9375 70.8125 L 695.46875 71.6875 L 695.56245 70.8125 L 694.93745 70.8125 Z M 693.84375 72.59375 L 692.84375 73.5 L 693.84375 73.3125 L 694.75 72.6875 Z M 690.59375 75.3125 L 689.96875 76.1875 L 690.875 76.03125 Z M 688.34375 75.65625 L 689.0625 76.5625 L 688.90625 75.65625 Z M 691.15625 76.1875 L 690.59375 77.09375 L 692.03125 76.46875 Z M 691.78125 77.8125 L 691.3125 78.71875 L 692.21875 77.90625 Z M 682.96875 79.34375 L 681.96875 79.71875 L 680.34375 81.59375 L 680.25005 82.59375 L 679.81255 83.5 L 678.81255 84.03125 L 679.7188 83.125 L 678.7188 82.59375 L 677.75005 82.6875 L 677.75005 82.3125 C 677.47591 82.41852 677.21571 82.53887 676.9688 82.6875 C 676.74326 82.82456 676.54703 82.98646 676.3438 83.15625 C 676.3257 83.17115 676.2992 83.1724 676.2813 83.1875 C 676.09033 83.3509 675.92238 83.53039 675.75005 83.71875 C 675.72015 83.75105 675.68565 83.7795 675.65635 83.8125 C 675.50079 83.98913 675.35988 84.1811 675.21885 84.375 L 675.21885 91.9375 L 675.40635 91.78125 L 675.7501 90.875 L 676.65635 90.78125 L 677.65635 91.5 L 678.46885 92.5 L 679.34385 92.75 L 680.2501 92.03125 L 681.2501 91.5 L 683.1251 90.96875 L 681.34385 90.6875 L 679.4376 90.59375 L 681.4376 90.34375 L 683.3126 90.5 L 682.3126 89.875 L 683.3126 89.4375 L 686.1876 89.875 L 686.7501 89.6875 L 687.53135 89.78125 L 689.4376 90.5 L 692.21885 90.875 L 693.21885 91.21875 L 694.1251 91.21875 L 695.09385 90.59375 L 695.5626 89.6875 L 695.09385 86.90625 L 694.21885 86 L 692.21885 85.75 L 691.25 86 L 690.59375 86.90625 L 688.625 85.75 L 687.625 85.46875 L 685.84375 85.5625 L 683.9375 85.28125 L 685.84375 85.28125 L 686.75 85.03125 L 683.84375 84.5625 L 681.96875 84.03125 L 684.9375 84.40625 L 683.9375 83.9375 L 684.9375 83.75 L 683.84375 83.125 L 682.875 82.78125 L 683.84375 82.3125 L 684.84375 82.5 L 685.84375 82.15625 L 686.75 82.3125 L 689.71875 83.59375 L 691.59375 83.21875 L 690.78125 82.21875 L 689.875 81.6875 L 688 81.4375 L 685.84375 80.875 L 683.9375 80.15625 Z M 680.96875 79.4375 L 680.96875 80.34375 L 681.59375 79.4375 Z M 684.84375 79.71875 L 685.84375 80.4375 L 686.75 80.875 L 687.71875 81.15625 L 689.53125 81.4375 L 689.62495 80.53125 L 687.81245 80.53125 L 686.74995 80.0625 L 686.74995 79.71875 L 684.8437 79.71875 Z M 697.4375 80.34375 L 696.53125 80.96875 L 695.8125 81.875 L 695.65625 82.78125 L 696.625 82.78125 L 697.625 82.3125 L 698.15625 81.4375 L 697.8125 80.53125 Z M 691.25 91.875 L 691.5 92.75 L 692.40625 93.03125 L 691.40625 93.3125 L 690.96875 94.1875 L 692.03125 96.09375 L 692.12495 97.09375 L 693.12495 98.875 L 693.21865 99.78125 L 693.7499 98.875 L 693.21865 97.4375 L 693.31235 96.53125 L 692.93735 94.65625 L 693.125 92.75 L 692.21875 91.9375 Z M 675.21875 92.8125 L 675.21875 99.375 C 675.22955 99.385 675.23915 99.39625 675.24995 99.40625 C 675.42263 99.57165 675.5947 99.7301 675.7812 99.875 C 675.8107 99.898 675.8451 99.9155 675.8749 99.9375 C 676.08458 100.0946 676.3061 100.2412 676.53115 100.375 C 676.62835 100.433 676.74377 100.47755 676.84365 100.53125 C 676.96902 100.59825 677.08928 100.6889 677.21865 100.75 C 677.49091 100.8791 677.77406 100.98965 678.0624 101.09375 C 678.1168 101.11275 678.16368 101.13825 678.21865 101.15625 C 678.43459 101.23025 678.65139 101.28185 678.8749 101.34375 C 679.0701 101.39675 679.26833 101.4548 679.46865 101.5 C 679.7241 101.558 679.98722 101.61005 680.2499 101.65625 C 680.41531 101.68525 680.58203 101.69475 680.7499 101.71875 C 681.00138 101.75575 681.24376 101.81475 681.4999 101.84375 L 681.6249 101.84375 C 682.19285 101.90475 682.76193 101.93675 683.34365 101.96875 C 683.93636 102.00175 684.52975 102.04345 685.1249 102.06245 C 685.59172 102.07645 686.06943 102.07865 686.53115 102.09365 C 686.71715 102.10365 686.90913 102.11785 687.09365 102.12485 C 687.70713 102.14785 688.31831 102.17255 688.90615 102.21855 L 688.99985 102.46855 L 689.7186 103.46855 L 689.7498 103.9373 C 690.65217 103.4529 691.28105 102.5329 691.28105 101.4373 C 691.28105 99.849791 689.9923 98.5623 688.40605 98.5623 C 687.48917 98.5623 686.68201 98.98715 686.15605 99.65605 L 685.84355 99.6873 L 684.84355 99.59355 L 683.9373 99.34355 L 681.96855 99.2498 L 678.1873 99.40605 L 679.09355 99.2498 L 682.78105 98.96855 L 684.7498 99.15605 L 685.65605 98.96855 L 686.7498 98.4373 L 687.71855 98.4373 L 688.09355 97.53105 L 687.3748 96.6248 L 685.7498 96.6248 L 684.7498 96.90605 L 682.96855 96.1873 L 681.96855 95.9998 L 682.8748 96.90605 L 684.84355 97.6248 L 683.84355 97.8123 L 682.96855 96.9998 L 681.96855 96.53105 L 680.0623 96.3748 L 679.09355 96.71855 L 679.18725 95.8123 L 679.531 94.84355 L 676.75 95 L 675.84375 94.90625 L 676.75 94.75 L 678.625 94.75 L 677.65625 94.5625 L 678.625 94.125 L 677.65625 93.9375 L 677.74995 93.03125 L 676.74995 92.84375 L 676.0312 93.75 L 675.4062 92.84375 L 675.2187 92.8125 Z M 807.59375 210.65625 L 807.9375 211.09375 L 806.96875 211.5625 Z M 805.6875 211.375 L 806.59375 211.4687 L 806.59375 211.99995 L 805.6875 211.37495 Z M 802.375 214.25 L 803.34375 214.4375 L 803.34375 214.78125 L 802.46875 215.15625 L 802.37505 214.25 Z M 802.8125 219.75 L 802.9062 219.8125 L 801.9062 220 L 802.81245 219.75 Z M 802.8125 223.59375 L 803.71875 223.68745 L 802.71875 223.68745 L 802.81245 223.59375 Z M 802.9062 223.875 L 803.7187 224.78125 L 802.7187 223.96875 L 802.9062 223.87505 Z M 802.62495 224.875 L 803.3437 225.21875 L 803.4374 226.21875 L 802.5624 225.78125 L 802.6249 224.875 Z M 805.9687 227.28125 L 805.9687 227.65625 L 805.06245 227.65625 Z M 804.3437 227.9375 L 805.1562 228.46875 L 804.81245 229.46875 L 804.24995 228.90625 L 804.34365 227.9375 Z M 804 228.90625 L 804.4375 229.8125 L 803.53125 229.8125 Z M 803.8125 231.78125 L 804.0625 231.96875 L 804.1562 232.4375 L 803.5312 233.3125 L 803.81245 231.78125 Z M 733.09375 267.34375 L 732.1875 267.6875 L 733.09375 268.0625 Z M 798.21875 281.125 L 799.59375 281.90625 L 798.78125 281.90625 L 797.875 281.1875 Z M 772.59375 314.78125 L 773.46875 314.84375 L 773.46875 315.03125 Z M 773.125 316.125 L 774.03125 316.46875 L 773.84375 317.03125 Z M 753.5001 371.1875 L 751.6251 370.1875 L 750.6251 369.03125 L 750.8126 368.40625 L 750.53135 368.03125 L 749.6251 367.5 L 750.53135 366.40625 L 749.1876 365.96875 L 747.3751 364.90625 L 747.5626 364.34375 L 747.1251 364.34375 L 745.3126 364.90625 L 745.1251 364.625 L 745.0626 364.4375 L 744.6876 363 L 744.5939 362.9063 L 745.8439 360.8438 L 745.8439 360.6563 L 746.0314 360.4688 L 747.0314 360.31255 L 747.2814 359.4063 L 746.56265 359.5 L 745.8439 358.40625 L 745.50015 358.15625 L 745.59385 357.96875 L 745.50015 357.87505 C 746.02265 355.40255 746.3036 357.1951 747.2189 354.9063 L 747.1252 354.9063 L 746.84395 354.43755 L 746.5002 354.53125 L 745.84395 353.65625 L 745.93765 353.56255 L 745.5939 353.0938 L 745.6876 352.56255 L 745.21885 352.37505 L 744.5001 351.4688 L 746.7501 351.4688 L 746.9376 351.4063 L 747.1251 350.68755 L 747.1251 350.59385 L 747.28135 350.59385 L 747.5626 349.6876 L 746.9376 348.6876 L 747.28135 348.2501 L 747.65635 348.1564 L 747.84385 346.43765 L 747.84385 346.34395 L 747.93755 344.90645 L 747.4688 344.1877 L 747.3751 344.094 L 747.3751 344.0003 L 747.84385 343.9378 L 748.46885 343.03155 L 749.3751 342.65655 L 749.4688 342.46905 L 750.43755 341.5003 L 750.7188 341.03155 L 749.0938 340.0628 L 749.0001 339.15655 L 748.09385 338.78155 L 747.28135 338.87525 L 747.1251 338.78155 L 746.1251 338.71905 L 746.0314 339.2503 L 745.06265 339.6878 L 744.5314 339.4378 L 744.5314 339.5003 L 743.3439 339.3128 L 742.87515 339.344 L 742.1564 339.594 L 742.0314 339.594 L 741.75015 339.6877 L 741.68765 339.594 L 741.62515 339.594 L 741.53145 339.344 L 741.43775 339.344 L 741.46895 339.2815 L 741.46895 339.2503 L 741.90645 338.40655 L 741.40645 337.84405 L 740.8752 338.03155 L 740.53145 338.15655 L 739.3752 338.34405 L 738.9377 338.8753 L 738.9065 338.8441 L 727.6565 350.9691 L 693.81275 386.5316 L 693.81275 417.18785 L 717.1565 417.28155 L 716.87525 418.0628 L 716.1565 418.96905 L 712.56275 421.21905 L 712.2815 422.3128 L 710.93775 425.0003 L 710.50025 428.15655 L 709.93775 429.0628 L 709.06275 429.78155 L 707.43775 431.5628 L 705.9065 432.84405 L 705.2815 433.71905 L 706.18775 432.9378 L 706.00025 433.8128 L 704.68775 436.0003 L 704.37525 436.53155 L 704.37525 437.34405 L 703.75025 438.3128 L 703.56275 439.21905 L 703.12525 440.1253 L 702.219 440.46905 L 701.50025 441.3753 L 701.0315 442.28155 L 700.219 446.96905 L 700.4065 447.8753 L 700.68775 446.6878 L 700.969 446.15655 L 701.31275 446.4378 L 702.469 448.5003 L 703.0315 448.03155 L 704.37525 450.65655 L 704.18775 452.4378 L 703.12525 454.34405 L 703.12525 455.0628 L 704.00025 455.78155 L 704.68775 457.9378 L 705.00025 458.9378 L 705.18775 460.8128 C 705.20465 461.0855 705.19575 461.34245 705.18775 461.59405 C 705.18575 461.64505 705.19075 461.7003 705.18775 461.7503 C 705.18575 461.7823 705.18975 461.8121 705.18775 461.844 C 705.18475 461.885 705.15965 461.928 705.15655 461.969 C 705.13755 462.1931 705.12875 462.41485 705.09405 462.62525 C 705.00485 463.16605 704.85633 463.6796 704.6878 464.1565 C 703.90156 466.3805 702.51285 468.14765 702.84405 471.62525 L 701.40655 474.12525 L 700.3128 475.50025 L 699.8753 475.93775 L 698.8753 476.37525 C 700.07405 477.50525 701.4553 478.4278 701.6878 480.5315 L 703.1253 479.5315 L 703.219 479.344 L 703.6565 479.4377 L 703.12525 479.5314 L 702.0315 481.1564 L 702.56275 480.87515 L 703.0315 480.1564 L 703.0315 481.1564 L 702.6565 482.1564 L 702.6565 482.5939 L 703.6565 483.31265 L 704.56275 482.87515 L 704.68775 482.87515 L 706.344 482.78145 L 707.344 482.40645 L 707.7815 482.59395 L 708.594 482.59395 L 708.25025 482.78145 L 707.7815 482.59395 L 707.344 482.59395 L 706.43775 482.8752 L 704.68775 482.9689 L 704.56275 482.9689 L 704.56275 483.5939 L 702.75025 483.5939 L 702.219 482.68765 L 701.50025 483.12515 L 701.59395 484.0314 L 701.84395 484.6564 L 701.75025 485.56265 L 702.0315 486.0939 L 702.56275 485.93765 L 703.219 486.8439 L 702.4065 486.8439 L 701.68775 487.7189 L 701.93775 488.0939 L 703.469 488.7189 L 703.844 488.3439 L 704.68775 488.0939 L 705 488 L 704.6875 488.21875 L 704.09375 488.625 L 703.75 489.625 L 704.6875 490.125 L 704.7187 490.1562 L 705.62495 489.7187 L 706.7187 489.625 L 705.9062 489.875 L 705.9062 490.78125 L 706.81245 490.59375 L 707.43745 490.15625 L 709.93745 489.8125 L 709.93745 490.53125 L 710.31245 490.6875 L 709.93745 490.6875 L 709.06245 490.34375 L 708.06245 490.34375 L 707.7812 491.25 L 709.2187 491.0625 L 708.3437 491.6875 L 707.62495 492.59375 L 708.68745 492.3125 L 708.43745 493.03125 L 708.9687 494.03125 L 709.87495 493.5625 L 709.87495 494.46875 L 711.4062 494.21875 L 710.8437 495.1875 L 711.74995 495.75 L 711.65625 495.90625 L 712.46875 497.53125 L 713.375 498.25 L 714.4375 498.25 L 714.4375 498.96875 L 715.4375 499.6875 L 715.96875 499.25 L 716.06245 499.3437 L 715.81245 500.24995 L 716.1562 499.7812 L 716.3437 500.68745 L 716.87495 501.0312 L 717.7812 502.8437 L 717.8749 503.56245 L 718.78115 503.93745 L 719.3124 504.37495 L 718.3124 504.37495 L 718.15615 505.2812 L 719.03115 505.2812 L 718.93745 505.62495 L 719.8437 505.71865 L 718.87495 506.09365 L 718.68745 506.34365 L 719.0312 506.6249 L 718.1562 506.09365 L 718.4062 506.9999 L 719.31245 507.15615 L 719.6562 508.0624 L 719.4062 508.78115 L 721.18745 509.78115 L 721.4687 509.68745 L 722.37495 510.31245 L 722.99995 510.21875 L 722.0937 510.59375 L 722.1874 511.21875 L 723.09365 511.75 L 725.8749 513 L 725.7812 513.1875 L 726.4062 513.5625 L 727.06245 514.46875 L 728.12495 514.90625 L 729.37495 515.8125 L 729.56245 515.8125 L 729.37495 516.15625 L 730.18745 516.625 L 731.4687 516.96875 L 732.81245 518.0625 L 733.0937 518.5 L 735.06245 520.21875 L 735.7812 521.03125 L 737.5937 522.375 L 743.68745 525.25 L 744.5937 525.3437 L 744.6874 525.3437 L 744.6874 577.81245 L 707.46865 577.81245 L 707.46865 587.4062 L 744.6874 587.4062 L 744.6874 714.2187 L 709.8749 714.2187 L 709.8749 757.93745 L 744.6874 757.93745 L 744.6874 854.62495 L 814.2499 854.62495 L 814.2499 554.81245 L 802.46865 554.81245 L 802.46865 550.06245 L 816.46865 550.06245 L 816.43745 534.06245 L 814.24995 533.62495 L 814.24995 524.24995 L 813.5312 524.24995 L 813.06245 524.43745 L 812.3437 523.9062 L 812.0937 524.81245 L 812 523.9062 L 811.46875 523.8125 L 811.8125 524.8125 L 811.28125 525.0625 L 810.90625 523.28125 L 810.90625 525.4375 L 810.5625 525.0625 L 810.6562 524.1875 L 810.5625 524.4375 L 809.84375 524.625 L 809.3125 525.4375 L 808.40625 525.625 L 808.40625 524.71875 L 807.78125 525.71875 L 807.5 525.0625 L 807.21875 525.1562 L 805.96875 524.5312 L 804.8125 522.81245 L 804.8125 520.74995 L 805.34375 520.56245 L 805.53125 519.8437 L 804.4375 520.49995 L 804.0625 519.68745 L 804.96875 519.59375 L 804.0625 519.40625 L 804.1562 518.96875 L 803.2812 519.5 L 803.1875 518.59375 L 804 518.15625 L 803.34375 518.40625 L 802.625 518.31255 L 801.09375 516.7813 L 799.5 515.9063 L 797.0625 515.62505 L 796.0625 515.71875 L 795.15625 515.53125 L 794.8125 515.90625 L 790.84375 516.0625 L 788.40625 516.34375 L 787.0625 516.625 L 786.9688 516.5313 L 787.7813 516.3438 L 787.6876 515.9063 L 787.15635 515.00005 L 786.8126 514.37505 L 786.8126 513.4688 L 786.625 513 L 787.0625 513 C 787.1585 509.7663 787.0316 506.5513 786.90625 503.3125 L 786.15625 502.40625 L 786.09375 502.31255 L 785.90625 501.68755 L 785.81255 501.4063 L 785.81255 500.5938 L 785.71885 499.43755 L 785.71885 498.9688 C 784.74975 498.42 783.9626 497.99005 783.1251 497.18755 L 783.1876 495.6563 L 783.5626 494.75005 L 783.7501 494.31255 L 783.90635 494.37505 L 783.90635 494.12505 L 784.8126 493.56255 L 784.8126 493.4063 L 785.71885 492.93755 L 785.81255 492.50005 L 786.0938 492.2188 L 786.9688 492.50005 L 788.06255 492.2188 L 788.25005 492.3125 L 788.7813 492.3125 L 789.12505 492.0625 L 790.2188 491.15625 L 790.5938 490.15625 L 790.2188 489.625 L 790.0313 489.34375 L 789.31255 488.34375 L 789.93755 487.46875 L 789.4063 486.375 L 788.9688 486.2813 L 787.9688 486.75005 L 786.81255 486.65635 L 785.62505 485.65635 L 784.6563 484.84385 L 784.0938 484.75015 L 784.0001 484.50015 L 784.0001 483.5939 L 784.65635 483.4064 L 784.90635 483.4064 L 785.4376 483.2189 L 784.71885 482.9689 L 783.84385 482.1564 L 782.3126 481.43765 L 782.3126 481.25015 L 781.65635 480.43765 L 781.1251 479.5314 L 781.0314 478.62515 L 780.50015 478.18765 L 780.40645 477.18765 L 780.31275 476.2189 L 780.594 476.0314 L 780.594 475.8439 L 780.5 475.5 L 781.84375 475.5 L 782.75 475.75 L 782.9375 475.6563 L 784.09375 475.50005 L 785.53125 474.12505 L 788.96875 473.9688 L 791.84375 473.7813 L 792.75 473.875 L 793.46875 473.40625 L 794.8125 473.59375 L 795.34375 473.68745 L 795.625 473.78115 L 796.34375 472.8749 L 797.25 472.34365 L 797.40625 472.15615 L 798.0625 470.71865 L 797.9688 470.53115 L 798.2188 469.6249 L 798.93755 468.7499 C 799.26005 464.4124 799.07505 460.0349 799.12505 455.6874 L 797.06255 456.0624 L 794.9063 456.4999 L 793.9063 455.59365 L 794.62505 454.53115 L 794.37505 453.6249 L 794.18755 452.3749 L 793.18755 451.8124 L 792.0313 451.5624 L 791.12505 451.4687 L 789.87505 450.2812 L 788.9688 450.4687 L 787.7813 450.12495 L 787.1563 449.2187 L 786.43755 448.5937 L 785.43755 447.93745 L 785.00005 447.06245 L 785.00005 446.68745 L 784.90635 446.24995 L 779.40635 442.7187 C 771.00535 436.3871 762.1001 430.3937 753.2501 424.6562 L 753.2501 424.5625 L 740.28135 416.46875 L 739.28135 415.8125 L 739.28135 408.71875 C 740.90425 407.57245 742.62515 406.56625 744.15635 405.28125 L 745.0626 405.21875 L 745.5001 404.84375 L 746.40635 404.125 L 747.84385 404.2187 L 748.7501 404.4062 L 749.46885 403.49995 L 749.46885 403.06245 L 749.6251 403.12495 L 750.53135 403.21865 L 751.4376 403.0624 L 753.5001 402.6874 L 754.6876 402.2499 L 755.5626 401.2499 L 756.28135 400.0624 L 757.1876 399.4374 L 758.46885 398.9999 L 758.90635 398.9999 L 759.90635 398.46865 L 760.15635 398.28115 L 761.0626 397.5624 L 762.5001 397.28115 L 762.4064 396.3749 L 761.87515 395.9374 L 762.1564 395.03115 L 761.68765 394.0624 L 761.68765 393.6874 L 763.50015 393.4999 L 764.4064 393.2499 L 765.2189 392.96865 L 765.6564 392.78115 L 765.8439 391.8749 L 767.5314 391.34365 L 768.43765 391.15615 L 770.5939 391.34365 L 773.0314 391.43735 L 773.8439 391.53105 L 773.9376 391.43735 L 773.5626 391.1561 L 773.4689 391.1561 L 773.6564 390.81235 L 774.18765 388.99985 L 773.4689 388.37485 L 772.50015 387.4686 L 772.59385 386.5936 L 771.9376 385.7811 L 771.78135 384.7811 L 772.03135 383.87485 L 771.78135 383.3436 L 771.40635 383.1561 L 771.78135 381.0936 L 771.5001 380.18735 L 771.6876 379.12485 L 771.15635 378.2186 L 771.06265 377.5936 L 770.96895 377.4999 L 769.53145 376.40615 L 769.53145 376.31245 L 769.2502 375.9687 L 769.25 375.96882 L 768.625 375.78082 L 767.719 375.96882 L 766.813 375.78082 L 765.938 374.96882 L 765.844 374.68782 L 763.938 375.40582 L 762.156 374.96882 L 761.875 375.34382 L 760.075 375.15582 L 759.094 375.59382 L 757.656 375.34382 L 756.656 374.78082 L 755.031 373.15582 L 754.688 372.18782 L 754.75 371.71882 L 754.5 371.56282 Z M 795.15625 515.53125 L 795.8125 515.53125 L 796.6875 514.8125 Z M 708.15625 485.75 L 707.625 486.65625 L 707.25 486.74995 L 707.25 486.84365 L 707.0625 486.84365 L 706.71875 486.90615 L 704.6875 486.87495 L 704 486.84375 L 704.6875 486.6875 L 704.90625 486.6563 L 705.1875 486.18755 L 705.375 486.56255 L 707.0625 486.8438 L 707.25 486.7501 L 707.4375 485.9376 L 708.15625 485.7501 Z"/>
    <path id="path42536" fill="#8cce55" stroke="#0f380f" stroke-opacity="0.14509804" stroke-linecap="round" stroke-linejoin="round" transform="matrix(1 0 0 1 0.5 1.2670726)" d="M 697.625 67.125 L 696.8125 67.28125 L 696 68.1875 L 696.375 69.1875 L 698.34375 68 L 697.625 67.125 Z"/>
    <path id="path42534" fill="#8cce55" stroke="#0f380f" stroke-opacity="0.14509804" stroke-linecap="round" stroke-linejoin="round" transform="matrix(1 0 0 1 0.5 1.2670726)" d="M 689.875 70 L 688.09375 71.34375 L 689 72.0625 L 689.96875 72.0625 L 689.71875 71.625 L 690.6875 71.4375 L 690.875 70.53125 L 689.875 70 Z"/>
    <path id="path42532" fill="#8cce55" stroke="#0f380f" stroke-opacity="0.14509804" stroke-linecap="round" stroke-linejoin="round" transform="matrix(1 0 0 1 0.5 1.2670726)" d="M 694.9375 70.8125 L 695.46875 71.6875 L 695.56245 70.8125 L 694.93745 70.8125 L 694.9375 70.8125 Z"/>
    <path id="path42530" fill="#8cce55" stroke="#0f380f" stroke-opacity="0.14509804" stroke-linecap="round" stroke-linejoin="round" transform="matrix(1 0 0 1 0.5 1.2670726)" d="M 693.84375 72.59375 L 692.84375 73.5 L 693.84375 73.3125 L 694.75 72.6875 L 693.84375 72.59375 Z"/>
    <path id="path42528" fill="#8cce55" stroke="#0f380f" stroke-opacity="0.14509804" stroke-linecap="round" stroke-linejoin="round" transform="matrix(1 0 0 1 0.5 1.2670726)" d="M 690.59375 75.3125 L 689.96875 76.1875 L 690.875 76.03125 L 690.59375 75.3125 Z"/>
    <path id="path42526" fill="#8cce55" stroke="#0f380f" stroke-opacity="0.14509804" stroke-linecap="round" stroke-linejoin="round" transform="matrix(1 0 0 1 0.5 1.2670726)" d="M 688.34375 75.65625 L 689.0625 76.5625 L 688.90625 75.65625 L 688.34375 75.65625 Z"/>
    <path id="path42524" fill="#8cce55" stroke="#0f380f" stroke-opacity="0.14509804" stroke-linecap="round" stroke-linejoin="round" transform="matrix(1 0 0 1 0.5 1.2670726)" d="M 691.15625 76.1875 L 690.59375 77.09375 L 692.03125 76.46875 L 691.15625 76.1875 Z"/>
    <path id="path42522" fill="#8cce55" stroke="#0f380f" stroke-opacity="0.14509804" stroke-linecap="round" stroke-linejoin="round" transform="matrix(1 0 0 1 0.5 1.2670726)" d="M 691.78125 77.8125 L 691.3125 78.71875 L 692.21875 77.90625 L 691.78125 77.8125 Z"/>
    <path id="path42520" fill="#8cce55" stroke="#0f380f" stroke-opacity="0.14509804" stroke-linecap="round" stroke-linejoin="round" transform="matrix(1 0 0 1 0.5 1.2670726)" d="M 682.96875 79.34375 L 681.96875 79.71875 L 680.34375 81.59375 L 680.25005 82.59375 L 679.81255 83.5 L 678.81255 84.03125 L 679.7188 83.125 L 678.7188 82.59375 L 677.75005 82.6875 L 677.75005 82.3125 C 677.47591 82.41852 677.21571 82.53887 676.9688 82.6875 C 676.74326 82.82456 676.54703 82.98646 676.3438 83.15625 C 676.3257 83.17115 676.2992 83.1724 676.2813 83.1875 C 676.09033 83.3509 675.92238 83.53039 675.75005 83.71875 C 675.72015 83.75105 675.68565 83.7795 675.65635 83.8125 C 675.50079 83.98913 675.35988 84.1811 675.21885 84.375 L 675.21885 91.9375 L 675.40635 91.78125 L 675.7501 90.875 L 676.65635 90.78125 L 677.65635 91.5 L 678.46885 92.5 L 679.34385 92.75 L 680.2501 92.03125 L 681.2501 91.5 L 683.1251 90.96875 L 681.34385 90.6875 L 679.4376 90.59375 L 681.4376 90.34375 L 683.3126 90.5 L 682.3126 89.875 L 683.3126 89.4375 L 686.1876 89.875 L 686.7501 89.6875 L 687.53135 89.78125 L 689.4376 90.5 L 692.21885 90.875 L 693.21885 91.21875 L 694.1251 91.21875 L 695.09385 90.59375 L 695.5626 89.6875 L 695.09385 86.90625 L 694.21885 86 L 692.21885 85.75 L 691.25 86 L 690.59375 86.90625 L 688.625 85.75 L 687.625 85.46875 L 685.84375 85.5625 L 683.9375 85.28125 L 685.84375 85.28125 L 686.75 85.03125 L 683.84375 84.5625 L 681.96875 84.03125 L 684.9375 84.40625 L 683.9375 83.9375 L 684.9375 83.75 L 683.84375 83.125 L 682.875 82.78125 L 683.84375 82.3125 L 684.84375 82.5 L 685.84375 82.15625 L 686.75 82.3125 L 689.71875 83.59375 L 691.59375 83.21875 L 690.78125 82.21875 L 689.875 81.6875 L 688 81.4375 L 685.84375 80.875 L 683.9375 80.15625 L 682.96875 79.34375 Z"/>
    <path id="path42518" fill="#8cce55" stroke="#0f380f" stroke-opacity="0.14509804" stroke-linecap="round" stroke-linejoin="round" transform="matrix(1 0 0 1 0.5 1.2670726)" d="M 680.96875 79.4375 L 680.96875 80.34375 L 681.59375 79.4375 L 680.96875 79.4375 Z"/>
    <path id="path42516" fill="#8cce55" stroke="#0f380f" stroke-opacity="0.14509804" stroke-linecap="round" stroke-linejoin="round" transform="matrix(1 0 0 1 0.5 1.2670726)" d="M 684.84375 79.71875 L 685.84375 80.4375 L 686.75 80.875 L 687.71875 81.15625 L 689.53125 81.4375 L 689.62495 80.53125 L 687.81245 80.53125 L 686.74995 80.0625 L 686.74995 79.71875 L 684.8437 79.71875 L 684.84375 79.71875 Z"/>
    <path id="path42514" fill="#8cce55" stroke="#0f380f" stroke-opacity="0.14509804" stroke-linecap="round" stroke-linejoin="round" transform="matrix(1 0 0 1 0.5 1.2670726)" d="M 697.4375 80.34375 L 696.53125 80.96875 L 695.8125 81.875 L 695.65625 82.78125 L 696.625 82.78125 L 697.625 82.3125 L 698.15625 81.4375 L 697.8125 80.53125 L 697.4375 80.34375 Z"/>
    <path id="path42512" fill="#8cce55" stroke="#0f380f" stroke-opacity="0.14509804" stroke-linecap="round" stroke-linejoin="round" transform="matrix(1 0 0 1 0.5 1.2670726)" d="M 691.25 91.875 L 691.5 92.75 L 692.40625 93.03125 L 691.40625 93.3125 L 690.96875 94.1875 L 692.03125 96.09375 L 692.12495 97.09375 L 693.12495 98.875 L 693.21865 99.78125 L 693.7499 98.875 L 693.21865 97.4375 L 693.31235 96.53125 L 692.93735 94.65625 L 693.125 92.75 L 692.21875 91.9375 L 691.25 91.875 Z"/>
    <path id="path42510" fill="#8cce55" stroke="#0f380f" stroke-opacity="0.14509804" stroke-linecap="round" stroke-linejoin="round" transform="matrix(1 0 0 1 0.5 1.2670726)" d="M 675.21875 92.8125 L 675.21875 99.375 C 675.22955 99.385 675.23915 99.39625 675.24995 99.40625 C 675.42263 99.57165 675.5947 99.7301 675.7812 99.875 C 675.8107 99.898 675.8451 99.9155 675.8749 99.9375 C 676.08458 100.0946 676.3061 100.2412 676.53115 100.375 C 676.62835 100.433 676.74377 100.47755 676.84365 100.53125 C 676.96902 100.59825 677.08928 100.6889 677.21865 100.75 C 677.49091 100.8791 677.77406 100.98965 678.0624 101.09375 C 678.1168 101.11275 678.16368 101.13825 678.21865 101.15625 C 678.43459 101.23025 678.65139 101.28185 678.8749 101.34375 C 679.0701 101.39675 679.26833 101.4548 679.46865 101.5 C 679.7241 101.558 679.98722 101.61005 680.2499 101.65625 C 680.41531 101.68525 680.58203 101.69475 680.7499 101.71875 C 681.00138 101.75575 681.24376 101.81475 681.4999 101.84375 C 681.5421 101.84375 681.5826 101.84375 681.6249 101.84375 C 682.19285 101.90475 682.76193 101.93675 683.34365 101.96875 C 683.93636 102.00175 684.52975 102.04345 685.1249 102.06245 C 685.59172 102.07645 686.06943 102.07865 686.53115 102.09365 C 686.71715 102.10365 686.90913 102.11785 687.09365 102.12485 C 687.70713 102.14785 688.31831 102.17255 688.90615 102.21855 L 688.99985 102.46855 L 689.7186 103.46855 L 689.7498 103.9373 C 690.65217 103.4529 691.28105 102.5329 691.28105 101.4373 C 691.28105 99.849791 689.9923 98.5623 688.40605 98.5623 C 687.48917 98.5623 686.68201 98.98715 686.15605 99.65605 L 685.84355 99.6873 L 684.84355 99.59355 L 683.9373 99.34355 L 681.96855 99.2498 L 678.1873 99.40605 L 679.09355 99.2498 L 682.78105 98.96855 L 684.7498 99.15605 L 685.65605 98.96855 L 686.7498 98.4373 L 687.71855 98.4373 L 688.09355 97.53105 L 687.3748 96.6248 L 685.7498 96.6248 L 684.7498 96.90605 L 682.96855 96.1873 L 681.96855 95.9998 L 682.8748 96.90605 L 684.84355 97.6248 L 683.84355 97.8123 L 682.96855 96.9998 L 681.96855 96.53105 L 680.0623 96.3748 L 679.09355 96.71855 L 679.18725 95.8123 L 679.531 94.84355 L 676.75 95 L 675.84375 94.90625 L 676.75 94.75 L 678.625 94.75 L 677.65625 94.5625 L 678.625 94.125 L 677.65625 93.9375 L 677.74995 93.03125 L 676.74995 92.84375 L 676.0312 93.75 L 675.4062 92.84375 L 675.2187 92.8125 L 675.21875 92.8125 Z"/>
    <path id="path42508" fill="#8cce55" stroke="#0f380f" stroke-opacity="0.14509804" stroke-linecap="round" stroke-linejoin="round" transform="matrix(1 0 0 1 0.5 1.2670726)" d="M 704.34375 179.96875 L 702.5625 180.34375 L 703.1875 182.125 L 702.46875 183.40625 L 700.3125 182.5 L 699.40625 182.9375 L 698.0625 184.75 L 696.25 182.9375 L 694.46875 182.8438 L 694.53125 183.8438 L 695.25 184.75005 L 695.625 185.6563 L 695.625 186.81255 L 695.25 186.37505 L 695 185.4688 L 694.375 184.56255 L 692.5625 182.8438 L 691.65625 182.6563 L 690.9375 182.8438 L 690.78125 183.4688 L 689.875 183.4688 L 688.96875 184.37505 L 689.40625 185.2813 L 689.25 186.18755 L 688.6875 186.09385 L 688.15625 185.46885 L 687.25 184.7501 L 686.09375 183.21885 L 685.625 183.31255 L 684.75 184.0313 L 685.375 185.81255 L 685.375 186.7188 L 685.1875 186.8125 L 684.8125 187.71875 L 684.46875 187.96875 L 684.09375 187.90625 L 683.9375 187.25 L 683.03125 186.8125 L 682.125 187.71875 L 681.59375 188.625 L 681.59375 190.5 L 681.125 188.6875 L 679.96875 186.90625 L 679.0625 186.81255 L 678.4375 185.9063 L 679.34375 186.43755 L 680.25 186.2813 L 680.6875 185.37505 L 680.25 184.4688 L 679.59375 184.2813 L 680.5 184.12505 L 679.59375 183.56255 L 678.71875 183.56255 L 678.4375 182.6563 L 677.28125 182.0313 L 676.375 182.0313 L 675.8125 181.1563 L 674.9375 180.5938 L 674.03125 180.7813 L 673.125 180.6876 L 672.125 180.8751 L 672.5 181.78135 L 673.40625 181.40635 L 674.3125 181.8751 L 675.28125 182.1251 L 674.3125 182.2188 L 673.40625 182.8438 L 675.1875 183.56255 L 674.375 185.4688 L 674.65625 184.18755 L 673.75 184.37505 L 672.84375 183.93755 L 672.0625 183.0313 L 671.15625 182.6563 L 670.25 182.75 L 669.96875 183.03125 L 670.875 183.40625 L 669.96875 183.46875 L 670.875 184.1875 L 669.96875 183.75 L 669.09375 183.6563 L 669.625 184.56255 L 671.5 185.2813 L 669.625 184.8438 L 668.71875 184.9063 L 669.34375 185.81255 L 671.15625 186.0938 L 670.25 186.2813 L 671.25 186.62505 L 670.25 187.00005 L 669.34375 186.2813 L 667.5625 185.7188 L 668.28125 187.5313 L 667.28125 187.0938 L 666.375 187.0938 L 665.9375 188.06255 L 667.71875 188.06255 L 668.71875 188.62505 L 671.25 187.9688 L 673.03125 187.25005 L 673.12495 187.43755 L 674.0312 187.9063 L 673.9375 187.00005 L 674.84375 187.00005 L 675.8125 187.7188 L 676.71875 187.43755 L 676 188.3438 L 676.90625 187.81255 L 677.8125 188.3438 L 678.8125 188.3438 L 677.53125 188.68755 L 675.75 189.5938 L 675.6563 190.50005 L 676.56255 190.7813 L 678.3438 190.875 L 677.43755 191.5 L 675.37505 191.3125 L 674.4688 191.75 L 673.5938 191.59375 L 671.7813 191.65625 L 669.875 192.375 L 669 192.3125 L 668.09375 193.03125 L 669 193.75 L 669.875 193.1875 L 671.6875 193.125 L 674.46875 193.46875 L 675.46875 193.1875 L 675.65625 194.09375 L 675.8125 194.00005 L 675.75 195.00005 L 676.625 195.81255 L 677.8125 195.00005 L 679.34375 194.2813 L 679.59375 194.375 L 679.25 194.8125 L 678.71875 194.7188 L 677.8125 195.37505 L 677.28125 196.00005 L 677.625 196.87505 L 678.53125 196.3438 L 679.15625 196.3438 L 678.25 196.9688 L 678.625 197.87505 L 678.25 198.1563 L 677.34375 197.9688 L 677.71875 198.3438 L 676.8125 198.87505 L 675.03125 199.31255 L 674.125 199.06255 L 674.0313 200.0313 L 674.93755 200.50005 L 675.81255 200.2188 L 676.7188 200.4063 L 678.5313 200.12505 L 679.43755 200.4063 L 680.31255 200.3126 L 680.87505 199.59385 L 681.7813 199.59385 L 681.5938 200.21885 L 682.50005 200.59385 L 683.37505 200.1251 L 683.12505 200.84385 L 684.0313 201.3126 L 684.75005 200.40635 L 685.18755 201.1251 L 684.56255 201.3751 L 685.37505 202.28135 L 686.62505 202.5626 L 687.5313 202.5626 L 689.87505 203.28135 L 692.6563 203.6251 L 693.56255 203.3751 L 694.4688 202.5626 L 695.62505 202.84385 L 696.62505 202.09385 L 696.06255 201.9376 L 696.5313 201.1251 L 697.43755 201.2188 L 699.12505 200.75005 L 700.56255 200.65635 L 700.65625 199.78135 L 700.9375 200.65635 L 702.8125 199.9376 L 703.71875 199.3126 L 703.62505 199.1251 L 704.5313 198.78135 L 705.43755 198.15635 L 707.2188 197.4376 L 708.0313 196.53135 L 708.5938 196.8751 L 709.4688 196.9688 L 712.0938 195.81255 L 712.1875 195.62505 L 712 194.7188 L 713 193.9063 L 713.90625 193.9063 L 714.875 193.18755 L 715.25 193.18755 L 714.6875 192.31255 L 715.6875 192.12505 L 714.6875 191.5938 L 713.8125 191.5001 L 714.78125 191.3126 L 715.6875 191.7501 L 716.59375 191.40635 L 716.68745 190.40635 L 715.7812 190.21885 L 714.43745 190.31255 L 715.49995 190.12505 L 716.49995 189.68755 L 715.9687 189.4063 L 715.06245 189.4063 L 715.9687 188.7813 L 716.2187 187.81255 L 715.3437 187.71885 L 714.43745 187.15635 L 713.5312 186.90635 L 712.7187 187.09385 L 711.81245 187.96885 L 712.99995 186.71885 L 712.37495 185.8126 L 710.56245 186.1876 L 710.74995 185.46885 L 711.6562 184.5626 L 710.8437 183.65635 L 709.93745 183.75005 L 709.84375 182.8438 L 710.03125 182.7501 L 710.12495 181.8751 L 711.0937 181.3126 L 710.12495 181.15635 L 709.2187 182.03135 L 708.31245 182.12505 L 708.0312 183.0313 L 707.2187 182.31255 L 706.24995 181.93755 L 706.24995 180.9688 L 705.3437 180.1563 L 704.3437 179.9688 L 704.34375 179.96875 Z"/>
    <path id="path42506" fill="#8cce55" stroke="#0f380f" stroke-opacity="0.14509804" stroke-linecap="round" stroke-linejoin="round" transform="matrix(1 0 0 1 0.5 1.2670726)" d="M 747.375 211.625 L 747.84375 212.53125 L 748.65625 213.15625 L 748.28125 212.28125 L 747.375 211.625 Z"/>
    <path id="path42504" fill="#8cce55" stroke="#0f380f" stroke-opacity="0.14509804" stroke-linecap="round" stroke-linejoin="round" transform="matrix(1 0 0 1 0.5 1.2670726)" d="M 746.03125 211.8125 L 746.5 212.71875 L 748.28125 214.0625 L 748.37495 213.8125 L 747.8437 212.90625 L 746.9375 212 L 746.03125 211.8125 Z"/>
    <path id="path42502" fill="#8cce55" stroke="#0f380f" stroke-opacity="0.14509804" stroke-linecap="round" stroke-linejoin="round" transform="matrix(1 0 0 1 0.5 1.2670726)" d="M 746.12495 212.625 L 745.2187 212.90625 L 746.12495 213.4375 L 746.12495 212.625 Z"/>
    <path id="path42500" fill="#8cce55" stroke="#0f380f" stroke-opacity="0.14509804" stroke-linecap="round" stroke-linejoin="round" transform="matrix(1 0 0 1 0.5 1.2670726)" d="M 748.6562 214.59375 L 747.74995 214.875 L 748.6562 215.40625 L 748.6562 214.59375 Z"/>
    <path id="path42498" fill="#8cce55" stroke="#0f380f" stroke-opacity="0.14509804" stroke-linecap="round" stroke-linejoin="round" transform="matrix(1 0 0 1 0.5 1.2670726)" d="M 747.4687 216.5 L 747.8437 217.40625 L 748.56245 217.9375 L 748.37495 217.03125 L 747.4687 216.5 Z"/>
    <path id="path42496" fill="#8cce55" stroke="#0f380f" stroke-opacity="0.14509804" stroke-linecap="round" stroke-linejoin="round" transform="matrix(1 0 0 1 0.5 1.2670726)" d="M 775.81245 222.0625 L 775.0937 222.96875 L 775.56245 222.96875 L 775.81245 222.0625 Z"/>
    <path id="path42494" fill="#8cce55" stroke="#0f380f" stroke-opacity="0.14509804" stroke-linecap="round" stroke-linejoin="round" transform="matrix(1 0 0 1 0.5 1.2670726)" d="M 773.4687 223.34375 L 772.5937 224.0625 L 773.0312 224.96875 L 772.0312 225.5 L 772.49995 226.5 L 773.4687 226.03125 L 773.5624 226.9375 L 773.3124 227.65625 L 773.4061 228.5625 L 773.93735 227.65625 L 773.93735 225.84375 L 774.2811 224.96875 L 773.4686 223.34375 L 773.4687 223.34375 Z"/>
    <path id="path42492" fill="#8cce55" stroke="#0f380f" stroke-opacity="0.14509804" stroke-linecap="round" stroke-linejoin="round" transform="matrix(1 0 0 1 0.5 1.2670726)" d="M 774.74995 223.43745 L 774.18745 224.31245 L 774.37495 224.31245 L 774.74995 223.43745 Z"/>
    <path id="path42490" fill="#8cce55" stroke="#0f380f" stroke-opacity="0.14509804" stroke-linecap="round" stroke-linejoin="round" transform="matrix(1 0 0 1 0.5 1.2670726)" d="M 807.0312 229.4687 L 806.49995 230.3437 L 807.06245 229.4687 L 807.03125 229.4687 L 807.0312 229.4687 Z"/>
    <path id="path42488" fill="#8cce55" stroke="#0f380f" stroke-opacity="0.14509804" stroke-linecap="round" stroke-linejoin="round" transform="matrix(1 0 0 1 0.5 1.2670726)" d="M 765.2187 232.3437 L 766.0937 232.9687 L 766.0937 232.5937 L 765.2187 232.3437 Z"/>
    <path id="path42486" fill="#8cce55" stroke="#0f380f" stroke-opacity="0.14509804" stroke-linecap="round" stroke-linejoin="round" transform="matrix(1 0 0 1 0.5 1.2670726)" d="M 764.8437 233.68745 L 763.93745 233.87495 L 764.4062 234.7812 L 766.37495 235.4062 L 766.7187 234.7812 L 765.8437 234.49995 L 764.93745 234.59365 L 764.84375 233.6874 L 764.8437 233.68745 Z"/>
    <path id="path42484" fill="#8cce55" stroke="#0f380f" stroke-opacity="0.14509804" stroke-linecap="round" stroke-linejoin="round" transform="matrix(1 0 0 1 0.5 1.2670726)" d="M 764.4687 235.31245 L 763.5937 235.49995 L 764.4687 236.12495 L 764.4687 235.31245 Z"/>
    <path id="path42482" fill="#8cce55" stroke="#0f380f" stroke-opacity="0.14509804" stroke-linecap="round" stroke-linejoin="round" transform="matrix(1 0 0 1 0.5 1.2670726)" d="M 763.93745 236.93745 L 763.12495 237.2812 L 762.49995 237.0937 L 761.5937 237.56245 L 760.7187 237.37495 L 759.81245 237.81245 L 758.9062 237.99995 L 757.18745 237.56245 L 756.2812 237.0937 L 756.2812 238.37495 L 755.56245 238.7187 L 756.2187 239.62495 L 754.49995 239.62495 L 755.0312 240.5312 L 754.8437 241.43745 L 755.12495 242.31245 L 753.31245 242.1562 L 752.68745 243.0312 L 752.87495 244.0312 L 753.1562 244.56245 L 752.24995 244.65615 L 752.9687 245.65615 L 753.87495 245.56245 L 752.9687 246.0937 L 753.9687 246.0937 L 754.31245 246.56245 L 753.31245 246.46875 L 753.49995 247.09375 L 754.4062 247.28125 L 753.5937 247.28125 L 752.68745 247.625 L 753.5937 248.09375 L 752.68745 247.90625 L 752.78115 248.8125 L 752.34365 249.71875 L 751.8749 249.4375 L 750.9999 250.0625 L 752.78115 249.875 L 753.78115 250.0625 L 752.78115 249.9688 L 752.0624 250.87505 L 752.96865 251.1563 L 753.96865 250.7813 L 755.7499 249.1563 L 755.4999 250.06255 L 756.28115 249.87505 L 754.84365 250.3438 L 754.4999 250.87505 L 754.4999 251.5938 L 755.40615 251.5938 L 754.4999 251.6875 L 753.6874 252.3125 L 753.6874 253.21875 L 753.40615 254.125 L 753.2499 255.5625 L 753.40615 256.46875 L 752.96865 257.34375 L 752.78115 259.15625 L 752.96865 259.15625 L 753.78115 258.25 L 754.21865 257.25 L 754.4999 254.5625 L 755.40615 253.65625 L 756.28115 253.03125 L 755.03115 254.21875 L 755.5624 255.09375 L 755.7499 254.5625 L 756.28115 255.46875 L 757.1874 253.5625 L 757.3749 254.46875 L 758.28115 255 L 757.1874 254.84375 L 756.9999 254.93745 L 756.84365 255.81245 L 756.93735 256.7187 L 757.81235 257.43745 L 757.56235 258.3437 L 756.2811 260.1562 L 756.12485 261.12495 L 756.2811 261.68745 L 755.8436 261.0312 L 755.49985 261.0312 L 755.49985 261.74995 L 756.93735 263.4687 L 756.93735 263.18745 L 756.4686 262.31245 L 757.4686 262.21875 L 758.37485 262.75 L 759.24985 262.5625 L 759.0936 261.6875 L 759.7186 262.125 L 760.62485 262.125 L 760.71855 262.5625 L 761.15605 262.5625 L 762.96855 261.125 L 765.46855 261.3125 L 764.40605 261.75 L 763.59355 262.5625 L 762.96855 263.46875 L 762.6873 264.375 L 763.59355 265.28125 L 764.5623 265.90625 L 764.9373 267.0625 L 765.3748 266.09375 L 765.4685 266.25 L 766.37475 266.1875 L 766.18725 267.6875 L 765.281 268.59375 L 765.99975 269.21875 L 765.656 269.40625 L 765.12475 270.3125 L 765.56225 271.3125 L 765.2185 271.125 L 765.2185 272.28125 L 763.8435 271.5625 L 762.9685 271.9375 L 762.06225 271.8438 L 760.156 272.37505 L 760.156 271.93755 L 759.24975 271.12505 L 758.281 272.0313 L 759.25 273 L 760 272.46875 L 759.1875 273.65625 L 758.28125 274.1875 L 757.375 275.09375 L 758.53125 275.15625 L 759.4375 274.4375 L 760.34375 274.625 L 760.78125 275.53125 L 760.625 275.71875 L 761.15625 276.625 L 760.625 276.875 L 760.4375 277.6875 L 759.625 278.59375 L 757.8125 279.5 L 755.9375 279.9375 L 755.3125 280.84375 L 755.2188 281.75 L 756.6563 281.90625 L 756.2813 281.90625 L 756.2813 282.46875 L 757.4688 282.1875 L 758.37505 281.65625 L 759.25005 281.375 L 759.5313 282.09375 L 760.62505 282.00005 L 760.62505 282.18755 L 759.62505 282.7188 L 760.5313 282.7188 L 761.25005 282.4688 L 762.06255 282.9063 L 762.87505 283.62505 L 763.4063 283.81255 L 764.31255 283.81255 L 765.6563 282.7188 L 765.93755 282.9063 L 766.9063 282.62505 L 768.3438 281.37505 L 766.9063 283.0938 L 766.37505 283.37505 L 765.6563 284.25005 L 765.5626 284.87505 L 764.03135 285.06255 L 763.1251 284.81255 L 760.8751 284.87505 L 759.6251 286.06255 L 758.71885 286.06255 L 758.0001 287.7813 L 757.1876 288.6563 L 756.28135 288.93755 L 756.21885 289.37505 L 755.40635 290.2813 L 754.5001 290.8438 L 753.59385 291.0938 L 753.3126 292.00005 L 754.21885 291.56255 C 756.60375 293.75755 754.42015 290.7738 759.90635 289.8438 L 760.00005 289.4688 L 760.06255 289.93755 L 762.06255 290.9063 L 763.2188 289.93755 L 763.4063 288.12505 L 763.75005 288.5938 L 764.8438 288.12505 L 766.2813 287.87505 L 768.0938 288.5938 L 768.9688 288.5001 L 770.06255 287.8751 L 770.43755 287.9376 L 772.4063 287.6876 L 773.31255 287.0626 L 775.18755 287.1251 L 775.7188 287.8751 L 776.7188 287.40635 L 778.5313 287.21885 L 780.7813 287.6876 L 781.6563 287.1251 L 783.4688 286.6876 L 784.18755 285.96885 L 785.0938 285.6251 L 786.00005 284.8126 L 785.7188 283.8126 L 783.8438 284.09385 L 782.0313 283.6251 L 782.2188 283.1876 L 781.31255 283.4376 L 781.8438 283.09385 L 783.37505 282.8126 L 783.0313 281.90635 L 783.125 281.65635 L 784.09375 281.1876 L 785 281.2813 L 785.375 280.4063 L 784.46875 280.3126 L 786.15625 279.84385 L 786.96875 278.9376 L 787.625 277.15635 L 787.5313 276.15635 L 787.1563 275.2501 L 785.2813 274.1876 L 783.4688 274.0001 L 782.56255 274.0001 L 781.6563 274.3751 L 781.2188 275.2501 L 779.4063 274.53135 L 781.0313 272.90635 L 780.9376 272.03135 L 780.40635 271.1251 L 777.8126 269.3126 L 777.1876 269.5001 L 776.09385 269.4064 L 776.53135 269.1564 L 777.4376 269.31265 L 777.8126 269.21895 L 779.40635 269.78145 L 780.15635 269.87515 L 778.8751 268.3439 L 778.53135 267.43765 L 778.53135 266.5314 L 776.71885 264.37515 L 775.8126 263.93765 L 774.1251 263.6564 C 773.1401 261.7427 772.1039 259.7502 771.9376 257.5314 L 771.0625 257 L 769.4375 255.09375 L 768.53125 254.9375 L 767.46875 254.375 L 766.5625 254.21875 L 765.65625 254.84375 L 763.03125 254.5625 L 762.15625 254.28125 L 761.6875 253.84375 C 765.3463 255.67125 764.2187 252.9413 766.5625 253.3125 L 766.71875 252.40625 L 765.84375 251.6875 L 764.40625 252.3125 L 764.03125 252.2188 L 765.65625 251.5938 L 766.65625 251.5001 L 767.625 250.8751 L 768.1875 249.71885 L 769.34375 248.53135 L 770.15625 246.28135 L 770.875 245.3751 L 771.15625 244.40635 L 770.59375 243.5001 L 767.8125 243.5001 L 766 243.3126 L 765.125 243.59385 L 763.75 243.21885 L 761.6875 244.03135 L 760.78125 244.03135 L 759.90625 244.7501 L 760.0625 243.59385 L 761.0625 243.3126 L 761.0625 242.40635 L 760.15625 242.40635 L 759.625 242.15635 L 760.625 241.59385 L 761.0625 241.59385 L 765.03125 238.8126 L 764.84375 237.0001 L 763.9375 236.9376 L 763.93745 236.93745 Z"/>
    <path id="path42480" fill="#8cce55" stroke="#0f380f" stroke-opacity="0.14509804" stroke-linecap="round" stroke-linejoin="round" transform="matrix(1 0 0 1 0.5 1.2670726)" d="M 750.7187 238.0937 L 749.81245 238.37495 L 748.9062 238.9062 L 748.0312 239.7187 L 747.6562 240.62495 L 746.74995 239.81245 L 746.56245 240.7187 L 746.93745 241.5937 L 747.8437 241.9687 L 748.56245 241.875 L 748.56245 240.96875 L 748.65615 241.875 L 749.53115 241.59375 L 749.46865 240.625 L 750.34365 240 L 750.8124 239.09375 L 750.7187 238.09375 L 750.7187 238.0937 Z"/>
    <path id="path42478" fill="#8cce55" stroke="#0f380f" stroke-opacity="0.14509804" stroke-linecap="round" stroke-linejoin="round" transform="matrix(1 0 0 1 0.5 1.2670726)" d="M 747.4687 241.9687 L 746.56245 242.5937 L 747.4687 242.9687 L 747.93745 242.06245 L 747.4687 241.96875 L 747.4687 241.9687 Z"/>
    <path id="path42476" fill="#8cce55" stroke="#0f380f" stroke-opacity="0.14509804" stroke-linecap="round" stroke-linejoin="round" transform="matrix(1 0 0 1 0.5 1.2670726)" d="M 745.93745 243.49995 L 745.06245 244.2187 L 745.93745 244.6562 L 745.5937 244.4062 L 745.93745 243.49995 Z"/>
    <path id="path42474" fill="#8cce55" stroke="#0f380f" stroke-opacity="0.14509804" stroke-linecap="round" stroke-linejoin="round" transform="matrix(1 0 0 1 0.5 1.2670726)" d="M 749.7187 243.74995 L 749.99995 244.6562 L 749.0937 244.4062 L 748.18745 244.74995 L 748.56245 245.6562 L 749.4687 245.99995 L 750.2812 246.9062 L 751.1562 247.0937 L 752.06245 246.9062 L 751.62495 247.81245 L 752.5937 247.0937 L 752.9687 246.18745 L 751.9687 246.18745 L 750.99995 245.6562 L 750.99995 244.74995 L 750.62495 243.74995 L 749.7187 243.74995 Z"/>
    <path id="path42472" fill="#8cce55" stroke="#0f380f" stroke-opacity="0.14509804" stroke-linecap="round" stroke-linejoin="round" transform="matrix(1 0 0 1 0.5 1.2670726)" d="M 745.12495 245.6562 L 745.06245 246.56245 L 745.93745 247.37495 L 745.84375 246.9062 L 746.03125 245.99995 L 745.125 245.6562 L 745.12495 245.6562 Z"/>
    <path id="path42470" fill="#8cce55" stroke="#0f380f" stroke-opacity="0.14509804" stroke-linecap="round" stroke-linejoin="round" transform="matrix(1 0 0 1 0.5 1.2670726)" d="M 751.06245 250.24995 L 750.7187 251.1562 L 751.62495 251.31245 L 751.3437 252.2187 L 750.43745 252.8437 L 751.9687 252.4062 L 752.87495 252.3125 L 752.87495 251.40625 L 751.9687 251.15625 L 751.06245 250.25 L 751.06245 250.24995 Z"/>
    <path id="path42468" fill="#8cce55" stroke="#0f380f" stroke-opacity="0.14509804" stroke-linecap="round" stroke-linejoin="round" transform="matrix(1 0 0 1 0.5 1.2670726)" d="M 753.06245 253.6562 L 752.1562 254.12495 L 751.43745 254.99995 L 751.7812 255.9062 L 751.8749 255.56245 L 752.59365 254.56245 L 753.0624 253.6562 L 753.06245 253.6562 Z"/>
    <path id="path42466" fill="#8cce55" stroke="#0f380f" stroke-opacity="0.14509804" stroke-linecap="round" stroke-linejoin="round" transform="matrix(1 0 0 1 0.5 1.2670726)" d="M 755.56245 255.18745 L 755.49995 255.4687 L 756.2187 256.37495 L 756.2812 256.0937 L 755.56245 255.18745 Z"/>
    <path id="path42464" fill="#8cce55" stroke="#0f380f" stroke-opacity="0.14509804" stroke-linecap="round" stroke-linejoin="round" transform="matrix(1 0 0 1 0.5 1.2670726)" d="M 750.43745 255.28115 L 749.5312 255.8124 L 749.37495 256.71865 L 750.2812 256.46865 L 750.3437 257.34365 L 751.06245 256.9999 L 751.3437 255.9999 L 750.43745 255.28115 Z"/>
    <path id="path42462" fill="#8cce55" stroke="#0f380f" stroke-opacity="0.14509804" stroke-linecap="round" stroke-linejoin="round" transform="matrix(1 0 0 1 0.5 1.2670726)" d="M 754.93745 256.46865 L 754.5937 257.34365 L 755.49995 258.2499 L 755.8437 257.34365 L 754.93745 256.46865 Z"/>
    <path id="path42460" fill="#8cce55" stroke="#0f380f" stroke-opacity="0.14509804" stroke-linecap="round" stroke-linejoin="round" transform="matrix(1 0 0 1 0.5 1.2670726)" d="M 745.49995 259.15615 L 744.68745 259.24985 L 744.59375 259.24985 L 744.68745 259.56235 L 744.87495 260.1561 L 744.68745 260.43735 L 744.31245 261.0311 L 744.1562 261.0311 L 743.7812 260.1561 L 742.87495 259.9686 L 740.99995 260.1561 L 740.2812 261.0311 L 740.9062 262.12485 L 739.99995 262.56235 L 739.0937 263.37485 L 741.81245 263.37485 L 741.43745 264.2811 L 740.99995 264.4686 L 740.62495 264.4686 L 739.2812 265.2811 L 739.9062 266.18735 L 738.0312 265.62485 L 737.12495 266.5311 L 736.8437 266.18735 L 735.9687 265.62485 L 735.06245 265.43735 L 734.06245 265.81235 L 733.0937 265.5311 L 733.0937 266.0936 L 733.3437 266.24985 L 733.62495 267.1561 L 733.43745 268.06235 L 734.06245 268.24985 L 734.9687 268.87485 L 734.06245 268.87485 L 733.62495 269.7811 L 734.5312 269.93735 L 733.0937 269.93735 L 733.0937 270.4061 L 732.43745 270.4998 L 733.0937 271.40605 L 734.1562 271.9373 L 735.06245 271.40605 L 735.5937 272.3748 L 737.4062 272.1248 L 737.74995 272.84355 L 737.4062 272.9998 L 736.4062 272.9061 L 735.87495 273.81235 L 735.78125 274.7186 L 733.875 276.5311 L 735.25 276.06235 L 737.125 276.06235 L 738.03125 275.1561 L 738.03125 275.81235 L 738.9375 275.90605 L 737.9375 275.96855 L 735.59375 276.53105 L 733.8125 277.59355 L 734.0625 278.4998 L 731.71875 278.4998 L 731.28125 279.40605 L 733.09375 279.1248 L 734.0625 279.2185 L 733.09375 279.74975 L 732 280.031 L 731.28125 280.93725 L 732.1875 281.37475 L 733.09375 281.37475 L 734.6875 281.031 L 733.09375 281.99975 L 733.09375 282.4685 L 733.8125 282.0935 L 735.6875 281.906 L 733.875 282.81225 L 734.78125 282.99975 L 735.6875 282.7185 L 736.59375 283.18725 L 740.8125 281.656 L 740.375 280.74975 L 741 280.65605 L 741.4375 281.28105 L 742.34375 281.03105 L 743.0625 280.1248 L 743.78125 280.40605 L 744.3125 279.40605 L 744.6875 279.31235 L 745.6875 279.12485 L 746.125 279.21855 L 747.03125 278.21855 L 747.28125 279.3123 L 748.1875 278.6873 L 749.1875 278.8748 L 750.09375 278.7811 L 749.375 277.87485 L 749.8125 277.87485 L 750.71875 276.3436 L 751 275.25 L 751.53125 274.28125 L 751.53125 273.375 L 751.25 272.46875 L 750.625 271.65625 L 751.0625 271.21875 L 751 270.84375 L 751.15625 270.65625 L 750.4375 269.21875 L 750.4375 268.6875 L 749.90625 267.78125 L 750.4375 266.8125 L 751.53125 267.15625 L 752.25 266.25 L 753.78125 265.1875 L 753.3125 264.5625 L 753.6875 264.1875 L 753.7812 265.09375 L 754.12495 265.00005 L 754.12495 264.0938 L 753.68745 263.18755 L 753.1562 263.18755 L 752.24995 263.4688 L 752.06245 263.2813 L 753.1562 262.56255 L 751.7187 261.0313 L 751.7187 260.68755 L 751.4375 260.5 L 751 259.59375 L 749.1875 259.59375 L 748.1875 259.96875 L 747.21875 259.87505 L 746.3125 260.7813 L 745.84375 260.7813 L 745.84375 260.5938 L 746.3125 260.1563 L 746.5 259.25005 L 745.5 259.15635 L 745.49995 259.15615 Z"/>
    <path id="path42458" fill="#8cce55" stroke="#0f380f" stroke-opacity="0.14509804" stroke-linecap="round" stroke-linejoin="round" transform="matrix(1 0 0 1 0.5 1.2670726)" d="M 759.24995 264.8124 L 758.37495 265.28115 L 757.6562 266.1874 L 757.2812 267.0624 L 758.62495 266.6249 L 759.3437 265.71865 L 759.25 264.8124 L 759.24995 264.8124 Z"/>
    <path id="path42456" fill="#8cce55" stroke="#0f380f" stroke-opacity="0.14509804" stroke-linecap="round" stroke-linejoin="round" transform="matrix(1 0 0 1 0.5 1.2670726)" d="M 733.0937 267.34365 L 732.18745 267.6874 L 733.0937 268.0624 L 733.0937 267.34365 Z"/>
    <path id="path42454" fill="#8cce55" stroke="#0f380f" stroke-opacity="0.14509804" stroke-linecap="round" stroke-linejoin="round" transform="matrix(1 0 0 1 0.5 1.2670726)" d="M 786.87495 287.3124 L 786.7187 288.21865 L 786.9062 287.3124 L 786.875 287.3124 L 786.87495 287.3124 Z"/>
    <path id="path42452" fill="#8cce55" stroke="#0f380f" stroke-opacity="0.14509804" stroke-linecap="round" stroke-linejoin="round" transform="matrix(1 0 0 1 0.5 1.2670726)" d="M 786.7187 288.21865 L 786.87495 290.03115 L 786.90615 290.03115 L 786.71865 288.21865 L 786.7187 288.21865 Z"/>
    <path id="path42450" fill="#8cce55" stroke="#0f380f" stroke-opacity="0.14509804" stroke-linecap="round" stroke-linejoin="round" transform="matrix(1 0 0 1 0.5 1.2670726)" d="M 773.56245 287.59365 L 772.5937 288.21865 L 773.4687 288.7499 L 774.4687 287.9374 L 773.56245 287.59365 Z"/>
    <path id="path42448" fill="#8cce55" stroke="#0f380f" stroke-opacity="0.14509804" stroke-linecap="round" stroke-linejoin="round" transform="matrix(1 0 0 1 0.5 1.2670726)" d="M 741.4062 337.84365 L 740.87495 338.03115 L 740.5312 338.15615 L 739.37495 338.34365 L 738.93745 338.8749 L 738.56245 339.21865 L 738.31245 339.46865 L 738.4687 340.3124 L 739.0937 343.1249 L 739.37495 343.28115 L 739.0937 345.90615 L 739.37495 344.90615 L 739.37495 345.8124 L 738.74995 346.8124 L 738.37495 348.96865 L 737.4062 351.65615 L 736.12495 353.46865 L 736.12495 353.9999 L 735.7812 354.90615 L 735.6875 355.8124 L 735.96875 356.6874 L 736.84375 356.6874 L 737.3125 356.2499 L 737.84375 355.34365 L 738.125 356.34365 L 737.21875 357.0624 L 736.84375 356.8749 L 736.93745 357.78115 L 738.74995 357.96865 L 739.0312 357.4374 L 738.6562 358.3124 L 738.7499 359.3124 L 738.3749 360.7499 L 738.84365 361.90615 L 738.65615 362.5624 L 738.65615 363.4374 L 738.1249 364.90615 L 738.1249 365.78115 L 739.90615 365.0624 L 740.6249 365.34365 L 741.53115 365.34365 L 742.4374 365.6874 L 743.34365 365.6249 L 745.0624 364.8124 L 745.0624 364.4374 L 744.6874 362.9999 L 744.5937 362.9062 L 745.8437 360.8437 L 745.8437 360.6562 L 746.0312 360.4687 L 747.0312 360.31245 L 747.2812 359.4062 L 746.56245 359.4999 L 745.8437 358.40615 L 745.49995 358.15615 L 745.59365 357.96865 L 745.49995 357.87495 C 746.02245 355.40245 746.3034 357.195 747.2187 354.9062 L 747.125 354.9062 L 746.84375 354.43745 L 746.5 354.53115 L 745.84375 353.65615 L 745.93745 353.56245 L 745.5937 353.0937 L 745.6874 352.56245 L 745.21865 352.37495 L 744.4999 351.4687 L 746.7499 351.4687 L 746.9374 351.4062 L 747.1249 350.68745 L 747.1249 350.59375 L 747.28115 350.59375 L 747.5624 349.6875 L 746.9374 348.6875 L 747.28115 348.25 L 747.65615 348.1563 L 747.84365 346.43755 L 747.84365 346.34385 L 747.93735 344.90635 L 747.4686 344.1876 L 747.3749 344.0939 L 747.3749 344.0002 L 747.84365 343.9377 L 748.46865 343.03145 L 749.3749 342.65645 L 749.4686 342.46895 L 750.43735 341.5002 L 750.7186 341.03145 L 749.0936 340.0627 L 748.9999 339.15645 L 748.09365 338.78145 L 747.28115 338.87515 L 747.1249 338.78145 L 746.1249 338.71895 L 746.0312 339.2502 L 745.06245 339.6877 L 744.5312 339.4377 L 744.5312 339.5002 L 743.3437 339.3127 L 742.87495 339.3439 L 742.1562 339.5939 L 742.0312 339.5939 L 741.74995 339.6876 L 741.68745 339.5939 L 741.62495 339.5939 L 741.53125 339.3439 L 741.43755 339.3439 L 741.46875 339.2814 L 741.46875 339.2502 L 741.90625 338.40645 L 741.40625 337.84395 L 741.4062 337.84365 Z"/>
    <path id="path42446" fill="#8cce55" stroke="#0f380f" stroke-opacity="0.14509804" stroke-linecap="round" stroke-linejoin="round" transform="matrix(1 0 0 1 0.5 1.2670726)" d="M 754.5 371.5625 L 753.0625 372.09375 L 752.15625 372.18745 L 751.71875 373.0937 L 750.1875 377.31245 L 747.84375 381.43745 L 746.9375 382.24995 L 745.3125 383.1562 L 739.90625 385.49995 L 738.46875 387.31245 L 736.59375 388.99995 L 736.50005 390.9062 L 736.12505 391.81245 L 734.9688 393.06245 L 733.87505 394.93745 L 733.96875 397.74995 L 733.71875 398.62495 L 734.53125 399.5312 L 734.875 400.3437 L 734.7813 401.24995 L 734.06255 402.9687 L 733.0938 404.0312 L 731.9063 405.8437 L 731.0938 406.74995 L 730.18755 407.4687 L 728.4063 408.43745 L 727.06255 409.7187 L 726.3438 410.5937 L 723.62505 411.87495 L 719.8438 412.49995 L 719.12505 413.4062 L 718.4063 413.93745 L 718.1563 414.8437 L 717.4063 416.2812 L 717.1563 417.2812 L 716.87505 418.06245 L 716.1563 418.9687 L 712.56255 421.2187 L 712.2813 422.31245 L 710.93755 424.99995 L 710.50005 428.1562 L 709.93755 429.06245 L 709.06255 429.7812 L 707.43755 431.56245 L 705.9063 432.8437 L 705.2813 433.7187 L 706.18755 432.93745 L 706.00005 433.81245 L 704.68755 435.99995 L 704.37505 436.5312 L 704.37505 437.3437 L 703.75005 438.31245 L 703.56255 439.2187 L 703.12505 440.12495 L 702.2188 440.4687 L 701.50005 441.37495 L 701.0313 442.2812 L 700.2188 446.9687 L 700.4063 447.87495 L 700.68755 446.68745 L 700.9688 446.1562 L 701.31255 446.43745 L 702.4688 448.49995 L 703.0313 448.0312 L 704.37505 450.6562 L 704.18755 452.43745 L 703.12505 454.3437 L 703.12505 455.06245 L 704.00005 455.7812 L 704.68755 457.93745 L 705.00005 458.93745 L 705.18755 460.81245 C 705.20445 461.08511 705.19555 461.34213 705.18755 461.5937 C 705.18555 461.6447 705.19055 461.69995 705.18755 461.74995 C 705.18555 461.78195 705.18955 461.81175 705.18755 461.84365 C 705.18655 461.86495 705.18855 461.88505 705.18755 461.90615 C 705.18055 461.92835 705.15795 461.94695 705.15635 461.96865 C 705.13845 462.19433 705.12875 462.41352 705.09385 462.6249 C 705.00465 463.1657 704.85613 463.67925 704.6876 464.15615 C 704.49152 464.71101 704.26735 465.25023 704.03135 465.78115 C 704.01825 465.81085 704.01325 465.84515 704.00015 465.87485 C 703.7988 466.32821 703.58498 466.76582 703.4064 467.24985 C 703.19145 467.83246 703.01657 468.46243 702.9064 469.1561 C 702.8828 469.30621 702.8605 469.46747 702.8439 469.62485 C 702.8256 469.79878 702.8212 469.97234 702.8127 470.1561 C 702.8087 470.2422 702.7832 470.3177 702.7815 470.4061 C 702.7735 470.78894 702.8029 471.19342 702.844 471.62485 L 701.4065 474.12485 L 700.31275 475.49985 L 699.87525 475.93735 L 698.87525 476.37485 C 700.074 477.50485 701.45525 478.4273 701.68775 480.5311 L 703.12525 479.5311 L 703.21895 479.3436 L 703.65645 479.4373 L 703.1252 479.531 L 702.03145 481.156 L 702.5627 480.87475 L 703.03145 480.156 L 703.03145 481.156 L 702.65645 482.156 L 702.65645 482.5935 L 703.65645 483.31225 L 704.5627 482.87475 L 706.34395 482.78105 L 707.34395 482.40605 L 707.78145 482.59355 L 708.59395 482.59355 L 708.2502 482.78105 L 707.78145 482.59355 L 707.34395 482.59355 L 706.4377 482.8748 L 704.5627 482.9685 L 704.5627 483.5935 L 702.7502 483.5935 L 702.21895 482.68725 L 701.5002 483.12475 L 701.5939 484.031 L 701.8439 484.656 L 701.7502 485.56225 L 702.03145 486.0935 L 702.5627 485.93725 L 703.21895 486.8435 L 703.18775 486.8435 L 702.4065 486.8435 L 701.68775 487.7185 L 701.93775 488.0935 L 703.469 488.7185 L 703.844 488.3435 L 705 488 L 704.6875 488.21875 L 704.09375 488.625 L 703.75 489.625 L 704.6875 490.125 L 704.7187 490.1562 L 705.62495 489.7187 L 706.7187 489.625 L 705.9062 489.875 L 705.9062 490.78125 L 706.81245 490.59375 L 707.43745 490.15625 L 709.93745 489.8125 L 709.93745 490.53125 L 710.31245 490.6875 L 709.93745 490.6875 L 709.06245 490.34375 L 708.06245 490.34375 L 707.7812 491.25 L 709.2187 491.0625 L 708.3437 491.6875 L 707.62495 492.59375 L 708.68745 492.3125 L 708.43745 493.03125 L 708.9687 494.03125 L 709.87495 493.5625 L 709.87495 494.46875 L 711.4062 494.21875 L 710.8437 495.1875 L 711.74995 495.75 L 711.65625 495.90625 L 712.46875 497.53125 L 713.375 498.25 L 714.4375 498.25 L 714.4375 498.96875 L 715.4375 499.6875 L 715.96875 499.25 L 716.06245 499.3437 L 715.81245 500.24995 L 716.1562 499.7812 L 716.3437 500.68745 L 716.87495 501.0312 L 717.7812 502.8437 L 717.8749 503.56245 L 718.78115 503.93745 L 719.3124 504.37495 L 718.3124 504.37495 L 718.15615 505.2812 L 719.03115 505.2812 L 718.93745 505.62495 L 719.8437 505.71865 L 718.87495 506.09365 L 718.68745 506.34365 L 719.0312 506.6249 L 718.1562 506.1249 L 718.4062 506.9999 L 719.31245 507.15615 L 719.6562 508.0624 L 719.4062 508.78115 L 721.18745 509.78115 L 721.4687 509.68745 L 722.37495 510.31245 L 722.99995 510.21875 L 722.0937 510.59375 L 722.1874 511.21875 L 723.09365 511.75 L 725.8749 513 L 725.7812 513.1875 L 726.4062 513.5625 L 727.06245 514.46875 L 728.12495 514.90625 L 729.37495 515.8125 L 729.56245 515.8125 L 729.37495 516.15625 L 730.18745 516.625 L 731.4687 516.96875 L 732.81245 518.0625 L 733.0937 518.5 L 735.06245 520.21875 L 735.7812 521.03125 L 737.56245 522.375 L 737.59365 522.375 L 743.6874 525.25 L 744.59365 525.3437 L 744.68735 525.3437 L 745.49985 524.9687 L 746.12485 524.5312 L 752.3436 522.18745 L 754.12485 521.93745 L 756.2811 521.74995 L 755.31235 521.37495 L 754.4061 521.6562 L 755.0311 521.2812 L 756.2811 521.2812 L 756.2811 521.6562 L 757.2811 521.6562 L 760.87485 521.2187 L 760.62485 521.0312 L 761.1561 521.0312 L 761.0624 520.8437 L 761.96865 521.0312 L 761.96865 521.2187 L 761.15615 521.125 L 762.0624 521.46875 L 762.21865 521.28125 L 763.03115 521.65625 L 763.9374 521.74995 L 764.40615 520.8437 L 764.65615 520.6562 L 764.84365 521.56245 L 765.9374 521.8437 L 765.1249 521.9374 L 768.71865 522.7499 L 769.78115 523.53115 L 771.6874 522.5624 L 771.9374 522.28115 L 774.9374 521.3749 L 775.8124 521.2812 L 777.8124 520.0312 L 779.40615 519.49995 L 780.3124 518.9687 L 782.21865 518.7812 L 782.40615 518.4062 L 781.75 517.5 L 780.9375 517.5 L 780.40625 517.25 L 781.84375 517.4375 L 782.3125 517.78125 L 782.65625 518.6875 L 783.5625 518.7812 L 784.28125 517.7812 L 785 517.25 L 785.90625 516.875 L 787.0625 516.625 L 786.9688 516.5313 L 787.7813 516.3438 L 787.6876 515.9063 L 787.15635 515.00005 L 786.8126 514.37505 L 786.8126 513.4688 L 786.625 513 L 787.0625 513 C 787.1585 509.7663 787.0316 506.5513 786.90625 503.3125 L 786.15625 502.40625 L 786.09375 502.31255 L 785.90625 501.68755 L 785.81255 501.4063 L 785.81255 500.5938 L 785.71885 499.43755 L 785.71885 498.9688 C 784.74975 498.42 783.9626 497.99005 783.1251 497.18755 L 783.1876 495.6563 L 783.5626 494.75005 L 783.7501 494.31255 L 783.90635 494.37505 L 783.90635 494.12505 L 784.8126 493.56255 L 784.8126 493.4063 L 785.71885 492.93755 L 785.81255 492.50005 L 786.0938 492.2188 L 786.9688 492.50005 L 788.06255 492.2188 L 788.25005 492.3125 L 788.7813 492.3125 L 789.12505 492.0625 L 790.2188 491.15625 L 790.5938 490.15625 L 790.2188 489.625 L 790.0313 489.34375 L 789.31255 488.34375 L 789.93755 487.46875 L 789.4063 486.375 L 788.9688 486.2813 L 787.9688 486.75005 L 786.81255 486.65635 L 785.62505 485.65635 L 784.6563 484.84385 L 784.0938 484.75015 L 784.0001 484.50015 L 784.0001 483.5939 L 784.65635 483.4064 L 784.90635 483.4064 L 785.4376 483.2189 L 784.71885 482.9689 L 783.84385 482.1564 L 782.3126 481.43765 L 782.3126 481.25015 L 781.65635 480.43765 L 781.1251 479.5314 L 781.0314 478.62515 L 780.50015 478.18765 L 780.40645 477.18765 L 780.31275 476.2189 L 780.594 476.0314 L 780.594 475.8439 L 780.5 475.5 L 781.84375 475.5 L 782.75 475.75 L 782.9375 475.6563 L 784.09375 475.50005 L 785.53125 474.12505 L 788.96875 473.9688 L 791.84375 473.7813 L 792.75 473.875 L 793.46875 473.40625 L 794.8125 473.59375 L 795.34375 473.68745 L 795.625 473.78115 L 796.34375 472.8749 L 797.25 472.34365 L 797.40625 472.15615 L 798.0625 470.71865 L 797.9688 470.53115 L 798.2188 469.6249 L 798.93755 468.7499 C 799.26005 464.4124 799.07505 460.0349 799.12505 455.6874 L 797.06255 456.0624 L 794.9063 456.4999 L 793.9063 455.59365 L 794.62505 454.53115 L 794.37505 453.6249 L 794.18755 452.3749 L 793.18755 451.8124 L 792.0313 451.5624 L 791.12505 451.4687 L 789.87505 450.2812 L 788.9688 450.4687 L 787.7813 450.12495 L 787.1563 449.2187 L 786.43755 448.5937 L 785.43755 447.93745 L 785.00005 447.06245 L 785.00005 446.68745 L 784.90635 446.24995 L 779.40635 442.7187 C 771.00535 436.3871 762.1001 430.3937 753.2501 424.6562 L 753.2501 424.5625 L 740.28135 416.46875 L 739.28135 415.8125 L 739.28135 408.71875 C 740.90425 407.57245 742.62515 406.56625 744.15635 405.28125 L 745.0626 405.21875 L 745.5001 404.84375 L 746.40635 404.125 L 747.84385 404.2187 L 748.7501 404.4062 L 749.46885 403.49995 L 749.46885 403.06245 L 749.6251 403.12495 L 750.53135 403.21865 L 751.4376 403.0624 L 753.5001 402.6874 L 754.6876 402.2499 L 755.5626 401.2499 L 756.28135 400.0624 L 757.1876 399.4374 L 758.46885 398.9999 L 758.90635 398.9999 L 759.90635 398.46865 L 760.15635 398.28115 L 761.0626 397.5624 L 762.5001 397.28115 L 762.4064 396.3749 L 761.87515 395.9374 L 762.1564 395.03115 L 761.68765 394.0624 L 761.68765 393.6874 L 763.50015 393.4999 L 764.4064 393.2499 L 765.2189 392.96865 L 765.6564 392.78115 L 765.8439 391.8749 L 767.5314 391.34365 L 768.43765 391.15615 L 770.5939 391.34365 L 773.0314 391.43735 L 773.8439 391.53105 L 773.9376 391.43735 L 773.5626 391.1561 L 773.4689 391.1561 L 773.6564 390.81235 L 774.18765 388.99985 L 773.4689 388.37485 L 772.50015 387.4686 L 772.59385 386.5936 L 771.9376 385.7811 L 771.78135 384.7811 L 772.03135 383.87485 L 771.78135 383.3436 L 771.40635 383.1561 L 771.78135 381.0936 L 771.5001 380.18735 L 771.6876 379.12485 L 771.15635 378.2186 L 771.06265 377.5936 L 770.96895 377.4999 L 769.53145 376.40615 L 769.53145 376.31245 L 769.25 375.9687 L 768.625 375.7812 L 767.719 375.9687 L 766.813 375.7812 L 765.938 374.9687 L 765.844 374.68745 L 763.938 375.4062 L 762.156 374.9687 L 761.875 375.3437 L 760.875 375.1562 L 759.094 375.5937 L 757.656 375.3437 L 756.656 374.7812 L 755.031 373.1562 L 754.688 372.18745 L 754.75 371.7187 L 754.5 371.56245 Z"/>
    <path id="path42444" fill="#8cce55" stroke="#0f380f" stroke-opacity="0.14509804" stroke-linecap="round" stroke-linejoin="round" transform="matrix(1 0 0 1 0.5 1.2670726)" d="M 700.875 385.90625 C 699.6325 385.90625 698.625 386.91375 698.625 388.15625 C 698.625 389.39875 699.6325 390.40625 700.875 390.40625 C 702.1175 390.40625 703.125 389.39875 703.125 388.15625 C 703.125 386.91375 702.1175 385.90625 700.875 385.90625 Z"/>
    <path id="path42442" fill="#8cce55" stroke="#0f380f" stroke-opacity="0.14509804" stroke-linecap="round" stroke-linejoin="round" transform="matrix(1 0 0 1 0.5 1.2670726)" d="M 716.0625 404.78125 C 714.82 404.78125 713.8125 405.78875 713.8125 407.03125 C 713.8125 407.45695 713.91954 407.848 714.125 408.1875 C 712.954 408.2665 712.03125 409.2465 712.03125 410.4375 C 712.03125 411.68 713.03875 412.6875 714.28125 412.6875 C 715.52375 412.6875 716.53125 411.68 716.53125 410.4375 C 716.53125 410.0062 716.36677 409.62355 716.15625 409.28125 C 717.3536 409.23025 718.3125 408.24105 718.3125 407.03125 C 718.3125 405.78875 717.305 404.78125 716.0625 404.78125 Z"/>
    <path id="path42440" fill="#8cce55" stroke="#0f380f" stroke-opacity="0.14509804" stroke-linecap="round" stroke-linejoin="round" transform="matrix(1 0 0 1 0.5 1.2670726)" d="M 696.8125 406.6875 C 695.57 406.6875 694.5625 407.695 694.5625 408.9375 C 694.5625 410.1812 695.57 411.1875 696.8125 411.1875 C 697.16336 411.1875 697.48526 411.1116 697.78125 410.96875 C 697.68245 411.16665 697.63062 411.36805 697.59375 411.59375 C 697.29152 411.44315 696.95427 411.34375 696.59375 411.34375 C 695.3525 411.34375 694.34375 412.35125 694.34375 413.59375 C 694.34375 414.83755 695.3525 415.84375 696.59375 415.84375 C 697.71146 415.84375 698.606 415.03765 698.78125 413.96875 C 699.08872 414.12625 699.44317 414.21875 699.8125 414.21875 C 700.60435 414.21875 701.28687 413.8059 701.6875 413.1875 C 701.95668 413.3012 702.25188 413.34375 702.5625 413.34375 C 703.805 413.34375 704.8125 412.33755 704.8125 411.09375 C 704.8125 409.85125 703.805 408.84375 702.5625 408.84375 C 701.76099 408.84375 701.05482 409.27545 700.65625 409.90625 C 700.39408 409.79915 700.11329 409.71875 699.8125 409.71875 C 699.44317 409.71875 699.08872 409.81075 698.78125 409.96875 C 698.94105 409.65965 699.0625 409.3097 699.0625 408.9375 C 699.0625 407.695 698.055 406.6875 696.8125 406.6875 Z"/>
    <path id="path42438" fill="#8cce55" stroke="#0f380f" stroke-opacity="0.14509804" stroke-linecap="round" stroke-linejoin="round" transform="matrix(1 0 0 1 0.5 1.2670726)" d="M 707 410.40625 C 705.7575 410.40625 704.75 411.41375 704.75 412.65625 C 704.75 413.89995 705.7575 414.90625 707 414.90625 C 708.2425 414.90625 709.25 413.89995 709.25 412.65625 C 709.25 411.41375 708.2425 410.40625 707 410.40625 Z"/>
    <path id="path42436" fill="#8cce55" stroke="#0f380f" stroke-opacity="0.14509804" stroke-linecap="round" stroke-linejoin="round" transform="matrix(1 0 0 1 0.5 1.2670726)" d="M 708.15625 485.75 L 707.625 486.65625 L 707.25 486.74995 L 707.25 486.84365 L 707.0625 486.84365 L 706.71875 486.90615 L 704.6875 486.87495 L 704 486.84375 L 704.6875 486.6875 L 704.90625 486.6563 L 705.1875 486.18755 L 705.375 486.56255 L 707.0625 486.8438 L 707.25 486.7501 L 707.4375 485.9376 L 708.15625 485.7501 L 708.15625 485.75 Z"/>
    <path id="path42434" fill="#8cce55" stroke="#0f380f" stroke-opacity="0.14509804" stroke-linecap="round" stroke-linejoin="round" transform="matrix(1 0 0 1 0.5 1.2670726)" d="M 796.6875 514.8125 L 795.15625 515.53125 L 795.8125 515.53125 L 796.6875 514.8125 Z"/>
    <path id="path42432" fill="#8cce55" stroke="#0f380f" stroke-opacity="0.14509804" stroke-linecap="round" stroke-linejoin="round" transform="matrix(1 0 0 1 0.5 1.2670726)" d="M 810.46875 542.21875 C 809.22605 542.21875 808.21875 543.22625 808.21875 544.46875 C 808.21875 545.71125 809.22605 546.71875 810.46875 546.71875 C 811.71235 546.71875 812.71875 545.71125 812.71875 544.46875 C 812.71875 543.22625 811.71235 542.21875 810.46875 542.21875 Z"/>
    <path id="path42430" fill="#8cce55" stroke="#0f380f" stroke-opacity="0.14509804" stroke-linecap="round" stroke-linejoin="round" transform="matrix(1 0 0 1 0.5 1.2670726)" d="M 712.875 580.4375 C 711.6325 580.4375 710.625 581.445 710.625 582.6875 C 710.625 583.93 711.6325 584.9375 712.875 584.9375 C 714.1175 584.9375 715.125 583.93 715.125 582.6875 C 715.125 581.445 714.1175 580.4375 712.875 580.4375 Z"/>
    <path id="path42428" fill="#8cce55" stroke="#0f380f" stroke-opacity="0.14509804" stroke-linecap="round" stroke-linejoin="round" transform="matrix(1 0 0 1 0.5 1.2670726)" d="M 751.9375 618.34375 C 750.6949 618.34375 749.6875 619.35125 749.6875 620.59375 C 749.6875 621.83625 750.6949 622.84375 751.9375 622.84375 C 753.1799 622.84375 754.1875 621.83625 754.1875 620.59375 C 754.1875 619.35125 753.1799 618.34375 751.9375 618.34375 Z"/>
    <path id="path42426" fill="#8cce55" stroke="#0f380f" stroke-opacity="0.14509804" stroke-linecap="round" stroke-linejoin="round" transform="matrix(1 0 0 1 0.5 1.2670726)" d="M 722.25 723.65625 C 721.0074 723.65625 720 724.66375 720 725.90625 C 720 727.14895 721.0074 728.15625 722.25 728.15625 C 723.4924 728.15625 724.5 727.14895 724.5 725.90625 C 724.5 724.66375 723.4924 723.65625 722.25 723.65625 Z"/>
    <path id="path4575" fill="#8cce55" stroke="#0f380f" stroke-opacity="0.14509804" stroke-linecap="round" stroke-linejoin="round" transform="matrix(1 0 0 1 0.5 1.2670726)" d="M 735.0625 740.84375 C 733.8199 740.84375 732.8125 741.85105 732.8125 743.09375 C 732.8125 744.33625 733.8199 745.34375 735.0625 745.34375 C 736.3049 745.34375 737.3125 744.33625 737.3125 743.09375 C 737.3125 741.85105 736.3049 740.84375 735.0625 740.84375 Z"/>
</svg>
