<svg width="1671.094" height="856.39252" viewBox="0 0 1671.094 856.39252" xmlns="http://www.w3.org/2000/svg" xmlns:usvg="https://github.com/RazrFalcon/usvg" usvg:version="0.8.0">
    <defs/>
    <path id="path41422" fill="#3e73c5" fill-opacity="0.42745098" stroke="#000000" stroke-opacity="0.24705882" stroke-linecap="round" stroke-linejoin="round" transform="matrix(1 0 0 1 0.5 1.2670726)" d="M 1670.094 572.79182 L 1662.974 572.79182 L 1658.733 583.50782 L 1655.83 589.31182 L 1654.044 597.12582 L 1655.607 610.74382 L 1654.491 613.42282 L 1648.5 615.74982 L 1648.5 668.87582 L 1612.812 668.87582 L 1625.125 642.10482 L 1625.125 615.74982 L 1638.555 615.74982 L 1638.555 603.27882 L 1621.537 581.06682 L 1621.537 557.35282 L 1670.094 557.38782 Z"/>
    <path id="path41765" fill="#3e73c5" fill-opacity="0.42857145" stroke="#000000" stroke-opacity="0.24675323" stroke-linecap="round" stroke-linejoin="round" transform="matrix(1 0 0 1 0.5 1.2670726)" d="M 43.604 557.06782 L 43.604 572.62382 L 0 572.62382 L 0 557.06782 Z"/>
    <path id="path42033-8" fill="#8cce55" stroke="#0f380f" stroke-opacity="0.14509804" stroke-linecap="round" stroke-linejoin="round" transform="matrix(1 0 0 1 0.5 1.2670726)" d="M 1648.9731 583.74788 C 1647.7357 583.74788 1646.7231 584.75658 1646.7231 585.99788 C 1646.7231 587.24038 1647.7357 588.24788 1648.9731 588.24788 C 1650.2105 588.24788 1651.2231 587.24038 1651.2231 585.99788 C 1651.2231 584.75658 1650.2105 583.74788 1648.9731 583.74788 Z"/>
    <path id="path42033-88" fill="#8cce55" stroke="#0f380f" stroke-opacity="0.14509804" stroke-linecap="round" stroke-linejoin="round" transform="matrix(1 0 0 1 0.5 1.2670726)" d="M 1651.0944 563.94889 C 1649.857 563.94889 1648.8444 564.95759 1648.8444 566.19889 C 1648.8444 567.44139 1649.857 568.44889 1651.0944 568.44889 C 1652.3318 568.44889 1653.3444 567.44139 1653.3444 566.19889 C 1653.3444 564.95759 1652.3318 563.94889 1651.0944 563.94889 Z"/>
    <path id="path42033-61" fill="#8cce55" stroke="#0f380f" stroke-opacity="0.14509804" stroke-linecap="round" stroke-linejoin="round" transform="matrix(1 0 0 1 0.5 1.2670726)" d="M 1656.3977 564.30245 C 1655.1603 564.30245 1654.1477 565.31115 1654.1477 566.55245 C 1654.1477 567.79495 1655.1603 568.80245 1656.3977 568.80245 C 1657.6351 568.80245 1658.6477 567.79495 1658.6477 566.55245 C 1658.6477 565.31115 1657.6351 564.30245 1656.3977 564.30245 Z"/>
    <path id="path42033-97" fill="#8cce55" stroke="#0f380f" stroke-opacity="0.14509804" stroke-linecap="round" stroke-linejoin="round" transform="matrix(1 0 0 1 0.5 1.2670726)" d="M 1656.3977 561.12047 C 1655.1603 561.12047 1654.1477 562.12917 1654.1477 563.37047 C 1654.1477 564.61297 1655.1603 565.62047 1656.3977 565.62047 C 1657.6351 565.62047 1658.6477 564.61297 1658.6477 563.37047 C 1658.6477 562.12917 1657.6351 561.12047 1656.3977 561.12047 Z"/>
    <path id="path42033-96" fill="#8cce55" stroke="#0f380f" stroke-opacity="0.14509804" stroke-linecap="round" stroke-linejoin="round" transform="matrix(1 0 0 1 0.5 1.2670726)" d="M 1639.4272 565.71666 C 1638.1898 565.71666 1637.1772 566.72536 1637.1772 567.96666 C 1637.1772 569.20916 1638.1898 570.21666 1639.4272 570.21666 C 1640.6646 570.21666 1641.6772 569.20916 1641.6772 567.96666 C 1641.6772 566.72536 1640.6646 565.71666 1639.4272 565.71666 Z"/>
    <path id="path42033-4" fill="#8cce55" stroke="#0f380f" stroke-opacity="0.14509804" stroke-linecap="round" stroke-linejoin="round" transform="matrix(1 0 0 1 0.5 1.2670726)" d="M 1642.9627 558.64559 C 1641.7253 558.64559 1640.7127 559.65429 1640.7127 560.89559 C 1640.7127 562.13809 1641.7253 563.14559 1642.9627 563.14559 C 1644.2001 563.14559 1645.2127 562.13809 1645.2127 560.89559 C 1645.2127 559.65429 1644.2001 558.64559 1642.9627 558.64559 Z"/>
    <path id="path42033-889" fill="#8cce55" stroke="#0f380f" stroke-opacity="0.14509804" stroke-linecap="round" stroke-linejoin="round" transform="matrix(1 0 0 1 0.5 1.2670726)" d="M 1654.63 557.58493 C 1653.3926 557.58493 1652.38 558.59363 1652.38 559.83493 C 1652.38 561.07743 1653.3926 562.08493 1654.63 562.08493 C 1655.8674 562.08493 1656.88 561.07743 1656.88 559.83493 C 1656.88 558.59363 1655.8674 557.58493 1654.63 557.58493 Z"/>
    <path id="path42033-93" fill="#8cce55" stroke="#0f380f" stroke-opacity="0.14509804" stroke-linecap="round" stroke-linejoin="round" transform="matrix(1 0 0 1 0.5 1.2670726)" d="M 1653.2158 561.12047 C 1651.9784 561.12047 1650.9658 562.12917 1650.9658 563.37047 C 1650.9658 564.61297 1651.9784 565.62047 1653.2158 565.62047 C 1654.4532 565.62047 1655.4658 564.61297 1655.4658 563.37047 C 1655.4658 562.12917 1654.4532 561.12047 1653.2158 561.12047 Z"/>
    <path id="path42033-52" fill="#8cce55" stroke="#0f380f" stroke-opacity="0.14509804" stroke-linecap="round" stroke-linejoin="round" transform="matrix(1 0 0 1 0.5 1.2670726)" d="M 1650.7409 557.58493 C 1649.5035 557.58493 1648.4909 558.59363 1648.4909 559.83493 C 1648.4909 561.07743 1649.5035 562.08493 1650.7409 562.08493 C 1651.9783 562.08493 1652.9909 561.07743 1652.9909 559.83493 C 1652.9909 558.59363 1651.9783 557.58493 1650.7409 557.58493 Z"/>
    <path id="path42033-30" fill="#8cce55" stroke="#0f380f" stroke-opacity="0.14509804" stroke-linecap="round" stroke-linejoin="round" transform="matrix(1 0 0 1 0.5 1.2670726)" d="M 1642.9627 617.68901 C 1641.7253 617.68901 1640.7127 618.69771 1640.7127 619.93901 C 1640.7127 621.18151 1641.7253 622.18901 1642.9627 622.18901 C 1644.2001 622.18901 1645.2127 621.18151 1645.2127 619.93901 C 1645.2127 618.69771 1644.2001 617.68901 1642.9627 617.68901 Z"/>
    <path id="path42033-33" fill="#8cce55" stroke="#0f380f" stroke-opacity="0.14509804" stroke-linecap="round" stroke-linejoin="round" transform="matrix(1 0 0 1 0.5 1.2670726)" d="M 1633.7703 615.21414 C 1632.5329 615.21414 1631.5203 616.22284 1631.5203 617.46414 C 1631.5203 618.70664 1632.5329 619.71414 1633.7703 619.71414 C 1635.0077 619.71414 1636.0203 618.70664 1636.0203 617.46414 C 1636.0203 616.22284 1635.0077 615.21414 1633.7703 615.21414 Z"/>
    <path id="path42033-41" fill="#8cce55" stroke="#0f380f" stroke-opacity="0.14509804" stroke-linecap="round" stroke-linejoin="round" transform="matrix(1 0 0 1 0.5 1.2670726)" d="M 1641.1949 628.64917 C 1639.9575 628.64917 1638.9449 629.65787 1638.9449 630.89917 C 1638.9449 632.14167 1639.9575 633.14917 1641.1949 633.14917 C 1642.4323 633.14917 1643.4449 632.14167 1643.4449 630.89917 C 1643.4449 629.65787 1642.4323 628.64917 1641.1949 628.64917 Z"/>
    <path id="path42033-67" fill="#8cce55" stroke="#0f380f" stroke-opacity="0.14509804" stroke-linecap="round" stroke-linejoin="round" transform="matrix(1 0 0 1 0.5 1.2670726)" d="M 1641.5485 631.83115 C 1640.3111 631.83115 1639.2985 632.83985 1639.2985 634.08115 C 1639.2985 635.32365 1640.3111 636.33115 1641.5485 636.33115 C 1642.7859 636.33115 1643.7985 635.32365 1643.7985 634.08115 C 1643.7985 632.83985 1642.7859 631.83115 1641.5485 631.83115 Z"/>
    <path id="path42033-0" fill="#8cce55" stroke="#0f380f" stroke-opacity="0.14509804" stroke-linecap="round" stroke-linejoin="round" transform="matrix(1 0 0 1 0.5 1.2670726)" d="M 1638.013 631.12404 C 1636.7756 631.12404 1635.763 632.13274 1635.763 633.37404 C 1635.763 634.61654 1636.7756 635.62404 1638.013 635.62404 C 1639.2504 635.62404 1640.263 634.61654 1640.263 633.37404 C 1640.263 632.13274 1639.2504 631.12404 1638.013 631.12404 Z"/>
    <path id="path42033-73" fill="#8cce55" stroke="#0f380f" stroke-opacity="0.14509804" stroke-linecap="round" stroke-linejoin="round" transform="matrix(1 0 0 1 0.5 1.2670726)" d="M 1640.1343 636.42734 C 1638.8969 636.42734 1637.8843 637.43604 1637.8843 638.67734 C 1637.8843 639.91984 1638.8969 640.92734 1640.1343 640.92734 C 1641.3717 640.92734 1642.3843 639.91984 1642.3843 638.67734 C 1642.3843 637.43604 1641.3717 636.42734 1640.1343 636.42734 Z"/>
    <path id="path42033-53" fill="#8cce55" stroke="#0f380f" stroke-opacity="0.14509804" stroke-linecap="round" stroke-linejoin="round" transform="matrix(1 0 0 1 0.5 1.2670726)" d="M 1636.5987 637.488 C 1635.3613 637.488 1634.3487 638.4967 1634.3487 639.738 C 1634.3487 640.9805 1635.3613 641.988 1636.5987 641.988 C 1637.8361 641.988 1638.8487 640.9805 1638.8487 639.738 C 1638.8487 638.4967 1637.8361 637.488 1636.5987 637.488 Z"/>
    <path id="path42033-2" fill="#8cce55" stroke="#0f380f" stroke-opacity="0.14509804" stroke-linecap="round" stroke-linejoin="round" transform="matrix(1 0 0 1 0.5 1.2670726)" d="M 1635.1845 639.96288 C 1633.9471 639.96288 1632.9345 640.97158 1632.9345 642.21288 C 1632.9345 643.45538 1633.9471 644.46288 1635.1845 644.46288 C 1636.4219 644.46288 1637.4345 643.45538 1637.4345 642.21288 C 1637.4345 640.97158 1636.4219 639.96288 1635.1845 639.96288 Z"/>
    <path id="path42033-531" fill="#8cce55" stroke="#0f380f" stroke-opacity="0.14509804" stroke-linecap="round" stroke-linejoin="round" transform="matrix(1 0 0 1 0.5 1.2670726)" d="M 1637.6594 644.55907 C 1636.422 644.55907 1635.4094 645.56777 1635.4094 646.80907 C 1635.4094 648.05157 1636.422 649.05907 1637.6594 649.05907 C 1638.8968 649.05907 1639.9094 648.05157 1639.9094 646.80907 C 1639.9094 645.56777 1638.8968 644.55907 1637.6594 644.55907 Z"/>
    <path id="path42033-1" fill="#8cce55" stroke="#0f380f" stroke-opacity="0.14509804" stroke-linecap="round" stroke-linejoin="round" transform="matrix(1 0 0 1 0.5 1.2670726)" d="M 1630.2348 649.86237 C 1628.9974 649.86237 1627.9848 650.87107 1627.9848 652.11237 C 1627.9848 653.35487 1628.9974 654.36237 1630.2348 654.36237 C 1631.4722 654.36237 1632.4848 653.35487 1632.4848 652.11237 C 1632.4848 650.87107 1631.4722 649.86237 1630.2348 649.86237 Z"/>
    <path id="path42033-40" fill="#8cce55" stroke="#0f380f" stroke-opacity="0.14509804" stroke-linecap="round" stroke-linejoin="round" transform="matrix(1 0 0 1 0.5 1.2670726)" d="M 1618.9211 656.57989 C 1617.6837 656.57989 1616.6711 657.58859 1616.6711 658.82989 C 1616.6711 660.07239 1617.6837 661.07989 1618.9211 661.07989 C 1620.1585 661.07989 1621.1711 660.07239 1621.1711 658.82989 C 1621.1711 657.58859 1620.1585 656.57989 1618.9211 656.57989 Z"/>
    <path id="path43386" fill="#8cce55" stroke="#0f380f" stroke-opacity="0.14509804" stroke-linecap="round" stroke-linejoin="round" transform="matrix(1 0 0 1 0.5 1.2670726)" d="M 23.71875 155.125 L 23.34375 155.1875 L 23.21875 155.96875 L 23.53125 156.375 L 23.375 155.46875 Z"/>
    <path id="path43384" fill="#8cce55" stroke="#0f380f" stroke-opacity="0.14509804" stroke-linecap="round" stroke-linejoin="round" transform="matrix(1 0 0 1 0.5 1.2670726)" d="M 7.96875 165.03125 L 6.625 165.46875 L 7.0625 165.46875 Z"/>
    <path id="path43382" fill="#8cce55" stroke="#0f380f" stroke-opacity="0.14509804" stroke-linecap="round" stroke-linejoin="round" transform="matrix(1 0 0 1 0.5 1.2670726)" d="M 28.96875 175.90625 C 28.73444 175.92275 28.525955 175.95155 28.3125 175.96875 C 28.516742 175.95055 28.740075 175.92235 28.96875 175.90625 Z"/>
    <path id="path43380" fill="#8cce55" stroke="#0f380f" stroke-opacity="0.14509804" stroke-linecap="round" stroke-linejoin="round" transform="matrix(1 0 0 1 0.5 1.2670726)" d="M 28.3125 175.96875 C 28.205773 175.97775 28.107471 175.97935 28 175.96875 C 28.103955 175.97775 28.209513 175.97775 28.3125 175.96875 Z"/>
    <path id="path43378" fill="#8cce55" stroke="#0f380f" stroke-opacity="0.14509804" stroke-linecap="round" stroke-linejoin="round" transform="matrix(1 0 0 1 0.5 1.2670726)" d="M 9.40625 225.03125 L 7.625 225.12495 L 8.5 225.12495 Z"/>
    <path id="path43376" fill="#8cce55" stroke="#0f380f" stroke-opacity="0.14509804" stroke-linecap="round" stroke-linejoin="round" transform="matrix(1 0 0 1 0.5 1.2670726)" d="M 11.28125 225.5 L 11.375 226.375 L 11.5625 227.03125 L 11.40625 226.40625 L 11.3125 225.5 Z"/>
    <path id="path43374" fill="#8cce55" stroke="#0f380f" stroke-opacity="0.14509804" stroke-linecap="round" stroke-linejoin="round" transform="matrix(1 0 0 1 0.5 1.2670726)" d="M 4.8125 227.65625 L 7.15625 228.65625 L 9.0625 228.74995 L 9.6875 228.65625 L 9.03125 228.71875 L 8.0625 228.62505 L 7.15625 228.62505 L 6.25 228.18755 L 5.4375 227.6563 L 5.25 227.6563 L 4.8125 227.6563 Z"/>
    <path id="path43372" fill="#8cce55" stroke="#0f380f" stroke-opacity="0.14509804" stroke-linecap="round" stroke-linejoin="round" transform="matrix(1 0 0 1 0.5 1.2670726)" d="M 34.59375 235.84375 L 34.5 235.90625 L 34.0625 236.78125 L 33.21875 237.53125 L 33.25 237.56245 L 34.15625 236.74995 L 34.59375 235.8437 Z"/>
    <path id="path43370" fill="#8cce55" stroke="#0f380f" stroke-opacity="0.14509804" stroke-linecap="round" stroke-linejoin="round" transform="matrix(1 0 0 1 0.5 1.2670726)" d="M 1661.0938 250.59375 L 1662 251.0625 L 1662 250.59375 Z"/>
    <path id="path43368" fill="#8cce55" stroke="#0f380f" stroke-opacity="0.14509804" stroke-linecap="round" stroke-linejoin="round" transform="matrix(1 0 0 1 0.5 1.2670726)" d="M 34.6875 258.43751 L 34.59375 258.50001 L 35.3125 259.46876 L 35.40625 259.43756 L 34.6875 258.43756 Z"/>
    <path id="path43366" fill="#8cce55" stroke="#0f380f" stroke-opacity="0.14509804" stroke-linecap="round" stroke-linejoin="round" transform="matrix(1 0 0 1 0.5 1.2670726)" d="M 40 259.50001 L 40 259.56251 L 40.09375 259.56251 L 40.0625 260.03126 L 40.09375 260.50001 L 40.1875 259.50001 Z"/>
    <path id="path43364" fill="#8cce55" stroke="#0f380f" stroke-opacity="0.14509804" stroke-linecap="round" stroke-linejoin="round" transform="matrix(1 0 0 1 0.5 1.2670726)" d="M 37.9375 259.87501 L 37.125 260.68751 L 37.03125 261.59376 L 37.9375 260.68751 Z"/>
    <path id="path43362" fill="#8cce55" stroke="#0f380f" stroke-opacity="0.14509804" stroke-linecap="round" stroke-linejoin="round" transform="matrix(1 0 0 1 0.5 1.2670726)" d="M 20.5625 260.68751 L 20.46875 260.71871 L 21.375 260.81241 L 22 261.81241 L 22.53125 262.71866 L 23.125 263.06241 L 23.53125 263.18741 L 22.65625 262.65616 L 21.46875 260.78116 L 20.5625 260.68746 Z"/>
    <path id="path43360" fill="#8cce55" stroke="#0f380f" stroke-opacity="0.14509804" stroke-linecap="round" stroke-linejoin="round" transform="matrix(1 0 0 1 0.5 1.2670726)" d="M 16.875 261.75001 L 16.84375 261.81251 L 17.75 261.81251 L 17.875 261.75001 Z"/>
    <path id="path43358" fill="#8cce55" stroke="#0f380f" stroke-opacity="0.14509804" stroke-linecap="round" stroke-linejoin="round" transform="matrix(1 0 0 1 0.5 1.2670726)" d="M 15.5 263.46876 L 15.25 263.56246 L 15.25 263.59366 L 15.4375 263.53116 L 15.5 263.46866 Z"/>
    <path id="path43356" fill="#8cce55" stroke="#0f380f" stroke-opacity="0.14509804" stroke-linecap="round" stroke-linejoin="round" transform="matrix(1 0 0 1 0.5 1.2670726)" d="M 18.625 263.65626 L 17.9375 263.96876 L 17.09375 264.81251 L 17.15625 264.81251 L 18.0625 263.93751 Z"/>
    <path id="path43354" fill="#8cce55" stroke="#0f380f" stroke-opacity="0.14509804" stroke-linecap="round" stroke-linejoin="round" transform="matrix(1 0 0 1 0.5 1.2670726)" d="M 25.15625 264.37501 L 25.15625 264.46871 L 25.875 264.74996 L 26.0625 264.71876 Z"/>
    <path id="path43352" fill="#8cce55" stroke="#0f380f" stroke-opacity="0.14509804" stroke-linecap="round" stroke-linejoin="round" transform="matrix(1 0 0 1 0.5 1.2670726)" d="M 11.65625 265.81251 L 11.71875 265.93751 L 12.46875 266.21876 L 12.09375 266.71876 L 12.125 266.81246 L 12.5625 266.18746 L 11.65625 265.81246 Z"/>
    <path id="path43350" fill="#8cce55" stroke="#0f380f" stroke-opacity="0.14509804" stroke-linecap="round" stroke-linejoin="round" transform="matrix(1 0 0 1 0.5 1.2670726)" d="M 10.59375 266.09376 L 10.53125 266.15626 L 11.375 266.75001 L 10.59375 267.25001 L 11.46875 266.71876 Z"/>
    <path id="path43348" fill="#8cce55" stroke="#0f380f" stroke-opacity="0.14509804" stroke-linecap="round" stroke-linejoin="round" transform="matrix(1 0 0 1 0.5 1.2670726)" d="M 6.8125 267.53126 L 5.90625 267.62496 L 5.84375 267.65616 L 6.6875 267.56246 L 7.21875 268.46871 L 7.3125 268.37501 Z"/>
    <path id="path43346" fill="#8cce55" stroke="#0f380f" stroke-opacity="0.14509804" stroke-linecap="round" stroke-linejoin="round" transform="matrix(1 0 0 1 0.5 1.2670726)" d="M 8.25 267.62496 L 8.125 267.71866 L 8.21875 268.56241 L 7.40625 269.46866 L 7.53125 269.40616 L 7.53125 269.37496 L 8.34375 268.50001 L 8.25 267.62501 Z"/>
    <path id="path43344" fill="#8cce55" stroke="#0f380f" stroke-opacity="0.14509804" stroke-linecap="round" stroke-linejoin="round" transform="matrix(1 0 0 1 0.5 1.2670726)" d="M 8.5 268.87496 L 8.40625 268.90616 L 8.375 268.93736 L 7.875 269.81236 L 7.96875 269.78116 L 8.5 268.87501 Z"/>
    <path id="path43342" fill="#8cce55" stroke="#0f380f" stroke-opacity="0.14509804" stroke-linecap="round" stroke-linejoin="round" transform="matrix(1 0 0 1 0.5 1.2670726)" d="M 5.28125 269.68746 L 5.28125 269.71866 L 6.0625 269.71866 L 6.03125 269.68746 Z"/>
    <path id="path43340" fill="#8cce55" stroke="#0f380f" stroke-opacity="0.14509804" stroke-linecap="round" stroke-linejoin="round" transform="matrix(1 0 0 1 0.5 1.2670726)" d="M 1670.0938 270.03121 L 1669.6562 270.12491 L 1668.3125 270.40616 L 1667.4062 271.31241 L 1667.5002 272.18741 L 1666.594 272.12491 L 1665.594 272.84366 L 1665.344 273.71866 L 1664.6877 274.62491 L 1665.594 274.28116 L 1666.594 273.65616 L 1667.5 273.00001 L 1668.375 272.12501 L 1669.6562 271.56251 L 1670.0938 271.40626 L 1670.0938 270.03126 Z"/>
    <path id="path43338" fill="#8cce55" stroke="#0f380f" stroke-opacity="0.14509804" stroke-linecap="round" stroke-linejoin="round" transform="matrix(1 0 0 1 0.5 1.2670726)" d="M 7.03125 270.06241 L 6.96875 270.09361 L 6.53125 270.93736 L 6.625 270.93736 L 7.03125 270.06236 Z"/>
    <path id="path43336" fill="#8cce55" stroke="#0f380f" stroke-opacity="0.14509804" stroke-linecap="round" stroke-linejoin="round" transform="matrix(1 0 0 1 0.5 1.2670726)" d="M 4.09375 271.03126 L 3.125 271.31251 L 4 271.09376 Z"/>
    <path id="path43334" fill="#8cce55" stroke="#0f380f" stroke-opacity="0.14509804" stroke-linecap="round" stroke-linejoin="round" transform="matrix(1 0 0 1 0.5 1.2670726)" d="M 5.90625 271.03126 C 5.4792209 271.06376 5.1278281 271.10356 4.84375 271.18751 Z"/>
    <path id="path43332" fill="#8cce55" stroke="#0f380f" stroke-opacity="0.14509804" stroke-linecap="round" stroke-linejoin="round" transform="matrix(1 0 0 1 0.5 1.2670726)" d="M 4.46875 271.34376 C 4.114426 271.49153 3.8226158 271.65212 3.53125 271.81251 Z"/>
    <path id="path43330" fill="#8cce55" stroke="#0f380f" stroke-opacity="0.14509804" stroke-linecap="round" stroke-linejoin="round" transform="matrix(1 0 0 1 0.5 1.2670726)" d="M 3.15625 272.00001 C 3.0537974 272.04381 2.9626184 272.08901 2.84375 272.12501 L 2.9375 272.12501 Z"/>
    <path id="path43324" fill="#8cce55" stroke="#0f380f" stroke-opacity="0.14509804" stroke-linecap="round" stroke-linejoin="round" transform="matrix(1 0 0 1 0.5 1.2670726)" d="M 1653.1875 555.53126 C 1651.9501 555.53126 1650.9375 556.53876 1650.9375 557.78126 C 1650.9375 559.02376 1651.9501 560.03126 1653.1875 560.03126 C 1653.2095 560.03126 1653.2305 560.03186 1653.2495 560.03126 C 1652.8878 560.43076 1652.6557 560.94926 1652.6557 561.53126 C 1652.6557 562.77376 1653.6557 563.78126 1654.9057 563.78126 C 1656.1433 563.78126 1657.1557 562.77376 1657.1557 561.53126 C 1657.1557 560.28876 1656.1433 559.28126 1654.9057 559.28126 C 1654.8847 559.28126 1654.8637 559.28076 1654.8437 559.28126 C 1655.2033 558.88226 1655.4374 558.36136 1655.4374 557.78126 C 1655.4374 556.53876 1654.4374 555.53126 1653.1874 555.53126 Z"/>
    <path id="path43322" fill="#8cce55" stroke="#0f380f" stroke-opacity="0.14509804" stroke-linecap="round" stroke-linejoin="round" transform="matrix(1 0 0 1 0.5 1.2670726)" d="M 1641.875 558.71876 C 1640.6376 558.71876 1639.625 559.72626 1639.625 560.96876 C 1639.625 562.21126 1640.6376 563.21876 1641.875 563.21876 C 1643.125 563.21876 1644.125 562.21126 1644.125 560.96876 C 1644.125 559.72626 1643.125 558.71876 1641.875 558.71876 Z"/>
    <path id="path43320" fill="#8cce55" stroke="#0f380f" stroke-opacity="0.14509804" stroke-linecap="round" stroke-linejoin="round" transform="matrix(1 0 0 1 0.5 1.2670726)" d="M 1650.0625 558.96876 C 1648.8251 558.96876 1647.8125 559.97626 1647.8125 561.21876 C 1647.8125 562.46126 1648.8251 563.46876 1650.0625 563.46876 C 1651.3125 563.46876 1652.3125 562.46126 1652.3125 561.21876 C 1652.3125 559.97626 1651.3125 558.96876 1650.0625 558.96876 Z"/>
    <path id="path43316" fill="#8cce55" stroke="#0f380f" stroke-opacity="0.14509804" stroke-linecap="round" stroke-linejoin="round" transform="matrix(1 0 0 1 0.5 1.2670726)" d="M 1652.0312 564.18751 C 1650.7812 564.18751 1649.7812 565.19501 1649.7812 566.43751 C 1649.7812 567.68001 1650.7812 568.68751 1652.0312 568.68751 C 1653.2688 568.68751 1654.2812 567.68001 1654.2812 566.43751 C 1654.2812 565.19501 1653.2688 564.18751 1652.0312 564.18751 Z"/>
    <path id="path43314" fill="#8cce55" stroke="#0f380f" stroke-opacity="0.14509804" stroke-linecap="round" stroke-linejoin="round" transform="matrix(1 0 0 1 0.5 1.2670726)" d="M 1647.3438 564.34376 C 1646.0938 564.34376 1645.0938 565.35126 1645.0938 566.59376 C 1645.0938 567.83626 1646.0938 568.84376 1647.3438 568.84376 C 1648.581 568.84376 1649.5938 567.83626 1649.5938 566.59376 C 1649.5938 565.35126 1648.581 564.34376 1647.3438 564.34376 Z"/>
    <path id="path43312" fill="#8cce55" stroke="#0f380f" stroke-opacity="0.14509804" stroke-linecap="round" stroke-linejoin="round" transform="matrix(1 0 0 1 0.5 1.2670726)" d="M 1636.25 565.28126 C 1635.0126 565.28126 1634 566.28876 1634 567.53126 C 1634 568.77376 1635.0126 569.78126 1636.25 569.78126 C 1637.5 569.78126 1638.5 568.77376 1638.5 567.53126 C 1638.5 566.28876 1637.5 565.28126 1636.25 565.28126 Z"/>
    <path id="path43306" fill="#8cce55" stroke="#0f380f" stroke-opacity="0.14509804" stroke-linecap="round" stroke-linejoin="round" transform="matrix(1 0 0 1 0.5 1.2670726)" d="M 1648.9375 608.31251 L 1648.0625 608.50001 L 1647.3438 608.50001 L 1647.9688 609.40626 L 1648.875 609.84376 L 1649.8438 609.84376 L 1649.8438 608.84376 Z"/>
    <path id="path4214-3-7" fill="#8cce55" stroke="#0f380f" stroke-opacity="0.14509804" stroke-linecap="round" stroke-linejoin="round" transform="matrix(1 0 0 1 0.5 1.2670726)" d="M 1651.5625 609.93751 L 1650.5625 610.46876 L 1651.5625 610.84376 L 1653.375 611.09376 L 1653.375 610.75001 L 1652.4688 610.21876 Z"/>
    <path id="path120754" fill="#8cce55" stroke="#0f380f" stroke-opacity="0.14509804" stroke-linecap="round" stroke-linejoin="round" transform="matrix(1 0 0 1 0.5 1.2670726)" d="M 1650.8337 584.7402 C 1649.5836 584.74021 1648.5837 585.7477 1648.5837 586.9902 C 1648.5836 588.23271 1649.5837 589.2402 1650.8337 589.2402 C 1652.0711 589.24021 1653.0837 588.2327 1653.0837 586.9902 C 1653.0836 585.74771 1652.071 584.7402 1650.8337 584.7402 Z"/>
    <path id="path120752" fill="#8cce55" stroke="#0f380f" stroke-opacity="0.14509804" stroke-linecap="round" stroke-linejoin="round" transform="matrix(1 0 0 1 0.5 1.2670726)" d="M 1653.9587 588.64645 C 1652.7086 588.64646 1651.7087 589.65395 1651.7087 590.89645 C 1651.7086 592.13896 1652.7087 593.14645 1653.9587 593.14645 C 1655.1961 593.14646 1656.2087 592.13895 1656.2087 590.89645 C 1656.2086 589.65396 1655.196 588.64645 1653.9587 588.64645 Z"/>
</svg>
