<svg width="1671.094" height="856.39252" viewBox="0 0 1671.094 856.39252" xmlns="http://www.w3.org/2000/svg" xmlns:usvg="https://github.com/RazrFalcon/usvg" usvg:version="0.8.0">
    <defs/>
    <path id="path42648" fill="#3e73c5" fill-opacity="0.42857145" stroke="#000000" stroke-opacity="0.24675323" stroke-linecap="round" stroke-linejoin="round" transform="matrix(1 0 0 1 0.5 1.2670726)" d="M 1447.6578 133.06241 L 1447.7518 132.90616 L 1448.5643 132.81246 L 1448.6583 132.81246 L 1449.7209 133.28126 L 1449.7209 133.28126 C 1457.4075 130.98783 1471.1723 131.71701 1473.8186 133.91517 C 1474.3903 135.87201 1475.9639 137.4949 1477.5088 139.12735 L 1479.4993 140.15226 L 1481.383 140.67595 L 1483.5947 143.76084 L 1486.3619 145.25046 L 1501.5175 142.74975 L 1509.379 143.17546 L 1509.3788 -0.74955551 L 1578.937 -0.74955551 L 1578.905 135.18751 L 1579.1037 151.87552 L 1569.8882 150.80641 L 1566.6983 149.97541 L 1563.5484 152.74626 L 1559.344 151.80124 L 1557.848 152.48033 L 1554.4475 155.47991 L 1545.8761 155.30618 L 1539.5815 153.78852 L 1535.2288 154.49994 L 1537.2235 159.07713 L 1536.9449 162.08161 L 1535.9036 165.72586 L 1534.8322 165.73386 L 1533.3451 164.08084 L 1530.2461 166.20632 L 1527.0238 165.43465 L 1521.4083 167.56408 C 1519.8518 168.41607 1518.2952 167.67215 1516.7386 167.44307 L 1516.8967 169.85897 L 1514.4601 169.48953 L 1514.3691 174.23015 L 1521.7096 177.0034 L 1519.8141 179.89391 L 1518.4647 183.54022 L 1512.9983 183.68612 L 1513.9378 186.03239 L 1510.6808 184.19007 L 1509.1553 181.75523 L 1508.8559 184.48054 L 1503.8698 183.18347 L 1501.5645 183.28759 L 1499.9178 181.60779 L 1497.8064 183.58543 L 1500.1511 185.74744 L 1498.1186 186.72613 L 1496.7568 184.75332 L 1493.8946 184.4578 L 1495.5711 186.71934 L 1494.4045 188.24908 L 1496.0287 189.57114 L 1490.633 190.01765 L 1492.1842 191.6486 L 1489.8411 192.15249 L 1491.5991 194.32622 L 1489.7434 194.87761 L 1489.5772 197.46309 L 1488.1543 197.38169 L 1487.6968 194.76036 L 1485.5781 194.62642 L 1484.9142 197.07372 L 1480.6969 196.03879 L 1481.7412 199.34296 L 1479.9094 199.16684 L 1478.4243 198.09059 L 1478.9521 194.7861 L 1477.0114 194.25183 L 1476.6841 196.74778 L 1472.8522 197.40944 L 1470.2574 195.28802 L 1468.5464 196.72214 L 1471.4345 197.53751 L 1469.3474 198.09308 L 1469.63 200.2294 L 1467.9159 200.80328 L 1466.638 197.92923 L 1464.6895 200.03565 C 1463.619 197.21279 1462.5486 198.23375 1461.4781 198.00294 L 1459.1925 195.90861 L 1456.4797 195.40618 L 1455.6916 195.28718 L 1453.3722 195.32178 L 1452.7134 194.66191 C 1452.2955 194.36463 1451.8776 194.26345 1451.4596 194.43723 L 1450.5965 194.43923 L 1449.7908 193.81799 L 1450.4702 192.88572 L 1449.8339 192.1836 L 1448.348 191.45225 L 1447.2835 191.35058 L 1446.1279 191.01231 L 1445.3773 189.94246 L 1442.822 189.71829 L 1442.9926 189.01979 L 1438.2551 188.44925 L 1438.2171 187.88767 L 1436.6594 187.95987 L 1434.2088 187.22101 L 1433.2407 186.46508 L 1431.5553 187.04345 L 1430.6778 187.18495 L 1429.6554 187.53143 L 1429.6654 187.53144 L 1428.9467 186.62519 L 1429.478 186.15644 L 1429.384 185.28144 L 1428.509 184.56269 L 1428.3215 183.65644 L 1427.4152 183.18769 L 1426.9778 182.31269 L 1427.7902 181.40644 L 1428.3215 181.03144 L 1429.0402 180.87519 L 1430.0402 181.12519 L 1430.759 180.31269 L 1430.134 179.40644 L 1428.3215 178.78144 L 1428.0402 177.90644 L 1426.1652 177.71894 L 1425.4465 176.28144 L 1424.5402 175.37519 L 1423.634 175.09394 L 1422.2902 174.28144 L 1423.1965 173.65644 L 1422.8215 172.68769 L 1422.9155 171.78144 L 1423.6343 171.59394 L 1425.5405 171.59394 C 1427.9395 168.9702 1431.3955 170.03519 1434.0718 169.68769 L 1433.1968 168.96894 L 1433.2588 166.37519 L 1432.7276 165.46894 L 1433.7276 164.65644 L 1434.6963 164.75014 L 1435.6963 164.40639 L 1435.9776 163.40639 L 1436.8838 163.12514 L 1436.9458 162.40639 L 1436.6958 161.50014 L 1435.3208 159.62514 L 1434.8833 158.62514 L 1435.8833 158.28139 L 1437.6958 158.37509 L 1438.6645 158.09384 L 1439.6645 158.28134 L 1440.2895 157.37509 L 1440.1955 156.46884 L 1439.1955 155.56259 L 1437.6955 155.03134 L 1438.3205 154.03134 L 1438.5705 153.15634 L 1437.5705 152.87509 L 1436.9455 152.87509 L 1436.0705 153.15634 L 1434.258 152.25009 L 1433.3518 152.34379 L 1432.383 152.15629 L 1432.008 150.34379 L 1432.9142 149.37504 L 1434.0705 148.37504 L 1435.883 146.56254 L 1437.0392 144.40629 L 1438.9455 143.87504 L 1439.8205 143.06254 L 1440.1955 142.15629 L 1440.008 141.71879 L 1439.5705 140.81254 L 1440.383 138.93754 L 1440.9142 138.03129 L 1441.9142 137.56254 L 1443.1642 135.78129 L 1443.7892 135.25004 L 1445.6018 133.53129 L 1446.383 133.68754 L 1446.5705 133.71874 L 1447.5705 133.53124 Z"/>
    <path id="path42837" fill="#3e73c5" fill-opacity="0.42745098" stroke="#000000" stroke-opacity="0.24705882" stroke-linecap="round" stroke-linejoin="round" transform="matrix(1 0 0 1 0.5 1.2670726)" d="M 1492.66 581.31244 L 1509.223 598.62544 L 1509.2227 607.25 L 1509.3789 607.25 L 1509.3789 854.59375 L 1578.9414 854.59375 L 1578.9414 817.21875 L 1544.2539 817.21875 L 1544.2539 741.21875 L 1578.9102 688.40625 L 1578.9102 552.28125 L 1541.5059 552.28125 L 1541.5059 503.26758 L 1521.0039 503.26758 L 1521.0039 451.46875 L 1578.9102 451.46875 L 1578.9102 281.0625 L 1566.5977 273.53125 L 1546.3789 292.15625 L 1509.2227 292.5625 L 1509.3789 499.03125 L 1492.6602 499.03125 L 1492.66 545.46844 Z M 1513.9375 693.75 L 1519 693.75 L 1519 693.7812 L 1519 698.81245 L 1513.9688 698.81245 L 1513.9378 698.81245 L 1513.9378 693.74995 Z"/>
    <path id="path42671" fill="#8cce55" stroke="#0f380f" stroke-opacity="0.14509804" stroke-linecap="round" stroke-linejoin="round" transform="matrix(1 0 0 1 0.5 1.2670726)" d="M 1495.375 505.6875 C 1494.1375 505.6875 1493.125 506.695 1493.125 507.9375 C 1493.125 509.18 1494.1375 510.1875 1495.375 510.1875 C 1496.625 510.1875 1497.625 509.18 1497.625 507.9375 C 1497.625 506.695 1496.625 505.6875 1495.375 505.6875 Z"/>
    <path id="path42669" fill="#8cce55" stroke="#0f380f" stroke-opacity="0.14509804" stroke-linecap="round" stroke-linejoin="round" transform="matrix(1 0 0 1 0.5 1.2670726)" d="M 1511.9375 511.15625 C 1510.7 511.15625 1509.6875 512.16375 1509.6875 513.40625 C 1509.6875 514.64875 1510.7 515.65625 1511.9375 515.65625 C 1513.1875 515.65625 1514.1875 514.64875 1514.1875 513.40625 C 1514.1875 512.16375 1513.1875 511.15625 1511.9375 511.15625 Z"/>
    <path id="path42667" fill="#8cce55" stroke="#0f380f" stroke-opacity="0.14509804" stroke-linecap="round" stroke-linejoin="round" transform="matrix(1 0 0 1 0.5 1.2670726)" d="M 1504.9688 576.1875 L 1504.9688 577.09375 L 1506.4062 578.53125 L 1507.3125 579.25 L 1509.125 579.96875 L 1507.6875 578.09375 L 1504.9688 576.1875 L 1504.9688 576.1875 Z"/>
    <path id="path42665" fill="#8cce55" stroke="#0f380f" stroke-opacity="0.14509804" stroke-linecap="round" stroke-linejoin="round" transform="matrix(1 0 0 1 0.5 1.2670726)" d="M 1514.5938 580.6875 L 1514.4998 581.59375 L 1516.8436 583.21875 L 1519.5623 584.5625 L 1520.5623 585.28125 L 1520.0936 584.375 L 1519.281 583.46875 L 1518.1873 582.59375 L 1517.3123 582.40625 L 1516.406 581.9375 L 1515.4998 581.125 L 1514.5936 580.6875 L 1514.5938 580.6875 Z"/>
    <path id="path42663" fill="#8cce55" stroke="#0f380f" stroke-opacity="0.14509804" stroke-linecap="round" stroke-linejoin="round" transform="matrix(1 0 0 1 0.5 1.2670726)" d="M 1506.0625 581.3125 L 1505.1562 581.5 L 1505.6875 582.40625 L 1506.0625 581.3125 Z"/>
    <path id="path42661" fill="#8cce55" stroke="#0f380f" stroke-opacity="0.14509804" stroke-linecap="round" stroke-linejoin="round" transform="matrix(1 0 0 1 0.5 1.2670726)" d="M 1507.75 582.125 L 1506.875 582.75 L 1507.75 583.375 L 1508.0312 583.03125 L 1507.75 582.125 Z"/>
    <path id="path42659" fill="#8cce55" stroke="#0f380f" stroke-opacity="0.14509804" stroke-linecap="round" stroke-linejoin="round" transform="matrix(1 0 0 1 0.5 1.2670726)" d="M 1508.9375 582.75 L 1508.2188 583.65625 L 1510 584.46875 L 1510.75 585.375 L 1511 584.375 L 1510.125 583.75 L 1509.9375 582.84375 L 1508.9375 582.75005 L 1508.9375 582.75 Z"/>
    <path id="path42657" fill="#8cce55" stroke="#0f380f" stroke-opacity="0.14509804" stroke-linecap="round" stroke-linejoin="round" transform="matrix(1 0 0 1 0.5 1.2670726)" d="M 1523.6875 584.1875 L 1524.3125 585.09375 L 1524.1562 586 L 1525.0625 588.0625 L 1526.8438 589.6875 L 1526.6562 587.875 L 1526.2188 587 L 1525.4062 586.09375 L 1525.3122 585.1875 L 1524.5935 584.28125 L 1523.6872 584.18755 L 1523.6875 584.1875 Z"/>
    <path id="path42655" fill="#8cce55" stroke="#0f380f" stroke-opacity="0.14509804" stroke-linecap="round" stroke-linejoin="round" transform="matrix(1 0 0 1 0.5 1.2670726)" d="M 1509.0312 584.90625 L 1508.125 585.1875 L 1508.6562 585.8125 L 1509.0312 584.90625 Z"/>
    <path id="path42653" fill="#8cce55" stroke="#0f380f" stroke-opacity="0.14509804" stroke-linecap="round" stroke-linejoin="round" transform="matrix(1 0 0 1 0.5 1.2670726)" d="M 1512.1875 585.09375 L 1511.2812 585.375 L 1511.7188 586.28125 L 1512.0938 586 L 1512.1878 585.09375 L 1512.1875 585.09375 Z"/>
    <path id="path42651" fill="#8cce55" stroke="#0f380f" stroke-opacity="0.14509804" stroke-linecap="round" stroke-linejoin="round" transform="matrix(1 0 0 1 0.5 1.2670726)" d="M 1519.1875 588.78125 L 1519.2815 589.6875 L 1519.7503 590.59375 L 1521.0003 591.21875 L 1521.9065 591.12505 L 1523.7815 591.6563 L 1524.6878 591.50005 L 1524.0628 590.5938 L 1523.1565 589.68755 L 1522.2503 589.31255 L 1521.0003 589.40625 L 1520.0941 588.78125 L 1519.1878 588.78125 L 1519.1875 588.78125 Z"/>
    <path id="path42649" fill="#8cce55" stroke="#0f380f" stroke-opacity="0.14509804" stroke-linecap="round" stroke-linejoin="round" transform="matrix(1 0 0 1 0.5 1.2670726)" d="M 1527.375 589.25 L 1527.469 590.125 L 1528.1877 591.03125 L 1528.1877 590.125 L 1527.3752 589.25 L 1527.375 589.25 Z"/>
    <path id="path42647" fill="#8cce55" stroke="#0f380f" stroke-opacity="0.14509804" stroke-linecap="round" stroke-linejoin="round" transform="matrix(1 0 0 1 0.5 1.2670726)" d="M 1527.6562 593.03125 L 1527.9375 593.90625 L 1528.4688 594.90625 L 1529.5625 595.53125 L 1531.3438 595.8125 L 1531.2498 594.90625 L 1530.3436 594.28125 L 1529.4373 594.09375 L 1527.656 593.03125 L 1527.6562 593.03125 Z"/>
    <path id="path42645" fill="#8cce55" stroke="#0f380f" stroke-opacity="0.14509804" stroke-linecap="round" stroke-linejoin="round" transform="matrix(1 0 0 1 0.5 1.2670726)" d="M 1548.3438 595.1875 L 1548.2498 596.0625 L 1549.2498 595.1875 L 1548.3436 595.1875 L 1548.3438 595.1875 Z"/>
    <path id="path42643" fill="#8cce55" stroke="#0f380f" stroke-opacity="0.14509804" stroke-linecap="round" stroke-linejoin="round" transform="matrix(1 0 0 1 0.5 1.2670726)" d="M 1521 598.875 L 1521 599.40625 L 1521.9062 599.78125 L 1522.8125 600.40625 L 1523.6875 600.49995 L 1522.8125 599.7812 L 1521 598.875 Z"/>
    <path id="path42641" fill="#8cce55" stroke="#0f380f" stroke-opacity="0.14509804" stroke-linecap="round" stroke-linejoin="round" transform="matrix(1 0 0 1 0.5 1.2670726)" d="M 1551.3125 614.0625 L 1551.3125 614.96875 L 1551.875 616.78125 L 1551.875 617.6875 L 1552.75 618.46875 L 1553.6562 618.40625 L 1554.5625 617.9375 L 1554.375 617.03125 L 1553.9375 616.15625 L 1553.375 615.25 L 1552.5 615.78125 L 1552.2188 614.875 L 1551.3125 614.0625 Z"/>
    <path id="path42639" fill="#8cce55" stroke="#0f380f" stroke-opacity="0.14509804" stroke-linecap="round" stroke-linejoin="round" transform="matrix(1 0 0 1 0.5 1.2670726)" d="M 1558.5 615.59375 L 1558.6875 617.40625 L 1558.875 617.40625 L 1558.969 616.5 L 1558.5002 615.59375 L 1558.5 615.59375 Z"/>
    <path id="path42637" fill="#8cce55" stroke="#0f380f" stroke-opacity="0.14509804" stroke-linecap="round" stroke-linejoin="round" transform="matrix(1 0 0 1 0.5 1.2670726)" d="M 1558.6875 618.46875 L 1559.0625 620.28125 L 1559.25 619.375 L 1558.6875 618.46875 Z"/>
    <path id="path42635" fill="#8cce55" stroke="#0f380f" stroke-opacity="0.14509804" stroke-linecap="round" stroke-linejoin="round" transform="matrix(1 0 0 1 0.5 1.2670726)" d="M 1555.0938 620.1875 L 1554.1875 620.375 L 1555.0938 621.1875 L 1555.5625 622.96875 L 1555.7188 623.06245 L 1556.625 622.7187 L 1556.8125 621.81245 L 1555.9062 621.0937 L 1555.0938 620.18745 L 1555.0938 620.1875 Z"/>
    <path id="path42633" fill="#8cce55" stroke="#0f380f" stroke-opacity="0.14509804" stroke-linecap="round" stroke-linejoin="round" transform="matrix(1 0 0 1 0.5 1.2670726)" d="M 1559.0625 621.09375 L 1558.1562 621.18745 L 1558.7812 621.99995 L 1559.0625 621.0937 L 1559.0625 621.09375 Z"/>
    <path id="path42631" fill="#8cce55" stroke="#0f380f" stroke-opacity="0.14509804" stroke-linecap="round" stroke-linejoin="round" transform="matrix(1 0 0 1 0.5 1.2670726)" d="M 1558.7812 623.15625 L 1559.3125 624.15625 L 1560.2188 624.34375 L 1558.7812 623.15625 L 1558.7812 623.15625 Z"/>
    <path id="path42629" fill="#8cce55" stroke="#0f380f" stroke-opacity="0.14509804" stroke-linecap="round" stroke-linejoin="round" transform="matrix(1 0 0 1 0.5 1.2670726)" d="M 1559.875 627.65625 L 1558.9688 628.125 L 1559.875 629 L 1560.7812 628.46875 L 1559.875 627.65625 Z"/>
    <path id="path42627" fill="#8cce55" stroke="#0f380f" stroke-opacity="0.14509804" stroke-linecap="round" stroke-linejoin="round" transform="matrix(1 0 0 1 0.5 1.2670726)" d="M 1563 632.78125 L 1562.75 633.78125 L 1563.6562 634.40625 L 1564 633.5 L 1563 632.78125 Z"/>
    <path id="path42625" fill="#8cce55" stroke="#0f380f" stroke-opacity="0.14509804" stroke-linecap="round" stroke-linejoin="round" transform="matrix(1 0 0 1 0.5 1.2670726)" d="M 1539.5312 640 L 1540.25 640.96875 L 1540.344 641.875 L 1541.1564 642.78125 L 1541.6877 643.59375 L 1542.594 644.03125 L 1543.219 644.65625 L 1543.844 645.65625 L 1544.7502 646.125 L 1545.469 647 L 1546.3752 647.28125 L 1546.4692 647.5625 L 1547.3754 648 L 1547.6254 647.9063 L 1548.5316 648.81255 L 1549.4379 649.00005 L 1549.8754 649.87505 L 1550.7816 649.96875 L 1552.2192 650.96875 L 1553.1254 651.06245 L 1553.4692 650.1562 L 1552.7504 649.24995 L 1551.8754 648.81245 L 1550.7816 647.7187 L 1548.9692 646.4687 L 1548.0942 646.2812 L 1548.0002 646.0312 L 1547.094 645.6562 L 1546.1877 644.74995 L 1545.1877 643.1562 L 1544.1252 642.7812 L 1541.4377 640.7187 L 1540.4377 640.7187 L 1539.5312 640 L 1539.5312 640 Z"/>
    <path id="path42623" fill="#8cce55" stroke="#0f380f" stroke-opacity="0.14509804" stroke-linecap="round" stroke-linejoin="round" transform="matrix(1 0 0 1 0.5 1.2670726)" d="M 1553.8438 642.875 L 1554.1875 644.65625 L 1555.0938 645.125 L 1555.2812 644.21875 L 1554.75 643.3125 L 1553.8438 642.875 L 1553.8438 642.875 Z"/>
    <path id="path3060" fill="#8cce55" stroke="#0f380f" stroke-opacity="0.14509804" stroke-linecap="round" stroke-linejoin="round" transform="matrix(1 0 0 1 0.5 1.2670726)" d="M 1557.8125 646.03125 L 1557.5312 647 L 1558.0625 647.46875 L 1558.6875 646.5625 L 1557.8125 646.03125 Z"/>
    <path id="path42391" fill="#8cce55" stroke="#0f380f" stroke-opacity="0.14509804" stroke-linecap="round" stroke-linejoin="round" transform="matrix(1 0 0 1 0.5 1.2670726)" d="M 1525.0625 514.4375 C 1523.825 514.4375 1522.8125 515.445 1522.8125 516.6875 C 1522.8125 517.93 1523.825 518.9375 1525.0625 518.9375 C 1526.3125 518.9375 1527.3125 517.93 1527.3125 516.6875 C 1527.3125 515.445 1526.3125 514.4375 1525.0625 514.4375 Z"/>
    <path id="path120872" fill="#8cce55" stroke="#0f380f" stroke-opacity="0.14509804" stroke-linecap="round" stroke-linejoin="round" transform="matrix(1 0 0 1 0.5 1.2670726)" d="M 1417.9688 138.75 L 1415.1875 139.03125 L 1415.625 139.90625 L 1416.625 139.75 L 1417.5 140.28125 L 1418.875 139.46875 Z"/>
    <path id="path43292-1-6" fill="#8cce55" stroke="#0f380f" stroke-opacity="0.14509804" stroke-linecap="round" stroke-linejoin="round" transform="matrix(1 0 0 1 0.5 1.2670726)" d="M 1535.229 154.49992 L 1533.4976 154.93742 L 1532.5914 154.74992 L 1532.248 154.84382 L 1532.258 154.84412 L 1530.1018 155.21912 L 1529.2892 154.93787 L 1528.1955 155.12537 L 1526.4142 155.93787 L 1524.6955 155.12537 L 1522.883 154.75037 L 1522.4455 155.03162 L 1521.008 154.12537 L 1520.1018 154.03167 L 1519.5705 153.06292 L 1520.008 152.59417 L 1520.4455 151.96917 L 1520.3835 151.71917 L 1520.1023 151.25042 L 1521.0085 150.53167 L 1521.446 149.62542 L 1521.196 148.75042 L 1520.6335 147.65667 L 1519.821 146.75042 C 1514.851 142.90292 1507.9697 142.82042 1502.0085 142.96917 L 1494.446 144.06292 L 1491.6647 145.03167 L 1490.696 144.87542 L 1486.9773 145.12542 L 1485.1023 144.78167 L 1482.321 143.87542 L 1484.196 143.87542 L 1484.29 143.34417 L 1482.3838 141.53167 L 1481.5088 140.90667 L 1480.5088 140.81297 L 1479.6026 140.46922 L 1478.6963 140.62547 L 1477.8213 141.28172 L 1476.915 141.18802 L 1475.915 141.43802 L 1474.7588 142.00052 L 1475.7588 141.34427 L 1476.6338 141.00052 L 1477.54 140.18802 L 1476.54 139.37552 L 1475.5713 139.37552 L 1474.04 139.81302 L 1474.3838 138.93802 L 1473.3838 138.28177 L 1470.5088 137.84427 L 1469.6338 138.03177 L 1469.3526 137.03177 L 1470.3526 137.21927 L 1471.2588 136.59427 L 1472.1338 136.40677 L 1473.3838 137.21927 L 1474.29 136.78177 L 1474.9463 135.78177 L 1473.1338 134.06302 L 1470.2588 133.15677 L 1467.4463 132.53177 L 1465.5713 132.34427 L 1461.79 132.34427 L 1461.79 132.34372 L 1461.79 132.34372 L 1459.0088 134.59372 L 1457.7588 136.12497 L 1456.7588 136.78122 L 1454.8838 137.56247 L 1453.9463 137.56247 L 1452.9776 138.12497 L 1452.0713 137.84372 L 1451.165 137.84372 L 1452.0713 136.93747 L 1451.54 136.03122 L 1452.4463 135.87497 L 1453.415 136.21872 L 1455.2276 135.78122 L 1454.415 133.06247 L 1455.3213 133.24997 L 1455.9463 134.15622 L 1456.9463 133.78122 L 1456.9463 134.68747 L 1456.04 135.59372 L 1455.946 136.49997 L 1457.7585 135.24997 L 1460.446 132.53122 L 1457.6647 132.53122 L 1451.8835 132.99997 L 1450.0085 133.34372 L 1449.0085 133.71872 L 1448.1023 133.43747 L 1447.6647 133.06247 L 1447.5707 133.53122 L 1446.5707 133.71872 L 1446.3832 133.68752 L 1445.602 133.53127 L 1443.7894 135.25002 L 1443.1644 135.78127 L 1441.9144 137.56252 L 1440.9144 138.03127 L 1440.3832 138.93752 L 1439.5707 140.81252 L 1440.0082 141.71877 L 1440.1957 142.15627 L 1439.8207 143.06252 L 1438.9457 143.87502 L 1437.0394 144.40627 L 1435.8832 146.56252 L 1434.0707 148.37502 L 1432.9144 149.37502 L 1432.0082 150.34377 L 1432.3832 152.15627 L 1433.352 152.34377 L 1434.2582 152.25007 L 1436.0707 153.15632 L 1436.9457 152.87507 L 1437.5707 152.87507 L 1438.5707 153.15632 L 1438.3207 154.03132 L 1437.6957 155.03132 L 1439.1957 155.56257 L 1440.1957 156.46882 L 1440.2897 157.37507 L 1439.6647 158.28132 L 1438.6647 158.09382 L 1437.696 158.37507 L 1435.8835 158.28137 L 1434.8835 158.62512 L 1435.321 159.62512 L 1436.696 161.50012 L 1436.946 162.40637 L 1436.884 163.12512 L 1435.9778 163.40637 L 1435.6965 164.40637 L 1434.6965 164.75012 L 1433.7278 164.65642 L 1432.7278 165.46892 L 1433.259 166.37517 L 1433.197 168.96892 L 1434.072 169.68767 C 1431.3957 170.03517 1427.9397 168.97018 1425.5407 171.59392 L 1423.6345 171.59392 L 1422.9157 171.78142 L 1422.8217 172.68767 L 1423.1967 173.65642 L 1422.2904 174.28142 L 1423.6342 175.09392 L 1424.5404 175.37517 L 1425.4467 176.28142 L 1426.1654 177.71892 L 1428.0404 177.90642 L 1428.3217 178.78142 L 1430.1342 179.40642 L 1430.7592 180.31267 L 1430.0404 181.12517 L 1429.0404 180.87517 L 1428.3217 181.03142 L 1427.7904 181.40642 L 1426.978 182.31267 L 1427.4154 183.18767 L 1428.3217 183.65642 L 1428.5092 184.56267 L 1429.3842 185.28142 L 1429.4782 186.15642 L 1428.9469 186.62517 L 1429.6656 187.53142 L 1429.6556 187.53141 L 1430.678 187.18493 L 1431.5555 187.04343 L 1433.2409 186.46506 L 1434.209 187.22099 L 1436.6596 187.95985 L 1438.2173 187.88765 L 1438.2553 188.44923 L 1442.9928 189.01977 L 1442.8222 189.71827 L 1445.3775 189.94244 L 1446.1281 191.01229 L 1447.2837 191.35056 L 1448.3482 191.45223 L 1449.8341 192.18358 L 1450.4704 192.8857 L 1449.791 193.81797 L 1450.5967 194.43921 L 1451.4598 194.43721 C 1451.8778 194.26343 1452.2957 194.36461 1452.7136 194.66189 L 1453.3724 195.32176 L 1455.6918 195.28716 L 1456.4799 195.40616 L 1459.1927 195.90859 L 1461.4783 198.00292 C 1462.5488 198.23373 1463.6192 197.21277 1464.6897 200.03563 L 1466.6382 197.92921 L 1467.9161 200.80326 L 1469.6302 200.22938 L 1469.3476 198.09306 L 1471.4347 197.53749 L 1468.5466 196.72212 L 1470.2576 195.288 L 1472.8524 197.40942 L 1476.6843 196.74776 L 1477.0116 194.25181 L 1478.9523 194.78608 L 1478.4245 198.09057 L 1479.9096 199.16682 L 1481.7414 199.34294 L 1480.6971 196.03877 L 1484.9144 197.0737 L 1485.5783 194.6264 L 1487.697 194.76034 L 1488.1545 197.38167 L 1489.5774 197.46307 L 1489.7436 194.87759 L 1491.5993 194.3262 L 1489.8413 192.15247 L 1492.1844 191.64858 L 1490.6332 190.01763 L 1496.0289 189.57112 L 1494.4047 188.24906 L 1495.5713 186.71932 L 1493.8948 184.45778 L 1496.757 184.7533 L 1498.1188 186.72611 L 1500.1513 185.74742 L 1497.8066 183.58541 L 1499.918 181.60777 L 1501.5647 183.28757 L 1503.87 183.18345 L 1508.8561 184.48052 L 1509.1555 181.75521 L 1510.681 184.19005 L 1513.938 186.03237 L 1512.9985 183.6861 L 1518.4649 183.5402 L 1519.8143 179.89389 L 1521.7098 177.00338 L 1514.3693 174.23013 L 1514.4603 169.48951 L 1516.8969 169.85895 L 1516.7388 167.44305 C 1518.2954 167.67213 1519.852 168.41605 1521.4085 167.56406 L 1527.024 165.43463 L 1530.2463 166.2063 L 1533.3453 164.08082 L 1534.8324 165.73384 L 1535.9038 165.72584 L 1536.9451 162.08159 L 1537.2237 159.07711 Z"/>
    <path id="path42419" fill="#8cce55" stroke="#0f380f" stroke-opacity="0.14509804" stroke-linecap="round" stroke-linejoin="round" transform="matrix(1 0 0 1 0.5 1.2670726)" d="M 1523.5 144.3125 L 1523.25 145.3125 L 1524.3125 145.3125 L 1523.5 144.3125 Z"/>
    <path id="path41502" fill="#8cce55" stroke="#0f380f" stroke-opacity="0.14509804" stroke-linecap="round" stroke-linejoin="round" transform="matrix(1 0 0 1 0.5 1.2670726)" d="M 1560.3111891 683.70538 C 1560.3111891 684.93487029017 1559.31449029017 685.9315691 1558.085 685.9315691 C 1556.85550970983 685.9315691 1555.8588109 684.93487029017 1555.8588109 683.70538 C 1555.8588109 682.47588970983 1556.85550970983 681.4791909 1558.085 681.4791909 C 1559.31449029017 681.4791909 1560.3111891 682.47588970983 1560.3111891 683.70538 Z"/>
    <path id="path120812" fill="#8cce55" stroke="#0f380f" stroke-opacity="0.14509804" stroke-linecap="round" stroke-linejoin="round" transform="matrix(1 0 0 1 0.5 1.2670726)" d="M 1496.3438 570.78125 L 1496.625 571.6875 L 1496.625 572.59375 L 1496.9688 573.5 L 1498.875 575.1875 L 1498.5938 575.75 L 1498.5938 575.90625 L 1499.5 576.8125 L 1500.375 577.28125 L 1501.375 577.09375 L 1502.2812 576.71875 L 1502.0938 575.84375 L 1501.375 574.9375 L 1500.375 574.375 L 1499.5625 573.21875 L 1498.5938 572.3125 L 1498.125 571.40625 L 1497.25 571.25 L 1496.3438 570.78125 Z"/>
    <path id="path120816" fill="#8cce55" stroke="#0f380f" stroke-opacity="0.14509804" stroke-linecap="round" stroke-linejoin="round" transform="matrix(1 0 0 1 0.5 1.2670726)" d="M 1495.8125 569 L 1495.8125 569.875 L 1496.1562 570.875 L 1496.5312 569.96875 L 1495.8125 569 Z"/>
</svg>
