<svg width="1671.094" height="856.39252" viewBox="0 0 1671.094 856.39252" xmlns="http://www.w3.org/2000/svg" xmlns:usvg="https://github.com/RazrFalcon/usvg" usvg:version="0.8.0">
    <defs/>
    <path id="path120964-9-9" fill="#3e73c5" fill-opacity="0.42745098" stroke="#000000" stroke-opacity="0.24705882" stroke-linecap="round" stroke-linejoin="round" transform="matrix(1 0 0 1 0.5 1.2670726)" d="M 1509.379 143.17545 L 1501.5175 142.74974 L 1486.3619 145.25045 L 1483.5947 143.76083 L 1481.383 140.67594 L 1479.4993 140.15225 L 1477.5088 139.12734 C 1475.9639 137.49489 1474.3903 135.872 1473.8186 133.91516 C 1471.1723 131.717 1457.4075 130.98782 1449.7209 133.28125 L 1449.7209 133.28125 L 1448.6583 132.81245 L 1448.5643 132.81245 L 1447.7518 132.90615 L 1447.6578 133.0624 L 1447.5638 133.53115 L 1446.5638 133.71865 L 1445.5951 133.53115 L 1443.7825 135.2499 L 1443.1575 135.78115 L 1441.9075 137.5624 L 1440.9075 138.03115 L 1440.3763 138.9374 L 1439.5638 140.8124 L 1440.0013 141.71865 L 1440.1888 142.15615 L 1439.8138 143.0624 L 1438.9388 143.8749 L 1437.0325 144.40615 L 1435.8763 146.5624 L 1434.0638 148.3749 L 1432.9075 149.3749 L 1432.0013 150.34365 L 1432.3763 152.15615 L 1433.3451 152.34365 L 1434.2513 152.24995 L 1436.0638 153.1562 L 1436.9388 152.87495 L 1437.5638 152.87495 L 1438.5638 153.1562 L 1438.3138 154.0312 L 1437.6888 155.0312 L 1439.1888 155.56245 L 1440.1888 156.4687 L 1440.2828 157.37495 L 1439.6578 158.2812 L 1438.6578 158.0937 L 1437.6891 158.37495 L 1435.8766 158.28125 L 1434.8766 158.625 L 1435.3141 159.625 L 1436.6891 161.5 L 1436.9391 162.40625 L 1436.8771 163.125 L 1435.9709 163.40625 L 1435.6896 164.40625 L 1434.6896 164.75 L 1433.7209 164.6563 L 1432.7209 165.4688 L 1433.2521 166.37505 L 1433.1901 168.9688 L 1434.0651 169.68755 C 1433.0615 169.81785 1431.9445 169.75085 1430.8151 169.75005 C 1429.126 169.75305 1427.4222 169.9286 1426.0026 171.1563 C 1425.8447 171.29259 1425.6839 171.42982 1425.5338 171.5938 L 1423.6276 171.5938 L 1422.9088 171.7813 L 1422.8148 172.68755 L 1423.1898 173.6563 L 1422.2835 174.2813 L 1423.6273 175.0938 L 1424.5335 175.37505 L 1425.4398 176.2813 L 1426.1585 177.7188 L 1428.0335 177.9063 L 1428.3148 178.7813 L 1430.1273 179.4063 L 1430.7523 180.31255 L 1430.0335 181.12505 L 1429.0335 180.87505 L 1428.3148 181.0313 L 1427.7835 181.4063 L 1426.9711 182.31255 L 1426.304 182.52476 L 1424.4342 182.86359 L 1422.9231 183.32707 L 1421.6389 182.74274 L 1420.0043 182.81914 L 1419.2555 182.31377 L 1418.5986 182.43392 L 1414.3505 181.56351 L 1410.7751 182.28405 L 1409.0898 184.30036 L 1408.1128 183.99591 L 1407.5717 184.54027 L 1406.1224 185.12331 L 1405.4526 184.60669 L 1404.5751 185.4623 L 1404.3435 186.27024 L 1403.0914 188.00388 L 1402.6155 187.53778 L 1399.6071 189.14701 L 1397.8696 188.8085 L 1396.2014 189.41107 L 1395.8335 191.34583 L 1397.1927 193.17241 L 1395.0508 193.95583 L 1395.4561 194.87463 L 1394.6607 195.34382 L 1394.6607 195.34385 L 1394.0358 194.4376 L 1393.0358 194.5313 L 1392.3171 193.9063 L 1392.5046 192.9063 L 1391.5984 191.12505 L 1389.9734 188.4063 L 1389.0671 187.9688 L 1389.5358 187.43755 L 1389.6298 186.9688 L 1389.3486 186.0938 L 1388.4423 185.62505 L 1388.0986 185.53135 L 1386.1923 184.28135 L 1384.661 183.59385 L 1384.411 183.46885 L 1384.349 183.40635 C 1384.323 183.38945 1384.311 183.36095 1384.286 183.34385 L 1383.5986 182.7501 L 1382.9736 181.84385 L 1382.786 181.2501 L 1382.692 180.9376 L 1382.5357 180.7501 L 1381.9717 180.06282 L 1381.9717 180.06264 L 1390.9123 175.69334 L 1396.4372 168.25856 L 1396.4522 164.83055 L 1394.4858 161.06194 L 1391.596 160.0624 L 1391.596 160.0625 L 1392.221 159.9688 L 1393.1272 159.3438 L 1393.9397 158.4688 L 1394.9397 158.00005 L 1394.9397 156.56255 L 1395.7522 155.6563 L 1396.721 154.93755 L 1397.6272 154.84385 L 1397.4397 154.1251 L 1396.5647 153.6876 L 1396.4397 152.78135 L 1395.5647 152.15635 L 1396.4397 151.34385 L 1396.4397 150.4376 L 1396.096 149.53135 L 1394.471 149.1876 L 1393.5647 149.0001 L 1391.7834 149.0001 L 1391.596 148.09385 L 1391.8772 147.21885 L 1391.6897 146.3126 L 1391.6897 145.40635 L 1392.0647 144.40635 L 1391.4084 143.5001 L 1390.5022 143.15635 L 1390.346 143.25005 L 1389.8655 143.23985 L 1389.8655 125.52285 L 1458.588 125.52285 L 1458.588 124.20885 L 1481.4 124.20885 L 1481.4 81.271444 L 1439.8965 81.271444 L 1439.8965 -0.76055551 L 1509.379 -0.76055551 Z"/>
    <path id="path42973-0" fill="#3e73c5" fill-opacity="0.42857145" stroke="#000000" stroke-opacity="0.24675323" stroke-linecap="round" stroke-linejoin="round" transform="matrix(1 0 0 1 0.5 1.2670726)" d="M 1385.0341 298.84385 L 1385.659 298.46848 L 1386.5653 298.37478 L 1386.6593 298.31228 L 1386.8156 297.65603 L 1387.5656 296.78103 L 1388.4406 296.84353 L 1388.9093 295.68728 L 1388.9093 294.96853 L 1388.2531 293.96853 L 1388.9093 293.71853 L 1388.9093 292.81228 L 1388.0031 292.28103 L 1388.8156 291.37478 L 1388.0969 290.46853 L 1387.9093 290.03103 L 1387.1906 289.65603 L 1386.5656 289.93728 L 1386.4716 289.03103 L 1386.0028 288.31228 L 1385.1278 288.40598 L 1385.3778 287.49973 L 1385.9403 286.96848 L 1386.909 284.71848 L 1387.8153 284.09348 L 1388.7216 284.09348 L 1388.909 283.37473 L 1388.7216 282.99973 L 1388.7216 282.90603 L 1388.534 281.99978 L 1389.4403 281.99978 L 1390.6903 281.56228 L 1392.5966 281.28103 L 1393.2216 280.65603 L 1393.7528 279.74978 L 1395.0966 278.87478 L 1396.0028 279.03103 L 1396.909 278.87478 L 1397.909 278.40603 L 1397.7216 278.06228 L 1397.0028 277.15603 L 1397.0028 276.24978 L 1397.6278 275.81228 L 1398.8778 276.43728 L 1402.1278 277.15603 L 1403.1278 277.40603 L 1403.4716 276.53103 L 1404.0028 275.81228 L 1403.3778 274.90603 L 1403.5653 274.43728 L 1404.1903 273.46853 L 1404.7528 271.93728 L 1404.7528 271.03103 C 1404.5057 270.74056 1404.2685 270.53913 1404.0653 270.37478 C 1404.2256 270.50858 1404.4089 270.69654 1404.5966 270.90603 L 1403.6278 270.09353 C 1403.5968 270.07893 1403.5638 270.04283 1403.5338 270.03103 L 1402.7214 270.03103 C 1401.7583 270.3719 1400.9295 271.7352 1398.4401 270.49978 L 1398.3461 270.65603 L 1397.4398 270.74973 L 1396.6273 271.65598 L 1396.1898 271.93723 L 1395.2835 272.37473 L 1394.3773 272.18723 L 1392.7523 272.28093 L 1391.8773 272.37463 L 1390.9711 272.84338 L 1390.0648 272.37463 L 1389.1585 272.46833 L 1388.9085 270.74958 L 1388.3461 268.96833 L 1387.6273 268.78083 L 1385.8461 268.49958 L 1384.9398 268.15583 L 1384.3148 268.15583 L 1384.2208 267.15583 L 1385.127 265.90583 L 1386.002 265.53083 L 1386.9082 265.53083 L 1387.5645 264.28083 L 1387.9082 263.37458 L 1388.8145 262.84333 L 1389.6895 262.56208 L 1390.6895 262.03083 L 1391.1582 261.03083 L 1393.127 260.59333 L 1392.8458 259.78083 L 1393.752 259.78083 L 1394.3145 258.87458 L 1395.6582 258.71833 L 1394.6582 258.24958 L 1394.1895 257.34333 L 1393.3145 256.62458 L 1392.4082 256.53088 L 1390.502 257.09338 L 1389.627 256.81213 L 1389.002 257.09338 L 1387.1895 257.09338 L 1386.2832 256.62463 L 1386.002 255.71838 L 1386.377 253.84338 L 1386.5645 253.56213 L 1387.0958 252.68713 L 1387.2832 251.78088 L 1388.1895 251.40588 L 1388.2515 251.78088 L 1389.1577 251.06213 L 1389.689 251.31213 L 1390.2515 249.53088 L 1389.8765 248.96838 L 1388.0046 247.00013 L 1387.0984 246.46888 L 1387.6296 246.00013 L 1387.8171 245.93763 L 1389.0046 246.37513 L 1389.3484 245.93763 L 1389.2544 245.21888 L 1390.1606 244.31263 L 1391.0669 243.93763 L 1391.5044 243.59388 L 1389.9732 241.78138 L 1389.0669 240.15638 L 1389.9732 240.25008 L 1390.8794 240.78133 L 1391.8794 240.87503 L 1391.4106 240.00003 L 1392.2232 239.00003 L 1392.2232 238.00003 L 1393.1294 238.09373 L 1393.9421 236.21885 L 1393.9429 235.31253 L 1395.3044 235.32993 L 1395.4584 233.76666 L 1397.9853 232.68989 L 1398.7832 232.88349 L 1401.2645 233.12974 L 1402.5629 233.55721 L 1403.9744 233.0528 L 1404.2105 233.70225 C 1404.7219 233.49726 1405.318 233.56571 1405.8221 233.37604 C 1406.3027 233.19519 1405.9457 233.91751 1406.4112 233.72478 L 1406.952 232.49 L 1408.1096 231.54511 L 1408.9272 231.01993 L 1410.1105 231.84309 L 1411.6947 231.74939 L 1411.7137 231.74839 L 1412.9545 232.14117 L 1413.8532 232.10417 L 1415.4589 231.76181 L 1416.13 230.76815 L 1416.6665 230.72135 L 1417.0972 229.33204 L 1418.9851 228.9707 L 1419.3093 229.57113 L 1419.8813 230.04168 L 1420.5254 229.25305 L 1420.1187 228.57689 L 1420.4292 227.46517 L 1420.0522 226.0196 L 1420.5641 225.46469 L 1420.2774 224.0361 L 1421.1808 222.72764 L 1420.2413 222.31006 L 1419.8489 221.3305 L 1419.9677 220.7328 L 1420.7165 220.5473 L 1420.34 220.00293 L 1422.0867 219.45778 L 1422.4685 218.41194 L 1423.7597 218.35204 L 1424.2036 217.60084 L 1426.1597 217.1822 L 1426.8977 215.93748 L 1428.0414 214.53045 L 1428.0624 214.27266 L 1428.1979 213.84662 L 1429.1044 213.7121 L 1429.1264 213.681 L 1429.6747 212.89172 L 1429.7217 211.25813 L 1430.1059 210.2116 L 1429.3158 209.75017 L 1428.8471 208.84392 L 1428.3158 208.84392 L 1427.4095 208.65642 L 1426.7845 207.78142 L 1426.3158 206.25017 L 1426.6908 205.34392 L 1426.5033 204.62517 L 1427.4095 203.90642 L 1428.3158 203.43767 L 1428.9408 202.90642 L 1429.8471 202.71892 L 1430.9408 202.00017 L 1430.5658 201.09392 L 1430.7533 200.21892 L 1431.1908 199.21892 L 1431.0033 198.21892 L 1429.1283 197.34392 L 1428.5033 196.43767 L 1430.0345 195.43767 L 1429.3158 194.53142 L 1428.3158 193.71892 L 1426.5033 192.65642 L 1425.8783 191.75017 L 1426.2533 190.93767 L 1427.3158 189.15642 L 1428.1283 188.15642 L 1428.3158 188.15642 L 1429.6595 187.53142 L 1428.9408 186.62517 L 1429.4721 186.15642 L 1429.3781 185.28142 L 1430.6778 187.18494 L 1431.5553 187.04344 L 1433.2407 186.46507 L 1434.2088 187.221 L 1436.6594 187.95986 L 1438.2171 187.88766 L 1438.2551 188.44924 L 1442.9926 189.01978 L 1442.822 189.71828 L 1445.3773 189.94245 L 1446.1279 191.0123 L 1447.2835 191.35057 L 1448.348 191.45224 L 1449.8339 192.18359 L 1450.4702 192.88571 L 1449.7908 193.81798 L 1450.5965 194.43922 L 1451.4596 194.43722 C 1451.8776 194.26344 1452.2955 194.36462 1452.7134 194.6619 L 1453.3722 195.32177 L 1456.4797 195.40617 L 1459.1925 195.9086 L 1461.4781 198.00293 C 1462.5486 198.23374 1463.619 197.21278 1464.6895 200.03564 L 1466.638 197.92922 L 1467.9159 200.80327 L 1469.63 200.22939 L 1469.3474 198.09307 L 1471.4345 197.5375 L 1468.5464 196.72213 L 1470.2574 195.28801 L 1472.8522 197.40943 L 1476.6841 196.74777 L 1477.0114 194.25182 L 1478.9521 194.78609 L 1478.4243 198.09058 L 1479.9094 199.16683 L 1481.7412 199.34295 L 1480.6969 196.03878 L 1484.9142 197.07371 L 1485.5781 194.62641 L 1487.6968 194.76035 L 1488.1543 197.38168 L 1489.5772 197.46308 L 1489.7434 194.8776 L 1491.5991 194.32621 L 1489.8411 192.15248 L 1492.1842 191.64859 L 1490.633 190.01764 L 1496.0287 189.57113 L 1494.4045 188.24907 L 1495.5711 186.71933 L 1493.8946 184.45779 L 1496.7568 184.75331 L 1498.1186 186.72612 L 1500.1511 185.74743 L 1497.8064 183.58542 L 1499.9178 181.60778 L 1501.5645 183.28758 L 1503.8698 183.18346 L 1508.8559 184.48053 L 1509.1553 181.75522 L 1510.6808 184.19006 L 1513.9378 186.03238 L 1512.9983 183.68611 L 1518.4647 183.54021 L 1519.8141 179.8939 L 1523.1763 181.04908 L 1520.8309 186.00738 L 1528.3126 186.63447 L 1526.4468 191.91456 L 1533.6071 191.23946 L 1537.8751 193.77387 L 1542.6464 196.05854 L 1537.3005 198.7887 L 1538.0944 205.02792 L 1534.4791 205.61467 L 1540.8984 207.71738 L 1539.9274 211.63846 L 1535.497 214.00558 L 1535.3884 219.12952 L 1490.8425 250.86087 L 1497.7227 280.74937 L 1509.21 292.45241 L 1457.6442 335.23922 L 1454.9255 330.08297 L 1453.0505 328.77047 L 1453.4255 326.77047 L 1455.2068 320.30172 L 1435.7068 317.30172 L 1432.3942 316.02047 L 1432.3942 316.02142 L 1432.3942 316.02142 L 1432.3942 316.02142 L 1428.3318 321.64642 L 1414.2692 336.67767 L 1385.2068 336.99017 L 1385.2218 337.00017 L 1385.5655 336.09392 L 1385.3155 335.18767 L 1384.4006 334.21921 L 1385.3068 334.03171 L 1385.8381 333.75046 L 1386.7443 333.84416 L 1387.0881 332.93791 L 1387.6193 332.12541 L 1387.9006 331.25041 L 1387.9006 330.34416 L 1387.4631 329.96916 L 1387.7131 327.28166 L 1387.8071 327.18796 L 1387.6196 325.65671 L 1387.4634 325.21921 L 1387.4634 325.12551 L 1387.2759 324.21926 L 1386.5571 322.50051 L 1387.0884 322.15676 L 1387.9946 322.06306 L 1388.9009 321.68806 L 1390.1509 320.43806 L 1390.2449 320.06306 L 1391.1512 320.25056 L 1391.2452 320.34426 L 1395.089 321.34426 L 1395.6515 321.53176 L 1396.2765 321.06301 L 1396.4327 319.28176 L 1396.9015 318.71926 L 1397.8077 318.37551 L 1397.9037 318.18801 L 1398.2475 316.65676 L 1398.9663 316.12551 L 1399.7787 314.59426 L 1400.1537 313.78176 L 1400.0577 312.78176 L 1400.2452 312.43801 L 1400.4952 312.25051 L 1400.6827 311.00051 L 1401.0577 309.90676 L 1401.4015 309.56301 L 1401.3075 308.18801 L 1403.37 306.93801 L 1403.8388 306.21926 L 1403.6513 305.31301 L 1403.5573 304.87551 L 1403.1823 304.50051 L 1403.9323 302.62551 L 1403.1198 302.09426 L 1402.4948 302.00056 L 1402.4008 301.90686 L 1401.4945 302.15686 L 1400.7758 302.25056 L 1400.307 302.71931 L 1399.3383 302.71931 L 1398.432 303.53181 L 1398.1508 303.78181 L 1396.3695 303.59431 L 1395.4633 304.15681 L 1394.307 305.06306 L 1393.557 305.93806 L 1392.8383 305.78181 L 1391.932 306.03181 L 1390.1508 306.12551 L 1388.9008 305.78176 L 1387.9945 305.78176 L 1386.9945 306.12551 L 1386.807 306.12551 L 1386.2758 305.84426 L 1386.1818 304.96926 L 1385.3068 304.06301 L 1385.3688 303.25051 L 1385.8376 302.25051 L 1385.4626 301.34426 L 1384.8376 300.90676 L 1384.6501 299.90676 L 1384.838 299.03144 Z"/>
    <path id="path120756" fill="#3e73c5" fill-opacity="0.42857145" stroke="#000000" stroke-opacity="0.24675323" stroke-linecap="round" stroke-linejoin="round" transform="matrix(1 0 0 1 0.5 1.2670726)" d="M 1492.647 545.45895 L 1492.647 499.02145 L 1509.3658 499.02145 L 1509.21 292.5527 L 1509.21 292.5527 L 1457.6474 335.27145 L 1457.6474 335.24025 L 1439.8974 349.8965 L 1439.8973 407.17775 L 1439.8973 466.22082 L 1409.7103 466.22082 L 1409.7103 519.8965 L 1439.8974 519.8965 L 1439.8974 545.67775 L 1432.7724 556.55275 L 1432.7104 574.3965 L 1431.9604 576.36525 L 1432.7728 577.86525 L 1432.9291 589.74025 L 1439.8978 591.834 L 1440.0854 595.5215 L 1439.5541 595.5215 L 1439.1791 596.1465 L 1438.3041 596.959 L 1438.0228 598.86525 L 1437.3978 600.6465 L 1437.4918 601.6465 L 1436.5856 601.92775 L 1435.773 603.80275 L 1436.5856 604.084 L 1437.4918 604.80275 L 1436.5856 604.99025 L 1435.6793 605.86525 L 1436.0543 607.7715 L 1435.5856 608.30275 L 1435.2418 609.209 L 1435.1478 610.209 L 1435.5854 611.084 L 1435.6794 611.99025 L 1435.3981 612.8965 L 1435.4921 613.80275 L 1436.0546 615.584 L 1435.1483 617.834 L 1434.7733 619.74025 L 1434.9609 620.6465 L 1433.8671 623.61525 L 1432.9921 624.7715 L 1432.4296 626.584 L 1431.7109 627.55275 L 1430.1171 628.2715 L 1428.3046 628.459 L 1427.2109 627.74025 L 1426.8671 627.64655 L 1425.9609 627.02155 L 1425.0546 626.7403 L 1424.6171 626.39655 L 1424.3359 625.4903 L 1423.7109 624.58405 L 1422.8046 624.4278 L 1421.9296 623.95905 L 1420.9296 623.95905 L 1419.9296 623.70905 L 1419.0233 622.8028 L 1419.0233 623.14655 L 1418.8671 622.8653 L 1418.8671 668.7403 L 1419.0233 668.7403 L 1419.0233 668.7713 L 1431.7109 668.7713 L 1432.9921 668.9589 C 1432.9921 682.4566 1432.9922 695.9598 1432.9921 709.4589 L 1432.8046 709.2713 L 1432.8046 730.8651 L 1433.5233 731.2401 L 1435.3046 732.6776 L 1436.2109 731.9589 L 1437.2109 732.0529 L 1438.1171 732.5842 L 1439.8983 732.5842 L 1439.8983 854.5842 L 1509.3671 854.6152 L 1509.2243 598.62544 L 1492.6483 581.31244 Z"/>
    <path id="path2577" fill="#3e73c5" fill-opacity="0.42857145" stroke="#000000" stroke-opacity="0.24675323" stroke-linecap="round" stroke-linejoin="round" transform="matrix(1 0 0 1 0.5 1.2670726)" d="M 1440.1149 596.08395 L 1440.1459 596.4902 L 1439.8959 596.4277 L 1440.1147 596.08395 Z"/>
    <path id="path120860" fill="#8cce55" stroke="#0f380f" stroke-opacity="0.14509804" stroke-linecap="round" stroke-linejoin="round" transform="matrix(1 0 0 1 0.5 1.2670726)" d="M 1450.8438 446.28125 C 1449.6063 446.28125 1448.5938 447.28875 1448.5938 448.53125 C 1448.5938 449.77375 1449.6063 450.78125 1450.8438 450.78125 C 1450.6509 451.11254 1450.5625 451.49584 1450.5625 451.90625 C 1450.5625 453.14875 1451.5751 454.15625 1452.8125 454.15625 C 1454.0625 454.15625 1455.0625 453.14875 1455.0625 451.90625 C 1455.0625 450.66375 1454.0625 449.65625 1452.8125 449.65625 C 1453.0038 449.32496 1453.0938 448.94166 1453.0938 448.53125 C 1453.0938 447.28875 1452.0938 446.28125 1450.8438 446.28125 Z"/>
    <path id="path120858" fill="#8cce55" stroke="#0f380f" stroke-opacity="0.14509804" stroke-linecap="round" stroke-linejoin="round" transform="matrix(1 0 0 1 0.5 1.2670726)" d="M 1451.625 454.75 C 1450.3876 454.75 1449.375 455.7575 1449.375 457 C 1449.375 458.2425 1450.3876 459.25 1451.625 459.25 C 1452.875 459.25 1453.875 458.2425 1453.875 457 C 1453.875 455.7575 1452.875 454.75 1451.625 454.75 Z"/>
    <path id="path120856" fill="#8cce55" stroke="#0f380f" stroke-opacity="0.14509804" stroke-linecap="round" stroke-linejoin="round" transform="matrix(1 0 0 1 0.5 1.2670726)" d="M 1455.5312 457.875 C 1454.2812 457.875 1453.2812 458.8825 1453.2812 460.125 C 1453.2812 461.32681 1454.2142 462.31197 1455.4062 462.375 C 1454.4189 462.61126 1453.6875 463.5005 1453.6875 464.5625 C 1453.6875 465.805 1454.7001 466.8125 1455.9375 466.8125 C 1457.1875 466.8125 1458.1875 465.805 1458.1875 464.5625 C 1458.1875 463.33104 1457.2029 462.33018 1455.9688 462.3125 C 1456.9914 462.10267 1457.7812 461.21219 1457.7812 460.125 C 1457.7812 458.8825 1456.7688 457.875 1455.5312 457.875 Z"/>
    <path id="path120854" fill="#8cce55" stroke="#0f380f" stroke-opacity="0.14509804" stroke-linecap="round" stroke-linejoin="round" transform="matrix(1 0 0 1 0.5 1.2670726)" d="M 1455.7812 467 C 1454.5312 467 1453.5312 468.0075 1453.5312 469.25 C 1453.5312 470.4925 1454.5312 471.5 1455.7812 471.5 C 1457.0188 471.5 1458.0312 470.4925 1458.0312 469.25 C 1458.0312 468.0075 1457.0188 467 1455.7812 467 Z"/>
    <path id="path120852" fill="#8cce55" stroke="#0f380f" stroke-opacity="0.14509804" stroke-linecap="round" stroke-linejoin="round" transform="matrix(1 0 0 1 0.5 1.2670726)" d="M 1455.7812 472.625 C 1454.5312 472.625 1453.5312 473.6325 1453.5312 474.875 C 1453.5312 476.1175 1454.5312 477.125 1455.7812 477.125 C 1457.0188 477.125 1458.0312 476.1175 1458.0312 474.875 C 1458.0312 473.6325 1457.0188 472.625 1455.7812 472.625 Z"/>
    <path id="path120850" fill="#8cce55" stroke="#0f380f" stroke-opacity="0.14509804" stroke-linecap="round" stroke-linejoin="round" transform="matrix(1 0 0 1 0.5 1.2670726)" d="M 1453.125 477 C 1451.8876 477 1450.875 478.0075 1450.875 479.25 C 1450.875 480.4925 1451.8876 481.5 1453.125 481.5 C 1454.375 481.5 1455.375 480.4925 1455.375 479.25 C 1455.375 478.0075 1454.375 477 1453.125 477 Z"/>
    <path id="path120848" fill="#8cce55" stroke="#0f380f" stroke-opacity="0.14509804" stroke-linecap="round" stroke-linejoin="round" transform="matrix(1 0 0 1 0.5 1.2670726)" d="M 1450.625 482.25 L 1449.7188 482.875 L 1450.1875 483.84375 Z"/>
    <path id="path120846" fill="#8cce55" stroke="#0f380f" stroke-opacity="0.14509804" stroke-linecap="round" stroke-linejoin="round" transform="matrix(1 0 0 1 0.5 1.2670726)" d="M 1427.25 497.09375 C 1426.0126 497.09375 1425 498.10125 1425 499.34375 C 1425 500.58625 1426.0126 501.59375 1427.25 501.59375 C 1428.0153 501.59375 1428.6567 501.20289 1429.0625 500.625 C 1429.321 501.5844 1430.1825 502.28125 1431.2188 502.28125 C 1432.456 502.28125 1433.4688 501.275 1433.4688 500.03125 C 1433.4688 498.78875 1432.456 497.78125 1431.2188 497.78125 C 1430.4612 497.78125 1429.8148 498.17247 1429.4062 498.75 C 1429.1503 497.79105 1428.2965 497.09375 1427.25 497.09375 Z"/>
    <path id="path120844" fill="#8cce55" stroke="#0f380f" stroke-opacity="0.14509804" stroke-linecap="round" stroke-linejoin="round" transform="matrix(1 0 0 1 0.5 1.2670726)" d="M 1483.0312 503 C 1481.7812 503 1480.7812 504.0075 1480.7812 505.25 C 1480.7812 506.49375 1481.7812 507.5 1483.0312 507.5 C 1484.2688 507.5 1485.2812 506.49375 1485.2812 505.25 C 1485.2812 504.0075 1484.2688 503 1483.0312 503 Z"/>
    <path id="path120842" fill="#8cce55" stroke="#0f380f" stroke-opacity="0.14509804" stroke-linecap="round" stroke-linejoin="round" transform="matrix(1 0 0 1 0.5 1.2670726)" d="M 1417.7188 504.125 C 1416.4688 504.125 1415.4688 505.1325 1415.4688 506.375 C 1415.4688 507.6175 1416.4688 508.625 1417.7188 508.625 C 1418.9561 508.625 1419.9688 507.6175 1419.9688 506.375 C 1419.9688 505.1325 1418.9561 504.125 1417.7188 504.125 Z"/>
    <path id="path120840" fill="#8cce55" stroke="#0f380f" stroke-opacity="0.14509804" stroke-linecap="round" stroke-linejoin="round" transform="matrix(1 0 0 1 0.5 1.2670726)" d="M 1430.7812 505.4375 C 1429.5312 505.4375 1428.5312 506.445 1428.5312 507.6875 C 1428.5312 508.93 1429.5312 509.9375 1430.7812 509.9375 C 1432.0187 509.9375 1433.0312 508.93 1433.0312 507.6875 C 1433.0312 506.445 1432.0187 505.4375 1430.7812 505.4375 Z"/>
    <path id="path120838" fill="#8cce55" stroke="#0f380f" stroke-opacity="0.14509804" stroke-linecap="round" stroke-linejoin="round" transform="matrix(1 0 0 1 0.5 1.2670726)" d="M 1463.9688 505.6875 C 1462.7188 505.6875 1461.7188 506.695 1461.7188 507.9375 C 1461.7188 508.09281 1461.7194 508.22854 1461.7498 508.375 C 1461.4704 508.2503 1461.168 508.1875 1460.8436 508.1875 C 1459.9713 508.1875 1459.2176 508.68801 1458.8436 509.40625 C 1458.4676 509.12316 1458.0099 508.9375 1457.4998 508.9375 C 1456.2623 508.9375 1455.2498 509.945 1455.2498 511.1875 C 1455.2498 512.43 1456.2623 513.4375 1457.4998 513.4375 C 1458.3717 513.4375 1459.0945 512.93699 1459.4686 512.21875 C 1459.8453 512.50431 1460.3309 512.6875 1460.8436 512.6875 C 1462.0809 512.6875 1463.0936 511.68 1463.0936 510.4375 C 1463.0936 510.28219 1463.0616 510.11521 1463.0306 509.96875 C 1463.3161 510.09945 1463.6319 510.1875 1463.9682 510.1875 C 1465.2054 510.1875 1466.2182 509.18 1466.2182 507.9375 C 1466.2182 506.695 1465.2054 505.6875 1463.9682 505.6875 Z"/>
    <path id="path120836" fill="#8cce55" stroke="#0f380f" stroke-opacity="0.14509804" stroke-linecap="round" stroke-linejoin="round" transform="matrix(1 0 0 1 0.5 1.2670726)" d="M 1446.625 509.1875 C 1445.375 509.1875 1444.375 510.195 1444.375 511.4375 C 1444.375 512.68 1445.375 513.6875 1446.625 513.6875 C 1447.8625 513.6875 1448.875 512.68 1448.875 511.4375 C 1448.875 510.195 1447.8625 509.1875 1446.625 509.1875 Z"/>
    <path id="path120834" fill="#8cce55" stroke="#0f380f" stroke-opacity="0.14509804" stroke-linecap="round" stroke-linejoin="round" transform="matrix(1 0 0 1 0.5 1.2670726)" d="M 1486 510.8125 C 1484.7625 510.8125 1483.75 511.82 1483.75 513.0625 C 1483.75 514.30625 1484.7625 515.3125 1486 515.3125 C 1487.25 515.3125 1488.25 514.30625 1488.25 513.0625 C 1488.25 511.82 1487.25 510.8125 1486 510.8125 Z"/>
    <path id="path120832" fill="#8cce55" stroke="#0f380f" stroke-opacity="0.14509804" stroke-linecap="round" stroke-linejoin="round" transform="matrix(1 0 0 1 0.5 1.2670726)" d="M 1442.5625 512.21875 C 1441.3125 512.21875 1440.3125 513.22625 1440.3125 514.46875 C 1440.3125 515.71125 1441.3125 516.71875 1442.5625 516.71875 C 1443.8 516.71875 1444.8125 515.71125 1444.8125 514.46875 C 1444.8125 513.22625 1443.8 512.21875 1442.5625 512.21875 Z"/>
    <path id="path120830" fill="#8cce55" stroke="#0f380f" stroke-opacity="0.14509804" stroke-linecap="round" stroke-linejoin="round" transform="matrix(1 0 0 1 0.5 1.2670726)" d="M 1489.75 515.53125 C 1488.5125 515.53125 1487.5 516.53875 1487.5 517.78125 C 1487.5 519.02375 1488.5125 520.03125 1489.75 520.03125 C 1491 520.03125 1492 519.02375 1492 517.78125 C 1492 516.53875 1491 515.53125 1489.75 515.53125 Z"/>
    <path id="path120828" fill="#8cce55" stroke="#0f380f" stroke-opacity="0.14509804" stroke-linecap="round" stroke-linejoin="round" transform="matrix(1 0 0 1 0.5 1.2670726)" d="M 1472.5 552.34375 L 1473.375 552.96875 L 1473.375 552.34375 Z"/>
    <path id="path120826" fill="#8cce55" stroke="#0f380f" stroke-opacity="0.14509804" stroke-linecap="round" stroke-linejoin="round" transform="matrix(1 0 0 1 0.5 1.2670726)" d="M 1459.9062 554.59375 L 1458.9062 554.875 L 1458.625 555.75 L 1458.719 555.8437 L 1459.6252 555.4062 L 1460.6252 555.6562 L 1461.5002 555.6562 L 1462.4064 555.0312 L 1462.594 554.5937 L 1461.6877 554.7812 L 1459.9064 554.5937 Z"/>
    <path id="path120824" fill="#8cce55" stroke="#0f380f" stroke-opacity="0.14509804" stroke-linecap="round" stroke-linejoin="round" transform="matrix(1 0 0 1 0.5 1.2670726)" d="M 1475.5625 556.46875 L 1474.6562 556.9375 L 1474.6562 557.125 L 1475.8125 557.90625 L 1476.8125 557.84375 L 1476.4375 556.9375 Z"/>
    <path id="path120822" fill="#8cce55" stroke="#0f380f" stroke-opacity="0.14509804" stroke-linecap="round" stroke-linejoin="round" transform="matrix(1 0 0 1 0.5 1.2670726)" d="M 1433 557.5625 L 1432.7812 557.5937 L 1432.7192 574.4062 L 1431.9692 576.37495 L 1432.7816 577.87495 L 1432.9066 587.81245 L 1433.0006 587.87495 L 1433.8756 588.43745 L 1434.8756 588.06245 L 1435.7818 588.43745 L 1438.5631 588.06245 L 1440.5631 588.87495 L 1442.3444 587.7812 L 1443.3444 587.5312 L 1444.0631 586.62495 L 1443.6881 585.81245 L 1442.8131 584.9062 L 1441.0006 584.18745 L 1440.0944 584.28115 L 1440.0004 584.18745 L 1439.1879 583.56245 L 1441.0004 583.93745 L 1441.9066 584.18745 L 1444.5942 583.8437 L 1444.9692 583.31245 L 1444.2504 582.4062 L 1444.7816 582.6562 L 1445.6879 582.8437 L 1446.5629 582.6562 L 1445.7504 580.7812 L 1445.2192 580.06245 L 1446.2192 581.06245 L 1447.1254 581.49995 L 1447.6566 581.59365 L 1447.9379 581.40615 L 1448.0942 580.96865 L 1448.4692 581.1249 L 1448.9066 581.1249 L 1448.7504 580.40615 L 1449.3754 580.40615 L 1450.2504 581.0624 L 1450.8129 580.6874 L 1450.8129 581.59365 L 1454.0629 582.40615 L 1454.9379 582.31245 L 1455.9379 582.8437 L 1456.8442 583.6562 L 1457.3754 584.37495 L 1457.9066 585.4687 L 1458.7192 586.3437 L 1458.8132 587.24995 L 1459.7195 587.62495 L 1460.6257 587.43745 L 1460.6877 587.62495 L 1460.2502 588.5312 L 1460.969 589.4062 L 1462.0627 589.7812 L 1462.8752 590.68745 L 1463.3127 591.56245 L 1463.844 592.0312 L 1465.2814 592.74995 L 1466.094 592.37495 L 1467.0002 592.8437 L 1468.0002 592.8437 L 1468.8752 592.6562 L 1469.7814 593.2812 L 1470.6877 593.1875 L 1472.5002 593.75 L 1473.219 593.5625 L 1475.0002 594.1875 L 1474.6564 594.46875 L 1474.6564 594.625 L 1475.5627 595.28125 L 1476.5314 595.28125 L 1477.4377 594.8125 L 1476.719 593.90625 L 1478.6252 593.1875 L 1477.6252 593.2812 L 1474.6564 592.37495 L 1474.0314 592.0312 L 1473.5002 591.12495 L 1474.6564 590.7812 L 1474.6564 590.31245 L 1472.1252 590.12495 L 1471.2502 589.68745 L 1471.0627 588.7812 L 1471.4064 587.87495 L 1470.5002 587.3437 L 1468.6252 587.7812 L 1467.8127 586.9062 L 1467.5627 585.99995 L 1466.5627 585.37495 L 1466.094 583.31245 L 1465.469 582.93745 L 1465.2814 582.6562 L 1464.4064 582.4062 L 1462.594 580.5937 L 1461.6877 580.1562 L 1461.0627 578.3437 L 1460.5314 577.43745 L 1460.6254 576.81245 L 1461.5004 576.71875 L 1463.3129 576.90625 L 1464.2192 576.71875 L 1464.6566 575.84375 L 1464.5626 574.9375 L 1463.0626 573.3125 L 1462.1563 573.125 L 1461.2501 573.2187 L 1460.3439 572.5937 L 1459.8126 572.5 L 1458.0001 571.5 L 1456.1876 570.96875 L 1455.3126 570.87505 L 1455.0313 569.9688 L 1455.2189 568.18755 L 1453.5939 566.37505 L 1452.6876 565.8438 L 1451.6876 565.6563 L 1450.9063 564.5938 L 1449.5626 564.0313 L 1449.3751 563.31255 L 1448.4689 563.1563 L 1447.3751 563.1563 L 1446.4063 562.68755 L 1444.5939 561.43755 C 1439.3747 560.94255 1437.0012 558.76005 1433.0001 557.56255 Z"/>
    <path id="path120820" fill="#8cce55" stroke="#0f380f" stroke-opacity="0.14509804" stroke-linecap="round" stroke-linejoin="round" transform="matrix(1 0 0 1 0.5 1.2670726)" d="M 1478.9688 557.84375 L 1478.0625 558.09375 L 1479.0625 558.375 L 1479.9688 558.8125 L 1483.5625 561.4375 L 1484.4688 561.6875 L 1485.375 562.34375 L 1486.7188 564.125 L 1487.1562 565.03125 L 1487.2502 566.84375 L 1487.969 567.71875 L 1488.7814 567 L 1489.1252 565.21875 L 1488.4377 564.3125 L 1487.5314 563.59375 L 1487.0627 563.40625 C 1485.1214 560.90375 1481.6825 559.35 1478.969 557.84375 Z"/>
    <path id="path120818" fill="#8cce55" stroke="#0f380f" stroke-opacity="0.14509804" stroke-linecap="round" stroke-linejoin="round" transform="matrix(1 0 0 1 0.5 1.2670726)" d="M 1482.75 565.03125 L 1481.8438 565.75 L 1482.375 567.5625 L 1482.313 568.4375 L 1480.938 568.4375 L 1480.063 569.15625 L 1478.688 570.96875 L 1477.813 571.25 L 1477.0005 570.78125 L 1476.0943 571.34375 L 1475.188 570.78125 L 1474.75 569 L 1474.656 569.875 L 1474.3748 570.15625 L 1474.2808 571.0625 L 1473.3746 571.34375 L 1472.4996 571.25005 L 1472.4056 571.4063 L 1471.4994 571.4063 L 1470.5932 571.1563 L 1468.7182 570.9688 L 1466.9056 571.50005 L 1467.6244 572.4063 L 1468.5306 572.68755 L 1470.2494 573.6563 L 1471.1244 573.8438 L 1472.0306 573.7501 L 1472.8432 574.65635 L 1476.4369 574.65635 L 1477.3432 574.21885 L 1478.2494 574.03135 C 1479.1994 573.1251 1480.6304 573.41885 1481.8432 571.2501 L 1483.6556 571.2501 L 1484.5619 570.53135 L 1483.9994 569.6251 L 1484.4682 568.71885 L 1485.3744 568.28135 L 1485.8119 567.3751 L 1485.5306 566.46885 L 1485.5306 565.65635 L 1484.5619 565.03135 L 1483.6556 565.5626 L 1482.7494 565.03135 Z"/>
    <path id="path120814" fill="#8cce55" stroke="#0f380f" stroke-opacity="0.14509804" stroke-linecap="round" stroke-linejoin="round" transform="matrix(1 0 0 1 0.5 1.2670726)" d="M 1460.8125 569.875 L 1461.4375 570.78125 L 1461.6875 569.875 Z"/>
    <path id="path120810" fill="#8cce55" stroke="#0f380f" stroke-opacity="0.14509804" stroke-linecap="round" stroke-linejoin="round" transform="matrix(1 0 0 1 0.5 1.2670726)" d="M 1465.375 571.34375 L 1464.4062 571.78125 L 1465.375 572.6875 L 1465.6562 572.21875 Z"/>
    <path id="path120808" fill="#8cce55" stroke="#0f380f" stroke-opacity="0.14509804" stroke-linecap="round" stroke-linejoin="round" transform="matrix(1 0 0 1 0.5 1.2670726)" d="M 1444.875 584.375 L 1443.9688 584.65625 L 1444.875 585 Z"/>
    <path id="path120806" fill="#8cce55" stroke="#0f380f" stroke-opacity="0.14509804" stroke-linecap="round" stroke-linejoin="round" transform="matrix(1 0 0 1 0.5 1.2670726)" d="M 1479.5 584.75 L 1479.9688 586.53125 L 1479.8748 585.625 L 1479.4998 584.75 Z"/>
    <path id="path120804" fill="#8cce55" stroke="#0f380f" stroke-opacity="0.14509804" stroke-linecap="round" stroke-linejoin="round" transform="matrix(1 0 0 1 0.5 1.2670726)" d="M 1443.3438 584.90625 L 1445.125 586.09375 L 1445.125 585.71875 L 1444.25 585.09375 Z"/>
    <path id="path120802" fill="#8cce55" stroke="#0f380f" stroke-opacity="0.14509804" stroke-linecap="round" stroke-linejoin="round" transform="matrix(1 0 0 1 0.5 1.2670726)" d="M 1487.7812 587.34375 L 1486.875 587.625 L 1487.7812 588.4375 L 1488.3125 588.25 Z"/>
    <path id="path120800" fill="#8cce55" stroke="#0f380f" stroke-opacity="0.14509804" stroke-linecap="round" stroke-linejoin="round" transform="matrix(1 0 0 1 0.5 1.2670726)" d="M 1476.1875 588.59375 L 1475.2812 589.15625 L 1476.1875 589.78125 Z"/>
    <path id="path120798" fill="#8cce55" stroke="#0f380f" stroke-opacity="0.14509804" stroke-linecap="round" stroke-linejoin="round" transform="matrix(1 0 0 1 0.5 1.2670726)" d="M 1477.5312 589.25 L 1476.625 589.40625 L 1476.719 590.3125 L 1477.719 590.4062 L 1478.6252 590.68745 L 1478.969 590.4062 L 1478.4377 589.4062 L 1477.5314 589.24995 Z"/>
    <path id="path120796" fill="#8cce55" stroke="#0f380f" stroke-opacity="0.14509804" stroke-linecap="round" stroke-linejoin="round" transform="matrix(1 0 0 1 0.5 1.2670726)" d="M 1478.3438 591.125 L 1478.875 592.03125 L 1479.25 592.03125 L 1479.4375 592.5625 L 1480.3125 592.9375 L 1480.5938 592.03125 L 1479.5 592.03125 L 1479.25 591.5625 Z"/>
    <path id="path120794" fill="#8cce55" stroke="#0f380f" stroke-opacity="0.14509804" stroke-linecap="round" stroke-linejoin="round" transform="matrix(1 0 0 1 0.5 1.2670726)" d="M 1486.4375 595 L 1487.3438 595.34375 L 1487.4378 595 L 1486.4378 595 Z"/>
    <path id="path120792" fill="#8cce55" stroke="#0f380f" stroke-opacity="0.14509804" stroke-linecap="round" stroke-linejoin="round" transform="matrix(1 0 0 1 0.5 1.2670726)" d="M 1440.0938 595.5 L 1440.0938 595.5312 L 1439.5625 595.5312 L 1439.1875 596.1562 L 1438.3125 596.9687 L 1438.0312 598.87495 L 1437.4062 600.6562 L 1437.5002 601.6562 L 1436.594 601.93745 L 1435.7814 603.81245 L 1436.594 604.0937 L 1437.5002 604.81245 L 1436.594 604.99995 L 1435.6877 605.87495 L 1436.0627 607.7812 L 1435.594 608.31245 L 1435.2502 609.2187 L 1435.1562 610.2187 L 1435.5938 611.0937 L 1435.6878 611.99995 L 1435.4065 612.9062 L 1435.5005 613.81245 L 1436.063 615.5937 L 1435.1567 617.8437 L 1434.7817 619.74995 L 1434.9693 620.6562 L 1433.8755 623.62495 L 1433.0005 624.7812 L 1432.438 626.5937 L 1431.7193 627.56245 L 1430.1255 628.2812 L 1428.313 628.4687 L 1427.2193 627.74995 L 1426.8755 627.65625 L 1425.9693 627.03125 L 1425.063 626.75 L 1424.6255 626.40625 L 1424.3443 625.5 L 1423.7193 624.59375 L 1422.813 624.4375 L 1421.938 623.96875 L 1420.938 623.96875 L 1419.938 623.71875 L 1419.0317 622.8125 L 1419.0317 623.15625 L 1418.9067 622.9375 L 1418.8757 623 L 1418.8754 668.75 L 1419.0316 668.75 L 1419.0317 668.7808 L 1433.0007 668.7808 C 1433.0007 682.2785 1433.0005 695.96958 1433.0004 709.46868 L 1432.8127 709.2808 L 1432.8127 730.8748 L 1433.5004 731.21868 L 1433.5314 731.24988 L 1435.2814 732.65613 L 1436.1877 731.93738 L 1437.1877 732.03108 L 1437.2187 732.06228 L 1438.0937 732.56228 L 1439.8749 732.56228 L 1439.9059 732.59348 L 1440.7809 733.18723 L 1443.5935 734.62473 L 1444.6559 735.15598 L 1445.5622 734.37473 L 1448.5309 732.18723 L 1449.4059 732.03098 L 1448.5309 731.40598 L 1449.4059 730.74973 L 1451.2185 729.87473 L 1451.8435 730.65598 L 1451.8435 731.56223 L 1450.7809 732.56223 L 1451.5935 733.18723 L 1452.4685 732.74973 L 1452.6559 731.84348 L 1453.5622 731.74978 L 1453.9059 732.65603 L 1453.7497 733.56228 L 1454.6559 734.09353 L 1455.5309 734.90603 L 1456.4372 734.90603 L 1457.8747 736.68728 L 1458.2497 734.81228 L 1457.3435 735.24978 L 1457.1559 734.37478 L 1458.0622 734.43728 L 1458.9685 734.18728 L 1459.9685 734.18728 C 1467.4359 725.73848 1469.1523 732.23618 1474.5309 727.87478 L 1474.4369 726.96853 L 1474.6244 726.53103 L 1474.6244 725.99978 L 1474.2494 725.09353 L 1474.3434 724.09353 L 1475.2496 721.59353 L 1475.1556 720.68728 L 1475.3432 719.78103 L 1476.8744 716.18728 L 1477.8432 715.56228 L 1478.1244 714.65603 L 1478.3119 714.56233 L 1478.1244 713.65608 L 1478.6556 712.74983 L 1479.0306 710.96858 L 1479.9369 710.06233 L 1480.0932 709.15608 L 1480.6556 708.18733 L 1480.6556 707.43733 L 1481.3744 706.46858 L 1481.7182 705.56233 L 1482.9994 703.74983 L 1484.7806 702.78108 L 1485.4056 701.87483 L 1486.4056 701.24983 L 1486.4056 699.43733 L 1487.6556 697.65608 L 1488.2806 695.74983 L 1488.7494 693.96858 L 1488.5619 692.15608 L 1489.5619 688.81233 L 1489.9056 687.84358 L 1490.1869 685.12483 L 1490.5306 684.15608 L 1491.1869 683.24983 L 1491.3432 682.34358 L 1491.1869 681.43733 L 1491.2809 680.53108 L 1491.1869 679.65608 L 1490.9056 679.46858 L 1490.3744 678.46858 L 1490.3744 677.56233 L 1489.3744 675.78108 L 1489.0932 674.78108 L 1489.4682 673.87483 L 1489.1869 672.99983 L 1488.8432 670.18733 L 1489.4682 668.40608 L 1488.5619 667.84358 L 1488.4056 667.59358 L 1488.0306 666.68733 L 1488.2182 665.68733 C 1485.1619 664.14363 1487.2907 662.73228 1484.8744 662.18733 L 1484.0619 661.18733 L 1483.4369 659.59358 L 1482.5306 658.84358 L 1481.2806 658.84358 L 1479.9369 657.59358 L 1479.3119 656.68733 L 1478.4056 656.43733 L 1478.6556 656.43733 L 1478.1244 654.62483 L 1478.0304 653.71858 L 1478.4054 652.74983 L 1477.968 651.84358 L 1478.03 651.31233 L 1477.155 651.03108 L 1477.3113 652.03108 L 1475.53 650.74983 L 1474.6238 649.84358 L 1474.2488 650.59358 L 1474.6238 651.46858 L 1474.6238 652.03108 L 1474.0926 651.31233 L 1473.1863 651.37483 L 1472.7176 650.49983 L 1472.1863 648.68733 L 1472.2803 646.87483 L 1471.3741 646.43733 L 1471.2801 645.53108 L 1470.9364 645.28108 L 1470.7489 644.37483 L 1468.9677 643.03108 L 1468.4989 642.12483 L 1469.4051 641.59358 L 1469.0301 640.68733 L 1468.1551 640.31233 L 1467.2489 640.31233 L 1466.5927 639.40608 L 1465.9051 639.06233 L 1464.9989 638.87483 L 1464.5301 637.96858 L 1463.6551 638.34358 L 1462.9051 636.62483 L 1462.0301 636.62483 L 1460.2177 636.09358 L 1458.4051 634.99983 L 1457.5301 634.18733 L 1457.4361 633.31233 L 1457.6236 632.40608 L 1456.9674 631.78108 L 1456.1548 630.87483 L 1456.7174 628.09358 L 1455.5298 625.37483 L 1455.9048 624.46858 L 1454.9986 624.74983 L 1454.8736 624.31233 L 1453.3424 622.49983 L 1453.5298 620.68733 L 1453.0924 619.81233 L 1453.0924 618.90608 L 1452.6236 617.99983 L 1452.7486 617.09358 L 1452.5611 616.18733 L 1453.0298 615.21858 L 1451.5924 614.59358 L 1450.8736 613.68733 L 1449.9674 613.40608 L 1449.4048 612.49983 L 1449.2486 611.62483 L 1448.3424 612.24983 L 1446.5298 613.15608 L 1445.6548 612.34358 L 1445.4674 611.43733 L 1444.9361 610.34358 L 1444.6548 609.46858 L 1444.8424 608.56233 L 1444.6548 607.65608 L 1444.5298 605.74983 L 1443.9048 604.87483 L 1443.6236 603.96858 L 1442.5611 602.15608 L 1443.2798 601.24983 L 1442.4674 600.99983 L 1441.5611 600.18733 L 1441.3111 597.49983 L 1440.7486 596.59358 L 1440.1548 596.46858 L 1440.1548 596.49978 L 1439.9048 596.43728 L 1439.9048 596.40608 L 1439.8428 596.40608 L 1440.4052 595.49983 L 1440.0928 595.49983 Z"/>
    <path id="path120790" fill="#8cce55" stroke="#0f380f" stroke-opacity="0.14509804" stroke-linecap="round" stroke-linejoin="round" transform="matrix(1 0 0 1 0.5 1.2670726)" d="M 1489.4062 598.40625 L 1490.3125 599.3125 L 1491.2188 599.6875 L 1492.1875 599.5 L 1490.3125 598.59375 Z"/>
    <path id="path120788" fill="#8cce55" stroke="#0f380f" stroke-opacity="0.14509804" stroke-linecap="round" stroke-linejoin="round" transform="matrix(1 0 0 1 0.5 1.2670726)" d="M 1456.6562 631.25 L 1457.4688 632.15625 L 1457.5628 631.53125 L 1456.6565 631.25 Z"/>
    <path id="path120786" fill="#8cce55" stroke="#0f380f" stroke-opacity="0.14509804" stroke-linecap="round" stroke-linejoin="round" transform="matrix(1 0 0 1 0.5 1.2670726)" d="M 1479.5938 656.90625 L 1480.3125 657.8125 L 1480.5 657.28125 Z"/>
    <path id="path120784" fill="#8cce55" stroke="#0f380f" stroke-opacity="0.14509804" stroke-linecap="round" stroke-linejoin="round" transform="matrix(1 0 0 1 0.5 1.2670726)" d="M 1489.875 663.125 L 1489.5938 664.09375 L 1488.6875 664.84375 L 1488.7815 665.71875 L 1488.3128 666.625 L 1488.6878 667.625 L 1488.9691 667.7187 L 1489.0631 666.81245 L 1490.2194 664.0937 L 1489.8756 663.12495 Z"/>
    <path id="path120782" fill="#8cce55" stroke="#0f380f" stroke-opacity="0.14509804" stroke-linecap="round" stroke-linejoin="round" transform="matrix(1 0 0 1 0.5 1.2670726)" d="M 1490.5 676.4375 L 1490.5 677.34375 L 1490.6875 677.34375 Z"/>
    <path id="path120780" fill="#8cce55" stroke="#0f380f" stroke-opacity="0.14509804" stroke-linecap="round" stroke-linejoin="round" transform="matrix(1 0 0 1 0.5 1.2670726)" d="M 1446.5625 739.53125 L 1446.2188 740.40625 L 1446.3128 741.40625 L 1446.5628 742.03125 L 1447.4691 741.40625 L 1447.3751 740.5 L 1446.5626 739.53125 Z"/>
    <path id="path120778" fill="#8cce55" stroke="#0f380f" stroke-opacity="0.14509804" stroke-linecap="round" stroke-linejoin="round" transform="matrix(1 0 0 1 0.5 1.2670726)" d="M 1465.4688 740.15625 L 1464.5625 740.5 L 1464.9375 741.40625 L 1466 742.84375 L 1466.9062 742.3125 L 1466.75 741.40625 L 1466.1875 741.0625 Z"/>
    <path id="path120776" fill="#8cce55" stroke="#0f380f" stroke-opacity="0.14509804" stroke-linecap="round" stroke-linejoin="round" transform="matrix(1 0 0 1 0.5 1.2670726)" d="M 1467 743.03125 L 1466.0938 743.84375 L 1467 744.125 L 1467.2812 743.9375 Z"/>
    <path id="path120774" fill="#8cce55" stroke="#0f380f" stroke-opacity="0.14509804" stroke-linecap="round" stroke-linejoin="round" transform="matrix(1 0 0 1 0.5 1.2670726)" d="M 1450 745.1875 L 1450.094 746.1875 L 1449.8127 747.09375 L 1451.0627 750.6875 L 1452.594 752.5625 L 1452.594 753.46875 L 1453.5002 754.09375 L 1453.6877 755 L 1452.969 754.09375 L 1452.594 755 L 1453.7814 757.6875 L 1454.6877 758.59375 L 1455.3127 759.5 L 1456.1877 759.875 L 1457.094 759.7813 L 1456.1877 759.93755 L 1456.3127 760.93755 L 1457.1877 760.75005 L 1459.094 761.2188 L 1460.0002 761.6563 L 1460.6877 759.87505 L 1460.6257 758.9688 L 1461.5007 759.50005 L 1461.9695 758.5938 L 1462.3132 757.68755 L 1461.9695 756.81255 L 1462.0635 756.71885 L 1462.9385 757.53135 L 1463.8448 757.43765 L 1464.751 758.06265 L 1463.8448 757.68765 L 1464.2198 758.5939 L 1465.126 759.12515 C 1465.6497 755.73145 1464.2022 756.28265 1466.001 752.75015 L 1466.626 753.6564 L 1466.8135 752.75015 L 1466.7515 746.37515 L 1465.7515 745.6564 L 1464.8453 746.18765 L 1463.939 746.09395 L 1463.064 746.71895 L 1462.1577 746.62525 L 1460.2515 747.00025 L 1460.5327 747.81275 L 1459.6265 747.25025 L 1458.7203 747.719 L 1458.2827 747.719 L 1457.814 747.8127 L 1456.3765 747.4377 L 1455.5015 747.09395 L 1454.5953 746.4377 L 1452.7827 745.71895 L 1451.814 745.81265 L 1450.0015 745.18765 L 1450.0015 745.1875 Z"/>
    <path id="path2531" fill="#8cce55" stroke="#0f380f" stroke-opacity="0.14509804" stroke-linecap="round" stroke-linejoin="round" transform="matrix(1 0 0 1 0.5 1.2670726)" d="M 1462.3125 758.96875 L 1461.4375 760.84375 L 1462.4062 760.40625 L 1462.4062 759.5 L 1462.3122 758.96875 Z"/>
    <path id="path120964-9-8-3" fill="#8cce55" stroke="#0f380f" stroke-opacity="0.14509804" stroke-linecap="round" stroke-linejoin="round" transform="matrix(1 0 0 1 0.5 1.2670726)" d="M 1424.4305 182.86359 L 1422.9194 183.32707 L 1421.6352 182.74274 L 1420.0006 182.81914 L 1419.2518 182.31377 L 1418.5949 182.43392 L 1414.3468 181.56351 L 1410.7714 182.28405 L 1409.0861 184.30036 L 1408.1091 183.99591 L 1407.568 184.54027 L 1406.1187 185.12331 L 1405.4489 184.60669 L 1404.5714 185.4623 L 1404.3398 186.27024 L 1403.0877 188.00388 L 1402.6118 187.53778 L 1399.6034 189.14701 L 1397.8659 188.8085 L 1396.1977 189.41107 L 1395.8298 191.34583 L 1397.189 193.17241 L 1395.0471 193.95583 L 1395.4524 194.87463 L 1394.657 195.34382 L 1394.657 195.34385 L 1394.0321 194.4376 L 1393.0321 194.5313 L 1392.3134 193.9063 L 1392.5009 192.9063 L 1391.5947 191.12505 L 1389.9697 188.4063 L 1389.0634 187.9688 L 1389.5321 187.43755 L 1389.6261 186.9688 L 1389.3449 186.0938 L 1388.4386 185.62505 L 1388.0949 185.53135 L 1386.1886 184.28135 L 1384.6573 183.59385 L 1384.4073 183.46885 L 1384.3453 183.40635 C 1384.3193 183.38945 1384.3073 183.36095 1384.2823 183.34385 L 1383.5949 182.7501 L 1382.9699 181.84385 L 1382.7823 181.2501 L 1382.6883 180.9376 L 1382.532 180.7501 L 1381.968 180.06282 L 1381.968 180.06264 L 1390.9086 175.69334 L 1396.4335 168.25856 L 1396.4485 164.83055 L 1394.4821 161.06194 L 1391.5923 160.0624 L 1391.5923 160.0625 L 1392.2173 159.9688 L 1393.1235 159.3438 L 1393.936 158.4688 L 1394.936 158.00005 L 1394.936 156.56255 L 1395.7485 155.6563 L 1396.7173 154.93755 L 1397.6235 154.84385 L 1397.436 154.1251 L 1396.561 153.6876 L 1396.436 152.78135 L 1395.561 152.15635 L 1396.436 151.34385 L 1396.436 150.4376 L 1396.0923 149.53135 L 1394.4673 149.1876 L 1393.561 149.0001 L 1391.7797 149.0001 L 1391.5923 148.09385 L 1391.8735 147.21885 L 1391.686 146.3126 L 1391.686 145.40635 L 1392.061 144.40635 L 1391.4047 143.5001 L 1390.4985 143.15635 L 1390.3423 143.25005 L 1389.8735 143.25005 L 1390.5923 142.3438 L 1391.5923 141.9063 L 1391.2485 141.00005 L 1391.4985 140.00005 L 1392.4047 138.12505 L 1393.6547 136.2188 L 1394.6547 135.68755 L 1394.7487 136.68755 L 1396.2799 138.4688 L 1397.2487 139.2813 L 1399.1549 140.0938 L 1400.9362 140.5313 L 1403.8425 140.625 L 1403.5612 141.53125 L 1404.0925 140.625 L 1404.0925 140.1875 L 1404.9987 139.375 L 1405.9987 139.09375 L 1406.8737 139.28125 L 1407.7799 138.5625 L 1408.6862 138.28125 L 1409.6862 138.37495 L 1411.5612 138.8437 L 1412.1862 139.37495 L 1413.0925 139.28125 L 1414.0925 139.90625 L 1415.9987 140.71875 L 1416.7799 141.625 L 1417.7799 141.625 L 1416.8737 142 L 1418.7799 142.53125 L 1417.8737 141.90625 L 1419.7487 141.71875 L 1420.7487 141.09375 L 1418.8737 140.8125 L 1419.2175 138.9375 L 1420.1237 138.65625 L 1421.9987 138.375 L 1422.9987 138.5625 L 1423.9049 138.9375 L 1424.2487 139.8125 L 1425.2487 140.1875 L 1426.1549 139.5625 L 1427.1237 139.8125 L 1428.1237 139.65625 L 1428.3112 139.74995 L 1428.0299 139.0937 L 1427.2175 138.2187 L 1426.9675 137.2187 L 1426.9675 136.31245 L 1425.9675 135.5937 L 1426.9675 135.06245 L 1427.4049 134.1562 L 1429.2175 133.43745 L 1428.3112 133.1562 L 1426.8737 133.1562 L 1425.9675 133.7812 L 1424.9675 134.06245 L 1424.0612 133.24995 L 1424.5299 132.2812 L 1426.4362 130.9062 L 1427.3112 130.8125 L 1428.3112 131 L 1430.0299 131 L 1431.9049 130.65625 L 1432.8112 129.84375 L 1432.7172 128.9375 L 1431.7172 128.3125 L 1431.3734 127.40625 L 1431.3734 127.40625 L 1431.3734 127.4063 L 1434.2484 127.7813 L 1435.2484 128.31255 L 1437.2172 128.8438 L 1439.0296 129.0313 C 1442.9537 128.83554 1447.3696 129.6271 1451.3109 130.0938 C 1451.3209 130.0948 1451.3319 130.0928 1451.3419 130.0938 L 1451.3109 130.1563 L 1451.3109 130.2813 L 1451.311 130.28082 L 1451.3109 130.15625 L 1451.3419 130.09375 L 1451.3422 130.0937 L 1452.9672 130.2812 L 1457.6546 131.4687 L 1458.6234 131.81245 L 1459.5296 132.3437 L 1458.6234 132.18745 L 1454.8734 132.18745 L 1452.9672 132.09375 L 1452.0609 131.625 L 1451.1546 131.46875 L 1450.2484 131.8125 L 1450.3734 131.625 L 1450.3734 131.62505 L 1450.2484 131.81255 L 1449.6234 132.68755 L 1449.6234 132.71875 L 1448.6546 132.81245 L 1448.5606 132.81245 L 1447.7481 132.90615 L 1447.6541 133.0624 L 1447.5601 133.53115 L 1446.5601 133.71865 L 1445.5914 133.53115 L 1443.7788 135.2499 L 1443.1538 135.78115 L 1441.9038 137.5624 L 1440.9038 138.03115 L 1440.3726 138.9374 L 1439.5601 140.8124 L 1439.9976 141.71865 L 1440.1851 142.15615 L 1439.8101 143.0624 L 1438.9351 143.8749 L 1437.0288 144.40615 L 1435.8726 146.5624 L 1434.0601 148.3749 L 1432.9038 149.3749 L 1431.9976 150.34365 L 1432.3726 152.15615 L 1433.3414 152.34365 L 1434.2476 152.24995 L 1436.0601 153.1562 L 1436.9351 152.87495 L 1437.5601 152.87495 L 1438.5601 153.1562 L 1438.3101 154.0312 L 1437.6851 155.0312 L 1439.1851 155.56245 L 1440.1851 156.4687 L 1440.2791 157.37495 L 1439.6541 158.2812 L 1438.6541 158.0937 L 1437.6854 158.37495 L 1435.8729 158.28125 L 1434.8729 158.625 L 1435.3104 159.625 L 1436.6854 161.5 L 1436.9354 162.40625 L 1436.8734 163.125 L 1435.9672 163.40625 L 1435.6859 164.40625 L 1434.6859 164.75 L 1433.7172 164.6563 L 1432.7172 165.4688 L 1433.2484 166.37505 L 1433.1864 168.9688 L 1434.0614 169.68755 C 1433.0578 169.81785 1431.9408 169.75085 1430.8114 169.75005 C 1429.1223 169.75305 1427.4185 169.9286 1425.9989 171.1563 C 1425.841 171.29259 1425.6802 171.42982 1425.5301 171.5938 L 1423.6239 171.5938 L 1422.9051 171.7813 L 1422.8111 172.68755 L 1423.1861 173.6563 L 1422.2798 174.2813 L 1423.6236 175.0938 L 1424.5298 175.37505 L 1425.4361 176.2813 L 1426.1548 177.7188 L 1428.0298 177.9063 L 1428.3111 178.7813 L 1430.1236 179.4063 L 1430.7486 180.31255 L 1430.0298 181.12505 L 1429.0298 180.87505 L 1428.3111 181.0313 L 1427.7798 181.4063 L 1426.9674 182.31255 L 1426.3003 182.52476 Z"/>
    <path id="path42681" fill="#8cce55" stroke="#0f380f" stroke-opacity="0.14509804" stroke-linecap="round" stroke-linejoin="round" transform="matrix(1 0 0 1 0.5 1.2670726)" d="M 1484.9062 309.375 L 1483.0312 310.90625 L 1484 310.71875 L 1484.7188 309.8125 L 1484.9062 309.375 L 1484.9062 309.375 Z"/>
    <path id="path42679" fill="#8cce55" stroke="#0f380f" stroke-opacity="0.14509804" stroke-linecap="round" stroke-linejoin="round" transform="matrix(1 0 0 1 0.5 1.2670726)" d="M 1476.375 314.6875 L 1475.375 315.40625 L 1474.6562 315.65625 L 1473.8438 316.5625 L 1472.9375 317.09375 L 1472.3125 318 L 1473.2188 318 L 1474.125 317.1875 L 1475.5625 316.375 L 1476.375 315.40625 L 1477.25 314.78125 L 1476.375 314.68755 L 1476.375 314.6875 Z"/>
    <path id="path120870" fill="#8cce55" stroke="#0f380f" stroke-opacity="0.14509804" stroke-linecap="round" stroke-linejoin="round" transform="matrix(1 0 0 1 0.5 1.2670726)" d="M 1416.9688 259.875 L 1416.625 260.875 L 1416.1562 261.03125 L 1415.5312 262.03125 L 1416.5312 261.84375 L 1417.25 262.84375 L 1418.125 263.03125 L 1419.0312 262.3125 L 1419.3125 261.40625 L 1419.5625 261.03125 L 1418.5 261.03125 L 1418.875 260.15625 L 1417.875 260.15625 Z"/>
    <path id="path120868" fill="#8cce55" stroke="#0f380f" stroke-opacity="0.14509804" stroke-linecap="round" stroke-linejoin="round" transform="matrix(1 0 0 1 0.5 1.2670726)" d="M 1413.8125 260.875 L 1413.4688 261.03125 L 1414.375 261.59375 L 1414.7188 261.03125 Z"/>
    <path id="path120866" fill="#8cce55" stroke="#0f380f" stroke-opacity="0.14509804" stroke-linecap="round" stroke-linejoin="round" transform="matrix(1 0 0 1 0.5 1.2670726)" d="M 1417.3438 264.09375 L 1417.0625 265 L 1417.4375 265 L 1417.3435 264.09375 Z"/>
    <path id="path120864" fill="#8cce55" stroke="#0f380f" stroke-opacity="0.14509804" stroke-linecap="round" stroke-linejoin="round" transform="matrix(1 0 0 1 0.5 1.2670726)" d="M 1440.4688 265.4375 L 1439.4688 265.8125 L 1439.9062 266.71875 L 1440.5625 267.4375 L 1440.9062 268.40625 L 1439.9062 270.21875 L 1440.0002 271.125 L 1439.1252 271.46875 L 1438.6564 270.59375 L 1436.8752 271.3125 L 1436.7502 272.84375 L 1437.219 273.71875 L 1436.9377 274.625 L 1436.7502 276.53125 L 1436.3127 277.40625 L 1435.969 278.6875 L 1436.063 280.46875 L 1436.7505 281.46875 L 1436.938 282.375 L 1437.8443 283.1875 L 1438.6567 285.0625 L 1438.7507 285.96875 L 1438.2195 286.875 L 1437.8445 288.65625 L 1438.3757 291.46875 L 1438.2195 295.0625 L 1437.6882 298.21875 L 1436.9382 300 L 1437.4069 301 L 1438.0319 301.90625 L 1438.3757 303.6875 L 1438.3757 304.59375 L 1437.5007 306.40625 L 1437.4067 307.375 L 1437.5007 308.28125 L 1437.8445 309.1875 L 1437.7505 310.09375 L 1436.938 311.96875 L 1436.7505 312.875 L 1437.2193 315.5625 L 1437.688 316.28125 L 1438.563 315.3125 L 1438.7505 314.40625 L 1439.563 312.59375 L 1440.4693 311.8125 L 1441.3755 312.4375 L 1443.1567 312.59375 L 1443.7817 313.5 L 1444.1567 315.3125 L 1444.688 314.40625 L 1444.8755 313.40625 L 1444.5943 311.625 L 1443.688 311.34375 L 1442.813 311.34375 L 1442.2505 308.65625 L 1440.563 306.75 L 1440.0943 305.6875 L 1440.1883 303.78125 L 1441.907 299.28125 L 1442.3446 297.40625 L 1442.8133 296.9375 L 1444.8758 296.3125 L 1443.9696 296.4062 L 1444.9696 296.2187 L 1446.7508 296.68745 L 1447.657 297.31245 L 1449.4383 298.93745 L 1449.907 299.8437 L 1449.907 298.93745 L 1449.0008 298.31245 L 1448.4696 297.4062 L 1446.8446 292.2812 L 1445.8758 290.4687 L 1444.782 284.9687 L 1443.9696 284.0937 L 1444.3133 283.18745 L 1443.5008 281.2812 L 1443.157 280.93745 L 1442.7196 279.12495 L 1442.9696 278.2187 L 1443.0636 277.24995 L 1443.3449 276.3437 L 1443.4389 277.24995 L 1443.7826 275.43745 L 1443.6264 274.5312 L 1442.8139 273.6562 L 1442.6264 271.74995 L 1443.3452 272.74995 L 1443.7826 274.7187 C 1443.7826 269.7912 1441.1952 272.3862 1442.0639 266.43745 L 1441.3764 265.5312 L 1440.4702 265.4375 L 1440.4702 265.4375 Z"/>
    <path id="path42677" fill="#8cce55" stroke="#0f380f" stroke-opacity="0.14509804" stroke-linecap="round" stroke-linejoin="round" transform="matrix(1 0 0 1 0.5 1.2670726)" d="M 1469.0625 318.71875 L 1468.1875 319 L 1467.2812 319.71875 L 1466.375 320.15625 L 1465.375 320.06255 L 1464.5 320.5313 L 1461.6875 322.87505 L 1461.3438 323.7813 L 1460.4375 324.0313 L 1460 324.93755 L 1461.7812 324.2188 L 1462.5 323.31255 L 1463.4062 322.50005 L 1465.2812 321.5313 L 1466.1875 320.7813 L 1468.0938 319.9063 L 1469 319.9063 L 1469.3438 319.00005 L 1469.0625 318.7188 L 1469.0625 318.71875 Z"/>
    <path id="path42675" fill="#8cce55" stroke="#0f380f" stroke-opacity="0.14509804" stroke-linecap="round" stroke-linejoin="round" transform="matrix(1 0 0 1 0.5 1.2670726)" d="M 1456.8438 324.5 L 1454.6875 327.28125 L 1453.7812 328 L 1453.5 328.90625 L 1455.3125 327.375 L 1456.125 326.46875 L 1458 325.28125 L 1456.8438 324.5 Z"/>
    <path id="path42673" fill="#8cce55" stroke="#0f380f" stroke-opacity="0.14509804" stroke-linecap="round" stroke-linejoin="round" transform="matrix(1 0 0 1 0.5 1.2670726)" d="M 1460 328.1875 L 1459.25 329.0625 L 1460.1562 328.1875 L 1460 328.1875 Z"/>
    <path id="path43408" fill="#8cce55" stroke="#0f380f" stroke-opacity="0.14509804" stroke-linecap="round" stroke-linejoin="round" transform="matrix(1 0 0 1 0.5 1.2670726)" d="M 1460.2561 232.06273 L 1462.1623 232.34398 L 1463.0686 232.87523 L 1463.9436 232.68773 L 1464.8499 231.87523 L 1465.8499 231.78153 L 1466.8186 231.78153 L 1467.2873 232.68778 L 1468.1936 232.78148 L 1469.0686 232.59398 L 1468.6311 231.71898 L 1469.2561 230.81273 L 1470.2561 231.25023 L 1470.2561 230.34398 L 1471.1311 229.71898 L 1472.0373 229.37523 L 1472.9436 229.28153 L 1474.6623 229.71903 L 1475.0999 230.00028 L 1476.0061 230.09398 L 1477.0061 230.71898 L 1477.8811 230.81268 L 1477.0061 231.15643 L 1477.8811 231.53143 L 1478.7873 231.43773 L 1479.5061 230.53148 L 1480.5061 230.62518 L 1481.4123 230.90643 L 1482.3186 231.62518 L 1482.5686 232.53143 L 1483.4749 232.59393 L 1484.4749 233.31268 L 1482.5686 233.59393 L 1481.5686 233.50023 L 1480.6936 233.78148 L 1479.6936 233.78148 L 1480.7873 235.65648 L 1483.5686 235.31273 L 1484.4749 234.68773 L 1485.3811 234.40648 L 1487.2561 235.21898 L 1488.1623 234.78148 L 1489.1311 233.96898 L 1490.0373 233.87528 L 1490.2249 232.87528 L 1492.1311 233.31278 L 1493.0061 234.03153 L 1494.0061 233.87528 L 1494.9123 233.15653 L 1495.8186 233.31278 L 1497.6936 233.25028 L 1498.6936 232.78153 L 1498.3186 231.87528 L 1497.4123 231.25028 L 1496.4436 231.06278 L 1495.5373 231.53153 L 1494.6311 231.34403 L 1493.7249 230.90653 L 1494.6311 230.28153 L 1494.2873 229.37528 L 1494.4436 228.46903 L 1495.3499 228.56273 L 1495.5373 227.65648 L 1496.0686 226.75023 L 1496.8811 225.84398 L 1497.7873 225.03148 L 1499.6623 223.96898 L 1500.5686 223.25023 L 1501.5686 222.78148 L 1502.6311 220.90648 L 1504.4436 219.37523 L 1505.4436 219.18773 L 1505.5056 217.31273 L 1506.5056 216.84398 L 1507.4118 216.06273 L 1509.3181 215.06273 L 1511.0994 215.15643 L 1512.0056 215.50018 L 1512.9118 215.06268 L 1513.8181 214.87518 L 1515.6931 214.87518 L 1516.5994 214.25018 L 1517.5056 214.15648 L 1518.3181 215.06273 L 1518.8494 216.06273 L 1519.7556 215.68773 L 1521.9118 214.25023 L 1522.6931 215.15648 L 1521.1931 217.93773 L 1521.0056 217.93773 L 1520.0994 218.65648 L 1520.7244 219.65648 L 1520.4431 220.56273 L 1521.0056 220.71898 L 1522.0056 220.37523 L 1522.8806 220.37523 L 1522.6306 221.28148 L 1522.0056 222.15648 L 1521.6306 223.06273 L 1522.5368 222.96903 L 1523.4431 222.53153 L 1524.4118 222.43783 L 1525.1306 221.53158 L 1527.0368 220.18783 L 1527.9431 219.18783 L 1529.7244 218.12533 L 1530.7244 217.40658 L 1531.6306 216.50033 L 1532.5056 215.96908 L 1532.5996 215.96908 L 1532.5896 215.96858 L 1533.4958 216.40608 L 1534.4958 215.78108 L 1534.6833 216.78108 L 1535.652 216.31233 L 1535.746 215.31233 L 1534.8398 215.15608 L 1535.496 213.34358 L 1535.497 214.00558 L 1539.9274 211.63846 L 1540.8984 207.71738 L 1534.4791 205.61467 L 1538.0944 205.02792 L 1537.3005 198.7887 L 1542.6464 196.05854 L 1537.8751 193.77387 L 1533.6071 191.23946 L 1526.4468 191.91456 L 1528.3126 186.63447 L 1520.8309 186.00738 L 1523.1763 181.04908 L 1519.8141 179.8939 L 1518.4647 183.54021 L 1512.9983 183.68611 L 1513.9378 186.03238 L 1510.6808 184.19006 L 1509.1553 181.75522 L 1508.8559 184.48053 L 1503.8698 183.18346 L 1501.5645 183.28758 L 1499.9178 181.60778 L 1497.8064 183.58542 L 1500.1511 185.74743 L 1498.1186 186.72612 L 1496.7568 184.75331 L 1493.8946 184.45779 L 1495.5711 186.71933 L 1494.4045 188.24907 L 1496.0287 189.57113 L 1490.633 190.01764 L 1492.1842 191.64859 L 1489.8411 192.15248 L 1491.5991 194.32621 L 1489.7434 194.8776 L 1489.5772 197.46308 L 1488.1543 197.38168 L 1487.6968 194.76035 L 1485.5781 194.62641 L 1484.9142 197.07371 L 1480.6969 196.03878 L 1481.7412 199.34295 L 1479.9094 199.16683 L 1478.4243 198.09058 L 1478.9521 194.78609 L 1477.0114 194.25182 L 1476.6841 196.74777 L 1472.8522 197.40943 L 1470.2574 195.28801 L 1468.5464 196.72213 L 1471.4345 197.5375 L 1469.3474 198.09307 L 1469.63 200.22939 L 1467.9159 200.80327 L 1466.638 197.92922 L 1464.6895 200.03564 C 1463.619 197.21278 1462.5486 198.23374 1461.4781 198.00293 L 1459.1925 195.9086 L 1456.4797 195.40617 L 1455.6916 195.28717 L 1453.3722 195.32177 L 1452.7134 194.6619 C 1452.2955 194.36462 1451.8776 194.26344 1451.4596 194.43722 L 1450.5965 194.43922 L 1449.7908 193.81798 L 1450.4702 192.88571 L 1449.8339 192.18359 L 1448.348 191.45224 L 1447.2835 191.35057 L 1446.1279 191.0123 L 1445.3773 189.94245 L 1442.822 189.71828 L 1442.9926 189.01978 L 1438.2551 188.44924 L 1438.2171 187.88766 L 1436.6594 187.95986 L 1434.2088 187.221 L 1433.2407 186.46507 L 1431.5553 187.04344 L 1430.6778 187.18494 L 1429.6554 187.53142 L 1428.3117 188.15642 L 1428.1242 188.15642 L 1427.3117 189.15642 L 1426.2492 190.93767 L 1425.8742 191.75017 L 1426.4992 192.65642 L 1428.3117 193.71892 L 1429.3117 194.53142 L 1430.0304 195.43767 L 1428.4992 196.43767 L 1429.1242 197.34392 L 1430.9992 198.21892 L 1431.1867 199.21892 L 1430.7492 200.21892 L 1430.5617 201.09392 L 1430.9367 202.00017 L 1429.843 202.71892 L 1428.9367 202.90642 L 1428.3117 203.43767 L 1427.4054 203.90642 L 1426.4992 204.62517 L 1426.6867 205.34392 L 1426.3117 206.25017 L 1426.7804 207.78142 L 1427.4054 208.65642 L 1428.3117 208.84392 L 1428.843 208.84392 L 1429.3117 209.75017 L 1430.1863 210.56255 L 1429.7176 211.25813 L 1429.6706 212.89172 L 1429.1223 213.681 L 1429.1003 213.7121 L 1428.1938 213.84662 L 1428.0583 214.27266 L 1428.0373 214.53045 L 1426.8936 215.93748 L 1426.1556 217.1822 L 1424.1995 217.60084 L 1423.7556 218.35204 L 1422.4644 218.41194 L 1422.0826 219.45776 L 1420.3359 220.00291 L 1420.7124 220.54728 L 1419.9636 220.73278 L 1419.8448 221.33048 L 1420.2372 222.31004 L 1421.1767 222.72762 L 1420.2733 224.03608 L 1420.56 225.46467 L 1420.0481 226.01958 L 1420.4251 227.46515 L 1420.1146 228.57687 L 1420.5213 229.25303 L 1419.8772 230.04166 L 1419.3052 229.57111 L 1418.981 228.97068 L 1417.0931 229.33202 L 1416.6624 230.72133 L 1416.1259 230.76813 L 1415.4548 231.76179 L 1413.8491 232.10415 L 1412.9504 232.14115 L 1411.7096 231.74837 L 1411.6906 231.74937 L 1410.1064 231.84307 L 1408.9231 231.01991 L 1408.1055 231.54509 L 1406.9479 232.48998 L 1406.4071 233.72476 C 1405.9416 233.91749 1406.2986 233.19517 1405.818 233.37602 C 1405.3139 233.56569 1404.7178 233.49724 1404.2064 233.70223 L 1403.9703 233.05278 L 1402.5588 233.55719 L 1401.2604 233.12972 L 1398.7791 232.88347 L 1397.9812 232.68987 L 1395.4543 233.76664 L 1395.3003 235.32991 L 1393.9388 235.31251 L 1393.938 236.21883 L 1393.1253 238.09371 L 1392.2191 238.00001 L 1392.2191 239.00001 L 1391.4065 240.00001 L 1391.8753 240.87501 L 1390.8753 240.78131 L 1389.9691 240.25006 L 1389.0628 240.15636 L 1389.9691 241.78136 L 1391.5003 243.59386 L 1391.0628 243.93761 L 1390.1565 244.31261 L 1389.2503 245.21886 L 1389.3443 245.93761 L 1389.0005 246.37511 L 1387.813 245.93761 L 1387.6255 246.00011 L 1387.0943 246.46886 L 1388.0005 247.00011 L 1389.8724 248.96836 L 1390.2474 249.53086 L 1389.6849 251.31211 L 1389.1536 251.06211 L 1388.2474 251.78086 L 1388.1854 251.40586 L 1387.2791 251.78086 L 1387.0917 252.68711 L 1386.5604 253.56211 L 1386.3729 253.84336 L 1385.9979 255.71836 L 1386.2791 256.62461 L 1387.1854 257.09336 L 1388.9979 257.09336 L 1389.6229 256.81211 L 1390.4979 257.09336 L 1392.4041 256.53086 L 1393.3104 256.62456 L 1394.1854 257.34331 L 1394.6541 258.24956 L 1395.6541 258.71831 L 1394.3104 258.87456 L 1393.7479 259.78081 L 1392.8417 259.78081 L 1393.1229 260.59331 L 1391.1541 261.03081 L 1390.6854 262.03081 L 1389.6854 262.56206 L 1388.8104 262.84331 L 1387.9041 263.37456 L 1387.5604 264.28081 L 1386.9041 265.53081 L 1385.9979 265.53081 L 1385.1229 265.90581 L 1384.2167 267.15581 L 1384.3107 268.15581 L 1384.9357 268.15581 L 1385.842 268.49956 L 1387.6232 268.78081 L 1388.342 268.96831 L 1388.9044 270.74956 L 1389.1544 272.46831 L 1390.0607 272.37461 L 1390.967 272.84336 L 1391.8732 272.37461 L 1392.7482 272.28091 L 1394.3732 272.18721 L 1395.2794 272.37471 L 1396.1857 271.93721 L 1396.6232 271.65596 L 1397.4357 270.74971 L 1398.342 270.65601 L 1398.436 270.49976 C 1400.9254 271.73518 1401.7542 270.37188 1402.7173 270.03101 L 1403.5297 270.03101 C 1403.5597 270.04281 1403.5927 270.07891 1403.6237 270.09351 L 1404.5925 270.90601 C 1404.4048 270.69652 1404.2215 270.50856 1404.0612 270.37476 C 1404.2644 270.53911 1404.5016 270.74054 1404.7487 271.03101 L 1404.7487 271.93726 L 1404.1862 273.46851 L 1403.5612 274.43726 L 1403.3737 274.90601 L 1403.9987 275.81226 L 1403.4675 276.53101 L 1403.1237 277.40601 L 1402.1237 277.15601 L 1398.8737 276.43726 L 1397.6237 275.81226 L 1396.9987 276.24976 L 1396.9987 277.15601 L 1397.7175 278.06226 L 1397.9049 278.40601 L 1396.9049 278.87476 L 1395.9987 279.03101 L 1395.0925 278.87476 L 1393.7487 279.74976 L 1393.2175 280.65601 L 1392.5925 281.28102 L 1390.6862 281.56227 L 1389.4362 281.99977 L 1388.5299 281.99977 L 1388.7175 282.90602 L 1388.7175 282.99972 L 1388.9049 283.37472 L 1388.7175 284.09347 L 1387.8112 284.09347 L 1386.9049 284.71847 L 1385.9362 286.96847 L 1385.3737 287.49972 L 1385.1237 288.40597 L 1385.9987 288.31227 L 1386.4675 289.03102 L 1386.5615 289.93727 L 1387.1865 289.65602 L 1387.9052 290.03102 L 1388.0928 290.46852 L 1388.8115 291.37477 L 1387.999 292.28102 L 1388.9052 292.81227 L 1388.9052 293.71852 L 1388.249 293.96852 L 1388.9052 294.96852 L 1388.9052 295.68727 L 1388.4365 296.84352 L 1387.5615 296.78102 L 1386.8115 297.65602 L 1386.6552 298.31227 L 1386.5612 298.37477 L 1385.6549 298.46847 L 1385.03 298.84384 L 1384.842 299.03084 L 1384.6581 299.90641 L 1384.8457 300.90641 L 1385.4707 301.34391 L 1385.8457 302.25016 L 1385.3769 303.25016 L 1385.3149 304.06266 L 1386.1899 304.96891 L 1386.2839 305.84391 L 1386.8152 306.12516 L 1387.0027 306.12516 L 1388.0027 305.78141 L 1388.9089 305.78141 L 1390.1589 306.12516 L 1391.9402 306.03146 L 1392.8465 305.78146 L 1393.5652 305.93771 L 1394.3152 305.06271 L 1395.4715 304.15646 L 1396.3777 303.59396 L 1398.1589 303.78146 L 1398.4402 303.53146 L 1399.3465 302.71896 L 1400.3152 302.71896 L 1400.7839 302.25021 L 1401.5027 302.15651 L 1402.4089 301.90651 L 1402.5029 302.00021 L 1403.1279 302.09391 L 1403.9404 302.62516 L 1403.1904 304.50016 L 1403.5654 304.87516 L 1403.6594 305.31266 L 1403.847 306.21891 L 1403.3782 306.93766 L 1401.3157 308.18766 L 1401.4097 309.56266 L 1401.066 309.90641 L 1400.691 311.00016 L 1400.5035 312.25016 L 1400.2535 312.43766 L 1400.066 312.78141 L 1400.16 313.78141 L 1399.785 314.59391 L 1398.9726 316.12516 L 1398.2538 316.65641 L 1397.91 318.18766 L 1397.816 318.37516 L 1396.9097 318.71891 L 1396.441 319.28141 L 1396.2847 321.06266 L 1395.6597 321.53141 L 1395.0973 321.34391 L 1391.2535 320.34391 L 1391.1595 320.25021 L 1390.2533 320.06271 L 1390.1593 320.43771 L 1388.9093 321.68771 L 1388.0031 322.06271 L 1387.0969 322.15641 L 1386.5656 322.50016 L 1387.2843 324.21891 L 1387.4719 325.12516 L 1387.4719 325.21886 L 1387.6281 325.65636 L 1387.8156 327.18761 L 1387.7216 327.28131 L 1387.4716 329.96881 L 1387.909 330.34381 L 1387.909 331.25006 L 1387.6278 332.12506 L 1387.0966 332.93756 L 1386.7528 333.84381 L 1385.8466 333.75011 L 1385.3153 334.03136 L 1384.409 334.21886 L 1384.8466 335.46886 L 1384.7526 336.28136 L 1385.2214 337.00011 L 1385.5651 336.09386 L 1385.3151 335.18761 L 1387.0964 334.93761 L 1388.0964 334.28136 L 1388.4401 333.40636 L 1389.3464 332.75011 L 1390.1588 331.31261 L 1391.1588 331.31261 L 1390.6901 332.31261 L 1391.5964 332.12511 L 1392.5026 331.50011 L 1392.7526 332.40636 L 1392.5964 333.31261 L 1394.3776 333.84386 L 1395.7526 334.03136 L 1396.6276 334.75011 L 1398.4401 334.03136 L 1400.2526 333.56261 L 1401.2214 332.84386 L 1405.8151 330.15636 L 1406.1901 329.25011 L 1407.0651 328.81261 L 1407.2526 327.71886 L 1408.1588 326.81261 L 1409.5026 325.03136 L 1410.5026 324.56261 L 1410.8464 323.68761 L 1411.7526 323.03136 C 1413.2526 320.22136 1417.454 317.92636 1419.3151 314.84386 L 1421.4714 310.34386 L 1423.0026 308.46886 L 1423.8151 307.84386 L 1424.1901 306.93761 L 1425.2526 305.12511 L 1426.1588 304.34386 L 1426.9714 303.34386 L 1428.3151 302.34386 L 1429.1276 301.34386 L 1429.2216 299.90636 L 1429.659 299.03136 L 1429.4716 298.12511 L 1429.8466 298.12511 L 1430.1278 296.68761 L 1429.9403 296.68761 L 1430.9403 294.78136 L 1430.3778 293.00011 L 1430.9403 292.28136 L 1430.7528 291.37511 L 1430.5653 287.68761 L 1431.6278 285.87511 L 1431.4716 284.96886 L 1432.1903 284.09386 L 1432.8153 282.18761 L 1433.7216 281.56261 L 1434.534 280.65635 L 1434.44 279.65635 L 1435.4087 279.03135 L 1435.4087 278.6876 L 1434.5337 278.3126 L 1433.6275 277.59385 L 1434.065 276.6876 L 1434.2525 275.8126 L 1434.065 274.90635 L 1431.6275 273.0001 L 1433.44 273.8126 L 1434.3463 273.28135 L 1434.6275 272.3751 L 1431.815 270.21885 L 1430.94 269.78135 L 1430.0337 268.8751 L 1429.2213 267.0626 L 1428.315 266.71885 L 1427.4062 266 C 1425.5587 265.55905 1425.4188 266.99375 1422.625 265.53125 L 1422.375 266.53125 L 1422.625 267.4375 L 1422.1875 268.34375 L 1422 269.3125 L 1421.5625 270.21875 L 1420.5625 270.5 L 1420.6565 269.59375 L 1421.6565 268.6875 L 1421.6565 267.78125 L 1420.7503 268.0625 L 1420.5003 268.96875 L 1418.5941 270.125 L 1415.8753 270.40625 L 1416.6878 269.5 L 1417.1565 268.59375 L 1418.0628 268.0625 L 1417.1565 267.78125 L 1416.1565 267.25 L 1417.0628 266.25 L 1417.5941 265.375 L 1416.6878 265.4375 L 1415.7191 265.8125 L 1414.8128 266.53125 L 1415.7191 267.15625 L 1415.3441 268.15625 L 1414.4378 268.40625 L 1413.4691 268.96875 L 1412.8441 267.96875 L 1413.3753 267.0625 L 1413.2813 265.28125 L 1413.6251 264.28125 L 1413.6251 263.375 L 1412.6563 263.2813 L 1411.7501 263.6563 L 1410.8439 263.5626 L 1408.9689 263.84385 L 1408.0626 263.1876 L 1406.2501 262.9376 L 1405.9063 262.03135 L 1406.6251 261.1251 L 1407.6251 260.3126 L 1408.5001 260.15635 L 1410.4063 259.0626 L 1411.8439 257.2501 L 1414.6251 255.90635 L 1417.4376 253.7501 L 1419.3126 251.96885 L 1420.2189 251.5001 L 1419.7501 250.59385 L 1422.5626 248.09385 L 1423.4376 247.6251 L 1424.1876 246.71885 L 1425.0626 246.09385 L 1425.9689 245.7501 L 1426.7813 244.84385 L 1427.6876 244.3126 L 1428.3126 243.40635 L 1430.1876 242.78135 C 1431.3914 240.9376 1431.1264 238.7551 1434.0626 238.09385 C 1437.8276 236.2601 1435.985 234.87885 1440.0939 232.96885 L 1442.0001 232.53135 L 1443.1563 231.96885 L 1444.1563 232.2501 L 1446.8439 231.71885 L 1449.7189 231.96885 L 1451.5313 231.96885 L 1452.4376 231.71885 L 1454.2189 231.71885 L 1455.2189 231.8751 L 1455.2189 232.78135 L 1456.1251 233.5001 L 1457.0001 233.2501 L 1457.6563 232.2501 Z"/>
</svg>
