<svg width="1671.094" height="856.39252" viewBox="0 0 1671.094 856.39252" xmlns="http://www.w3.org/2000/svg" xmlns:usvg="https://github.com/RazrFalcon/usvg" usvg:version="0.8.0">
    <defs/>
    <path id="path41402" fill="#3e73c5" fill-opacity="0.42857145" stroke="#000000" stroke-opacity="0.24675323" stroke-linecap="round" stroke-linejoin="round" transform="matrix(1 0 0 1 0.5 1.2670726)" d="M 83.223 600.03282 L 83.223 592.28582 L 57.749 522.28182 L 33.958 522.28182 L 33.958 538.47282 L 43.604 546.92882 L 43.841 572.62382 L 55.181 572.53382 L 62.111 600.03282 Z"/>
    <path id="path43328" fill="#8cce55" stroke="#0f380f" stroke-opacity="0.14509804" stroke-linecap="round" stroke-linejoin="round" transform="matrix(1 0 0 1 0.5 1.2670726)" d="M 41 524.90626 C 39.7575 524.90626 38.75 525.91376 38.75 527.15626 C 38.75 528.39876 39.7575 529.40626 41 529.40626 C 42.2425 529.40626 43.25 528.39876 43.25 527.15626 C 43.25 525.91376 42.2425 524.90626 41 524.90626 Z"/>
    <path id="path43326" fill="#8cce55" stroke="#0f380f" stroke-opacity="0.14509804" stroke-linecap="round" stroke-linejoin="round" transform="matrix(1 0 0 1 0.5 1.2670726)" d="M 50.4375 534.81251 C 49.195 534.81251 48.1875 535.82001 48.1875 537.06251 C 48.1875 538.30631 49.195 539.31251 50.4375 539.31251 C 51.68 539.31251 52.6875 538.30631 52.6875 537.06251 C 52.6875 535.82001 51.68 534.81251 50.4375 534.81251 Z"/>
    <path id="path43318" fill="#8cce55" stroke="#0f380f" stroke-opacity="0.14509804" stroke-linecap="round" stroke-linejoin="round" transform="matrix(1 0 0 1 0.5 1.2670726)" d="M 61.125 562.46876 C 59.8825 562.46876 58.875 563.47626 58.875 564.71876 C 58.875 565.96126 59.8825 566.96876 61.125 566.96876 C 62.3675 566.96876 63.375 565.96126 63.375 564.71876 C 63.375 563.47626 62.3675 562.46876 61.125 562.46876 Z"/>
    <path id="path43310" fill="#8cce55" stroke="#0f380f" stroke-opacity="0.14509804" stroke-linecap="round" stroke-linejoin="round" transform="matrix(1 0 0 1 0.5 1.2670726)" d="M 57.125 568.96876 C 55.8825 568.96876 54.875 569.97626 54.875 571.21876 C 54.875 572.46126 55.8825 573.46876 57.125 573.46876 C 58.3675 573.46876 59.375 572.46126 59.375 571.21876 C 59.375 569.97626 58.3675 568.96876 57.125 568.96876 Z"/>
    <path id="path43308" fill="#8cce55" stroke="#0f380f" stroke-opacity="0.14509804" stroke-linecap="round" stroke-linejoin="round" transform="matrix(1 0 0 1 0.5 1.2670726)" d="M 72.96875 586.46876 C 71.725 586.46876 70.71875 587.47626 70.71875 588.71876 C 70.71875 589.96126 71.725 590.96876 72.96875 590.96876 C 74.21 590.96876 75.21875 589.96126 75.21875 588.71876 C 75.21875 587.47626 74.21 586.46876 72.96875 586.46876 Z"/>
</svg>
