<svg width="1671.094" height="856.39252" viewBox="0 0 1671.094 856.39252" xmlns="http://www.w3.org/2000/svg" xmlns:usvg="https://github.com/RazrFalcon/usvg" usvg:version="0.8.0">
    <defs/>
    <path id="path43408-9" fill="#3e73c5" fill-opacity="0.42745098" stroke="#000000" stroke-opacity="0.24705882" stroke-linecap="round" stroke-linejoin="round" transform="matrix(1 0 0 1 0.5 1.2670726)" d="M 1509.2171 292.15582 L 1546.3735 292.1561 L 1567.0301 274.1561 L 1664.7481 187.31235 L 1664.7481 167.74985 L 1648.218 147.52882 L 1648.692 -0.75018262 L 1613.9271 -0.74968524 L 1578.9362 -0.75015262 L 1578.9362 -0.75000262 L 1578.9362 -0.75000262 L 1578.9362 -0.75000262 L 1578.9052 135.1875 L 1579.1039 151.87551 L 1569.8884 150.8064 L 1566.6985 149.9754 L 1563.5486 152.74625 L 1559.3442 151.80123 L 1557.8482 152.48032 L 1554.4477 155.4799 L 1545.8763 155.30617 L 1539.5817 153.78851 L 1535.229 154.49992 L 1537.2237 159.07711 L 1536.9451 162.08159 L 1535.9038 165.72584 L 1534.8324 165.73384 L 1533.3453 164.08082 L 1530.2463 166.2063 L 1527.024 165.43463 L 1521.4085 167.56406 C 1519.852 168.41605 1518.2954 167.67213 1516.7388 167.44305 L 1516.8969 169.85895 L 1514.4603 169.48951 L 1514.3693 174.23013 L 1521.7098 177.00338 L 1519.8143 179.89389 L 1519.8141 179.8939 L 1523.1763 181.04908 L 1520.8309 186.00738 L 1528.3126 186.63447 L 1526.4468 191.91456 L 1533.6071 191.23946 L 1537.8751 193.77387 L 1542.6464 196.05854 L 1537.3005 198.7887 L 1538.0944 205.02792 L 1534.4791 205.61467 L 1540.8984 207.71738 L 1539.9274 211.63846 L 1535.497 214.00558 L 1535.497 214.00558 L 1535.3884 219.12952 L 1490.8425 250.86087 L 1497.7227 280.74938 L 1509.21 292.45242 Z"/>
    <path id="path41415" fill="#3e73c5" fill-opacity="0.42745098" stroke="#000000" stroke-opacity="0.24705882" stroke-linecap="round" stroke-linejoin="round" transform="matrix(1 0 0 1 0.5 1.2670726)" d="M 1579.0312 281.15625 L 1578.9062 281.24995 L 1578.9062 451.4687 L 1521 451.4687 L 1521 503.26753 L 1541.5059 503.26753 L 1541.5059 552.2812 L 1578.9062 552.2812 L 1578.9062 688.4062 L 1544.25 741.2187 L 1544.25 817.2187 L 1578.9375 817.2187 L 1578.9375 854.5937 L 1613.6133 854.5937 L 1648.5 854.5937 L 1648.5 770.28706 L 1648.5 668.87495 L 1612.8125 668.87495 L 1625.125 642.10542 L 1625.125 615.74995 L 1638.5547 615.74995 L 1638.5547 603.27925 L 1621.5371 581.06636 L 1621.5371 557.35347 L 1649.0078 557.38867 L 1649.0078 428.36328 L 1613.6875 428.36328 L 1613.6875 377.22656 L 1648.4629 377.22656 L 1648.4629 304 L 1613.6875 304.25 L 1579.0312 281.15625 Z M 1625 758.53125 L 1636.5938 758.53125 L 1636.5938 768.625 L 1625 768.625 L 1625 758.53125 Z"/>
    <path id="path42421" fill="#8cce55" stroke="#0f380f" stroke-opacity="0.14509804" stroke-linecap="round" stroke-linejoin="round" transform="matrix(1 0 0 1 0.5 1.2670726)" d="M 1618.4375 138.65625 L 1616.4688 139.03125 L 1614.6875 138.93755 L 1611.875 139.9063 L 1610.0625 141.18755 L 1609.0938 141.62505 L 1607.2812 143.3438 L 1608.0938 145.12505 L 1609.9062 144.7813 L 1611.875 144.6876 L 1613.6875 143.78135 L 1615.2188 144.15635 L 1616.125 144.59385 L 1617.1875 144.50015 L 1620.1562 143.9689 L 1621.1562 143.5939 L 1623.125 143.3439 L 1624.2188 143.06265 L 1625.125 142.3439 L 1625.125 141.3439 L 1624.2188 141.00015 L 1622.4062 139.6564 L 1621.3125 139.0939 L 1618.4375 138.6564 L 1618.4375 138.65625 Z"/>
    <path id="path42415" fill="#8cce55" stroke="#0f380f" stroke-opacity="0.14509804" stroke-linecap="round" stroke-linejoin="round" transform="matrix(1 0 0 1 0.5 1.2670726)" d="M 1559.25 151.96875 L 1558.7812 152.15625 L 1557.8125 152.6875 L 1557 153.59375 L 1558.875 154.6875 L 1559.7812 155.03125 L 1561.6562 155.5625 L 1563.4688 155.6562 L 1564.7188 153.7812 L 1563.75 152.9687 L 1562.8438 152.875 L 1560.125 152.15625 L 1559.25 151.96875 L 1559.25 151.96875 Z"/>
    <path id="path42413" fill="#8cce55" stroke="#0f380f" stroke-opacity="0.14509804" stroke-linecap="round" stroke-linejoin="round" transform="matrix(1 0 0 1 0.5 1.2670726)" d="M 1648.5 192.75 L 1647.5938 193.625 L 1648.5938 193.7187 L 1649.5 193.37495 L 1648.5 192.74995 L 1648.5 192.75 Z"/>
    <path id="path42411" fill="#8cce55" stroke="#0f380f" stroke-opacity="0.14509804" stroke-linecap="round" stroke-linejoin="round" transform="matrix(1 0 0 1 0.5 1.2670726)" d="M 1541.5 233.25 L 1540.5312 233.875 L 1539.625 234.21875 L 1538.7188 234.31245 L 1538.1875 236.2187 L 1537.4688 237.0937 L 1536.75 237.56245 L 1537.625 237.37495 L 1540.4375 235.74995 L 1541.3438 235.49995 L 1542.3125 235.40625 L 1542.6875 234.5 L 1542.4062 233.59375 L 1541.5 233.25 L 1541.5 233.25 Z"/>
    <path id="path42409" fill="#8cce55" stroke="#0f380f" stroke-opacity="0.14509804" stroke-linecap="round" stroke-linejoin="round" transform="matrix(1 0 0 1 0.5 1.2670726)" d="M 1549.0625 258.875 L 1548.0938 259.0625 L 1548.9688 259.96875 L 1549.4375 260.9375 L 1550.25 261.84375 L 1551.125 262.21875 L 1551.875 263.125 L 1551.781 262.21875 L 1550.8748 261.3125 L 1550.2498 260.40625 L 1549.8748 259.4375 L 1549.9688 258.96875 L 1549.0625 258.87505 L 1549.0625 258.875 Z"/>
    <path id="path42407" fill="#8cce55" stroke="#0f380f" stroke-opacity="0.14509804" stroke-linecap="round" stroke-linejoin="round" transform="matrix(1 0 0 1 0.5 1.2670726)" d="M 1555.4688 261.9375 L 1556.375 262.84375 L 1557.3438 263.375 L 1558.25 264.09375 L 1557.4375 263.125 L 1555.625 261.9375 L 1555.4688 261.9375 Z"/>
    <path id="path42405" fill="#8cce55" stroke="#0f380f" stroke-opacity="0.14509804" stroke-linecap="round" stroke-linejoin="round" transform="matrix(1 0 0 1 0.5 1.2670726)" d="M 1546.625 488.65625 C 1545.3876 488.65625 1544.375 489.66375 1544.375 490.90625 C 1544.375 492.14875 1545.3876 493.15625 1546.625 493.15625 C 1547.875 493.15625 1548.875 492.14875 1548.875 490.90625 C 1548.875 489.66375 1547.875 488.65625 1546.625 488.65625 Z"/>
    <path id="path42403" fill="#8cce55" stroke="#0f380f" stroke-opacity="0.14509804" stroke-linecap="round" stroke-linejoin="round" transform="matrix(1 0 0 1 0.5 1.2670726)" d="M 1530.8438 490.75 C 1529.5938 490.75 1528.5938 491.7575 1528.5938 493 C 1528.5938 494.24375 1529.5938 495.25 1530.8438 495.25 C 1532.0811 495.25 1533.0938 494.24375 1533.0938 493 C 1533.0938 491.7575 1532.0811 490.75 1530.8438 490.75 Z"/>
    <path id="path42401" fill="#8cce55" stroke="#0f380f" stroke-opacity="0.14509804" stroke-linecap="round" stroke-linejoin="round" transform="matrix(1 0 0 1 0.5 1.2670726)" d="M 1552.625 491.3125 C 1551.375 491.3125 1550.375 492.32 1550.375 493.5625 C 1550.375 494.805 1551.375 495.8125 1552.625 495.8125 C 1553.8624 495.8125 1554.875 494.805 1554.875 493.5625 C 1554.875 492.32 1553.8624 491.3125 1552.625 491.3125 Z"/>
    <path id="path42399" fill="#8cce55" stroke="#0f380f" stroke-opacity="0.14509804" stroke-linecap="round" stroke-linejoin="round" transform="matrix(1 0 0 1 0.5 1.2670726)" d="M 1549.2812 495.53125 C 1548.0312 495.53125 1547.0312 496.53875 1547.0312 497.78125 C 1547.0312 499.02375 1548.0312 500.03125 1549.2812 500.03125 C 1550.5188 500.03125 1551.5312 499.02375 1551.5312 497.78125 C 1551.5312 496.53875 1550.5188 495.53125 1549.2812 495.53125 Z"/>
    <path id="path42397" fill="#8cce55" stroke="#0f380f" stroke-opacity="0.14509804" stroke-linecap="round" stroke-linejoin="round" transform="matrix(1 0 0 1 0.5 1.2670726)" d="M 1547.7188 500.84375 C 1546.4688 500.84375 1545.4688 501.85125 1545.4688 503.09375 C 1545.4688 504.33625 1546.4688 505.34375 1547.7188 505.34375 C 1548.956 505.34375 1549.9688 504.33625 1549.9688 503.09375 C 1549.9688 501.85125 1548.956 500.84375 1547.7188 500.84375 Z"/>
    <path id="path42395" fill="#8cce55" stroke="#0f380f" stroke-opacity="0.14509804" stroke-linecap="round" stroke-linejoin="round" transform="matrix(1 0 0 1 0.5 1.2670726)" d="M 1572.7188 510.21875 C 1571.4688 510.21875 1570.4688 511.22625 1570.4688 512.46875 C 1570.4688 513.71125 1571.4688 514.71875 1572.7188 514.71875 C 1572.907 514.71875 1573.0749 514.66895 1573.25 514.62505 C 1573.6599 515.06829 1574.2506 515.3438 1574.9062 515.3438 C 1576.1438 515.3438 1577.1562 514.3363 1577.1562 513.0938 C 1577.1562 511.8513 1576.1438 510.8438 1574.9062 510.8438 C 1574.7137 510.8438 1574.5217 510.8613 1574.3438 510.9063 C 1573.9334 510.48054 1573.3532 510.2188 1572.7188 510.2188 L 1572.7188 510.21875 Z"/>
    <path id="path42393" fill="#8cce55" stroke="#0f380f" stroke-opacity="0.14509804" stroke-linecap="round" stroke-linejoin="round" transform="matrix(1 0 0 1 0.5 1.2670726)" d="M 1597.625 512.9375 C 1596.3874 512.9375 1595.375 513.945 1595.375 515.1875 C 1595.375 515.96406 1595.7448 516.62725 1596.3438 517.03125 C 1595.4216 517.31149 1594.75 518.14126 1594.75 519.15625 C 1594.75 520.39875 1595.7624 521.40625 1597 521.40625 C 1598.25 521.40625 1599.25 520.39875 1599.25 519.15625 C 1599.25 518.37969 1598.8481 517.71687 1598.25 517.3125 C 1599.1826 517.03673 1599.875 516.20729 1599.875 515.1875 C 1599.875 513.945 1598.875 512.9375 1597.625 512.9375 Z"/>
    <path id="path42389" fill="#8cce55" stroke="#0f380f" stroke-opacity="0.14509804" stroke-linecap="round" stroke-linejoin="round" transform="matrix(1 0 0 1 0.5 1.2670726)" d="M 1602 515.4375 C 1600.7624 515.4375 1599.75 516.445 1599.75 517.6875 C 1599.75 518.93 1600.7624 519.9375 1602 519.9375 C 1603.25 519.9375 1604.25 518.93 1604.25 517.6875 C 1604.25 516.445 1603.25 515.4375 1602 515.4375 Z"/>
    <path id="path42387" fill="#8cce55" stroke="#0f380f" stroke-opacity="0.14509804" stroke-linecap="round" stroke-linejoin="round" transform="matrix(1 0 0 1 0.5 1.2670726)" d="M 1565.8438 515.6875 C 1564.5938 515.6875 1563.5938 516.695 1563.5938 517.9375 C 1563.5938 519.18 1564.5938 520.1875 1565.8438 520.1875 C 1567.0811 520.1875 1568.0938 519.18 1568.0938 517.9375 C 1568.0938 516.695 1567.0811 515.6875 1565.8438 515.6875 Z"/>
    <path id="path42385" fill="#8cce55" stroke="#0f380f" stroke-opacity="0.14509804" stroke-linecap="round" stroke-linejoin="round" transform="matrix(1 0 0 1 0.5 1.2670726)" d="M 1582.25 529.59375 C 1581.0126 529.59375 1580 530.60125 1580 531.84375 C 1580 533.08625 1581.0126 534.09375 1582.25 534.09375 C 1583.5 534.09375 1584.5 533.08625 1584.5 531.84375 C 1584.5 530.60125 1583.5 529.59375 1582.25 529.59375 Z"/>
    <path id="path42383" fill="#8cce55" stroke="#0f380f" stroke-opacity="0.14509804" stroke-linecap="round" stroke-linejoin="round" transform="matrix(1 0 0 1 0.5 1.2670726)" d="M 1582.312 535.59375 C 1581.0745 535.59375 1580.062 536.60125 1580.062 537.84375 C 1580.062 538.83691 1580.7013 539.67072 1581.5933 539.96875 C 1581.0987 540.3815 1580.7807 540.99246 1580.7807 541.6875 C 1580.7807 542.93 1581.7807 543.9375 1583.0307 543.9375 C 1584.2683 543.9375 1585.2807 542.93 1585.2807 541.6875 C 1585.2807 540.70141 1584.6313 539.86641 1583.7495 539.5625 C 1584.2431 539.15009 1584.562 538.53804 1584.562 537.84375 C 1584.562 536.60125 1583.562 535.59375 1582.312 535.59375 L 1582.312 535.59375 Z"/>
    <path id="path42381" fill="#8cce55" stroke="#0f380f" stroke-opacity="0.14509804" stroke-linecap="round" stroke-linejoin="round" transform="matrix(1 0 0 1 0.5 1.2670726)" d="M 1585.5933 543.1875 C 1584.3558 543.1875 1583.3433 544.195 1583.3433 545.4375 C 1583.3433 546.68 1584.3558 547.6875 1585.5933 547.6875 C 1586.8306 547.6875 1587.8433 546.68 1587.8433 545.4375 C 1587.8433 544.195 1586.8306 543.1875 1585.5933 543.1875 Z"/>
    <path id="path42379" fill="#8cce55" stroke="#0f380f" stroke-opacity="0.14509804" stroke-linecap="round" stroke-linejoin="round" transform="matrix(1 0 0 1 0.5 1.2670726)" d="M 1588.9683 547.09375 C 1587.7183 547.09375 1586.7183 548.10125 1586.7183 549.34375 C 1586.7183 550.58625 1587.7183 551.59375 1588.9683 551.59375 C 1590.2055 551.59375 1591.2183 550.58625 1591.2183 549.34375 C 1591.2183 548.10125 1590.2055 547.09375 1588.9683 547.09375 Z"/>
    <path id="path42377" fill="#8cce55" stroke="#0f380f" stroke-opacity="0.14509804" stroke-linecap="round" stroke-linejoin="round" transform="matrix(1 0 0 1 0.5 1.2670726)" d="M 1591.7807 550.84375 C 1590.5307 550.84375 1589.5307 551.85125 1589.5307 553.09375 C 1589.5307 554.33625 1590.5307 555.34375 1591.7807 555.34375 C 1593.0183 555.34375 1594.0307 554.33625 1594.0307 553.09375 C 1594.0307 551.85125 1593.0183 550.84375 1591.7807 550.84375 Z"/>
    <path id="path42375" fill="#8cce55" stroke="#0f380f" stroke-opacity="0.14509804" stroke-linecap="round" stroke-linejoin="round" transform="matrix(1 0 0 1 0.5 1.2670726)" d="M 1598.6557 550.84375 C 1597.4057 550.84375 1596.4057 551.85125 1596.4057 553.09375 C 1596.4057 554.33625 1597.4057 555.34375 1598.6557 555.34375 C 1599.8933 555.34375 1600.9057 554.33625 1600.9057 553.09375 C 1600.9057 551.85125 1599.8933 550.84375 1598.6557 550.84375 Z"/>
    <path id="path42373" fill="#8cce55" stroke="#0f380f" stroke-opacity="0.14509804" stroke-linecap="round" stroke-linejoin="round" transform="matrix(1 0 0 1 0.5 1.2670726)" d="M 1596 555.6875 C 1594.7626 555.6875 1593.75 556.695 1593.75 557.9375 C 1593.75 559.18 1594.7626 560.1875 1596 560.1875 C 1596.7812 560.1875 1597.4407 559.78601 1597.8438 559.1875 C 1598.003 560.27492 1598.9357 561.125 1600.0625 561.125 C 1601.3125 561.125 1602.3125 560.1175 1602.3125 558.875 C 1602.3125 557.6325 1601.3125 556.625 1600.0625 556.625 C 1599.3044 556.625 1598.6265 557.01512 1598.2188 557.59375 C 1598.0584 556.50929 1597.1362 555.6875 1596 555.6875 Z"/>
    <path id="path42371" fill="#8cce55" stroke="#0f380f" stroke-opacity="0.14509804" stroke-linecap="round" stroke-linejoin="round" transform="matrix(1 0 0 1 0.5 1.2670726)" d="M 1613.5 586.84375 C 1612.2625 586.84375 1611.25 587.85125 1611.25 589.09375 C 1611.25 590.33625 1612.2625 591.34375 1613.5 591.34375 C 1614.75 591.34375 1615.75 590.33625 1615.75 589.09375 C 1615.75 587.85125 1614.75 586.84375 1613.5 586.84375 Z"/>
    <path id="path42369" fill="#8cce55" stroke="#0f380f" stroke-opacity="0.14509804" stroke-linecap="round" stroke-linejoin="round" transform="matrix(1 0 0 1 0.5 1.2670726)" d="M 1612.25 591.90625 C 1611 591.90625 1610 592.91375 1610 594.15625 C 1610 595.39875 1611 596.40625 1612.25 596.40625 C 1613.4876 596.40625 1614.5 595.39875 1614.5 594.15625 C 1614.5 592.91375 1613.4876 591.90625 1612.25 591.90625 Z"/>
    <path id="path42367" fill="#8cce55" stroke="#0f380f" stroke-opacity="0.14509804" stroke-linecap="round" stroke-linejoin="round" transform="matrix(1 0 0 1 0.5 1.2670726)" d="M 1617.3438 593.71875 C 1616.0938 593.71875 1615.0938 594.72625 1615.0938 595.96875 C 1615.0938 597.21125 1616.0938 598.21875 1617.3438 598.21875 C 1618.581 598.21875 1619.5938 597.21125 1619.5938 595.96875 C 1619.5938 594.72625 1618.581 593.71875 1617.3438 593.71875 Z"/>
    <path id="path42365" fill="#8cce55" stroke="#0f380f" stroke-opacity="0.14509804" stroke-linecap="round" stroke-linejoin="round" transform="matrix(1 0 0 1 0.5 1.2670726)" d="M 1622.6562 609.8125 C 1621.4062 609.8125 1620.4062 610.82 1620.4062 612.0625 C 1620.4062 613.305 1621.4062 614.3125 1622.6562 614.3125 C 1623.8938 614.3125 1624.9062 613.305 1624.9062 612.0625 C 1624.9062 610.82 1623.8938 609.8125 1622.6562 609.8125 Z"/>
    <path id="path42363" fill="#8cce55" stroke="#0f380f" stroke-opacity="0.14509804" stroke-linecap="round" stroke-linejoin="round" transform="matrix(1 0 0 1 0.5 1.2670726)" d="M 1618.125 618.25 C 1616.8876 618.25 1615.875 619.2575 1615.875 620.5 C 1615.875 621.7425 1616.8876 622.75 1618.125 622.75 C 1619.375 622.75 1620.375 621.7425 1620.375 620.5 C 1620.375 619.2575 1619.375 618.25 1618.125 618.25 Z"/>
    <path id="path42361" fill="#8cce55" stroke="#0f380f" stroke-opacity="0.14509804" stroke-linecap="round" stroke-linejoin="round" transform="matrix(1 0 0 1 0.5 1.2670726)" d="M 1613.875 620.90625 L 1613.2188 621.1875 L 1612.4375 621.2812 L 1611.5312 621.62495 L 1610.625 622.24995 L 1608.8125 622.5312 L 1607.9375 623.24995 L 1607.0312 623.24995 L 1607.75 625.06245 L 1608.625 624.3437 L 1609.5312 624.1562 L 1611.3438 624.1562 L 1613.2188 623.62495 L 1613.1248 622.7187 L 1612.2498 623.43745 L 1611.3436 623.7187 L 1611.8748 622.81245 L 1613.2186 621.5312 L 1613.8748 620.9062 L 1613.875 620.90625 Z"/>
    <path id="path42359" fill="#8cce55" stroke="#0f380f" stroke-opacity="0.14509804" stroke-linecap="round" stroke-linejoin="round" transform="matrix(1 0 0 1 0.5 1.2670726)" d="M 1605.6875 626.6875 L 1603.3438 626.9375 L 1602.4375 627.40625 L 1601 629.1875 L 1601.1875 630.09375 L 1602.0625 630.625 L 1602.25 630.5313 L 1604.0625 631.0938 L 1604.9375 631.0001 L 1606.75 630.28135 L 1607.0312 630.37505 L 1607.1875 629.37505 L 1607.1255 628.4688 L 1605.688 626.68755 L 1605.6875 626.6875 Z"/>
    <path id="path42357" fill="#8cce55" stroke="#0f380f" stroke-opacity="0.14509804" stroke-linecap="round" stroke-linejoin="round" transform="matrix(1 0 0 1 0.5 1.2670726)" d="M 1605.8438 632.5625 C 1604.5938 632.5625 1603.5938 633.57 1603.5938 634.8125 C 1603.5938 636.055 1604.5938 637.0625 1605.8438 637.0625 C 1607.081 637.0625 1608.0938 636.055 1608.0938 634.8125 C 1608.0938 633.57 1607.081 632.5625 1605.8438 632.5625 Z"/>
    <path id="path42355" fill="#8cce55" stroke="#0f380f" stroke-opacity="0.14509804" stroke-linecap="round" stroke-linejoin="round" transform="matrix(1 0 0 1 0.5 1.2670726)" d="M 1618.9062 642 C 1617.6562 642 1616.6562 643.0075 1616.6562 644.25 C 1616.6562 645.4925 1617.6562 646.5 1618.9062 646.5 C 1620.1438 646.5 1621.1562 645.4925 1621.1562 644.25 C 1621.1562 643.0075 1620.1438 642 1618.9062 642 Z"/>
    <path id="path42353" fill="#8cce55" stroke="#0f380f" stroke-opacity="0.14509804" stroke-linecap="round" stroke-linejoin="round" transform="matrix(1 0 0 1 0.5 1.2670726)" d="M 1618.8122 656 C 1617.5748 656 1616.5622 657.0075 1616.5622 658.25 C 1616.5622 659.4925 1617.5748 660.5 1618.8122 660.5 C 1620.0622 660.5 1621.0622 659.4925 1621.0622 658.25 C 1621.0622 657.0075 1620.0622 656 1618.8122 656 Z"/>
    <path id="path42351" fill="#8cce55" stroke="#0f380f" stroke-opacity="0.14509804" stroke-linecap="round" stroke-linejoin="round" transform="matrix(1 0 0 1 0.5 1.2670726)" d="M 1624 682.65625 C 1622.7626 682.65625 1621.75 683.66395 1621.75 684.90625 C 1621.75 686.14995 1622.7626 687.15625 1624 687.15625 C 1625.25 687.15625 1626.25 686.14995 1626.25 684.90625 C 1626.25 683.66395 1625.25 682.65625 1624 682.65625 Z"/>
    <path id="path42349" fill="#8cce55" stroke="#0f380f" stroke-opacity="0.14509804" stroke-linecap="round" stroke-linejoin="round" transform="matrix(1 0 0 1 0.5 1.2670726)" d="M 1620.4688 688.96875 C 1619.2312 688.96875 1618.2188 689.97605 1618.2188 691.21875 C 1618.2188 692.46235 1619.2312 693.46875 1620.4688 693.46875 C 1621.706 693.46875 1622.7188 692.46235 1622.7188 691.21875 C 1622.7188 689.97605 1621.706 688.96875 1620.4688 688.96875 Z"/>
    <path id="path42347" fill="#8cce55" stroke="#0f380f" stroke-opacity="0.14509804" stroke-linecap="round" stroke-linejoin="round" transform="matrix(1 0 0 1 0.5 1.2670726)" d="M 1618.5312 694.53125 C 1617.2812 694.53125 1616.2812 695.53875 1616.2812 696.78125 C 1616.2812 698.02495 1617.2812 699.03125 1618.5312 699.03125 C 1619.7688 699.03125 1620.7812 698.02495 1620.7812 696.78125 C 1620.7812 695.53875 1619.7688 694.53125 1618.5312 694.53125 Z"/>
    <path id="path42345" fill="#8cce55" stroke="#0f380f" stroke-opacity="0.14509804" stroke-linecap="round" stroke-linejoin="round" transform="matrix(1 0 0 1 0.5 1.2670726)" d="M 1579.8438 711.625 L 1581.9062 714.5 L 1582.1875 716.3125 L 1582.8125 717.28125 L 1583.7188 716.46875 L 1583 717.375 L 1585.7812 721.25 L 1585.7812 720.4375 L 1586.6875 721.0625 L 1587.6875 720.625 L 1588.0312 721.25 L 1587.0625 721.53125 L 1587.8438 722.4375 L 1586.9375 722.15625 L 1586.7812 722.34375 L 1587.9375 724.5 L 1589.75 725.3125 L 1589.1875 726.1875 L 1589.4688 726.9375 L 1589.3748 727.8125 L 1589.656 728.8125 L 1589.4686 729.71875 L 1589.5626 730.625 L 1588.7501 732.78125 L 1588.7501 734.3125 L 1588.3126 735.1875 L 1587.4063 735.75 L 1586.0626 736.1875 L 1585.0626 736.8125 L 1584.8126 737.8125 L 1585.1563 738.53125 L 1586.0626 738.96875 L 1587.0626 739.25 L 1587.9376 740.0625 L 1588.8439 740.5 L 1590.0001 740.6875 L 1590.8126 741.40625 L 1591.4376 742.3125 L 1591.6251 742.9375 L 1591.3751 744.90625 L 1590.6563 746.1875 L 1589.9376 747.09375 L 1589.9996 747.4375 L 1589.0308 748.15625 L 1589.5621 748.24995 L 1589.9996 749.1562 L 1591.1871 748.87495 L 1591.4371 749.7812 L 1592.3434 749.9687 L 1594.3434 748.87495 L 1595.1246 747.9062 L 1596.4058 745.9062 L 1596.4998 745.56245 L 1597.656 744.18745 L 1598.1873 743.2187 L 1598.9998 742.31245 L 1599.906 740.1562 L 1599.1873 738.3437 L 1599.7498 737.43745 L 1600.7186 736.56245 L 1601.8123 736.18745 L 1603.2498 736.18745 L 1604.1248 736.9062 L 1603.8748 735.9062 L 1604.1248 734.31245 L 1604.781 734.21875 L 1605.7498 733.3125 L 1606.031 732.3125 L 1606.125 730.4375 L 1606.3125 729.53125 L 1606.9375 728.71875 L 1605.125 728.09375 L 1603.1562 728.90625 L 1602.3438 730.0625 L 1601.4375 730.4375 L 1600.2812 730.5312 L 1596.9375 729.0937 L 1595.875 728.81245 L 1595.0625 728.37495 L 1594.9685 727.4687 L 1594.5935 726.4687 L 1594.6875 725.56245 L 1594.4375 724.5937 L 1593.5312 723.7812 L 1592.625 723.2187 L 1592.531 724.12495 L 1592.9998 726.0312 L 1592.0936 726.1249 L 1591.0936 724.7499 L 1590.1873 724.59365 L 1588.9373 724.3124 L 1589.3123 724.1249 L 1589.3743 723.40615 L 1589.5618 723.15615 L 1589.4678 722.2499 L 1589.6552 721.34365 L 1588.8428 720.6249 L 1587.499 718.71865 L 1588.4052 719.09365 L 1588.124 717.28115 L 1587.5928 716.40615 L 1586.6865 716.03115 L 1585.7802 715.21865 L 1584.874 714.6874 L 1583.9052 714.21865 L 1582.0928 713.78115 L 1580.9365 711.96865 L 1579.8428 711.6249 L 1579.8428 711.625 Z"/>
    <path id="path42343" fill="#8cce55" stroke="#0f380f" stroke-opacity="0.14509804" stroke-linecap="round" stroke-linejoin="round" transform="matrix(1 0 0 1 0.5 1.2670726)" d="M 1592.3438 720.09375 L 1592.2498 720.18745 L 1592.8123 721.06245 L 1592.3436 720.0937 L 1592.3438 720.09375 Z"/>
    <path id="path42341" fill="#8cce55" stroke="#0f380f" stroke-opacity="0.14509804" stroke-linecap="round" stroke-linejoin="round" transform="matrix(1 0 0 1 0.5 1.2670726)" d="M 1580.4688 744.03125 L 1579.5625 744.5625 L 1578.6875 744.84375 L 1577.6875 745.5625 L 1577.1562 746.375 L 1577.2502 748.25 L 1576.5002 749.5 L 1575.6877 750.40625 L 1574.1877 751.125 L 1573.3752 753.90625 L 1572.9064 754.90625 L 1572.6564 755.4375 L 1571.7502 756.34375 L 1571.219 757.15625 L 1570.219 757.78125 L 1569.3127 758.15625 L 1568.2502 759.21875 L 1566.4377 760.3125 L 1565.5314 761.3125 L 1564.5627 761.46875 L 1561.9377 763.28125 L 1560.1252 763.625 L 1559.2502 764.4375 L 1558.5002 765.4375 L 1557.6252 766.0625 L 1557.2502 766.96875 L 1556.3752 767.40625 L 1555.3752 769.03125 L 1554.3752 768.93755 L 1553.6564 769.8438 L 1553.469 770.8438 L 1554.1252 771.81255 L 1553.1252 771.18755 L 1552.219 771.9063 L 1553.219 772.2813 L 1552.219 772.81255 L 1553.219 772.81255 L 1552.3127 773.3438 L 1553.219 773.3438 L 1551.4064 773.9063 L 1550.969 774.87505 L 1551.063 775.06255 L 1551.938 774.62505 L 1551.5005 775.5313 L 1552.4067 775.25005 L 1551.938 776.25005 L 1554.4693 776.50005 L 1555.4693 775.9688 L 1556.3755 776.25005 L 1556.813 777.12505 L 1558.2505 777.06255 L 1559.438 777.68755 L 1559.5943 778.56255 L 1560.688 778.56255 L 1561.4067 778.4063 L 1562.3755 778.8438 L 1564.0005 778.7501 L 1565.9067 778.03135 L 1566.3443 777.1251 L 1567.3443 776.5001 L 1568.9693 774.71885 L 1569.938 774.53135 L 1570.2193 773.6251 L 1571.1255 771.7501 L 1571.313 770.84385 L 1572.6567 768.9376 C 1572.783 764.2263 1574.1128 764.87495 1578.2193 762.84385 L 1581.813 762.46885 L 1581.0005 761.46885 L 1580.1255 761.1251 C 1579.1779 758.7026 1581.4141 758.6414 1582.6255 757.4376 L 1583.813 755.0001 L 1585.5943 753.28135 L 1585.5943 753.03135 L 1586.2505 752.03135 L 1587.063 751.1251 L 1586.688 750.1251 L 1586.063 749.2501 L 1586.8755 748.15635 L 1585.9693 748.34385 L 1585.8753 748.0626 L 1586.7815 747.90635 L 1587.0628 747.0001 L 1586.0628 747.0001 L 1585.8753 747.90635 L 1584.9691 748.2501 L 1585.2503 747.96885 L 1584.9691 747.0001 L 1585.8753 746.28135 L 1584.0003 747.09385 L 1582.6253 748.15635 L 1581.7503 748.15635 L 1581.3753 747.2501 L 1581.5628 746.53135 L 1581.2815 745.5626 L 1580.3753 745.71885 L 1579.7503 745.0001 L 1580.4691 744.03135 L 1580.4688 744.03125 Z"/>
    <path id="path42339" fill="#8cce55" stroke="#0f380f" stroke-opacity="0.14509804" stroke-linecap="round" stroke-linejoin="round" transform="matrix(1 0 0 1 0.5 1.2670726)" d="M 1557.0625 779.03125 L 1556.8125 781 L 1556 781.90625 L 1556.9062 781.90625 L 1558.7812 781.53125 L 1558.9688 780.5625 L 1558.0625 780.5625 L 1557.9685 780.28125 L 1558.0625 779.3125 L 1557.0625 779.03125 L 1557.0625 779.03125 Z"/>
    <path id="path42337" fill="#8cce55" stroke="#0f380f" stroke-opacity="0.14509804" stroke-linecap="round" stroke-linejoin="round" transform="matrix(1 0 0 1 0.5 1.2670726)" d="M 1549.3438 802.0625 L 1548.625 803.875 L 1549.5312 803.15625 L 1550.1562 802.25 L 1549.3438 802.0625 L 1549.3438 802.0625 Z"/>
    <path id="path42335" fill="#8cce55" stroke="#0f380f" stroke-opacity="0.14509804" stroke-linecap="round" stroke-linejoin="round" transform="matrix(1 0 0 1 0.5 1.2670726)" d="M 1549.625 804.03125 L 1548.7188 804.21875 L 1549.625 804.21875 L 1549.625 804.03125 Z"/>
    <path id="path4214" fill="#8cce55" stroke="#0f380f" stroke-opacity="0.14509804" stroke-linecap="round" stroke-linejoin="round" transform="matrix(1 0 0 1 0.5 1.2670726)" d="M 1563.75 813.75 L 1562.75 814.40625 L 1563.75 813.9375 L 1563.75 813.75 Z"/>
    <path id="path42033-15" fill="#8cce55" stroke="#0f380f" stroke-opacity="0.14509804" stroke-linecap="round" stroke-linejoin="round" transform="matrix(1 0 0 1 0.5 1.2670726)" d="M 1552.0995 453.28668 C 1550.8621 453.28668 1549.8495 454.29538 1549.8495 455.53668 C 1549.8495 456.77918 1550.8621 457.78668 1552.0995 457.78668 C 1553.3369 457.78668 1554.3495 456.77918 1554.3495 455.53668 C 1554.3495 454.29538 1553.3369 453.28668 1552.0995 453.28668 Z"/>
    <path id="path42033-65" fill="#8cce55" stroke="#0f380f" stroke-opacity="0.14509804" stroke-linecap="round" stroke-linejoin="round" transform="matrix(1 0 0 1 0.5 1.2670726)" d="M 1562.7061 475.91409 C 1561.4687 475.91409 1560.4561 476.92279 1560.4561 478.16409 C 1560.4561 479.40659 1561.4687 480.41409 1562.7061 480.41409 C 1563.9435 480.41409 1564.9561 479.40659 1564.9561 478.16409 C 1564.9561 476.92279 1563.9435 475.91409 1562.7061 475.91409 Z"/>
    <path id="path42033-56" fill="#8cce55" stroke="#0f380f" stroke-opacity="0.14509804" stroke-linecap="round" stroke-linejoin="round" transform="matrix(1 0 0 1 0.5 1.2670726)" d="M 1568.0094 490.05623 C 1566.772 490.05623 1565.7594 491.06493 1565.7594 492.30623 C 1565.7594 493.54873 1566.772 494.55623 1568.0094 494.55623 C 1569.2468 494.55623 1570.2594 493.54873 1570.2594 492.30623 C 1570.2594 491.06493 1569.2468 490.05623 1568.0094 490.05623 Z"/>
    <path id="path42033-74" fill="#8cce55" stroke="#0f380f" stroke-opacity="0.14509804" stroke-linecap="round" stroke-linejoin="round" transform="matrix(1 0 0 1 0.5 1.2670726)" d="M 1566.2416 493.23821 C 1565.0042 493.23821 1563.9916 494.24691 1563.9916 495.48821 C 1563.9916 496.73071 1565.0042 497.73821 1566.2416 497.73821 C 1567.479 497.73821 1568.4916 496.73071 1568.4916 495.48821 C 1568.4916 494.24691 1567.479 493.23821 1566.2416 493.23821 Z"/>
    <path id="path42033-92" fill="#8cce55" stroke="#0f380f" stroke-opacity="0.14509804" stroke-linecap="round" stroke-linejoin="round" transform="matrix(1 0 0 1 0.5 1.2670726)" d="M 1564.1203 497.1273 C 1562.8829 497.1273 1561.8703 498.136 1561.8703 499.3773 C 1561.8703 500.6198 1562.8829 501.6273 1564.1203 501.6273 C 1565.3577 501.6273 1566.3703 500.6198 1566.3703 499.3773 C 1566.3703 498.136 1565.3577 497.1273 1564.1203 497.1273 Z"/>
    <path id="path42033-82" fill="#8cce55" stroke="#0f380f" stroke-opacity="0.14509804" stroke-linecap="round" stroke-linejoin="round" transform="matrix(1 0 0 1 0.5 1.2670726)" d="M 1566.5952 504.55192 C 1565.3578 504.55192 1564.3452 505.56062 1564.3452 506.80192 C 1564.3452 508.04442 1565.3578 509.05192 1566.5952 509.05192 C 1567.8326 509.05192 1568.8452 508.04442 1568.8452 506.80192 C 1568.8452 505.56062 1567.8326 504.55192 1566.5952 504.55192 Z"/>
    <path id="path42033-418" fill="#8cce55" stroke="#0f380f" stroke-opacity="0.14509804" stroke-linecap="round" stroke-linejoin="round" transform="matrix(1 0 0 1 0.5 1.2670726)" d="M 1558.817 507.38035 C 1557.5796 507.38035 1556.567 508.38905 1556.567 509.63035 C 1556.567 510.87285 1557.5796 511.88035 1558.817 511.88035 C 1560.0544 511.88035 1561.067 510.87285 1561.067 509.63035 C 1561.067 508.38905 1560.0544 507.38035 1558.817 507.38035 Z"/>
    <path id="path42033-84" fill="#8cce55" stroke="#0f380f" stroke-opacity="0.14509804" stroke-linecap="round" stroke-linejoin="round" transform="matrix(1 0 0 1 0.5 1.2670726)" d="M 1554.2208 503.13771 C 1552.9834 503.13771 1551.9708 504.14641 1551.9708 505.38771 C 1551.9708 506.63021 1552.9834 507.63771 1554.2208 507.63771 C 1555.4582 507.63771 1556.4708 506.63021 1556.4708 505.38771 C 1556.4708 504.14641 1555.4582 503.13771 1554.2208 503.13771 Z"/>
    <path id="path42033-66" fill="#8cce55" stroke="#0f380f" stroke-opacity="0.14509804" stroke-linecap="round" stroke-linejoin="round" transform="matrix(1 0 0 1 0.5 1.2670726)" d="M 1554.2208 499.95573 C 1552.9834 499.95573 1551.9708 500.96443 1551.9708 502.20573 C 1551.9708 503.44823 1552.9834 504.45573 1554.2208 504.45573 C 1555.4582 504.45573 1556.4708 503.44823 1556.4708 502.20573 C 1556.4708 500.96443 1555.4582 499.95573 1554.2208 499.95573 Z"/>
    <path id="path42033-63" fill="#8cce55" stroke="#0f380f" stroke-opacity="0.14509804" stroke-linecap="round" stroke-linejoin="round" transform="matrix(1 0 0 1 0.5 1.2670726)" d="M 1558.817 517.6334 C 1557.5796 517.6334 1556.567 518.6421 1556.567 519.8834 C 1556.567 521.1259 1557.5796 522.1334 1558.817 522.1334 C 1560.0544 522.1334 1561.067 521.1259 1561.067 519.8834 C 1561.067 518.6421 1560.0544 517.6334 1558.817 517.6334 Z"/>
    <path id="path42033-13" fill="#8cce55" stroke="#0f380f" stroke-opacity="0.14509804" stroke-linecap="round" stroke-linejoin="round" transform="matrix(1 0 0 1 0.5 1.2670726)" d="M 1560.9383 521.52248 C 1559.7009 521.52248 1558.6883 522.53118 1558.6883 523.77248 C 1558.6883 525.01498 1559.7009 526.02248 1560.9383 526.02248 C 1562.1757 526.02248 1563.1883 525.01498 1563.1883 523.77248 C 1563.1883 522.53118 1562.1757 521.52248 1560.9383 521.52248 Z"/>
    <path id="path42689" fill="#8cce55" stroke="#0f380f" stroke-opacity="0.14509804" stroke-linecap="round" stroke-linejoin="round" transform="matrix(1 0 0 1 0.5 1.2670726)" d="M 1503.8125 287.3125 L 1503.5312 288.21875 L 1504.3438 288.5 L 1504.7188 287.5 L 1503.8125 287.3125 L 1503.8125 287.3125 Z"/>
    <path id="path42687" fill="#8cce55" stroke="#0f380f" stroke-opacity="0.14509804" stroke-linecap="round" stroke-linejoin="round" transform="matrix(1 0 0 1 0.5 1.2670726)" d="M 1502.5625 287.59375 L 1501.8125 288.59375 L 1501.375 289.46875 L 1499.5 290.375 L 1499.0312 291.28125 L 1499.5625 292.28125 L 1500.4688 291.28125 L 1501.375 291.18755 L 1502.2812 290.18755 L 1503 288.4063 L 1502.5625 287.5938 L 1502.5625 287.59375 Z"/>
    <path id="path42685" fill="#8cce55" stroke="#0f380f" stroke-opacity="0.14509804" stroke-linecap="round" stroke-linejoin="round" transform="matrix(1 0 0 1 0.5 1.2670726)" d="M 1497.3125 294.6875 L 1496.4375 295.5 L 1495.9688 296.5 L 1496.875 296.5 L 1496.875 295.59375 L 1497.3125 294.6875 Z"/>
    <path id="path42683" fill="#8cce55" stroke="#0f380f" stroke-opacity="0.14509804" stroke-linecap="round" stroke-linejoin="round" transform="matrix(1 0 0 1 0.5 1.2670726)" d="M 1494 299.28125 L 1493.0938 299.65625 L 1493.0938 299.84375 L 1494 299.28125 Z"/>
    <path id="path42691" fill="#8cce55" stroke="#0f380f" stroke-opacity="0.14509804" stroke-linecap="round" stroke-linejoin="round" transform="matrix(1 0 0 1 0.5 1.2670726)" d="M 1507.875 284.96875 L 1505.5312 286.75 L 1505.5312 286.7812 L 1507.875 284.9687 L 1507.875 284.96875 Z"/>
    <path id="path43408-1" fill="#8cce55" stroke="#0f380f" stroke-opacity="0.14509804" stroke-linecap="round" stroke-linejoin="round" transform="matrix(1 0 0 1 0.5 1.2670726)" d="M 1539.9274 211.63845 L 1540.8984 207.71737 L 1534.4791 205.61466 L 1538.0944 205.02791 L 1537.3005 198.78869 L 1542.6464 196.05853 L 1537.8751 193.77386 L 1533.6071 191.23945 L 1526.4468 191.91455 L 1528.3126 186.63446 L 1520.8309 186.00737 L 1523.1763 181.04907 L 1519.8141 179.89389 L 1519.8143 179.89389 L 1521.7098 177.00338 L 1514.3693 174.23013 L 1514.4603 169.48951 L 1516.8969 169.85895 L 1516.7388 167.44305 C 1518.2954 167.67213 1519.852 168.41605 1521.4085 167.56406 L 1527.024 165.43463 L 1530.2463 166.2063 L 1533.3453 164.08082 L 1534.8324 165.73384 L 1535.9038 165.72584 L 1536.9451 162.08159 L 1537.2237 159.07711 L 1535.229 154.49992 L 1536.4664 154.49992 L 1537.3726 154.74992 L 1538.2788 154.68742 L 1539.2476 154.21867 L 1540.1538 154.40617 L 1541.0601 155.03117 L 1542.0601 155.40617 L 1543.8414 155.56242 L 1547.1851 155.46872 L 1548.1851 155.65622 L 1549.0601 156.12497 L 1551.8726 156.12497 L 1552.8414 156.28122 L 1554.7476 155.40622 L 1556.6226 154.03122 L 1557.5288 154.31247 L 1558.1538 155.31247 L 1559.1538 155.74997 L 1559.1538 157.65622 L 1559.8726 158.53122 L 1561.7476 158.71872 L 1563.6538 159.53122 L 1564.6226 160.24997 L 1564.7166 161.24997 L 1565.4353 162.15622 L 1569.2166 161.87497 L 1570.2166 162.31247 L 1569.6853 161.34372 L 1570.654 161.87497 L 1570.654 160.78122 L 1572.5603 160.06247 L 1571.8416 159.18747 L 1571.654 158.18747 L 1569.9353 155.40622 L 1569.0603 155.46872 L 1568.154 154.84372 L 1569.9353 153.96872 L 1569.6853 150.99997 L 1569.6847 150.99987 L 1570.5597 151.24987 L 1574.341 151.71862 L 1576.2472 152.15612 L 1579.5597 152.43737 L 1580.466 152.96862 L 1581.466 153.24987 L 1582.3722 153.96862 L 1583.341 153.40612 L 1582.466 152.68737 L 1583.341 152.49987 L 1585.2472 153.31237 L 1587.1222 153.15612 L 1588.1222 153.31237 L 1591.9972 153.40607 L 1592.9972 153.06232 L 1594.8722 152.96862 L 1595.8722 153.15612 L 1596.7472 154.03112 L 1597.6534 154.31237 L 1598.5597 154.84362 L 1599.5597 155.12487 L 1601.341 155.31237 L 1605.1222 156.56237 L 1606.0284 156.46867 L 1607.0284 156.65617 L 1607.9347 156.99992 L 1608.9034 157.71867 L 1607.9972 158.09367 L 1609.9034 158.09367 L 1611.8722 159.24992 L 1612.6847 160.15617 L 1611.7784 159.71867 L 1612.6847 160.43742 L 1613.6847 160.53112 L 1615.3097 161.06237 L 1616.2784 160.96867 L 1616.8097 161.87492 L 1618.716 162.21867 L 1619.6222 162.87492 L 1620.5284 163.68742 L 1619.5284 163.31242 L 1620.0597 164.21867 L 1621.0597 164.40617 L 1622.8722 165.03117 L 1623.4034 165.99992 L 1624.3097 165.65617 L 1621.4972 164.12492 L 1625.2784 166.09367 L 1624.3097 166.18737 L 1624.6534 166.90612 L 1625.5597 166.37487 L 1626.5597 166.71862 L 1633.9347 170.24987 L 1635.3722 171.15612 L 1635.9034 172.68737 L 1635.1847 173.56237 L 1636.091 173.46867 L 1637.0597 172.84367 L 1637.8722 173.74992 L 1637.2472 174.65617 L 1637.0597 175.65617 L 1637.966 177.43742 L 1637.4347 178.34367 L 1637.5287 179.34367 L 1638.435 179.49992 L 1639.685 181.31242 L 1640.5913 180.40617 L 1641.56 180.59367 L 1641.31 181.49992 L 1641.404 182.40617 L 1642.4666 180.93742 L 1641.8416 180.06242 L 1640.1228 179.49992 L 1641.029 179.06242 L 1641.4978 178.15617 L 1641.2166 177.24992 L 1640.6853 176.28117 L 1638.779 175.56242 L 1643.5603 175.46872 L 1645.4353 175.81247 L 1644.5603 176.62497 L 1644.5603 177.53122 L 1645.4353 177.34372 L 1645.1853 176.37497 L 1646.0603 176.81247 L 1646.9666 176.99997 L 1647.8728 176.43747 L 1646.9666 176.28122 L 1645.9978 175.81247 L 1647.5916 175.99997 L 1648.4948 176.28097 L 1647.5886 176.18727 L 1649.401 176.53102 L 1651.3073 176.62472 L 1652.1823 176.81222 L 1652.4636 177.71847 L 1653.3698 178.53097 L 1655.2448 179.78097 L 1656.2448 180.21847 L 1657.151 181.03097 L 1658.026 181.59347 L 1657.151 182.21847 L 1658.026 181.65597 L 1659.026 182.03097 L 1659.12 182.93722 L 1660.0262 182.84352 L 1660.0262 182.56227 L 1661.4638 183.12477 L 1660.995 184.09352 L 1660.0262 183.74977 L 1659.495 183.84347 L 1658.495 184.37472 L 1657.5888 185.28097 L 1657.5888 186.15597 L 1657.1512 186.96847 L 1656.245 186.90597 L 1654.3388 185.99972 L 1653.4325 185.81222 L 1654.3388 186.71847 L 1655.245 187.06222 L 1654.9012 187.96847 L 1653.9012 187.62472 L 1652.0888 187.68722 L 1651.12 187.62472 L 1650.2138 187.34347 L 1649.2138 187.43717 L 1648.7762 186.53092 L 1647.7762 186.24967 L 1646.87 186.43717 L 1648.7762 187.43717 L 1649.12 188.34342 L 1650.0262 187.96842 L 1649.5888 188.96842 L 1649.6828 189.87467 L 1649.2141 189.59342 L 1648.3078 189.93717 L 1649.3078 189.93717 L 1650.1203 190.84342 L 1649.3078 191.74967 L 1648.4015 192.18717 L 1646.5265 192.56217 L 1645.6203 193.18717 L 1646.5265 192.84342 L 1646.8078 193.71842 L 1645.9015 194.18717 L 1646.8703 194.37467 L 1648.6828 194.99967 L 1649.4015 195.87467 L 1648.4015 196.06217 L 1646.6203 196.06217 L 1646.1515 196.96842 L 1645.2453 197.15592 L 1644.1828 196.34342 L 1644.7141 195.43717 L 1644.2765 194.43717 L 1644.4328 195.15592 L 1643.9953 196.06217 L 1643.0891 196.53092 L 1641.1203 195.81217 L 1640.7453 194.81217 L 1640.2141 194.18717 L 1639.4015 194.09347 L 1637.5265 193.28097 L 1635.6203 193.18727 L 1633.7453 192.12477 L 1632.8391 191.37477 L 1633.3078 190.49977 L 1632.6515 189.49977 L 1632.5575 188.59352 L 1631.6825 187.96852 L 1630.6825 187.87482 L 1629.7762 187.53107 L 1627.9012 187.06232 L 1626.995 187.06232 L 1625.12 187.87482 L 1624.2138 187.96852 L 1621.3075 187.96852 L 1620.3388 187.68727 L 1620.6825 186.81227 L 1620.4325 185.90602 L 1619.5262 185.28102 L 1618.9012 184.37477 L 1619.8075 183.37477 L 1620.6825 181.59352 L 1619.7138 181.84352 L 1618.8075 182.65602 L 1617.9012 182.21852 L 1617.9012 181.31227 L 1616.995 181.74977 L 1617.089 182.65602 L 1616.1202 183.03102 L 1615.214 183.03102 L 1614.5577 183.99977 L 1614.6827 184.99977 L 1615.3702 185.90602 L 1616.3702 186.53102 L 1616.9327 187.53102 L 1615.9327 188.24977 L 1615.0264 188.24977 L 1613.6827 188.59352 L 1613.6827 189.15602 L 1614.6827 188.68727 L 1615.5577 188.59357 L 1615.839 189.49982 L 1615.3077 190.49982 L 1614.4014 190.93732 L 1613.4014 191.21857 L 1611.5264 192.74982 L 1609.714 193.28107 L 1607.839 194.28107 L 1606.9327 194.43732 L 1607.839 193.90607 L 1605.839 194.18732 L 1603.964 193.81232 L 1603.0577 193.81232 L 1602.1514 193.09357 L 1601.8077 192.18732 L 1600.9014 192.03107 L 1599.9014 191.21857 L 1598.9952 191.03107 L 1598.0264 191.37482 L 1597.1202 191.31232 L 1598.0264 191.56232 L 1598.9327 191.31232 L 1599.9014 191.56232 L 1600.8077 192.28107 L 1600.6202 193.18732 L 1599.7452 193.18732 L 1598.7452 192.74982 L 1597.839 192.84352 L 1596.9327 192.65602 L 1595.9327 192.18727 L 1594.964 192.28097 L 1595.589 192.37467 L 1596.4952 193.09342 L 1596.9327 193.99967 L 1596.0264 194.53092 L 1597.839 194.09342 L 1598.7452 194.71842 L 1599.7452 193.81217 L 1601.5264 193.28092 L 1601.8702 194.18717 L 1601.5264 195.15592 L 1602.0577 196.06217 L 1603.0577 196.87467 L 1603.964 197.34342 L 1604.9327 197.06217 L 1605.839 196.53092 L 1606.839 198.31217 L 1606.933 199.21842 L 1607.6517 200.12467 L 1607.933 201.09342 L 1607.839 201.99967 L 1606.9327 201.90597 L 1605.9327 202.56222 L 1606.9327 202.18722 L 1607.839 202.62472 L 1607.745 203.62472 L 1608.0888 202.62472 L 1608.7138 203.62472 L 1608.8078 204.24972 L 1610.7141 205.15597 L 1610.3391 206.06222 L 1610.4331 207.06222 L 1611.3394 207.31222 L 1611.7768 208.21847 L 1610.4331 210.03097 L 1609.5268 210.37472 L 1609.7144 211.28097 L 1604.1206 209.65597 L 1603.2456 209.46847 L 1602.2456 209.46847 L 1601.2456 208.74972 L 1601.3396 207.84347 L 1600.4333 208.31222 L 1599.7458 207.40597 L 1599.4646 208.65597 L 1600.277 209.56222 L 1599.3708 209.74972 L 1598.3708 209.74972 L 1596.4958 211.37472 L 1594.4958 211.90597 L 1592.6208 212.62472 L 1591.6208 212.53102 L 1591.4333 213.43727 L 1589.5583 214.06227 L 1588.652 213.81227 L 1588.9333 214.68727 L 1588.027 214.96852 L 1587.3083 214.87482 L 1586.402 215.15607 L 1585.4333 215.78107 L 1584.527 215.68737 L 1583.6208 216.06237 L 1581.9958 217.84362 L 1580.9958 217.56237 L 1580.1208 217.84362 L 1580.7458 218.74987 L 1579.8396 218.46862 L 1579.5583 219.37487 L 1578.6833 219.18737 L 1577.777 219.74987 L 1578.3083 220.62487 L 1577.402 220.56237 L 1577.0583 221.43737 L 1576.6833 221.71862 L 1575.8083 221.90612 L 1574.8083 222.53112 L 1573.8083 222.71862 L 1572.9958 223.68737 L 1571.1208 224.24987 L 1570.2146 224.87487 L 1569.6833 225.84362 L 1569.2146 227.65612 L 1568.777 228.18737 L 1566.9646 226.93737 L 1566.9646 225.93737 L 1566.0583 225.40612 L 1565.3708 224.40612 L 1564.8083 224.24987 L 1563.9333 223.34362 L 1562.9958 223.68737 L 1561.2146 223.87487 L 1560.3083 223.53112 L 1559.3083 223.59362 L 1558.3396 223.78112 L 1555.4646 224.78112 L 1554.5583 225.21862 L 1553.652 224.96862 L 1553.1208 225.93737 L 1550.2458 228.74987 L 1549.3396 228.65617 L 1549.527 227.12492 L 1550.152 226.21867 L 1549.777 224.31242 L 1548.8083 224.68742 L 1547.902 225.49992 L 1545.1208 227.03117 L 1544.2146 227.12487 L 1545.1208 227.65612 L 1544.027 228.81237 L 1543.1208 228.65612 L 1542.6833 227.65612 L 1542.1208 227.12487 L 1540.777 227.84362 L 1539.8083 228.56237 L 1539.9958 227.65612 L 1539.7146 227.46862 L 1538.8083 227.28112 L 1537.902 227.65612 L 1538.0896 228.46862 L 1537.0896 228.56232 L 1536.5583 229.46857 L 1536.6523 230.34357 L 1535.7461 230.71857 L 1536.2773 231.62482 L 1536.1833 232.53107 L 1535.3083 232.68732 L 1535.2143 233.59357 L 1534.308 233.68727 L 1535.0267 234.59352 C 1532.4235 235.88477 1526.8617 241.79352 1532.4955 242.96852 L 1532.4955 241.96852 L 1533.4017 241.49977 L 1535.308 242.40602 L 1536.183 243.12477 L 1535.7455 244.03102 L 1533.8705 245.65602 L 1534.0267 247.90602 L 1533.8705 248.81227 L 1534.2143 249.71852 L 1535.1205 249.71852 L 1536.1205 250.06227 L 1536.0265 250.96852 L 1536.4641 252.74978 L 1535.8391 253.65603 L 1534.8391 254.37478 L 1533.9328 254.03103 L 1533.0578 253.12478 L 1533.5891 252.21853 L 1534.5891 251.87478 L 1534.9328 250.96852 L 1533.9328 251.49977 L 1533.0578 251.68727 L 1532.1515 252.12478 L 1532.4953 253.03103 L 1530.9953 253.74978 L 1529.3703 256.46853 L 1528.9953 257.43728 L 1529.0893 259.24978 L 1529.3705 260.21853 L 1530.9955 262.03103 L 1530.433 262.93728 L 1529.4643 263.65603 L 1528.558 264.09353 L 1527.558 264.28103 C 1525.053 262.54853 1522.8568 265.25603 1520.9955 266.62478 L 1520.3705 268.34353 L 1520.2765 269.31228 L 1520.8078 270.21853 L 1520.3703 271.12478 L 1521.0891 272.18728 L 1520.9951 273.09353 L 1519.5576 272.28103 L 1518.6513 272.28103 L 1516.7763 273.09353 L 1514.9639 274.28103 L 1514.1513 273.37478 L 1513.8076 274.28103 L 1514.6826 274.71853 L 1514.1513 276.53103 L 1514.2453 277.40603 L 1513.1515 279.31228 L 1513.0895 280.21853 L 1511.4645 281.99978 L 1510.5582 282.71853 L 1509.5582 283.18728 L 1509.4019 283.37478 L 1509.3709 283.40598 L 1508.8397 284.09348 L 1507.8709 284.96848 L 1505.5271 286.74973 L 1505.8709 285.87473 L 1505.7769 284.96848 L 1504.8707 284.09348 L 1504.7145 283.18723 L 1504.8085 281.28098 L 1504.621 279.49973 L 1504.0585 277.68723 L 1504.3398 276.68723 L 1503.4335 276.06223 L 1503.0898 275.09348 L 1502.1835 268.68723 L 1501.8085 266.90598 L 1501.4648 265.99973 C 1501.2907 265.35817 1501.1237 264.71066 1500.996 264.06223 C 1500.7406 262.76537 1500.5842 261.46424 1500.5272 260.15598 C 1500.4992 259.50185 1500.5032 258.8402 1500.5272 258.18723 C 1500.5522 257.524 1500.6022 256.87773 1500.6835 256.21848 C 1500.7615 255.57955 1500.8628 254.94487 1500.996 254.31223 L 1500.996 254.28103 C 1501.1323 253.63841 1501.3006 253.00821 1501.496 252.37478 C 1501.6914 251.74134 1501.9268 251.12133 1502.1835 250.49977 L 1503.8085 248.71852 L 1504.8085 247.99977 L 1505.6835 247.62477 L 1507.0585 244.93727 L 1506.871 243.93727 L 1505.9648 243.03102 L 1506.871 242.40602 L 1507.746 242.87477 L 1508.746 242.78107 L 1509.371 242.31232 L 1509.6522 242.15607 L 1510.1835 241.15607 L 1511.0898 241.43732 L 1511.996 241.43732 L 1512.996 240.96857 L 1514.7772 239.53107 L 1516.6835 238.46857 L 1518.371 236.74982 L 1519.9022 234.84357 L 1520.0898 233.96857 L 1522.8085 231.78107 L 1523.246 230.90607 L 1525.0585 230.28107 L 1526.8398 228.65607 L 1527.5585 227.65607 L 1529.4335 226.49982 L 1529.9022 225.59357 L 1530.1835 224.59357 L 1533.7772 223.15607 L 1534.6835 222.24982 L 1536.5585 222.06232 L 1538.371 221.18732 L 1537.4648 220.28107 L 1539.246 218.65607 L 1539.4335 217.74982 L 1538.5272 217.12482 L 1538.9022 216.12482 L 1539.8085 215.49982 L 1539.8085 213.62482 L 1539.996 211.81232 L 1541.871 210.46857 L 1542.7772 210.18732 L 1543.6835 210.56232 L 1544.6522 210.56232 L 1545.5585 211.09357 L 1545.2772 210.18732 L 1547.1835 210.37482 L 1546.1835 210.09357 L 1544.371 209.93732 L 1541.5898 208.56232 Z"/>
</svg>
