<svg width="1671.094" height="856.39252" viewBox="0 0 1671.094 856.39252" xmlns="http://www.w3.org/2000/svg" xmlns:usvg="https://github.com/RazrFalcon/usvg" usvg:version="0.8.0">
    <defs/>
    <path id="path12134-4-9" fill="#3e73c5" fill-opacity="0.42857145" stroke="#000000" stroke-opacity="0.24675323" stroke-linecap="round" stroke-linejoin="round" transform="matrix(1 0 0 1 0.5 1.2670726)" d="M 1083.9276 314.83395 L 1084.1151 314.92765 L 1084.2713 314.92765 C 1084.1563 314.89785 1084.0415 314.87045 1083.9276 314.83395 Z M 1065.0197 426.24011 C 1064.1533 425.15102 1060.7011 425.55647 1058.9885 425.45886 L 1055.3947 425.17761 L 1052.2385 424.55261 L 1048.551 424.36511 L 1045.676 423.45886 L 1044.3323 420.95886 L 1043.6135 417.89636 L 1041.2697 416.45886 L 1035.5197 418.33386 L 1031.0197 419.05261 L 1027.8635 418.42761 L 1025.5197 416.89636 L 1023.4573 415.17761 L 1022.9573 414.86511 L 1022.9573 414.86521 L 1022.957 414.86483 L 1022.957 414.86483 L 1021.1132 413.64655 L 1018.2382 412.77155 L 1016.707 410.52155 L 1015.5507 407.70905 L 1014.2694 405.20905 L 1012.4882 403.20905 L 1010.582 401.33405 L 1007.1757 400.8653 L 1003.3944 400.8653 L 1003.3634 400.8341 L 1003.2072 400.5216 L 1002.2072 399.8966 L 1002.0509 399.5216 L 1002.1129 397.6466 L 1001.3941 397.0841 L 1000.4879 396.74035 L 1000.4879 395.8341 L 1000.6129 394.8341 L 1000.6749 394.49035 L 1001.1436 393.3966 L 1001.2376 393.3341 L 1000.7688 392.42785 L 1000.0501 391.42785 L 999.61264 390.7091 L 999.05014 389.61535 L 998.17514 389.55285 L 997.45644 389.2716 L 997.26884 388.99035 L 995.36264 387.6466 L 994.64384 387.2091 L 994.20644 387.0216 L 993.20644 387.0216 L 993.30044 386.11535 L 993.58174 385.86535 L 992.67544 384.3341 L 992.48794 384.2404 L 992.39394 383.95915 L 991.51894 383.52165 L 989.89394 381.70915 L 990.17524 381.3654 L 990.61274 380.5529 L 990.17524 379.64665 L 990.05024 379.3654 L 990.42524 378.45915 L 991.33154 378.7404 L 991.05024 377.7404 L 991.61274 376.8654 L 992.05024 376.39665 L 992.30024 376.0529 L 992.39424 375.8654 L 993.39424 375.8654 L 993.48824 375.4904 L 993.30074 374.8654 L 992.67574 373.95915 L 992.76974 373.14665 L 993.67604 372.6154 L 993.67604 372.1779 L 992.67604 371.9904 L 991.76974 372.0841 L 991.33234 371.7091 L 990.95734 371.2716 L 990.80104 371.2716 L 990.61354 371.1779 L 990.42604 371.0842 L 990.23854 370.9905 L 989.98854 371.178 L 989.61354 371.178 L 989.51954 371.0843 L 989.51954 370.11555 L 989.26954 369.2093 L 988.36334 368.6468 L 988.26934 368.49055 L 988.08194 368.30305 L 988.36314 367.5843 L 987.98814 367.1468 L 987.36314 366.9593 L 987.26914 366.8656 L 987.45674 365.95935 L 987.01914 365.0531 L 986.92504 364.89682 L 987.12504 364.15682 L 986.21864 363.53195 L 986.12494 363.1882 L 986.03124 362.28195 L 986.21875 362 L 985.5 361.5625 L 984.59375 361.125 C 985.47375 357.645 985.37465 360.50375 984.59375 356.875 L 984.78125 355.90625 L 984.21875 355.25 L 984.12505 355 L 984.12505 354.09375 L 983.5 353 L 985.21875 352.84375 L 985.5625 351.3125 L 986.469 351.12482 L 985.928 350.30282 L 987.02154 351.20865 L 987.17784 351.64615 L 987.99034 352.83365 L 988.55284 353.45865 L 989.36534 353.9899 L 989.80284 354.6149 L 989.99034 355.08365 L 990.24034 355.17735 L 990.95914 355.3336 L 991.86534 355.61485 L 992.86534 355.70855 L 993.49034 355.95855 L 994.39654 355.6148 L 995.11534 355.8023 L 996.11534 354.89605 L 996.45914 354.3648 L 997.45914 353.9898 L 999.05284 352.5523 L 999.95914 352.1773 L 1000.8653 351.64605 L 1000.9273 351.52105 L 1000.9583 351.45855 L 1001.7707 351.20855 L 1001.8017 351.23975 L 1001.8327 351.23975 L 1002.7389 352.021 L 1003.5514 352.92725 L 1003.5514 352.98975 L 1002.6764 353.36475 L 1002.9264 354.271 L 1003.3951 354.7085 L 1003.2077 355.17725 L 1002.3014 355.3335 L 1002.3954 356.23975 L 1003.0204 356.67725 L 1003.9267 357.146 L 1004.3642 357.80225 L 1004.6142 358.17725 L 1004.6452 358.20845 L 1004.7392 358.20845 L 1004.8332 358.39595 C 1007.7778 360.33631 1003.2704 366.58307 1005.739 358.05182 L 1006.084 358.29582 L 1006.178 358.296 C 1006.119 358.686 1006.0553 359.0485 1006.084 359.45225 L 1006.178 359.45225 L 1006.178 359.9835 L 1006.272 360.0772 L 1006.272 360.29595 L 1006.272 360.6397 L 1006.366 360.7022 L 1006.366 360.7959 L 1006.46 360.7959 L 1006.46 361.45215 L 1006.554 361.45215 L 1006.554 361.51465 L 1006.616 361.51465 L 1006.616 361.9834 L 1006.71 362.0771 L 1006.804 362.1708 L 1006.804 362.32705 L 1006.898 362.42075 L 1006.992 362.51445 L 1007.1795 362.70195 L 1007.2415 362.70195 L 1007.2415 362.79565 L 1007.3665 362.79565 L 1007.3665 362.88935 L 1007.4285 362.88935 L 1007.5225 362.95185 L 1007.6165 362.95185 L 1007.7105 363.04555 L 1007.8979 363.13925 L 1007.9919 363.23295 L 1008.1481 363.23295 L 1008.2421 363.32665 L 1008.4296 363.42035 L 1008.5236 363.42035 L 1008.6176 363.51405 L 1008.9614 363.51405 L 1009.1488 363.60775 L 1009.9614 363.60775 L 1010.0554 363.70145 L 1010.8679 363.70145 L 1010.8679 363.60775 L 1011.1179 363.60775 L 1011.1179 363.70145 L 1011.0559 363.70145 L 1011.0559 363.76395 L 1011.2122 363.76395 L 1011.3062 363.85765 L 1011.5875 363.85765 L 1011.7437 363.95135 L 1012.0249 363.95135 L 1012.1189 364.04505 L 1012.3064 364.04505 L 1012.3064 364.13875 L 1012.4004 364.13875 L 1012.4004 364.4825 L 1012.4944 364.5762 L 1012.4944 364.6699 L 1012.5254 364.7324 L 1012.5564 364.7636 L 1012.5564 364.8573 L 1012.6504 364.951 L 1012.6504 365.1385 L 1012.7444 365.1385 L 1012.7444 365.29475 L 1012.8384 365.29475 L 1012.8384 365.38845 L 1012.9324 365.38845 L 1012.9324 365.48215 L 1013.1199 365.48215 L 1013.1199 365.57585 L 1013.3074 365.66955 L 1013.3694 365.76325 L 1013.4634 365.76325 L 1013.4634 365.95075 L 1013.5574 365.95075 L 1013.6514 366.01325 L 1013.9327 366.10695 L 1013.9947 366.20065 L 1014.1197 366.29435 L 1014.2759 366.29435 L 1014.3699 366.38805 L 1014.3699 366.48175 L 1014.4639 366.48175 L 1014.5579 366.57545 L 1014.9016 366.7317 L 1014.9956 366.7317 L 1014.9956 366.8254 L 1015.1831 366.8254 L 1015.2771 366.9191 L 1015.3711 366.9191 L 1015.3711 367.0128 L 1015.5586 367.0128 L 1015.5586 367.1065 L 1015.6206 367.1065 L 1015.8081 367.294 L 1015.9021 367.294 L 1015.9021 367.3877 L 1015.9961 367.3877 L 1016.0901 367.4502 L 1016.1841 367.4502 L 1016.3716 367.5439 L 1016.5278 367.5439 L 1016.6218 367.6376 L 1016.9968 367.6376 L 1017.0588 367.7313 L 1017.5275 367.7313 L 1017.7151 367.825 L 1017.9651 367.825 L 1018.0591 367.9187 L 1018.2466 367.9187 L 1018.3406 368.0124 L 1018.6218 368.0124 L 1018.778 368.1061 L 1019.153 368.1061 L 1019.247 368.1998 L 1019.5908 368.1998 L 1019.5908 368.2623 L 1019.872 368.2623 L 1019.966 368.356 L 1020.4972 368.356 L 1020.6847 368.356 L 1020.8722 368.2623 L 1021.1222 368.2623 L 1021.2162 368.1998 L 1021.4036 368.1998 L 1021.4036 368.1061 L 1021.6849 368.1061 L 1021.7469 368.0124 L 1022.0281 368.0124 L 1022.0281 367.9187 L 1022.3094 367.9187 L 1022.5594 367.825 L 1022.7469 367.825 L 1022.8409 367.7313 C 1023.782 367.7788 1023.0921 367.59755 1023.8096 367.6376 L 1023.8096 367.5439 L 1024.2783 367.5439 L 1024.3723 367.4502 L 1024.5598 367.4502 L 1024.7161 367.3877 L 1024.9035 367.3877 L 1024.9975 367.294 L 1025.2475 367.294 L 1025.2475 367.2003 L 1025.435 367.2003 L 1025.529 367.1066 L 1025.8103 367.1066 L 1025.9043 367.0129 C 1026.3111 367.0366 1026.0193 366.88165 1026.6231 366.9192 L 1026.7171 366.8255 L 1027.1545 366.8255 L 1027.2485 366.7318 L 1027.436 366.7318 L 1028.2485 366.7318 L 1028.2485 366.6693 L 1028.9673 366.6693 L 1029.4985 366.6693 L 1029.5925 366.5756 L 1029.7487 366.5756 L 1029.7487 366.4819 L 1029.8737 366.4819 L 1029.8737 366.3882 L 1029.9357 366.3882 L 1029.9357 366.5757 L 1029.8737 366.6694 L 1029.4987 366.6694 L 1029.4987 366.7319 L 1029.1237 366.7319 L 1029.0617 366.8256 L 1028.9677 366.8256 L 1028.8737 366.7319 L 1028.7797 366.7319 L 1028.6857 366.8256 L 1028.3107 366.8256 L 1028.3107 366.9193 L 1028.2487 366.9193 L 1028.3107 367.013 L 1028.3107 367.1067 L 1028.6857 367.1067 L 1028.7797 367.2004 L 1029.7485 367.2004 L 1029.8735 367.1067 L 1030.0297 367.1067 L 1030.0297 366.2942 L 1029.8735 366.2942 L 1029.8735 366.2005 L 1029.9355 366.1068 L 1029.9355 365.95055 L 1029.8735 365.95055 L 1029.8735 365.76305 L 1029.7485 365.76305 L 1029.7485 365.4818 L 1029.6865 365.3881 L 1029.6865 365.04435 L 1029.5925 364.95065 L 1029.5925 364.85695 L 1029.4985 364.76325 L 1029.4985 364.32575 L 1029.4045 364.32575 L 1029.4045 364.20075 L 1029.4045 363.982 L 1029.6858 363.982 L 1030.7483 364.0757 L 1032.5608 363.41945 L 1032.9983 363.35695 L 1033.1858 363.16945 L 1033.3733 363.07575 L 1033.4353 362.1695 L 1034.3416 361.357 L 1034.7166 360.9195 L 1035.6228 360.45075 L 1037.0603 359.9195 L 1038.2166 359.8258 L 1039.1228 360.10705 L 1040.029 360.10705 L 1040.4666 360.01335 L 1040.654 359.2946 L 1042.529 358.9196 L 1042.7166 359.1071 L 1043.6228 359.38835 L 1044.3416 359.1071 L 1045.154 359.63835 L 1045.3103 360.5446 L 1047.2166 361.01335 L 1048.1228 361.3571 L 1049.1853 361.63835 L 1050.0916 362.45085 L 1050.6228 362.26335 L 1051.529 362.35705 L 1052.154 362.0758 L 1053.0603 362.4508 L 1053.9666 363.0758 L 1054.6853 363.79455 L 1055.1228 364.7008 L 1055.7478 365.04455 L 1056.654 365.13825 L 1057.5603 365.607 L 1059.0916 367.57575 L 1062.6853 367.66945 L 1062.8728 367.66945 L 1062.8728 369.4507 L 1063.2478 370.16945 L 1062.9666 371.0757 L 1062.779 371.2632 L 1063.3103 372.16945 L 1063.31 373.07582 L 1063.0461 373.68908 L 1062.1622 376.87107 L 1062.1182 377.62237 L 1060.704 378.72722 L 1060.66 378.99239 L 1061.4113 380.05305 L 1060.2622 380.18563 L 1059.6877 381.37887 L 1059.6437 382.88147 L 1059.9089 383.72116 L 1061.4557 384.25149 L 1059.9089 386.06345 L 1061.2347 390.96901 L 1060.9695 391.98547 L 1061.1905 394.63712 L 1064.726 395.25584 L 1065.6541 396.75844 L 1065.5215 397.8633 L 1061.2789 403.03402 L 1061.531 402.87482 L 1061.521 402.86482 L 1063.2394 404.7399 L 1063.8644 405.64615 L 1063.8644 405.9274 L 1064.6769 407.27115 L 1064.7389 407.36485 L 1065.1139 408.2711 L 1066.2077 409.3336 L 1067.1139 409.80235 L 1068.6139 410.1461 L 1069.5201 411.05235 L 1069.7077 411.05235 L 1070.4264 411.48985 L 1070.3324 412.0211 L 1070.6761 414.83361 L 1070.6141 415.08361 L 1070.4266 415.98986 L 1071.3329 416.17736 L 1071.8641 416.08366 L 1072.7703 416.17736 L 1072.9266 416.52111 L 1073.0206 416.58361 L 1073.0206 416.61481 L 1072.8644 416.61481 L 1072.6769 416.80231 L 1072.5829 417.17731 L 1072.1453 419.14606 L 1072.0513 419.05236 L 1070.6138 419.05236 L 1069.7076 419.33361 L 1068.4263 419.58361 L 1068.0826 420.48986 L 1067.8013 420.39616 L 1067.5513 420.30246 L 1066.5513 420.95871 L 1065.9263 421.83371 L 1065.8323 422.92746 L 1065.301 423.45871 L 1065.0197 425.80246 L 1065.0197 426.23996"/>
    <path id="path12142-1" fill="#8cce55" stroke="#0f380f" stroke-opacity="0.14509804" stroke-linecap="round" stroke-linejoin="round" transform="matrix(1 0 0 1 0.5 1.2670726)" d="M 1028.3026 366.83395 L 1028.2406 366.74025 L 1028.1466 366.83395 L 1028.3029 366.83395 Z"/>
    <path id="path12134-4" fill="#8cce55" stroke="#0f380f" stroke-opacity="0.14509804" stroke-linecap="round" stroke-linejoin="round" transform="matrix(1 0 0 1 0.5 1.2670726)" d="M 1083.9276 314.83395 L 1084.1151 314.92765 L 1084.2713 314.92765 C 1084.1563 314.89785 1084.0415 314.87045 1083.9276 314.83395 Z M 1065.0197 426.2401 C 1064.1533 425.15101 1060.7011 425.55646 1058.9885 425.45885 L 1055.3947 425.1776 L 1052.2385 424.5526 L 1048.551 424.3651 L 1045.676 423.45885 L 1044.3323 420.95885 L 1043.6135 417.89635 L 1041.2697 416.45885 L 1035.5197 418.33385 L 1031.0197 419.0526 L 1027.8635 418.4276 L 1025.5197 416.89635 L 1023.4573 415.1776 L 1022.9573 414.8651 L 1022.9573 414.8652 L 1022.957 414.86482 L 1022.957 414.86482 L 1021.1132 413.64655 L 1018.2382 412.77155 L 1016.707 410.52155 L 1015.5507 407.70905 L 1014.2694 405.20905 L 1012.4882 403.20905 L 1010.582 401.33405 L 1007.1757 400.8653 L 1003.3944 400.8653 L 1003.3634 400.8341 L 1003.2072 400.5216 L 1002.2072 399.8966 L 1002.0509 399.5216 L 1002.1129 397.6466 L 1001.3941 397.0841 L 1000.4879 396.74035 L 1000.4879 395.8341 L 1000.6129 394.8341 L 1000.6749 394.49035 L 1001.1436 393.3966 L 1001.2376 393.3341 L 1000.7688 392.42785 L 1000.0501 391.42785 L 999.61264 390.7091 L 999.05014 389.61535 L 998.17514 389.55285 L 997.45644 389.2716 L 997.26884 388.99035 L 995.36264 387.6466 L 994.64384 387.2091 L 994.20644 387.0216 L 993.20644 387.0216 L 993.30044 386.11535 L 993.58174 385.86535 L 992.67544 384.3341 L 992.48794 384.2404 L 992.39394 383.95915 L 991.51894 383.52165 L 989.89394 381.70915 L 990.17524 381.3654 L 990.61274 380.5529 L 990.17524 379.64665 L 990.05024 379.3654 L 990.42524 378.45915 L 991.33154 378.7404 L 991.05024 377.7404 L 991.61274 376.8654 L 992.05024 376.39665 L 992.30024 376.0529 L 992.39424 375.8654 L 993.39424 375.8654 L 993.48824 375.4904 L 993.30074 374.8654 L 992.67574 373.95915 L 992.76974 373.14665 L 993.67604 372.6154 L 993.67604 372.1779 L 992.67604 371.9904 L 991.76974 372.0841 L 991.33234 371.7091 L 990.95734 371.2716 L 990.80104 371.2716 L 990.61354 371.1779 L 990.42604 371.0842 L 990.23854 370.9905 L 989.98854 371.178 L 989.61354 371.178 L 989.51954 371.0843 L 989.51954 370.11555 L 989.26954 369.2093 L 988.36334 368.6468 L 988.26934 368.49055 L 988.08194 368.30305 L 988.36314 367.5843 L 987.98814 367.1468 L 987.36314 366.9593 L 987.26914 366.8656 L 987.45674 365.95935 L 987.01914 365.0531 L 986.92504 364.89682 L 987.12504 364.15682 L 986.21864 363.53195 L 986.12494 363.1882 L 986.03124 362.28195 L 986.21875 362 L 985.5 361.5625 L 984.59375 361.125 C 985.47375 357.645 985.37465 360.50375 984.59375 356.875 L 984.78125 355.90625 L 984.21875 355.25 L 984.12505 355 L 984.12505 354.09375 L 983.5 353 L 985.21875 352.84375 L 985.5625 351.3125 L 986.469 351.12482 L 985.928 350.30282 L 987.02154 351.20865 L 987.17784 351.64615 L 987.99034 352.83365 L 988.55284 353.45865 L 989.36534 353.9899 L 989.80284 354.6149 L 989.99034 355.08365 L 990.24034 355.17735 L 990.95914 355.3336 L 991.86534 355.61485 L 992.86534 355.70855 L 993.49034 355.95855 L 994.39654 355.6148 L 995.11534 355.8023 L 996.11534 354.89605 L 996.45914 354.3648 L 997.45914 353.9898 L 999.05284 352.5523 L 999.95914 352.1773 L 1000.8653 351.64605 L 1000.9273 351.52105 L 1000.9583 351.45855 L 1001.7707 351.20855 L 1001.8017 351.23975 L 1001.8327 351.23975 L 1002.7389 352.021 L 1003.5514 352.92725 L 1003.5514 352.98975 L 1002.6764 353.36475 L 1002.9264 354.271 L 1003.3951 354.7085 L 1003.2077 355.17725 L 1002.3014 355.3335 L 1002.3954 356.23975 L 1003.0204 356.67725 L 1003.9267 357.146 L 1004.3642 357.80225 L 1004.6142 358.17725 L 1004.6452 358.20845 L 1004.7392 358.20845 L 1004.8332 358.39595 C 1007.7778 360.33631 1003.2704 366.58307 1005.739 358.05182 L 1006.084 358.29582 L 1006.178 358.296 C 1006.119 358.686 1006.0553 359.0485 1006.084 359.45225 L 1006.178 359.45225 L 1006.178 359.9835 L 1006.272 360.0772 L 1006.272 360.29595 L 1006.272 360.6397 L 1006.366 360.7022 L 1006.366 360.7959 L 1006.46 360.7959 L 1006.46 361.45215 L 1006.554 361.45215 L 1006.554 361.51465 L 1006.616 361.51465 L 1006.616 361.9834 L 1006.71 362.0771 L 1006.804 362.1708 L 1006.804 362.32705 L 1006.898 362.42075 L 1006.992 362.51445 L 1007.1795 362.70195 L 1007.2415 362.70195 L 1007.2415 362.79565 L 1007.3665 362.79565 L 1007.3665 362.88935 L 1007.4285 362.88935 L 1007.5225 362.95185 L 1007.6165 362.95185 L 1007.7105 363.04555 L 1007.8979 363.13925 L 1007.9919 363.23295 L 1008.1481 363.23295 L 1008.2421 363.32665 L 1008.4296 363.42035 L 1008.5236 363.42035 L 1008.6176 363.51405 L 1008.9614 363.51405 L 1009.1488 363.60775 L 1009.9614 363.60775 L 1010.0554 363.70145 L 1010.8679 363.70145 L 1010.8679 363.60775 L 1011.1179 363.60775 L 1011.1179 363.70145 L 1011.0559 363.70145 L 1011.0559 363.76395 L 1011.2122 363.76395 L 1011.3062 363.85765 L 1011.5875 363.85765 L 1011.7437 363.95135 L 1012.0249 363.95135 L 1012.1189 364.04505 L 1012.3064 364.04505 L 1012.3064 364.13875 L 1012.4004 364.13875 L 1012.4004 364.4825 L 1012.4944 364.5762 L 1012.4944 364.6699 L 1012.5254 364.7324 L 1012.5564 364.7636 L 1012.5564 364.8573 L 1012.6504 364.951 L 1012.6504 365.1385 L 1012.7444 365.1385 L 1012.7444 365.29475 L 1012.8384 365.29475 L 1012.8384 365.38845 L 1012.9324 365.38845 L 1012.9324 365.48215 L 1013.1199 365.48215 L 1013.1199 365.57585 L 1013.3074 365.66955 L 1013.3694 365.76325 L 1013.4634 365.76325 L 1013.4634 365.95075 L 1013.5574 365.95075 L 1013.6514 366.01325 L 1013.9327 366.10695 L 1013.9947 366.20065 L 1014.1197 366.29435 L 1014.2759 366.29435 L 1014.3699 366.38805 L 1014.3699 366.48175 L 1014.4639 366.48175 L 1014.5579 366.57545 L 1014.9016 366.7317 L 1014.9956 366.7317 L 1014.9956 366.8254 L 1015.1831 366.8254 L 1015.2771 366.9191 L 1015.3711 366.9191 L 1015.3711 367.0128 L 1015.5586 367.0128 L 1015.5586 367.1065 L 1015.6206 367.1065 L 1015.8081 367.294 L 1015.9021 367.294 L 1015.9021 367.3877 L 1015.9961 367.3877 L 1016.0901 367.4502 L 1016.1841 367.4502 L 1016.3716 367.5439 L 1016.5278 367.5439 L 1016.6218 367.6376 L 1016.9968 367.6376 L 1017.0588 367.7313 L 1017.5275 367.7313 L 1017.7151 367.825 L 1017.9651 367.825 L 1018.0591 367.9187 L 1018.2466 367.9187 L 1018.3406 368.0124 L 1018.6218 368.0124 L 1018.778 368.1061 L 1019.153 368.1061 L 1019.247 368.1998 L 1019.5908 368.1998 L 1019.5908 368.2623 L 1019.872 368.2623 L 1019.966 368.356 L 1020.4972 368.356 L 1020.6847 368.356 L 1020.8722 368.2623 L 1021.1222 368.2623 L 1021.2162 368.1998 L 1021.4036 368.1998 L 1021.4036 368.1061 L 1021.6849 368.1061 L 1021.7469 368.0124 L 1022.0281 368.0124 L 1022.0281 367.9187 L 1022.3094 367.9187 L 1022.5594 367.825 L 1022.7469 367.825 L 1022.8409 367.7313 C 1023.782 367.7788 1023.0921 367.59755 1023.8096 367.6376 L 1023.8096 367.5439 L 1024.2783 367.5439 L 1024.3723 367.4502 L 1024.5598 367.4502 L 1024.7161 367.3877 L 1024.9035 367.3877 L 1024.9975 367.294 L 1025.2475 367.294 L 1025.2475 367.2003 L 1025.435 367.2003 L 1025.529 367.1066 L 1025.8103 367.1066 L 1025.9043 367.0129 C 1026.3111 367.0366 1026.0193 366.88165 1026.6231 366.9192 L 1026.7171 366.8255 L 1027.1545 366.8255 L 1027.2485 366.7318 L 1027.436 366.7318 L 1028.2485 366.7318 L 1028.2485 366.6693 L 1028.9673 366.6693 L 1029.4985 366.6693 L 1029.5925 366.5756 L 1029.7487 366.5756 L 1029.7487 366.4819 L 1029.8737 366.4819 L 1029.8737 366.3882 L 1029.9357 366.3882 L 1029.9357 366.5757 L 1029.8737 366.6694 L 1029.4987 366.6694 L 1029.4987 366.7319 L 1029.1237 366.7319 L 1029.0617 366.8256 L 1028.9677 366.8256 L 1028.8737 366.7319 L 1028.7797 366.7319 L 1028.6857 366.8256 L 1028.3107 366.8256 L 1028.3107 366.9193 L 1028.2487 366.9193 L 1028.3107 367.013 L 1028.3107 367.1067 L 1028.6857 367.1067 L 1028.7797 367.2004 L 1029.7485 367.2004 L 1029.8735 367.1067 L 1030.0297 367.1067 L 1030.0297 366.2942 L 1029.8735 366.2942 L 1029.8735 366.2005 L 1029.9355 366.1068 L 1029.9355 365.95055 L 1029.8735 365.95055 L 1029.8735 365.76305 L 1029.7485 365.76305 L 1029.7485 365.4818 L 1029.6865 365.3881 L 1029.6865 365.04435 L 1029.5925 364.95065 L 1029.5925 364.85695 L 1029.4985 364.76325 L 1029.4985 364.32575 L 1029.4045 364.32575 L 1029.4045 364.20075 L 1029.4045 363.982 L 1029.6858 363.982 L 1030.7483 364.0757 L 1032.5608 363.41945 L 1032.9983 363.35695 L 1033.1858 363.16945 L 1033.3733 363.07575 L 1033.4353 362.1695 L 1034.3416 361.357 L 1034.7166 360.9195 L 1035.6228 360.45075 L 1037.0603 359.9195 L 1038.2166 359.8258 L 1039.1228 360.10705 L 1040.029 360.10705 L 1040.4666 360.01335 L 1040.654 359.2946 L 1042.529 358.9196 L 1042.7166 359.1071 L 1043.6228 359.38835 L 1044.3416 359.1071 L 1045.154 359.63835 L 1045.3103 360.5446 L 1047.2166 361.01335 L 1048.1228 361.3571 L 1049.1853 361.63835 L 1050.0916 362.45085 L 1050.6228 362.26335 L 1051.529 362.35705 L 1052.154 362.0758 L 1053.0603 362.4508 L 1053.9666 363.0758 L 1054.6853 363.79455 L 1055.1228 364.7008 L 1055.7478 365.04455 L 1056.654 365.13825 L 1057.5603 365.607 L 1059.0916 367.57575 L 1062.6853 367.66945 L 1062.8728 367.66945 L 1062.8728 369.4507 L 1063.2478 370.16945 L 1062.9666 371.0757 L 1062.779 371.2632 L 1063.3103 372.16945 L 1063.31 373.07582 L 1063.0461 373.68908 L 1062.1622 376.87107 L 1062.1182 377.62237 L 1060.704 378.72722 L 1060.66 378.99239 L 1061.4113 380.05305 L 1060.2622 380.18563 L 1059.6877 381.37887 L 1059.6437 382.88147 L 1059.9089 383.72116 L 1061.4557 384.25149 L 1059.9089 386.06345 L 1061.2347 390.96901 L 1060.9695 391.98547 L 1061.1905 394.63712 L 1064.726 395.25584 L 1065.6541 396.75844 L 1065.5215 397.8633 L 1061.2789 403.03402 L 1061.531 402.87482 L 1061.521 402.86482 L 1063.2394 404.7399 L 1063.8644 405.64615 L 1063.8644 405.9274 L 1064.6769 407.27115 L 1064.7389 407.36485 L 1065.1139 408.2711 L 1066.2077 409.3336 L 1067.1139 409.80235 L 1068.6139 410.1461 L 1069.5201 411.05235 L 1069.7077 411.05235 L 1070.4264 411.48985 L 1070.3324 412.0211 L 1070.6761 414.8336 L 1070.6141 415.0836 L 1070.4266 415.98985 L 1071.3329 416.17735 L 1071.8641 416.08365 L 1072.7703 416.17735 L 1072.9266 416.5211 L 1073.0206 416.5836 L 1073.0206 416.6148 L 1072.8644 416.6148 L 1072.6769 416.8023 L 1072.5829 417.1773 L 1072.1453 419.14605 L 1072.0513 419.05235 L 1070.6138 419.05235 L 1069.7076 419.3336 L 1068.4263 419.5836 L 1068.0826 420.48985 L 1067.8013 420.39615 L 1067.5513 420.30245 L 1066.5513 420.9587 L 1065.9263 421.8337 L 1065.8323 422.92745 L 1065.301 423.4587 L 1065.0197 425.80245 L 1065.0197 426.23995"/>
</svg>
