<svg width="1671.094" height="856.39252" viewBox="0 0 1671.094 856.39252" xmlns="http://www.w3.org/2000/svg" xmlns:usvg="https://github.com/RazrFalcon/usvg" usvg:version="0.8.0">
    <defs/>
    <path id="path81935" fill="#3e73c5" fill-opacity="0.42857145" stroke="#000000" stroke-opacity="0.24675323" stroke-linecap="round" stroke-linejoin="round" d="M 972.5876 342.57948 L 972.4939 342.48578 L 973.4939 341.04828 L 973.5564 340.51703 L 973.02515 338.70453 L 972.4939 337.64203 L 972.4002 336.73578 L 971.93145 335.73578 L 971.05645 335.48578 L 970.24395 334.57953 L 969.24395 333.95453 L 967.4627 333.57953 L 966.55645 332.76703 L 965.36895 332.14203 L 965.2127 332.04833 L 965.2785 332.07073 L 966.57994 332.47932 L 967.92545 332.32133 L 971.88645 333.60992 L 975.01463 333.91447 L 976.25538 333.59792 L 978.08977 334.26081 L 979.26505 336.17167 L 979.98345 336.45813 L 981.90714 337.26359 L 981.69835 337.68983 L 983.27036 338.4442 L 984.52163 337.69379 L 984.78329 337.19874 L 986.06598 337.10994 L 986.89162 337.7941 L 987.35902 337.19655 L 989.10457 338.18896 L 991.2296 338.59554 L 991.01675 339.63253 L 995.24038 340.41353 L 995.23838 340.41653 L 997.23838 341.41653 L 997.95718 342.29153 L 998.92588 343.01028 L 999.48838 343.91653 L 1001.1758 344.29153 L 1002.0821 343.66653 L 1002.8008 342.76028 L 1002.9883 342.76028 L 1004.3321 342.13528 L 1004.4261 341.94778 L 1004.9574 341.04153 L 1005.0514 340.85403 L 1005.1134 340.82283 L 1005.1444 340.85403 L 1005.1444 340.94773 L 1005.2384 341.01023 L 1005.3324 341.01023 L 1005.4264 341.10393 L 1005.4884 341.19763 L 1005.5194 341.19763 L 1005.6134 341.29133 L 1005.9572 341.66633 L 1006.0512 341.79133 L 1006.0512 341.82253 L 1006.1452 341.91623 L 1006.1452 342.00993 L 1006.2392 342.00993 L 1006.2392 342.29118 L 1006.3954 342.29118 L 1006.3954 342.38488 L 1006.4894 342.38488 L 1006.4894 342.47858 L 1006.5834 342.47858 L 1006.5834 342.63483 L 1006.6774 342.63483 L 1006.6774 342.82233 L 1006.7714 342.91603 L 1006.8654 342.91603 L 1006.8654 343.00973 L 1006.9594 343.00973 L 1006.9594 343.10343 L 1007.0534 343.10343 L 1007.0534 343.25968 L 1007.1154 343.25968 L 1007.1154 343.35338 L 1007.3029 343.35338 L 1007.3029 343.44708 L 1007.3969 343.44708 L 1007.3969 343.54078 L 1007.4909 343.72828 L 1007.4909 343.82198 L 1007.5849 343.82198 L 1007.5849 343.91568 L 1007.6789 343.97818 L 1007.7409 344.16568 L 1007.8659 344.16568 L 1007.8659 344.72818 L 1007.9279 344.72818 L 1007.9279 344.97818 L 1008.0219 344.97818 L 1008.0219 345.25943 L 1008.1159 345.44693 L 1008.1159 345.50943 L 1008.2099 345.60313 L 1008.2099 345.69683 L 1008.3039 345.69683 L 1008.3979 345.79053 L 1008.3979 345.88423 L 1008.4919 345.88423 L 1008.4919 345.97793 L 1008.5539 345.97793 L 1008.5539 346.07163 L 1008.6479 346.07163 L 1008.6479 346.16533 L 1008.7419 346.16533 L 1008.7419 346.22783 L 1008.8359 346.32153 L 1008.9299 346.32153 L 1008.9299 346.50903 L 1009.0239 346.50903 L 1009.0239 346.60273 L 1009.1179 346.60273 L 1009.1179 346.69643 L 1009.4617 346.69643 L 1009.4617 346.79013 L 1009.5557 346.88383 L 1009.6497 346.88383 L 1009.6497 347.13383 L 1009.5557 347.22753 L 1009.5557 347.50878 L 1009.6497 347.60248 L 1009.7437 347.69618 L 1009.8377 347.75868 L 1009.9317 347.75868 L 1009.9317 347.85238 L 1010.2754 347.85238 L 1010.2754 347.94608 L 1010.3694 347.94608 L 1010.3694 348.03978 L 1010.7444 348.03978 L 1010.8064 348.13348 L 1011.2751 348.13348 L 1011.3691 348.03978 L 1011.6191 348.03978 L 1012.0879 348.03978 L 1012.0879 348.13348 L 1012.1819 348.22718 L 1012.2439 348.32088 L 1012.3689 348.32088 L 1012.3689 348.41458 L 1012.6189 348.41458 L 1012.6189 348.47708 L 1012.9001 348.47708 L 1012.9001 348.57078 L 1012.9941 348.66448 L 1013.0561 348.75818 L 1013.0561 348.85188 L 1013.1501 348.85188 L 1013.1501 348.94558 L 1013.2441 348.94558 L 1013.3381 349.03928 L 1013.4321 349.03928 L 1013.4321 349.19553 L 1013.5261 349.19553 C 1013.4761 350.02433 1013.6361 349.59428 1013.6201 350.00803 L 1013.5261 349.94553 L 1013.5261 349.85183 L 1013.4321 349.75813 L 1013.4321 349.66443 L 1013.3381 349.66443 L 1013.3381 349.57073 L 1013.2441 349.57073 L 1013.1501 349.47703 L 1013.0561 349.47703 L 1013.0561 349.38333 L 1012.6186 349.38333 L 1012.5246 349.28963 L 1012.2434 349.28963 L 1012.2434 349.38333 L 1012.1814 349.38333 L 1012.0874 349.28963 L 1011.9934 349.28963 L 1011.9934 349.38333 L 1011.8994 349.38333 L 1011.8994 349.47703 L 1011.712 349.47703 L 1011.712 349.38333 L 1011.618 349.28963 L 1011.4618 349.28963 L 1011.3678 349.19593 L 1011.2738 349.19593 L 1011.2738 349.28963 L 1011.1798 349.28963 L 1011.0858 349.38333 L 1011.0858 349.57083 L 1010.9918 349.57083 L 1010.9918 349.66453 L 1010.7418 349.66453 L 1010.7418 349.75823 L 1010.4606 349.75823 L 1010.4606 349.85193 L 1010.3666 349.85193 L 1010.3666 349.94563 L 1010.1166 349.94563 L 1009.9916 350.00813 L 1009.8354 350.00813 L 1009.8354 350.10183 L 1009.7414 350.10183 L 1009.7414 350.19553 L 1009.6474 350.19553 L 1009.5534 350.28923 L 1009.4594 350.38293 L 1009.4594 350.72668 L 1009.3031 350.72668 L 1009.3031 350.82038 L 1009.2091 350.82038 L 1009.2091 351.00788 L 1009.3031 351.10158 L 1009.3031 351.19528 L 1009.3651 351.19528 L 1009.3651 351.28898 L 1009.3651 351.38268 L 1009.3031 351.47638 L 1009.2091 351.47638 L 1009.2091 351.53888 L 1009.1151 351.63258 L 1009.1151 351.72628 L 1009.2091 351.72628 L 1009.2091 351.91378 L 1009.3031 351.91378 C 1009.0276 352.20628 1009.1306 351.96378 1009.1156 352.35128 L 1009.0216 352.35128 L 1009.0216 352.63253 L 1009.1156 352.72623 L 1009.1156 352.81993 L 1009.1156 352.91363 L 1008.9281 352.91363 L 1008.9281 352.97613 L 1008.8341 353.06983 L 1008.8341 353.16353 L 1008.7401 353.16353 L 1008.6461 353.25723 L 1008.6461 353.53848 L 1008.5521 353.53848 L 1008.5521 353.78848 L 1008.4901 353.88218 L 1008.4901 354.06968 L 1008.5521 354.06968 L 1008.5521 354.16338 L 1008.6461 354.25708 L 1008.7401 354.25708 L 1008.7401 354.35078 L 1008.8341 354.35078 L 1008.9281 354.44448 L 1009.0221 354.50698 L 1009.1161 354.50698 L 1009.1161 354.69448 L 1009.0221 354.69448 L 1009.0221 354.88198 L 1008.9281 354.78828 L 1008.8341 354.78828 L 1008.9281 354.88198 L 1008.9281 354.97568 L 1009.0221 355.06938 L 1008.9281 355.06938 L 1008.8341 354.97568 L 1008.8341 354.88198 L 1008.7401 354.88198 L 1008.6461 354.78828 L 1008.4899 354.78828 L 1008.4899 354.88198 L 1008.3024 355.06948 L 1008.3024 355.88198 L 1008.2084 356.03823 L 1008.2084 356.13193 L 1008.1144 356.13193 L 1008.1144 356.60068 L 1008.0204 356.60068 L 1007.9264 356.69438 L 1007.9264 356.75688 L 1007.7389 356.75688 L 1007.7079 356.78808 L 1007.4891 356.75688 L 1007.4891 356.69438 L 1007.3951 356.69438 L 1007.3951 356.60068 C 1007.7889 356.58698 1007.5564 356.67068 1007.8639 356.41318 L 1007.8639 356.13193 L 1007.7389 356.03823 L 1007.6769 356.03823 L 1007.4894 356.03823 C 1007.5034 355.77823 1007.5054 355.63823 1007.1144 355.60073 L 1007.0524 355.69443 L 1006.9584 355.78813 L 1006.9584 355.97563 L 1006.8644 356.03813 L 1006.8644 356.13183 L 1006.8644 356.41308 L 1006.9584 356.41308 L 1006.9584 356.63183 L 1006.7708 356.60063 L 1006.7708 357.03813 L 1006.7708 357.22563 L 1006.6768 357.31933 L 1006.5828 357.31933 L 1006.5828 357.41303 L 1006.3952 357.41303 L 1006.3952 357.75678 L 1006.4892 357.75678 L 1006.4892 357.94428 L 1006.5832 357.94428 L 1006.5832 358.03798 L 1006.4892 358.41298 L 1006.5832 359.28798 L 1006.5832 359.41298 L 1006.2394 359.31928 L 1005.3332 359.66303 L 1005.2392 359.47553 L 1005.1452 359.47553 L 1005.1142 359.44433 L 1004.8642 359.06933 L 1004.4267 358.41308 L 1003.5204 357.94433 L 1002.8954 357.50683 L 1002.8014 356.60058 L 1003.7077 356.44433 L 1003.8951 355.97558 L 1003.4264 355.53808 L 1003.1764 354.63183 L 1004.0514 354.25683 L 1004.0514 354.19433 L 1003.2389 353.28808 L 1002.3327 352.50683 L 1002.3017 352.50683 L 1002.2707 352.47563 L 1001.4583 352.72563 L 1001.4273 352.78813 L 1001.3653 352.91313 L 1000.4591 353.44438 L 999.55288 353.81938 L 997.95918 355.25688 L 996.95918 355.63188 L 996.61538 356.16313 L 995.61538 357.06938 L 994.89658 356.88188 L 993.99038 357.22563 L 993.36538 356.97563 L 992.36538 356.88193 L 991.45918 356.60068 L 990.74038 356.44443 L 990.49038 356.35073 L 990.30288 355.88198 L 989.86538 355.25698 L 989.05288 354.72573 L 988.49038 354.10073 L 987.67788 352.91323 L 987.52158 352.47573 L 986.42788 351.56948 L 986.05288 351.03823 L 985.70918 350.94453 L 985.61518 350.85083 L 985.08398 350.66333 C 983.65978 351.08208 983.52518 350.71703 982.30268 350.22583 L 982.45898 349.60083 L 982.11518 348.69458 L 982.30268 347.88208 L 982.64638 347.35083 L 982.74038 347.16333 L 982.74038 346.88208 L 982.64638 346.53833 L 982.11518 345.53833 L 981.39638 344.81958 L 980.31259 344.39215 L 980.21889 344.1109 L 980.06264 344.0172 L 980.21889 343.73595 L 979.31264 343.2047 L 978.78139 342.67345 L 978.25014 342.57975 L 978.53139 342.236 L 977.34389 342.236 L 977.00014 342.95475 L 975.18764 342.6735 L 974.28139 342.6735 L 973.84389 343.01725 L 973.37514 342.861 Z"/>
    <path id="path81828" fill="#3e73c5" fill-opacity="0.42857145" stroke="#000000" stroke-opacity="0.24675323" stroke-linecap="round" stroke-linejoin="round" transform="matrix(1 0 0 1 0.5 1.2670726)" d="M 999.05264 220.27145 L 998.17764 220.45895 L 997.45894 221.70895 L 997.61514 221.89645 L 997.70914 221.99015 L 997.27154 222.86515 L 997.27154 222.95885 L 997.08414 223.14635 L 996.36534 225.4901 L 995.45914 225.77135 L 994.49034 225.83385 L 994.39634 226.7401 L 994.55264 226.9276 L 995.45894 227.20885 L 996.36514 227.20885 L 997.36514 226.83385 L 997.27114 227.5526 L 997.27114 227.6463 L 996.98994 228.6463 L 997.89614 229.36505 L 997.80214 230.3338 L 997.61464 231.24005 L 998.42714 232.24005 L 998.52114 233.1463 L 999.33374 233.49005 L 999.86494 234.49005 L 998.89614 235.11505 L 998.61494 236.0213 L 997.89614 236.0213 L 997.36494 236.92755 L 996.45874 237.36505 L 995.45874 237.45875 L 995.36474 237.74 L 995.20854 238.615 L 995.02094 238.7087 L 994.83354 238.98995 L 994.73954 239.08365 L 994.20834 240.33365 L 994.20834 240.77115 L 994.48954 241.0524 L 995.92704 241.1461 L 998.70834 241.1461 L 999.42704 241.42735 L 1000.3333 241.5836 L 999.70834 243.3961 L 999.80234 243.4898 L 999.80234 243.6773 L 999.14604 244.4898 L 998.23984 244.3961 L 997.36484 244.73985 L 997.27084 244.64615 L 996.36464 244.4899 L 996.17714 244.7399 L 995.73964 245.64615 L 996.55214 246.5524 L 995.98964 246.70865 L 996.17714 247.6149 L 995.92714 248.1774 L 996.73964 248.4274 L 997.45844 248.5211 L 998.36464 249.05235 L 999.33344 248.80235 L 999.61464 248.80235 L 1000.4896 247.8961 L 1001.3021 247.9898 L 1002.4896 247.9898 L 1003.1146 247.08355 L 1003.3021 246.89605 L 1004.2084 247.08355 L 1005.0834 246.8023 L 1005.9896 247.45855 L 1006.4584 247.27105 L 1007.3646 246.45855 L 1007.1771 246.8023 L 1008.0521 247.70855 L 1009.8646 247.52105 L 1010.2396 248.70855 L 1011.2084 248.89605 L 1011.5834 249.77105 L 1011.4894 250.4898 L 1012.4894 250.33355 L 1013.3644 250.4898 L 1013.5519 251.3023 L 1013.5519 251.4898 L 1014.4582 252.39605 L 1014.8019 252.30235 L 1015.3644 252.67735 L 1015.6144 253.2086 L 1015.7084 253.3023 L 1016.7084 253.64605 L 1017.3334 254.1148 L 1017.8646 253.64605 L 1018.7708 253.55235 L 1017.6771 254.6461 L 1017.8646 255.0836 L 1018.7708 254.8336 L 1019.6771 255.0836 L 1020.4896 254.8336 L 1021.4896 254.9273 L 1021.3956 254.02105 L 1021.8332 254.11475 L 1022.7394 254.271 L 1022.9894 254.2085 L 1023.8956 253.8335 L 1023.8016 253.11475 L 1023.4579 253.02105 L 1023.8953 252.1148 L 1024.6141 251.8648 L 1024.8953 251.58355 L 1024.8953 251.48985 L 1024.4266 251.30235 L 1024.5516 251.20865 L 1024.8016 251.20865 L 1024.8016 251.0524 L 1025.1766 251.0524 L 1025.1766 251.1461 L 1025.2386 251.1461 L 1024.8948 252.0211 L 1024.8948 252.92735 L 1025.0824 253.30235 L 1025.9886 253.8336 L 1026.3324 253.0211 L 1027.2386 252.8336 L 1027.3326 253.73985 L 1026.8638 254.55235 L 1025.9888 254.98985 L 1026.4263 255.55235 L 1027.5826 255.17735 L 1028.0513 255.08365 L 1029.02 254.27115 L 1029.9263 254.27115 L 1030.5513 253.39615 L 1031.27 252.9274 L 1031.364 252.8337 L 1031.27 252.48995 L 1031.27 252.2087 L 1031.364 252.2087 L 1031.27 251.5837 L 1030.3013 251.05245 L 1030.1138 250.86495 L 1029.9263 250.67745 L 1030.0203 250.58375 L 1029.9263 250.14625 L 1029.4888 250.4275 L 1029.02 250.49 L 1029.395 249.615 L 1030.02 249.5213 L 1030.114 249.5213 L 1030.114 248.80255 L 1030.6452 247.8963 L 1031.5515 247.7088 L 1031.1765 246.6463 L 1031.1765 246.4588 L 1030.364 245.4588 L 1030.489 244.55255 L 1030.551 244.30255 L 1029.676 244.11505 L 1030.4885 243.2088 L 1030.3635 242.9588 L 1030.1135 241.67755 L 1030.0195 241.24005 L 1029.2071 240.1463 L 1029.1131 239.24005 L 1028.7693 238.36505 L 1028.3943 237.17755 L 1029.1131 236.2088 L 1028.5819 235.3963 L 1028.4879 234.67755 L 1029.0191 233.7713 L 1028.1129 233.7713 L 1026.5191 233.1463 L 1026.0504 232.24005 L 1026.6129 231.3338 L 1027.0504 229.80255 L 1027.9567 229.5213 L 1028.3941 227.6463 L 1027.9567 226.6463 L 1027.2379 226.11505 L 1026.1441 226.55255 L 1024.1754 226.49005 L 1022.3629 226.2088 L 1021.8317 226.0213 L 1020.8317 225.49005 L 1020.0504 225.92755 L 1019.5817 226.8338 L 1018.6754 227.6463 L 1018.4879 227.8338 L 1017.5191 227.6463 L 1016.7067 227.2713 L 1015.8004 227.6463 L 1015.2691 228.17755 L 1014.3629 228.55255 L 1011.5817 229.2713 L 1011.2067 229.1776 L 1011.2067 229.89635 L 1010.3004 230.70885 L 1010.3004 232.58385 L 1010.0504 233.0526 L 1009.1441 232.9589 L 1009.0501 232.05265 L 1008.1438 231.7089 L 1007.7064 231.24015 L 1006.7064 231.24015 L 1006.8004 230.5214 L 1006.8944 230.5214 L 1006.8944 229.99015 L 1006.2694 229.99015 L 1005.1757 229.80265 L 1004.6444 229.70895 L 1004.207 228.64645 L 1004.207 227.64645 L 1004.0194 226.7402 L 1004.7382 225.77145 L 1005.082 224.8652 L 1004.6444 224.8652 L 1004.7384 224.58395 L 1004.3009 222.95895 L 1003.9259 221.9902 L 1003.8319 221.70895 L 1002.0506 221.52145 L 1001.1443 220.5527 L 999.80064 220.27145 L 999.05064 220.27145 Z"/>
    <path id="path81826" fill="#3e73c5" fill-opacity="0.42857145" stroke="#000000" stroke-opacity="0.24675323" stroke-linecap="round" stroke-linejoin="round" transform="matrix(1 0 0 1 0.5 1.2670726)" d="M 1017.6151 263.1152 L 1017.2401 263.3652 L 1016.2401 263.83395 L 1015.8026 264.8027 L 1015.6151 264.8964 L 1014.7401 264.8964 L 1014.7401 264.8027 L 1013.7401 265.1777 L 1013.6461 265.2714 L 1012.7399 264.55265 L 1011.8961 264.30265 L 1012.2399 264.7714 L 1012.5837 265.3964 L 1012.5837 266.11515 L 1012.4897 266.3964 L 1012.4277 267.2714 L 1011.5214 267.6464 L 1011.5214 268.6464 L 1011.4274 268.6464 L 1010.4274 268.2714 L 1009.8024 268.6464 L 1008.8961 268.36515 L 1007.9899 268.55265 L 1007.1774 268.36515 L 1007.1154 268.36515 L 1006.7404 268.6464 L 1006.2092 269.2714 L 1005.3029 269.1777 L 1004.3029 268.9902 L 1004.5842 269.45895 L 1004.4902 269.6152 L 1003.8652 269.6152 L 1003.7712 269.9902 L 1003.9588 270.0839 L 1003.6775 270.99015 L 1003.1462 270.99015 L 1002.24 271.24015 L 1002.0525 271.7089 L 1002.6775 272.5839 L 1002.865 272.7714 L 1003.1462 272.9589 L 1003.6775 273.86515 L 1003.7715 273.95885 L 1004.3965 274.02135 L 1004.5841 273.95885 L 1004.9278 274.6776 L 1004.2403 275.20885 L 1003.8653 275.5526 L 1003.8653 275.7401 L 1004.3028 275.8338 L 1004.4903 275.7401 L 1005.3965 276.02135 L 1005.6778 276.5526 L 1006.3653 277.45885 L 1007.2715 276.9901 L 1007.5528 276.9901 L 1008.4591 277.0838 L 1008.3651 277.6463 L 1009.2713 277.6463 L 1009.8026 277.8963 L 1010.6151 278.80255 L 1011.5213 278.80255 L 1011.6776 279.0838 L 1012.6776 279.8963 L 1013.1151 279.8963 L 1013.9276 280.1463 L 1014.8339 280.61505 L 1015.0213 281.2713 L 1015.4276 280.92755 L 1016.3339 280.4588 L 1017.2401 279.7402 L 1017.8651 278.8652 L 1017.8651 278.6777 L 1017.6776 277.8652 L 1018.1463 276.8652 L 1018.2403 275.95895 L 1019.1465 275.89645 L 1019.3028 275.33395 L 1019.6778 274.4277 L 1020.0528 274.1777 L 1020.3965 273.89645 L 1021.1153 272.9902 L 1021.2093 271.83395 L 1021.1153 270.9277 L 1021.4903 269.77145 L 1022.0215 268.8652 L 1022.1155 268.39645 L 1022.4593 266.89645 L 1022.0217 265.9902 L 1021.3967 265.6152 L 1022.928 265.08395 L 1023.0843 265.08395 L 1023.1463 265.14645 L 1023.2093 265.11525 L 1022.7405 264.55275 L 1022.4593 264.36525 L 1021.553 264.6465 L 1020.678 264.80275 L 1020.053 263.99025 L 1019.1467 263.92775 L 1018.2405 263.36525 L 1017.6155 263.11525 Z"/>
    <path id="path81824" fill="#3e73c5" fill-opacity="0.42857145" stroke="#000000" stroke-opacity="0.24675323" stroke-linecap="round" stroke-linejoin="round" transform="matrix(1 0 0 1 0.5 1.2670726)" d="M 1011.8963 264.3027 L 1011.8653 264.2402 L 1011.8343 264.2714 L 1011.8963 264.3026 Z"/>
    <path id="path81822" fill="#3e73c5" fill-opacity="0.42857145" stroke="#000000" stroke-opacity="0.24675323" stroke-linecap="round" stroke-linejoin="round" transform="matrix(1 0 0 1 0.5 1.2670726)" d="M 1083.9276 314.83395 L 1084.1151 314.92765 L 1084.2713 314.92765 C 1084.1563 314.89785 1084.0415 314.87045 1083.9276 314.83395 Z"/>
    <path id="path12134" fill="#3e73c5" fill-opacity="0.42857145" stroke="#000000" stroke-opacity="0.24675323" stroke-linecap="round" stroke-linejoin="round" transform="matrix(1 0 0 1 0.5 1.2670726)" d="M 1022.9589 414.8652 L 1022.7401 415.58395 L 1022.7401 431.58395 L 1022.3651 431.9277 L 1020.1151 432.3652 L 1019.4901 432.02145 L 1019.3961 431.1152 L 1018.4899 430.3027 L 1018.4899 430.83395 L 1018.5839 431.5527 L 1019.3026 432.5527 L 1019.4901 432.6464 L 1020.0526 433.4589 L 1021.3026 434.8964 L 1022.7401 436.7714 L 1023.1776 437.3339 L 1034.3339 438.7714 L 1035.3339 438.3964 L 1037.0526 441.2714 L 1037.3026 442.2714 L 1034.3339 451.55265 L 1022.7401 455.61515 L 1020.4901 456.3964 L 1022.0213 459.99015 L 1022.7401 461.7714 L 1022.8341 461.99015 L 1022.9281 462.08385 L 1023.8031 464.14635 L 1023.8971 464.33385 L 1023.8971 464.39635 L 1024.2721 464.58385 L 1025.5221 467.3651 L 1025.5221 467.64635 L 1022.7409 468.83385 L 1022.7409 480.0526 L 1034.3034 480.0526 L 1034.3034 494.20885 L 1022.7409 494.20885 L 1022.7409 582.4901 L 987.89714 582.4901 L 987.89714 596.6776 L 1022.7409 596.6776 L 1022.7409 769.0839 L 1025.0221 769.0839 L 1025.0221 781.0839 L 1022.7409 781.0839 L 1022.7409 854.6151 L 1092.3034 854.6151 L 1092.3034 432.3026 L 1092.1159 432.1151 L 1092.3034 431.9901 L 1092.3034 431.8026 L 1091.5847 431.64635 L 1091.1159 430.02135 L 1090.3971 428.2401 L 1088.6159 427.70885 L 1088.5219 427.14635 L 1088.6782 426.08385 L 1087.3345 424.27135 L 1086.5219 424.64635 L 1087.4282 425.08385 L 1086.5219 424.89635 L 1085.5532 424.99005 L 1083.7407 425.5213 L 1082.4907 425.2713 L 1081.5845 425.61505 L 1079.5219 425.61505 L 1078.5219 425.8963 L 1077.6157 425.8026 L 1076.7407 424.9901 L 1075.8345 425.52135 L 1074.8345 425.27135 L 1073.9282 425.45885 L 1073.7401 426.2402 L 1071.9589 425.9902 L 1070.9589 426.0839 L 1070.0526 425.8964 L 1069.1776 425.9901 L 1068.2713 426.33385 L 1067.3651 426.1776 L 1065.5526 426.89635 L 1065.3963 426.2401 L 1065.0213 426.2401 L 1065.0213 425.8026 L 1058.9901 425.45885 L 1055.3963 425.1776 L 1052.2401 424.5526 L 1048.5526 424.3651 L 1045.6776 423.45885 L 1044.3339 420.95885 L 1043.6151 417.89635 L 1041.2713 416.45885 L 1035.5213 418.33385 L 1031.0213 419.0526 L 1027.8651 418.4276 L 1025.5213 416.89635 L 1023.4589 415.1776 L 1022.9589 414.8651 Z"/>
    <path id="path42223" fill="#8cce55" stroke="#0f380f" stroke-opacity="0.14509804" stroke-linecap="round" stroke-linejoin="round" transform="matrix(1 0 0 1 0.5 1.2670726)" d="M 1079.9688 159.09375 L 1080.3438 158.8125 L 1080.875 158.09375 L 1079.9688 159.09375 Z"/>
    <path id="path42207" fill="#8cce55" stroke="#0f380f" stroke-opacity="0.14509804" stroke-linecap="round" stroke-linejoin="round" transform="matrix(1 0 0 1 0.5 1.2670726)" d="M 945.09375 190.125 L 944.09375 190.65625 L 945 191.5625 L 945.625 191.5625 L 945.7187 191.125 L 945.0937 190.125 L 945.09375 190.125 Z"/>
    <path id="path42205" fill="#8cce55" stroke="#0f380f" stroke-opacity="0.14509804" stroke-linecap="round" stroke-linejoin="round" transform="matrix(1 0 0 1 0.5 1.2670726)" d="M 997.0625 272.75 L 997.0937 272.90625 L 997.0625 272.93745 C 997.0725 272.88155 997.0625 272.80994 997.0625 272.74995 L 997.0625 272.75 Z"/>
    <path id="path81403" fill="#3e73c5" fill-opacity="0.42857145" stroke="#000000" stroke-opacity="0.24675323" stroke-linecap="round" stroke-linejoin="round" transform="matrix(1 0 0 1 0.5 1.2670726)" d="M 1022.646 -0.75955551 L 1092.303 -0.75955551 L 1092.303 31.427444 L 1022.646 31.427444 Z"/>
    <path id="path81306" fill="#8cce55" stroke="#0f380f" stroke-opacity="0.14509804" stroke-linecap="round" stroke-linejoin="round" transform="matrix(1 0 0 1 0.5 1.2670726)" d="M 1040.9393 420.4064 L 1040.658 420.5001 L 1040.033 420.96885 L 1039.3768 421.84385 L 1039.1268 422.84385 L 1036.9706 424.65635 L 1036.8766 424.3751 L 1036.6891 424.90635 L 1035.8766 425.71885 L 1035.8766 426.0001 L 1034.4391 427.34385 L 1033.4391 427.96885 L 1032.5641 429.40635 L 1031.0328 430.9376 L 1030.1266 430.6876 L 1030.2206 430.84385 L 1029.3143 431.7501 L 1028.408 431.8438 L 1025.6268 431.50005 L 1024.1893 431.50005 L 1023.283 431.12505 L 1022.7518 431.5938 L 1022.3768 431.93755 L 1020.1268 432.37505 L 1019.5018 432.0313 L 1019.4078 431.12505 L 1018.5016 430.31255 L 1018.5016 430.8438 L 1018.5956 431.56255 L 1019.3143 432.56255 L 1019.5018 432.65625 L 1020.0643 433.46875 L 1021.3143 434.90625 L 1022.7518 436.78125 L 1023.1893 437.34375 L 1034.3456 438.78125 L 1035.3456 438.40625 L 1037.0643 441.28125 L 1037.3143 442.28125 L 1034.3456 451.5625 L 1022.7518 455.625 L 1020.5018 456.40625 L 1022.033 460 L 1022.7518 461.78125 L 1022.8458 462 L 1022.9398 462.0937 L 1023.8148 464.1562 L 1023.9088 464.3437 L 1023.9088 464.4062 L 1024.2838 464.5937 L 1025.5338 467.37495 L 1025.5338 467.6562 L 1026.5338 467.31245 L 1028.3151 466.8437 L 1029.2214 466.49995 L 1030.1276 465.87495 L 1030.3151 465.93745 L 1032.1901 465.7812 L 1033.0964 466.12495 L 1034.0026 466.03125 L 1034.8776 465.59375 L 1035.3464 465.125 L 1035.7838 464.25 L 1035.4401 463.34375 L 1036.1588 462.34375 L 1037.0651 461.8125 L 1040.4714 461.4375 L 1041.3776 460.71875 L 1042.0026 458.84375 L 1042.4401 457.9375 L 1042.8151 457.59375 L 1044.6276 456.875 L 1047.4088 456.5 L 1047.4088 455.59375 L 1046.9401 453.8125 L 1046.9401 453.15625 L 1047.4088 451.5625 L 1047.5028 450.65625 L 1048.7528 448.84375 L 1049.4716 449.75 L 1050.3778 449.8437 C 1051.8304 447.69995 1052.1204 445.6562 1054.3153 444.7187 L 1054.9716 443.81245 L 1055.3153 442.9062 L 1056.659 440.6562 L 1056.8466 439.74995 L 1056.659 439.31245 L 1055.7528 439.12495 L 1054.8778 438.68745 L 1053.3466 436.7812 L 1052.8153 435.9062 L 1051.1903 434.0937 C 1048.4866 433.3462 1045.0179 433.58245 1043.0653 431.2187 L 1041.6278 429.4062 L 1040.8153 427.62495 L 1040.659 426.9062 L 1040.753 425.62495 L 1040.5655 424.18745 L 1040.2842 424.09375 L 1041.003 422.21875 L 1040.6592 421.3125 L 1040.9405 420.40625 L 1040.9405 420.4064 Z"/>
    <path id="path81563" fill="#8cce55" stroke="#0f380f" stroke-opacity="0.14509804" stroke-linecap="round" stroke-linejoin="round" transform="matrix(1 0 0 1 0.5 1.2670726)" d="M 1028.0514 255.08424 L 1027.5827 255.17794 L 1026.4264 255.55294 L 1025.9889 254.99044 L 1026.8639 254.55294 L 1027.3327 253.74044 L 1027.2387 252.83419 L 1026.3325 253.02169 L 1025.9887 253.83419 L 1025.0825 253.30294 L 1024.8949 252.92794 L 1024.8949 252.02169 L 1025.2387 251.14669 L 1025.1767 251.14669 L 1025.1767 251.05299 L 1024.8017 251.05299 L 1024.8017 251.20924 L 1024.5517 251.20924 L 1024.4267 251.30294 L 1024.8954 251.49044 L 1024.8954 251.58414 L 1024.6142 251.86539 L 1023.8954 252.11539 L 1023.458 253.02164 L 1023.8017 253.11534 L 1023.8957 253.83409 L 1022.9895 254.20909 L 1022.7395 254.27159 L 1021.8333 254.11534 L 1021.3957 254.02164 L 1021.4897 254.92789 L 1020.4897 254.83419 L 1019.6772 255.08419 L 1018.7709 254.83419 L 1017.8647 255.08419 L 1017.6772 254.64669 L 1018.7709 253.55294 L 1017.8647 253.64664 L 1017.3335 254.11539 L 1016.7085 253.64664 L 1015.7085 253.30289 L 1015.6145 253.20919 L 1015.3645 252.67794 L 1014.802 252.30294 L 1014.4583 252.39664 L 1013.552 251.49039 L 1013.552 251.30289 L 1013.3645 250.49039 L 1012.4895 250.33414 L 1011.4895 250.49039 L 1011.5835 249.77164 L 1011.2085 248.89664 L 1010.2397 248.70914 L 1009.8647 247.52164 L 1008.0522 247.70914 L 1007.1772 246.80289 L 1007.3647 246.45914 L 1006.4585 247.27164 L 1005.9897 247.45914 L 1005.0835 246.80289 L 1004.2085 247.08414 L 1003.3022 246.89664 L 1003.1147 247.08414 L 1002.4897 247.99039 L 1001.3022 247.99039 L 1000.4897 247.89669 L 999.6147 248.80294 L 999.33354 248.80294 L 998.36474 249.05294 L 997.45854 248.52169 L 996.73974 248.42799 L 995.92724 248.17799 L 996.17724 247.61549 L 995.98974 246.70924 L 996.55224 246.55299 L 995.73974 245.64674 L 996.17724 244.74049 L 996.36474 244.49049 L 997.27094 244.64674 L 997.36494 244.74044 L 998.23994 244.39669 L 999.14614 244.49039 L 999.8024 243.67789 L 999.8024 243.49039 L 999.7084 243.39669 L 1000.3334 241.58419 L 999.42714 241.42794 L 998.70844 241.14669 L 995.92714 241.14669 L 994.48964 241.05299 L 994.20844 240.77174 L 994.20844 240.33424 L 994.73964 239.08424 L 994.83364 238.99054 L 995.02104 238.70929 L 995.20864 238.61559 L 995.36484 237.74059 L 995.45884 237.45934 L 996.45884 237.36564 L 997.36504 236.92814 L 997.89624 236.02189 L 998.61504 236.02189 L 998.89624 235.11564 L 999.865 234.49064 L 999.33384 233.49064 L 998.52124 233.14689 L 998.42724 232.24064 L 997.61474 231.24064 L 997.80224 230.33439 L 997.89624 229.36564 L 996.99004 228.64689 L 997.27124 227.64689 L 997.27124 227.55319 L 997.36524 226.83444 L 996.36524 227.20944 L 995.45904 227.20944 L 994.55274 226.92819 L 994.39644 226.74069 L 994.49044 225.83444 L 995.45924 225.77194 L 996.36544 225.49069 L 997.08424 223.14694 L 997.27164 222.95944 L 997.27164 222.86574 L 997.70924 221.99074 L 997.61524 221.89704 L 997.45904 221.70954 L 998.17774 220.45954 L 999.05274 220.27204 L 999.8027 220.27204 L 1001.1464 220.55329 L 1002.0527 221.52204 L 1003.834 221.70954 L 1003.928 221.99079 L 1004.303 222.95954 L 1004.7405 224.58454 L 1004.6465 224.86579 L 1005.0841 224.86579 L 1004.7403 225.77204 L 1004.0215 226.74079 L 1004.2091 227.64704 L 1004.2091 228.64704 L 1004.6465 229.70954 L 1005.1778 229.80324 L 1006.2715 229.99074 L 1006.8965 229.99074 L 1006.8965 230.52199 L 1006.8025 230.52199 L 1006.7085 231.24074 L 1007.7085 231.24074 L 1008.1459 231.70949 L 1009.0522 232.05324 L 1009.1462 232.95949 L 1010.0525 233.05319 L 1010.3025 232.58444 L 1010.3025 230.70944 L 1011.2088 229.89694 L 1011.2088 229.17819 L 1011.5838 229.27189 L 1014.365 228.55314 L 1015.2712 228.17814 L 1015.8025 227.64689 L 1016.7088 227.27189 L 1017.5212 227.64689 L 1018.49 227.83439 L 1018.6775 227.64689 L 1019.5838 226.83439 L 1020.0525 225.92814 L 1020.8338 225.49064 L 1021.8338 226.02189 L 1021.8478 226.03089 L 1022.379 226.21839 L 1024.1915 226.49964 L 1026.1602 226.56214 L 1027.254 226.12464 L 1027.9728 226.65589 L 1028.4102 227.65589 L 1027.9728 229.53089 L 1027.0665 229.81214 L 1026.629 231.34339 L 1026.0665 232.24964 L 1026.5352 233.15589 L 1028.129 233.78089 L 1029.0352 233.78089 L 1028.504 234.68714 L 1028.598 235.40589 L 1029.1292 236.21839 L 1028.4104 237.18714 L 1028.7854 238.37464 L 1029.1292 239.24964 L 1029.2232 240.15589 L 1030.0356 241.24964 L 1030.1296 241.68714 L 1030.3796 242.96839 L 1030.5046 243.21839 L 1029.6921 244.12464 L 1030.5671 244.31214 L 1030.5051 244.56214 L 1030.3801 245.46839 L 1031.1926 246.46839 L 1031.1926 246.65589 L 1031.5676 247.71839 L 1030.6613 247.90589 L 1030.1301 248.81214 L 1030.1301 249.53089 L 1030.0361 249.53089 L 1029.4111 249.62459 L 1029.0361 250.49959 L 1029.5049 250.43709 L 1029.9424 250.15584 L 1030.0364 250.59334 L 1029.9424 250.68704 L 1030.1299 250.87454 L 1030.3174 251.06204 L 1031.2861 251.59329 L 1031.3801 252.21829 L 1031.2861 252.21829 L 1031.2861 252.49954 L 1031.3801 252.84329 L 1031.2861 252.93699 L 1030.5674 253.40574 L 1029.9424 254.28074 L 1029.0361 254.28074 Z"/>
    <path id="path81464" fill="#8cce55" stroke="#0f380f" stroke-opacity="0.14509804" stroke-linecap="round" stroke-linejoin="round" transform="matrix(1 0 0 1 0.5 1.2670726)" d="M 1014.8429 280.61975 L 1013.9366 280.151 L 1013.1241 279.901 L 1012.6866 279.901 L 1011.6866 279.0885 L 1011.5303 278.80725 L 1010.6241 278.80725 L 1009.8116 277.901 L 1009.2803 277.651 L 1008.3741 277.651 L 1008.4681 277.0885 L 1007.5618 276.9948 L 1007.2805 276.9948 L 1006.3743 277.46355 L 1005.6868 276.5573 L 1005.4055 276.02605 L 1004.4993 275.7448 L 1004.3118 275.8385 L 1003.8743 275.7448 L 1003.8743 275.5573 L 1004.2493 275.21355 L 1004.9368 274.6823 L 1004.5931 273.96355 L 1004.4055 274.02605 L 1003.7805 273.96355 L 1003.6865 273.86985 L 1003.1552 272.9636 L 1002.874 272.7761 L 1002.6865 272.5886 L 1002.0615 271.7136 L 1002.2401 271.2402 L 1003.1463 270.9902 L 1003.6776 270.9902 L 1003.9589 270.08395 L 1003.7713 269.99025 L 1003.8653 269.61525 L 1004.4903 269.61525 L 1004.5843 269.459 L 1004.303 268.99025 L 1005.303 269.17775 L 1006.2093 269.27145 L 1006.7405 268.64645 L 1007.1155 268.3652 L 1007.1775 268.3652 L 1007.99 268.5527 L 1008.8962 268.3652 L 1009.8025 268.64645 L 1010.4275 268.27145 L 1011.4275 268.64645 L 1011.5215 268.64645 L 1011.5215 267.64645 L 1012.4278 267.27145 L 1012.4898 266.39645 L 1012.5838 266.1152 L 1012.5838 265.39645 L 1012.24 264.77145 L 1011.8962 264.3027 L 1011.8342 264.2715 L 1011.8652 264.2403 L 1011.8962 264.3028 L 1012.74 264.5528 L 1013.6462 265.27155 L 1013.7402 265.17785 L 1014.7402 264.80285 L 1014.7402 264.89655 L 1015.6152 264.89655 L 1015.8027 264.80285 L 1016.2402 263.8341 L 1017.2402 263.36535 L 1017.6152 263.11535 L 1018.2402 263.36535 L 1019.1464 263.92785 L 1020.0527 263.99035 L 1020.6777 264.80285 L 1021.5527 264.6466 L 1022.459 264.36535 L 1022.7402 264.55285 L 1023.209 265.11535 L 1023.193 265.14915 L 1023.162 265.11795 L 1023.1 265.05545 L 1022.9437 265.05545 L 1021.4124 265.5867 L 1022.0374 265.9617 L 1022.475 266.86795 L 1022.1312 268.36795 L 1022.0372 268.8367 L 1021.506 269.74295 L 1021.131 270.8992 L 1021.225 271.80545 L 1021.131 272.9617 L 1020.4122 273.86795 L 1020.0685 274.1492 L 1019.6935 274.3992 L 1019.3185 275.30545 L 1019.1622 275.86795 L 1018.256 275.93045 L 1018.162 276.8367 L 1017.6933 277.8367 L 1017.8808 278.6492 L 1017.8808 278.8367 L 1017.2558 279.7117 L 1016.3496 280.43045 L 1015.4433 280.8992 L 1015.037 281.24295 Z"/>
    <path id="path81300" fill="#8cce55" stroke="#0f380f" stroke-opacity="0.14509804" stroke-linecap="round" stroke-linejoin="round" transform="matrix(1 0 0 1 0.5 1.2670726)" d="M 1036.8768 564.6564 C 1035.6394 564.6564 1034.6268 565.6639 1034.6268 566.9064 C 1034.6268 568.1489 1035.6394 569.1564 1036.8768 569.1564 C 1038.1268 569.1564 1039.1268 568.1489 1039.1268 566.9064 C 1039.1268 565.6639 1038.1268 564.6564 1036.8768 564.6564 Z"/>
    <path id="path81298" fill="#8cce55" stroke="#0f380f" stroke-opacity="0.14509804" stroke-linecap="round" stroke-linejoin="round" transform="matrix(1 0 0 1 0.5 1.2670726)" d="M 995.0018 587.1564 C 993.7643 587.1564 992.7518 588.1639 992.7518 589.4064 C 992.7518 590.6489 993.7643 591.6564 995.0018 591.6564 C 996.2518 591.6564 997.2518 590.6489 997.2518 589.4064 C 997.2518 588.1639 996.2518 587.1564 995.0018 587.1564 Z"/>
    <path id="path81296" fill="#8cce55" stroke="#0f380f" stroke-opacity="0.14509804" stroke-linecap="round" stroke-linejoin="round" transform="matrix(1 0 0 1 0.5 1.2670726)" d="M 1046.2518 638.4064 C 1045.0144 638.40641 1044.0018 639.4139 1044.0018 640.6564 C 1044.0018 641.89891 1045.0144 642.9064 1046.2518 642.9064 C 1047.5018 642.90641 1048.5018 641.8989 1048.5018 640.6564 C 1048.5018 639.41391 1047.5018 638.4064 1046.2518 638.4064 Z"/>
    <path id="path12132" fill="#8cce55" stroke="#0f380f" stroke-opacity="0.14509804" stroke-linecap="round" stroke-linejoin="round" transform="matrix(1 0 0 1 0.5 1.2670726)" d="M 1036.9393 642.7189 C 1035.7019 642.7189 1034.6893 643.7264 1034.6893 644.9689 C 1034.6893 646.2114 1035.7019 647.2189 1036.9393 647.2189 C 1038.1893 647.2189 1039.1893 646.2114 1039.1893 644.9689 C 1039.1893 643.7264 1038.1893 642.7189 1036.9393 642.7189 Z"/>
    <path id="path81935-5" fill="#8cce55" stroke="#0f380f" stroke-opacity="0.14509804" stroke-linecap="round" stroke-linejoin="round" d="M 972.5876 342.57948 L 972.4939 342.48578 L 973.4939 341.04828 L 973.5564 340.51703 L 973.02515 338.70453 L 972.4939 337.64203 L 972.4002 336.73578 L 971.93145 335.73578 L 971.05645 335.48578 L 970.24395 334.57953 L 969.24395 333.95453 L 967.4627 333.57953 L 966.55645 332.76703 L 965.36895 332.14203 L 965.2127 332.04833 L 965.2785 332.07073 L 966.57994 332.47932 L 967.92545 332.32133 L 971.88645 333.60992 L 975.01463 333.91447 L 976.25538 333.59792 L 978.08977 334.26081 L 979.26505 336.17167 L 979.98345 336.45813 L 981.90714 337.26359 L 981.69835 337.68983 L 983.27036 338.4442 L 984.52163 337.69379 L 984.78329 337.19874 L 986.06598 337.10994 L 986.89162 337.7941 L 987.35902 337.19655 L 989.10457 338.18896 L 991.2296 338.59554 L 991.01675 339.63253 L 995.24038 340.41353 L 995.23838 340.41653 L 997.23838 341.41653 L 997.95718 342.29153 L 998.92588 343.01028 L 999.48838 343.91653 L 1001.1758 344.29153 L 1002.0821 343.66653 L 1002.8008 342.76028 L 1002.9883 342.76028 L 1004.3321 342.13528 L 1004.4261 341.94778 L 1004.9574 341.04153 L 1005.0514 340.85403 L 1005.1134 340.82283 L 1005.1444 340.85403 L 1005.1444 340.94773 L 1005.2384 341.01023 L 1005.3324 341.01023 L 1005.4264 341.10393 L 1005.4884 341.19763 L 1005.5194 341.19763 L 1005.6134 341.29133 L 1005.9572 341.66633 L 1006.0512 341.79133 L 1006.0512 341.82253 L 1006.1452 341.91623 L 1006.1452 342.00993 L 1006.2392 342.00993 L 1006.2392 342.29118 L 1006.3954 342.29118 L 1006.3954 342.38488 L 1006.4894 342.38488 L 1006.4894 342.47858 L 1006.5834 342.47858 L 1006.5834 342.63483 L 1006.6774 342.63483 L 1006.6774 342.82233 L 1006.7714 342.91603 L 1006.8654 342.91603 L 1006.8654 343.00973 L 1006.9594 343.00973 L 1006.9594 343.10343 L 1007.0534 343.10343 L 1007.0534 343.25968 L 1007.1154 343.25968 L 1007.1154 343.35338 L 1007.3029 343.35338 L 1007.3029 343.44708 L 1007.3969 343.44708 L 1007.3969 343.54078 L 1007.4909 343.72828 L 1007.4909 343.82198 L 1007.5849 343.82198 L 1007.5849 343.91568 L 1007.6789 343.97818 L 1007.7409 344.16568 L 1007.8659 344.16568 L 1007.8659 344.72818 L 1007.9279 344.72818 L 1007.9279 344.97818 L 1008.0219 344.97818 L 1008.0219 345.25943 L 1008.1159 345.44693 L 1008.1159 345.50943 L 1008.2099 345.60313 L 1008.2099 345.69683 L 1008.3039 345.69683 L 1008.3979 345.79053 L 1008.3979 345.88423 L 1008.4919 345.88423 L 1008.4919 345.97793 L 1008.5539 345.97793 L 1008.5539 346.07163 L 1008.6479 346.07163 L 1008.6479 346.16533 L 1008.7419 346.16533 L 1008.7419 346.22783 L 1008.8359 346.32153 L 1008.9299 346.32153 L 1008.9299 346.50903 L 1009.0239 346.50903 L 1009.0239 346.60273 L 1009.1179 346.60273 L 1009.1179 346.69643 L 1009.4617 346.69643 L 1009.4617 346.79013 L 1009.5557 346.88383 L 1009.6497 346.88383 L 1009.6497 347.13383 L 1009.5557 347.22753 L 1009.5557 347.50878 L 1009.6497 347.60248 L 1009.7437 347.69618 L 1009.8377 347.75868 L 1009.9317 347.75868 L 1009.9317 347.85238 L 1010.2754 347.85238 L 1010.2754 347.94608 L 1010.3694 347.94608 L 1010.3694 348.03978 L 1010.7444 348.03978 L 1010.8064 348.13348 L 1011.2751 348.13348 L 1011.3691 348.03978 L 1011.6191 348.03978 L 1012.0879 348.03978 L 1012.0879 348.13348 L 1012.1819 348.22718 L 1012.2439 348.32088 L 1012.3689 348.32088 L 1012.3689 348.41458 L 1012.6189 348.41458 L 1012.6189 348.47708 L 1012.9001 348.47708 L 1012.9001 348.57078 L 1012.9941 348.66448 L 1013.0561 348.75818 L 1013.0561 348.85188 L 1013.1501 348.85188 L 1013.1501 348.94558 L 1013.2441 348.94558 L 1013.3381 349.03928 L 1013.4321 349.03928 L 1013.4321 349.19553 L 1013.5261 349.19553 C 1013.4761 350.02433 1013.6361 349.59428 1013.6201 350.00803 L 1013.5261 349.94553 L 1013.5261 349.85183 L 1013.4321 349.75813 L 1013.4321 349.66443 L 1013.3381 349.66443 L 1013.3381 349.57073 L 1013.2441 349.57073 L 1013.1501 349.47703 L 1013.0561 349.47703 L 1013.0561 349.38333 L 1012.6186 349.38333 L 1012.5246 349.28963 L 1012.2434 349.28963 L 1012.2434 349.38333 L 1012.1814 349.38333 L 1012.0874 349.28963 L 1011.9934 349.28963 L 1011.9934 349.38333 L 1011.8994 349.38333 L 1011.8994 349.47703 L 1011.712 349.47703 L 1011.712 349.38333 L 1011.618 349.28963 L 1011.4618 349.28963 L 1011.3678 349.19593 L 1011.2738 349.19593 L 1011.2738 349.28963 L 1011.1798 349.28963 L 1011.0858 349.38333 L 1011.0858 349.57083 L 1010.9918 349.57083 L 1010.9918 349.66453 L 1010.7418 349.66453 L 1010.7418 349.75823 L 1010.4606 349.75823 L 1010.4606 349.85193 L 1010.3666 349.85193 L 1010.3666 349.94563 L 1010.1166 349.94563 L 1009.9916 350.00813 L 1009.8354 350.00813 L 1009.8354 350.10183 L 1009.7414 350.10183 L 1009.7414 350.19553 L 1009.6474 350.19553 L 1009.5534 350.28923 L 1009.4594 350.38293 L 1009.4594 350.72668 L 1009.3031 350.72668 L 1009.3031 350.82038 L 1009.2091 350.82038 L 1009.2091 351.00788 L 1009.3031 351.10158 L 1009.3031 351.19528 L 1009.3651 351.19528 L 1009.3651 351.28898 L 1009.3651 351.38268 L 1009.3031 351.47638 L 1009.2091 351.47638 L 1009.2091 351.53888 L 1009.1151 351.63258 L 1009.1151 351.72628 L 1009.2091 351.72628 L 1009.2091 351.91378 L 1009.3031 351.91378 C 1009.0276 352.20628 1009.1306 351.96378 1009.1156 352.35128 L 1009.0216 352.35128 L 1009.0216 352.63253 L 1009.1156 352.72623 L 1009.1156 352.81993 L 1009.1156 352.91363 L 1008.9281 352.91363 L 1008.9281 352.97613 L 1008.8341 353.06983 L 1008.8341 353.16353 L 1008.7401 353.16353 L 1008.6461 353.25723 L 1008.6461 353.53848 L 1008.5521 353.53848 L 1008.5521 353.78848 L 1008.4901 353.88218 L 1008.4901 354.06968 L 1008.5521 354.06968 L 1008.5521 354.16338 L 1008.6461 354.25708 L 1008.7401 354.25708 L 1008.7401 354.35078 L 1008.8341 354.35078 L 1008.9281 354.44448 L 1009.0221 354.50698 L 1009.1161 354.50698 L 1009.1161 354.69448 L 1009.0221 354.69448 L 1009.0221 354.88198 L 1008.9281 354.78828 L 1008.8341 354.78828 L 1008.9281 354.88198 L 1008.9281 354.97568 L 1009.0221 355.06938 L 1008.9281 355.06938 L 1008.8341 354.97568 L 1008.8341 354.88198 L 1008.7401 354.88198 L 1008.6461 354.78828 L 1008.4899 354.78828 L 1008.4899 354.88198 L 1008.3024 355.06948 L 1008.3024 355.88198 L 1008.2084 356.03823 L 1008.2084 356.13193 L 1008.1144 356.13193 L 1008.1144 356.60068 L 1008.0204 356.60068 L 1007.9264 356.69438 L 1007.9264 356.75688 L 1007.7389 356.75688 L 1007.7079 356.78808 L 1007.4891 356.75688 L 1007.4891 356.69438 L 1007.3951 356.69438 L 1007.3951 356.60068 C 1007.7889 356.58698 1007.5564 356.67068 1007.8639 356.41318 L 1007.8639 356.13193 L 1007.7389 356.03823 L 1007.6769 356.03823 L 1007.4894 356.03823 C 1007.5034 355.77823 1007.5054 355.63823 1007.1144 355.60073 L 1007.0524 355.69443 L 1006.9584 355.78813 L 1006.9584 355.97563 L 1006.8644 356.03813 L 1006.8644 356.13183 L 1006.8644 356.41308 L 1006.9584 356.41308 L 1006.9584 356.63183 L 1006.7708 356.60063 L 1006.7708 357.03813 L 1006.7708 357.22563 L 1006.6768 357.31933 L 1006.5828 357.31933 L 1006.5828 357.41303 L 1006.3952 357.41303 L 1006.3952 357.75678 L 1006.4892 357.75678 L 1006.4892 357.94428 L 1006.5832 357.94428 L 1006.5832 358.03798 L 1006.4892 358.41298 L 1006.5832 359.28798 L 1006.5832 359.41298 L 1006.2394 359.31928 L 1005.3332 359.66303 L 1005.2392 359.47553 L 1005.1452 359.47553 L 1005.1142 359.44433 L 1004.8642 359.06933 L 1004.4267 358.41308 L 1003.5204 357.94433 L 1002.8954 357.50683 L 1002.8014 356.60058 L 1003.7077 356.44433 L 1003.8951 355.97558 L 1003.4264 355.53808 L 1003.1764 354.63183 L 1004.0514 354.25683 L 1004.0514 354.19433 L 1003.2389 353.28808 L 1002.3327 352.50683 L 1002.3017 352.50683 L 1002.2707 352.47563 L 1001.4583 352.72563 L 1001.4273 352.78813 L 1001.3653 352.91313 L 1000.4591 353.44438 L 999.55288 353.81938 L 997.95918 355.25688 L 996.95918 355.63188 L 996.61538 356.16313 L 995.61538 357.06938 L 994.89658 356.88188 L 993.99038 357.22563 L 993.36538 356.97563 L 992.36538 356.88193 L 991.45918 356.60068 L 990.74038 356.44443 L 990.49038 356.35073 L 990.30288 355.88198 L 989.86538 355.25698 L 989.05288 354.72573 L 988.49038 354.10073 L 987.67788 352.91323 L 987.52158 352.47573 L 986.42788 351.56948 L 986.05288 351.03823 L 985.70918 350.94453 L 985.61518 350.85083 L 985.08398 350.66333 C 983.65978 351.08208 983.52518 350.71703 982.30268 350.22583 L 982.45898 349.60083 L 982.11518 348.69458 L 982.30268 347.88208 L 982.64638 347.35083 L 982.74038 347.16333 L 982.74038 346.88208 L 982.64638 346.53833 L 982.11518 345.53833 L 981.39638 344.81958 L 980.31259 344.39215 L 980.21889 344.1109 L 980.06264 344.0172 L 980.21889 343.73595 L 979.31264 343.2047 L 978.78139 342.67345 L 978.25014 342.57975 L 978.53139 342.236 L 977.34389 342.236 L 977.00014 342.95475 L 975.18764 342.6735 L 974.28139 342.6735 L 973.84389 343.01725 L 973.37514 342.861 Z"/>
</svg>
