<svg width="1671.094" height="856.39252" viewBox="0 0 1671.094 856.39252" xmlns="http://www.w3.org/2000/svg" xmlns:usvg="https://github.com/RazrFalcon/usvg" usvg:version="0.8.0">
    <defs/>
    <path id="path12140-5-8" fill="#3e73c5" fill-opacity="0.42857145" stroke="#000000" stroke-opacity="0.24675323" stroke-linecap="round" stroke-linejoin="round" transform="matrix(1 0 0 1 0.5 1.2670726)" d="M 1064.1271 373.4983 L 1065.1271 374.02955 L 1066.0333 374.21705 L 1066.6583 373.9358 L 1067.2833 374.3108 L 1068.0959 375.02955 L 1068.0959 375.12325 L 1068.1899 375.6545 L 1069.2524 375.0295 L 1070.1586 375.0295 L 1070.9712 374.4045 L 1071.9712 373.68575 L 1072.4086 372.7795 L 1072.5962 372.6858 L 1071.9712 371.8733 C 1074.9285 371.8933 1075.4524 370.68705 1077.8149 369.90455 L 1078.7212 369.27955 L 1079.0024 368.46705 L 1079.0024 367.5608 L 1079.5336 366.5608 L 1079.8149 366.02955 L 1079.8149 365.1233 L 1080.6899 364.6858 L 1083.1274 364.4983 L 1083.6586 363.4983 L 1084.2836 362.77955 L 1086.5336 363.96705 L 1087.6274 363.96705 L 1087.7214 363.87335 L 1088.0026 363.87335 L 1089.7838 363.77965 L 1090.4088 363.96715 L 1090.7838 364.40465 L 1091.3151 364.77965 L 1091.9401 364.59215 L 1092.3151 364.56095 L 1092.5026 364.56095 L 1092.8464 364.52975 L 1093.0026 364.59225 L 1093.0966 364.59225 L 1093.5653 364.77975 L 1094.1903 365.7485 L 1094.5653 366.02975 L 1094.8153 366.21725 L 1094.9093 366.21725 L 1095.8156 365.7485 L 1096.0969 365.21725 L 1097.4406 364.77975 L 1098.3469 364.4985 L 1098.7843 363.96725 L 1099.6906 364.686 L 1100.6906 365.21725 L 1101.1281 364.936 L 1101.2221 364.77975 L 1101.1281 364.40475 L 1101.0341 363.40475 C 1101.2167 363.22851 1101.4004 363.08195 1101.5654 362.96725 C 1101.5784 362.95825 1101.5834 362.94435 1101.5964 362.93605 C 1101.6704 362.88575 1101.744 362.88175 1101.8151 362.84235 C 1102.0672 362.70686 1102.311 362.58969 1102.5338 362.5611 C 1102.975 362.506 1103.3782 362.613 1103.7838 362.71735 C 1104.0555 362.78605 1104.3329 362.86204 1104.6276 362.8736 L 1105.1901 361.96735 L 1105.0651 361.6236 L 1105.0031 361.34235 L 1105.2531 360.4361 L 1105.7219 359.9986 L 1107.0656 358.1861 L 1108.2219 357.9361 L 1109.2219 358.3736 L 1110.2219 359.27985 L 1109.9406 360.1861 L 1110.3156 360.9986 L 1111.1906 360.9049 L 1111.2846 361.43615 L 1110.8472 363.1549 L 1110.7532 363.5924 L 1110.7532 364.49865 L 1110.472 365.4049 L 1111.2844 367.2799 L 1111.472 367.4674 L 1112.097 367.5611 L 1114.0032 366.3111 L 1114.347 366.02985 L 1116.2532 365.65485 L 1116.597 364.9361 L 1118.9407 363.4986 L 1121.3782 363.4986 L 1121.3782 363.96735 L 1121.5657 364.59235 L 1122.4407 364.21735 L 1123.0657 364.0611 L 1123.972 363.4986 L 1124.8782 363.77985 L 1124.9722 363.77985 L 1125.5972 363.68615 L 1125.5972 363.71735 L 1126.5972 364.46735 L 1126.6912 364.49855 L 1125.907 365.62482 C 1125.886 365.62182 1125.845 365.6253 1125.845 365.6253 C 1125.748 365.6151 1125.6643 365.5895 1125.5637 365.5941 L 1125.5637 365.5937 L 1125.5637 365.5937 C 1125.4502 365.5987 1125.3176 365.6339 1125.1887 365.6562 L 1125.0637 365.6874 L 1125.0327 365.6874 C 1124.6062 365.78857 1124.0799 365.98013 1123.3453 366.34365 L 1122.439 366.78115 L 1121.564 366.40615 L 1120.9077 366.34365 L 1120.7515 366.34365 C 1117.9453 366.66616 1116.7578 366.50115 1114.064 367.3124 L 1112.7203 368.4999 L 1111.814 368.84365 L 1111.189 369.3124 L 1109.4077 370.90615 L 1109.689 371.1874 L 1110.564 371.90615 L 1111.0327 372.8124 L 1110.9387 373.15615 L 1111.5637 374.15615 L 1111.0324 374.6874 L 1111.47 375.6874 L 1111.0324 376.21865 L 1110.9384 376.40615 L 1110.8444 376.59365 L 1110.1256 376.9374 L 1108.5006 378.7499 L 1108.4066 379.03115 L 1109.2192 379.90615 L 1109.0316 380.3749 L 1108.9376 380.9999 L 1108.8756 381.3749 L 1107.3131 381.90615 L 1106.4381 381.90615 L 1103.9068 381.3749 L 1103.4694 381.4374 L 1103.3754 381.5311 L 1103.5629 382.43735 L 1103.7192 382.62485 L 1103.9066 382.9686 L 1104.8129 383.62485 L 1105.0629 384.49985 L 1105.2504 384.68735 L 1104.8129 385.5936 L 1103.9066 386.12485 L 1103.3754 386.4061 L 1102.3754 386.4061 L 1101.6566 386.5936 L 1101.6566 387.4686 L 1101.4692 387.5623 L 1101.3752 388.46855 L 1100.5002 389.46855 L 1100.4062 389.56225 L 1100.75 392.3435 L 1100.4062 392.5935 L 1099.6875 393.49975 L 1098.7812 393.9685 L 1098.25 393.781 L 1097.25 393.24975 L 1095.1875 393.24975 L 1094.9062 393.5935 L 1093.5625 394.31225 L 1092.6562 394.40595 L 1093.6562 395.3122 L 1093.6562 395.4059 L 1093.0312 395.6559 L 1091.125 395.93715 L 1090.5 395.93715 L 1090.125 395.84345 L 1090.063 395.4997 L 1089.1567 395.84345 L 1088.688 396.03095 L 1088.2505 396.9372 L 1087.3443 397.3747 L 1087.188 397.5622 L 1086.813 398.6247 L 1086.719 399.53095 C 1086.8583 401.39031 1086.8983 402.25698 1086.594 402.71845 C 1086.551 402.78435 1086.496 402.823 1086.4377 402.8747 C 1085.9685 403.28828 1085.0021 403.31033 1083.1252 403.84345 L 1080.6877 404.4997 L 1080.5002 404.406 L 1078.094 404.406 L 1077.8127 404.4997 L 1077.3752 404.5622 L 1076.469 405.21845 L 1075.5627 404.9372 L 1074.219 404.7497 L 1072.4064 404.8434 L 1068.8127 405.12465 L 1068.094 404.93715 L 1064.9377 403.93715 L 1061.531 402.87482 L 1061.2789 403.03402 L 1065.5215 397.8633 L 1065.6541 396.75844 L 1064.726 395.25584 L 1061.1905 394.63712 L 1060.9695 391.98547 L 1061.2347 390.96901 L 1059.9089 386.06345 L 1061.4557 384.25149 L 1059.9089 383.72116 L 1059.6437 382.88147 L 1059.6877 381.37887 L 1060.2622 380.18563 L 1061.4113 380.05305 L 1060.66 378.99239 L 1060.704 378.72722 L 1062.1182 377.62237 L 1062.1622 376.87107 L 1063.0461 373.68908 L 1063.3112 373.37973 Z"/>
    <path id="path12140-5" fill="#8cce55" stroke="#0f380f" stroke-opacity="0.14509804" stroke-linecap="round" stroke-linejoin="round" transform="matrix(1 0 0 1 0.5 1.2670726)" d="M 1064.1271 373.4983 L 1065.1271 374.02955 L 1066.0333 374.21705 L 1066.6583 373.9358 L 1067.2833 374.3108 L 1068.0959 375.02955 L 1068.0959 375.12325 L 1068.1899 375.6545 L 1069.2524 375.0295 L 1070.1586 375.0295 L 1070.9712 374.4045 L 1071.9712 373.68575 L 1072.4086 372.7795 L 1072.5962 372.6858 L 1071.9712 371.8733 C 1074.9285 371.8933 1075.4524 370.68705 1077.8149 369.90455 L 1078.7212 369.27955 L 1079.0024 368.46705 L 1079.0024 367.5608 L 1079.5336 366.5608 L 1079.8149 366.02955 L 1079.8149 365.1233 L 1080.6899 364.6858 L 1083.1274 364.4983 L 1083.6586 363.4983 L 1084.2836 362.77955 L 1086.5336 363.96705 L 1087.6274 363.96705 L 1087.7214 363.87335 L 1088.0026 363.87335 L 1089.7838 363.77965 L 1090.4088 363.96715 L 1090.7838 364.40465 L 1091.3151 364.77965 L 1091.9401 364.59215 L 1092.3151 364.56095 L 1092.5026 364.56095 L 1092.8464 364.52975 L 1093.0026 364.59225 L 1093.0966 364.59225 L 1093.5653 364.77975 L 1094.1903 365.7485 L 1094.5653 366.02975 L 1094.8153 366.21725 L 1094.9093 366.21725 L 1095.8156 365.7485 L 1096.0969 365.21725 L 1097.4406 364.77975 L 1098.3469 364.4985 L 1098.7843 363.96725 L 1099.6906 364.686 L 1100.6906 365.21725 L 1101.1281 364.936 L 1101.2221 364.77975 L 1101.1281 364.40475 L 1101.0341 363.40475 C 1101.2167 363.22851 1101.4004 363.08195 1101.5654 362.96725 C 1101.5784 362.95825 1101.5834 362.94435 1101.5964 362.93605 C 1101.6704 362.88575 1101.744 362.88175 1101.8151 362.84235 C 1102.0672 362.70686 1102.311 362.58969 1102.5338 362.5611 C 1102.975 362.506 1103.3782 362.613 1103.7838 362.71735 C 1104.0555 362.78605 1104.3329 362.86204 1104.6276 362.8736 L 1105.1901 361.96735 L 1105.0651 361.6236 L 1105.0031 361.34235 L 1105.2531 360.4361 L 1105.7219 359.9986 L 1107.0656 358.1861 L 1108.2219 357.9361 L 1109.2219 358.3736 L 1110.2219 359.27985 L 1109.9406 360.1861 L 1110.3156 360.9986 L 1111.1906 360.9049 L 1111.2846 361.43615 L 1110.8472 363.1549 L 1110.7532 363.5924 L 1110.7532 364.49865 L 1110.472 365.4049 L 1111.2844 367.2799 L 1111.472 367.4674 L 1112.097 367.5611 L 1114.0032 366.3111 L 1114.347 366.02985 L 1116.2532 365.65485 L 1116.597 364.9361 L 1118.9407 363.4986 L 1121.3782 363.4986 L 1121.3782 363.96735 L 1121.5657 364.59235 L 1122.4407 364.21735 L 1123.0657 364.0611 L 1123.972 363.4986 L 1124.8782 363.77985 L 1124.9722 363.77985 L 1125.5972 363.68615 L 1125.5972 363.71735 L 1126.5972 364.46735 L 1126.6912 364.49855 L 1125.907 365.62482 C 1125.886 365.62182 1125.845 365.6253 1125.845 365.6253 C 1125.748 365.6151 1125.6643 365.5895 1125.5637 365.5941 L 1125.5637 365.5937 L 1125.5637 365.5937 C 1125.4502 365.5987 1125.3176 365.6339 1125.1887 365.6562 L 1125.0637 365.6874 L 1125.0327 365.6874 C 1124.6062 365.78857 1124.0799 365.98013 1123.3453 366.34365 L 1122.439 366.78115 L 1121.564 366.40615 L 1120.9077 366.34365 L 1120.7515 366.34365 C 1117.9453 366.66616 1116.7578 366.50115 1114.064 367.3124 L 1112.7203 368.4999 L 1111.814 368.84365 L 1111.189 369.3124 L 1109.4077 370.90615 L 1109.689 371.1874 L 1110.564 371.90615 L 1111.0327 372.8124 L 1110.9387 373.15615 L 1111.5637 374.15615 L 1111.0324 374.6874 L 1111.47 375.6874 L 1111.0324 376.21865 L 1110.9384 376.40615 L 1110.8444 376.59365 L 1110.1256 376.9374 L 1108.5006 378.7499 L 1108.4066 379.03115 L 1109.2192 379.90615 L 1109.0316 380.3749 L 1108.9376 380.9999 L 1108.8756 381.3749 L 1107.3131 381.90615 L 1106.4381 381.90615 L 1103.9068 381.3749 L 1103.4694 381.4374 L 1103.3754 381.5311 L 1103.5629 382.43735 L 1103.7192 382.62485 L 1103.9066 382.9686 L 1104.8129 383.62485 L 1105.0629 384.49985 L 1105.2504 384.68735 L 1104.8129 385.5936 L 1103.9066 386.12485 L 1103.3754 386.4061 L 1102.3754 386.4061 L 1101.6566 386.5936 L 1101.6566 387.4686 L 1101.4692 387.5623 L 1101.3752 388.46855 L 1100.5002 389.46855 L 1100.4062 389.56225 L 1100.75 392.3435 L 1100.4062 392.5935 L 1099.6875 393.49975 L 1098.7812 393.9685 L 1098.25 393.781 L 1097.25 393.24975 L 1095.1875 393.24975 L 1094.9062 393.5935 L 1093.5625 394.31225 L 1092.6562 394.40595 L 1093.6562 395.3122 L 1093.6562 395.4059 L 1093.0312 395.6559 L 1091.125 395.93715 L 1090.5 395.93715 L 1090.125 395.84345 L 1090.063 395.4997 L 1089.1567 395.84345 L 1088.688 396.03095 L 1088.2505 396.9372 L 1087.3443 397.3747 L 1087.188 397.5622 L 1086.813 398.6247 L 1086.719 399.53095 C 1086.8583 401.39031 1086.8983 402.25698 1086.594 402.71845 C 1086.551 402.78435 1086.496 402.823 1086.4377 402.8747 C 1085.9685 403.28828 1085.0021 403.31033 1083.1252 403.84345 L 1080.6877 404.4997 L 1080.5002 404.406 L 1078.094 404.406 L 1077.8127 404.4997 L 1077.3752 404.5622 L 1076.469 405.21845 L 1075.5627 404.9372 L 1074.219 404.7497 L 1072.4064 404.8434 L 1068.8127 405.12465 L 1068.094 404.93715 L 1064.9377 403.93715 L 1061.531 402.87482 L 1061.2789 403.03402 L 1065.5215 397.8633 L 1065.6541 396.75844 L 1064.726 395.25584 L 1061.1905 394.63712 L 1060.9695 391.98547 L 1061.2347 390.96901 L 1059.9089 386.06345 L 1061.4557 384.25149 L 1059.9089 383.72116 L 1059.6437 382.88147 L 1059.6877 381.37887 L 1060.2622 380.18563 L 1061.4113 380.05305 L 1060.66 378.99239 L 1060.704 378.72722 L 1062.1182 377.62237 L 1062.1622 376.87107 L 1063.0461 373.68908 L 1063.3112 373.37973 Z"/>
</svg>
