<svg width="1671.094" height="856.39252" viewBox="0 0 1671.094 856.39252" xmlns="http://www.w3.org/2000/svg" xmlns:usvg="https://github.com/RazrFalcon/usvg" usvg:version="0.8.0">
    <defs/>
    <path id="path2735-7-0" fill="#3e73c5" fill-opacity="0.42857145" stroke="#000000" stroke-opacity="0.24675323" stroke-linecap="round" stroke-linejoin="round" transform="matrix(1 0 0 1 0.5 1.2670726)" d="M 1154.997 401.15556 C 1155.1632 401.35322 1155.2836 401.70937 1155.403 401.96806 L 1156.1843 401.87436 L 1156.5593 401.43686 L 1156.8093 400.24936 L 1157.7156 400.06186 L 1158.6218 400.34311 L 1159.6218 400.43681 L 1160.5906 401.78056 L 1161.4968 402.24931 L 1163.3718 403.78056 L 1165.3718 404.31181 L 1165.5593 404.84306 L 1165.8093 404.84306 L 1165.8403 404.84306 L 1166.2777 405.56181 L 1167.184 406.46806 L 1168.059 405.93681 L 1169.059 406.03051 L 1169.684 406.90551 L 1169.8715 407.62426 L 1171.7465 408.81176 L 1172.6527 409.53051 L 1173.3715 409.34301 L 1174.3715 409.24931 L 1173.934 410.24931 L 1173.934 410.59306 L 1174.809 410.87431 L 1175.809 410.87431 L 1176.809 410.59306 L 1177.7153 411.87431 L 1177.8715 412.21806 L 1177.8715 412.31176 L 1178.309 412.84301 L 1178.4965 411.87426 L 1179.4965 412.31176 L 1180.4027 412.59301 L 1180.4967 412.49931 L 1181.5592 411.87431 C 1184.1879 413.80931 1183.0379 412.86432 1185.8717 413.21806 L 1186.7779 412.78056 L 1187.9655 412.93681 L 1187.2125 416.94687 L 1187.8965 418.4706 L 1187.2281 420.46331 L 1183.7605 420.32757 L 1183.0337 420.22219 L 1182.7902 419.71512 L 1181.43 420.4633 L 1179.9276 419.67955 L 1178.642 419.4259 L 1177.2656 419.53721 L 1176.3134 418.25465 L 1174.8579 418.75946 L 1174.0533 418.17449 L 1172.7876 417.54876 L 1171.592 417.30052 L 1171.2581 415.75905 L 1169.6983 415.07339 L 1168.35 415.25894 L 1167.994 415.92298 L 1166.7367 415.21261 L 1165.5168 415.91692 L 1164.8848 415.38432 L 1162.6463 415.08956 L 1162.2746 413.91073 L 1160.1984 413.22262 L 1159.6401 412.75658 L 1158.8053 413.09837 L 1155.6413 410.7798 L 1154.9963 410.55997 L 1152.3291 408.80831 L 1152.3511 409.5762 L 1150.3278 408.30199 L 1150.529 407.16185 L 1151.331 405.85524 L 1151.0365 405.38212 L 1151.7565 404.31044 L 1151.7095 403.25377 L 1154.4481 401.1743 Z"/>
    <path id="path2735-7" fill="#8cce55" stroke="#0f380f" stroke-opacity="0.14509804" stroke-linecap="round" stroke-linejoin="round" transform="matrix(1 0 0 1 0.5 1.2670726)" d="M 1154.997 401.15556 C 1155.1632 401.35322 1155.2836 401.70937 1155.403 401.96806 L 1156.1843 401.87436 L 1156.5593 401.43686 L 1156.8093 400.24936 L 1157.7156 400.06186 L 1158.6218 400.34311 L 1159.6218 400.43681 L 1160.5906 401.78056 L 1161.4968 402.24931 L 1163.3718 403.78056 L 1165.3718 404.31181 L 1165.5593 404.84306 L 1165.8093 404.84306 L 1165.8403 404.84306 L 1166.2777 405.56181 L 1167.184 406.46806 L 1168.059 405.93681 L 1169.059 406.03051 L 1169.684 406.90551 L 1169.8715 407.62426 L 1171.7465 408.81176 L 1172.6527 409.53051 L 1173.3715 409.34301 L 1174.3715 409.24931 L 1173.934 410.24931 L 1173.934 410.59306 L 1174.809 410.87431 L 1175.809 410.87431 L 1176.809 410.59306 L 1177.7153 411.87431 L 1177.8715 412.21806 L 1177.8715 412.31176 L 1178.309 412.84301 L 1178.4965 411.87426 L 1179.4965 412.31176 L 1180.4027 412.59301 L 1180.4967 412.49931 L 1181.5592 411.87431 C 1184.1879 413.80931 1183.0379 412.86432 1185.8717 413.21806 L 1186.7779 412.78056 L 1187.9655 412.93681 L 1187.2125 416.94687 L 1187.8965 418.4706 L 1187.2281 420.46331 L 1183.7605 420.32757 L 1183.0337 420.22219 L 1182.7902 419.71512 L 1181.43 420.4633 L 1179.9276 419.67955 L 1178.642 419.4259 L 1177.2656 419.53721 L 1176.3134 418.25465 L 1174.8579 418.75946 L 1174.0533 418.17449 L 1172.7876 417.54876 L 1171.592 417.30052 L 1171.2581 415.75905 L 1169.6983 415.07339 L 1168.35 415.25894 L 1167.994 415.92298 L 1166.7367 415.21261 L 1165.5168 415.91692 L 1164.8848 415.38432 L 1162.6463 415.08956 L 1162.2746 413.91073 L 1160.1984 413.22262 L 1159.6401 412.75658 L 1158.8053 413.09837 L 1155.6413 410.7798 L 1154.9963 410.55997 L 1152.3291 408.80831 L 1152.3511 409.5762 L 1150.3278 408.30199 L 1150.529 407.16185 L 1151.331 405.85524 L 1151.0365 405.38212 L 1151.7565 404.31044 L 1151.7095 403.25377 L 1154.4481 401.1743 Z"/>
</svg>
