<svg width="1671.094" height="856.39252" viewBox="0 0 1671.094 856.39252" xmlns="http://www.w3.org/2000/svg" xmlns:usvg="https://github.com/RazrFalcon/usvg" usvg:version="0.8.0">
    <defs/>
    <path id="path81144-4" fill="#3e73c5" fill-opacity="0.42857145" stroke="#000000" stroke-opacity="0.24675323" stroke-linecap="round" stroke-linejoin="round" transform="matrix(1 0 0 1 0.5 1.2670726)" d="M 1196.5938 410.6875 L 1194.8125 411.5 L 1194.4375 411.875 L 1194.3435 411.9687 L 1193.5309 413.0312 L 1192.5622 414.2812 L 1191.7497 415.18745 L 1191.7497 415.37495 L 1191.6557 415.56245 L 1191.5617 415.74995 L 1190.843 416.5312 L 1191.3742 417.43745 L 1191.9367 417.5937 L 1192.093 417.6249 L 1192.9992 418.15615 L 1193.6242 417.9999 L 1194.6867 418.34365 L 1194.8742 418.43735 L 1195.7804 418.7811 L 1195.8744 418.7186 L 1196.0619 418.6249 L 1197.0619 418.6249 L 1197.9369 417.9999 L 1198.8432 418.0624 L 1200.0932 418.4374 L 1200.9994 418.3437 L 1201.0934 418.3437 L 1201.6246 418.1562 L 1202.5308 418.43745 L 1203.4371 417.9062 L 1204.4996 418.24995 L 1205.3121 418.24995 L 1206.2184 417.99995 L 1206.4058 417.7187 L 1205.9371 416.4687 L 1206.3121 415.6562 L 1205.4058 415.0312 L 1204.3434 414.8437 L 1204.0621 414.37495 L 1204.2496 413.49995 L 1204.3436 412.5937 L 1203.4373 412.31245 L 1203.2498 412.31245 L 1202.2498 411.87495 L 1201.3748 412.4062 L 1201.2808 412.4062 L 1200.9996 412.12495 L 1199.1871 411.9687 L 1198.7496 411.9687 L 1198.2184 411.875 L 1198.0308 410.96875 L 1197.1246 410.6875 L 1196.5934 410.6875 Z"/>
    <path id="path80955" fill="#3e73c5" fill-opacity="0.42857145" stroke="#000000" stroke-opacity="0.24675323" stroke-linecap="round" stroke-linejoin="round" transform="matrix(1 0 0 1 0.5 1.2670726)" d="M 1189.0547 419.14648 L 1188.7734 419.70898 L 1189.4922 419.95898 L 1189.6797 420.33398 L 1188.9609 420.67773 L 1188.5859 421.24023 L 1188.0547 421.58398 L 1187.7734 422.49023 L 1189.3047 423.83398 L 1189.3047 424.11523 L 1189.8672 424.64648 L 1190.8359 424.55278 L 1191.9297 425.74028 L 1191.6484 426.27153 L 1190.7422 426.27153 L 1190.5547 426.17783 L 1189.3047 426.17783 L 1189.1172 427.08408 L 1189.1172 427.27158 L 1188.4922 427.70908 L 1188.1484 427.33408 L 1187.6797 428.24033 L 1187.7737 429.52158 C 1189.0799 430.13283 1188.348 429.50278 1189.3987 430.39658 L 1189.4927 430.39658 L 1190.3052 430.49028 L 1190.4927 430.49028 L 1190.6802 430.86528 L 1190.6802 431.11528 L 1190.5552 431.11528 L 1190.5552 432.02153 L 1190.6802 432.20903 L 1190.2114 432.64653 L 1189.8677 433.55278 L 1190.1177 434.02153 L 1190.8364 434.45903 L 1190.9304 434.55273 L 1190.7429 435.17773 L 1191.5554 435.89648 L 1191.3054 436.70898 L 1191.3054 436.80268 L 1191.3674 437.24018 L 1191.5549 438.67768 L 1191.6489 438.77138 L 1191.5549 439.14638 L 1191.8361 439.86513 L 1191.9301 440.11513 L 1192.1801 440.83388 L 1192.1801 441.08388 C 1192.1701 441.08188 1192.1601 441.08188 1192.1491 441.08388 C 1192.1381 441.09188 1192.1281 441.10248 1192.1201 441.11508 C 1192.1071 441.12308 1192.0961 441.13368 1192.0891 441.14628 L 1191.9328 441.39628 L 1191.6203 441.86503 L 1191.5583 441.89623 C 1191.5483 441.89423 1191.5383 441.89423 1191.5273 441.89623 C 1191.5153 441.90423 1191.5043 441.91483 1191.4963 441.92743 C 1191.4833 441.93543 1191.4723 441.94603 1191.4653 441.95863 L 1191.4653 441.98983 L 1191.4653 442.17733 L 1191.4653 442.20853 L 1191.4653 442.23973 C 1191.4753 442.24173 1191.4863 442.24173 1191.4963 442.23973 L 1191.4963 442.27093 L 1191.8401 442.52093 L 1191.9341 442.64593 L 1191.9961 442.70843 L 1191.9341 442.83343 L 1191.6216 443.42718 L 1191.3716 443.02093 C 1191.3616 443.01893 1191.3516 443.01893 1191.3426 443.02093 C 1191.3426 443.01053 1191.3435 443.00003 1191.3426 442.98973 C 1191.3316 442.98773 1191.3216 442.98773 1191.3116 442.98973 C 1191.3016 442.98773 1191.2916 442.98773 1191.2806 442.98973 C 1191.2706 442.98773 1191.2596 442.98773 1191.2496 442.98973 C 1191.2366 442.99773 1191.2256 443.00833 1191.2186 443.02093 C 1191.2056 443.02893 1191.1956 443.03953 1191.1876 443.05213 L 1191.1876 443.08333 L 1190.9063 443.48958 L 1190.5626 443.20833 L 1190.6566 442.55208 L 1190.8441 441.67708 L 1190.9381 441.30208 L 1190.9381 441.27088 L 1190.9381 441.23968 C 1190.9281 441.22708 1190.9211 441.21638 1190.9091 441.20848 C 1190.8991 441.19588 1190.8901 441.18518 1190.8781 441.17728 C 1190.8681 441.17528 1190.8561 441.17528 1190.8471 441.17728 C 1190.8361 441.17528 1190.8261 441.17528 1190.8161 441.17728 C 1190.8031 441.18528 1190.7931 441.19588 1190.7851 441.20848 C 1190.7751 441.20648 1190.7641 441.20648 1190.7541 441.20848 L 1190.5354 441.27098 L 1190.5664 440.92723 L 1190.5664 440.89603 L 1190.5664 440.86483 C 1190.5564 440.85223 1190.5474 440.84153 1190.5354 440.83363 C 1190.5254 440.83163 1190.5144 440.83163 1190.5044 440.83363 C 1190.4944 440.83163 1190.4824 440.83163 1190.4734 440.83363 L 1190.3794 440.83363 C 1190.3694 440.83163 1190.3574 440.83163 1190.3484 440.83363 C 1190.3354 440.84163 1190.3274 440.85223 1190.3194 440.86483 L 1190.0381 441.33358 C 1190.0261 441.34158 1190.0151 441.35218 1190.0071 441.36478 L 1190.0071 442.08353 L 1189.9451 442.98978 L 1189.9451 443.23978 L 1189.8831 443.61478 L 1189.8831 443.70848 L 1189.7891 443.86473 L 1189.8521 443.64598 C 1189.8641 443.63798 1189.8751 443.62738 1189.8831 443.61478 C 1189.8731 443.60218 1189.8631 443.59148 1189.8521 443.58358 L 1189.7581 443.33358 L 1189.6641 442.77108 L 1189.6641 442.73988 C 1189.6751 442.74188 1189.6851 442.74188 1189.6951 442.73988 L 1189.6951 442.70868 C 1189.6851 442.69608 1189.6761 442.68538 1189.6641 442.67748 L 1189.6021 442.42748 C 1189.5921 442.41488 1189.5831 442.40418 1189.5711 442.39628 C 1189.5611 442.38368 1189.5541 442.37298 1189.5421 442.36508 C 1189.5321 442.36308 1189.5211 442.36308 1189.5111 442.36508 C 1189.5011 442.36308 1189.4891 442.36308 1189.4801 442.36508 C 1189.4691 442.36308 1189.4591 442.36308 1189.4491 442.36508 C 1189.4361 442.37308 1189.4261 442.38368 1189.4181 442.39628 C 1189.4181 442.40668 1189.4172 442.41728 1189.4181 442.42748 C 1189.4081 442.42548 1189.3971 442.42548 1189.3871 442.42748 L 1189.3871 442.45868 L 1189.4491 442.80243 L 1189.4491 442.83363 L 1189.4181 442.86483 C 1189.4061 442.87283 1189.3951 442.88343 1189.3871 442.89603 L 1189.2931 443.45853 L 1189.2311 443.30228 C 1189.2211 443.28968 1189.2121 443.27898 1189.2001 443.27108 C 1189.1901 443.26908 1189.1821 443.26908 1189.1711 443.27108 L 1188.9211 443.17738 C 1188.9111 443.17538 1188.9001 443.17538 1188.8901 443.17738 C 1188.8801 443.17538 1188.8681 443.17538 1188.8591 443.17738 C 1188.8481 443.17538 1188.8381 443.17538 1188.8281 443.17738 C 1188.8151 443.18538 1188.8051 443.19598 1188.7971 443.20858 L 1188.3596 443.33358 C 1188.2467 443.04608 1188.1685 442.78012 1188.1721 442.61483 C 1188.1821 442.31442 1188.2871 442.14925 1188.3596 441.95858 C 1188.4316 441.76791 1188.4778 441.52154 1188.2976 441.23983 C 1188.2876 441.22913 1188.2426 441.21943 1188.2356 441.20863 L 1187.9543 440.92738 C 1187.743 440.68247 1187.5617 440.44245 1187.0481 440.02113 C 1187.0381 440.01913 1187.0271 440.01913 1187.0171 440.02113 C 1187.0071 440.01913 1186.9951 440.01913 1186.9861 440.02113 C 1186.9751 440.01913 1186.9671 440.01913 1186.9571 440.02113 C 1186.9471 440.01913 1186.9371 440.01913 1186.9261 440.02113 C 1186.9141 440.02913 1186.9031 440.03973 1186.8951 440.05233 L 1186.8951 440.08353 L 1186.8951 440.11473 L 1186.8951 440.14593 L 1186.8951 440.17713 C 1186.9051 440.17913 1186.9171 440.17913 1186.9261 440.17713 L 1187.8011 441.08338 L 1187.3324 442.14588 L 1187.0199 442.58338 C 1187.0009 442.60378 1186.9759 442.62618 1186.9579 442.64588 C 1186.6295 442.98153 1186.3224 443.2285 1185.9891 443.39588 C 1185.817 443.48208 1185.6488 443.55186 1185.4579 443.61463 L 1185.1766 443.67713 L 1185.1146 443.70833 C 1184.6109 443.8448 1184.0243 443.96015 1183.2709 444.14583 C 1183.2579 444.15383 1183.2469 444.16443 1183.2399 444.17703 L 1182.3337 445.08328 C 1182.3207 445.09128 1182.3107 445.10188 1182.3027 445.11448 L 1181.8652 446.02073 C 1181.8522 446.02873 1181.8442 446.03933 1181.8362 446.05193 C 1181.8462 446.06453 1181.8532 446.07333 1181.8652 446.08123 L 1182.1152 446.92498 L 1182.1152 446.95618 L 1182.1152 446.98738 L 1182.0212 447.83113 L 1182.0212 447.86233 C 1182.0312 447.87493 1182.0412 447.88573 1182.0522 447.89353 L 1182.3022 448.26853 C 1182.3132 448.27053 1182.3232 448.27053 1182.3332 448.26853 L 1182.3332 448.29973 L 1182.4582 448.39343 L 1182.3332 448.48713 L 1181.4269 449.11213 C 1181.4269 449.12253 1181.426 449.13313 1181.4269 449.14333 C 1181.4169 449.14133 1181.4059 449.14133 1181.3959 449.14333 L 1181.3959 449.17453 L 1181.2084 450.08078 L 1181.2084 450.11198 L 1181.2084 450.20568 L 1180.3959 450.54943 C 1180.3859 450.54743 1180.3739 450.54743 1180.3649 450.54943 C 1180.3519 450.55743 1180.3419 450.56813 1180.3339 450.58063 L 1179.8339 451.42438 L 1178.8651 450.83063 C 1178.8541 450.82863 1178.8461 450.82863 1178.8361 450.83063 C 1178.8261 450.81803 1178.8171 450.80733 1178.8051 450.79943 C 1178.7951 450.79743 1178.7841 450.79743 1178.7741 450.79943 C 1178.7611 450.80743 1178.7501 450.81813 1178.7431 450.83063 C 1178.7301 450.83863 1178.7201 450.84933 1178.7121 450.86183 L 1178.7121 450.89303 L 1178.7121 450.92423 L 1178.7121 450.95543 C 1178.7221 450.96803 1178.7311 450.97883 1178.7431 450.98663 L 1179.3056 451.54913 L 1178.6806 452.11163 L 1178.2431 452.26788 L 1177.3368 452.51788 L 1176.4306 452.79913 L 1175.9306 452.92413 L 1175.3681 452.20538 C 1175.3681 452.19498 1175.369 452.18448 1175.3681 452.17418 C 1175.3571 452.17218 1175.3471 452.17218 1175.3371 452.17418 C 1175.3271 452.17218 1175.3171 452.17218 1175.3061 452.17418 C 1175.2961 452.17218 1175.2851 452.17218 1175.2751 452.17418 C 1175.2651 452.17218 1175.2531 452.17218 1175.2441 452.17418 L 1174.3378 452.89293 C 1174.3248 452.90093 1174.3168 452.91163 1174.3088 452.92413 L 1173.9026 453.89288 L 1173.8716 453.92408 C 1173.8586 453.93208 1173.8486 453.94278 1173.8406 453.95528 L 1173.8406 453.98648 C 1173.8506 453.99908 1173.8596 454.00988 1173.8716 454.01768 C 1173.8816 454.03028 1173.8906 454.04108 1173.9026 454.04888 C 1173.9126 454.06148 1173.9206 454.07228 1173.9316 454.08008 C 1173.9426 454.08208 1173.9526 454.08208 1173.9626 454.08008 C 1173.9756 454.07208 1173.9856 454.06148 1173.9936 454.04888 C 1174.0036 454.05088 1174.0146 454.05088 1174.0246 454.04888 L 1173.3059 454.89263 C 1172.1633 456.00053 1171.2543 457.30319 1170.1809 458.58013 L 1169.2746 459.45513 L 1168.5871 460.01763 L 1168.5871 459.98643 L 1167.6809 460.45518 L 1167.1496 460.79893 C 1167.1366 460.80693 1167.1256 460.81763 1167.1186 460.83013 L 1166.2436 461.64263 C 1166.2326 461.64063 1166.2226 461.64063 1166.2126 461.64263 L 1165.4314 462.51763 L 1165.4004 462.54883 L 1165.2442 462.61133 C 1165.2312 462.61933 1165.2232 462.63003 1165.2152 462.64253 L 1165.2152 462.67373 L 1165.2152 462.70493 L 1165.2152 462.73613 L 1165.2152 462.76733 L 1163.4652 463.95483 L 1162.5589 464.39233 C 1162.5589 464.40273 1162.558 464.41333 1162.5589 464.42353 L 1161.9027 464.79853 L 1161.9027 854.61103 L 1231.3382 854.61103 L 1231.3382 854.57983 L 1231.3382 605.4353 L 1225.4261 605.4353 L 1225.4261 599.0603 L 1231.3382 599.0603 L 1231.3382 541.80053 L 1227.3382 535.80053 L 1223.3812 533.37085 L 1223.9066 532.50757 L 1229.8753 535.31421 L 1231.6859 532.21655 L 1229.305 530.04077 L 1227.1507 528.48803 L 1223.9769 525.61108 L 1221.9515 523.04468 L 1219.7288 519.22827 L 1220.9378 518.1228 L 1225.5355 521.39233 L 1228.5843 521.27905 L 1229.7581 521.47827 L 1231.1663 521.10718 L 1231.1663 502.73803 L 1231.3226 502.64433 L 1233.3851 501.20683 L 1234.3851 501.11313 L 1235.2288 499.86313 L 1236.1976 498.92563 L 1236.0413 498.08188 L 1236.0413 498.05068 L 1236.1976 497.17568 L 1236.1976 497.14448 L 1236.0413 496.51948 L 1235.9473 495.58198 L 1236.4473 494.98823 C 1236.4573 494.99023 1236.4683 494.99023 1236.4783 494.98823 L 1237.1033 494.08198 L 1237.1033 494.05078 C 1237.1042 494.04038 1237.1033 494.02988 1237.1033 494.01958 L 1237.2283 493.36333 L 1237.2893 493.05083 L 1237.2893 493.01963 L 1237.2893 492.11338 L 1237.2283 491.55088 L 1237.5389 490.45713 C 1237.5519 490.44913 1237.5619 490.43853 1237.5699 490.42593 L 1237.5699 490.39473 C 1237.5599 490.38213 1237.5509 490.37143 1237.5389 490.36353 C 1237.5289 490.35093 1237.5219 490.34023 1237.5099 490.33233 C 1237.4999 490.33033 1237.4889 490.33033 1237.4789 490.33233 C 1237.4689 490.31973 1237.4599 490.30903 1237.4479 490.30113 C 1237.4349 490.30913 1237.4249 490.31973 1237.4169 490.33233 L 1237.3549 490.36353 L 1236.6987 490.76978 L 1236.7607 490.05103 L 1236.7607 489.17603 L 1236.7607 489.14483 L 1237.1044 488.67608 C 1237.1053 488.66568 1237.1044 488.65518 1237.1044 488.64488 C 1237.1053 488.63448 1237.1044 488.62398 1237.1044 488.61368 C 1237.1053 488.60328 1237.1044 488.59278 1237.1044 488.58248 L 1236.9169 488.17623 L 1237.0109 488.01998 L 1237.0109 487.98878 L 1237.0109 487.95758 L 1237.0109 487.92638 C 1237.0009 487.92438 1236.9899 487.92438 1236.9799 487.92638 L 1236.5737 487.48888 L 1236.8237 486.61388 L 1236.8237 486.58268 L 1237.0112 486.33268 L 1237.0112 486.30148 L 1237.0112 486.27028 L 1237.0112 486.24098 L 1237.0112 486.20978 C 1237.0012 486.20778 1236.9902 486.20778 1236.9802 486.20978 C 1236.9702 486.19718 1236.9612 486.18648 1236.9492 486.17858 C 1236.9392 486.17658 1236.9302 486.17658 1236.9202 486.17858 L 1236.7952 486.17858 L 1236.5764 485.36608 L 1236.4804 484.45983 C 1236.4813 484.44943 1236.4804 484.43893 1236.4804 484.42863 L 1236.0429 483.45988 L 1235.7617 482.73917 L 1235.7617 482.70797 L 1235.2304 481.83297 L 1234.9492 480.95797 L 1234.9492 480.92677 L 1234.7617 480.05177 L 1234.7617 480.02057 L 1234.6677 479.83307 C 1234.6577 479.82047 1234.6487 479.80977 1234.6367 479.80187 C 1234.6267 479.79987 1234.6157 479.79987 1234.6057 479.80187 C 1234.5947 479.79987 1234.5847 479.79987 1234.5747 479.80187 C 1234.5647 479.79987 1234.5537 479.79987 1234.5437 479.80187 C 1234.5317 479.80987 1234.5227 479.82047 1234.5147 479.83307 L 1234.3897 480.02057 L 1234.3897 480.05177 L 1234.3897 480.08297 L 1234.4837 480.86422 L 1234.4837 480.89542 L 1234.4197 481.36417 L 1234.2322 480.89542 L 1234.2322 480.86422 L 1234.2322 480.83302 L 1234.1382 479.95802 L 1233.9507 479.05177 L 1233.7944 478.52052 L 1233.5132 477.67677 L 1233.5132 477.61427 L 1233.7944 476.77052 L 1233.7944 476.73932 L 1233.7944 476.70812 C 1233.7844 476.69552 1233.7754 476.68482 1233.7634 476.67692 C 1233.7534 476.66432 1233.7464 476.65362 1233.7344 476.64572 L 1232.7969 475.98947 L 1232.8909 475.48947 L 1232.8909 475.45827 L 1232.7969 475.17702 L 1232.6094 474.33327 L 1232.6094 474.30207 L 1232.7034 473.42707 L 1232.7034 473.39587 L 1232.6094 472.48962 L 1232.5134 472.05212 L 1232.3259 471.14587 L 1232.3259 471.11467 L 1231.9821 470.23967 L 1231.9821 470.20847 L 1232.0781 469.73972 L 1232.0781 469.70852 L 1232.0781 469.14602 L 1232.4219 468.11477 L 1232.4839 468.11477 C 1232.4848 468.10437 1232.4839 468.09387 1232.4839 468.08357 C 1232.4939 468.08557 1232.5049 468.08557 1232.5149 468.08357 L 1232.5149 468.05237 L 1232.5149 468.02117 L 1232.5149 467.98997 L 1232.5149 467.95877 C 1232.5049 467.94617 1232.4959 467.93547 1232.4839 467.92757 C 1232.4729 467.92557 1232.4629 467.92557 1232.4529 467.92757 C 1232.4429 467.91497 1232.4339 467.90427 1232.4219 467.89637 L 1232.1406 467.89637 L 1232.0786 467.92757 L 1231.7349 468.08382 L 1231.5786 468.08382 L 1230.7036 467.77132 L 1230.6746 467.74012 L 1230.2684 466.89637 L 1230.2684 466.86517 L 1230.0184 466.20892 L 1230.0184 465.30267 L 1229.9874 465.24017 L 1229.8624 465.11517 L 1228.5812 463.77142 L 1228.5502 463.70892 C 1228.5402 463.70692 1228.5292 463.70692 1228.5192 463.70892 C 1228.5092 463.69632 1228.5002 463.68752 1228.4882 463.67962 C 1228.4772 463.67762 1228.4672 463.67762 1228.4572 463.67962 C 1228.4472 463.67762 1228.4362 463.67762 1228.4262 463.67962 C 1228.4253 463.69002 1228.4262 463.69862 1228.4262 463.70892 C 1228.4162 463.70692 1228.4052 463.70692 1228.3952 463.70892 L 1228.3952 463.74012 C 1228.3852 463.73812 1228.3762 463.73812 1228.3662 463.74012 L 1228.3662 463.77132 L 1228.3662 463.80252 L 1228.5517 464.45877 L 1228.5517 464.52127 L 1228.3017 465.27127 C 1228.2897 465.27927 1228.2807 465.28987 1228.2727 465.30247 L 1228.2727 465.33367 C 1228.2827 465.33567 1228.2917 465.33567 1228.3017 465.33367 C 1228.3008 465.34407 1228.3017 465.35467 1228.3017 465.36487 L 1228.4599 465.58362 L 1228.1162 466.45862 L 1228.1162 466.48982 L 1228.1162 466.86482 L 1228.1162 466.98982 L 1228.1162 467.02102 L 1226.4912 468.23977 L 1225.7724 467.58352 L 1225.7104 467.52102 L 1225.7724 466.86477 L 1225.7724 466.83357 L 1225.7724 466.80237 L 1225.7724 466.77117 C 1225.7624 466.76917 1225.7514 466.76917 1225.7414 466.77117 C 1225.7314 466.75857 1225.7224 466.74787 1225.7104 466.73997 C 1225.7004 466.73797 1225.6894 466.73797 1225.6794 466.73997 C 1225.6694 466.73797 1225.6584 466.73797 1225.6484 466.73997 L 1225.4609 466.83367 C 1225.4479 466.84167 1225.4379 466.85227 1225.4299 466.86487 L 1225.3679 466.92737 L 1225.1804 467.02107 C 1225.1684 467.02907 1225.1574 467.03967 1225.1494 467.05227 L 1225.1494 467.08347 L 1225.1494 467.11467 L 1225.1494 467.14587 L 1225.2454 467.33337 L 1225.4328 467.86462 L 1225.4958 468.08337 L 1225.4958 468.14587 L 1225.277 468.89587 L 1224.4332 468.80217 C 1224.4232 468.80017 1224.4122 468.80017 1224.4022 468.80217 C 1224.3892 468.81017 1224.3782 468.82077 1224.3712 468.83337 C 1224.3602 468.83137 1224.3502 468.83137 1224.3402 468.83337 L 1223.8402 469.45837 L 1223.8092 469.48957 L 1223.153 469.61457 C 1223.143 469.61257 1223.132 469.61257 1223.122 469.61457 C 1223.10900000001 469.62257 1223.101 469.63317 1223.093 469.64577 C 1223.08000000001 469.65377 1223.07000000001 469.66437 1223.062 469.67697 C 1223.0611 469.68737 1223.062 469.69797 1223.062 469.70817 L 1222.90580000001 470.45817 L 1222.7495 470.89567 L 1222.71850000001 470.92687 L 1221.90600000001 471.77062 L 1221.87500000001 471.77062 L 1221.25000000001 471.77062 L 1221.56250000001 470.92687 L 1221.56250000001 470.89567 L 1221.56250000001 469.98942 L 1221.56250000001 469.95822 L 1221.56250000001 469.92702 C 1221.55250000001 469.92502 1221.54150000001 469.92502 1221.53150000001 469.92702 L 1221.53150000001 469.89582 C 1221.52150000001 469.89382 1221.51050000001 469.89382 1221.50050000001 469.89582 C 1221.48950000001 469.89382 1221.47950000001 469.89382 1221.46950000001 469.89582 C 1221.45950000001 469.89382 1221.44850000001 469.89382 1221.43850000001 469.89582 C 1221.42850000001 469.89382 1221.41950000001 469.89382 1221.40950000001 469.89582 L 1221.40950000001 469.92702 L 1221.22200000001 470.08327 C 1221.20900000001 470.09127 1221.19900000001 470.10187 1221.19100000001 470.11447 C 1221.19100000001 470.12487 1221.19010000001 470.13547 1221.19100000001 470.14567 C 1221.19010000001 470.15607 1221.19100000001 470.16667 1221.19100000001 470.17687 L 1220.94100000001 470.64562 L 1220.44100000001 471.23937 L 1220.47200000001 470.86437 L 1220.75330000001 470.14562 C 1220.75420000001 470.13522 1220.75330000001 470.12472 1220.75330000001 470.11442 C 1220.75420000001 470.10402 1220.75330000001 470.09352 1220.75330000001 470.08322 C 1220.75420000001 470.07282 1220.75330000001 470.06232 1220.75330000001 470.05202 C 1220.75420000001 470.04162 1220.75330000001 470.03112 1220.75330000001 470.02082 C 1220.74330000001 470.00822 1220.73430000001 469.99752 1220.72230000001 469.98962 C 1220.71230000001 469.98762 1220.70130000001 469.98762 1220.69130000001 469.98962 C 1220.68130000001 469.98762 1220.67030000001 469.98762 1220.66030000001 469.98962 L 1220.62930000001 469.98962 L 1220.44180000001 469.89592 C 1220.43180000001 469.89392 1220.42080000001 469.89392 1220.41080000001 469.89592 C 1220.40080000001 469.89392 1220.38980000001 469.89392 1220.37980000001 469.89592 C 1220.36880000001 469.89392 1220.35880000001 469.89392 1220.34880000001 469.89592 C 1220.33580000001 469.90392 1220.32780000001 469.91452 1220.31980000001 469.92712 C 1220.30780000001 469.93512 1220.29680000001 469.94572 1220.28880000001 469.95832 L 1220.03880000001 470.77082 L 1219.69500000001 471.58332 L 1219.25750000001 471.36457 L 1219.50750000001 470.55207 C 1219.50840000001 470.54167 1219.50750000001 470.53117 1219.50750000001 470.52087 C 1219.50840000001 470.51047 1219.50750000001 470.49997 1219.50750000001 470.48967 C 1219.49650000001 470.48767 1219.48650000001 470.48767 1219.47650000001 470.48967 L 1219.47650000001 470.45847 C 1219.46650000001 470.44587 1219.45750000001 470.43517 1219.44550000001 470.42727 L 1219.38350000001 470.39607 L 1219.82100000001 469.61482 L 1219.85200000001 469.58362 L 1219.85200000001 469.55242 L 1219.85200000001 469.52122 L 1219.85200000001 469.49002 C 1219.84200000001 469.47742 1219.83300000001 469.46672 1219.82100000001 469.45882 C 1219.81100000001 469.45682 1219.80000000001 469.45682 1219.79000000001 469.45882 C 1219.78000000001 469.44622 1219.77100000001 469.43552 1219.75900000001 469.42762 C 1219.74600000001 469.43562 1219.73800000001 469.44622 1219.73000000001 469.45882 L 1219.66800000001 469.49002 L 1219.07430000001 469.80252 C 1219.07430000001 469.81292 1219.07340000001 469.82352 1219.07430000001 469.83372 C 1219.06430000001 469.83172 1219.05330000001 469.83172 1219.04330000001 469.83372 L 1218.94930000001 469.92742 C 1218.93930000001 469.91482 1218.93030000001 469.90412 1218.91830000001 469.89622 C 1218.90830000001 469.89422 1218.89730000001 469.89422 1218.88730000001 469.89622 C 1218.87630000001 469.89422 1218.86630000001 469.89422 1218.85630000001 469.89622 C 1218.84630000001 469.89422 1218.83530000001 469.89422 1218.82530000001 469.89622 C 1218.81530000001 469.89422 1218.80430000001 469.89422 1218.79430000001 469.89622 L 1218.23180000001 470.36497 L 1218.41930000001 469.73997 L 1218.51530000001 469.20872 L 1218.70280000001 468.30247 L 1218.70280000001 468.27127 L 1218.70280000001 468.24007 C 1218.69280000001 468.22747 1218.68380000001 468.21677 1218.67180000001 468.20887 C 1218.66180000001 468.19627 1218.65280000001 468.18557 1218.64080000001 468.17767 C 1218.62980000001 468.17567 1218.61980000001 468.17567 1218.60980000001 468.17767 L 1218.45350000001 468.17767 L 1218.42250000001 468.11517 C 1218.41250000001 468.11317 1218.40150000001 468.11317 1218.39150000001 468.11517 C 1218.38150000001 468.10257 1218.37250000001 468.09377 1218.36050000001 468.08587 C 1218.35050000001 468.08387 1218.33950000001 468.08387 1218.32950000001 468.08587 C 1218.31950000001 468.08387 1218.31050000001 468.08387 1218.30050000001 468.08587 C 1218.28750000001 468.09387 1218.27650000001 468.10257 1218.26950000001 468.11517 C 1218.25650000001 468.12317 1218.24650000001 468.13377 1218.23850000001 468.14637 L 1218.23850000001 468.17757 L 1218.23850000001 468.61507 L 1218.23850000001 468.64627 L 1217.73850000001 469.27127 L 1217.51980000001 469.49002 L 1217.01980000001 470.33377 L 1216.26980000001 470.49002 L 1216.36380000001 469.74002 L 1216.45780000001 468.86502 L 1216.45780000001 468.83382 L 1216.80150000001 467.86507 L 1217.17650000001 466.95882 L 1217.17650000001 466.92762 C 1217.20850000001 465.53427 1217.74500000001 464.47131 1217.98900000001 463.08387 L 1217.98900000001 463.05267 L 1217.98900000001 463.02337 C 1217.47980000001 462.20591 1217.40170000001 461.58552 1217.33280000001 460.96087 C 1217.28280000001 460.50078 1217.21170000001 460.01027 1216.95780000001 459.46087 C 1216.87380000001 459.27774 1216.78000000001 459.09944 1216.64530000001 458.89837 C 1216.64530000001 458.89337 1216.61530000001 458.90337 1216.61430000001 458.89837 C 1216.46720000001 458.16303 1216.30100000001 457.68331 1216.11430000001 457.36712 C 1215.92640000001 457.04892 1215.74960000001 456.89398 1215.61430000001 456.74212 C 1215.47900000001 456.59026 1215.38790000001 456.44967 1215.36430000001 456.17962 C 1215.34030000001 455.90957 1215.38730000001 455.50314 1215.55180000001 454.80462 L 1215.55180000001 454.77342 L 1215.55180000001 454.74222 C 1215.54180000001 454.72962 1215.53280000001 454.71892 1215.52080000001 454.71102 L 1215.42680000001 454.61732 C 1215.41680000001 454.60472 1215.40780000001 454.59402 1215.39580000001 454.58612 C 1215.38480000001 454.58412 1215.37680000001 454.58412 1215.36680000001 454.58612 C 1215.35680000001 454.58412 1215.34580000001 454.58412 1215.33580000001 454.58612 C 1215.32380000001 454.59412 1215.31280000001 454.60472 1215.30480000001 454.61732 L 1215.17980000001 454.55482 L 1215.17980000001 454.52362 L 1215.17980000001 454.49242 L 1215.17980000001 454.46122 C 1215.16980000001 454.44862 1215.16080000001 454.43792 1215.14880000001 454.43002 L 1214.55510000001 453.86752 L 1214.55510000001 453.83632 L 1214.49310000001 452.96132 C 1214.48310000001 452.95932 1214.47210000001 452.95932 1214.46210000001 452.96132 L 1214.46210000001 452.93012 C 1214.45210000001 452.91752 1214.44310000001 452.90682 1214.43110000001 452.89892 C 1214.42110000001 452.89692 1214.41210000001 452.89692 1214.40210000001 452.89892 C 1214.39110000001 452.89692 1214.38110000001 452.89692 1214.37110000001 452.89892 L 1213.90240000001 452.96142 L 1213.40240000001 452.11767 L 1213.37140000001 452.08647 L 1212.49640000001 451.46147 L 1212.46540000001 451.46147 L 1212.40340000001 451.14897 C 1212.39340000001 451.13637 1212.38440000001 451.12567 1212.37240000001 451.11777 C 1212.36240000001 451.10517 1212.35340000001 451.09447 1212.34140000001 451.08657 L 1212.18510000001 450.99287 C 1212.17510000001 450.99087 1212.16610000001 450.99087 1212.15610000001 450.99287 C 1212.14510000001 450.99087 1212.13510000001 450.99087 1212.12510000001 450.99287 C 1212.11510000001 450.99087 1212.10410000001 450.99087 1212.09410000001 450.99287 L 1212.09410000001 451.02407 L 1212.06310000001 451.02407 L 1211.50060000001 451.18032 C 1211.49060000001 451.17832 1211.47960000001 451.17832 1211.46960000001 451.18032 C 1211.45960000001 451.17832 1211.44860000001 451.17832 1211.43860000001 451.18032 L 1211.43860000001 451.21152 C 1211.42860000001 451.20952 1211.41760000001 451.20952 1211.40760000001 451.21152 L 1211.28260000001 451.43027 L 1211.15760000001 451.43027 L 1211.21960000001 450.61777 C 1211.23260000001 450.60977 1211.24260000001 450.59917 1211.25060000001 450.58657 L 1211.25060000001 450.55537 L 1211.25060000001 450.52417 C 1211.24060000001 450.51157 1211.23160000001 450.50087 1211.21960000001 450.49297 C 1211.20960000001 450.48037 1211.20060000001 450.46967 1211.18860000001 450.46177 C 1211.17860000001 450.45977 1211.16760000001 450.45977 1211.15760000001 450.46177 C 1211.14660000001 450.45977 1211.13660000001 450.45977 1211.12660000001 450.46177 L 1210.72030000001 450.52427 L 1211.15780000001 449.80552 L 1211.15780000001 449.77432 L 1211.15780000001 449.74312 L 1211.15780000001 449.71192 L 1211.15780000001 449.68072 C 1211.14680000001 449.67872 1211.13880000001 449.67872 1211.12880000001 449.68072 L 1211.12880000001 449.64952 C 1211.11880000001 449.64752 1211.10780000001 449.64752 1211.09780000001 449.64952 C 1211.08780000001 449.64752 1211.07680000001 449.64752 1211.06680000001 449.64952 L 1211.03580000001 449.64952 L 1210.87950000001 449.24327 L 1210.87950000001 449.21207 L 1210.97350000001 448.96207 L 1210.97350000001 448.93087 L 1210.97350000001 448.89967 L 1210.97350000001 448.86847 C 1210.96350000001 448.86647 1210.95250000001 448.86647 1210.94250000001 448.86847 C 1210.93250000001 448.85587 1210.92350000001 448.84517 1210.91150000001 448.83727 C 1210.90050000001 448.83527 1210.89050000001 448.83527 1210.88050000001 448.83727 C 1210.87050000001 448.83527 1210.86150000001 448.83527 1210.85150000001 448.83727 C 1210.83950000001 448.84527 1210.82850000001 448.85587 1210.82050000001 448.86847 C 1210.80750000001 448.87647 1210.79650000001 448.88707 1210.78950000001 448.89967 L 1210.69550000001 449.18092 L 1210.38300000001 450.11842 L 1210.13300000001 450.58717 L 1209.85170000001 450.27467 L 1210.07050000001 449.99342 L 1210.07050000001 449.96222 L 1210.07050000001 449.93102 L 1210.07050000001 449.89982 L 1210.07050000001 449.86862 L 1209.88300000001 449.52487 L 1209.88300000001 449.49367 L 1209.25800000001 448.64992 L 1209.25800000001 448.61872 C 1209.24800000001 448.60612 1209.23900000001 448.59542 1209.22700000001 448.58752 C 1209.21700000001 448.57492 1209.20800000001 448.56422 1209.19600000001 448.55632 C 1209.18600000001 448.55432 1209.17500000001 448.55432 1209.16500000001 448.55632 C 1209.15200000001 448.56432 1209.14200000001 448.57492 1209.13400000001 448.58752 C 1209.12400000001 448.58552 1209.11300000001 448.58552 1209.10300000001 448.58752 C 1209.09100000001 448.59552 1209.08200000001 448.60612 1209.07400000001 448.61872 L 1209.07400000001 448.64992 L 1209.07400000001 448.68112 L 1209.16800000001 449.18112 L 1209.16800000001 449.21232 L 1209.10400000001 449.77482 L 1208.72900000001 449.14982 C 1208.71900000001 449.14782 1208.71000000001 449.14782 1208.70000000001 449.14982 L 1207.91880000001 448.27482 L 1207.88780000001 448.24362 L 1207.45030000001 447.36862 L 1207.48130000001 447.36862 L 1207.20000000001 446.52487 L 1207.20000000001 446.49367 L 1207.20000000001 446.46247 C 1207.19000000001 446.44987 1207.18100000001 446.43917 1207.16900000001 446.43127 C 1207.15900000001 446.41867 1207.15000000001 446.40797 1207.13800000001 446.40007 C 1207.12800000001 446.39807 1207.11700000001 446.39807 1207.10700000001 446.40007 C 1207.09700000001 446.39807 1207.08600000001 446.39807 1207.07600000001 446.40007 C 1207.06300000001 446.40807 1207.05200000001 446.41867 1207.04500000001 446.43127 C 1207.03500000001 446.43527 1207.01900000001 446.42627 1207.01400000001 446.43127 L 1206.76400000001 445.90002 L 1206.76400000001 445.71252 L 1206.95150000001 444.80627 L 1207.82650000001 444.89997 L 1208.92030000001 445.24372 L 1208.92030000001 445.08747 L 1208.63900000001 444.18122 L 1208.73300000001 442.36872 L 1208.63900000001 441.93122 L 1208.48280000001 439.96247 L 1207.95150000001 437.52497 L 1207.76400000001 437.33747 L 1207.57650000001 436.43122 L 1207.67050000001 435.52497 L 1207.57650000001 435.36872 L 1207.13900000001 434.02497 L 1207.13900000001 433.36872 L 1206.67030000001 433.36872 L 1206.13900000001 433.74372 L 1205.57650000001 433.55622 L 1205.67050000001 434.46247 L 1205.13920000001 434.89997 L 1204.95170000001 435.18122 L 1204.95170000001 436.08747 L 1204.51420000001 436.99372 L 1203.88920000001 437.05622 L 1203.51420000001 436.08747 L 1202.88920000001 436.52497 L 1202.35800000001 434.64997 L 1201.98300000001 433.74372 L 1202.35800000001 432.83747 L 1202.63920000001 432.02497 L 1202.98300000001 431.58747 L 1203.88920000001 431.58747 L 1204.23300000001 431.02497 L 1204.42050000001 431.21247 L 1205.42050000001 431.21247 L 1205.57670000001 430.30622 L 1205.76420000001 430.30622 L 1206.57670000001 429.43122 L 1207.01420000001 428.05622 L 1207.01420000001 427.71247 L 1207.57670000001 427.89997 L 1208.01420000001 427.80627 L 1207.76420000001 427.18127 L 1207.76420000001 426.99377 L 1206.85800000001 426.46252 L 1205.95170000001 426.18127 L 1204.42050000001 426.46252 L 1204.13920000001 426.52502 L 1202.35800000001 426.08752 L 1200.92050000001 426.36877 L 1198.57670000001 426.36877 L 1197.76420000001 426.08752 L 1197.57670000001 426.08752 L 1196.57670000001 425.74377 L 1196.23300000001 425.65007 L 1195.70170000001 425.27507 L 1195.79770000001 425.08757 L 1195.79770000001 424.83757 L 1195.89170000001 424.46257 L 1195.89170000001 424.36887 L 1195.95270000001 424.30637 L 1195.95270000001 424.21267 L 1195.89170000001 423.74392 L 1195.79770000001 423.55642 L 1195.79770000001 423.30642 L 1195.70170000001 423.11892 L 1195.88920000001 422.68142 L 1195.95120000001 422.49392 L 1195.79500000001 422.49392 L 1195.70100000001 422.40022 L 1195.88850000001 422.11897 L 1195.41980000001 421.68147 L 1195.13850000001 421.24397 L 1194.88850000001 421.77522 L 1194.07600000001 422.11897 L 1193.54480000001 422.11897 L 1192.63850000001 421.49397 L 1192.54450000001 420.52522 L 1192.01320000001 420.33772 L 1191.54450000001 420.15022 L 1192.01320000001 420.90022 L 1192.10720000001 421.05647 L 1192.01320000001 421.05647 L 1191.82570000001 421.05647 L 1191.63820000001 420.77522 L 1191.01320000001 420.68152 L 1190.91920000001 420.68152 L 1190.63790000001 420.77522 L 1190.57590000001 420.43147 L 1189.66970000001 419.61897 L 1189.57570000001 419.52527 L 1189.13820000001 419.15027 L 1189.10720000001 419.14827 Z M 1205.7715 480.92773 L 1217.3965 480.92773 L 1217.3965 514.71484 L 1205.7715 514.71484 L 1205.7715 480.92773 Z"/>
    <path id="path42330-6" fill="#3e73c5" fill-opacity="0.42857145" stroke="#000000" stroke-opacity="0.24675323" stroke-linecap="round" stroke-linejoin="round" transform="matrix(1 0 0 1 0.5 1.2670726)" d="M 1107.255 567.39482 L 1117.6469 567.39482 L 1117.6469 582.5839 L 1107.255 582.5839 Z"/>
    <path id="path41489" fill="#8cce55" stroke="#0f380f" stroke-opacity="0.14509804" stroke-linecap="round" stroke-linejoin="round" transform="matrix(1 0 0 1 0.5 1.2670726)" d="M 1116.5993712 570.29022 C 1116.5993712 571.44939455562 1115.65967455562 572.3890912 1114.5005 572.3890912 C 1113.34132544438 572.3890912 1112.4016288 571.44939455562 1112.4016288 570.29022 C 1112.4016288 569.13104544438 1113.34132544438 568.1913488 1114.5005 568.1913488 C 1115.65967455562 568.1913488 1116.5993712 569.13104544438 1116.5993712 570.29022 Z"/>
    <path id="path41489-2" fill="#8cce55" stroke="#0f380f" stroke-opacity="0.14509804" stroke-linecap="round" stroke-linejoin="round" transform="matrix(1 0 0 1 0.5 1.2670726)" d="M 1112.7514712 574.66284 C 1112.7514712 575.82201455562 1111.81177455562 576.7617112 1110.6526 576.7617112 C 1109.49342544438 576.7617112 1108.5537288 575.82201455562 1108.5537288 574.66284 C 1108.5537288 573.50366544438 1109.49342544438 572.5639688 1110.6526 572.5639688 C 1111.81177455562 572.5639688 1112.7514712 573.50366544438 1112.7514712 574.66284 Z"/>
    <path id="path41489-7" fill="#8cce55" stroke="#0f380f" stroke-opacity="0.14509804" stroke-linecap="round" stroke-linejoin="round" transform="matrix(1 0 0 1 0.5 1.2670726)" d="M 1114.8503712 574.13812 C 1114.8503712 575.29729455562 1113.91067455562 576.2369912 1112.7515 576.2369912 C 1111.59232544438 576.2369912 1110.6526288 575.29729455562 1110.6526288 574.13812 C 1110.6526288 572.97894544438 1111.59232544438 572.0392488 1112.7515 572.0392488 C 1113.91067455562 572.0392488 1114.8503712 572.97894544438 1114.8503712 574.13812 Z"/>
    <path id="path81142" fill="#8cce55" stroke="#0f380f" stroke-opacity="0.14509804" stroke-linecap="round" stroke-linejoin="round" transform="matrix(1 0 0 1 0.5 1.2670726)" d="M 1189.0625 419.15625 L 1189.0005 419.3125 L 1188.7817 419.71875 L 1189.5005 419.96875 L 1189.688 420.34375 L 1188.9693 420.6875 L 1188.5943 421.25 L 1188.063 421.59375 L 1187.7817 422.5 L 1189.313 423.84375 L 1189.313 424.125 L 1189.8755 424.65625 L 1190.8443 424.56255 L 1191.938 425.75005 L 1191.6567 426.2813 L 1190.7505 426.2813 L 1190.563 426.1876 L 1189.313 426.1876 L 1189.1255 427.09385 L 1189.1255 427.28135 L 1188.5005 427.71885 L 1188.1567 427.34385 L 1187.688 428.2501 L 1187.782 429.53135 C 1189.0882 430.1426 1188.3563 429.51255 1189.407 430.40635 L 1189.501 430.40635 L 1190.3135 430.50005 L 1190.501 430.50005 L 1190.6885 430.87505 L 1190.6885 431.12505 L 1190.5635 431.12505 L 1190.5635 432.0313 L 1190.6885 432.2188 L 1190.2198 432.6563 L 1189.876 433.56255 L 1190.126 434.0313 L 1190.8448 434.4688 L 1190.9388 434.5625 L 1190.7513 435.1875 L 1191.5638 435.90625 L 1191.3138 436.71875 L 1191.3138 436.81245 L 1191.3758 437.24995 L 1191.5633 438.68745 L 1191.6573 438.78115 L 1191.5633 439.15615 L 1191.8446 439.8749 L 1191.9386 440.1249 L 1192.1886 440.84365 L 1192.1886 441.09365 C 1192.1786 441.09165 1192.1686 441.09165 1192.1576 441.09365 C 1192.1466 441.10165 1192.1346 441.11225 1192.1266 441.12485 L 1192.1266 441.6561 L 1192.2206 442.2186 L 1192.6893 442.74985 L 1193.1268 442.74985 L 1193.5018 441.93735 L 1193.5018 442.93735 L 1194.033 442.37485 L 1194.033 440.4061 L 1194.3768 441.8436 L 1194.3768 440.93735 L 1194.658 440.2186 L 1194.3768 442.0311 L 1194.3768 442.4686 L 1194.658 442.99985 L 1194.8456 442.2186 L 1195.8143 442.37485 L 1195.4706 441.49985 L 1195.8143 439.7811 L 1196.4393 439.49985 L 1195.908 440.4061 L 1196.1893 441.8436 L 1196.8143 441.0311 L 1196.4393 441.8436 L 1197.0956 441.4061 L 1197.533 440.8436 L 1197.3456 441.2186 L 1197.0956 441.4061 L 1196.8143 441.74985 L 1197.0018 442.2186 L 1197.7206 442.4686 L 1198.158 441.2186 L 1198.252 440.49985 L 1198.252 441.4061 L 1199.1582 440.5936 L 1199.1582 439.68735 L 1198.5332 439.4061 L 1198.6895 438.5311 L 1198.1582 438.1561 L 1198.8145 437.3436 L 1198.5332 436.7186 L 1198.8145 436.6249 L 1199.1582 435.71865 L 1198.877 435.46865 L 1197.5332 434.8124 L 1197.6272 434.7499 L 1198.5334 434.9999 L 1198.6274 434.09365 L 1198.8774 434.18735 L 1199.3462 434.0311 L 1199.5962 434.2811 L 1199.7836 434.2811 L 1199.3462 436.7186 L 1199.6899 437.1561 L 1200.0649 438.06235 L 1200.7836 438.9686 L 1201.1274 438.9686 L 1201.7524 438.06235 L 1202.7524 438.06235 L 1203.3774 437.43735 L 1203.4714 438.3436 L 1204.2214 439.24985 L 1204.5964 440.12485 L 1204.9401 440.21855 L 1205.2214 439.96855 L 1205.0338 440.21855 L 1204.9398 441.21855 L 1205.3148 442.21855 L 1205.9398 445.90605 L 1206.8461 447.2498 L 1206.9081 446.4373 C 1206.9181 446.4323 1206.9331 446.4413 1206.9391 446.4373 C 1206.9491 446.4313 1206.9651 446.4423 1206.9701 446.4373 C 1206.9701 446.4323 1206.9601 446.4099 1206.9701 446.4061 L 1206.7201 445.9061 L 1206.7201 445.7186 L 1206.9075 444.81235 L 1207.7825 444.90605 L 1208.8763 445.2498 L 1208.8763 445.09355 L 1208.5951 444.1873 L 1208.6891 442.3748 L 1208.5951 441.9373 L 1208.5641 441.9373 L 1208.4078 439.96855 L 1207.8766 437.53105 L 1207.7204 437.34355 L 1207.6894 437.34355 L 1207.5019 436.4373 L 1207.5959 435.53105 L 1207.5019 435.3748 L 1207.0644 434.03105 L 1207.0644 433.3748 L 1206.5957 433.3748 L 1206.0957 433.7498 L 1205.5331 433.5623 L 1205.6271 434.46855 L 1205.5961 434.46855 L 1205.0961 434.90605 L 1204.9085 435.1873 L 1204.9085 436.09355 L 1204.4711 436.9998 L 1204.4401 436.9998 L 1203.8464 437.0623 L 1203.8154 437.0623 L 1203.4404 436.1248 L 1202.8467 436.53105 L 1202.8157 436.53105 L 1202.2844 434.65605 L 1201.9094 433.7498 L 1202.2844 432.84355 L 1202.5657 432.03105 L 1202.9094 431.59355 L 1202.9404 431.59355 L 1203.8154 431.59355 L 1204.1591 431.03105 L 1204.1901 431.06225 L 1204.3464 431.2185 L 1204.3774 431.2185 L 1205.3462 431.2185 L 1205.5024 430.31225 L 1205.5334 430.31225 L 1205.6897 430.31225 L 1206.5022 429.43725 L 1206.9397 428.06225 L 1206.9397 427.7185 L 1206.9707 427.7185 L 1207.5331 427.906 L 1207.9394 427.8123 L 1207.6894 427.1873 L 1207.6894 426.9998 L 1206.8144 426.46855 L 1206.7834 426.46855 L 1205.8772 426.1873 L 1204.346 426.46855 L 1204.096 426.53105 L 1202.3147 426.09355 L 1202.2837 426.09355 L 1200.8463 426.3748 L 1198.5337 426.3748 L 1198.5027 426.3748 L 1197.7215 426.09355 L 1197.6905 426.09355 L 1197.5342 426.09355 L 1197.5032 426.09355 L 1196.5344 425.7498 L 1196.5034 425.7498 L 1196.1909 425.6561 L 1196.1599 425.6561 L 1195.6599 425.2811 L 1195.6289 425.2811 L 1195.7229 425.0936 L 1195.7229 424.8436 L 1195.8169 424.4686 L 1195.8169 424.3749 L 1195.8479 424.3749 L 1195.8789 424.3124 L 1195.8789 424.2187 L 1195.8169 423.74995 L 1195.7229 423.56245 L 1195.7229 423.31245 L 1195.6289 423.12495 L 1195.8164 422.68745 L 1195.8784 422.49995 L 1195.7534 422.49995 L 1195.7224 422.49995 L 1195.6594 422.40625 L 1195.6284 422.40625 L 1195.8159 422.125 L 1195.3784 421.6875 L 1195.3474 421.6875 L 1195.0974 421.28125 L 1194.8474 421.78125 L 1194.8164 421.78125 L 1194.0039 422.125 L 1193.5039 422.125 L 1193.4729 422.125 L 1192.5979 421.5 L 1192.5669 421.5 L 1192.4729 420.53125 L 1191.9729 420.34375 L 1191.5041 420.15625 L 1191.9729 420.90625 L 1192.0669 421.0625 L 1192.0359 421.0625 L 1191.7859 421.0625 L 1191.7549 421.0625 L 1191.5674 420.78125 L 1190.9737 420.68755 L 1190.9427 420.68755 L 1190.8487 420.68755 L 1190.5987 420.78125 L 1190.5677 420.78125 L 1190.5057 420.4375 L 1189.6307 419.625 L 1189.5997 419.625 L 1189.5367 419.5313 L 1189.5057 419.5313 L 1189.0995 419.1563 L 1189.0685 419.1563 L 1189.0585 419.15625 Z"/>
    <path id="path81144" fill="#8cce55" stroke="#0f380f" stroke-opacity="0.14509804" stroke-linecap="round" stroke-linejoin="round" transform="matrix(1 0 0 1 0.5 1.2670726)" d="M 1196.5938 410.6875 L 1194.8125 411.5 L 1194.4375 411.875 L 1194.3435 411.9687 L 1193.5309 413.0312 L 1192.5622 414.2812 L 1191.7497 415.18745 L 1191.7497 415.37495 L 1191.6557 415.56245 L 1191.5617 415.74995 L 1190.843 416.5312 L 1191.3742 417.43745 L 1191.9367 417.5937 L 1192.093 417.6249 L 1192.9992 418.15615 L 1193.6242 417.9999 L 1194.6867 418.34365 L 1194.8742 418.43735 L 1195.7804 418.7811 L 1195.8744 418.7186 L 1196.0619 418.6249 L 1197.0619 418.6249 L 1197.9369 417.9999 L 1198.8432 418.0624 L 1200.0932 418.4374 L 1200.9994 418.3437 L 1201.0934 418.3437 L 1201.6246 418.1562 L 1202.5308 418.43745 L 1203.4371 417.9062 L 1204.4996 418.24995 L 1205.3121 418.24995 L 1206.2184 417.99995 L 1206.4058 417.7187 L 1205.9371 416.4687 L 1206.3121 415.6562 L 1205.4058 415.0312 L 1204.3434 414.8437 L 1204.0621 414.37495 L 1204.2496 413.49995 L 1204.3436 412.5937 L 1203.4373 412.31245 L 1203.2498 412.31245 L 1202.2498 411.87495 L 1201.3748 412.4062 L 1201.2808 412.4062 L 1200.9996 412.12495 L 1199.1871 411.9687 L 1198.7496 411.9687 L 1198.2184 411.875 L 1198.0308 410.96875 L 1197.1246 410.6875 L 1196.5934 410.6875 Z"/>
    <path id="path82361" fill="#3e73c5" fill-opacity="0.42857145" stroke="#000000" stroke-opacity="0.24675323" stroke-linecap="round" stroke-linejoin="round" transform="matrix(1 0 0 1 0.5 1.2670726)" d="M 1161.812 -0.75955551 L 1161.812 42.396444 L 1231.208 42.396444 L 1231.208 -0.75955551 Z"/>
    <path id="path81089-4-0" fill="#3e73c5" fill-opacity="0.42857145" stroke="#000000" stroke-opacity="0.24675323" stroke-linecap="round" stroke-linejoin="round" transform="matrix(1 0 0 1 0.5 1.2670726)" d="M 1107.285 258.75623 L 1106.251 258.76423 L 1106.2513 258.76426 L 1106.4388 257.88926 L 1107.3138 257.07676 L 1106.4388 256.70176 L 1106.7825 255.79551 L 1106.7825 255.26426 L 1107.7825 254.82676 L 1108.0638 253.92051 L 1107.6888 253.45176 L 1107.5948 253.29551 L 1107.9698 252.38926 L 1107.501 251.48301 L 1108.4072 251.29551 L 1108.9385 250.85801 L 1108.7822 249.85801 L 1109.751 250.04551 L 1110.751 249.85801 L 1111.6572 249.13926 L 1111.6572 248.95176 L 1111.126 248.07676 L 1110.2198 247.45176 L 1109.2198 246.63926 L 1109.0322 246.54556 L 1108.5948 245.63931 L 1107.6885 245.82681 L 1107.1572 246.70181 L 1106.7822 246.17056 L 1106.0635 245.82681 L 1106.3448 244.92056 L 1106.876 244.01431 L 1106.626 244.10801 L 1106.532 243.48301 L 1106.1258 242.85801 L 1105.8758 242.48301 L 1105.9698 242.38931 L 1105.9698 242.23306 L 1105.8758 241.67056 L 1106.4383 240.70181 L 1106.8758 239.70181 L 1107.3133 238.79556 L 1107.8758 237.79556 L 1108.782 237.73306 L 1108.9383 237.88931 L 1109.8446 238.60806 L 1109.5633 239.51431 L 1109.6883 240.51431 L 1110.5633 240.76431 L 1110.8446 240.76431 L 1111.7508 240.60806 L 1112.7196 240.51436 L 1113.6258 240.95186 L 1114.6258 241.13936 L 1115.6258 241.23306 L 1116.5946 241.23306 L 1117.5008 241.04556 L 1117.5008 240.70181 L 1118.407 240.32681 L 1121.2508 240.32681 L 1121.2508 240.38931 L 1122.1883 240.38931 L 1122.3758 240.42051 L 1123.3446 240.42051 C 1123.8548 240.12813 1124.3029 239.85119 1124.7196 239.57676 C 1125.001 239.39423 1125.2108 239.2556 1125.407 239.10801 C 1125.45 239.07691 1125.49 239.04541 1125.532 239.01431 C 1125.6917 238.8912 1126.0666 238.6039 1126.2508 238.45181 C 1126.515 238.23557 1126.7537 238.02259 1127.0008 237.79556 L 1127.5633 237.37471 L 1127.7508 237.06221 L 1127.8448 236.93721 L 1130.1885 234.49971 L 1130.0945 233.59346 L 1131.4382 231.62471 L 1132.8757 230.81221 L 1133.7819 230.81221 L 1134.6882 230.53096 L 1135.0632 229.53096 L 1135.1252 227.65596 L 1134.969 226.84346 L 1135.594 225.93721 L 1135.1252 225.31221 L 1135.594 224.31221 L 1136.5627 223.59346 L 1136.219 222.71846 L 1136.6564 222.71846 L 1136.6564 222.62476 L 1136.844 221.71851 L 1137.1877 221.81221 L 1137.5627 221.90591 L 1138.1877 221.99961 L 1139.0002 221.90591 L 1140.9064 222.34341 L 1141.8127 222.06216 L 1142.6877 222.24966 L 1143.0627 222.24966 L 1143.9377 221.90591 L 1144.9377 222.24966 L 1145.844 221.90591 L 1146.7502 221.99961 L 1147.0002 222.15586 L 1147.469 223.15586 L 1148.3752 222.87461 L 1150.2502 222.96831 L 1151.1564 223.06201 L 1152.0627 222.43701 L 1153.9377 222.24951 L 1154.9377 222.43701 L 1155.9377 223.24951 L 1156.8127 223.34321 L 1158.8127 223.15571 L 1159.7814 223.78071 L 1160.6877 223.78071 L 1161.3127 222.78071 L 1163.5627 221.18696 L 1164.469 220.62446 L 1166.5314 220.37446 L 1168.0002 221.43696 L 1168.8752 221.90571 L 1169.969 221.71821 L 1172.0749 224.62457 L 1171.2453 227.77325 L 1174.8917 228.33329 L 1180.6713 227.94465 L 1182.6106 228.37867 L 1183.5147 229.76266 L 1184.9422 230.07469 L 1186.6501 232.57155 L 1189.9016 232.38286 L 1190.9049 234.20333 L 1189.1226 235.21491 L 1187.186 237.51845 L 1187.263 239.44715 L 1187.7746 240.57276 L 1191.3829 241.64807 L 1193.3365 241.68577 L 1193.6934 243.75264 L 1192.5979 244.03153 L 1190.7301 246.17525 L 1189.53 246.96766 L 1190.608 247.30489 L 1190.4581 248.14973 L 1189.8053 249.02068 L 1190.3957 249.19471 L 1190.7665 249.88106 L 1189.6486 250.47332 L 1190.0301 251.57927 L 1191.9593 252.54308 L 1193.8883 255.25334 L 1190.5376 257.55345 L 1189.2087 259.38033 L 1190.5549 261.93952 L 1189.9607 262.67967 L 1189.8079 263.92571 L 1188.8958 264.66568 L 1189.6472 265.63096 L 1190.8212 264.86483 L 1191.9718 265.43832 L 1192.7127 265.17797 L 1192.7227 266.62092 L 1191.6535 266.90889 L 1193.0313 268.32799 L 1191.2596 269.9109 L 1190.7698 271.49994 L 1191.5216 271.58084 L 1192.2001 272.28573 L 1191.4194 274.04323 L 1193.0424 274.81947 L 1191.9102 275.5361 L 1192.4339 276.17378 L 1190.8428 278.30129 L 1188.8076 279.03437 L 1188.2849 279.63641 L 1187.5578 279.56721 L 1186.7199 281.09692 L 1187.8154 281.38795 L 1186.6995 282.74828 L 1187.7311 283.35489 L 1189.3471 284.08526 L 1190.5205 282.64595 L 1190.1737 283.97265 L 1191.005 283.2959 L 1191.8837 283.5452 L 1191.8467 285.75457 L 1195.9139 289.27143 L 1194.4859 289.23993 L 1194.9811 290.06549 L 1193.555 290.53181 L 1194.728 292.88445 L 1194.345 294.26307 L 1194.447 295.54703 L 1192.223 296.74366 L 1190.0657 297.47789 L 1188.9783 297.62266 L 1188.5839 298.63494 L 1186.158 299.01145 L 1186.3084 297.09257 L 1183.374 297.49955 L 1183.374 297.49956 L 1182.4675 297.65581 L 1181.4675 298.31206 C 1182.8606 301.15204 1178.7687 301.74955 1176.8737 301.99956 L 1176.0612 304.06206 L 1176.0612 304.24956 L 1175.9992 304.40581 L 1176.2492 306.21831 L 1176.2492 307.21831 L 1176.6242 308.09331 L 1175.9992 309.37456 L 1173.3742 310.62456 L 1172.468 311.06206 L 1172.0304 310.18706 L 1171.1242 310.28076 L 1170.218 310.09326 L 1169.3117 310.28076 L 1168.7804 310.18706 L 1166.9054 309.81206 L 1165.9992 309.28081 L 1164.9992 308.81206 L 1164.1867 309.71831 L 1164.0304 310.71831 L 1163.843 310.99956 L 1163.4992 311.81206 L 1163.0304 313.15581 L 1162.1242 314.93706 L 1162.0302 315.93706 L 1161.7802 316.84331 L 1160.9678 318.37456 L 1160.9678 318.53081 L 1161.874 318.90581 L 1162.5615 319.90581 L 1162.4052 320.34331 L 1162.4052 320.53081 L 1162.2178 320.71831 L 1160.4365 320.43706 L 1159.5302 320.78081 L 1158.624 319.99956 L 1157.7178 319.81206 L 1156.999 320.06206 L 1154.2178 320.96831 L 1153.499 320.87461 L 1151.6865 321.43712 L 1150.6865 321.53082 L 1150.4365 321.68707 L 1150.249 321.78077 L 1150.249 322.87452 L 1150.5302 322.87452 L 1151.4365 322.68702 L 1152.3115 323.03077 L 1151.9678 323.78077 L 1151.9678 326.37452 L 1152.7802 328.43702 L 1153.5928 330.24952 L 1153.3115 331.24952 L 1154.0302 332.12452 L 1153.124 332.31202 L 1152.4052 332.68702 L 1152.9365 333.56202 L 1152.8745 333.65572 L 1151.9683 334.03072 L 1151.437 334.03072 L 1151.062 334.93697 L 1151.437 336.71822 L 1151.499 336.90572 L 1151.3428 337.53072 L 1151.3428 337.50062 L 1151.2488 338.40687 L 1150.2488 338.40687 L 1149.3426 339.12562 L 1147.7488 339.75062 L 1146.8426 339.93812 L 1144.8426 340.93812 L 1143.0613 341.81312 L 1142.6863 342.53187 L 1142.5923 342.62557 L 1142.061 343.18807 L 1141.1547 343.90682 L 1140.2485 343.71932 L 1139.3735 344.06307 L 1138.4673 344.15677 L 1136.7485 343.96927 L 1135.8423 343.96927 C 1135.121 345.02521 1134.7555 345.71377 1134.5297 346.18802 C 1134.5297 346.19402 1134.5298 346.21322 1134.5297 346.21922 C 1134.426 346.4404 1134.3427 346.616 1134.2797 346.75047 C 1134.2797 346.75747 1134.2798 346.77467 1134.2797 346.78167 C 1134.2207 346.90696 1134.1563 346.99092 1134.0923 347.06292 C 1134.0193 347.14962 1133.9455 347.20012 1133.811 347.25042 C 1133.6865 347.29772 1133.5106 347.35687 1133.2797 347.40667 C 1133.0493 347.45607 1132.7615 347.50927 1132.3735 347.59417 C 1131.9454 347.68547 1131.6434 347.74792 1130.9047 347.93792 L 1129.9985 346.87542 L 1129.1235 346.40667 L 1128.936 346.50037 L 1128.0297 347.12537 L 1127.0297 347.03167 L 1126.311 346.87542 L 1126.217 347.12542 L 1126.592 347.75042 L 1125.6857 347.93792 L 1124.7794 348.65667 L 1124.1544 349.03167 L 1123.2482 349.03167 L 1122.2482 349.65667 L 1121.717 350.65667 L 1122.092 351.53167 L 1120.8089 352.63884 L 1117.3209 353.11284 L 1114.9709 353.22284 L 1114.2169 354.21784 L 1113.7339 353.93784 L 1111.9359 353.57084 L 1111.6859 352.63284 L 1110.8219 352.56484 L 1110.5589 351.95484 L 1108.4399 352.90784 L 1104.3059 352.00384 L 1100.4489 352.16184 L 1100.5579 349.84284 L 1101.0189 349.90584 L 1101.6649 348.91184 L 1103.6179 348.59784 L 1106.2439 349.65884 L 1106.1639 350.08584 L 1108.5019 348.19084 L 1110.2079 348.14584 L 1111.4719 348.74384 L 1113.0959 348.14684 L 1113.3799 347.72384 L 1114.1109 347.26684 L 1114.9109 347.53884 L 1114.8199 346.32484 L 1115.7109 346.80484 L 1116.1239 346.74784 L 1117.9829 345.58384 L 1118.1479 345.03684 L 1115.7289 344.85984 L 1115.5169 344.40384 L 1114.4399 344.02084 L 1113.8749 344.13584 L 1113.6299 343.12184 L 1112.7369 343.01584 L 1111.7959 341.60384 L 1111.1369 341.55884 L 1111.0459 342.33884 L 1110.3699 342.31984 L 1110.2119 343.40284 L 1107.3089 342.73584 L 1106.8279 341.61384 L 1105.7279 341.78984 L 1104.7079 340.85584 L 1108.124 337.31307 L 1108.124 337.34287 L 1107.3114 337.62445 L 1106.7801 338.5307 L 1105.8739 338.1557 L 1105.6239 338.2494 L 1104.8114 339.15565 L 1103.9051 339.8744 L 1102.0301 340.59315 L 1101.3114 341.03065 L 1100.8427 341.4994 L 1100.0301 341.7494 L 1099.5927 342.65565 L 1098.4364 343.65565 L 1097.9677 344.1869 L 1097.6239 344.46815 L 1097.2489 344.9994 L 1097.3429 345.1869 L 1097.3429 345.2806 L 1097.6241 346.24935 L 1096.6241 346.24935 L 1095.8116 345.9056 L 1095.6241 345.8119 L 1094.6241 345.1869 C 1095.2993 344.73687 1095.3043 344.55441 1095.2803 343.84315 L 1094.2803 343.1244 L 1094.1863 343.1244 L 1094.0923 343.2181 L 1093.186 343.1244 L 1090.8735 343.3744 L 1088.8735 343.2807 L 1088.436 342.31195 L 1087.9985 340.4057 L 1087.8735 339.43695 L 1086.9047 338.62445 L 1085.9985 338.62445 L 1085.4673 338.1557 L 1085.6235 336.2807 L 1085.811 335.2807 L 1085.811 334.37445 L 1085.905 333.49945 L 1084.9363 333.56195 L 1083.9363 332.68695 L 1083.4988 331.7807 L 1082.5926 330.87445 L 1081.6863 330.24945 L 1080.8738 329.3432 L 1080.6863 329.2495 L 1079.8113 329.1558 L 1078.8113 329.62455 L 1077.8113 329.87455 L 1076.905 329.87455 C 1072.4331 329.29954 1071.3338 329.50455 1066.9363 330.3433 C 1065.7938 328.98578 1064.1263 327.5033 1062.8738 326.18705 L 1062.6863 325.74955 L 1061.8738 324.74955 L 1060.9988 324.2183 L 1059.8113 323.5933 L 1057.5613 322.24955 C 1056.4063 321.69828 1055.4088 320.87829 1054.2488 320.34329 C 1053.6531 320.13484 1051.5439 318.58752 1050.9988 318.46829 C 1051.2696 317.98771 1050.9748 317.92938 1051.2176 317.49954 L 1051.2176 317.21829 L 1051.405 317.06204 L 1051.5926 316.87454 L 1051.78 316.68704 C 1052.2429 316.14581 1052.4076 316.50354 1052.6863 316.49954 L 1052.6863 316.34329 L 1052.7483 316.24959 L 1052.8423 316.24959 L 1052.9363 316.34329 L 1053.2176 316.34329 C 1053.7105 315.4158 1055.2637 313.71954 1055.9676 312.84329 L 1056.9676 311.84329 L 1057.8738 311.12454 L 1058.0613 310.93704 L 1059.03 310.59329 L 1059.5613 309.68704 L 1059.5613 309.59334 L 1059.7488 308.59334 L 1060.655 308.87459 L 1061.5613 308.96829 L 1062.4676 308.68704 L 1062.6238 308.34329 L 1062.9988 307.43704 L 1063.4363 306.53079 L 1063.905 305.53079 L 1064.53 305.37454 L 1065.4363 305.28084 L 1066.4363 305.28084 L 1067.405 305.81209 L 1068.03 306.62459 L 1068.9363 307.24959 L 1069.8426 308.15584 L 1070.1238 309.06209 L 1070.8426 309.24959 L 1072.6863 307.93709 L 1076.4676 305.59334 L 1077.4363 304.87459 L 1077.1863 304.68709 L 1076.0926 303.34334 L 1075.5613 302.34334 L 1074.8426 301.43709 L 1074.2176 301.18709 L 1071.9676 300.18709 L 1071.8736 300.18709 L 1071.9676 299.28084 L 1070.2488 298.84334 L 1070.0613 298.74964 L 1069.3426 298.12464 L 1068.9988 297.21839 L 1068.8113 297.21839 L 1068.9988 296.21839 L 1068.1863 295.34339 L 1068.905 294.53089 L 1070.155 292.62464 L 1071.0613 292.53094 L 1071.1553 292.28094 L 1069.9991 290.46844 L 1069.3429 289.74969 L 1068.6241 287.93719 L 1067.7491 287.93719 L 1068.6241 287.06219 L 1068.8116 287.06219 L 1067.8116 286.34344 L 1067.6553 285.34344 L 1066.7491 285.62469 L 1066.3741 285.06219 L 1064.5449 285.92271 L 1057.3777 282.15118 L 1057.0755 281.32327 L 1059.9587 280.45922 L 1061.576 279.40578 L 1060.0773 277.29887 L 1061.6928 275.48392 L 1063.5582 275.18175 L 1065.8597 275.6123 L 1066.5721 274.89188 L 1062.7132 273.52557 L 1062.6362 272.25047 L 1063.3921 272.34617 L 1063.6576 271.78245 L 1061.0221 271.16116 L 1061.7732 271.15216 L 1062.514 270.1699 L 1061.5238 269.52913 L 1063.5208 268.45675 L 1064.1235 268.80252 L 1067.7313 268.85212 L 1068.4124 269.64813 L 1069.0203 268.41142 L 1076.9183 266.67598 L 1080.8611 266.88079 L 1080.9221 265.59771 L 1082.2003 264.77867 L 1085.2765 264.79387 L 1090.8237 263.38659 L 1094.926 262.66945 L 1096.662 261.19001 L 1097.3036 260.26421 L 1101.8535 260.29711 L 1103.9977 261.40801 L 1105.132 260.47841 L 1106.7939 260.55881 Z"/>
    <path id="path81089-4-6" fill="#8cce55" stroke="#0f380f" stroke-opacity="0.14509804" stroke-linecap="round" stroke-linejoin="round" transform="matrix(1 0 0 1 0.5 1.2670726)" d="M 1107.285 258.75623 L 1106.251 258.76423 L 1106.2513 258.76426 L 1106.4388 257.88926 L 1107.3138 257.07676 L 1106.4388 256.70176 L 1106.7825 255.79551 L 1106.7825 255.26426 L 1107.7825 254.82676 L 1108.0638 253.92051 L 1107.6888 253.45176 L 1107.5948 253.29551 L 1107.9698 252.38926 L 1107.501 251.48301 L 1108.4072 251.29551 L 1108.9385 250.85801 L 1108.7822 249.85801 L 1109.751 250.04551 L 1110.751 249.85801 L 1111.6572 249.13926 L 1111.6572 248.95176 L 1111.126 248.07676 L 1110.2198 247.45176 L 1109.2198 246.63926 L 1109.0322 246.54556 L 1108.5948 245.63931 L 1107.6885 245.82681 L 1107.1572 246.70181 L 1106.7822 246.17056 L 1106.0635 245.82681 L 1106.3448 244.92056 L 1106.876 244.01431 L 1106.626 244.10801 L 1106.532 243.48301 L 1106.1258 242.85801 L 1105.8758 242.48301 L 1105.9698 242.38931 L 1105.9698 242.23306 L 1105.8758 241.67056 L 1106.4383 240.70181 L 1106.8758 239.70181 L 1107.3133 238.79556 L 1107.8758 237.79556 L 1108.782 237.73306 L 1108.9383 237.88931 L 1109.8446 238.60806 L 1109.5633 239.51431 L 1109.6883 240.51431 L 1110.5633 240.76431 L 1110.8446 240.76431 L 1111.7508 240.60806 L 1112.7196 240.51436 L 1113.6258 240.95186 L 1114.6258 241.13936 L 1115.6258 241.23306 L 1116.5946 241.23306 L 1117.5008 241.04556 L 1117.5008 240.70181 L 1118.407 240.32681 L 1121.2508 240.32681 L 1121.2508 240.38931 L 1122.1883 240.38931 L 1122.3758 240.42051 L 1123.3446 240.42051 C 1123.8548 240.12813 1124.3029 239.85119 1124.7196 239.57676 C 1125.001 239.39423 1125.2108 239.2556 1125.407 239.10801 C 1125.45 239.07691 1125.49 239.04541 1125.532 239.01431 C 1125.6917 238.8912 1126.0666 238.6039 1126.2508 238.45181 C 1126.515 238.23557 1126.7537 238.02259 1127.0008 237.79556 L 1127.5633 237.37471 L 1127.7508 237.06221 L 1127.8448 236.93721 L 1130.1885 234.49971 L 1130.0945 233.59346 L 1131.4382 231.62471 L 1132.8757 230.81221 L 1133.7819 230.81221 L 1134.6882 230.53096 L 1135.0632 229.53096 L 1135.1252 227.65596 L 1134.969 226.84346 L 1135.594 225.93721 L 1135.1252 225.31221 L 1135.594 224.31221 L 1136.5627 223.59346 L 1136.219 222.71846 L 1136.6564 222.71846 L 1136.6564 222.62476 L 1136.844 221.71851 L 1137.1877 221.81221 L 1137.5627 221.90591 L 1138.1877 221.99961 L 1139.0002 221.90591 L 1140.9064 222.34341 L 1141.8127 222.06216 L 1142.6877 222.24966 L 1143.0627 222.24966 L 1143.9377 221.90591 L 1144.9377 222.24966 L 1145.844 221.90591 L 1146.7502 221.99961 L 1147.0002 222.15586 L 1147.469 223.15586 L 1148.3752 222.87461 L 1150.2502 222.96831 L 1151.1564 223.06201 L 1152.0627 222.43701 L 1153.9377 222.24951 L 1154.9377 222.43701 L 1155.9377 223.24951 L 1156.8127 223.34321 L 1158.8127 223.15571 L 1159.7814 223.78071 L 1160.6877 223.78071 L 1161.3127 222.78071 L 1163.5627 221.18696 L 1164.469 220.62446 L 1166.5314 220.37446 L 1168.0002 221.43696 L 1168.8752 221.90571 L 1169.969 221.71821 L 1172.0749 224.62457 L 1171.2453 227.77325 L 1174.8917 228.33329 L 1180.6713 227.94465 L 1182.6106 228.37867 L 1183.5147 229.76266 L 1184.9422 230.07469 L 1186.6501 232.57155 L 1189.9016 232.38286 L 1190.9049 234.20333 L 1189.1226 235.21491 L 1187.186 237.51845 L 1187.263 239.44715 L 1187.7746 240.57276 L 1191.3829 241.64807 L 1193.3365 241.68577 L 1193.6934 243.75264 L 1192.5979 244.03153 L 1190.7301 246.17525 L 1189.53 246.96766 L 1190.608 247.30489 L 1190.4581 248.14973 L 1189.8053 249.02068 L 1190.3957 249.19471 L 1190.7665 249.88106 L 1189.6486 250.47332 L 1190.0301 251.57927 L 1191.9593 252.54308 L 1193.8883 255.25334 L 1190.5376 257.55345 L 1189.2087 259.38033 L 1190.5549 261.93952 L 1189.9607 262.67967 L 1189.8079 263.92571 L 1188.8958 264.66568 L 1189.6472 265.63096 L 1190.8212 264.86483 L 1191.9718 265.43832 L 1192.7127 265.17797 L 1192.7227 266.62092 L 1191.6535 266.90889 L 1193.0313 268.32799 L 1191.2596 269.9109 L 1190.7698 271.49994 L 1191.5216 271.58084 L 1192.2001 272.28573 L 1191.4194 274.04323 L 1193.0424 274.81947 L 1191.9102 275.5361 L 1192.4339 276.17378 L 1190.8428 278.30129 L 1188.8076 279.03437 L 1188.2849 279.63641 L 1187.5578 279.56721 L 1186.7199 281.09692 L 1187.8154 281.38795 L 1186.6995 282.74828 L 1187.7311 283.35489 L 1189.3471 284.08526 L 1190.5205 282.64595 L 1190.1737 283.97265 L 1191.005 283.2959 L 1191.8837 283.5452 L 1191.8467 285.75457 L 1195.9139 289.27143 L 1194.4859 289.23993 L 1194.9811 290.06549 L 1193.555 290.53181 L 1194.728 292.88445 L 1194.345 294.26307 L 1194.447 295.54703 L 1192.223 296.74366 L 1190.0657 297.47789 L 1188.9783 297.62266 L 1188.5839 298.63494 L 1186.158 299.01145 L 1186.3084 297.09257 L 1183.374 297.49955 L 1183.374 297.49956 L 1182.4675 297.65581 L 1181.4675 298.31206 C 1182.8606 301.15204 1178.7687 301.74955 1176.8737 301.99956 L 1176.0612 304.06206 L 1176.0612 304.24956 L 1175.9992 304.40581 L 1176.2492 306.21831 L 1176.2492 307.21831 L 1176.6242 308.09331 L 1175.9992 309.37456 L 1173.3742 310.62456 L 1172.468 311.06206 L 1172.0304 310.18706 L 1171.1242 310.28076 L 1170.218 310.09326 L 1169.3117 310.28076 L 1168.7804 310.18706 L 1166.9054 309.81206 L 1165.9992 309.28081 L 1164.9992 308.81206 L 1164.1867 309.71831 L 1164.0304 310.71831 L 1163.843 310.99956 L 1163.4992 311.81206 L 1163.0304 313.15581 L 1162.1242 314.93706 L 1162.0302 315.93706 L 1161.7802 316.84331 L 1160.9678 318.37456 L 1160.9678 318.53081 L 1161.874 318.90581 L 1162.5615 319.90581 L 1162.4052 320.34331 L 1162.4052 320.53081 L 1162.2178 320.71831 L 1160.4365 320.43706 L 1159.5302 320.78081 L 1158.624 319.99956 L 1157.7178 319.81206 L 1156.999 320.06206 L 1154.2178 320.96831 L 1153.499 320.87461 L 1151.6865 321.43712 L 1150.6865 321.53082 L 1150.4365 321.68707 L 1150.249 321.78077 L 1150.249 322.87452 L 1150.5302 322.87452 L 1151.4365 322.68702 L 1152.3115 323.03077 L 1151.9678 323.78077 L 1151.9678 326.37452 L 1152.7802 328.43702 L 1153.5928 330.24952 L 1153.3115 331.24952 L 1154.0302 332.12452 L 1153.124 332.31202 L 1152.4052 332.68702 L 1152.9365 333.56202 L 1152.8745 333.65572 L 1151.9683 334.03072 L 1151.437 334.03072 L 1151.062 334.93697 L 1151.437 336.71822 L 1151.499 336.90572 L 1151.3428 337.53072 L 1151.3428 337.50062 L 1151.2488 338.40687 L 1150.2488 338.40687 L 1149.3426 339.12562 L 1147.7488 339.75062 L 1146.8426 339.93812 L 1144.8426 340.93812 L 1143.0613 341.81312 L 1142.6863 342.53187 L 1142.5923 342.62557 L 1142.061 343.18807 L 1141.1547 343.90682 L 1140.2485 343.71932 L 1139.3735 344.06307 L 1138.4673 344.15677 L 1136.7485 343.96927 L 1135.8423 343.96927 C 1135.121 345.02521 1134.7555 345.71377 1134.5297 346.18802 C 1134.5297 346.19402 1134.5298 346.21322 1134.5297 346.21922 C 1134.426 346.4404 1134.3427 346.616 1134.2797 346.75047 C 1134.2797 346.75747 1134.2798 346.77467 1134.2797 346.78167 C 1134.2207 346.90696 1134.1563 346.99092 1134.0923 347.06292 C 1134.0193 347.14962 1133.9455 347.20012 1133.811 347.25042 C 1133.6865 347.29772 1133.5106 347.35687 1133.2797 347.40667 C 1133.0493 347.45607 1132.7615 347.50927 1132.3735 347.59417 C 1131.9454 347.68547 1131.6434 347.74792 1130.9047 347.93792 L 1129.9985 346.87542 L 1129.1235 346.40667 L 1128.936 346.50037 L 1128.0297 347.12537 L 1127.0297 347.03167 L 1126.311 346.87542 L 1126.217 347.12542 L 1126.592 347.75042 L 1125.6857 347.93792 L 1124.7794 348.65667 L 1124.1544 349.03167 L 1123.2482 349.03167 L 1122.2482 349.65667 L 1121.717 350.65667 L 1122.092 351.53167 L 1120.8089 352.63884 L 1117.3209 353.11284 L 1114.9709 353.22284 L 1114.2169 354.21784 L 1113.7339 353.93784 L 1111.9359 353.57084 L 1111.6859 352.63284 L 1110.8219 352.56484 L 1110.5589 351.95484 L 1108.4399 352.90784 L 1104.3059 352.00384 L 1100.4489 352.16184 L 1100.5579 349.84284 L 1101.0189 349.90584 L 1101.6649 348.91184 L 1103.6179 348.59784 L 1106.2439 349.65884 L 1106.1639 350.08584 L 1108.5019 348.19084 L 1110.2079 348.14584 L 1111.4719 348.74384 L 1113.0959 348.14684 L 1113.3799 347.72384 L 1114.1109 347.26684 L 1114.9109 347.53884 L 1114.8199 346.32484 L 1115.7109 346.80484 L 1116.1239 346.74784 L 1117.9829 345.58384 L 1118.1479 345.03684 L 1115.7289 344.85984 L 1115.5169 344.40384 L 1114.4399 344.02084 L 1113.8749 344.13584 L 1113.6299 343.12184 L 1112.7369 343.01584 L 1111.7959 341.60384 L 1111.1369 341.55884 L 1111.0459 342.33884 L 1110.3699 342.31984 L 1110.2119 343.40284 L 1107.3089 342.73584 L 1106.8279 341.61384 L 1105.7279 341.78984 L 1104.7079 340.85584 L 1108.124 337.31307 L 1108.124 337.34287 L 1107.3114 337.62445 L 1106.7801 338.5307 L 1105.8739 338.1557 L 1105.6239 338.2494 L 1104.8114 339.15565 L 1103.9051 339.8744 L 1102.0301 340.59315 L 1101.3114 341.03065 L 1100.8427 341.4994 L 1100.0301 341.7494 L 1099.5927 342.65565 L 1098.4364 343.65565 L 1097.9677 344.1869 L 1097.6239 344.46815 L 1097.2489 344.9994 L 1097.3429 345.1869 L 1097.3429 345.2806 L 1097.6241 346.24935 L 1096.6241 346.24935 L 1095.8116 345.9056 L 1095.6241 345.8119 L 1094.6241 345.1869 C 1095.2993 344.73687 1095.3043 344.55441 1095.2803 343.84315 L 1094.2803 343.1244 L 1094.1863 343.1244 L 1094.0923 343.2181 L 1093.186 343.1244 L 1090.8735 343.3744 L 1088.8735 343.2807 L 1088.436 342.31195 L 1087.9985 340.4057 L 1087.8735 339.43695 L 1086.9047 338.62445 L 1085.9985 338.62445 L 1085.4673 338.1557 L 1085.6235 336.2807 L 1085.811 335.2807 L 1085.811 334.37445 L 1085.905 333.49945 L 1084.9363 333.56195 L 1083.9363 332.68695 L 1083.4988 331.7807 L 1082.5926 330.87445 L 1081.6863 330.24945 L 1080.8738 329.3432 L 1080.6863 329.2495 L 1079.8113 329.1558 L 1078.8113 329.62455 L 1077.8113 329.87455 L 1076.905 329.87455 C 1072.4331 329.29954 1071.3338 329.50455 1066.9363 330.3433 C 1065.7938 328.98578 1064.1263 327.5033 1062.8738 326.18705 L 1062.6863 325.74955 L 1061.8738 324.74955 L 1060.9988 324.2183 L 1059.8113 323.5933 L 1057.5613 322.24955 C 1056.4063 321.69828 1055.4088 320.87829 1054.2488 320.34329 C 1053.6531 320.13484 1051.5439 318.58752 1050.9988 318.46829 C 1051.2696 317.98771 1050.9748 317.92938 1051.2176 317.49954 L 1051.2176 317.21829 L 1051.405 317.06204 L 1051.5926 316.87454 L 1051.78 316.68704 C 1052.2429 316.14581 1052.4076 316.50354 1052.6863 316.49954 L 1052.6863 316.34329 L 1052.7483 316.24959 L 1052.8423 316.24959 L 1052.9363 316.34329 L 1053.2176 316.34329 C 1053.7105 315.4158 1055.2637 313.71954 1055.9676 312.84329 L 1056.9676 311.84329 L 1057.8738 311.12454 L 1058.0613 310.93704 L 1059.03 310.59329 L 1059.5613 309.68704 L 1059.5613 309.59334 L 1059.7488 308.59334 L 1060.655 308.87459 L 1061.5613 308.96829 L 1062.4676 308.68704 L 1062.6238 308.34329 L 1062.9988 307.43704 L 1063.4363 306.53079 L 1063.905 305.53079 L 1064.53 305.37454 L 1065.4363 305.28084 L 1066.4363 305.28084 L 1067.405 305.81209 L 1068.03 306.62459 L 1068.9363 307.24959 L 1069.8426 308.15584 L 1070.1238 309.06209 L 1070.8426 309.24959 L 1072.6863 307.93709 L 1076.4676 305.59334 L 1077.4363 304.87459 L 1077.1863 304.68709 L 1076.0926 303.34334 L 1075.5613 302.34334 L 1074.8426 301.43709 L 1074.2176 301.18709 L 1071.9676 300.18709 L 1071.8736 300.18709 L 1071.9676 299.28084 L 1070.2488 298.84334 L 1070.0613 298.74964 L 1069.3426 298.12464 L 1068.9988 297.21839 L 1068.8113 297.21839 L 1068.9988 296.21839 L 1068.1863 295.34339 L 1068.905 294.53089 L 1070.155 292.62464 L 1071.0613 292.53094 L 1071.1553 292.28094 L 1069.9991 290.46844 L 1069.3429 289.74969 L 1068.6241 287.93719 L 1067.7491 287.93719 L 1068.6241 287.06219 L 1068.8116 287.06219 L 1067.8116 286.34344 L 1067.6553 285.34344 L 1066.7491 285.62469 L 1066.3741 285.06219 L 1064.5449 285.92271 L 1057.3777 282.15118 L 1057.0755 281.32327 L 1059.9587 280.45922 L 1061.576 279.40578 L 1060.0773 277.29887 L 1061.6928 275.48392 L 1063.5582 275.18175 L 1065.8597 275.6123 L 1066.5721 274.89188 L 1062.7132 273.52557 L 1062.6362 272.25047 L 1063.3921 272.34617 L 1063.6576 271.78245 L 1061.0221 271.16116 L 1061.7732 271.15216 L 1062.514 270.1699 L 1061.5238 269.52913 L 1063.5208 268.45675 L 1064.1235 268.80252 L 1067.7313 268.85212 L 1068.4124 269.64813 L 1069.0203 268.41142 L 1076.9183 266.67598 L 1080.8611 266.88079 L 1080.9221 265.59771 L 1082.2003 264.77867 L 1085.2765 264.79387 L 1090.8237 263.38659 L 1094.926 262.66945 L 1096.662 261.19001 L 1097.3036 260.26421 L 1101.8535 260.29711 L 1103.9977 261.40801 L 1105.132 260.47841 L 1106.7939 260.55881 Z"/>
</svg>
