<svg width="1671.094" height="856.39252" viewBox="0 0 1671.094 856.39252" xmlns="http://www.w3.org/2000/svg" xmlns:usvg="https://github.com/RazrFalcon/usvg" usvg:version="0.8.0">
    <defs/>
    <path id="path2735-3-6" fill="#3e73c5" fill-opacity="0.42857145" stroke="#000000" stroke-opacity="0.24675323" stroke-linecap="round" stroke-linejoin="round" transform="matrix(1 0 0 1 0.5 1.2670726)" d="M 1230.9793 410.19945 L 1231.4231 409.72464 L 1231.8732 409.71764 L 1232.7794 410.59264 L 1233.3107 410.53014 L 1234.2794 411.49889 L 1234.3104 411.49889 L 1234.3104 412.40514 L 1234.7479 413.49889 L 1234.8419 413.84264 L 1236.2481 414.03014 L 1236.2791 414.03014 L 1236.8417 414.93639 L 1236.9979 415.90514 L 1236.9979 416.81139 L 1237.2791 418.24889 L 1237.2791 419.24889 L 1237.0917 419.96764 L 1236.5604 421.59264 L 1236.9041 423.03014 L 1236.8731 423.03014 L 1236.0293 423.21764 L 1235.3731 424.37389 L 1235.3421 424.37389 L 1234.4671 424.09264 L 1234.4041 424.28014 L 1234.3101 425.18639 L 1234.2791 425.18639 L 1234.1229 425.28009 L 1233.9354 425.71759 L 1233.9044 425.71759 L 1233.0294 425.90509 L 1232.4044 426.90509 L 1232.4044 427.15509 L 1232.1544 428.15509 L 1232.1234 428.15509 L 1231.5922 428.49884 L 1231.5922 429.49884 L 1232.2172 430.40509 L 1232.4046 431.03009 L 1232.4986 431.21759 L 1231.8736 432.12384 L 1232.0611 432.84259 L 1232.9361 432.37384 L 1233.5611 431.93634 L 1233.8424 431.74884 L 1234.7486 431.49884 L 1235.6548 431.49884 L 1236.4674 431.74884 L 1237.1861 431.56134 L 1237.7486 431.34259 L 1237.3111 431.74884 L 1236.8424 432.21759 L 1236.9044 432.84259 L 1237.5294 433.71759 L 1237.4674 434.46759 L 1237.6236 434.59259 L 1237.7798 434.71759 L 1237.8108 434.71759 L 1237.9983 436.06134 L 1238.8733 436.53009 L 1238.9043 436.53009 L 1239.3419 436.53009 L 1240.5919 436.68634 L 1240.6539 436.68634 L 1240.6849 436.68634 L 1240.1536 437.96759 L 1240.0596 439.49884 L 1239.4346 440.31134 L 1239.0909 441.12384 L 1239.4971 441.31134 L 1239.9346 441.46759 L 1239.9656 441.46759 L 1240.9656 441.37389 L 1241.8718 441.56139 L 1242.1218 441.74889 L 1242.7156 441.65519 L 1242.7466 441.65519 L 1242.7776 441.65519 L 1242.7776 442.90519 L 1242.9339 443.37394 L 1243.2152 443.46764 L 1243.5276 443.62389 L 1243.5586 443.62389 L 1243.9336 444.59264 L 1244.0276 444.53014 L 1245.0902 444.34264 L 1245.3714 444.53014 L 1245.6214 444.53014 L 1246.5276 443.99889 L 1247.0589 443.46764 L 1248.1214 442.99889 L 1248.1524 442.99889 L 1248.2464 443.99889 L 1248.3084 443.99889 L 1248.3394 443.99889 L 1248.6206 444.81139 L 1249.4742 445.74869 L 1248.7554 445.84239 C 1248.7404 445.83739 1248.7284 445.82579 1248.7244 445.81119 C 1248.7094 445.80619 1248.6984 445.79459 1248.6934 445.77999 L 1248.5059 444.87374 L 1248.2871 444.12374 L 1248.2251 444.12374 L 1247.5375 444.99874 L 1246.6313 445.43624 C 1246.6213 445.45084 1246.6143 445.46244 1246.6003 445.46744 L 1246.2877 445.37374 L 1245.8503 446.62374 C 1245.8403 446.62674 1245.8293 446.62674 1245.8193 446.62374 L 1245.5068 446.93624 L 1245.5068 447.40499 L 1245.8818 447.31129 C 1245.8968 447.31629 1245.9078 447.32789 1245.9128 447.34249 C 1245.9278 447.34749 1245.9388 447.35909 1245.9438 447.37369 C 1245.9338 447.38829 1245.9268 447.39989 1245.9128 447.40489 L 1245.8818 447.43609 L 1245.8198 447.59234 C 1245.8098 447.60694 1245.8038 447.61854 1245.7888 447.62354 L 1244.4451 447.90479 L 1243.7888 448.74854 L 1243.4451 449.99854 C 1243.4351 450.01314 1243.4281 450.02474 1243.4141 450.02974 C 1243.4141 450.04434 1243.3981 450.05594 1243.3831 450.06094 L 1243.2891 450.06094 C 1243.2751 450.05594 1243.2631 450.04434 1243.2581 450.02974 L 1242.9143 449.77974 L 1242.3831 449.62349 L 1241.3206 450.12349 C 1241.3106 450.13809 1241.3046 450.14969 1241.2896 450.15469 L 1240.8522 450.06099 L 1240.5709 450.06099 L 1240.7272 450.99849 C 1240.7172 451.01309 1240.7102 451.02469 1240.6962 451.02969 C 1240.6862 451.04429 1240.6792 451.05589 1240.6652 451.06089 L 1239.8528 451.31089 L 1238.9465 451.15464 L 1238.5715 451.62339 L 1238.384 452.52964 C 1238.374 452.54424 1238.367 452.55584 1238.353 452.56084 L 1238.103 452.71709 C 1238.093 452.73169 1238.086 452.74329 1238.072 452.74829 L 1237.1657 452.84199 L 1236.572 453.09199 C 1236.562 453.10659 1236.556 453.11819 1236.541 453.12319 L 1235.8223 453.21689 L 1234.916 453.31059 C 1234.902 453.30559 1234.89 453.29399 1234.885 453.27939 L 1234.01 452.68564 L 1233.8538 452.90439 L 1233.0725 453.68564 L 1232.8225 454.68564 L 1233 455.49954 C 1232.99 455.51434 1232.983 455.52574 1232.969 455.53074 L 1232.5314 456.37449 L 1232.5314 457.37449 L 1232.719 458.37449 C 1232.709 458.38909 1232.702 458.40069 1232.688 458.40569 L 1231.3755 458.90569 L 1231.3755 458.93689 L 1231.3755 459.43689 L 1231.3755 459.46809 L 1231.8755 459.68684 L 1232.2193 460.59309 C 1232.2333 460.59809 1232.2453 460.60969 1232.2503 460.62429 L 1232.4378 461.53054 C 1232.4278 461.54514 1232.4208 461.55674 1232.4068 461.56174 L 1232.3448 461.59294 L 1232.2508 462.06169 L 1233.3133 463.28044 L 1234.2196 464.18669 L 1234.657 464.90544 L 1235.0946 465.62419 L 1236.032 466.43669 L 1236.1883 466.87419 C 1236.2033 466.87919 1236.2143 466.89079 1236.2193 466.90539 L 1236.063 467.46789 L 1236.9693 469.34289 L 1237.5317 468.53039 L 1237.5627 468.49919 C 1237.5727 468.48459 1237.5797 468.47299 1237.5937 468.46799 C 1237.6077 468.47299 1237.6197 468.48459 1237.6247 468.49919 C 1237.6397 468.50419 1237.6507 468.51579 1237.6557 468.53039 L 1237.937 469.62414 C 1237.927 469.63874 1237.92 469.65034 1237.906 469.65534 L 1236.406 470.53034 L 1236.406 472.40534 L 1236.5 473.31159 C 1236.49 473.32619 1236.483 473.33779 1236.469 473.34279 L 1235.6877 473.84279 L 1235.5937 474.31154 C 1235.5837 474.32614 1235.5767 474.33774 1235.5627 474.34274 C 1235.5527 474.35734 1235.5467 474.36894 1235.5317 474.37394 L 1234.688 474.53019 L 1234.688 475.56144 L 1234.9693 476.46769 L 1235.4693 477.15519 L 1236.7193 478.84269 L 1237.6255 479.49894 L 1238.3443 480.21769 L 1239.063 481.56144 C 1239.078 481.56644 1239.089 481.57804 1239.094 481.59264 L 1239.2814 483.46764 L 1239.2814 484.03014 L 1239.094 484.90514 L 1239.3752 485.90514 L 1240.344 486.96764 C 1240.358 486.97264 1240.37 486.98424 1240.375 486.99884 L 1240.375 487.87384 L 1240.7188 489.06134 L 1241.25 490.84259 C 1241.24 490.85719 1241.233 490.86879 1241.219 490.87379 L 1240.4064 491.78004 L 1240.0627 492.68629 L 1239.7814 492.96754 L 1239.4377 493.93629 L 1238.969 494.31129 L 1238.344 495.21754 L 1237.8127 495.46754 L 1237.4064 496.31129 L 1237.5004 496.59254 L 1237.5004 496.62374 C 1237.4904 496.63834 1237.4834 496.64994 1237.4694 496.65494 L 1237.1881 497.31119 C 1237.1781 497.32579 1237.1711 497.33739 1237.1571 497.34239 L 1237.1261 497.34239 C 1237.1111 497.33739 1237.1001 497.32579 1237.0951 497.31119 L 1237.0321 497.43619 C 1236.4637 499.12493 1235.9896 500.71995 1235.3134 502.37369 L 1231.302 502.64603 L 1233.3645 501.20853 L 1234.3645 501.11483 L 1235.2083 499.86483 L 1236.177 498.92733 L 1236.0207 498.08358 L 1236.0207 498.05238 L 1236.177 497.17738 L 1236.177 497.14618 L 1236.0207 496.52118 L 1235.9267 495.58368 L 1236.4267 494.98993 C 1236.4367 494.99193 1236.4477 494.99193 1236.4577 494.98993 L 1237.0827 494.08368 L 1237.0827 494.05248 C 1237.0836 494.04208 1237.0827 494.03158 1237.0827 494.02128 L 1237.2077 493.36503 L 1237.2697 493.05253 L 1237.2697 493.02133 L 1237.2697 492.11508 L 1237.2077 491.55258 L 1237.5201 490.45883 C 1237.5331 490.45083 1237.5431 490.44023 1237.5511 490.42763 L 1237.5511 490.39643 C 1237.5411 490.38383 1237.5321 490.37313 1237.5201 490.36523 C 1237.5101 490.35263 1237.5011 490.34193 1237.4891 490.33403 C 1237.4791 490.33203 1237.4681 490.33203 1237.4581 490.33403 C 1237.4481 490.32143 1237.4391 490.31073 1237.4271 490.30283 C 1237.4141 490.31083 1237.4041 490.32143 1237.3961 490.33403 L 1237.3341 490.36523 L 1236.6778 490.77148 L 1236.7398 490.05273 L 1236.7398 489.17773 L 1236.7398 489.14653 L 1237.0836 488.67778 C 1237.0845 488.66738 1237.0836 488.65688 1237.0836 488.64658 C 1237.0845 488.63618 1237.0836 488.62568 1237.0836 488.61538 C 1237.0845 488.60498 1237.0836 488.59448 1237.0836 488.58418 L 1236.896 488.17793 L 1236.99 488.02168 L 1236.99 487.99048 L 1236.99 487.95928 L 1236.99 487.92808 C 1236.98 487.92608 1236.969 487.92608 1236.959 487.92808 L 1236.5527 487.49058 L 1236.8027 486.61558 L 1236.8027 486.58438 L 1236.9902 486.33438 L 1236.9902 486.30318 L 1236.9902 486.27198 L 1236.9902 486.24078 L 1236.9902 486.20958 C 1236.9802 486.20758 1236.9692 486.20758 1236.9592 486.20958 C 1236.9492 486.19698 1236.9402 486.18628 1236.9282 486.17838 C 1236.9182 486.17638 1236.9072 486.17638 1236.8972 486.17838 L 1236.7722 486.17838 L 1236.5535 485.36588 L 1236.4595 484.45963 C 1236.4604 484.44923 1236.4595 484.43873 1236.4595 484.42843 L 1236.0219 483.45968 L 1235.74 482.73973 L 1235.74 482.70853 L 1235.2088 481.83353 L 1234.9275 480.95853 L 1234.9275 480.92733 L 1234.74 480.05233 L 1234.74 480.02113 L 1234.646 479.83363 C 1234.636 479.82103 1234.627 479.81033 1234.615 479.80243 C 1234.605 479.80043 1234.594 479.80043 1234.584 479.80243 C 1234.573 479.80043 1234.563 479.80043 1234.553 479.80243 C 1234.543 479.80043 1234.532 479.80043 1234.522 479.80243 C 1234.51 479.81043 1234.499 479.82103 1234.491 479.83363 L 1234.366 480.02113 L 1234.366 480.05233 L 1234.366 480.08353 L 1234.46 480.86478 L 1234.46 480.89598 L 1234.397 481.36473 L 1234.2096 480.89598 L 1234.2096 480.86478 L 1234.2096 480.83358 L 1234.1156 479.95858 L 1233.9281 479.05233 L 1233.7718 478.52108 L 1233.4906 477.67733 L 1233.4906 477.61483 L 1233.7718 476.77108 L 1233.7718 476.73988 L 1233.7718 476.70868 C 1233.7618 476.69608 1233.7528 476.68538 1233.7408 476.67748 C 1233.7308 476.66488 1233.7218 476.65418 1233.7098 476.64628 L 1232.7722 475.99003 L 1232.8662 475.49003 L 1232.8662 475.45883 L 1232.7722 475.17758 L 1232.5848 474.33383 L 1232.5848 474.30263 L 1232.6788 473.42763 L 1232.6788 473.39643 L 1232.5848 472.49018 L 1232.4908 472.05268 L 1232.3033 471.14643 L 1232.3033 471.11523 L 1231.9596 470.24023 L 1231.9596 470.20903 L 1232.0536 469.74028 L 1232.0536 469.70908 L 1232.0536 469.14658 L 1232.3973 468.11533 L 1232.4603 468.11533 C 1232.4612 468.10493 1232.4603 468.09443 1232.4603 468.08413 C 1232.4703 468.08613 1232.4813 468.08613 1232.4913 468.08413 L 1232.4913 468.05293 L 1232.4913 468.02173 L 1232.4913 467.99053 L 1232.4913 467.95933 C 1232.4813 467.94673 1232.4723 467.93603 1232.4603 467.92813 C 1232.4493 467.92613 1232.4393 467.92613 1232.4293 467.92813 C 1232.4193 467.91553 1232.4103 467.90483 1232.3983 467.89693 L 1232.1171 467.89693 L 1232.0551 467.92813 L 1231.7114 468.08438 L 1231.5551 468.08438 L 1230.6801 467.77188 L 1230.6491 467.74068 L 1230.2429 466.89693 L 1230.2429 466.86573 L 1229.9929 466.20948 L 1229.9929 465.30323 L 1229.9619 465.24073 L 1229.8369 465.11573 L 1228.5556 463.77198 L 1228.5246 463.70948 C 1228.5146 463.70748 1228.5036 463.70748 1228.4936 463.70948 C 1228.4836 463.69688 1228.4746 463.68618 1228.4626 463.67828 C 1228.4516 463.67628 1228.4416 463.67628 1228.4316 463.67828 C 1228.4216 463.67628 1228.4106 463.67628 1228.4006 463.67828 C 1228.3997 463.68868 1228.4006 463.69918 1228.4006 463.70948 C 1228.3906 463.70748 1228.3796 463.70748 1228.3696 463.70948 L 1228.3696 463.74068 C 1228.3596 463.73868 1228.3486 463.73868 1228.3386 463.74068 L 1228.3386 463.77188 L 1228.3386 463.80308 L 1228.526 464.45933 L 1228.526 464.52183 L 1228.276 465.27183 C 1228.264 465.27983 1228.253 465.29043 1228.245 465.30303 L 1228.245 465.33423 C 1228.255 465.33623 1228.266 465.33623 1228.276 465.33423 C 1228.2751 465.34463 1228.276 465.35513 1228.276 465.36543 L 1228.4323 465.58418 L 1228.0886 466.45918 L 1228.0886 466.49038 L 1228.0886 466.86538 L 1228.0886 466.99038 L 1228.0886 467.02158 L 1226.4636 468.24033 L 1225.7448 467.58408 L 1225.6828 467.52158 L 1225.7448 466.86533 L 1225.7448 466.83413 L 1225.7448 466.80293 L 1225.7448 466.77173 C 1225.7348 466.76973 1225.7238 466.76973 1225.7138 466.77173 C 1225.7038 466.75913 1225.6948 466.74843 1225.6828 466.74053 C 1225.6728 466.73853 1225.6618 466.73853 1225.6518 466.74053 C 1225.6418 466.73853 1225.6308 466.73853 1225.6208 466.74053 L 1225.4333 466.83423 C 1225.4203 466.84223 1225.4103 466.85283 1225.4023 466.86543 L 1225.3403 466.92793 L 1225.1527 467.02163 C 1225.1407 467.02963 1225.1297 467.04023 1225.1217 467.05283 L 1225.1217 467.08403 L 1225.1217 467.11523 L 1225.1217 467.14643 L 1225.2157 467.33393 L 1225.4031 467.86518 L 1225.4661 468.08393 L 1225.4661 468.14643 L 1225.2473 468.89643 L 1224.4035 468.80273 C 1224.3935 468.80073 1224.3825 468.80073 1224.3725 468.80273 C 1224.3595 468.81073 1224.3485 468.82133 1224.3415 468.83393 C 1224.3305 468.83193 1224.3205 468.83193 1224.3105 468.83393 L 1223.8105 469.45893 L 1223.7795 469.49013 L 1223.1233 469.61513 C 1223.1133 469.61313 1223.1023 469.61313 1223.0923 469.61513 C 1223.0793 469.62313 1223.0693 469.63373 1223.0613 469.64633 C 1223.0483 469.65433 1223.0383 469.66493 1223.0303 469.67753 C 1223.0294 469.68793 1223.0303 469.69843 1223.0303 469.70873 L 1222.8741 470.45873 L 1222.7179 470.89623 L 1222.6869 470.92743 L 1221.8744 471.77118 L 1221.8434 471.77118 L 1221.2184 471.77118 L 1221.5308 470.92743 L 1221.5308 470.89623 L 1221.5308 469.98998 L 1221.5308 469.95878 L 1221.5308 469.92758 C 1221.5208 469.92558 1221.5098 469.92558 1221.4998 469.92758 L 1221.4998 469.89638 C 1221.4898 469.89438 1221.4788 469.89438 1221.4688 469.89638 C 1221.4578 469.89438 1221.4478 469.89438 1221.4378 469.89638 C 1221.4278 469.89438 1221.4168 469.89438 1221.4068 469.89638 C 1221.3968 469.89438 1221.3858 469.89438 1221.3758 469.89638 L 1221.3758 469.92758 L 1221.1883 470.08383 C 1221.1753 470.09183 1221.1653 470.10243 1221.1573 470.11503 C 1221.1573 470.12543 1221.1564 470.13593 1221.1573 470.14623 C 1221.1564 470.15663 1221.1573 470.16713 1221.1573 470.17743 L 1220.9073 470.64618 L 1220.4073 471.23993 L 1220.4383 470.86493 L 1220.7196 470.14618 C 1220.7205 470.13578 1220.7196 470.12528 1220.7196 470.11498 C 1220.7205 470.10458 1220.7196 470.09408 1220.7196 470.08378 C 1220.7205 470.07338 1220.7196 470.06288 1220.7196 470.05258 C 1220.7205 470.04218 1220.7196 470.03168 1220.7196 470.02138 C 1220.7096 470.00878 1220.7006 469.99808 1220.6886 469.99018 C 1220.6786 469.98818 1220.6676 469.98818 1220.6576 469.99018 C 1220.6476 469.98818 1220.6366 469.98818 1220.6266 469.99018 L 1220.5956 469.99018 L 1220.408 469.89648 C 1220.398 469.89448 1220.387 469.89448 1220.377 469.89648 C 1220.367 469.89448 1220.356 469.89448 1220.346 469.89648 C 1220.335 469.89448 1220.325 469.89448 1220.315 469.89648 C 1220.302 469.90448 1220.292 469.91508 1220.284 469.92768 C 1220.272 469.93568 1220.261 469.94628 1220.253 469.95888 L 1220.003 470.77138 L 1219.6592 471.58388 L 1219.2218 471.36513 L 1219.4718 470.55263 C 1219.4727 470.54223 1219.4718 470.53173 1219.4718 470.52143 C 1219.4727 470.51103 1219.4718 470.50053 1219.4718 470.49023 C 1219.4608 470.48823 1219.4508 470.48823 1219.4408 470.49023 L 1219.4408 470.45903 C 1219.4308 470.44643 1219.4218 470.43573 1219.4098 470.42783 L 1219.3478 470.39663 L 1219.7852 469.61538 L 1219.8162 469.58418 L 1219.8162 469.55298 L 1219.8162 469.52178 L 1219.8162 469.49058 C 1219.8062 469.47798 1219.7972 469.46728 1219.7852 469.45938 C 1219.7752 469.45738 1219.7642 469.45738 1219.7542 469.45938 C 1219.7442 469.44678 1219.7352 469.43608 1219.7232 469.42818 C 1219.7102 469.43618 1219.7002 469.44678 1219.6922 469.45938 L 1219.6302 469.49058 L 1219.0364 469.80308 C 1219.0364 469.81348 1219.0355 469.82398 1219.0364 469.83428 C 1219.0264 469.83228 1219.0154 469.83228 1219.0054 469.83428 L 1218.9114 469.92798 C 1218.9014 469.91538 1218.8924 469.90468 1218.8804 469.89678 C 1218.8704 469.89478 1218.8594 469.89478 1218.8494 469.89678 C 1218.8384 469.89478 1218.8284 469.89478 1218.8184 469.89678 C 1218.8084 469.89478 1218.7974 469.89478 1218.7874 469.89678 C 1218.7774 469.89478 1218.7664 469.89478 1218.7564 469.89678 L 1218.1939 470.36553 L 1218.3814 469.74053 L 1218.4754 469.20928 L 1218.6628 468.30303 L 1218.6628 468.27183 L 1218.6628 468.24063 C 1218.6528 468.22803 1218.6438 468.21733 1218.6318 468.20943 C 1218.6218 468.19683 1218.6128 468.18613 1218.6008 468.17823 C 1218.5898 468.17623 1218.5798 468.17623 1218.5698 468.17823 L 1218.4135 468.17823 L 1218.3825 468.11573 C 1218.3725 468.11373 1218.3615 468.11373 1218.3515 468.11573 C 1218.3415 468.10313 1218.3325 468.09243 1218.3205 468.08453 C 1218.3105 468.08253 1218.2995 468.08253 1218.2895 468.08453 C 1218.2795 468.08253 1218.2685 468.08253 1218.2585 468.08453 C 1218.2455 468.09253 1218.2345 468.10313 1218.2275 468.11573 C 1218.2145 468.12373 1218.2045 468.13433 1218.1965 468.14693 L 1218.1965 468.17813 L 1218.1965 468.61563 L 1218.1965 468.64683 L 1217.6965 469.27183 L 1217.4778 469.49058 L 1216.9778 470.33433 L 1216.2278 470.49058 L 1216.3218 469.74058 L 1216.4158 468.86558 L 1216.4158 468.83438 L 1216.7596 467.86563 L 1217.1346 466.95938 L 1217.1346 466.92818 C 1217.1666 465.53483 1217.7031 464.47187 1217.9471 463.08443 L 1217.9471 463.05323 L 1217.9471 463.02203 C 1217.4379 462.20457 1217.3597 461.58418 1217.2908 460.95953 C 1217.2408 460.49944 1217.1697 460.00893 1216.9158 459.45953 C 1216.8318 459.2764 1216.7381 459.0981 1216.6034 458.89703 C 1216.6034 458.89203 1216.5734 458.90203 1216.5724 458.89703 C 1216.4253 458.16169 1216.2591 457.68197 1216.0724 457.36578 C 1215.8845 457.04758 1215.7077 456.89264 1215.5724 456.74078 C 1215.4371 456.58892 1215.346 456.44833 1215.3224 456.17828 C 1215.2984 455.90823 1215.3454 455.5018 1215.5099 454.80328 L 1215.5099 454.77208 L 1215.5099 454.74088 C 1215.4999 454.72828 1215.4909 454.71758 1215.4789 454.70968 L 1215.3849 454.61598 C 1215.3749 454.60338 1215.3659 454.59268 1215.3539 454.58478 C 1215.3429 454.58278 1215.3329 454.58278 1215.3229 454.58478 C 1215.3129 454.58278 1215.3019 454.58278 1215.2919 454.58478 C 1215.2799 454.59278 1215.2689 454.60338 1215.2609 454.61598 L 1215.1359 454.55348 L 1215.1359 454.52228 L 1215.1359 454.49108 L 1215.1359 454.45988 C 1215.1259 454.44728 1215.1169 454.43658 1215.1049 454.42868 L 1214.5111 453.86618 L 1214.5111 453.83498 L 1214.4491 452.95998 C 1214.4391 452.95798 1214.4281 452.95798 1214.4181 452.95998 L 1214.4181 452.92878 C 1214.4081 452.91618 1214.3991 452.90548 1214.3871 452.89758 C 1214.37710000001 452.89558 1214.36610000001 452.89558 1214.35610000001 452.89758 C 1214.34510000001 452.89558 1214.33510000001 452.89558 1214.32510000001 452.89758 L 1213.85640000001 452.96008 L 1213.35640000001 452.11633 L 1213.32540000001 452.08513 L 1212.45040000001 451.46013 L 1212.41940000001 451.46013 L 1212.35740000001 451.14763 C 1212.34740000001 451.13503 1212.33840000001 451.12433 1212.32640000001 451.11643 C 1212.31640000001 451.10383 1212.30740000001 451.09313 1212.29540000001 451.08523 L 1212.13920000001 450.99153 C 1212.12920000001 450.98953 1212.11820000001 450.98953 1212.10820000001 450.99153 C 1212.09720000001 450.98953 1212.08720000001 450.98953 1212.07720000001 450.99153 C 1212.06720000001 450.98953 1212.05620000001 450.98953 1212.04620000001 450.99153 C 1212.04520000001 451.00193 1212.04620000001 451.01243 1212.04620000001 451.02273 L 1212.01520000001 451.02273 L 1211.45270000001 451.17898 C 1211.44270000001 451.17698 1211.43170000001 451.17698 1211.42170000001 451.17898 C 1211.41170000001 451.17698 1211.40070000001 451.17698 1211.39070000001 451.17898 L 1211.39070000001 451.21018 C 1211.38070000001 451.20818 1211.36970000001 451.20818 1211.35970000001 451.21018 L 1211.23470000001 451.42893 L 1211.10970000001 451.42893 L 1211.17170000001 450.61643 C 1211.18470000001 450.60843 1211.19470000001 450.59783 1211.20270000001 450.58523 L 1211.20270000001 450.55403 L 1211.20270000001 450.52283 C 1211.19270000001 450.51023 1211.18370000001 450.49953 1211.17170000001 450.49163 C 1211.16170000001 450.47903 1211.15270000001 450.46833 1211.14070000001 450.46043 C 1211.13070000001 450.45843 1211.11970000001 450.45843 1211.10970000001 450.46043 C 1211.09870000001 450.45843 1211.08870000001 450.45843 1211.07870000001 450.46043 L 1210.67240000001 450.52293 L 1211.11000000001 449.80418 L 1211.11000000001 449.77298 L 1211.11000000001 449.74178 L 1211.11000000001 449.71058 L 1211.11000000001 449.67938 C 1211.09900000001 449.67738 1211.08900000001 449.67738 1211.07900000001 449.67938 L 1211.07900000001 449.64818 C 1211.06900000001 449.64618 1211.05800000001 449.64618 1211.04800000001 449.64818 C 1211.03800000001 449.64618 1211.02700000001 449.64618 1211.01700000001 449.64818 L 1210.98600000001 449.64818 L 1210.82970000001 449.24193 L 1210.82970000001 449.21073 L 1210.92370000001 448.96073 L 1210.92370000001 448.92953 L 1210.92370000001 448.89833 L 1210.92370000001 448.86713 C 1210.91370000001 448.86513 1210.90270000001 448.86513 1210.89270000001 448.86713 C 1210.88270000001 448.85453 1210.87370000001 448.84383 1210.86170000001 448.83593 C 1210.85070000001 448.83393 1210.84070000001 448.83393 1210.83070000001 448.83593 C 1210.82070000001 448.83393 1210.80970000001 448.83393 1210.79970000001 448.83593 C 1210.78770000001 448.84393 1210.77670000001 448.85453 1210.76870000001 448.86713 C 1210.75570000001 448.87513 1210.74470000001 448.88573 1210.73770000001 448.89833 L 1210.64370000001 449.17958 L 1210.33120000001 450.11708 L 1210.08120000001 450.58583 L 1209.79990000001 450.27333 L 1210.01870000001 449.99208 L 1210.01870000001 449.96088 L 1210.01870000001 449.92968 L 1210.01870000001 449.89848 L 1210.01870000001 449.86728 L 1209.83120000001 449.52353 L 1209.83120000001 449.49233 L 1209.20620000001 448.64858 L 1209.20620000001 448.61738 C 1209.19620000001 448.60478 1209.18720000001 448.59408 1209.17520000001 448.58618 C 1209.16520000001 448.57358 1209.15620000001 448.56288 1209.14420000001 448.55498 C 1209.13420000001 448.55298 1209.12320000001 448.55298 1209.11320000001 448.55498 C 1209.10020000001 448.56298 1209.09020000001 448.57358 1209.08220000001 448.58618 C 1209.07220000001 448.58418 1209.06120000001 448.58418 1209.05120000001 448.58618 C 1209.03920000001 448.59418 1209.02820000001 448.60478 1209.02020000001 448.61738 L 1209.02020000001 448.64858 L 1209.02020000001 448.67978 L 1209.11420000001 449.17978 L 1209.11420000001 449.21098 L 1209.05120000001 449.77348 L 1208.67620000001 449.14848 C 1208.66620000001 449.14648 1208.65520000001 449.14648 1208.64520000001 449.14848 L 1207.86400000001 448.27348 L 1207.83300000001 448.24228 L 1207.39550000001 447.36728 L 1207.42650000001 447.36728 L 1207.14530000001 446.52353 L 1207.14530000001 446.49233 L 1207.14530000001 446.46113 C 1207.13530000001 446.44853 1207.12630000001 446.43783 1207.11430000001 446.42993 C 1207.10430000001 446.41733 1207.09530000001 446.40663 1207.08330000001 446.39873 C 1207.07330000001 446.39673 1207.06230000001 446.39673 1207.05230000001 446.39873 C 1207.04230000001 446.39673 1207.03130000001 446.39673 1207.02130000001 446.39873 C 1207.00830000001 446.40673 1206.99730000001 446.41733 1206.99030000001 446.42993 C 1206.98030000001 446.43393 1206.96430000001 446.42493 1206.95930000001 446.42993 L 1206.70930000001 445.89868 L 1206.70930000001 445.71118 L 1206.89680000001 444.80493 L 1207.77180000001 444.89863 L 1208.86560000001 445.24238 L 1208.86560000001 445.08613 L 1208.58430000001 444.17988 L 1208.67830000001 442.36738 L 1208.58430000001 441.92988 L 1209.04770000001 441.39368 L 1210.21630000001 441.79692 L 1210.89160000001 440.56723 L 1210.62440000001 438.21913 L 1210.72140000001 436.74237 L 1211.95210000001 436.99342 L 1212.23020000001 433.39931 L 1211.77940000001 432.06206 L 1214.72420000001 432.46326 L 1215.37910000001 433.06569 L 1216.99700000001 429.07087 L 1217.69710000001 428.456 L 1218.02710000001 426.8699 L 1217.61800000001 425.45321 L 1218.32280000001 424.76675 L 1219.79950000001 423.63075 L 1219.60460000001 422.96179 L 1220.29710000001 421.62548 L 1219.92470000001 419.69722 L 1220.82360000001 418.82277 L 1222.00730000001 418.74007 L 1223.54500000001 417.28464 L 1227.14630000001 415.63744 L 1229.46400000001 416.80341 L 1228.16900000001 414.57701 L 1228.46080000001 414.08383 L 1229.89270000001 412.92925 L 1230.63870000001 412.4162 L 1230.66970000001 411.74478 L 1230.53790000001 411.2097 L 1230.60990000001 410.76992 Z"/>
    <path id="path12158-2" fill="#3e73c5" fill-opacity="0.42745098" stroke="#000000" stroke-opacity="0.24705882" stroke-linecap="round" stroke-linejoin="round" transform="matrix(1 0 0 1 0.5 1.2670726)" d="M 1231.319 605.43782 L 1225.406 605.43782 L 1225.406 599.06282 L 1231.319 599.06282 Z M 1211.3025 451.61505 C 1211.3125 451.61705 1211.3235 451.61705 1211.3335 451.61505 L 1211.2705 451.99005 L 1211.2085 451.6463 L 1211.2395 451.6463 C 1211.2495 451.6483 1211.2605 451.6483 1211.2705 451.6463 C 1211.2835 451.6383 1211.2935 451.6277 1211.3015 451.6151 Z M 1212.2712 451.61505 L 1212.6775 451.8963 L 1212.4275 451.8026 L 1212.865 452.70885 L 1212.3338 451.8026 L 1212.2708 451.6151 Z M 1215.3025 454.86505 C 1215.1601 455.49501 1215.0584 455.91835 1215.0838 456.2088 C 1215.1098 456.51902 1215.2503 456.70081 1215.3962 456.86505 C 1215.5106 456.99297 1215.6365 457.14372 1215.7712 457.3338 L 1214.9275 456.3963 L 1215.24 454.92755 L 1215.302 454.86505 Z M 1218.365 468.3963 L 1218.396 468.3963 L 1218.365 468.6463 Z M 1219.4275 469.80255 L 1219.4275 469.83375 L 1219.1462 469.95875 L 1219.4275 469.8025 Z M 1217.9275 470.42755 L 1217.8965 470.5838 C 1217.8956 470.5942 1217.8965 470.6047 1217.8965 470.615 C 1217.8956 470.6254 1217.8965 470.6359 1217.8965 470.6462 C 1217.9065 470.6588 1217.9155 470.6695 1217.9275 470.6774 L 1217.115 471.33365 L 1217.9275 470.4274 Z M 1232.3962 472.5213 L 1232.4902 473.3963 L 1232.4902 473.4275 L 1232.3962 474.3025 L 1232.3962 472.52125 Z M 1232.3962 474.3338 L 1232.5525 475.24005 C 1232.5625 475.24205 1232.5735 475.24205 1232.5835 475.24005 L 1232.6775 475.4588 L 1232.6775 475.49 L 1232.6775 475.5212 L 1232.5525 475.98995 L 1232.3962 474.3337 Z M 1235.8025 496.55255 C 1235.8125 496.55455 1235.8235 496.55455 1235.8335 496.55255 L 1235.9897 497.1463 L 1235.8022 496.55255 Z"/>
    <path id="path41427" fill="#8cce55" stroke="#0f380f" stroke-opacity="0.14509804" stroke-linecap="round" stroke-linejoin="round" transform="matrix(1 0 0 1 0.5 1.2670726)" d="M 1229.598426 602.07843 C 1229.598426 602.89809015663 1228.93396015663 603.562556 1228.1143 603.562556 C 1227.29463984337 603.562556 1226.630174 602.89809015663 1226.630174 602.07843 C 1226.630174 601.25876984337 1227.29463984337 600.594304 1228.1143 600.594304 C 1228.93396015663 600.594304 1229.598426 601.25876984337 1229.598426 602.07843 Z"/>
    <path id="path2729-3" fill="#8cce55" stroke="#0f380f" stroke-opacity="0.14509804" stroke-linecap="round" stroke-linejoin="round" transform="matrix(1 0 0 1 0.5 1.2670726)" d="M 1241.3405 491.65531 L 1241.9655 490.74906"/>
    <path id="path2735-3" fill="#8cce55" stroke="#0f380f" stroke-opacity="0.14509804" stroke-linecap="round" stroke-linejoin="round" transform="matrix(1 0 0 1 0.5 1.2670726)" d="M 1230.9793 410.19945 L 1231.4231 409.72464 L 1231.8732 409.71764 L 1232.7794 410.59264 L 1233.3107 410.53014 L 1234.2794 411.49889 L 1234.3104 411.49889 L 1234.3104 412.40514 L 1234.7479 413.49889 L 1234.8419 413.84264 L 1236.2481 414.03014 L 1236.2791 414.03014 L 1236.8417 414.93639 L 1236.9979 415.90514 L 1236.9979 416.81139 L 1237.2791 418.24889 L 1237.2791 419.24889 L 1237.0917 419.96764 L 1236.5604 421.59264 L 1236.9041 423.03014 L 1236.8731 423.03014 L 1236.0293 423.21764 L 1235.3731 424.37389 L 1235.3421 424.37389 L 1234.4671 424.09264 L 1234.4041 424.28014 L 1234.3101 425.18639 L 1234.2791 425.18639 L 1234.1229 425.28009 L 1233.9354 425.71759 L 1233.9044 425.71759 L 1233.0294 425.90509 L 1232.4044 426.90509 L 1232.4044 427.15509 L 1232.1544 428.15509 L 1232.1234 428.15509 L 1231.5922 428.49884 L 1231.5922 429.49884 L 1232.2172 430.40509 L 1232.4046 431.03009 L 1232.4986 431.21759 L 1231.8736 432.12384 L 1232.0611 432.84259 L 1232.9361 432.37384 L 1233.5611 431.93634 L 1233.8424 431.74884 L 1234.7486 431.49884 L 1235.6548 431.49884 L 1236.4674 431.74884 L 1237.1861 431.56134 L 1237.7486 431.34259 L 1237.3111 431.74884 L 1236.8424 432.21759 L 1236.9044 432.84259 L 1237.5294 433.71759 L 1237.4674 434.46759 L 1237.6236 434.59259 L 1237.7798 434.71759 L 1237.8108 434.71759 L 1237.9983 436.06134 L 1238.8733 436.53009 L 1238.9043 436.53009 L 1239.3419 436.53009 L 1240.5919 436.68634 L 1240.6539 436.68634 L 1240.6849 436.68634 L 1240.1536 437.96759 L 1240.0596 439.49884 L 1239.4346 440.31134 L 1239.0909 441.12384 L 1239.4971 441.31134 L 1239.9346 441.46759 L 1239.9656 441.46759 L 1240.9656 441.37389 L 1241.8718 441.56139 L 1242.1218 441.74889 L 1242.7156 441.65519 L 1242.7466 441.65519 L 1242.7776 441.65519 L 1242.7776 442.90519 L 1242.9339 443.37394 L 1243.2152 443.46764 L 1243.5276 443.62389 L 1243.5586 443.62389 L 1243.9336 444.59264 L 1244.0276 444.53014 L 1245.0902 444.34264 L 1245.3714 444.53014 L 1245.6214 444.53014 L 1246.5276 443.99889 L 1247.0589 443.46764 L 1248.1214 442.99889 L 1248.1524 442.99889 L 1248.2464 443.99889 L 1248.3084 443.99889 L 1248.3394 443.99889 L 1248.6206 444.81139 L 1249.4742 445.74869 L 1248.7554 445.84239 C 1248.7404 445.83739 1248.7284 445.82579 1248.7244 445.81119 C 1248.7094 445.80619 1248.6984 445.79459 1248.6934 445.77999 L 1248.5059 444.87374 L 1248.2871 444.12374 L 1248.2251 444.12374 L 1247.5375 444.99874 L 1246.6313 445.43624 C 1246.6213 445.45084 1246.6143 445.46244 1246.6003 445.46744 L 1246.2877 445.37374 L 1245.8503 446.62374 C 1245.8403 446.62674 1245.8293 446.62674 1245.8193 446.62374 L 1245.5068 446.93624 L 1245.5068 447.40499 L 1245.8818 447.31129 C 1245.8968 447.31629 1245.9078 447.32789 1245.9128 447.34249 C 1245.9278 447.34749 1245.9388 447.35909 1245.9438 447.37369 C 1245.9338 447.38829 1245.9268 447.39989 1245.9128 447.40489 L 1245.8818 447.43609 L 1245.8198 447.59234 C 1245.8098 447.60694 1245.8038 447.61854 1245.7888 447.62354 L 1244.4451 447.90479 L 1243.7888 448.74854 L 1243.4451 449.99854 C 1243.4351 450.01314 1243.4281 450.02474 1243.4141 450.02974 C 1243.4141 450.04434 1243.3981 450.05594 1243.3831 450.06094 L 1243.2891 450.06094 C 1243.2751 450.05594 1243.2631 450.04434 1243.2581 450.02974 L 1242.9143 449.77974 L 1242.3831 449.62349 L 1241.3206 450.12349 C 1241.3106 450.13809 1241.3046 450.14969 1241.2896 450.15469 L 1240.8522 450.06099 L 1240.5709 450.06099 L 1240.7272 450.99849 C 1240.7172 451.01309 1240.7102 451.02469 1240.6962 451.02969 C 1240.6862 451.04429 1240.6792 451.05589 1240.6652 451.06089 L 1239.8528 451.31089 L 1238.9465 451.15464 L 1238.5715 451.62339 L 1238.384 452.52964 C 1238.374 452.54424 1238.367 452.55584 1238.353 452.56084 L 1238.103 452.71709 C 1238.093 452.73169 1238.086 452.74329 1238.072 452.74829 L 1237.1657 452.84199 L 1236.572 453.09199 C 1236.562 453.10659 1236.556 453.11819 1236.541 453.12319 L 1235.8223 453.21689 L 1234.916 453.31059 C 1234.902 453.30559 1234.89 453.29399 1234.885 453.27939 L 1234.01 452.68564 L 1233.8538 452.90439 L 1233.0725 453.68564 L 1232.8225 454.68564 L 1233 455.49954 C 1232.99 455.51434 1232.983 455.52574 1232.969 455.53074 L 1232.5314 456.37449 L 1232.5314 457.37449 L 1232.719 458.37449 C 1232.709 458.38909 1232.702 458.40069 1232.688 458.40569 L 1231.3755 458.90569 L 1231.3755 458.93689 L 1231.3755 459.43689 L 1231.3755 459.46809 L 1231.8755 459.68684 L 1232.2193 460.59309 C 1232.2333 460.59809 1232.2453 460.60969 1232.2503 460.62429 L 1232.4378 461.53054 C 1232.4278 461.54514 1232.4208 461.55674 1232.4068 461.56174 L 1232.3448 461.59294 L 1232.2508 462.06169 L 1233.3133 463.28044 L 1234.2196 464.18669 L 1234.657 464.90544 L 1235.0946 465.62419 L 1236.032 466.43669 L 1236.1883 466.87419 C 1236.2033 466.87919 1236.2143 466.89079 1236.2193 466.90539 L 1236.063 467.46789 L 1236.9693 469.34289 L 1237.5317 468.53039 L 1237.5627 468.49919 C 1237.5727 468.48459 1237.5797 468.47299 1237.5937 468.46799 C 1237.6077 468.47299 1237.6197 468.48459 1237.6247 468.49919 C 1237.6397 468.50419 1237.6507 468.51579 1237.6557 468.53039 L 1237.937 469.62414 C 1237.927 469.63874 1237.92 469.65034 1237.906 469.65534 L 1236.406 470.53034 L 1236.406 472.40534 L 1236.5 473.31159 C 1236.49 473.32619 1236.483 473.33779 1236.469 473.34279 L 1235.6877 473.84279 L 1235.5937 474.31154 C 1235.5837 474.32614 1235.5767 474.33774 1235.5627 474.34274 C 1235.5527 474.35734 1235.5467 474.36894 1235.5317 474.37394 L 1234.688 474.53019 L 1234.688 475.56144 L 1234.9693 476.46769 L 1235.4693 477.15519 L 1236.7193 478.84269 L 1237.6255 479.49894 L 1238.3443 480.21769 L 1239.063 481.56144 C 1239.078 481.56644 1239.089 481.57804 1239.094 481.59264 L 1239.2814 483.46764 L 1239.2814 484.03014 L 1239.094 484.90514 L 1239.3752 485.90514 L 1240.344 486.96764 C 1240.358 486.97264 1240.37 486.98424 1240.375 486.99884 L 1240.375 487.87384 L 1240.7188 489.06134 L 1241.25 490.84259 C 1241.24 490.85719 1241.233 490.86879 1241.219 490.87379 L 1240.4064 491.78004 L 1240.0627 492.68629 L 1239.7814 492.96754 L 1239.4377 493.93629 L 1238.969 494.31129 L 1238.344 495.21754 L 1237.8127 495.46754 L 1237.4064 496.31129 L 1237.5004 496.59254 L 1237.5004 496.62374 C 1237.4904 496.63834 1237.4834 496.64994 1237.4694 496.65494 L 1237.1881 497.31119 C 1237.1781 497.32579 1237.1711 497.33739 1237.1571 497.34239 L 1237.1261 497.34239 C 1237.1111 497.33739 1237.1001 497.32579 1237.0951 497.31119 L 1237.0321 497.43619 C 1236.4637 499.12493 1235.9896 500.71995 1235.3134 502.37369 L 1231.302 502.64603 L 1233.3645 501.20853 L 1234.3645 501.11483 L 1235.2083 499.86483 L 1236.177 498.92733 L 1236.0207 498.08358 L 1236.0207 498.05238 L 1236.177 497.17738 L 1236.177 497.14618 L 1236.0207 496.52118 L 1235.9267 495.58368 L 1236.4267 494.98993 C 1236.4367 494.99193 1236.4477 494.99193 1236.4577 494.98993 L 1237.0827 494.08368 L 1237.0827 494.05248 C 1237.0836 494.04208 1237.0827 494.03158 1237.0827 494.02128 L 1237.2077 493.36503 L 1237.2697 493.05253 L 1237.2697 493.02133 L 1237.2697 492.11508 L 1237.2077 491.55258 L 1237.5201 490.45883 C 1237.5331 490.45083 1237.5431 490.44023 1237.5511 490.42763 L 1237.5511 490.39643 C 1237.5411 490.38383 1237.5321 490.37313 1237.5201 490.36523 C 1237.5101 490.35263 1237.5011 490.34193 1237.4891 490.33403 C 1237.4791 490.33203 1237.4681 490.33203 1237.4581 490.33403 C 1237.4481 490.32143 1237.4391 490.31073 1237.4271 490.30283 C 1237.4141 490.31083 1237.4041 490.32143 1237.3961 490.33403 L 1237.3341 490.36523 L 1236.6778 490.77148 L 1236.7398 490.05273 L 1236.7398 489.17773 L 1236.7398 489.14653 L 1237.0836 488.67778 C 1237.0845 488.66738 1237.0836 488.65688 1237.0836 488.64658 C 1237.0845 488.63618 1237.0836 488.62568 1237.0836 488.61538 C 1237.0845 488.60498 1237.0836 488.59448 1237.0836 488.58418 L 1236.896 488.17793 L 1236.99 488.02168 L 1236.99 487.99048 L 1236.99 487.95928 L 1236.99 487.92808 C 1236.98 487.92608 1236.969 487.92608 1236.959 487.92808 L 1236.5527 487.49058 L 1236.8027 486.61558 L 1236.8027 486.58438 L 1236.9902 486.33438 L 1236.9902 486.30318 L 1236.9902 486.27198 L 1236.9902 486.24078 L 1236.9902 486.20958 C 1236.9802 486.20758 1236.9692 486.20758 1236.9592 486.20958 C 1236.9492 486.19698 1236.9402 486.18628 1236.9282 486.17838 C 1236.9182 486.17638 1236.9072 486.17638 1236.8972 486.17838 L 1236.7722 486.17838 L 1236.5535 485.36588 L 1236.4595 484.45963 C 1236.4604 484.44923 1236.4595 484.43873 1236.4595 484.42843 L 1236.0219 483.45968 L 1235.74 482.73973 L 1235.74 482.70853 L 1235.2088 481.83353 L 1234.9275 480.95853 L 1234.9275 480.92733 L 1234.74 480.05233 L 1234.74 480.02113 L 1234.646 479.83363 C 1234.636 479.82103 1234.627 479.81033 1234.615 479.80243 C 1234.605 479.80043 1234.594 479.80043 1234.584 479.80243 C 1234.573 479.80043 1234.563 479.80043 1234.553 479.80243 C 1234.543 479.80043 1234.532 479.80043 1234.522 479.80243 C 1234.51 479.81043 1234.499 479.82103 1234.491 479.83363 L 1234.366 480.02113 L 1234.366 480.05233 L 1234.366 480.08353 L 1234.46 480.86478 L 1234.46 480.89598 L 1234.397 481.36473 L 1234.2096 480.89598 L 1234.2096 480.86478 L 1234.2096 480.83358 L 1234.1156 479.95858 L 1233.9281 479.05233 L 1233.7718 478.52108 L 1233.4906 477.67733 L 1233.4906 477.61483 L 1233.7718 476.77108 L 1233.7718 476.73988 L 1233.7718 476.70868 C 1233.7618 476.69608 1233.7528 476.68538 1233.7408 476.67748 C 1233.7308 476.66488 1233.7218 476.65418 1233.7098 476.64628 L 1232.7722 475.99003 L 1232.8662 475.49003 L 1232.8662 475.45883 L 1232.7722 475.17758 L 1232.5848 474.33383 L 1232.5848 474.30263 L 1232.6788 473.42763 L 1232.6788 473.39643 L 1232.5848 472.49018 L 1232.4908 472.05268 L 1232.3033 471.14643 L 1232.3033 471.11523 L 1231.9596 470.24023 L 1231.9596 470.20903 L 1232.0536 469.74028 L 1232.0536 469.70908 L 1232.0536 469.14658 L 1232.3973 468.11533 L 1232.4603 468.11533 C 1232.4612 468.10493 1232.4603 468.09443 1232.4603 468.08413 C 1232.4703 468.08613 1232.4813 468.08613 1232.4913 468.08413 L 1232.4913 468.05293 L 1232.4913 468.02173 L 1232.4913 467.99053 L 1232.4913 467.95933 C 1232.4813 467.94673 1232.4723 467.93603 1232.4603 467.92813 C 1232.4493 467.92613 1232.4393 467.92613 1232.4293 467.92813 C 1232.4193 467.91553 1232.4103 467.90483 1232.3983 467.89693 L 1232.1171 467.89693 L 1232.0551 467.92813 L 1231.7114 468.08438 L 1231.5551 468.08438 L 1230.6801 467.77188 L 1230.6491 467.74068 L 1230.2429 466.89693 L 1230.2429 466.86573 L 1229.9929 466.20948 L 1229.9929 465.30323 L 1229.9619 465.24073 L 1229.8369 465.11573 L 1228.5556 463.77198 L 1228.5246 463.70948 C 1228.5146 463.70748 1228.5036 463.70748 1228.4936 463.70948 C 1228.4836 463.69688 1228.4746 463.68618 1228.4626 463.67828 C 1228.4516 463.67628 1228.4416 463.67628 1228.4316 463.67828 C 1228.4216 463.67628 1228.4106 463.67628 1228.4006 463.67828 C 1228.3997 463.68868 1228.4006 463.69918 1228.4006 463.70948 C 1228.3906 463.70748 1228.3796 463.70748 1228.3696 463.70948 L 1228.3696 463.74068 C 1228.3596 463.73868 1228.3486 463.73868 1228.3386 463.74068 L 1228.3386 463.77188 L 1228.3386 463.80308 L 1228.526 464.45933 L 1228.526 464.52183 L 1228.276 465.27183 C 1228.264 465.27983 1228.253 465.29043 1228.245 465.30303 L 1228.245 465.33423 C 1228.255 465.33623 1228.266 465.33623 1228.276 465.33423 C 1228.2751 465.34463 1228.276 465.35513 1228.276 465.36543 L 1228.4323 465.58418 L 1228.0886 466.45918 L 1228.0886 466.49038 L 1228.0886 466.86538 L 1228.0886 466.99038 L 1228.0886 467.02158 L 1226.4636 468.24033 L 1225.7448 467.58408 L 1225.6828 467.52158 L 1225.7448 466.86533 L 1225.7448 466.83413 L 1225.7448 466.80293 L 1225.7448 466.77173 C 1225.7348 466.76973 1225.7238 466.76973 1225.7138 466.77173 C 1225.7038 466.75913 1225.6948 466.74843 1225.6828 466.74053 C 1225.6728 466.73853 1225.6618 466.73853 1225.6518 466.74053 C 1225.6418 466.73853 1225.6308 466.73853 1225.6208 466.74053 L 1225.4333 466.83423 C 1225.4203 466.84223 1225.4103 466.85283 1225.4023 466.86543 L 1225.3403 466.92793 L 1225.1527 467.02163 C 1225.1407 467.02963 1225.1297 467.04023 1225.1217 467.05283 L 1225.1217 467.08403 L 1225.1217 467.11523 L 1225.1217 467.14643 L 1225.2157 467.33393 L 1225.4031 467.86518 L 1225.4661 468.08393 L 1225.4661 468.14643 L 1225.2473 468.89643 L 1224.4035 468.80273 C 1224.3935 468.80073 1224.3825 468.80073 1224.3725 468.80273 C 1224.3595 468.81073 1224.3485 468.82133 1224.3415 468.83393 C 1224.3305 468.83193 1224.3205 468.83193 1224.3105 468.83393 L 1223.8105 469.45893 L 1223.7795 469.49013 L 1223.1233 469.61513 C 1223.1133 469.61313 1223.1023 469.61313 1223.0923 469.61513 C 1223.0793 469.62313 1223.0693 469.63373 1223.0613 469.64633 C 1223.0483 469.65433 1223.0383 469.66493 1223.0303 469.67753 C 1223.0294 469.68793 1223.0303 469.69843 1223.0303 469.70873 L 1222.8741 470.45873 L 1222.7179 470.89623 L 1222.6869 470.92743 L 1221.8744 471.77118 L 1221.8434 471.77118 L 1221.2184 471.77118 L 1221.5308 470.92743 L 1221.5308 470.89623 L 1221.5308 469.98998 L 1221.5308 469.95878 L 1221.5308 469.92758 C 1221.5208 469.92558 1221.5098 469.92558 1221.4998 469.92758 L 1221.4998 469.89638 C 1221.4898 469.89438 1221.4788 469.89438 1221.4688 469.89638 C 1221.4578 469.89438 1221.4478 469.89438 1221.4378 469.89638 C 1221.4278 469.89438 1221.4168 469.89438 1221.4068 469.89638 C 1221.3968 469.89438 1221.3858 469.89438 1221.3758 469.89638 L 1221.3758 469.92758 L 1221.1883 470.08383 C 1221.1753 470.09183 1221.1653 470.10243 1221.1573 470.11503 C 1221.1573 470.12543 1221.1564 470.13593 1221.1573 470.14623 C 1221.1564 470.15663 1221.1573 470.16713 1221.1573 470.17743 L 1220.9073 470.64618 L 1220.4073 471.23993 L 1220.4383 470.86493 L 1220.7196 470.14618 C 1220.7205 470.13578 1220.7196 470.12528 1220.7196 470.11498 C 1220.7205 470.10458 1220.7196 470.09408 1220.7196 470.08378 C 1220.7205 470.07338 1220.7196 470.06288 1220.7196 470.05258 C 1220.7205 470.04218 1220.7196 470.03168 1220.7196 470.02138 C 1220.7096 470.00878 1220.7006 469.99808 1220.6886 469.99018 C 1220.6786 469.98818 1220.6676 469.98818 1220.6576 469.99018 C 1220.6476 469.98818 1220.6366 469.98818 1220.6266 469.99018 L 1220.5956 469.99018 L 1220.408 469.89648 C 1220.398 469.89448 1220.387 469.89448 1220.377 469.89648 C 1220.367 469.89448 1220.356 469.89448 1220.346 469.89648 C 1220.335 469.89448 1220.325 469.89448 1220.315 469.89648 C 1220.302 469.90448 1220.292 469.91508 1220.284 469.92768 C 1220.272 469.93568 1220.261 469.94628 1220.253 469.95888 L 1220.003 470.77138 L 1219.6592 471.58388 L 1219.2218 471.36513 L 1219.4718 470.55263 C 1219.4727 470.54223 1219.4718 470.53173 1219.4718 470.52143 C 1219.4727 470.51103 1219.4718 470.50053 1219.4718 470.49023 C 1219.4608 470.48823 1219.4508 470.48823 1219.4408 470.49023 L 1219.4408 470.45903 C 1219.4308 470.44643 1219.4218 470.43573 1219.4098 470.42783 L 1219.3478 470.39663 L 1219.7852 469.61538 L 1219.8162 469.58418 L 1219.8162 469.55298 L 1219.8162 469.52178 L 1219.8162 469.49058 C 1219.8062 469.47798 1219.7972 469.46728 1219.7852 469.45938 C 1219.7752 469.45738 1219.7642 469.45738 1219.7542 469.45938 C 1219.7442 469.44678 1219.7352 469.43608 1219.7232 469.42818 C 1219.7102 469.43618 1219.7002 469.44678 1219.6922 469.45938 L 1219.6302 469.49058 L 1219.0364 469.80308 C 1219.0364 469.81348 1219.0355 469.82398 1219.0364 469.83428 C 1219.0264 469.83228 1219.0154 469.83228 1219.0054 469.83428 L 1218.9114 469.92798 C 1218.9014 469.91538 1218.8924 469.90468 1218.8804 469.89678 C 1218.8704 469.89478 1218.8594 469.89478 1218.8494 469.89678 C 1218.8384 469.89478 1218.8284 469.89478 1218.8184 469.89678 C 1218.8084 469.89478 1218.7974 469.89478 1218.7874 469.89678 C 1218.7774 469.89478 1218.7664 469.89478 1218.7564 469.89678 L 1218.1939 470.36553 L 1218.3814 469.74053 L 1218.4754 469.20928 L 1218.6628 468.30303 L 1218.6628 468.27183 L 1218.6628 468.24063 C 1218.6528 468.22803 1218.6438 468.21733 1218.6318 468.20943 C 1218.6218 468.19683 1218.6128 468.18613 1218.6008 468.17823 C 1218.5898 468.17623 1218.5798 468.17623 1218.5698 468.17823 L 1218.4135 468.17823 L 1218.3825 468.11573 C 1218.3725 468.11373 1218.3615 468.11373 1218.3515 468.11573 C 1218.3415 468.10313 1218.3325 468.09243 1218.3205 468.08453 C 1218.3105 468.08253 1218.2995 468.08253 1218.2895 468.08453 C 1218.2795 468.08253 1218.2685 468.08253 1218.2585 468.08453 C 1218.2455 468.09253 1218.2345 468.10313 1218.2275 468.11573 C 1218.2145 468.12373 1218.2045 468.13433 1218.1965 468.14693 L 1218.1965 468.17813 L 1218.1965 468.61563 L 1218.1965 468.64683 L 1217.6965 469.27183 L 1217.4778 469.49058 L 1216.9778 470.33433 L 1216.2278 470.49058 L 1216.3218 469.74058 L 1216.4158 468.86558 L 1216.4158 468.83438 L 1216.7596 467.86563 L 1217.1346 466.95938 L 1217.1346 466.92818 C 1217.1666 465.53483 1217.7031 464.47187 1217.9471 463.08443 L 1217.9471 463.05323 L 1217.9471 463.02203 C 1217.4379 462.20457 1217.3597 461.58418 1217.2908 460.95953 C 1217.2408 460.49944 1217.1697 460.00893 1216.9158 459.45953 C 1216.8318 459.2764 1216.7381 459.0981 1216.6034 458.89703 C 1216.6034 458.89203 1216.5734 458.90203 1216.5724 458.89703 C 1216.4253 458.16169 1216.2591 457.68197 1216.0724 457.36578 C 1215.8845 457.04758 1215.7077 456.89264 1215.5724 456.74078 C 1215.4371 456.58892 1215.346 456.44833 1215.3224 456.17828 C 1215.2984 455.90823 1215.3454 455.5018 1215.5099 454.80328 L 1215.5099 454.77208 L 1215.5099 454.74088 C 1215.4999 454.72828 1215.4909 454.71758 1215.4789 454.70968 L 1215.3849 454.61598 C 1215.3749 454.60338 1215.3659 454.59268 1215.3539 454.58478 C 1215.3429 454.58278 1215.3329 454.58278 1215.3229 454.58478 C 1215.3129 454.58278 1215.3019 454.58278 1215.2919 454.58478 C 1215.2799 454.59278 1215.2689 454.60338 1215.2609 454.61598 L 1215.1359 454.55348 L 1215.1359 454.52228 L 1215.1359 454.49108 L 1215.1359 454.45988 C 1215.1259 454.44728 1215.1169 454.43658 1215.1049 454.42868 L 1214.5111 453.86618 L 1214.5111 453.83498 L 1214.4491 452.95998 C 1214.4391 452.95798 1214.4281 452.95798 1214.4181 452.95998 L 1214.4181 452.92878 C 1214.4081 452.91618 1214.3991 452.90548 1214.3871 452.89758 C 1214.37710000001 452.89558 1214.36610000001 452.89558 1214.35610000001 452.89758 C 1214.34510000001 452.89558 1214.33510000001 452.89558 1214.32510000001 452.89758 L 1213.85640000001 452.96008 L 1213.35640000001 452.11633 L 1213.32540000001 452.08513 L 1212.45040000001 451.46013 L 1212.41940000001 451.46013 L 1212.35740000001 451.14763 C 1212.34740000001 451.13503 1212.33840000001 451.12433 1212.32640000001 451.11643 C 1212.31640000001 451.10383 1212.30740000001 451.09313 1212.29540000001 451.08523 L 1212.13920000001 450.99153 C 1212.12920000001 450.98953 1212.11820000001 450.98953 1212.10820000001 450.99153 C 1212.09720000001 450.98953 1212.08720000001 450.98953 1212.07720000001 450.99153 C 1212.06720000001 450.98953 1212.05620000001 450.98953 1212.04620000001 450.99153 C 1212.04520000001 451.00193 1212.04620000001 451.01243 1212.04620000001 451.02273 L 1212.01520000001 451.02273 L 1211.45270000001 451.17898 C 1211.44270000001 451.17698 1211.43170000001 451.17698 1211.42170000001 451.17898 C 1211.41170000001 451.17698 1211.40070000001 451.17698 1211.39070000001 451.17898 L 1211.39070000001 451.21018 C 1211.38070000001 451.20818 1211.36970000001 451.20818 1211.35970000001 451.21018 L 1211.23470000001 451.42893 L 1211.10970000001 451.42893 L 1211.17170000001 450.61643 C 1211.18470000001 450.60843 1211.19470000001 450.59783 1211.20270000001 450.58523 L 1211.20270000001 450.55403 L 1211.20270000001 450.52283 C 1211.19270000001 450.51023 1211.18370000001 450.49953 1211.17170000001 450.49163 C 1211.16170000001 450.47903 1211.15270000001 450.46833 1211.14070000001 450.46043 C 1211.13070000001 450.45843 1211.11970000001 450.45843 1211.10970000001 450.46043 C 1211.09870000001 450.45843 1211.08870000001 450.45843 1211.07870000001 450.46043 L 1210.67240000001 450.52293 L 1211.11000000001 449.80418 L 1211.11000000001 449.77298 L 1211.11000000001 449.74178 L 1211.11000000001 449.71058 L 1211.11000000001 449.67938 C 1211.09900000001 449.67738 1211.08900000001 449.67738 1211.07900000001 449.67938 L 1211.07900000001 449.64818 C 1211.06900000001 449.64618 1211.05800000001 449.64618 1211.04800000001 449.64818 C 1211.03800000001 449.64618 1211.02700000001 449.64618 1211.01700000001 449.64818 L 1210.98600000001 449.64818 L 1210.82970000001 449.24193 L 1210.82970000001 449.21073 L 1210.92370000001 448.96073 L 1210.92370000001 448.92953 L 1210.92370000001 448.89833 L 1210.92370000001 448.86713 C 1210.91370000001 448.86513 1210.90270000001 448.86513 1210.89270000001 448.86713 C 1210.88270000001 448.85453 1210.87370000001 448.84383 1210.86170000001 448.83593 C 1210.85070000001 448.83393 1210.84070000001 448.83393 1210.83070000001 448.83593 C 1210.82070000001 448.83393 1210.80970000001 448.83393 1210.79970000001 448.83593 C 1210.78770000001 448.84393 1210.77670000001 448.85453 1210.76870000001 448.86713 C 1210.75570000001 448.87513 1210.74470000001 448.88573 1210.73770000001 448.89833 L 1210.64370000001 449.17958 L 1210.33120000001 450.11708 L 1210.08120000001 450.58583 L 1209.79990000001 450.27333 L 1210.01870000001 449.99208 L 1210.01870000001 449.96088 L 1210.01870000001 449.92968 L 1210.01870000001 449.89848 L 1210.01870000001 449.86728 L 1209.83120000001 449.52353 L 1209.83120000001 449.49233 L 1209.20620000001 448.64858 L 1209.20620000001 448.61738 C 1209.19620000001 448.60478 1209.18720000001 448.59408 1209.17520000001 448.58618 C 1209.16520000001 448.57358 1209.15620000001 448.56288 1209.14420000001 448.55498 C 1209.13420000001 448.55298 1209.12320000001 448.55298 1209.11320000001 448.55498 C 1209.10020000001 448.56298 1209.09020000001 448.57358 1209.08220000001 448.58618 C 1209.07220000001 448.58418 1209.06120000001 448.58418 1209.05120000001 448.58618 C 1209.03920000001 448.59418 1209.02820000001 448.60478 1209.02020000001 448.61738 L 1209.02020000001 448.64858 L 1209.02020000001 448.67978 L 1209.11420000001 449.17978 L 1209.11420000001 449.21098 L 1209.05120000001 449.77348 L 1208.67620000001 449.14848 C 1208.66620000001 449.14648 1208.65520000001 449.14648 1208.64520000001 449.14848 L 1207.86400000001 448.27348 L 1207.83300000001 448.24228 L 1207.39550000001 447.36728 L 1207.42650000001 447.36728 L 1207.14530000001 446.52353 L 1207.14530000001 446.49233 L 1207.14530000001 446.46113 C 1207.13530000001 446.44853 1207.12630000001 446.43783 1207.11430000001 446.42993 C 1207.10430000001 446.41733 1207.09530000001 446.40663 1207.08330000001 446.39873 C 1207.07330000001 446.39673 1207.06230000001 446.39673 1207.05230000001 446.39873 C 1207.04230000001 446.39673 1207.03130000001 446.39673 1207.02130000001 446.39873 C 1207.00830000001 446.40673 1206.99730000001 446.41733 1206.99030000001 446.42993 C 1206.98030000001 446.43393 1206.96430000001 446.42493 1206.95930000001 446.42993 L 1206.70930000001 445.89868 L 1206.70930000001 445.71118 L 1206.89680000001 444.80493 L 1207.77180000001 444.89863 L 1208.86560000001 445.24238 L 1208.86560000001 445.08613 L 1208.58430000001 444.17988 L 1208.67830000001 442.36738 L 1208.58430000001 441.92988 L 1209.04770000001 441.39368 L 1210.21630000001 441.79692 L 1210.89160000001 440.56723 L 1210.62440000001 438.21913 L 1210.72140000001 436.74237 L 1211.95210000001 436.99342 L 1212.23020000001 433.39931 L 1211.77940000001 432.06206 L 1214.72420000001 432.46326 L 1215.37910000001 433.06569 L 1216.99700000001 429.07087 L 1217.69710000001 428.456 L 1218.02710000001 426.8699 L 1217.61800000001 425.45321 L 1218.32280000001 424.76675 L 1219.79950000001 423.63075 L 1219.60460000001 422.96179 L 1220.29710000001 421.62548 L 1219.92470000001 419.69722 L 1220.82360000001 418.82277 L 1222.00730000001 418.74007 L 1223.54500000001 417.28464 L 1227.14630000001 415.63744 L 1229.46400000001 416.80341 L 1228.16900000001 414.57701 L 1228.46080000001 414.08383 L 1229.89270000001 412.92925 L 1230.63870000001 412.4162 L 1230.66970000001 411.74478 L 1230.53790000001 411.2097 L 1230.60990000001 410.76992 Z"/>
</svg>
