<svg width="1671.094" height="856.39252" viewBox="0 0 1671.094 856.39252" xmlns="http://www.w3.org/2000/svg" xmlns:usvg="https://github.com/RazrFalcon/usvg" usvg:version="0.8.0">
    <defs/>
    <path id="path82811" fill="#3e73c5" fill-opacity="0.42857145" stroke="#000000" stroke-opacity="0.24675323" stroke-linecap="round" stroke-linejoin="round" transform="matrix(1 0 0 1 0.5 1.2670726)" d="M 1194.7276 292.88471 L 1193.555 290.5318 L 1194.9811 290.06548 L 1194.4859 289.23992 L 1195.9139 289.27142 L 1191.8467 285.75456 L 1191.8837 283.54519 L 1191.005 283.29589 L 1190.1737 283.97264 L 1190.5205 282.64594 L 1189.3471 284.08525 L 1187.7311 283.35488 L 1186.6995 282.74827 L 1187.8154 281.38794 L 1186.7199 281.09691 L 1187.5578 279.5672 L 1188.2849 279.6364 L 1188.8076 279.03436 L 1190.8428 278.30128 L 1192.4339 276.17377 L 1191.9102 275.53609 L 1193.0424 274.81946 L 1191.4194 274.04322 L 1192.2001 272.28572 L 1191.5216 271.58083 L 1190.7698 271.49993 L 1191.2596 269.91089 L 1193.0313 268.32798 L 1191.6535 266.90888 L 1192.7227 266.62091 L 1192.7127 265.17796 L 1191.9718 265.43831 L 1190.8212 264.86482 L 1189.6472 265.63095 L 1188.8958 264.66567 L 1189.8079 263.9257 L 1189.9607 262.67966 L 1190.5549 261.93951 L 1189.2087 259.38032 L 1190.5376 257.55344 L 1193.8883 255.25333 L 1191.9593 252.54307 L 1190.0301 251.57926 L 1189.6486 250.47331 L 1190.7665 249.88105 L 1190.3957 249.1947 L 1189.8053 249.02067 L 1190.4581 248.14972 L 1190.608 247.30488 L 1189.53 246.96765 L 1190.7301 246.17524 L 1192.5979 244.03152 L 1193.6934 243.75263 L 1193.3365 241.68576 L 1191.3829 241.64806 L 1187.7746 240.57275 L 1187.263 239.44714 L 1187.186 237.51844 L 1189.1226 235.2149 L 1190.9049 234.20332 L 1189.9016 232.38285 L 1186.6501 232.57154 L 1184.9422 230.07468 L 1183.5147 229.76265 L 1182.6106 228.37866 L 1180.6713 227.94464 L 1174.8917 228.33328 L 1171.2453 227.77324 L 1172.0749 224.62456 L 1169.969 221.7182 L 1169.9692 221.7016 L 1171.7504 220.7016 L 1176.7192 218.54535 L 1176.7192 217.6391 L 1177.1566 217.48285 L 1177.6254 216.5766 L 1176.6254 216.5766 L 1175.7192 216.29535 L 1175.0942 215.7641 L 1174.0942 215.6704 L 1173.1879 215.0454 L 1172.3129 215.0454 L 1171.4066 214.32665 L 1171.2192 213.95165 L 1171.1252 212.9829 L 1170.7814 212.32665 L 1171.5627 211.3579 L 1172.469 210.5454 L 1172.9377 209.63915 L 1173.8127 209.01415 L 1173.8127 208.63915 L 1174.5627 207.76415 L 1175.4377 207.20165 L 1175.9064 206.32665 L 1175.8124 205.6704 L 1175.5311 205.4204 L 1175.9061 204.4204 L 1175.0937 203.51415 L 1174.9997 202.88915 L 1173.9997 202.5454 L 1173.5622 202.07665 L 1174.4685 201.7329 L 1175.5309 199.9204 L 1176.4372 199.1079 L 1177.3435 198.8579 L 1177.8747 197.8579 L 1178.1559 196.95165 L 1177.7809 196.4204 L 1177.3435 195.51415 L 1177.6247 194.51415 L 1177.3435 193.6079 L 1176.4372 192.88915 L 1174.6247 193.3579 L 1173.6559 192.9829 L 1173.0309 192.1079 L 1171.1247 192.3579 L 1170.1247 192.3579 L 1170.5935 191.45165 L 1170.2185 190.82665 L 1170.4997 190.38915 L 1171.4059 189.57665 L 1171.1247 188.6704 L 1171.1247 187.76415 L 1169.8747 187.13915 L 1169.4997 186.2329 L 1168.6247 185.51415 L 1166.8122 185.60785 L 1166.6247 184.7016 L 1165.6247 183.8266 L 1165.8122 182.92035 L 1166.6247 182.54535 L 1165.9059 181.6391 L 1164.9372 180.85785 L 1164.5622 179.9516 L 1164.9372 179.23285 L 1164.9992 178.23285 L 1164.2804 177.3266 L 1163.218 176.42035 L 1161.8742 175.5766 L 1160.2492 174.54535 L 1160.8742 173.73285 L 1160.7802 172.8266 L 1161.124 171.92035 L 1159.9678 171.48285 L 1159.9678 170.5766 L 1159.0615 170.1391 L 1158.3428 169.23285 L 1158.624 168.79535 L 1160.5928 168.79535 L 1161.3115 167.8891 L 1161.3115 166.98285 L 1161.7802 166.98285 L 1161.8742 166.88915 L 1162.7492 166.07665 L 1162.7492 165.01415 L 1162.4054 164.1079 L 1163.3742 163.2954 L 1164.2804 163.01415 L 1164.1242 162.8579 L 1162.3117 161.8579 L 1162.0304 160.95165 L 1161.8742 160.7954 L 1161.0617 160.0454 L 1161.6867 159.1704 L 1158.8742 158.7954 L 1158.718 156.9829 L 1158.343 156.7329 L 1157.8117 157.70165 L 1156.9054 158.26415 L 1156.8114 158.17045 L 1156.7494 158.07675 L 1155.7494 158.26425 L 1154.8432 158.608 C 1154.1006 158.19794 1153.5197 157.95557 1153.0306 157.7955 C 1152.4987 157.6212 1152.1091 157.5535 1151.7806 157.5455 L 1151.6866 157.5455 C 1151.5966 157.54587 1151.4853 157.5395 1151.4053 157.5455 L 1150.2803 157.5455 C 1150.2703 157.5425 1150.2593 157.5485 1150.2493 157.5455 L 1150.1873 157.5143 L 1149.531 156.98305 C 1149.3989 156.85664 1149.2863 156.7303 1149.1248 156.54555 C 1148.7959 156.16936 1148.4051 155.69668 1147.906 155.0143 L 1147.4686 155.0143 L 1146.4686 154.73305 L 1145.8436 153.85805 L 1145.4998 153.04555 L 1146.3748 152.42055 L 1146.1873 152.1393 L 1147.0936 151.42055 L 1147.4686 151.04555 L 1150.2498 149.4518 L 1150.6873 148.79555 L 1151.6873 148.35805 L 1152.5936 148.26435 L 1153.4998 148.7956 L 1153.9373 148.63935 L 1153.3123 147.7331 L 1153.7498 146.82685 L 1153.031 145.82685 L 1153.2186 145.6706 L 1152.8748 144.76435 L 1152.7808 143.8581 L 1152.1558 142.95185 L 1150.2496 142.70185 L 1148.2808 141.4206 L 1146.3746 140.6081 L 1146.3746 139.9831 L 1147.2808 139.45185 L 1147.3748 138.45185 L 1149.2498 138.54555 L 1150.2498 138.35805 L 1150.8123 137.73305 L 1150.4373 136.67055 L 1151.156 135.7643 L 1150.2498 135.29555 L 1149.2498 134.85805 L 1148.281 134.85805 L 1146.4686 134.5143 L 1145.5623 134.1393 L 1145.3123 134.233 L 1144.3123 133.608 L 1143.3123 131.88925 L 1143.2503 131.70175 L 1143.2403 116.83382 L 1149.8023 116.83382 L 1161.812 116.83344 L 1161.812 42.396441 L 1231.208 42.396814 L 1231.208 -0.76018551 L 1300.71 -0.76018551 L 1300.71 42.396814 L 1300.71 81.271441 L 1310.2093 81.271441 L 1310.1463 108.27182 L 1294.6773 113.14682 L 1292.0523 114.70882 L 1297.9587 116.83395 L 1298.2087 117.6152 L 1297.2087 117.8027 L 1295.1461 118.8027 L 1293.3024 119.64645 L 1293.4274 120.20895 L 1294.3024 120.64645 L 1291.5211 122.89645 L 1289.8961 122.89645 L 1290.8024 123.33395 L 1291.8024 123.6152 L 1291.2399 124.52145 L 1292.9587 125.2402 L 1293.4899 126.2402 L 1292.7711 127.1152 L 1292.5211 128.02145 L 1292.1461 128.39645 L 1292.3337 129.3652 L 1293.3024 129.64645 L 1294.2399 130.27145 L 1295.2087 130.7402 L 1294.8649 131.1777 L 1294.6774 132.08395 L 1295.6774 132.4277 L 1296.5524 132.4277 L 1296.7399 133.33395 L 1297.3649 133.8652 L 1297.4589 133.9589 L 1298.3651 134.0526 L 1298.5526 135.2401 L 1298.6146 140.3651 L 1299.5208 140.6151 L 1300.4271 141.1776 L 1300.8646 141.2088 L 1301.3334 141.2713 L 1301.7708 141.8963 L 1301.2396 142.7713 L 1300.8646 142.9588 L 1299.3646 143.67755 L 1298.6146 143.58385 L 1297.6458 144.0526 L 1295.7396 144.58385 C 1295.3693 144.85432 1294.9825 144.99275 1294.5834 145.08385 C 1294.1839 145.17475 1293.7689 145.2144 1293.3646 145.2401 C 1293.166 145.2523 1292.9665 145.2542 1292.7708 145.2713 C 1292.5721 145.2891 1292.3694 145.328 1292.1771 145.365 C 1292.0371 145.3919 1291.9063 145.4464 1291.7708 145.49 C 1291.6898 145.516 1291.5998 145.519 1291.5208 145.5525 C 1291.4248 145.5939 1291.3316 145.65415 1291.2396 145.70875 C 1291.1866 145.73965 1291.1344 145.76675 1291.0834 145.80245 C 1291.0384 145.83365 1291.0044 145.89115 1290.9584 145.92745 C 1290.9214 145.95735 1290.8694 145.95705 1290.8334 145.98995 C 1290.7994 146.01955 1290.7714 146.05235 1290.7394 146.08365 C 1290.6854 146.13815 1290.6352 146.17765 1290.5832 146.2399 C 1290.5292 146.3017 1290.4789 146.3571 1290.4269 146.4274 C 1290.3929 146.4751 1290.3659 146.53185 1290.3329 146.58365 C 1290.2689 146.68055 1290.2063 146.78178 1290.1453 146.89615 C 1290.1303 146.92565 1290.1293 146.95925 1290.1143 146.98985 C 1290.0413 147.13673 1289.9635 147.28137 1289.8955 147.4586 L 1290.5205 148.36485 L 1289.6143 148.73985 L 1289.0831 148.73985 L 1287.7393 148.8961 L 1287.2081 149.17735 L 1286.9268 150.0836 L 1285.9268 150.23985 L 1286.3018 151.1461 L 1286.6768 151.7086 L 1286.9268 152.05235 L 1286.7393 152.5836 L 1286.5831 153.05235 L 1285.7705 153.9586 L 1284.7705 153.9586 L 1283.8643 153.3961 L 1282.9893 153.4898 L 1281.0831 153.3023 L 1279.2705 154.7398 L 1277.8331 155.02105 L 1275.9581 155.45855 L 1275.0518 155.9273 L 1274.1455 156.1148 L 1273.2393 155.83355 L 1272.5518 155.92725 L 1271.5518 156.8335 L 1271.8955 157.7085 L 1274.3331 160.771 L 1274.8643 161.771 L 1274.8643 164.2085 L 1274.8023 169.61475 L 1274.4273 173.646 L 1273.521 174.11475 L 1272.5523 174.17725 L 1270.5523 175.80225 L 1268.7398 176.0835 L 1269.646 176.7085 L 1270.9898 177.0835 L 1270.9278 177.521 L 1271.5528 178.42725 L 1272.1778 180.2085 L 1271.2715 181.021 L 1271.6465 182.8335 L 1272.4278 183.17725 L 1272.8965 184.0835 L 1272.9905 186.61475 L 1273.8967 186.9585 L 1274.1467 187.521 L 1275.053 187.67725 L 1274.6155 188.67725 L 1273.7093 188.58355 L 1272.7093 189.3023 L 1272.8033 189.77105 L 1271.897 190.58355 L 1270.9283 191.20855 L 1271.1783 192.02105 L 1270.7408 192.89605 L 1269.9283 193.45855 L 1269.5533 194.4273 L 1269.7408 195.33355 L 1270.7408 195.23985 L 1271.647 196.05235 L 1272.5533 195.80235 L 1273.522 195.70865 L 1273.897 195.4274 L 1276.678 197.05282 L 1277.678 196.95882 L 1276.6875 197.0625 L 1277.6875 196.9688 L 1279.4688 197.68755 L 1280.0938 197.4063 L 1281.3651 198.39639 L 1280.4589 199.20889 L 1280.2713 199.11519 L 1278.4901 199.11519 L 1278.0213 200.02144 L 1277.3026 200.11514 L 1276.3963 199.39639 L 1275.4276 199.64639 L 1274.5213 199.30264 L 1273.9901 199.30264 L 1274.4276 200.20889 L 1273.8026 201.08389 L 1273.8026 201.99014 L 1273.0839 202.61514 L 1273.0839 202.70884 L 1273.5213 203.17759 L 1273.8963 204.14634 L 1272.9901 204.08384 L 1272.6151 205.52134 L 1271.7401 205.86509 L 1271.7401 206.77134 L 1272.7089 207.49009 L 1272.8029 207.77134 L 1272.8969 208.64634 L 1273.8969 209.02134 L 1273.9909 209.92759 L 1273.3347 210.74009 L 1272.4284 211.55259 L 1272.6159 212.42759 L 1272.5539 213.05259 L 1271.6476 213.61509 L 1270.6476 214.52134 L 1270.3664 215.24009 L 1269.9289 216.11509 L 1269.0226 216.20879 L 1267.4914 217.20879 L 1266.5852 217.74004 L 1265.6789 218.02129 L 1265.9602 219.02129 L 1265.0539 219.64629 L 1264.2414 220.61504 L 1264.0852 221.08379 L 1263.6164 222.05254 L 1263.9914 222.95879 L 1264.1789 223.95879 L 1264.5226 224.86504 L 1266.3352 225.67754 L 1267.3039 225.67754 L 1268.2102 225.77124 L 1268.1162 226.73999 L 1268.3974 227.64624 L 1268.3034 228.55249 L 1267.5847 228.80249 L 1266.6784 228.64624 L 1266.1471 228.89624 L 1266.0531 229.27124 L 1265.1468 229.70874 L 1265.5218 230.61499 L 1266.0531 231.42749 L 1267.1468 231.61499 L 1267.0528 232.52124 L 1267.5841 233.30249 L 1266.9591 234.20874 L 1266.0528 234.77124 L 1265.1465 235.48999 L 1265.5215 236.36499 L 1264.1778 237.17749 L 1263.5528 237.27119 L 1262.5528 236.36494 L 1262.5528 236.20869 L 1261.6465 236.11499 L 1260.9278 235.20874 L 1260.1153 235.11504 L 1259.2091 234.67754 L 1258.3028 233.95879 L 1257.9591 232.95879 L 1257.0528 232.67754 L 1256.1465 232.86504 L 1255.3653 233.24004 L 1254.6153 233.24004 L 1254.1778 234.20879 L 1254.8028 236.02129 L 1254.6153 236.27129 L 1253.7403 236.92754 L 1252.9903 237.80254 L 1251.6465 238.17754 L 1250.7403 238.45879 L 1250.2091 239.33379 L 1249.2403 239.80254 L 1248.6153 240.33379 L 1248.2401 241.24019 L 1247.5213 242.14644 L 1246.7089 242.05274 L 1246.9901 243.02149 L 1246.8026 243.92774 L 1247.3339 244.83399 L 1247.2399 244.92769 L 1247.1459 245.02139 L 1246.2397 245.20889 L 1245.2709 244.55264 L 1244.5522 243.58389 L 1244.1772 242.67764 L 1243.3647 241.77139 L 1243.2085 240.77139 L 1242.9272 240.77139 L 1242.0209 240.95889 L 1241.3022 240.86519 L 1240.5835 241.77144 L 1240.2397 242.67769 L 1238.9585 242.86519 L 1238.0522 243.11519 L 1237.0835 242.67769 L 1234.8335 242.58399 L 1233.9272 242.49029 L 1233.0209 243.02154 L 1231.8647 245.27154 L 1231.7707 245.45904 L 1231.1457 246.67779 L 1230.6145 247.70904 L 1230.9583 247.89654 L 1231.0523 248.08404 L 1231.1463 248.17774 L 1231.2403 248.24024 L 1231.2403 249.14649 L 1232.3965 249.33399 L 1233.1153 251.20899 L 1232.1153 252.02149 L 1231.7715 253.02149 L 1231.1465 253.64649 L 1231.0525 253.74019 L 1231.0525 253.92769 L 1229.9588 253.92769 L 1229.0525 254.36519 L 1228.8962 255.36519 L 1228.2712 255.80269 L 1227.8962 256.80269 L 1228.2712 257.70894 L 1228.3652 258.33394 L 1228.084 259.24019 L 1227.1777 260.86519 L 1227.2717 261.02144 L 1227.6155 261.92769 L 1227.0843 262.83394 L 1226.928 263.83394 L 1226.99 264.08394 L 1225.8338 263.83394 L 1225.49 263.99019 L 1224.5838 263.92769 L 1224.0212 264.89644 L 1223.0525 264.99014 L 1222.865 265.89639 L 1224.2088 266.80264 L 1226.115 268.67764 L 1226.99 269.58389 L 1227.5525 269.77139 L 1228.5212 269.14639 L 1229.4275 269.77139 L 1230.5212 270.02139 L 1231.1462 270.64639 L 1231.4275 270.92764 L 1232.3025 271.39639 L 1233.0212 271.45889 L 1233.9275 272.17764 L 1234.9275 272.36514 L 1235.2712 273.17764 L 1237.0838 272.83389 L 1238.0525 272.83389 L 1238.5212 273.17764 L 1239.4275 274.08389 L 1237.615 274.70889 L 1237.8962 274.99014 L 1237.9902 275.95889 L 1237.3652 276.86514 L 1237.084 276.77144 L 1236.99 276.95894 L 1236.8025 277.86519 L 1237.4275 278.77144 L 1237.99 279.11519 L 1237.4475 280.89654 L 1234.802 283.15922 L 1234.4083 284.62537 L 1233.4748 284.83753 L 1232.5658 287.34919 L 1233.334 289.60858 L 1234.4008 290.63756 L 1233.5757 293.28624 L 1230.8646 294.18085 L 1229.6241 295.38951 L 1228.4225 295.9682 L 1229.3466 296.87094 L 1230.7251 296.96574 L 1233.0395 297.96795 C 1233.6925 297.76996 1234.3455 297.86001 1234.9985 297.99085 L 1236.0268 298.57908 L 1237.0155 297.46432 L 1238.3808 297.29855 L 1238.9254 298.97317 L 1238.116 300.42006 L 1238.8594 302.16186 L 1237.3647 302.87846 L 1236.5881 303.54835 L 1234.492 304.04938 C 1234.464 304.83849 1234.8688 305.73576 1234.2481 306.37665 L 1235.2754 306.76267 L 1234.0086 309.02585 L 1232.8912 309.22449 L 1231.8498 312.05129 L 1231.9308 313.85711 L 1234.67 316.21417 L 1235.4214 318.24238 L 1235.4354 320.4305 L 1234.6727 322.27822 L 1234.6587 323.97549 L 1233.292 325.90987 C 1233.5343 327.21795 1233.3987 329.58608 1233.3987 329.58608 L 1232.5946 331.85798 L 1232.8493 334.4814 L 1229.9639 334.27676 L 1226.0498 334.66551 L 1225.9294 333.84902 L 1223.7948 331.49348 L 1221.9315 327.47105 L 1221.2291 327.10734 L 1221.4144 325.96454 L 1219.6372 325.80837 L 1213.0622 321.95298 L 1202.9075 321.00455 L 1200.5623 320.70033 L 1199.659 318.88549 L 1201.1948 315.61712 L 1200.9977 311.76767 L 1198.5847 308.03719 L 1197.9569 306.28878 L 1196.9476 305.07312 L 1195.0985 304.94883 L 1194.1794 303.94791 L 1192.2556 304.01411 L 1190.3328 302.92494 L 1189.7439 301.69474 L 1187.0218 300.71494 L 1187.5528 299.87063 L 1186.158 299.01146 L 1188.584 298.63446 L 1188.978 297.62246 L 1192.223 296.74346 L 1194.447 295.54746 L 1194.345 294.26346 Z"/>
    <path id="path81042" fill="#3e73c5" fill-opacity="0.42857145" stroke="#000000" stroke-opacity="0.24675323" stroke-linecap="round" stroke-linejoin="round" transform="matrix(1 0 0 1 0.5 1.2670726)" d="M 1267.5839 435.1777 L 1266.9589 435.70895 L 1266.0526 436.0527 L 1265.9586 436.1464 L 1265.6148 436.1464 L 1265.3336 437.1464 L 1265.4276 437.3339 L 1265.4276 437.4276 L 1264.5213 437.8651 L 1263.5526 438.3026 L 1263.0839 438.58385 L 1262.6463 438.3026 L 1262.7403 437.8651 L 1261.9903 438.0526 L 1261.4591 439.3026 L 1261.3651 439.3963 L 1261.3031 439.49 L 1260.3968 438.58375 L 1259.8656 438.0525 L 1259.2094 439.02125 L 1258.6781 438.14625 L 1258.4906 438.05255 L 1257.6156 438.92755 L 1257.2406 439.49005 L 1256.4281 439.49005 L 1255.4281 438.5838 L 1254.3656 438.1463 L 1253.8031 439.11505 L 1253.4594 439.49005 L 1252.8344 439.92755 L 1251.9281 439.74005 L 1251.6468 440.0213 L 1251.4906 439.8338 L 1251.2094 439.49005 L 1251.1154 439.49005 L 1250.5842 440.2088 L 1250.5212 440.2713 L 1250.5212 440.3025 L 1250.1775 440.64625 L 1250.1155 440.83375 L 1250.3967 441.74 L 1251.1155 442.70875 L 1251.2095 443.615 L 1251.3969 443.89625 L 1251.0219 444.615 L 1251.4907 445.615 L 1251.2095 445.865 L 1250.9282 446.0525 L 1250.7407 445.865 L 1250.5219 445.8338 L 1250.5219 445.8963 L 1249.4595 445.67755 L 1248.7407 445.77125 L 1248.5532 444.865 L 1248.3032 444.0525 L 1248.2092 444.0525 L 1247.4904 444.95875 L 1246.5842 445.39625 L 1246.2404 445.30255 L 1245.7716 446.5838 L 1245.4279 446.92755 L 1245.4279 447.4588 L 1245.8654 447.3651 L 1245.7714 447.5526 L 1244.4277 447.83385 L 1243.709 448.7401 L 1243.3652 449.9901 L 1243.2712 449.9901 L 1242.8962 449.70885 L 1242.365 449.5526 L 1241.2712 450.08385 L 1240.8338 449.99015 L 1240.49 449.99015 L 1240.6462 450.99015 L 1239.8338 451.24015 L 1238.9275 451.0839 L 1238.49 451.61515 L 1238.3025 452.5214 L 1238.0525 452.67765 L 1237.1462 452.77135 L 1236.5212 453.0526 L 1235.8025 453.1463 L 1234.8962 453.24 L 1233.99 452.615 L 1233.8025 452.865 L 1232.99 453.6775 L 1232.74 454.6775 L 1232.9275 455.49 L 1232.4588 456.365 L 1232.4588 457.365 L 1232.6462 458.365 L 1231.3025 458.89625 L 1231.3025 459.45875 L 1231.8338 459.70875 L 1232.1775 460.615 L 1232.365 461.52125 L 1232.271 461.58375 L 1232.177 462.0525 L 1233.2707 463.3025 L 1234.177 464.20875 L 1234.6145 464.9275 L 1235.052 465.64625 L 1235.9895 466.45875 L 1236.1457 466.89625 L 1235.9895 467.45875 L 1236.9583 469.4275 L 1237.5833 468.52125 L 1237.8645 469.615 L 1236.3333 470.52125 L 1236.3333 472.39625 L 1236.4273 473.3025 L 1235.6148 473.83375 L 1235.5208 474.3025 L 1234.6146 474.45875 L 1234.6146 475.5525 L 1234.8958 476.45875 L 1235.4271 477.1775 L 1236.6771 478.865 L 1237.5834 479.52125 L 1238.3021 480.24 L 1239.0208 481.58375 L 1239.2084 483.45875 L 1239.2084 484.02125 L 1239.0208 484.89625 L 1239.3021 485.89625 L 1240.3021 486.99 L 1240.3021 487.865 L 1240.6458 489.0525 L 1241.1771 490.83375 L 1240.3646 491.74 L 1240.0208 492.64625 L 1239.7396 492.9275 L 1239.3958 493.89625 L 1238.9271 494.27125 L 1238.3021 495.1775 L 1237.7708 495.4275 L 1237.3334 496.33375 L 1237.4274 496.615 L 1237.1461 497.27125 L 1237.1151 497.27125 C 1237.1051 497.25865 1237.0961 497.24795 1237.0841 497.24005 C 1237.0731 497.23805 1237.0631 497.23805 1237.0531 497.24005 C 1237.0401 497.24805 1237.0301 497.25865 1237.0221 497.27125 C 1237.0111 497.27925 1236.9991 497.28985 1236.9911 497.30245 L 1236.5536 498.2087 L 1236.2099 498.8962 L 1236.1789 498.9274 L 1235.2102 499.8649 L 1234.3664 501.1149 L 1233.3664 501.2086 L 1231.3039 502.6461 L 1231.148 502.7398 L 1231.148 521.10882 L 1229.74 521.47982 L 1228.567 521.28182 L 1225.518 521.39382 L 1220.919 518.12382 L 1219.708 519.23082 L 1221.931 523.04782 L 1223.956 525.61282 L 1227.131 528.49082 L 1229.284 530.04182 L 1231.665 532.21782 L 1229.855 535.31582 L 1223.887 532.51082 L 1223.361 533.37282 L 1227.319 535.80282 L 1231.319 541.80282 L 1231.1476 545.1148 L 1231.3039 545.3023 L 1231.3039 854.5836 L 1300.8664 854.5836 L 1300.7102 587.33355 L 1311.6476 587.33355 L 1311.6166 586.3023 L 1310.6791 585.02105 L 1310.0541 584.3648 L 1309.7728 583.0523 L 1311.3978 580.4898 L 1317.2728 580.20855 L 1319.3666 578.02105 L 1317.7416 576.4898 L 1314.3978 574.5523 L 1306.5541 571.89605 L 1307.4291 569.8648 L 1308.0541 567.4898 L 1308.6478 564.08355 L 1308.8354 562.58355 L 1309.1166 561.3648 L 1309.2416 561.4273 L 1309.9604 559.6148 L 1310.0544 558.89605 L 1311.3044 558.1773 L 1311.7731 557.27105 L 1311.8671 556.02105 L 1313.3983 555.4898 L 1313.9296 555.02105 L 1314.9296 553.2398 L 1315.2733 552.2398 L 1316.1796 551.4273 L 1316.2736 551.08355 L 1315.5549 550.1773 L 1314.8362 549.8023 L 1314.0236 548.02105 L 1313.7424 546.58355 L 1314.0236 545.58355 L 1313.2112 545.48985 L 1312.3049 546.30235 L 1312.3989 545.5836 L 1312.3989 543.67735 L 1312.7427 542.80235 L 1311.8677 542.23985 L 1311.4302 542.23985 L 1309.5239 542.80235 L 1308.6177 542.5211 L 1306.7427 542.8961 L 1307.4615 541.98985 L 1307.1802 541.0836 L 1308.0865 540.2711 L 1308.7115 539.36485 L 1308.7115 539.17735 L 1308.8055 538.92735 L 1308.2401 538.7402 L 1307.3651 538.9277 L 1306.2713 539.7402 L 1304.3026 539.1152 L 1303.3026 538.83395 L 1303.1151 538.20895 L 1300.8651 538.30265 L 1300.6151 538.30265 L 1299.7089 538.6464 L 1299.5213 539.11515 L 1299.1776 540.0839 L 1298.2713 540.2714 L 1297.2713 540.80265 L 1296.3651 541.0839 L 1295.4901 540.7089 L 1294.5839 540.6464 L 1293.3026 540.8964 L 1292.3339 541.42765 L 1291.4276 541.36515 L 1290.5213 540.6464 L 1290.1776 540.0839 L 1289.2713 539.55265 L 1289.0839 539.11515 L 1288.3651 538.6464 L 1287.2089 536.7714 L 1287.6463 535.86515 L 1287.5213 522.2089 L 1265.8963 522.2089 L 1265.8963 539.17765 L 1265.2089 539.6464 L 1261.7089 539.6464 L 1260.4589 540.11515 L 1259.2401 540.14635 L 1257.1776 539.39635 L 1236.6151 522.20885 L 1233.8963 517.77135 L 1243.0213 515.3026 L 1243.8339 516.3651 L 1243.3651 515.70885 L 1243.4591 515.70885 L 1243.8341 514.3651 L 1244.3653 514.6151 L 1244.6465 515.1776 L 1244.8028 515.1776 L 1245.7091 515.52135 L 1246.2403 515.42765 L 1246.8965 516.24015 L 1247.8028 516.5214 L 1248.0528 517.1464 L 1247.9588 518.05265 L 1247.5212 518.67765 L 1247.6152 518.86515 L 1248.4902 519.2089 L 1249.3027 518.49015 L 1249.8652 518.24015 L 1250.7402 518.7714 L 1251.7402 518.3964 L 1252.1152 517.5839 L 1252.6464 516.61515 L 1252.6464 516.58395 L 1252.6464 516.52145 L 1252.8652 516.58395 L 1265.8964 516.52145 L 1300.709 516.2402 L 1300.8652 475.6152 L 1280.4902 465.6777 L 1280.4902 444.4902 L 1279.9277 444.08395 L 1279.0214 443.52145 L 1278.7402 443.61515 L 1278.209 443.80265 L 1277.6777 443.89635 L 1277.5837 443.52135 L 1277.0524 443.8026 L 1276.9274 443.52135 L 1276.2399 443.27135 L 1275.4899 442.8026 L 1275.0524 442.27135 L 1274.9584 441.9901 L 1273.9896 441.9901 L 1273.8021 440.9276 L 1273.3334 440.02135 L 1273.3334 439.58385 L 1273.4274 439.58385 L 1273.4274 439.49015 L 1274.0524 439.0214 L 1274.5211 438.1464 L 1274.3337 437.9589 L 1273.8961 437.5839 L 1273.1774 437.3339 L 1272.8961 437.5839 L 1271.9899 437.6776 L 1271.8024 437.2401 L 1270.9899 437.0526 L 1270.7399 437.33385 L 1270.3024 437.33385 L 1269.2087 436.77135 L 1268.7399 436.52135 L 1268.5837 436.14635 L 1267.9274 435.6151 L 1267.5837 435.1776 Z"/>
    <path id="path81040" fill="#3e73c5" fill-opacity="0.42857145" stroke="#000000" stroke-opacity="0.24675323" stroke-linecap="round" stroke-linejoin="round" transform="matrix(1 0 0 1 0.5 1.2670726)" d="M 1236.3339 499.02145 C 1236.3439 499.02345 1236.3549 499.02345 1236.3649 499.02145 C 1236.3379 499.10245 1236.3289 499.1896 1236.3029 499.27145 L 1236.2089 499.14645 C 1236.2189 499.14845 1236.2299 499.14845 1236.2399 499.14645 L 1236.2399 499.11525 L 1236.3339 499.05275 C 1236.3348 499.04235 1236.3339 499.03185 1236.3339 499.02155 Z"/>
    <path id="path81038" fill="#3e73c5" fill-opacity="0.42857145" stroke="#000000" stroke-opacity="0.24675323" stroke-linecap="round" stroke-linejoin="round" transform="matrix(1 0 0 1 0.5 1.2670726)" d="M 1254.7089 518.3027 L 1255.6151 519.20895 L 1256.5213 519.7402 Z"/>
    <path id="path2546" fill="#3e73c5" fill-opacity="0.42857145" stroke="#000000" stroke-opacity="0.24675323" stroke-linecap="round" stroke-linejoin="round" transform="matrix(1 0 0 1 0.5 1.2670726)" d="M 1309.4276 560.4277 L 1309.1463 561.08395 L 1309.2403 560.70895 L 1309.4278 560.4277 Z"/>
    <path id="path81287" fill="#8cce55" stroke="#0f380f" stroke-opacity="0.14509804" stroke-linecap="round" stroke-linejoin="round" transform="matrix(1 0 0 1 0.5 1.2670726)" d="M 1267.5938 435.25 L 1267 435.75 L 1266.0938 436.09375 L 1265.9998 436.18745 C 1265.9898 436.20205 1265.9828 436.21365 1265.9688 436.21865 L 1265.6562 436.21865 L 1265.4062 437.15615 L 1265.4692 437.3124 C 1265.4832 437.3174 1265.4952 437.329 1265.5002 437.3436 L 1265.5002 437.4373 C 1265.4902 437.4519 1265.4832 437.4635 1265.4692 437.4685 L 1264.5629 437.906 L 1263.5942 438.3435 L 1263.1254 438.62475 C 1263.1154 438.63935 1263.1084 438.65095 1263.0944 438.65595 C 1263.0794 438.65095 1263.0684 438.63935 1263.0634 438.62475 L 1262.6259 438.3435 C 1262.6109 438.3385 1262.5999 438.3269 1262.5949 438.3123 L 1262.6569 437.96855 L 1262.0319 438.1248 L 1262.0009 438.1248 L 1261.5009 439.34355 L 1261.4069 439.43725 L 1261.3449 439.53095 C 1261.3349 439.54555 1261.3279 439.55715 1261.3139 439.56215 C 1261.2989 439.55715 1261.2879 439.54555 1261.2829 439.53095 L 1260.3767 438.6247 L 1259.8767 438.1247 L 1259.2517 439.0622 C 1259.2417 439.0768 1259.2347 439.0884 1259.2207 439.0934 C 1259.2057 439.0884 1259.1947 439.0768 1259.1897 439.0622 L 1258.6584 438.1872 L 1258.5022 438.1247 L 1257.6584 438.96845 L 1257.2834 439.53095 C 1257.2834 439.54555 1257.2664 439.55715 1257.2524 439.56215 L 1256.4399 439.56215 C 1256.4249 439.55715 1256.4139 439.54555 1256.4089 439.53095 L 1255.4089 438.6247 L 1254.4089 438.21845 L 1253.8465 439.15595 L 1253.5027 439.53095 L 1252.8777 439.96845 C 1252.8677 439.98305 1252.8607 439.99465 1252.8467 439.99965 L 1251.9404 439.81215 L 1251.6904 440.06215 C 1251.6804 440.07675 1251.6734 440.08835 1251.6594 440.09335 C 1251.6454 440.08835 1251.6334 440.07675 1251.6284 440.06215 L 1251.4722 439.87465 L 1251.2222 439.56215 L 1251.1282 439.56215 L 1250.6282 440.24965 L 1250.5972 440.28085 L 1250.5972 440.31205 C 1250.5872 440.31505 1250.5762 440.31505 1250.5662 440.31205 L 1250.5662 440.34325 L 1250.2537 440.65575 L 1250.2227 440.68695 L 1250.1917 440.8432 L 1250.473 441.74945 L 1251.1604 442.68695 C 1251.1754 442.69195 1251.1864 442.70355 1251.1914 442.71815 L 1251.2854 443.6244 L 1251.4417 443.8744 C 1251.4567 443.8794 1251.4677 443.891 1251.4727 443.9056 C 1251.4627 443.9202 1251.4557 443.9318 1251.4417 443.9368 L 1251.0667 444.6243 L 1251.5354 445.59305 C 1251.5504 445.59805 1251.5614 445.60965 1251.5664 445.62425 C 1251.5564 445.63885 1251.5504 445.65045 1251.5354 445.65545 L 1251.2542 445.90545 L 1250.973 446.09295 C 1250.963 446.10755 1250.956 446.11915 1250.942 446.12415 C 1250.927 446.11915 1250.916 446.10755 1250.911 446.09295 L 1250.7548 445.9367 L 1250.5986 445.9055 C 1250.5886 445.9201 1250.5816 445.9317 1250.5676 445.9367 C 1250.5576 445.9513 1250.5516 445.9629 1250.5366 445.9679 L 1249.4742 445.74915 L 1248.7554 445.84285 C 1248.7404 445.83785 1248.7284 445.82625 1248.7244 445.81165 C 1248.7094 445.80665 1248.6984 445.79505 1248.6934 445.78045 L 1248.5059 444.8742 L 1248.2871 444.1242 L 1248.2251 444.1242 L 1247.5375 444.9992 L 1246.6313 445.4367 C 1246.6213 445.4513 1246.6143 445.4629 1246.6003 445.4679 L 1246.2877 445.3742 L 1245.8503 446.6242 C 1245.8403 446.6272 1245.8293 446.6272 1245.8193 446.6242 L 1245.5068 446.9367 L 1245.5068 447.40545 L 1245.8818 447.31175 C 1245.8968 447.31675 1245.9078 447.32835 1245.9128 447.34295 C 1245.9278 447.34795 1245.9388 447.35955 1245.9438 447.37415 C 1245.9338 447.38875 1245.9268 447.40035 1245.9128 447.40535 L 1245.8818 447.43655 L 1245.8198 447.5928 C 1245.8098 447.6074 1245.8038 447.619 1245.7888 447.624 L 1244.4451 447.90525 L 1243.7888 448.749 L 1243.4451 449.999 C 1243.4351 450.0136 1243.4281 450.0252 1243.4141 450.0302 C 1243.4141 450.0448 1243.3981 450.0564 1243.3831 450.0614 L 1243.2891 450.0614 C 1243.2751 450.0564 1243.2631 450.0448 1243.2581 450.0302 L 1242.9143 449.7802 L 1242.3831 449.62395 L 1241.3206 450.12395 C 1241.3106 450.13855 1241.3046 450.15015 1241.2896 450.15515 L 1240.8522 450.06145 L 1240.5709 450.06145 L 1240.7272 450.99895 C 1240.7172 451.01355 1240.7102 451.02515 1240.6962 451.03015 C 1240.6862 451.04475 1240.6792 451.05635 1240.6652 451.06135 L 1239.8528 451.31135 L 1238.9465 451.1551 L 1238.5715 451.62385 L 1238.384 452.5301 C 1238.374 452.5447 1238.367 452.5563 1238.353 452.5613 L 1238.103 452.71755 C 1238.093 452.73215 1238.086 452.74375 1238.072 452.74875 L 1237.1657 452.84245 L 1236.572 453.09245 C 1236.562 453.10705 1236.556 453.11865 1236.541 453.12365 L 1235.8223 453.21735 L 1234.916 453.31105 C 1234.902 453.30605 1234.89 453.29445 1234.885 453.27985 L 1234.01 452.6861 L 1233.8538 452.90485 L 1233.0725 453.6861 L 1232.8225 454.6861 L 1233 455.5 C 1232.99 455.5148 1232.983 455.5262 1232.969 455.5312 L 1232.5314 456.37495 L 1232.5314 457.37495 L 1232.719 458.37495 C 1232.709 458.38955 1232.702 458.40115 1232.688 458.40615 L 1231.3755 458.90615 L 1231.3755 458.93735 L 1231.3755 459.43735 L 1231.3755 459.46855 L 1231.8755 459.6873 L 1232.2193 460.59355 C 1232.2333 460.59855 1232.2453 460.61015 1232.2503 460.62475 L 1232.4378 461.531 C 1232.4278 461.5456 1232.4208 461.5572 1232.4068 461.5622 L 1232.3448 461.5934 L 1232.2508 462.06215 L 1233.3133 463.2809 L 1234.2196 464.18715 L 1234.657 464.9059 L 1235.0946 465.62465 L 1236.032 466.43715 L 1236.1883 466.87465 C 1236.2033 466.87965 1236.2143 466.89125 1236.2193 466.90585 L 1236.063 467.46835 L 1236.9693 469.34335 L 1237.5317 468.53085 L 1237.5627 468.49965 C 1237.5727 468.48505 1237.5797 468.47345 1237.5937 468.46845 C 1237.6077 468.47345 1237.6197 468.48505 1237.6247 468.49965 C 1237.6397 468.50465 1237.6507 468.51625 1237.6557 468.53085 L 1237.937 469.6246 C 1237.927 469.6392 1237.92 469.6508 1237.906 469.6558 L 1236.406 470.5308 L 1236.406 472.4058 L 1236.5 473.31205 C 1236.49 473.32665 1236.483 473.33825 1236.469 473.34325 L 1235.6877 473.84325 L 1235.5937 474.312 C 1235.5837 474.3266 1235.5767 474.3382 1235.5627 474.3432 C 1235.5527 474.3578 1235.5467 474.3694 1235.5317 474.3744 L 1234.688 474.53065 L 1234.688 475.5619 L 1234.9693 476.46815 L 1235.4693 477.15565 L 1236.7193 478.84315 L 1237.6255 479.4994 L 1238.3443 480.21815 L 1239.063 481.5619 C 1239.078 481.5669 1239.089 481.5785 1239.094 481.5931 L 1239.2814 483.4681 L 1239.2814 484.0306 L 1239.094 484.9056 L 1239.3752 485.9056 L 1240.344 486.9681 C 1240.358 486.9731 1240.37 486.9847 1240.375 486.9993 L 1240.375 487.8743 L 1240.7188 489.0618 L 1241.25 490.84305 C 1241.24 490.85765 1241.233 490.86925 1241.219 490.87425 L 1240.4064 491.7805 L 1240.0627 492.68675 L 1239.7814 492.968 L 1239.4377 493.93675 L 1238.969 494.31175 L 1238.344 495.218 L 1237.8127 495.468 L 1237.4064 496.31175 L 1237.5004 496.593 L 1237.5004 496.6242 C 1237.4904 496.6388 1237.4834 496.6504 1237.4694 496.6554 L 1237.1881 497.31165 C 1237.1781 497.32625 1237.1711 497.33785 1237.1571 497.34285 L 1237.1261 497.34285 C 1237.1111 497.33785 1237.1001 497.32625 1237.0951 497.31165 L 1237.0321 497.43665 C 1236.4637 499.12539 1235.9896 500.72041 1235.3134 502.37415 L 1235.3134 503.2804 L 1234.9697 504.18665 L 1234.5009 506.06165 L 1234.7821 506.9679 L 1236.6571 506.68665 L 1236.9384 507.31165 L 1238.5634 508.93665 L 1238.5634 509.8429 L 1239.4697 510.0304 L 1239.7197 510.74915 L 1241.0009 511.6554 L 1241.3447 512.5304 L 1241.6259 512.4679 L 1241.5319 513.24915 L 1242.9695 515.24915 L 1243.0315 515.24915 C 1243.0465 515.25415 1243.0575 515.26575 1243.0625 515.28035 L 1243.375 515.65535 L 1243.469 515.65535 L 1243.8127 514.40535 L 1243.8127 514.37415 L 1243.8127 514.34295 C 1243.8227 514.32835 1243.8297 514.31675 1243.8437 514.31175 C 1243.8577 514.31675 1243.8697 514.32835 1243.8747 514.34295 L 1243.9057 514.37415 L 1244.4057 514.5929 C 1244.4157 514.5899 1244.4267 514.5899 1244.4367 514.5929 L 1244.6867 515.12415 L 1244.8117 515.12415 C 1244.8217 515.12115 1244.8327 515.12115 1244.8427 515.12415 L 1245.7177 515.4679 L 1245.7487 515.4679 L 1246.2487 515.3742 C 1246.2637 515.3792 1246.2757 515.3909 1246.2797 515.4054 L 1246.936 516.18665 L 1247.8423 516.4679 L 1247.8423 516.4991 C 1247.8523 516.4961 1247.8633 516.4961 1247.8733 516.4991 L 1248.1233 517.1241 L 1248.1233 517.1553 L 1248.0293 518.06155 C 1248.0293 518.07615 1248.0123 518.08775 1247.9983 518.09275 L 1247.5921 518.65525 L 1247.6541 518.8115 L 1247.6851 518.8427 L 1248.4976 519.1552 L 1248.5286 519.1552 L 1249.2786 518.4677 L 1249.8412 518.2177 C 1249.8412 518.2031 1249.8582 518.1915 1249.8722 518.1865 C 1249.8872 518.1915 1249.8982 518.2031 1249.9032 518.2177 L 1250.747 518.7177 L 1251.7158 518.37395 L 1251.7158 518.34275 L 1251.7468 518.34275 L 1252.0906 517.5615 L 1252.5906 516.624 L 1252.5906 516.5928 L 1251.6843 515.87405 L 1250.8718 515.06155 L 1250.2468 514.1553 L 1249.3406 513.5303 L 1247.8406 513.7178 L 1246.9343 513.3428 L 1246.028 512.62405 L 1245.1218 512.4678 L 1243.778 510.74905 L 1243.4968 509.8428 L 1243.778 509.4678 L 1244.153 510.37405 L 1244.8406 511.37405 L 1244.7776 510.37405 L 1244.1526 506.87405 L 1243.5902 505.9678 L 1243.6842 506.5928 L 1242.8717 505.7803 L 1242.3405 503.0928 L 1241.7779 502.2803 L 1240.9029 502.4678 L 1239.9967 502.9053 L 1238.9029 500.12405 L 1238.9029 499.12405 L 1239.0905 498.1553 L 1239.5279 497.24905 L 1239.5279 496.3428 L 1240.1842 495.43655 L 1241.3405 491.6553 L 1241.9655 490.74905 L 1242.2467 489.87405 L 1242.8717 488.9678 L 1242.8717 487.7803 L 1242.6842 486.7178 L 1243.2467 484.9053 L 1242.6842 483.6553 L 1243.2467 483.0303 L 1244.1529 482.56155 L 1245.0279 482.65525 L 1245.5905 482.124 L 1246.7467 482.749 L 1247.4655 482.6553 L 1247.0905 483.74905 L 1247.0275 486.0928 L 1247.3713 486.7178 L 1248.2775 486.5303 L 1248.6525 486.624 L 1249.5275 486.8115 L 1251.1525 486.4365 L 1251.9651 486.90525 L 1252.3401 487.34275 L 1252.4963 487.34275 L 1253.2463 488.249 L 1253.8088 487.96775 L 1253.9651 488.874 L 1254.7775 488.6865 L 1255.6838 489.499 L 1256.3088 490.749 L 1256.4028 491.40525 L 1256.3088 490.499 L 1256.6838 491.40525 L 1257.0275 491.40525 L 1256.7463 491.84275 L 1257.0275 491.65525 L 1257.4963 492.124 L 1257.3088 494.8115 L 1257.6525 494.999 L 1258.5588 494.999 L 1258.9338 494.09275 L 1259.3713 493.65525 L 1259.9963 494.53025 L 1259.9963 495.624 L 1259.3713 495.8115 L 1259.3713 496.4365 L 1260.3713 496.624 L 1260.9963 496.15525 L 1262.8713 496.874 L 1263.0588 496.7803 L 1263.6838 497.24905 L 1263.8713 497.15535 L 1263.7773 497.34285 L 1264.2461 498.2491 L 1265.1211 498.0616 L 1266.4961 499.03035 L 1266.5581 499.78035 L 1265.6831 499.84285 L 1265.4018 500.7491 L 1265.2144 502.1866 L 1265.1204 504.53035 L 1265.7454 504.62405 L 1265.9329 505.06155 L 1265.0579 505.5303 L 1265.9329 505.7178 L 1266.8392 505.24905 L 1267.9329 503.99905 L 1267.9949 503.7178 L 1268.9011 502.99905 L 1270.9011 502.2803 L 1271.4324 501.8428 L 1271.4324 500.93655 L 1269.9011 499.0303 L 1270.6199 499.5928 L 1271.4324 500.49905 L 1272.4324 501.12405 L 1273.3074 500.93655 L 1273.0574 500.0303 L 1271.8074 498.7803 L 1271.2449 497.9678 L 1273.3074 499.7803 L 1273.0574 499.0303 L 1272.0574 497.87405 L 1272.3387 497.96775 L 1272.9637 498.874 L 1273.3074 499.03025 L 1273.7761 499.03025 L 1273.9324 498.6865 L 1273.0574 497.78025 L 1272.6824 497.59275 L 1273.5887 497.68645 L 1273.6827 496.87395 L 1274.214 495.9052 L 1274.839 496.06145 L 1275.214 495.81145 L 1275.4014 496.7177 L 1276.839 496.9677 L 1277.7452 496.7177 L 1279 496 L 1279.9062 495.8125 L 1280.3438 495 L 1280.6875 494.71875 L 1281.5938 494.53125 L 1282.4062 493.65625 L 1284.125 492.84375 L 1284.75 491.9375 L 1284.656 491.8438 L 1285.656 491.0313 L 1285.1873 490.50005 L 1285.5623 489.5938 L 1285.6563 488.68755 L 1285.3751 488.43755 L 1285.5626 488.43755 L 1285.3751 487.5313 L 1285.8439 487.3438 L 1285.6563 486.5313 L 1286.5626 486.625 L 1286.4686 485.71875 L 1286.7498 485.5625 L 1286.281 484.65625 L 1286.0936 484.65625 L 1286.0936 483.75 L 1285.7498 482.84375 L 1285.6558 479.875 L 1285.0308 477.34375 L 1284.0308 474.84375 L 1284.0308 473.9375 L 1283.5934 474.0312 L 1283.4994 473.6562 L 1282.8744 473.31245 L 1281.8744 471.49995 L 1281.6869 471.40625 L 1281.1556 470.53125 L 1281.1556 470.59375 L 1280.8744 470.78125 L 1281.0619 470.53125 L 1280.6869 469.875 L 1279.4369 469.4375 L 1278.8119 468.53125 L 1278.4369 468.43755 L 1277.4682 467.7188 L 1277.5622 467.56255 L 1276.6559 466.8438 L 1276.0309 466.6563 L 1275.9369 465.75005 L 1274.4056 464.5938 L 1273.6869 463.7813 L 1273.1556 462.87505 L 1272.9682 462.68755 L 1272.8742 462.68755 L 1272.4367 462.68755 L 1272.4677 462.62505 L 1272.7489 462.62505 L 1272.8739 462.68755 L 1272.8739 461.7813 L 1273.0614 461.43755 L 1271.2489 460.0938 L 1270.2489 459.00005 L 1269.8114 458.0938 L 1269.5614 458.0938 L 1268.9989 456.31255 L 1269.8114 455.12505 L 1269.8114 453.50005 L 1270.0927 452.7813 L 1270.6239 451.9063 L 1271.1551 451.62505 L 1271.6239 451.62505 L 1273.0614 450.2813 L 1272.9674 450.1876 L 1273.4048 449.28135 L 1273.4048 448.46885 L 1273.8736 448.28135 L 1274.0611 447.7501 L 1273.9361 447.46885 L 1274.2174 447.1251 L 1273.8736 447.0314 L 1273.6861 446.75015 L 1274.5924 447.2189 L 1275.4986 446.8439 L 1275.6548 447.0314 L 1276.5611 446.8439 L 1276.9986 445.93765 L 1276.9986 445.68765 L 1277.3736 445.59395 L 1277.3736 445.50025 L 1277.4676 445.50025 L 1277.4046 445.53145 L 1277.4986 446.34395 L 1277.5926 445.5002 L 1277.905 445.4065 L 1278.8113 444.7815 L 1280.2488 444.50025 L 1279.905 444.1565 L 1279.905 444.1253 L 1279.0613 443.59405 L 1278.78 443.65655 L 1278.2488 443.84405 C 1278.2388 443.85865 1278.2318 443.87025 1278.2178 443.87525 L 1277.6865 443.96895 C 1277.6715 443.96395 1277.6605 443.95235 1277.6555 443.93775 L 1277.6555 443.90655 L 1277.5615 443.59405 L 1277.0928 443.84405 C 1277.0828 443.84705 1277.0718 443.84705 1277.0618 443.84405 C 1277.0518 443.84705 1277.0408 443.84705 1277.0308 443.84405 L 1276.9058 443.5628 L 1276.2496 443.3128 C 1276.2396 443.3158 1276.2286 443.3158 1276.2186 443.3128 L 1275.4686 442.84405 L 1275.031 442.3128 L 1275.031 442.2816 L 1274.969 442.06285 L 1274.0002 442.06285 C 1273.9852 442.05785 1273.9732 442.04625 1273.9692 442.03165 L 1273.9692 442.00045 L 1273.7816 440.93795 L 1273.3129 440.06295 L 1273.3129 440.03175 C 1273.3029 440.03475 1273.2919 440.03475 1273.2819 440.03175 L 1273.2819 439.59425 C 1273.2919 439.59125 1273.3029 439.59125 1273.3129 439.59425 L 1273.3129 439.56305 C 1273.3229 439.54845 1273.3299 439.53685 1273.3439 439.53185 L 1273.3749 439.53185 L 1273.3749 439.50065 C 1273.3849 439.48605 1273.3919 439.47445 1273.4059 439.46945 L 1274.0309 439.0007 L 1274.4685 438.15695 L 1274.3122 438.0007 L 1273.9059 437.6257 L 1273.2185 437.3757 L 1273.1875 437.3757 L 1272.9375 437.6257 C 1272.9275 437.6403 1272.9205 437.6519 1272.9065 437.6569 L 1272 437.75 C 1271.985 437.745 1271.974 437.7336 1271.969 437.7188 L 1271.8127 437.31255 L 1271.7817 437.31255 L 1271.0005 437.12505 L 1270.7817 437.37505 C 1270.7817 437.38965 1270.7647 437.40125 1270.7507 437.40625 L 1270.3132 437.40625 C 1270.2982 437.40125 1270.2872 437.38965 1270.2822 437.37505 L 1269.1885 436.81255 L 1268.7198 436.56255 L 1268.5635 436.18755 L 1267.9072 435.6563 L 1267.5948 435.25005 Z"/>
    <path id="path81285" fill="#8cce55" stroke="#0f380f" stroke-opacity="0.14509804" stroke-linecap="round" stroke-linejoin="round" transform="matrix(1 0 0 1 0.5 1.2670726)" d="M 1235.0312 507.53125 L 1234.9372 508.53125 L 1235.1247 509.40625 L 1235.4685 508.53125 L 1235.1872 507.625 L 1235.0309 507.5313 Z"/>
    <path id="path81283" fill="#8cce55" stroke="#0f380f" stroke-opacity="0.14509804" stroke-linecap="round" stroke-linejoin="round" transform="matrix(1 0 0 1 0.5 1.2670726)" d="M 1254.7188 518.3125 L 1255.625 519.21875 L 1256.5312 519.75 L 1254.7188 518.3125 Z"/>
    <path id="path81281" fill="#8cce55" stroke="#0f380f" stroke-opacity="0.14509804" stroke-linecap="round" stroke-linejoin="round" transform="matrix(1 0 0 1 0.5 1.2670726)" d="M 1221.6875 519.3125 L 1220.8125 520.03125 L 1220.7185 520.9375 L 1222.1559 523.625 L 1223.8747 525.34375 L 1225.6559 526.875 L 1226.3747 527.78125 L 1228.1872 528.3125 L 1229.0622 529.125 L 1230.8747 531.90625 L 1231.7809 532.28125 L 1232.0622 533.1875 L 1232.0622 534.15625 L 1232.8747 535.0625 L 1233.7497 535.1562 L 1235.6559 536.2187 L 1236.5622 537.12495 L 1237.4372 538.0312 L 1237.2809 538.93745 L 1238.8747 543.43745 L 1238.9687 544.3437 L 1239.7811 544.4062 L 1241.5937 545.49995 L 1241.8749 546.4062 L 1242.4999 547.31245 L 1244.4687 549.4687 L 1244.9061 551.24995 L 1246.6249 553.9687 L 1246.9999 554.93745 L 1246.9999 555.8437 L 1247.6249 557.0312 L 1248.6249 557.8437 L 1249.4061 558.81245 L 1250.4999 560.62495 L 1253.2811 562.49995 L 1253.9999 564.31245 L 1256.7187 566.4687 L 1260.5624 568.9062 L 1261.9374 570.68745 L 1262.8124 571.4062 L 1262.8124 571.68745 L 1263.7187 572.4062 L 1263.9999 572.93745 L 1264.1874 573.03115 L 1264.4374 572.1249 L 1263.9061 571.2499 L 1264.8124 571.2499 L 1266.5937 572.3124 L 1266.9687 571.40615 L 1267.8749 571.34365 L 1268.7499 571.8749 L 1269.4061 572.78115 L 1269.8437 571.8749 L 1270.3124 568.28115 L 1270.3124 566.3749 L 1269.8437 565.46865 L 1269.9377 564.7499 L 1270.3127 563.8749 L 1270.0314 562.0624 L 1270.3752 561.15615 L 1271.0002 560.2499 L 1270.844 559.3749 L 1269.9377 558.9999 L 1269.7502 558.09365 L 1268.9377 557.1874 L 1267.9377 556.5624 L 1267.0627 556.3749 L 1265.6877 556.4686 L 1264.0002 558.2811 L 1264.6252 557.4686 L 1264.8127 556.56235 L 1264.4377 556.46865 L 1265.344 555.84365 L 1265.438 554.9374 L 1264.438 554.6874 L 1264.0005 553.78115 L 1263.563 552.6249 L 1263.3755 550.8124 L 1261.4693 550.1874 L 1260.563 550.2811 L 1258.7817 548.99985 L 1258.7817 548.12485 L 1258.5943 547.56235 L 1259.5005 547.65605 L 1258.4067 547.21855 L 1259.063 546.3123 L 1260.0317 545.59355 L 1260.563 545.49985 L 1260.4067 544.9686 L 1258.688 543.06235 L 1257.7817 543.24985 L 1256.8755 543.9686 L 1255.0943 544.5936 L 1254.188 544.3436 L 1255.438 544.3436 L 1256.3443 543.9686 L 1257.2505 543.3436 L 1256.6255 542.43735 L 1255.7193 542.1561 L 1254.813 542.1561 L 1253.9067 541.5311 L 1253.1255 540.6561 L 1252.8443 539.6561 L 1252.1255 538.74985 L 1251.2193 537.93735 L 1250.313 537.84365 L 1249.4067 537.4999 L 1249.063 536.59365 L 1248.438 535.59365 L 1247.5317 534.8749 L 1246.6255 535.2499 L 1247.063 536.15615 L 1247.2505 537.03115 L 1246.438 535.96865 L 1245.563 535.4999 L 1244.6567 534.6249 L 1244.3755 533.71865 L 1243.4693 533.81235 L 1242.938 532.9061 L 1242.938 532.4686 L 1241.8755 530.99985 L 1240.9693 530.56235 L 1239.1567 529.0311 L 1237.3755 528.2186 L 1235.563 526.5936 L 1234.8443 525.7186 L 1234.9383 525.43735 L 1234.3758 524.5311 L 1233.5008 523.62485 L 1233.1258 522.74985 L 1232.2196 522.0936 L 1231.3133 521.12485 L 1229.9696 521.6561 C 1227.587 519.91482 1227.6896 522.44735 1224.5008 520.6561 L 1223.5008 519.74985 L 1222.5946 519.4061 L 1221.6883 519.3124 Z"/>
    <path id="path81279" fill="#8cce55" stroke="#0f380f" stroke-opacity="0.14509804" stroke-linecap="round" stroke-linejoin="round" transform="matrix(1 0 0 1 0.5 1.2670726)" d="M 1281 525.875 L 1280.0938 526.6875 L 1280.2812 527.6875 L 1280.9062 528.5 L 1281.8125 527.6875 L 1281.5312 526.78125 L 1281 525.875 Z"/>
    <path id="path81277" fill="#8cce55" stroke="#0f380f" stroke-opacity="0.14509804" stroke-linecap="round" stroke-linejoin="round" transform="matrix(1 0 0 1 0.5 1.2670726)" d="M 1269.3125 531.375 L 1269.4065 532.375 L 1269.6565 532.2813 L 1269.3128 531.37505 Z"/>
    <path id="path81275" fill="#8cce55" stroke="#0f380f" stroke-opacity="0.14509804" stroke-linecap="round" stroke-linejoin="round" transform="matrix(1 0 0 1 0.5 1.2670726)" d="M 1224.0312 532.28125 L 1223.125 532.37495 L 1223.4062 533.24995 L 1225.2188 533.9687 L 1225.8438 534.5312 L 1226.6562 534.5312 L 1225.8438 533.62495 L 1224.9375 533.18745 L 1224.0312 532.2812 Z"/>
    <path id="path81273" fill="#8cce55" stroke="#0f380f" stroke-opacity="0.14509804" stroke-linecap="round" stroke-linejoin="round" transform="matrix(1 0 0 1 0.5 1.2670726)" d="M 1229.7188 535.34375 L 1230.625 535.96875 L 1230.625 535.6875 Z"/>
    <path id="path81271" fill="#8cce55" stroke="#0f380f" stroke-opacity="0.14509804" stroke-linecap="round" stroke-linejoin="round" transform="matrix(1 0 0 1 0.5 1.2670726)" d="M 1250.3125 535.78125 L 1249.4062 536.5 L 1249.7812 537.5 L 1250.6875 537.4063 L 1251.125 536.50005 L 1250.3125 535.7813 Z"/>
    <path id="path81269" fill="#8cce55" stroke="#0f380f" stroke-opacity="0.14509804" stroke-linecap="round" stroke-linejoin="round" transform="matrix(1 0 0 1 0.5 1.2670726)" d="M 1287.6562 535.87495 L 1285.4062 538.0312 L 1284.9688 538.93745 L 1284.7812 539.8437 L 1285.6875 539.0312 L 1285.7815 539.1249 L 1285.3128 539.7499 L 1284.4378 540.5624 L 1284.1565 541.4374 L 1284.3441 544.15615 L 1285.2503 544.59365 L 1285.5003 546.40615 L 1285.6878 546.59365 L 1285.1253 547.5624 L 1286.9378 548.84365 L 1286.0315 548.74995 L 1286.1255 549.6562 C 1287.978 549.13995 1289.2642 550.69995 1289.563 552.3437 L 1289.2817 553.49995 L 1289.2817 554.31245 L 1289.813 555.2187 L 1290.188 557.0312 L 1290.282 558.81245 L 1291.1883 559.0937 L 1292.0633 558.9062 L 1292.9696 559.18745 L 1293.5946 558.9062 L 1293.3133 559.81245 L 1294.3133 559.71875 L 1295.2196 559.1875 L 1296.1258 559.0938 L 1297.032 559.2813 L 1297.282 558.2813 L 1297.5633 559.18755 L 1297.8133 561.06255 L 1297.7513 561.9688 L 1298.6263 561.62505 L 1299.5325 560.87505 L 1301.2513 561.3438 L 1303.0638 560.3438 L 1303.3138 559.43755 L 1304.2201 560.1563 L 1305.1263 560.5313 L 1306.0013 560.3438 L 1306.1263 561.25005 L 1307.0013 561.5313 L 1307.9075 561.06255 L 1308.3763 560.3438 L 1309.2513 560.7188 L 1309.4388 560.43755 L 1309.0638 561.3438 L 1309.1258 561.375 L 1309.2508 561.4375 L 1309.9696 559.625 L 1310.0636 558.90625 L 1311.3136 558.1875 L 1311.7823 557.28125 L 1311.8763 556.03125 L 1313.4075 555.5 L 1313.9388 555.03125 L 1314.9388 553.25 L 1315.2825 552.25 L 1316.1888 551.4375 L 1316.2828 551.09375 L 1315.5641 550.1875 L 1314.8454 549.8125 L 1314.0328 548.03125 L 1313.7516 546.59375 L 1314.0328 545.59375 L 1313.2204 545.50005 L 1312.3141 546.31255 L 1312.4081 545.5938 L 1312.4081 543.68755 L 1312.7519 542.81255 L 1311.8769 542.25005 L 1311.4394 542.25005 L 1309.5331 542.81255 L 1308.6269 542.5313 L 1306.7519 542.9063 L 1307.4707 542.00005 L 1307.1894 541.0938 L 1308.0957 540.2813 L 1308.7207 539.37505 L 1308.7207 539.18755 L 1308.8147 538.93755 L 1308.2522 538.75005 L 1307.3772 538.93755 L 1306.2834 539.75005 L 1304.3147 539.12505 L 1303.3147 538.8438 L 1303.1272 538.2188 L 1300.8772 538.3125 L 1300.6272 538.3125 L 1299.721 538.65625 L 1299.5334 539.125 L 1299.1897 540.09375 L 1298.2834 540.28125 L 1297.2834 540.8125 L 1296.3772 541.09375 L 1295.5022 540.71875 L 1294.596 540.65625 L 1293.3147 540.90625 L 1292.346 541.4375 L 1291.4397 541.375 L 1290.5334 540.65625 L 1290.1897 540.09375 L 1289.2834 539.5625 L 1289.096 539.125 L 1288.3772 538.65625 L 1287.221 536.78125 L 1287.6584 535.875 L 1287.6584 535.87495 Z"/>
    <path id="path81267" fill="#8cce55" stroke="#0f380f" stroke-opacity="0.14509804" stroke-linecap="round" stroke-linejoin="round" transform="matrix(1 0 0 1 0.5 1.2670726)" d="M 1253.6562 538.31245 L 1252.6562 538.74995 L 1253.5625 538.93745 L 1254.4688 538.84375 L 1254.3748 538.46875 L 1253.656 538.3125 Z"/>
    <path id="path81265" fill="#8cce55" stroke="#0f380f" stroke-opacity="0.14509804" stroke-linecap="round" stroke-linejoin="round" transform="matrix(1 0 0 1 0.5 1.2670726)" d="M 1230.6875 538.40615 L 1229.8125 539.03115 L 1230.875 540.8124 L 1231.7812 541.6249 L 1232.2188 542.6249 L 1233.125 542.5312 L 1233.3125 540.7187 L 1232.3125 540.0937 L 1231.5938 539.18745 L 1230.6875 538.4062 Z"/>
    <path id="path81263" fill="#8cce55" stroke="#0f380f" stroke-opacity="0.14509804" stroke-linecap="round" stroke-linejoin="round" transform="matrix(1 0 0 1 0.5 1.2670726)" d="M 1260.4062 538.9374 L 1260.5002 539.65615 L 1261.3752 539.1249 L 1260.4064 538.9374 Z"/>
    <path id="path81261" fill="#8cce55" stroke="#0f380f" stroke-opacity="0.14509804" stroke-linecap="round" stroke-linejoin="round" transform="matrix(1 0 0 1 0.5 1.2670726)" d="M 1254.1875 539.5624 L 1253.2812 539.84365 L 1253.4688 540.71865 L 1254.375 540.81235 L 1254.469 539.93735 L 1254.1877 539.56235 Z"/>
    <path id="path81259" fill="#8cce55" stroke="#0f380f" stroke-opacity="0.14509804" stroke-linecap="round" stroke-linejoin="round" transform="matrix(1 0 0 1 0.5 1.2670726)" d="M 1264.1875 539.9374 L 1263.2812 539.9999 L 1262.8125 540.90615 L 1263.7188 540.71865 L 1264.25 541.71865 L 1264.5312 540.71865 Z"/>
    <path id="path81257" fill="#8cce55" stroke="#0f380f" stroke-opacity="0.14509804" stroke-linecap="round" stroke-linejoin="round" transform="matrix(1 0 0 1 0.5 1.2670726)" d="M 1256.7188 540.46865 L 1255.8125 540.71865 L 1256.7188 541.3749 L 1257.625 541.53115 L 1257.625 541.3749 Z"/>
    <path id="path81255" fill="#8cce55" stroke="#0f380f" stroke-opacity="0.14509804" stroke-linecap="round" stroke-linejoin="round" transform="matrix(1 0 0 1 0.5 1.2670726)" d="M 1254.4688 540.8124 L 1254.3748 541.71865 L 1257.0623 541.90615 L 1256.2498 541.09365 L 1254.4686 540.8124 Z"/>
    <path id="path81253" fill="#8cce55" stroke="#0f380f" stroke-opacity="0.14509804" stroke-linecap="round" stroke-linejoin="round" transform="matrix(1 0 0 1 0.5 1.2670726)" d="M 1235.1875 545.4999 L 1235.6562 546.40615 L 1235.4688 545.4999 L 1235.1875 545.4999 Z"/>
    <path id="path81251" fill="#8cce55" stroke="#0f380f" stroke-opacity="0.14509804" stroke-linecap="round" stroke-linejoin="round" transform="matrix(1 0 0 1 0.5 1.2670726)" d="M 1263.9062 545.4999 L 1263.4375 546.40615 L 1265.25 546.84365 L 1266.1562 546.84365 L 1265.1562 546.40615 L 1264.25 545.4999 Z"/>
    <path id="path81249" fill="#8cce55" stroke="#0f380f" stroke-opacity="0.14509804" stroke-linecap="round" stroke-linejoin="round" transform="matrix(1 0 0 1 0.5 1.2670726)" d="M 1235.375 547.1249 L 1235.125 548.03115 L 1236 547.65615 Z"/>
    <path id="path81247" fill="#8cce55" stroke="#0f380f" stroke-opacity="0.14509804" stroke-linecap="round" stroke-linejoin="round" transform="matrix(1 0 0 1 0.5 1.2670726)" d="M 1263 547.1249 L 1263 548.03115 L 1263.9062 548.03115 L 1263.7188 547.1249 L 1263 547.1249 Z"/>
    <path id="path81245" fill="#8cce55" stroke="#0f380f" stroke-opacity="0.14509804" stroke-linecap="round" stroke-linejoin="round" transform="matrix(1 0 0 1 0.5 1.2670726)" d="M 1237 549.90615 L 1236.5625 550.8124 L 1236.7188 551.71865 L 1238.1875 553.4999 L 1238.8125 553.8749 L 1239.5312 552.96865 L 1237.9062 550.1874 Z"/>
    <path id="path81243" fill="#8cce55" stroke="#0f380f" stroke-opacity="0.14509804" stroke-linecap="round" stroke-linejoin="round" transform="matrix(1 0 0 1 0.5 1.2670726)" d="M 1268.6875 552.6249 L 1267.7812 553.15615 L 1267.7812 553.4999 L 1267.0625 554.40615 L 1267.4062 555.3124 L 1269.2188 555.3124 L 1270.4688 557.1249 L 1270.3748 558.09365 L 1271.281 558.71865 L 1273.0936 559.6249 L 1273.9998 559.8124 L 1273.531 558.90615 L 1273.906 557.9999 L 1273.0936 557.1249 L 1272.1873 556.7499 L 1271.7498 555.84365 L 1271.3748 554.0624 L 1270.8436 553.15615 L 1269.9373 552.6249 L 1269.656 553.4999 L 1268.6873 552.6249 Z"/>
    <path id="path81241" fill="#8cce55" stroke="#0f380f" stroke-opacity="0.14509804" stroke-linecap="round" stroke-linejoin="round" transform="matrix(1 0 0 1 0.5 1.2670726)" d="M 1240.7812 555.1249 L 1241.3125 556.03115 L 1242.3125 556.5624 L 1241.7812 555.65615 Z"/>
    <path id="path81239" fill="#8cce55" stroke="#0f380f" stroke-opacity="0.14509804" stroke-linecap="round" stroke-linejoin="round" transform="matrix(1 0 0 1 0.5 1.2670726)" d="M 1242.9375 557.1249 L 1242.9375 557.84365 L 1242.9375 558.3749 L 1243.8438 557.90615 Z"/>
    <path id="path81237" fill="#8cce55" stroke="#0f380f" stroke-opacity="0.14509804" stroke-linecap="round" stroke-linejoin="round" transform="matrix(1 0 0 1 0.5 1.2670726)" d="M 1279.0312 557.28115 L 1278.6562 557.37485 L 1278.3125 558.2811 L 1278.3125 560.0936 L 1279.1875 560.1561 L 1280.0938 560.5311 L 1281 559.62485 L 1281.375 558.7186 L 1280.4688 557.56235 L 1279.0312 557.2811 Z"/>
    <path id="path81235" fill="#8cce55" stroke="#0f380f" stroke-opacity="0.14509804" stroke-linecap="round" stroke-linejoin="round" transform="matrix(1 0 0 1 0.5 1.2670726)" d="M 1244.75 559.09365 L 1243.8438 559.18735 L 1245.0938 560.9686 L 1245.0938 559.99985 L 1244.75 559.0936 Z"/>
    <path id="path81233" fill="#8cce55" stroke="#0f380f" stroke-opacity="0.14509804" stroke-linecap="round" stroke-linejoin="round" transform="matrix(1 0 0 1 0.5 1.2670726)" d="M 1253.9062 570.4374 L 1253 570.5311 L 1253.9062 570.9686 L 1253.9062 570.43735 Z"/>
    <path id="path81231" fill="#8cce55" stroke="#0f380f" stroke-opacity="0.14509804" stroke-linecap="round" stroke-linejoin="round" transform="matrix(1 0 0 1 0.5 1.2670726)" d="M 1275.4375 572.9374 L 1275.3435 573.7499 L 1274.4372 573.8436 L 1272.2809 573.2186 L 1270.4685 573.49985 L 1269.9372 574.37485 L 1269.9372 575.2811 L 1269.0309 575.6561 L 1268.7497 576.56235 L 1267.8747 576.56235 L 1268.6872 577.43735 L 1270.4685 577.18735 L 1271.3747 577.43735 L 1272.2809 577.99985 L 1273.1872 577.90615 L 1272.6247 579.78115 L 1277.2185 580.34365 L 1278.1247 580.59365 L 1279.2809 581.3124 L 1280.4685 581.59365 L 1282.3435 581.68735 L 1283.2497 581.12485 L 1283.8747 581.21855 L 1284.5935 581.40605 L 1285.4997 581.21855 L 1289.4685 582.1248 L 1291.2497 583.1248 L 1293.1559 583.65605 L 1295.4997 583.9373 L 1296.3747 584.1873 L 1297.2809 584.03105 L 1299.0935 584.09355 L 1301.8747 584.65605 L 1302.7809 584.56235 L 1303.6872 584.0311 L 1304.5622 584.0936 L 1305.4685 584.6561 L 1307.3747 585.37485 L 1308.2497 585.62485 L 1309.1559 585.56235 L 1309.5309 586.18735 L 1310.4997 586.3436 L 1309.8122 585.37485 L 1309.5309 584.4686 L 1309.7809 583.06235 L 1309.9685 581.8436 L 1308.1872 580.9686 L 1306.2809 581.4061 L 1305.3747 581.3124 L 1304.4997 581.6874 L 1302.0622 580.4999 L 1302.3122 579.59365 L 1301.4372 578.96865 L 1301.4372 578.2499 L 1300.5309 577.4374 L 1299.5309 577.5311 L 1297.7497 577.0936 L 1296.1247 576.2811 L 1295.2185 576.62485 L 1294.7809 576.56235 L 1294.2497 575.6561 L 1293.3122 575.2811 L 1292.4372 575.74985 L 1292.0622 576.99985 L 1291.1872 577.9061 L 1290.1872 577.5311 L 1289.2809 577.7186 L 1287.4997 577.2811 L 1285.5935 577.3436 L 1284.6872 576.99985 L 1284.1559 577.18735 L 1283.2497 577.09365 L 1281.9997 575.28115 L 1281.0935 574.5624 L 1280.1872 574.84365 L 1279.3747 574.3749 L 1278.4997 574.5624 L 1277.5935 574.03115 L 1276.6872 573.1249 L 1275.4372 572.9374 Z"/>
    <path id="path2729" fill="#8cce55" stroke="#0f380f" stroke-opacity="0.14509804" stroke-linecap="round" stroke-linejoin="round" transform="matrix(1 0 0 1 0.5 1.2670726)" d="M 1307.4688 577.34365 L 1305.6562 577.53115 L 1302.875 577.53115 L 1301.9688 578.09365 L 1302.875 578.8749 L 1303.875 579.0624 L 1305.6562 579.1561 L 1306.5625 578.5311 L 1308.375 577.9061 L 1307.4688 577.3436 Z"/>
    <path id="path2872" fill="#8cce55" stroke="#0f380f" stroke-opacity="0.14509804" stroke-linecap="round" stroke-linejoin="round" transform="matrix(1 0 0 1 0.5 1.2670726)" d="M 1295.3125 533 L 1295.4065 533.90625 L 1295.6878 533.96875 L 1295.3128 533 L 1295.3125 533 Z"/>
    <path id="path2842" fill="#8cce55" stroke="#0f380f" stroke-opacity="0.14509804" stroke-linecap="round" stroke-linejoin="round" transform="matrix(1 0 0 1 0.5 1.2670726)" d="M 1286.6875 550.28125 L 1287.5 551.1875 L 1288.125 550.28125 L 1286.6875 550.28125 Z"/>
    <path id="path2822" fill="#8cce55" stroke="#0f380f" stroke-opacity="0.14509804" stroke-linecap="round" stroke-linejoin="round" transform="matrix(1 0 0 1 0.5 1.2670726)" d="M 1283.875 581.21875 L 1283.781 581.40625 L 1284.781 581.59375 L 1283.8748 581.21875 L 1283.875 581.21875 Z"/>
    <path id="path81361" fill="#8cce55" stroke="#0f380f" stroke-opacity="0.14509804" stroke-linecap="round" stroke-linejoin="round" transform="matrix(1 0 0 1 0.5 1.2670726)" d="M 1222 44.9375 C 1221.3253 44.9567 1220.6374 45.155 1219.9062 45.53125 L 1221.9688 45.78125 L 1220.875 45.78125 L 1218.8125 46.875 L 1216.0312 47.125 L 1215.0312 47.5 L 1211.0938 48.125 L 1210.9062 49.03125 L 1210 49.21875 L 1209 49.9375 L 1208.938 50.8125 L 1210.813 50.65625 L 1211.8755 50.375 L 1211.0005 51.09375 L 1210.0943 51.53125 L 1209.4693 52.53125 L 1209.2817 53.4375 L 1207.4067 53.4375 L 1205.5005 54.15625 L 1208.3755 54.78125 L 1205.313 54.78125 L 1204.438 54.96875 L 1204.063 55.875 L 1205.8755 55.6875 L 1207.7505 55.78125 L 1209.813 55.5 L 1210.7193 55.59375 L 1211.813 56.125 L 1209.813 55.6875 L 1206.688 56.03125 L 1207.563 56.59375 L 1208.4693 56.75 L 1209.3755 57.21875 L 1208.3755 56.9375 L 1207.4067 56.9375 L 1206.5005 57.125 L 1208.563 57.3125 L 1210.3755 57.84375 L 1212.3443 58.65625 L 1213.438 58.9375 L 1214.1255 58.9375 L 1215.4067 58.46875 L 1216.5005 58.28125 L 1217.3755 57.75 L 1219.2817 57.40625 L 1220.2505 57.40625 L 1223.1255 56.75 L 1225.0317 56.59375 L 1229.063 56.5 L 1230.063 56.21875 L 1230.9693 55.5 L 1229.9693 54.59375 L 1229.2505 52.8125 L 1229.6255 51.8125 L 1230.5317 52 L 1231.438 51.71875 L 1232.4067 51.8125 L 1233.4067 51.46875 L 1232.8755 50.46875 L 1231.8755 50 L 1229.9693 49.5625 L 1228.0005 48.84375 L 1227.0943 48.03125 C 1225.775 46.2575 1224.0242 44.87996 1222 44.9375 Z"/>
    <path id="path81359" fill="#8cce55" stroke="#0f380f" stroke-opacity="0.14509804" stroke-linecap="round" stroke-linejoin="round" transform="matrix(1 0 0 1 0.5 1.2670726)" d="M 1199.125 45.6875 L 1196.875 45.875 L 1196.3125 46.875 L 1198.2188 47.3125 L 1201.375 47.59375 L 1202.3438 47.5 L 1203.25 46.96875 L 1203.156 46.0625 L 1202.0936 45.78125 L 1199.1248 45.6875 Z"/>
    <path id="path81357" fill="#8cce55" stroke="#0f380f" stroke-opacity="0.14509804" stroke-linecap="round" stroke-linejoin="round" transform="matrix(1 0 0 1 0.5 1.2670726)" d="M 1229.7188 57.125 L 1228.7188 57.5 L 1226.8438 57.75 L 1222.0625 57.75 L 1221.1562 58.65625 L 1220.25 58.125 L 1219.2812 58.375 L 1218.375 58.9375 L 1217.2812 59.28125 L 1216.3125 60 L 1218.2812 60.90625 L 1215.5 61.34375 L 1214.5 61.90625 L 1213.5938 62.78125 L 1211.7188 63.6875 L 1209.8125 63.59375 L 1210.8125 63.96875 L 1211.8125 64.78125 L 1212.6875 63.96875 L 1213.6875 63.78125 L 1214.6875 64.40625 L 1213.7812 64.6875 L 1214.7812 64.875 L 1215.75 64.40625 L 1216.6562 65.125 L 1216.7502 66.03125 L 1217.1252 67.03125 L 1218.094 67.375 L 1218.469 68.28125 L 1219.4377 68.65625 L 1220.4377 68.90625 L 1221.4377 68.375 L 1222.4377 68.375 L 1222.7814 69.28125 L 1224.7502 69.28125 L 1226.6564 69.46875 L 1227.719 69.375 L 1229.719 70.625 L 1231.594 71.15625 L 1235.5627 71.53125 L 1236.5627 71.25 L 1240.5002 71.0625 L 1242.3127 70.09375 L 1242.3127 69.09375 L 1241.594 68.1875 L 1240.594 67.46875 L 1239.5314 66.9375 L 1238.6252 66.21875 L 1240.594 66.5625 L 1241.5002 66.125 L 1241.6877 63.34375 L 1242.1252 62.4375 L 1242.9377 61.4375 L 1242.9377 60.71875 L 1242.0314 59.90625 L 1241.0627 59.65625 L 1240.0627 58.9375 L 1238.6252 58.375 L 1236.6252 58.46875 L 1235.7502 58.9375 L 1235.9377 59.375 L 1235.2814 60.375 L 1233.4064 59.90625 L 1232.594 60.90625 L 1231.594 61.625 L 1230.6877 61.71875 L 1231.6877 61.34375 L 1231.8752 60.46875 L 1232.7814 59.8125 L 1233.3127 58.9375 L 1233.3127 58.03125 L 1232.4064 57.40625 L 1231.5002 57.125 L 1229.719 57.125 Z"/>
    <path id="path81355" fill="#8cce55" stroke="#0f380f" stroke-opacity="0.14509804" stroke-linecap="round" stroke-linejoin="round" transform="matrix(1 0 0 1 0.5 1.2670726)" d="M 1201 58.21875 L 1201.9062 58.65625 L 1202.0938 58.9375 L 1202.625 59.8125 L 1201.625 60.1875 L 1202.5312 60.71875 L 1203.5312 60.90625 L 1206.4062 61 L 1207.4062 61.53125 L 1205.5 62 C 1208.2551 63.4575 1211.7362 61.605 1214.125 60.1875 L 1213.25 59.5625 L 1209.9062 58.65625 L 1208.9375 58.75 L 1204.7812 58.28125 L 1202.9062 58.375 Z"/>
    <path id="path81353" fill="#8cce55" stroke="#0f380f" stroke-opacity="0.14509804" stroke-linecap="round" stroke-linejoin="round" transform="matrix(1 0 0 1 0.5 1.2670726)" d="M 1214.9375 58.9375 L 1215.9375 59.09375 L 1215.9375 58.9375 Z"/>
    <path id="path81351" fill="#8cce55" stroke="#0f380f" stroke-opacity="0.14509804" stroke-linecap="round" stroke-linejoin="round" transform="matrix(1 0 0 1 0.5 1.2670726)" d="M 1242.9375 62.0625 L 1242.5 63.0625 L 1243.9375 62.53125 Z"/>
    <path id="path81349" fill="#8cce55" stroke="#0f380f" stroke-opacity="0.14509804" stroke-linecap="round" stroke-linejoin="round" transform="matrix(1 0 0 1 0.5 1.2670726)" d="M 1200.8125 63.6875 L 1202.8125 64.3125 L 1203.6875 64.78125 L 1202.8125 64.21875 L 1200.8125 63.6875 Z"/>
    <path id="path81347" fill="#8cce55" stroke="#0f380f" stroke-opacity="0.14509804" stroke-linecap="round" stroke-linejoin="round" transform="matrix(1 0 0 1 0.5 1.2670726)" d="M 1207.0312 64.6875 L 1206.125 65.03125 L 1205.0625 65.03125 L 1206.9375 65.40625 L 1207.9375 64.96875 Z"/>
    <path id="path81345" fill="#8cce55" stroke="#0f380f" stroke-opacity="0.14509804" stroke-linecap="round" stroke-linejoin="round" transform="matrix(1 0 0 1 0.5 1.2670726)" d="M 1253.375 64.96875 L 1252.8438 65.9375 L 1253.2812 66.84375 L 1252.3125 66.65625 L 1252.0312 66.3125 L 1251.0312 65.59375 L 1250.0625 65.9375 L 1249.6875 66.84375 L 1248.6875 67.03125 L 1247.9688 67.9375 L 1248.0628 68.8125 L 1249.8753 69.46875 L 1247.9688 69 L 1247 69.625 L 1246.5312 70.53125 L 1247.3438 71.53125 L 1248.3438 71.78125 L 1245.4688 71.53125 L 1244.5625 72.34375 L 1243.75 74.21875 L 1243.0312 75.125 L 1242.9372 76.125 L 1240.8747 78 L 1240.2497 79 L 1240.8747 79.96875 L 1241.8747 79.8125 L 1242.9372 79.90625 L 1247.4372 78.28125 L 1248.3435 77.65625 L 1253.9997 77.375 L 1254.9997 77.1875 L 1255.9059 77.65625 L 1256.8747 77 L 1257.8747 77.09375 L 1260.7497 76.84375 L 1263.7185 76.03125 L 1264.6247 75.9375 L 1265.5309 76.125 L 1268.4059 74.3125 L 1268.5935 73.40625 L 1267.7809 71.625 L 1266.7809 70.90625 L 1265.8747 70.8125 L 1264.9997 71.4375 L 1263.9059 69.53125 L 1261.9997 68.8125 L 1261.4685 67.9375 L 1260.4997 67.84375 L 1258.6872 68.1875 L 1257.6872 68.71875 L 1256.7185 68.71875 L 1255.2497 70.53125 L 1254.2809 70.53125 L 1254.9997 69.625 L 1256.3435 66.84375 L 1257.2497 65.9375 L 1256.2497 65.3125 L 1254.2809 64.96875 L 1253.3747 64.96875 Z"/>
    <path id="path81343" fill="#8cce55" stroke="#0f380f" stroke-opacity="0.14509804" stroke-linecap="round" stroke-linejoin="round" transform="matrix(1 0 0 1 0.5 1.2670726)" d="M 1206.75 67.9375 L 1206.688 68 L 1208.6567 68.5625 L 1206.7505 67.9375 Z"/>
    <path id="path81341" fill="#8cce55" stroke="#0f380f" stroke-opacity="0.14509804" stroke-linecap="round" stroke-linejoin="round" transform="matrix(1 0 0 1 0.5 1.2670726)" d="M 1272.0938 76.375 L 1270.3125 77.28125 L 1271.1875 77.5625 L 1273.0938 76.75 Z"/>
    <path id="path81339" fill="#8cce55" stroke="#0f380f" stroke-opacity="0.14509804" stroke-linecap="round" stroke-linejoin="round" transform="matrix(1 0 0 1 0.5 1.2670726)" d="M 1277.4062 77.65625 L 1272.625 77.90625 L 1273.625 78.4375 L 1275.5 78.625 L 1276.5 78.53125 L 1277.125 79 L 1278.0312 78.53125 Z"/>
    <path id="path81337" fill="#8cce55" stroke="#0f380f" stroke-opacity="0.14509804" stroke-linecap="round" stroke-linejoin="round" transform="matrix(1 0 0 1 0.5 1.2670726)" d="M 1273.7188 84.75 L 1272.7188 85.5625 L 1273.7188 85.46875 L 1274.6875 84.9375 Z"/>
    <path id="path81335" fill="#8cce55" stroke="#0f380f" stroke-opacity="0.14509804" stroke-linecap="round" stroke-linejoin="round" transform="matrix(1 0 0 1 0.5 1.2670726)" d="M 1277.2188 85.90625 L 1276.3125 86.8125 L 1276.6875 87.09375 L 1277.6875 86.8125 Z"/>
    <path id="path81333" fill="#8cce55" stroke="#0f380f" stroke-opacity="0.14509804" stroke-linecap="round" stroke-linejoin="round" transform="matrix(1 0 0 1 0.5 1.2670726)" d="M 1193.7188 86.28125 L 1192.7188 86.8125 L 1192.7188 87.71875 L 1192.8128 87.4375 L 1193.7191 87.71875 L 1194.8128 87.28125 L 1194.6878 86.375 L 1193.7191 86.28125 Z"/>
    <path id="path81331" fill="#8cce55" stroke="#0f380f" stroke-opacity="0.14509804" stroke-linecap="round" stroke-linejoin="round" transform="matrix(1 0 0 1 0.5 1.2670726)" d="M 1226.8438 87.375 L 1224.9375 88.15625 L 1223.125 88.625 L 1222.1562 88.71875 L 1221.1562 89.0625 L 1222.1562 89.4375 L 1224.125 89.15625 L 1223.125 89.6875 L 1225.0312 89.4375 L 1227 88.15625 Z"/>
    <path id="path81329" fill="#8cce55" stroke="#0f380f" stroke-opacity="0.14509804" stroke-linecap="round" stroke-linejoin="round" transform="matrix(1 0 0 1 0.5 1.2670726)" d="M 1190.6562 87.90625 L 1190.3125 88.90625 L 1191.6562 88 Z"/>
    <path id="path81327" fill="#8cce55" stroke="#0f380f" stroke-opacity="0.14509804" stroke-linecap="round" stroke-linejoin="round" transform="matrix(1 0 0 1 0.5 1.2670726)" d="M 1220.3438 92.125 L 1219.375 92.5 L 1220.3438 92.75 L 1221.25 92.65625 Z"/>
    <path id="path81325" fill="#8cce55" stroke="#0f380f" stroke-opacity="0.14509804" stroke-linecap="round" stroke-linejoin="round" transform="matrix(1 0 0 1 0.5 1.2670726)" d="M 1221.875 92.21875 L 1222.7812 92.75 L 1222.7812 92.5 Z"/>
    <path id="path81323" fill="#8cce55" stroke="#0f380f" stroke-opacity="0.14509804" stroke-linecap="round" stroke-linejoin="round" transform="matrix(1 0 0 1 0.5 1.2670726)" d="M 1225.5625 92.21875 L 1224.5938 92.59375 L 1225.5 93.125 L 1226.5625 92.21875 Z"/>
    <path id="path81321" fill="#8cce55" stroke="#0f380f" stroke-opacity="0.14509804" stroke-linecap="round" stroke-linejoin="round" transform="matrix(1 0 0 1 0.5 1.2670726)" d="M 1298.9062 92.9375 L 1298.5625 93.21875 L 1300.4375 94.46875 L 1301.3438 94.1875 L 1300.7188 93.3125 L 1298.9062 92.9375 Z"/>
    <path id="path81319" fill="#8cce55" stroke="#0f380f" stroke-opacity="0.14509804" stroke-linecap="round" stroke-linejoin="round" transform="matrix(1 0 0 1 0.5 1.2670726)" d="M 1303.7812 95.1875 L 1303.6872 95.46875 L 1304.6559 95.5625 L 1303.7809 95.1875 Z"/>
    <path id="path81317" fill="#8cce55" stroke="#0f380f" stroke-opacity="0.14509804" stroke-linecap="round" stroke-linejoin="round" transform="matrix(1 0 0 1 0.5 1.2670726)" d="M 1228.2812 95.625 L 1227.8125 96.625 L 1227.9065 97.34375 L 1228.8128 96.8125 L 1229.1878 95.8125 L 1228.2815 95.625 Z"/>
    <path id="path81315" fill="#8cce55" stroke="#0f380f" stroke-opacity="0.14509804" stroke-linecap="round" stroke-linejoin="round" transform="matrix(1 0 0 1 0.5 1.2670726)" d="M 1225.8438 96.09375 L 1224.8438 96.8125 L 1223.9375 96.375 L 1221.1562 96.53125 L 1222.1562 97.09375 L 1224.0312 97.53125 L 1225.0312 97.53125 L 1226.0312 98.0625 L 1225.8438 97.09375 L 1226.8438 96.71875 L 1225.8438 96.09375 Z"/>
    <path id="path81313" fill="#8cce55" stroke="#0f380f" stroke-opacity="0.14509804" stroke-linecap="round" stroke-linejoin="round" transform="matrix(1 0 0 1 0.5 1.2670726)" d="M 1219.5312 96.4375 L 1218.625 96.53125 L 1217.6562 96.90625 L 1218.625 97.15625 Z"/>
    <path id="path81311" fill="#8cce55" stroke="#0f380f" stroke-opacity="0.14509804" stroke-linecap="round" stroke-linejoin="round" transform="matrix(1 0 0 1 0.5 1.2670726)" d="M 1230.625 97.96875 L 1227.625 98.78125 L 1228.625 99.0625 L 1229.5312 98.78125 Z"/>
    <path id="path81309" fill="#8cce55" stroke="#0f380f" stroke-opacity="0.14509804" stroke-linecap="round" stroke-linejoin="round" transform="matrix(1 0 0 1 0.5 1.2670726)" d="M 1182.75 108.40625 L 1180.9375 108.78125 L 1179.9375 109.40625 L 1179.0625 109.21875 L 1180.0312 109.78125 L 1181.9375 109.9375 L 1182.8125 109.40625 L 1182.7505 108.40625 Z"/>
    <path id="path81307" fill="#8cce55" stroke="#0f380f" stroke-opacity="0.14509804" stroke-linecap="round" stroke-linejoin="round" transform="matrix(1 0 0 1 0.5 1.2670726)" d="M 1175.625 110.03125 L 1174.625 110.5 L 1175.5312 110.84375 L 1176.4375 110.93745 L 1175.625 110.0312 Z"/>
    <path id="path81305" fill="#8cce55" stroke="#0f380f" stroke-opacity="0.14509804" stroke-linecap="round" stroke-linejoin="round" transform="matrix(1 0 0 1 0.5 1.2670726)" d="M 1174.5625 112.28125 L 1174.4685 113.1875 L 1175.3747 113.375 L 1176.2497 112.90625 L 1176.3437 112.5625 L 1175.4374 112.28125 L 1174.5624 112.28125 Z"/>
    <path id="path81303" fill="#8cce55" stroke="#0f380f" stroke-opacity="0.14509804" stroke-linecap="round" stroke-linejoin="round" transform="matrix(1 0 0 1 0.5 1.2670726)" d="M 1177.3438 112.28125 L 1176.4375 113.1875 L 1177.3438 113.46875 L 1178.4062 112.90625 Z"/>
    <path id="path81301" fill="#8cce55" stroke="#0f380f" stroke-opacity="0.14509804" stroke-linecap="round" stroke-linejoin="round" transform="matrix(1 0 0 1 0.5 1.2670726)" d="M 1171.9375 112.90625 L 1171.0312 113.1875 L 1172.0312 113.90625 L 1172.9375 113.28125 Z"/>
    <path id="path81299" fill="#8cce55" stroke="#0f380f" stroke-opacity="0.14509804" stroke-linecap="round" stroke-linejoin="round" transform="matrix(1 0 0 1 0.5 1.2670726)" d="M 1162.125 116.0625 L 1161.2188 116.25 L 1162.125 116.96875 Z"/>
    <path id="path81297" fill="#8cce55" stroke="#0f380f" stroke-opacity="0.14509804" stroke-linecap="round" stroke-linejoin="round" transform="matrix(1 0 0 1 0.5 1.2670726)" d="M 1164.375 116.25 L 1163.5 116.53125 L 1163.375 116.78125 L 1164.375 116.78125 L 1166.2812 117.15625 L 1165.375 116.25 Z"/>
    <path id="path81295" fill="#8cce55" stroke="#0f380f" stroke-opacity="0.14509804" stroke-linecap="round" stroke-linejoin="round" transform="matrix(1 0 0 1 0.5 1.2670726)" d="M 1295.4062 117.0625 L 1294.5 117.3125 L 1293.9688 118.21875 L 1292.9688 118.0625 L 1291.8125 117.40625 L 1289.0938 117.49995 L 1288.375 118.4062 L 1287.5 118.93745 L 1287.125 119.93745 L 1288.125 120.56245 L 1289.0938 120.2187 L 1290 120.3124 L 1292.875 119.5624 L 1293.3125 119.6561 L 1295.1562 118.81235 L 1295.2192 118.78115 L 1295.3132 117.78115 L 1296.3132 117.40615 L 1295.4069 117.0624 Z"/>
    <path id="path81293" fill="#8cce55" stroke="#0f380f" stroke-opacity="0.14509804" stroke-linecap="round" stroke-linejoin="round" transform="matrix(1 0 0 1 0.5 1.2670726)" d="M 1168.6875 117.25 L 1169.5938 117.6875 L 1170.5938 117.875 L 1169.5938 117.40625 Z"/>
    <path id="path81291" fill="#8cce55" stroke="#0f380f" stroke-opacity="0.14509804" stroke-linecap="round" stroke-linejoin="round" transform="matrix(1 0 0 1 0.5 1.2670726)" d="M 1182.125 120.3125 L 1182.187 120.3125 L 1181.2183 121.1875 L 1180.3433 120.84375 L 1180.3123 120.81255 L 1182.1248 120.31255 Z"/>
    <path id="path81289" fill="#8cce55" stroke="#0f380f" stroke-opacity="0.14509804" stroke-linecap="round" stroke-linejoin="round" transform="matrix(1 0 0 1 0.5 1.2670726)" d="M 1145.9375 125.875 L 1144.125 127.3125 L 1143.9375 127.4062 L 1144.5 128.4062 L 1145.5 128.74995 L 1147.375 129.12495 L 1148.2812 128.6562 L 1147.6562 126.7812 L 1146.8438 125.87495 L 1145.9375 125.87495 Z"/>
    <path id="path82867" fill="#8cce55" stroke="#0f380f" stroke-opacity="0.14509804" stroke-linecap="round" stroke-linejoin="round" transform="matrix(1 0 0 1 0.5 1.2670726)" d="M 1228.4225 295.9682 L 1229.3466 296.87094 L 1230.7251 296.96574 L 1233.0395 297.96795 C 1233.6925 297.76996 1234.3455 297.86001 1234.9985 297.99085 L 1236.0268 298.57908 L 1237.0155 297.46432 L 1238.3808 297.29855 L 1238.9254 298.97317 L 1238.116 300.42006 L 1238.8594 302.16186 L 1237.3647 302.87846 L 1236.5881 303.54835 L 1234.492 304.04938 C 1234.464 304.83849 1234.8688 305.73576 1234.2481 306.37665 L 1235.2754 306.76267 L 1234.0086 309.02585 L 1232.8912 309.22449 L 1231.8498 312.05129 L 1231.9308 313.85711 L 1234.67 316.21417 L 1235.4214 318.24238 L 1235.4354 320.4305 L 1234.6727 322.27822 L 1234.6587 323.97549 L 1233.292 325.90987 C 1233.5343 327.21795 1233.3987 329.58608 1233.3987 329.58608 L 1232.5946 331.85798 L 1232.8493 334.4814 L 1229.9639 334.27676 L 1226.0498 334.66551 L 1225.9294 333.84902 L 1223.7948 331.49348 L 1221.9315 327.47105 L 1221.2291 327.10734 L 1221.4144 325.96454 L 1219.6372 325.80837 L 1213.0622 321.95298 L 1202.9075 321.00455 L 1200.5623 320.70033 L 1199.659 318.88549 L 1201.1948 315.61712 L 1200.9977 311.76767 L 1198.5847 308.03719 L 1197.9569 306.28878 L 1196.9476 305.07312 L 1195.0985 304.94883 L 1194.1794 303.94791 L 1192.2556 304.01411 L 1190.3328 302.92494 L 1189.7439 301.69474 L 1187.0218 300.71494 L 1187.5528 299.87063 L 1186.158 299.01146 L 1188.584 298.63446 L 1188.978 297.62246 L 1192.223 296.74346 L 1194.447 295.54746 L 1194.345 294.26346 L 1194.7276 292.88473 L 1193.555 290.53182 L 1194.9811 290.0655 L 1194.4859 289.23994 L 1195.9139 289.27144 L 1191.8467 285.75458 L 1191.8837 283.54521 L 1191.005 283.29591 L 1190.1737 283.97266 L 1190.5205 282.64596 L 1189.3471 284.08527 L 1187.7311 283.3549 L 1186.6995 282.74829 L 1187.8154 281.38796 L 1186.7199 281.09693 L 1187.5578 279.56722 L 1188.2849 279.63642 L 1188.8076 279.03438 L 1190.8428 278.3013 L 1192.4339 276.17379 L 1191.9102 275.53611 L 1193.0424 274.81948 L 1191.4194 274.04324 L 1192.2001 272.28574 L 1191.5216 271.58085 L 1190.7698 271.49995 L 1191.2596 269.91091 L 1193.0313 268.328 L 1191.6535 266.9089 L 1192.7227 266.62093 L 1192.7127 265.17798 L 1191.9718 265.43833 L 1190.8212 264.86484 L 1189.6472 265.63097 L 1188.8958 264.66569 L 1189.8079 263.92572 L 1189.9607 262.67968 L 1190.5549 261.93953 L 1189.2087 259.38034 L 1190.5376 257.55346 L 1193.8883 255.25335 L 1191.9593 252.54309 L 1190.0301 251.57928 L 1189.6486 250.47333 L 1190.7665 249.88107 L 1190.3957 249.19472 L 1189.8053 249.02069 L 1190.4581 248.14974 L 1190.608 247.3049 L 1189.53 246.96767 L 1190.7301 246.17526 L 1192.5979 244.03154 L 1193.6934 243.75265 L 1193.3365 241.68578 L 1191.3829 241.64808 L 1187.7746 240.57277 L 1187.263 239.44716 L 1187.186 237.51846 L 1189.1226 235.21492 L 1190.9049 234.20334 L 1189.9016 232.38287 L 1186.6501 232.57156 L 1184.9422 230.0747 L 1183.5147 229.76267 L 1182.6106 228.37868 L 1180.6713 227.94466 L 1174.8917 228.3333 L 1171.2453 227.77326 L 1172.0749 224.62458 L 1169.969 221.71822 L 1171.7502 220.71822 L 1176.719 218.56197 L 1176.719 217.65572 L 1177.1564 217.49947 L 1177.6252 216.59322 L 1176.6252 216.59322 L 1175.719 216.31197 L 1175.094 215.78072 L 1174.094 215.68702 L 1173.1877 215.06202 L 1172.3127 215.06202 L 1171.4064 214.34327 L 1171.219 213.96827 L 1171.125 212.99952 L 1170.7812 212.34327 L 1171.5625 211.37452 L 1172.4688 210.56202 L 1172.9375 209.65577 L 1173.8125 209.03077 L 1173.8125 208.65577 L 1174.5625 207.78077 L 1175.4375 207.21827 L 1175.9062 206.34327 L 1175.8122 205.68702 L 1175.5309 205.43702 L 1175.9059 204.43702 L 1175.0935 203.53077 L 1174.9995 202.90577 L 1173.9995 202.56202 L 1173.562 202.09327 L 1174.4683 201.74952 L 1175.5307 199.93702 L 1176.437 199.12452 L 1177.3433 198.87452 L 1177.8745 197.87452 L 1178.1557 196.96827 L 1177.7807 196.43702 L 1177.3433 195.53077 L 1177.6245 194.53077 L 1177.3433 193.62452 L 1176.437 192.90577 L 1174.6245 193.37452 L 1173.6557 192.99952 L 1173.0307 192.12452 L 1171.1245 192.37452 L 1170.1245 192.37452 L 1170.5933 191.46827 L 1170.2183 190.84327 L 1170.4995 190.40577 L 1171.4057 189.59327 L 1171.1245 188.68702 L 1171.1245 187.78077 L 1169.8745 187.15577 L 1169.4995 186.24952 L 1168.6245 185.53077 L 1166.812 185.62447 L 1166.6245 184.71822 L 1165.6245 183.84322 L 1165.812 182.93695 L 1166.6245 182.56195 L 1165.9057 181.65571 L 1164.937 180.87446 L 1164.562 179.96821 L 1164.937 179.24946 L 1164.999 178.24946 L 1164.2802 177.34321 L 1163.2178 176.43696 L 1160.249 174.56196 L 1160.874 173.74946 L 1160.78 172.84321 L 1161.1238 171.93696 L 1159.9676 171.49946 L 1159.9676 170.59321 L 1159.0613 170.15571 L 1158.3426 169.24946 L 1158.6238 168.81196 L 1160.5926 168.81196 L 1161.3113 167.90571 L 1161.3113 166.99946 L 1161.78 166.99946 L 1162.7488 166.09321 L 1162.7488 165.03071 L 1162.405 164.12446 L 1163.3738 163.31196 L 1164.28 163.03071 L 1164.1238 162.87446 L 1162.3113 161.87446 L 1162.03 160.96821 L 1161.0613 160.06196 L 1161.6863 159.18696 L 1158.8738 158.81196 L 1158.7176 156.99946 L 1158.3426 156.74946 L 1157.8113 157.71821 L 1156.905 158.28071 L 1156.811 158.18701 L 1156.749 158.09331 L 1155.749 158.28081 L 1154.8428 158.62456 L 1153.0302 157.81206 L 1151.6865 157.56206 L 1151.4052 157.56206 L 1150.2802 157.56206 L 1150.2492 157.56206 L 1149.343 156.84331 L 1147.9054 155.03081 L 1147.468 155.03081 L 1146.468 154.74956 L 1145.843 153.87456 L 1145.4992 153.06206 L 1146.3742 152.43706 L 1146.1867 152.15581 L 1147.093 151.43706 L 1147.468 151.06206 L 1150.2492 149.46831 L 1150.6867 148.81206 L 1151.6867 148.37456 L 1152.593 148.28086 L 1153.4992 148.81211 L 1153.9367 148.65586 L 1153.3117 147.74961 L 1153.7492 146.84336 L 1153.0304 145.84336 L 1153.218 145.68711 L 1152.8742 144.78086 L 1152.7802 143.87461 L 1152.1552 142.96836 L 1150.249 142.71836 L 1148.2802 141.43711 L 1146.374 140.62461 L 1146.374 139.99961 L 1147.2802 139.46836 L 1147.3742 138.46836 L 1149.2492 138.56206 L 1150.2492 138.37456 L 1150.8117 137.74956 L 1150.4367 136.68706 L 1151.1554 135.78081 L 1150.2492 135.31206 L 1149.2492 134.87456 L 1148.2804 134.87456 L 1146.468 134.53081 L 1145.5617 134.15581 L 1145.3117 134.24951 L 1144.3117 133.62451 L 1143.3117 131.90583 L 1143.2497 131.71826 L 1145.5622 131.99951 L 1147.4685 131.90581 L 1148.4372 132.34331 L 1149.3435 132.99956 L 1150.6247 133.53081 L 1152.4997 133.96831 L 1153.4059 134.34331 L 1153.8435 135.24956 L 1155.6559 136.21831 L 1156.2809 137.12456 L 1158.1872 137.84331 L 1159.9685 137.74961 L 1162.7497 137.21836 L 1162.7497 136.78086 L 1161.9372 135.31211 L 1161.0622 134.68711 L 1160.9682 133.78086 L 1160.4994 132.81211 L 1159.5306 132.71841 L 1158.5306 132.34341 L 1155.7494 132.09341 L 1153.8432 130.81216 L 1154.0306 129.93716 L 1153.1244 129.03091 L 1153.7494 128.12466 L 1154.1244 127.21841 L 1153.7494 126.24966 L 1152.8744 125.78091 L 1151.8744 124.96841 L 1152.7806 124.53091 L 1151.7806 123.90591 L 1152.4056 122.99966 L 1153.3119 122.09341 L 1154.2182 121.37466 L 1155.1869 121.09341 L 1156.0932 121.09341 L 1156.9994 120.74966 L 1158.9994 120.74966 L 1162.0306 120.46841 L 1165.8119 120.65591 L 1167.8119 120.31216 L 1169.7806 120.21846 L 1171.6869 119.74971 L 1172.6556 119.74971 L 1173.4682 120.12471 L 1174.4682 120.21841 L 1175.4369 120.12471 L 1176.1869 119.21846 L 1177.1556 119.12476 L 1178.0619 118.78101 L 1181.9369 118.49976 L 1182.9056 118.68726 L 1183.2806 118.59356 L 1183.4682 118.49986 L 1182.9056 117.06236 L 1183.9056 116.96866 L 1181.9994 116.68741 L 1181.6556 115.81241 L 1180.7494 115.24991 L 1178.8744 115.15621 L 1178.3119 114.28121 L 1179.3119 114.09371 L 1178.3119 113.71871 L 1179.3119 113.71871 L 1180.2182 113.37496 L 1181.2182 113.99996 L 1181.8432 114.81246 L 1182.8119 114.99996 L 1183.1869 114.09371 L 1182.2806 113.62496 L 1181.3119 113.37496 L 1181.0306 112.37496 L 1178.2494 111.84371 L 1177.2494 111.21871 L 1178.2494 111.03121 L 1179.0619 110.12496 L 1179.4994 111.03121 L 1180.4056 110.93751 L 1181.3119 111.93751 L 1182.1869 111.65626 L 1182.1249 110.65626 L 1183.0937 110.40626 L 1183.4687 109.50001 L 1184.4374 108.78126 L 1183.5624 108.40626 L 1184.4374 108.34376 L 1185.4374 108.96876 L 1185.7187 107.96876 L 1184.7187 107.96876 L 1182.7499 107.53126 L 1182.2811 107.25001 L 1183.1874 106.81251 L 1185.0624 106.96876 L 1186.9687 107.43751 L 1188.0624 107.06251 L 1188.8749 106.09376 L 1189.8437 105.71876 L 1191.8124 104.28126 L 1192.8124 104.00001 L 1194.6249 104.18751 L 1195.5937 103.56251 L 1196.5937 103.56251 L 1196.5937 103.03126 L 1199.3749 102.56251 L 1200.2811 102.21876 L 1201.1874 102.56251 L 1203.0624 102.31251 L 1203.9687 102.37501 L 1204.4374 101.50001 L 1206.3124 101.50001 L 1211.9999 100.59376 L 1214.8749 99.875007 L 1215.7499 99.406257 L 1213.8749 99.968757 L 1212.7811 99.593757 L 1212.3437 100.12501 L 1211.7187 99.250007 L 1210.7187 100.06251 L 1209.7499 99.343757 L 1210.1874 98.437504 L 1211.0937 98.062504 L 1212.0624 98.437504 L 1214.0624 98.625004 L 1214.9374 98.250004 L 1213.9687 97.812504 L 1216.8437 98.062504 L 1217.8437 98.437504 L 1217.9999 97.437504 L 1219.9999 97.968754 L 1220.8749 97.875004 L 1221.7811 97.437504 L 1223.6874 97.625004 L 1224.6874 98.531254 L 1222.6874 100.21876 L 1224.5937 99.406257 L 1225.5624 99.343757 L 1226.5624 98.875007 L 1227.4687 99.156257 L 1226.8437 100.12501 L 1228.7187 99.593757 L 1229.6249 98.968757 L 1230.6249 98.687504 L 1229.8749 99.593757 L 1230.8749 99.156257 L 1232.7811 98.781257 L 1231.8749 98.343754 L 1232.7811 98.156254 L 1233.6874 98.343754 L 1234.6561 98.062504 L 1233.7499 97.531254 L 1235.6561 97.156254 L 1236.6249 96.718754 L 1237.5311 97.093754 L 1238.4374 96.812504 L 1239.1561 97.812504 L 1240.9687 97.437504 L 1240.8747 98.343754 L 1242.2185 98.531254 L 1242.3125 98.250004 L 1241.0625 96.375004 L 1240.0625 96.281254 L 1238.1875 95.000004 L 1238.1875 94.031254 L 1239.1562 94.281254 L 1240.0625 94.468754 L 1242.9375 94.281254 L 1244.1875 94.562504 L 1247.1562 94.031254 L 1248.0625 94.562504 L 1248.9688 94.375004 L 1249.9688 94.656254 L 1250.9375 94.656254 L 1251.9375 95.187504 L 1252.8438 95.000004 L 1248.875 94.031254 L 1247.875 93.406254 L 1248.0625 92.406254 L 1248.4375 91.500004 L 1247.3438 91.312504 L 1246.9062 90.406254 L 1247.7188 89.531254 L 1248.625 88.968754 L 1249.0625 88.093754 L 1250.5938 87.000004 L 1251.5 86.562504 L 1251.3125 85.656254 L 1252.2188 85.750004 L 1253.125 84.937504 L 1254.0938 84.406254 L 1255.0938 84.125004 L 1256.0625 83.218754 L 1257.0625 82.937504 L 1258.0625 83.312504 L 1260.9375 82.218754 L 1260.9375 82.218754 L 1261.8438 82.218754 L 1262.8125 82.781254 L 1263.8125 82.500004 L 1264.8125 83.312504 L 1266.5938 83.843754 L 1267.5938 84.031254 L 1268.5938 83.843754 L 1269.5 84.125004 L 1270.0312 85.031254 L 1270.8438 85.906254 L 1269.8438 85.843754 L 1268.8438 86.093754 L 1267.875 86.906254 L 1266.9688 87.093754 L 1266.0625 87.531254 L 1264.0938 87.718754 L 1263.1875 88.156254 L 1262.2812 88.156254 L 1261.3125 88.531254 L 1262.2812 88.625004 L 1264.25 88.156254 L 1265.25 88.531254 L 1266.25 88.343754 L 1267.1562 88.531254 L 1269.9375 88.156254 L 1269.125 89.062504 L 1268.2188 89.531254 L 1270.125 89.343754 L 1271 88.906254 L 1271.9062 88.906254 L 1272.8125 89.250004 L 1273.7188 89.062504 L 1274.6875 89.062504 L 1275.5938 89.250004 L 1276.5938 89.781254 L 1276.4998 90.781254 L 1275.4998 91.312504 L 1274.8123 92.218754 L 1273.8123 92.750004 L 1273.0936 93.750004 L 1272.0936 94.031254 L 1272.3748 94.187504 L 1273.4373 94.281254 L 1276.3123 93.937504 L 1278.2186 94.125004 L 1279.1248 93.843754 L 1279.7498 92.843754 L 1279.7498 91.937504 L 1281.531 92.125004 L 1283.531 92.125004 L 1286.3123 91.781254 L 1287.2186 91.875004 L 1288.1873 92.218754 L 1289.6248 92.312504 L 1290.531 91.875004 L 1291.4373 91.687504 L 1292.4373 92.031254 L 1293.4373 91.781254 L 1294.3123 92.406254 L 1295.3123 92.312504 L 1296.3123 93.125004 L 1297.281 93.125004 L 1299.1873 94.562504 L 1298.281 95.468754 L 1299.1873 94.906254 L 1300.1873 94.843754 L 1301.156 95.375004 L 1301.8748 96.281254 L 1301.4373 97.156254 L 1302.4373 97.531254 L 1301.8748 98.437504 L 1302.8748 98.437504 L 1303.3123 97.531254 L 1304.3123 97.343754 L 1303.406 96.531254 L 1304.406 97.000004 L 1305.3123 97.718754 L 1305.3743 98.687504 L 1305.2181 99.593757 L 1307.0931 99.875007 L 1307.0931 100.78126 L 1306.6555 101.75001 L 1305.7493 102.65626 L 1305.1243 102.03126 L 1304.1243 101.93756 L 1301.3431 100.50006 L 1300.2493 100.59376 L 1301.2493 101.21876 L 1302.2493 101.50001 L 1302.5931 103.28126 L 1303.4993 102.46876 L 1304.4993 102.31251 L 1304.4993 103.18751 L 1306.3743 104.18751 L 1306.1868 105.09376 L 1305.4681 106.09376 L 1302.6868 108.34376 L 1301.7805 108.87501 L 1298.9055 109.59376 L 1297.4681 111.46876 L 1296.4681 111.21876 L 1295.4993 111.31246 L 1293.6868 112.56246 L 1292.6868 112.74996 L 1291.8118 113.18746 L 1290.8118 113.28116 L 1290.0931 114.18741 L 1289.0931 114.18741 L 1287.7493 114.99991 L 1288.7493 115.62491 L 1286.8431 116.78116 L 1284.9681 117.15616 L 1283.0618 118.40616 L 1282.1868 119.31241 L 1280.3743 120.65616 L 1279.3743 120.65616 L 1278.4993 121.03116 L 1276.5931 120.93746 L 1274.6868 122.46871 L 1274.1555 123.34371 L 1273.2493 123.81246 L 1271.2805 123.71876 L 1269.6555 125.59376 L 1269.4993 126.50001 L 1268.5931 127.40626 L 1266.7805 128.31251 L 1265.8118 128.40621 L 1265.8738 128.56246 L 1268.0613 128.49996 L 1270.8426 126.96871 L 1271.7488 125.06246 C 1273.955 124.98616 1276.0074 125.05346 1278.2176 124.96876 L 1279.1863 124.71876 L 1281.0926 123.81251 L 1283.8738 123.43751 L 1284.78 123.18751 L 1285.405 122.28126 L 1286.405 122.46876 L 1285.405 121.65626 L 1286.3113 122.18751 L 1287.3113 122.46876 L 1288.1863 122.37506 L 1289.0926 122.00006 L 1289.6238 121.37506 L 1290.6238 121.18756 L 1291.53 120.65631 L 1293.4363 120.21881 L 1294.3113 120.65631 L 1291.53 122.90631 L 1289.905 122.90631 L 1290.8113 123.34381 L 1291.8113 123.62506 L 1291.2488 124.53131 L 1292.9676 125.25006 L 1293.4988 126.25006 L 1292.78 127.12506 L 1292.53 128.03131 L 1292.155 128.40631 L 1292.3426 129.37506 L 1293.3113 129.65631 L 1294.2488 130.28131 L 1295.2176 130.75006 L 1294.8738 131.18756 L 1294.6863 132.09381 L 1295.6863 132.43756 L 1296.5613 132.43756 L 1296.7488 133.34381 L 1297.3738 133.87506 L 1297.4678 133.96876 L 1298.374 134.06246 L 1298.5615 135.24996 L 1298.6235 140.37496 L 1299.5297 140.62496 L 1300.436 141.18746 L 1300.8735 141.21866 L 1301.3423 141.28116 L 1301.7797 141.90616 L 1301.2485 142.78116 L 1300.8735 142.96866 L 1299.3735 143.68741 L 1298.6235 143.59371 L 1297.6547 144.06246 L 1295.7485 144.59371 C 1295.5633 144.72894 1295.38 144.82291 1295.186 144.90621 C 1294.992 144.98951 1294.7918 145.04811 1294.5923 145.09371 C 1293.3937 145.36711 1292.1142 145.10371 1291.0923 145.81246 C 1290.978 145.89136 1290.8554 145.98818 1290.7485 146.09371 C 1290.5347 146.30476 1290.3358 146.5631 1290.1547 146.90621 C 1290.0657 147.07773 1289.9857 147.25777 1289.9047 147.46871 L 1290.5297 148.37496 L 1289.6235 148.74996 L 1289.0923 148.74996 L 1287.7485 148.90621 L 1287.2173 149.18746 L 1286.936 150.09371 L 1285.936 150.24996 L 1286.311 151.15621 L 1286.686 151.71871 L 1286.936 152.06246 L 1286.7485 152.59371 L 1286.5923 153.06246 L 1285.7797 153.96871 L 1284.7797 153.96871 L 1283.8735 153.40621 L 1282.9985 153.49991 L 1281.0923 153.31241 L 1279.2797 154.74991 L 1277.8423 155.03116 L 1275.9673 155.46866 L 1275.061 155.93741 L 1274.1547 156.12491 L 1273.2485 155.84366 L 1272.561 155.93736 L 1271.561 156.84361 L 1271.9047 157.71861 L 1274.3423 160.78111 L 1274.8735 161.78111 L 1274.8735 164.21861 L 1274.8115 169.62486 L 1274.4365 173.65611 L 1273.5302 174.12486 L 1272.5615 174.18736 L 1270.5615 175.81236 L 1268.749 176.09361 L 1269.6552 176.71861 L 1270.999 177.09361 L 1270.937 177.53111 L 1271.562 178.43736 L 1272.187 180.21861 L 1271.2807 181.03111 L 1271.6557 182.8436 L 1272.437 183.18737 L 1272.9057 184.09362 L 1272.9997 186.62487 L 1273.9059 186.96862 L 1274.1559 187.53112 L 1275.0622 187.68737 L 1274.6247 188.68737 L 1273.7185 188.59367 L 1272.7185 189.31242 L 1272.8125 189.78117 L 1271.9062 190.59367 L 1270.9375 191.21867 L 1271.1875 192.03117 L 1270.75 192.90617 L 1269.9375 193.46867 L 1269.5625 194.43742 L 1269.75 195.34367 L 1270.75 195.24997 L 1271.6562 196.06247 L 1272.5625 195.81247 L 1273.5312 195.71877 L 1273.9062 195.43752 L 1276.6875 197.06252 L 1277.6875 196.96882 L 1279.4688 197.68757 L 1280.0938 197.40632 L 1281.3651 198.39641 L 1280.4589 199.20891 L 1280.2713 199.11521 L 1278.4901 199.11521 L 1278.0213 200.02146 L 1277.3026 200.11516 L 1276.3963 199.39641 L 1275.4276 199.64641 L 1274.5213 199.30266 L 1273.9901 199.30266 L 1274.4276 200.20891 L 1273.8026 201.08391 L 1273.8026 201.99016 L 1273.0839 202.61516 L 1273.0839 202.70886 L 1273.5213 203.17761 L 1273.8963 204.14636 L 1272.9901 204.08386 L 1272.6151 205.52136 L 1271.7401 205.86511 L 1271.7401 206.77136 L 1272.7089 207.49011 L 1272.8029 207.77136 L 1272.8969 208.64636 L 1273.8969 209.02136 L 1273.9909 209.92761 L 1273.3347 210.74011 L 1272.4284 211.55261 L 1272.6159 212.42761 L 1272.5539 213.05261 L 1271.6476 213.61511 L 1270.6476 214.52136 L 1270.3664 215.24011 L 1269.9289 216.11511 L 1269.0226 216.20881 L 1267.4914 217.20881 L 1266.5852 217.74006 L 1265.6789 218.02131 L 1265.9602 219.02131 L 1265.0539 219.64631 L 1264.2414 220.61506 L 1264.0852 221.08381 L 1263.6164 222.05256 L 1263.9914 222.95881 L 1264.1789 223.95881 L 1264.5226 224.86506 L 1266.3352 225.67756 L 1267.3039 225.67756 L 1268.2102 225.77126 L 1268.1162 226.74001 L 1268.3974 227.64626 L 1268.3034 228.55251 L 1267.5847 228.80251 L 1266.6784 228.64626 L 1266.1471 228.89626 L 1266.0531 229.27126 L 1265.1468 229.70876 L 1265.5218 230.61501 L 1266.0531 231.42751 L 1267.1468 231.61501 L 1267.0528 232.52126 L 1267.5841 233.30251 L 1266.9591 234.20876 L 1266.0528 234.77126 L 1265.1465 235.49001 L 1265.5215 236.36501 L 1264.1778 237.17751 L 1263.5528 237.27121 L 1262.5528 236.36496 L 1262.5528 236.20871 L 1261.6465 236.11501 L 1260.9278 235.20876 L 1260.1153 235.11506 L 1259.2091 234.67756 L 1258.3028 233.95881 L 1257.9591 232.95881 L 1257.0528 232.67756 L 1256.1465 232.86506 L 1255.3653 233.24006 L 1254.6153 233.24006 L 1254.1778 234.20881 L 1254.8028 236.02131 L 1254.6153 236.27131 L 1253.7403 236.92756 L 1252.9903 237.80256 L 1251.6465 238.17756 L 1250.7403 238.45881 L 1250.2091 239.33381 L 1249.2403 239.80256 L 1248.6153 240.33381 L 1248.2401 241.24021 L 1247.5213 242.14646 L 1246.7089 242.05276 L 1246.9901 243.02151 L 1246.8026 243.92776 L 1247.3339 244.83401 L 1247.2399 244.92771 L 1247.1459 245.02141 L 1246.2397 245.20891 L 1245.2709 244.55266 L 1244.5522 243.58391 L 1244.1772 242.67766 L 1243.3647 241.77141 L 1243.2085 240.77141 L 1242.9272 240.77141 L 1242.0209 240.95891 L 1241.3022 240.86521 L 1240.5835 241.77146 L 1240.2397 242.67771 L 1238.9585 242.86521 L 1238.0522 243.11521 L 1237.0835 242.67771 L 1234.8335 242.58401 L 1233.9272 242.49031 L 1233.0209 243.02156 L 1231.8647 245.27156 L 1231.7707 245.45906 L 1231.1457 246.67781 L 1230.6145 247.70906 L 1230.9583 247.89656 L 1231.0523 248.08406 L 1231.1463 248.17776 L 1231.2403 248.24026 L 1231.2403 249.14651 L 1232.3965 249.33401 L 1233.1153 251.20901 L 1232.1153 252.02151 L 1231.7715 253.02151 L 1231.1465 253.64651 L 1231.0525 253.74021 L 1231.0525 253.92771 L 1229.9588 253.92771 L 1229.0525 254.36521 L 1228.8962 255.36521 L 1228.2712 255.80271 L 1227.8962 256.80271 L 1228.2712 257.70896 L 1228.3652 258.33396 L 1228.084 259.24021 L 1227.1777 260.86521 L 1227.2717 261.02146 L 1227.6155 261.92771 L 1227.0843 262.83396 L 1226.928 263.83396 L 1226.99 264.08396 L 1225.8338 263.83396 L 1225.49 263.99021 L 1224.5838 263.92771 L 1224.0212 264.89646 L 1223.0525 264.99016 L 1222.865 265.89641 L 1224.2088 266.80266 L 1226.115 268.67766 L 1226.99 269.58391 L 1227.5525 269.77141 L 1228.5212 269.14641 L 1229.4275 269.77141 L 1230.5212 270.02141 L 1231.1462 270.64641 L 1231.4275 270.92766 L 1232.3025 271.39641 L 1233.0212 271.45891 L 1233.9275 272.17766 L 1234.9275 272.36516 L 1235.2712 273.17766 L 1237.0838 272.83391 L 1238.0525 272.83391 L 1238.5212 273.17766 L 1239.4275 274.08391 L 1237.615 274.70891 L 1237.8962 274.99016 L 1237.9902 275.95891 L 1237.3652 276.86516 L 1237.084 276.77146 L 1236.99 276.95896 L 1236.8025 277.86521 L 1237.4275 278.77146 L 1237.99 279.11521 L 1237.99 279.11546 L 1237.4475 280.89655 L 1234.802 283.15923 L 1234.4083 284.62538 L 1233.4748 284.83754 L 1232.5658 287.3492 L 1233.334 289.60859 L 1234.4008 290.63757 L 1233.5757 293.28625 L 1230.8646 294.18086 L 1229.6241 295.38952 L 1228.5261 295.19128 Z"/>
</svg>
