<svg width="1671.094" height="856.39252" viewBox="0 0 1671.094 856.39252" xmlns="http://www.w3.org/2000/svg" xmlns:usvg="https://github.com/RazrFalcon/usvg" usvg:version="0.8.0">
    <defs/>
    <path id="path2742-4-7" fill="#3e73c5" fill-opacity="0.42857145" stroke="#000000" stroke-opacity="0.24675323" stroke-linecap="round" stroke-linejoin="round" transform="matrix(1 0 0 1 0.5 1.2670726)" d="M 1377.374 614.96882 L 1378.0511 615.98995 C 1378.0611 616.00155 1378.0711 616.01205 1378.0821 616.02115 C 1378.1001 616.03535 1378.1221 616.04595 1378.1441 616.05235 C 1378.1551 616.05322 1378.1651 616.05322 1378.1751 616.05235 C 1378.1961 616.05635 1378.2171 616.05635 1378.2371 616.05235 C 1378.2491 616.04335 1378.2591 616.03275 1378.2681 616.02115 C 1378.2941 616.00565 1378.3151 615.98415 1378.3311 615.95865 C 1378.3421 615.94965 1378.3531 615.93905 1378.3621 615.92745 C 1378.363 615.91705 1378.488 615.18784 1378.4871 615.17745 L 1379.1746 615.30245 C 1379.1846 615.31405 1379.9442 616.19955 1379.9559 616.2087 L 1380.5183 616.5837 L 1380.5813 616.6462 C 1380.6083 616.6648 1380.6413 616.6756 1380.6753 616.6774 C 1380.6853 616.67827 1380.6963 616.67827 1380.7063 616.6774 C 1380.7163 616.67827 1380.7273 616.67827 1380.7373 616.6774 C 1380.7603 616.6714 1380.7813 616.6604 1380.7993 616.6462 C 1380.8113 616.6372 1380.8213 616.6266 1380.8303 616.615 C 1380.8413 616.606 1380.8523 616.5954 1380.8613 616.5838 C 1380.8753 616.5651 1380.8863 616.5439 1380.8923 616.5213 L 1380.8923 616.4588 C 1380.8823 616.4362 1380.8753 616.415 1380.8613 616.3963 L 1380.7051 616.0838 L 1380.4863 615.3338 L 1381.2051 615.05255 C 1381.2281 615.04655 1381.2491 615.03555 1381.2671 615.02135 C 1381.2791 615.01235 1381.2891 615.00175 1381.2981 614.99015 C 1381.3171 614.96225 1381.3271 614.92985 1381.3291 614.89645 C 1381.33 614.88605 1381.33 614.87565 1381.3291 614.86525 L 1381.3291 614.80275 C 1381.3191 614.79115 1381.3091 614.78065 1381.2981 614.77155 C 1381.2881 614.75995 1381.2781 614.74945 1381.2671 614.74035 L 1380.3921 613.92785 L 1379.6109 613.11535 L 1379.6109 613.08415 L 1379.5799 613.05295 L 1379.3611 612.2717 L 1379.7673 611.4592 L 1379.9236 611.24045 L 1380.7673 610.99045 C 1380.7783 610.99132 1380.7883 610.99132 1380.7983 610.99045 C 1380.8103 610.98145 1380.8203 610.97085 1380.8293 610.95925 C 1380.8433 610.94055 1380.8543 610.91935 1380.8603 610.89675 C 1380.8723 610.88775 1380.8823 610.87715 1380.8913 610.86555 L 1381.0476 609.9593 L 1381.2039 609.17805 L 1382.0163 608.74055 C 1382.0393 608.73455 1382.0603 608.72355 1382.0793 608.70935 L 1382.8605 608.0531 L 1382.8915 608.0531 L 1383.5165 607.9594 C 1383.5395 607.9534 1383.5605 607.9424 1383.5795 607.9282 C 1383.5905 607.9192 1383.6015 607.9086 1383.6105 607.897 C 1383.6225 607.888 1383.6325 607.8774 1383.6415 607.8658 C 1383.6555 607.8471 1383.6665 607.8259 1383.6725 607.8033 L 1383.6725 607.7408 C 1383.6734 607.7304 1383.6734 607.72 1383.6725 607.7096 C 1383.6625 607.698 1383.6525 607.6875 1383.6415 607.6784 C 1383.6315 607.6558 1383.6245 607.6346 1383.6105 607.6159 L 1382.673 606.8034 L 1382.673 606.1159 L 1383.0793 606.0534 C 1383.0893 606.05427 1383.1003 606.05427 1383.1103 606.0534 C 1383.1223 606.0444 1383.1323 606.0338 1383.1413 606.0222 C 1383.1673 606.0067 1383.1883 605.9852 1383.2043 605.9597 L 1383.7355 605.11595 L 1383.7355 605.08475 L 1384.548 604.70975 C 1384.56 604.70075 1384.57 604.69015 1384.579 604.67855 C 1384.59 604.66955 1384.601 604.65895 1384.61 604.64735 C 1384.622 604.63835 1384.632 604.62775 1384.641 604.61615 L 1384.641 604.58495 L 1384.8598 603.83495 L 1385.6098 603.9912 C 1385.6198 603.99207 1385.6308 603.99207 1385.6408 603.9912 C 1385.6618 603.9952 1385.6828 603.9952 1385.7038 603.9912 C 1385.7148 603.9822 1385.7258 603.9716 1385.7348 603.96 C 1385.7468 603.951 1385.7568 603.9404 1385.7658 603.9288 L 1385.9846 603.71005 L 1386.0466 603.67885 L 1386.8903 603.36635 C 1386.9023 603.35735 1386.9123 603.34675 1386.9213 603.33515 C 1386.9333 603.32615 1386.9433 603.31555 1386.9523 603.30395 C 1386.9663 603.28525 1386.9773 603.26405 1386.9833 603.24145 C 1386.9842 603.23105 1386.9842 603.22065 1386.9833 603.21025 L 1386.9833 603.14775 L 1386.8583 602.4915 C 1389.2619 602.9555 1390.3984 603.02797 1392.9208 602.554 L 1392.9828 602.554 L 1393.0138 602.554 C 1393.0248 602.55487 1393.0348 602.55487 1393.0448 602.554 C 1393.0678 602.548 1393.0888 602.537 1393.1068 602.5228 L 1394.013 601.99155 C 1394.025 601.98255 1394.035 601.97195 1394.044 601.96035 C 1394.056 601.95135 1394.066 601.94075 1394.075 601.92915 C 1394.089 601.91045 1394.1 601.88925 1394.106 601.86665 L 1394.356 600.99165 C 1394.3569 600.98125 1394.3569 600.97085 1394.356 600.96045 L 1394.481 600.0542 C 1394.4819 600.0438 1394.4819 600.0334 1394.481 600.023 C 1394.471 600.0004 1394.464 599.9792 1394.45 599.9605 C 1394.4509 599.9501 1394.4509 599.9397 1394.45 599.9293 C 1394.439 599.92843 1394.429 599.92843 1394.419 599.9293 L 1393.794 599.02305 C 1393.784 599.01145 1393.774 599.00095 1393.763 598.99185 C 1393.753 598.98025 1393.743 598.96975 1393.732 598.96065 C 1393.722 598.95978 1393.711 598.95978 1393.701 598.96065 L 1392.826 598.58565 C 1392.805 598.58165 1392.784 598.58165 1392.763 598.58565 C 1392.753 598.58478 1392.742 598.58478 1392.732 598.58565 C 1392.722 598.58478 1392.711 598.58478 1392.701 598.58565 C 1392.69 598.58478 1392.68 598.58478 1392.67 598.58565 L 1391.8887 598.89815 L 1391.0763 598.1794 C 1391.0573 598.1652 1391.0363 598.1545 1391.0133 598.1482 L 1390.7633 598.0545 L 1391.2321 597.6795 L 1391.7633 598.52325 C 1391.7733 598.53485 1391.7833 598.54535 1391.7943 598.55445 C 1391.8223 598.57305 1391.8543 598.58385 1391.8883 598.58565 C 1391.8993 598.58652 1391.9093 598.58652 1391.9193 598.58565 C 1391.9403 598.58965 1391.9613 598.58965 1391.9813 598.58565 C 1391.9913 598.58652 1392.0023 598.58652 1392.0123 598.58565 C 1392.0243 598.57665 1392.0343 598.56605 1392.0433 598.55445 C 1392.0553 598.54545 1392.0653 598.53485 1392.0743 598.52325 C 1392.0853 598.51425 1392.0963 598.50365 1392.1053 598.49205 L 1392.1053 598.42955 C 1392.1062 598.41915 1392.1062 598.40875 1392.1053 598.39835 L 1392.1053 597.64835 L 1392.7615 597.55465 L 1393.4178 598.3359 C 1393.4338 598.3614 1393.4548 598.3828 1393.4798 598.3984 C 1393.4898 598.39927 1393.5008 598.39927 1393.5108 598.3984 L 1393.6984 598.4609 L 1393.7294 598.4609 L 1393.7604 598.4921 L 1394.6042 599.1796 C 1394.6142 599.1912 1394.6242 599.2017 1394.6352 599.2108 C 1394.6462 599.21167 1394.6562 599.21167 1394.6662 599.2108 C 1394.6872 599.2148 1394.7082 599.2148 1394.7282 599.2108 C 1394.7382 599.21167 1394.7492 599.21167 1394.7592 599.2108 C 1394.7702 599.21167 1394.7802 599.21167 1394.7902 599.2108 C 1394.8022 599.2018 1394.8122 599.1912 1394.8212 599.1796 L 1395.5712 598.64835 L 1395.9149 599.1171 L 1395.9149 599.1483 L 1396.3524 600.0233 C 1396.3624 600.0349 1396.3724 600.0454 1396.3834 600.0545 C 1396.3934 600.0661 1396.4034 600.0766 1396.4144 600.0857 C 1396.4244 600.0973 1396.4344 600.1078 1396.4454 600.1169 C 1396.4554 600.11777 1396.4664 600.11777 1396.4764 600.1169 C 1396.4974 600.1209 1396.5184 600.1209 1396.5384 600.1169 L 1397.4447 600.1169 L 1398.3509 600.46065 C 1398.3699 600.47485 1398.3909 600.48545 1398.4129 600.49185 L 1399.3192 600.49185 L 1400.1629 600.39815 L 1401.0066 601.08565 C 1401.0176 601.08652 1401.0276 601.08652 1401.0376 601.08565 L 1401.7251 601.46065 C 1401.7351 601.46152 1401.7461 601.46152 1401.7561 601.46065 L 1402.6311 601.89815 C 1402.6591 601.91675 1402.6911 601.92755 1402.7251 601.92935 C 1402.7351 601.93022 1402.7461 601.93022 1402.7561 601.92935 C 1402.7791 601.92335 1402.8001 601.91235 1402.8191 601.89815 L 1403.6003 601.4919 L 1404.4128 602.14815 L 1405.3191 602.8044 C 1405.3461 602.823 1405.3791 602.8338 1405.4131 602.8356 C 1405.4341 602.8396 1405.4551 602.8396 1405.4751 602.8356 L 1406.3501 602.6481 C 1406.3731 602.6421 1406.3941 602.6311 1406.4121 602.6169 L 1407.2871 602.08565 L 1407.3181 602.08565 L 1408.2555 601.83565 C 1408.2785 601.82965 1408.2995 601.81865 1408.3185 601.80445 C 1408.3295 601.79545 1408.3405 601.78485 1408.3495 601.77325 L 1408.5995 601.46075 L 1408.5685 601.58575 L 1408.1309 602.46075 C 1408.13 602.47115 1408.13 602.48155 1408.1309 602.49195 C 1408.13 602.50235 1408.13 602.51275 1408.1309 602.52315 L 1408.1309 602.58565 C 1408.13 602.59605 1408.13 602.60645 1408.1309 602.61685 C 1408.1409 602.62845 1408.1509 602.63895 1408.1619 602.64805 C 1408.1779 602.67355 1408.1989 602.69495 1408.2239 602.71055 C 1408.2519 602.72915 1408.2839 602.73995 1408.3179 602.74175 C 1408.3279 602.74262 1408.3389 602.74262 1408.3489 602.74175 C 1408.3609 602.73275 1408.3709 602.72215 1408.3799 602.71055 L 1409.2237 602.33555 L 1409.5675 603.08555 C 1409.5775 603.09715 1409.5875 603.10765 1409.5985 603.11675 C 1409.6085 603.12835 1409.6185 603.13885 1409.6295 603.14795 L 1410.1608 603.58545 C 1410.1708 603.59705 1410.1808 603.60755 1410.1918 603.61665 C 1410.2018 603.61752 1410.2128 603.61752 1410.2228 603.61665 C 1410.2538 603.62465 1410.2858 603.62465 1410.3168 603.61665 L 1411.2401 603.45895 C 1411.2631 603.45295 1411.2841 603.44195 1411.3021 603.42775 C 1411.3141 603.41875 1411.3241 603.40815 1411.3331 603.39655 C 1411.3441 603.38755 1411.3551 603.37695 1411.3641 603.36535 C 1411.3781 603.34665 1411.3891 603.32545 1411.3951 603.30285 L 1411.5514 602.3966 L 1411.6764 601.5841 L 1412.2077 601.30285 L 1412.3639 602.05285 C 1412.3739 602.07545 1412.3809 602.09665 1412.3949 602.11535 C 1412.4049 602.12695 1412.4149 602.13745 1412.4259 602.14655 C 1412.4449 602.16075 1412.4659 602.17135 1412.4879 602.17775 C 1412.4979 602.17862 1412.5089 602.17862 1412.5189 602.17775 L 1413.3315 602.334 L 1413.9877 603.1465 L 1413.2401 603.7402 C 1413.2392 603.7506 1413.2392 603.761 1413.2401 603.7714 L 1412.4276 604.67765 L 1411.8963 605.2089 C 1411.8713 605.2245 1411.8493 605.2459 1411.8343 605.2714 L 1411.8343 605.3339 L 1411.8343 605.3651 L 1412.0217 606.20885 L 1412.0217 606.27135 L 1411.8655 606.89635 L 1411.178 606.6776 C 1411.168 606.67673 1411.157 606.67673 1411.147 606.6776 C 1411.127 606.6746 1411.105 606.6746 1411.085 606.6776 C 1411.074 606.67673 1411.064 606.67673 1411.054 606.6776 L 1410.1477 606.95885 C 1410.1367 606.96785 1410.1257 606.97845 1410.1167 606.99005 L 1409.2105 607.5213 C 1409.1985 607.5303 1409.1885 607.5409 1409.1795 607.5525 C 1409.1675 607.5615 1409.1575 607.5721 1409.1485 607.5837 L 1409.1485 607.6462 L 1408.9611 608.5212 C 1408.9471 608.5399 1408.9361 608.5611 1408.9301 608.5837 L 1409.0551 609.48995 C 1409.0542 609.50035 1409.0542 609.51075 1409.0551 609.52115 C 1409.0542 609.53155 1409.0542 609.54195 1409.0551 609.55235 C 1409.0651 609.56395 1409.0751 609.57445 1409.0861 609.58355 C 1409.1011 609.60905 1409.1231 609.63045 1409.1481 609.64605 C 1409.1891 609.66035 1409.2331 609.66035 1409.2731 609.64605 L 1409.8044 609.4898 L 1409.5857 610.02105 L 1409.5857 610.05225 L 1409.2401 610.9902 L 1409.2401 611.0214 L 1408.6463 611.86515 L 1408.6153 611.89635 L 1407.8965 612.77135 C 1407.8956 612.78175 1407.8956 612.79215 1407.8965 612.80255 L 1407.4591 613.67755 L 1407.4281 613.70875 L 1406.7718 614.08375 C 1406.7608 614.09275 1406.7498 614.10335 1406.7408 614.11495 C 1406.7268 614.13365 1406.7158 614.15485 1406.7098 614.17745 C 1406.6908 614.20535 1406.6808 614.23775 1406.6788 614.27115 C 1406.6888 614.28275 1406.6988 614.29325 1406.7098 614.30235 L 1406.9598 615.2086 C 1406.9698 615.2202 1406.9798 615.2307 1406.9908 615.2398 C 1407.0008 615.2514 1407.0108 615.2619 1407.0218 615.271 C 1407.0318 615.2826 1407.0418 615.2931 1407.0528 615.3022 L 1408.0528 615.9272 L 1408.9278 616.45845 L 1408.9588 616.48965 L 1409.8338 617.0834 L 1409.8338 617.1146 L 1410.7088 617.64585 L 1410.7398 617.64585 L 1411.1148 618.45835 C 1411.1248 618.46995 1411.1348 618.48045 1411.1458 618.48955 C 1411.1618 618.51505 1411.1828 618.53655 1411.2088 618.55205 L 1412.0838 619.0833 C 1412.0938 619.08417 1412.1048 619.08417 1412.1148 619.0833 L 1412.521 619.23955 L 1412.584 619.27075 L 1413.4277 620.052 C 1413.4377 620.0636 1413.4477 620.0741 1413.4587 620.0832 C 1413.4687 620.08407 1413.4797 620.08407 1413.4897 620.0832 C 1413.4997 620.0948 1413.5097 620.1053 1413.5207 620.1144 C 1413.5437 620.1084 1413.5647 620.0974 1413.5837 620.0832 L 1414.3961 619.92695 L 1415.2399 620.42695 L 1416.1461 621.05195 C 1416.1561 621.06355 1416.1661 621.07405 1416.1771 621.08315 L 1417.0208 621.33315 L 1417.0838 621.36435 L 1417.99 622.0206 L 1418.021 622.0518 L 1418.8023 622.9268 L 1418.8643 622.9893 L 1418.8643 622.8643 L 1419.0205 623.14555 C 1419.0206 623.03092 1419.0205 622.91643 1419.0205 622.8018 L 1418.876 622.99982 L 1419.032 668.78082 L 1433.001 668.78082 L 1432.813 709.28084 L 1432.813 730.87484 L 1432.803 730.86474 L 1432.803 730.73974 C 1432.4121 730.69274 1431.9968 730.71574 1430.9905 730.42724 L 1430.9595 730.42724 L 1430.1782 729.89594 L 1430.1782 729.86494 L 1429.7407 728.98994 C 1429.7307 728.97794 1429.7207 728.96794 1429.7097 728.95894 L 1429.0847 727.99014 C 1429.0687 727.96514 1429.0477 727.94314 1429.0217 727.92814 C 1429.0117 727.91614 1429.0017 727.90614 1428.9907 727.89714 L 1428.4282 727.67844 L 1427.8032 726.89714 L 1427.8342 726.89714 L 1427.3029 726.02214 L 1427.2409 725.24024 L 1427.7409 724.39644 C 1427.7529 724.38644 1427.7629 724.37644 1427.7719 724.36544 L 1427.8349 724.08424 C 1427.8489 724.06524 1427.8599 724.04424 1427.8659 724.02124 L 1427.7719 723.11504 L 1427.7719 723.08404 L 1427.7409 723.08404 C 1427.3281 721.97254 1427.0988 721.53194 1426.8034 720.99024 C 1426.8154 720.98024 1426.8254 720.97024 1426.8344 720.95924 C 1426.8444 720.96014 1426.8554 720.96014 1426.8654 720.95924 C 1426.8774 720.94924 1426.8874 720.93924 1426.8964 720.92824 C 1426.9084 720.91824 1426.9184 720.90824 1426.9274 720.89724 C 1426.9283 720.88724 1426.9283 720.87624 1426.9274 720.86624 C 1426.9394 720.85624 1426.9494 720.84624 1426.9584 720.83524 L 1426.9584 720.77224 C 1426.9484 720.74924 1426.9414 720.72824 1426.9274 720.71024 L 1426.8964 720.67924 L 1426.4902 719.80424 C 1426.4802 719.79224 1426.4702 719.78224 1426.4592 719.77324 L 1425.5529 718.86704 C 1425.5429 718.85504 1425.5329 718.84504 1425.5219 718.83604 L 1424.6469 718.11724 L 1424.3657 717.58604 L 1425.0532 717.64804 L 1425.1152 717.64804 C 1425.1382 717.63804 1425.1592 717.63104 1425.1772 717.61704 C 1425.1892 717.60704 1425.1992 717.59704 1425.2082 717.58604 C 1425.2222 717.56704 1425.2332 717.54604 1425.2392 717.52304 L 1425.5204 716.61684 L 1425.5204 716.58584 L 1425.5204 716.55484 C 1425.5204 716.52084 1425.5074 716.48884 1425.4894 716.46084 C 1425.4794 716.44884 1425.4694 716.43884 1425.4584 716.42984 C 1425.4394 716.41584 1425.4184 716.40484 1425.3954 716.39884 L 1424.6767 716.11764 L 1424.6147 716.11764 C 1424.6047 716.11674 1424.5937 716.11674 1424.5837 716.11764 C 1424.5727 716.11674 1424.5627 716.11674 1424.5527 716.11764 L 1423.6464 716.49264 C 1423.6364 716.49174 1423.6254 716.49174 1423.6154 716.49264 C 1423.6034 716.50264 1423.5934 716.51264 1423.5844 716.52364 C 1423.5724 716.53364 1423.5624 716.54364 1423.5534 716.55464 L 1422.9909 717.36714 L 1422.1784 717.36714 C 1422.1684 717.36624 1422.1574 717.36624 1422.1474 717.36714 C 1422.1244 717.37714 1422.1034 717.38414 1422.0854 717.39814 L 1421.2728 717.80444 L 1420.3041 717.80444 C 1420.2811 717.81444 1420.2601 717.82144 1420.2421 717.83544 L 1420.1481 717.83544 L 1420.3357 717.33544 L 1421.2419 716.52284 C 1421.2559 716.50484 1421.2669 716.48284 1421.2729 716.46084 C 1421.2869 716.44184 1421.2979 716.42084 1421.3039 716.39784 L 1421.3659 715.52284 L 1421.3659 715.49184 L 1421.5534 714.61684 L 1421.5534 714.55484 L 1421.4594 713.58614 C 1421.4603 713.57514 1421.4603 713.56514 1421.4594 713.55514 L 1421.2718 712.64884 L 1421.2718 712.61784 C 1421.2618 712.59484 1421.2548 712.57384 1421.2408 712.55584 L 1420.4596 711.74334 L 1420.4596 711.71234 L 1420.4286 711.68134 L 1420.2099 710.83764 C 1420.1999 710.82564 1420.1899 710.81564 1420.1789 710.80664 C 1420.1689 710.79464 1420.1589 710.78464 1420.1479 710.77564 C 1420.1379 710.76464 1420.1279 710.75364 1420.1169 710.74464 C 1420.0979 710.73064 1420.0769 710.71964 1420.0549 710.71364 L 1420.0239 710.71364 L 1419.1489 710.61964 L 1419.0869 710.61964 C 1419.0639 710.62964 1419.0429 710.63664 1419.0239 710.65064 C 1418.9989 710.66664 1418.9769 710.68764 1418.9619 710.71364 C 1418.4756 711.47414 1418.4564 712.20244 1418.3369 712.93234 C 1418.221 713.63594 1417.9899 714.36424 1417.2431 715.27604 L 1416.4931 715.02604 C 1416.4831 715.02514 1416.4721 715.02514 1416.4621 715.02604 L 1416.3991 715.02604 C 1416.3891 715.02514 1416.3781 715.02514 1416.3681 715.02604 L 1415.4619 715.30734 L 1414.5869 715.58864 L 1414.1181 715.71364 L 1414.4306 715.11984 L 1414.8369 714.33864 L 1415.6181 714.33864 C 1415.6281 714.33954 1415.6391 714.33954 1415.6491 714.33864 C 1415.6611 714.32864 1415.6711 714.31864 1415.6801 714.30764 C 1415.6901 714.30854 1415.7011 714.30854 1415.7111 714.30764 L 1416.5861 713.87014 C 1416.6091 713.86014 1416.6301 713.85314 1416.6481 713.83914 C 1416.6621 713.82014 1416.6731 713.79914 1416.6791 713.77614 C 1416.6931 713.75814 1416.7041 713.73614 1416.7101 713.71414 L 1416.8663 712.83914 L 1416.8663 712.77614 L 1416.8043 711.86994 C 1416.7943 711.85794 1416.7843 711.84794 1416.7733 711.83894 L 1416.7733 711.80794 L 1416.7733 711.77694 L 1416.6483 711.58954 L 1416.8671 710.77694 L 1417.1483 709.80824 L 1417.1483 709.77724 L 1417.4921 708.93354 L 1417.4921 708.90254 L 1417.9921 708.09014 L 1418.9609 707.27754 C 1418.9719 707.26754 1418.9829 707.25754 1418.9919 707.24654 C 1419.0039 707.23654 1419.0139 707.22654 1419.0229 707.21554 L 1419.0229 707.18454 C 1419.0349 707.17454 1419.0449 707.16454 1419.0539 707.15354 C 1419.0539 707.11954 1419.0409 707.08754 1419.0229 707.05954 L 1418.6792 706.09084 L 1418.6792 706.05984 L 1418.5229 705.34114 L 1419.3042 704.84114 C 1419.3142 704.84204 1419.3252 704.84204 1419.3352 704.84114 C 1419.3462 704.83114 1419.3572 704.82114 1419.3662 704.81014 C 1419.3802 704.79114 1419.3912 704.77014 1419.3972 704.74814 L 1419.3972 704.68614 L 1419.3972 704.65514 L 1419.3972 704.62414 L 1418.9598 703.78034 L 1418.8658 702.87414 C 1418.8558 702.85114 1418.8488 702.83014 1418.8348 702.81214 L 1418.3972 701.90584 C 1418.3872 701.89484 1418.3772 701.88384 1418.3662 701.87484 C 1418.3562 701.86284 1418.3462 701.85284 1418.3352 701.84384 C 1418.3162 701.82984 1418.2952 701.81884 1418.2722 701.81284 C 1418.2622 701.81194 1418.2512 701.81194 1418.2412 701.81284 L 1418.1792 701.81284 C 1418.1562 701.82284 1418.1352 701.82984 1418.1172 701.84384 C 1418.1052 701.85384 1418.0952 701.86384 1418.0862 701.87484 L 1417.7424 702.21864 C 1417.7304 702.22864 1417.7204 702.23864 1417.7114 702.24964 C 1417.6974 702.26864 1417.6864 702.28964 1417.6804 702.31164 C 1417.6795 702.32164 1417.6795 702.33264 1417.6804 702.34264 L 1417.6804 702.40464 L 1417.9304 703.24844 L 1417.6179 704.02964 L 1416.7741 704.52964 C 1416.7631 704.53964 1416.7521 704.54964 1416.7431 704.56064 C 1416.7422 704.57064 1416.7422 704.58164 1416.7431 704.59164 L 1416.0869 705.49784 C 1416.0729 705.51684 1416.0619 705.53784 1416.0559 705.55984 L 1415.8996 706.40354 L 1415.4309 707.21614 L 1414.5559 707.77854 L 1414.5249 707.77854 L 1412.7437 708.65354 C 1412.7317 708.66354 1412.7217 708.67354 1412.7127 708.68454 L 1411.8377 709.30954 C 1411.8147 709.31954 1411.7937 709.32654 1411.7747 709.34054 L 1411.2435 709.96554 C 1411.2315 709.97554 1411.2215 709.98554 1411.2125 709.99654 L 1410.6812 710.87154 L 1410.6812 710.90254 L 1410.0249 711.74634 L 1409.9939 711.77734 L 1409.0251 712.55864 C 1409.0001 712.57464 1408.9781 712.59564 1408.9631 712.62064 L 1408.9631 712.65164 L 1408.6818 713.55794 C 1408.6809 713.56794 1408.6809 713.57894 1408.6818 713.58894 L 1408.6818 713.65094 C 1408.6918 713.66294 1408.7018 713.67294 1408.7128 713.68194 L 1408.7128 713.71294 C 1408.7228 713.72394 1408.7328 713.73494 1408.7438 713.74394 C 1408.7628 713.75794 1408.7838 713.76894 1408.8058 713.77494 L 1408.1183 714.08754 L 1407.5871 713.30624 C 1407.5771 713.29424 1407.5671 713.28424 1407.5561 713.27524 L 1406.7124 712.52524 L 1406.4311 711.90024 L 1406.9311 712.05654 C 1406.9501 712.07054 1406.9711 712.08154 1406.9931 712.08754 C 1407.0271 712.08754 1407.0591 712.07454 1407.0871 712.05654 C 1407.0981 712.04654 1407.1091 712.03654 1407.1181 712.02554 C 1407.1321 712.00754 1407.1431 711.98554 1407.1491 711.96354 C 1407.1681 711.93554 1407.1781 711.90354 1407.1801 711.86954 C 1407.1701 711.85754 1407.1601 711.84754 1407.1491 711.83854 L 1406.9617 710.96354 L 1406.9617 710.90054 L 1406.5241 709.99434 L 1406.3367 709.15054 C 1406.3376 709.14054 1406.3376 709.12954 1406.3367 709.11954 L 1406.2427 708.93204 C 1406.2436 708.92204 1406.2436 708.91104 1406.2427 708.90104 C 1406.2327 708.89004 1406.2227 708.87904 1406.2117 708.87004 L 1405.3367 707.99504 L 1405.3057 707.96404 L 1404.6494 707.18274 L 1404.6494 707.15174 L 1404.5554 706.27674 C 1404.5563 706.26674 1404.5563 706.25574 1404.5554 706.24574 C 1404.5454 706.23374 1404.5354 706.22374 1404.5244 706.21474 C 1404.5144 706.20274 1404.5044 706.19274 1404.4934 706.18374 L 1403.5872 705.27744 C 1403.5772 705.26644 1403.5672 705.25544 1403.5562 705.24644 L 1402.6499 704.80894 C 1402.6399 704.79694 1402.6299 704.78694 1402.6189 704.77794 L 1401.7751 704.49674 L 1400.9939 703.68424 L 1401.5877 702.99674 L 1401.7439 702.99674 C 1401.7779 702.99674 1401.8099 702.98374 1401.8379 702.96574 C 1401.8629 702.94974 1401.8849 702.92874 1401.8999 702.90274 C 1401.9119 702.89274 1401.9219 702.88274 1401.9309 702.87174 C 1401.9318 702.86174 1401.9318 702.85074 1401.9309 702.84074 C 1401.9318 702.82974 1401.9318 702.81974 1401.9309 702.80974 C 1401.9318 702.79974 1401.9318 702.78874 1401.9309 702.77874 L 1401.8689 701.87254 C 1401.8589 701.86054 1401.8489 701.85054 1401.8379 701.84154 C 1401.8388 701.83054 1401.8388 701.82054 1401.8379 701.81054 C 1401.8279 701.79854 1401.8179 701.78854 1401.8069 701.77954 C 1401.7969 701.76854 1401.7869 701.75754 1401.7759 701.74854 L 1400.8697 701.21734 C 1400.8597 701.20534 1400.8497 701.19534 1400.8387 701.18634 C 1400.8277 701.18544 1400.8177 701.18544 1400.8077 701.18634 C 1400.7977 701.18544 1400.7867 701.18544 1400.7767 701.18634 L 1400.0267 701.18634 L 1399.9647 700.43634 C 1399.9656 700.42634 1399.9656 700.41534 1399.9647 700.40534 C 1399.9547 700.39434 1399.9447 700.38334 1399.9337 700.37434 C 1399.9237 700.36234 1399.9137 700.35234 1399.9027 700.34334 L 1399.0277 699.43704 C 1399.0177 699.42504 1399.0077 699.41504 1398.9967 699.40604 C 1398.9867 699.40514 1398.9757 699.40514 1398.9657 699.40604 C 1398.9557 699.39504 1398.9457 699.38404 1398.9347 699.37504 L 1398.8727 699.37504 C 1398.8627 699.37414 1398.8517 699.37414 1398.8417 699.37504 C 1398.8187 699.38504 1398.7977 699.39204 1398.7787 699.40604 C 1398.1705 699.84714 1397.7049 700.00594 1397.3413 699.99984 C 1396.977 699.98984 1396.6931 699.81734 1396.3725 699.59364 C 1395.7313 699.14534 1395.0365 698.41364 1393.8413 698.46864 L 1393.8103 698.46864 C 1393.7983 698.47864 1393.7883 698.48864 1393.7793 698.49964 L 1392.9043 698.93714 L 1392.8733 698.93714 L 1392.1545 698.84314 L 1391.2795 698.06184 C 1391.2695 698.06094 1391.2585 698.06094 1391.2485 698.06184 L 1390.2485 697.43684 C 1390.2385 697.42484 1390.2285 697.41484 1390.2175 697.40584 L 1389.3425 696.96842 L 1388.4362 696.53082 C 1388.4262 696.51982 1388.4162 696.50882 1388.4052 696.49982 L 1387.5302 696.15602 C 1387.5202 696.15512 1387.5092 696.15512 1387.4992 696.15602 C 1387.4892 696.14502 1387.4792 696.13402 1387.4682 696.12502 L 1387.4582 696.11502 L 1387.4582 696.11522 L 1387.4582 696.11522 C 1387.4242 696.11522 1387.3922 696.12822 1387.3642 696.14622 C 1387.3522 696.15622 1387.3422 696.16622 1387.3332 696.17722 C 1386.4645 696.80482 1385.6546 696.85132 1384.7706 696.80222 C 1383.8873 696.75322 1382.9552 696.59152 1381.9269 696.77122 C 1380.3877 696.94602 1378.834 696.89902 1377.3644 697.27124 L 1377.3744 697.28124 Z M 1384.1151 597.77145 L 1384.9276 598.33395 L 1385.8026 598.42765 L 1386.7401 598.42765 L 1387.6776 598.52135 L 1388.1463 597.89635 L 1388.9589 598.64635 L 1388.6151 599.5526 L 1386.9276 600.6151 L 1385.9589 600.6151 L 1385.1776 600.1776 L 1384.3963 599.45885 L 1384.0526 598.6151 L 1384.1146 597.77135 Z M 1383.5526 598.6777 L 1383.7713 599.3027 L 1383.9589 599.7402 L 1384.6776 600.3027 L 1384.0526 600.5527 L 1383.3339 600.2402 L 1382.6776 600.45895 L 1382.8963 599.6152 L 1382.8963 598.95895 Z M 1412.2089 609.8652 L 1413.0526 610.02145 L 1413.9901 609.92775 L 1413.2713 610.86525 L 1413.2713 611.3965 L 1414.2089 611.959 L 1413.2713 612.0215 L 1411.6151 611.61525 L 1411.7091 610.584 L 1412.2091 609.86525 Z M 1409.0839 713.83402 L 1409.5526 713.92802 L 1409.4586 714.27172 L 1409.0836 713.83432 Z M 1415.5526 717.83402 L 1416.4901 717.83402 L 1417.3963 718.52142 L 1418.3339 718.86522 L 1419.1776 718.55272 L 1419.1776 719.42772 L 1418.2713 719.17772 L 1417.3026 719.49022 L 1416.4276 720.24022 L 1415.9901 719.89642 L 1415.0839 720.08402 L 1414.2089 720.20902 L 1413.2401 720.11502 L 1412.3963 719.39622 L 1412.8651 718.55252 L 1413.7089 718.27122 L 1414.6776 718.14622 L 1415.5526 717.83382 Z"/>
    <path id="path2742-4" fill="#8cce55" stroke="#0f380f" stroke-opacity="0.14509804" stroke-linecap="round" stroke-linejoin="round" transform="matrix(1 0 0 1 0.5 1.2670726)" d="M 1377.374 614.96882 L 1378.0511 615.98995 C 1378.0611 616.00155 1378.0711 616.01205 1378.0821 616.02115 C 1378.1001 616.03535 1378.1221 616.04595 1378.1441 616.05235 C 1378.1551 616.05322 1378.1651 616.05322 1378.1751 616.05235 C 1378.1961 616.05635 1378.2171 616.05635 1378.2371 616.05235 C 1378.2491 616.04335 1378.2591 616.03275 1378.2681 616.02115 C 1378.2941 616.00565 1378.3151 615.98415 1378.3311 615.95865 C 1378.3421 615.94965 1378.3531 615.93905 1378.3621 615.92745 C 1378.363 615.91705 1378.488 615.18784 1378.4871 615.17745 L 1379.1746 615.30245 C 1379.1846 615.31405 1379.9442 616.19955 1379.9559 616.2087 L 1380.5183 616.5837 L 1380.5813 616.6462 C 1380.6083 616.6648 1380.6413 616.6756 1380.6753 616.6774 C 1380.6853 616.67827 1380.6963 616.67827 1380.7063 616.6774 C 1380.7163 616.67827 1380.7273 616.67827 1380.7373 616.6774 C 1380.7603 616.6714 1380.7813 616.6604 1380.7993 616.6462 C 1380.8113 616.6372 1380.8213 616.6266 1380.8303 616.615 C 1380.8413 616.606 1380.8523 616.5954 1380.8613 616.5838 C 1380.8753 616.5651 1380.8863 616.5439 1380.8923 616.5213 L 1380.8923 616.4588 C 1380.8823 616.4362 1380.8753 616.415 1380.8613 616.3963 L 1380.7051 616.0838 L 1380.4863 615.3338 L 1381.2051 615.05255 C 1381.2281 615.04655 1381.2491 615.03555 1381.2671 615.02135 C 1381.2791 615.01235 1381.2891 615.00175 1381.2981 614.99015 C 1381.3171 614.96225 1381.3271 614.92985 1381.3291 614.89645 C 1381.33 614.88605 1381.33 614.87565 1381.3291 614.86525 L 1381.3291 614.80275 C 1381.3191 614.79115 1381.3091 614.78065 1381.2981 614.77155 C 1381.2881 614.75995 1381.2781 614.74945 1381.2671 614.74035 L 1380.3921 613.92785 L 1379.6109 613.11535 L 1379.6109 613.08415 L 1379.5799 613.05295 L 1379.3611 612.2717 L 1379.7673 611.4592 L 1379.9236 611.24045 L 1380.7673 610.99045 C 1380.7783 610.99132 1380.7883 610.99132 1380.7983 610.99045 C 1380.8103 610.98145 1380.8203 610.97085 1380.8293 610.95925 C 1380.8433 610.94055 1380.8543 610.91935 1380.8603 610.89675 C 1380.8723 610.88775 1380.8823 610.87715 1380.8913 610.86555 L 1381.0476 609.9593 L 1381.2039 609.17805 L 1382.0163 608.74055 C 1382.0393 608.73455 1382.0603 608.72355 1382.0793 608.70935 L 1382.8605 608.0531 L 1382.8915 608.0531 L 1383.5165 607.9594 C 1383.5395 607.9534 1383.5605 607.9424 1383.5795 607.9282 C 1383.5905 607.9192 1383.6015 607.9086 1383.6105 607.897 C 1383.6225 607.888 1383.6325 607.8774 1383.6415 607.8658 C 1383.6555 607.8471 1383.6665 607.8259 1383.6725 607.8033 L 1383.6725 607.7408 C 1383.6734 607.7304 1383.6734 607.72 1383.6725 607.7096 C 1383.6625 607.698 1383.6525 607.6875 1383.6415 607.6784 C 1383.6315 607.6558 1383.6245 607.6346 1383.6105 607.6159 L 1382.673 606.8034 L 1382.673 606.1159 L 1383.0793 606.0534 C 1383.0893 606.05427 1383.1003 606.05427 1383.1103 606.0534 C 1383.1223 606.0444 1383.1323 606.0338 1383.1413 606.0222 C 1383.1673 606.0067 1383.1883 605.9852 1383.2043 605.9597 L 1383.7355 605.11595 L 1383.7355 605.08475 L 1384.548 604.70975 C 1384.56 604.70075 1384.57 604.69015 1384.579 604.67855 C 1384.59 604.66955 1384.601 604.65895 1384.61 604.64735 C 1384.622 604.63835 1384.632 604.62775 1384.641 604.61615 L 1384.641 604.58495 L 1384.8598 603.83495 L 1385.6098 603.9912 C 1385.6198 603.99207 1385.6308 603.99207 1385.6408 603.9912 C 1385.6618 603.9952 1385.6828 603.9952 1385.7038 603.9912 C 1385.7148 603.9822 1385.7258 603.9716 1385.7348 603.96 C 1385.7468 603.951 1385.7568 603.9404 1385.7658 603.9288 L 1385.9846 603.71005 L 1386.0466 603.67885 L 1386.8903 603.36635 C 1386.9023 603.35735 1386.9123 603.34675 1386.9213 603.33515 C 1386.9333 603.32615 1386.9433 603.31555 1386.9523 603.30395 C 1386.9663 603.28525 1386.9773 603.26405 1386.9833 603.24145 C 1386.9842 603.23105 1386.9842 603.22065 1386.9833 603.21025 L 1386.9833 603.14775 L 1386.8583 602.4915 C 1389.2619 602.9555 1390.3984 603.02797 1392.9208 602.554 L 1392.9828 602.554 L 1393.0138 602.554 C 1393.0248 602.55487 1393.0348 602.55487 1393.0448 602.554 C 1393.0678 602.548 1393.0888 602.537 1393.1068 602.5228 L 1394.013 601.99155 C 1394.025 601.98255 1394.035 601.97195 1394.044 601.96035 C 1394.056 601.95135 1394.066 601.94075 1394.075 601.92915 C 1394.089 601.91045 1394.1 601.88925 1394.106 601.86665 L 1394.356 600.99165 C 1394.3569 600.98125 1394.3569 600.97085 1394.356 600.96045 L 1394.481 600.0542 C 1394.4819 600.0438 1394.4819 600.0334 1394.481 600.023 C 1394.471 600.0004 1394.464 599.9792 1394.45 599.9605 C 1394.4509 599.9501 1394.4509 599.9397 1394.45 599.9293 C 1394.439 599.92843 1394.429 599.92843 1394.419 599.9293 L 1393.794 599.02305 C 1393.784 599.01145 1393.774 599.00095 1393.763 598.99185 C 1393.753 598.98025 1393.743 598.96975 1393.732 598.96065 C 1393.722 598.95978 1393.711 598.95978 1393.701 598.96065 L 1392.826 598.58565 C 1392.805 598.58165 1392.784 598.58165 1392.763 598.58565 C 1392.753 598.58478 1392.742 598.58478 1392.732 598.58565 C 1392.722 598.58478 1392.711 598.58478 1392.701 598.58565 C 1392.69 598.58478 1392.68 598.58478 1392.67 598.58565 L 1391.8887 598.89815 L 1391.0763 598.1794 C 1391.0573 598.1652 1391.0363 598.1545 1391.0133 598.1482 L 1390.7633 598.0545 L 1391.2321 597.6795 L 1391.7633 598.52325 C 1391.7733 598.53485 1391.7833 598.54535 1391.7943 598.55445 C 1391.8223 598.57305 1391.8543 598.58385 1391.8883 598.58565 C 1391.8993 598.58652 1391.9093 598.58652 1391.9193 598.58565 C 1391.9403 598.58965 1391.9613 598.58965 1391.9813 598.58565 C 1391.9913 598.58652 1392.0023 598.58652 1392.0123 598.58565 C 1392.0243 598.57665 1392.0343 598.56605 1392.0433 598.55445 C 1392.0553 598.54545 1392.0653 598.53485 1392.0743 598.52325 C 1392.0853 598.51425 1392.0963 598.50365 1392.1053 598.49205 L 1392.1053 598.42955 C 1392.1062 598.41915 1392.1062 598.40875 1392.1053 598.39835 L 1392.1053 597.64835 L 1392.7615 597.55465 L 1393.4178 598.3359 C 1393.4338 598.3614 1393.4548 598.3828 1393.4798 598.3984 C 1393.4898 598.39927 1393.5008 598.39927 1393.5108 598.3984 L 1393.6984 598.4609 L 1393.7294 598.4609 L 1393.7604 598.4921 L 1394.6042 599.1796 C 1394.6142 599.1912 1394.6242 599.2017 1394.6352 599.2108 C 1394.6462 599.21167 1394.6562 599.21167 1394.6662 599.2108 C 1394.6872 599.2148 1394.7082 599.2148 1394.7282 599.2108 C 1394.7382 599.21167 1394.7492 599.21167 1394.7592 599.2108 C 1394.7702 599.21167 1394.7802 599.21167 1394.7902 599.2108 C 1394.8022 599.2018 1394.8122 599.1912 1394.8212 599.1796 L 1395.5712 598.64835 L 1395.9149 599.1171 L 1395.9149 599.1483 L 1396.3524 600.0233 C 1396.3624 600.0349 1396.3724 600.0454 1396.3834 600.0545 C 1396.3934 600.0661 1396.4034 600.0766 1396.4144 600.0857 C 1396.4244 600.0973 1396.4344 600.1078 1396.4454 600.1169 C 1396.4554 600.11777 1396.4664 600.11777 1396.4764 600.1169 C 1396.4974 600.1209 1396.5184 600.1209 1396.5384 600.1169 L 1397.4447 600.1169 L 1398.3509 600.46065 C 1398.3699 600.47485 1398.3909 600.48545 1398.4129 600.49185 L 1399.3192 600.49185 L 1400.1629 600.39815 L 1401.0066 601.08565 C 1401.0176 601.08652 1401.0276 601.08652 1401.0376 601.08565 L 1401.7251 601.46065 C 1401.7351 601.46152 1401.7461 601.46152 1401.7561 601.46065 L 1402.6311 601.89815 C 1402.6591 601.91675 1402.6911 601.92755 1402.7251 601.92935 C 1402.7351 601.93022 1402.7461 601.93022 1402.7561 601.92935 C 1402.7791 601.92335 1402.8001 601.91235 1402.8191 601.89815 L 1403.6003 601.4919 L 1404.4128 602.14815 L 1405.3191 602.8044 C 1405.3461 602.823 1405.3791 602.8338 1405.4131 602.8356 C 1405.4341 602.8396 1405.4551 602.8396 1405.4751 602.8356 L 1406.3501 602.6481 C 1406.3731 602.6421 1406.3941 602.6311 1406.4121 602.6169 L 1407.2871 602.08565 L 1407.3181 602.08565 L 1408.2555 601.83565 C 1408.2785 601.82965 1408.2995 601.81865 1408.3185 601.80445 C 1408.3295 601.79545 1408.3405 601.78485 1408.3495 601.77325 L 1408.5995 601.46075 L 1408.5685 601.58575 L 1408.1309 602.46075 C 1408.13 602.47115 1408.13 602.48155 1408.1309 602.49195 C 1408.13 602.50235 1408.13 602.51275 1408.1309 602.52315 L 1408.1309 602.58565 C 1408.13 602.59605 1408.13 602.60645 1408.1309 602.61685 C 1408.1409 602.62845 1408.1509 602.63895 1408.1619 602.64805 C 1408.1779 602.67355 1408.1989 602.69495 1408.2239 602.71055 C 1408.2519 602.72915 1408.2839 602.73995 1408.3179 602.74175 C 1408.3279 602.74262 1408.3389 602.74262 1408.3489 602.74175 C 1408.3609 602.73275 1408.3709 602.72215 1408.3799 602.71055 L 1409.2237 602.33555 L 1409.5675 603.08555 C 1409.5775 603.09715 1409.5875 603.10765 1409.5985 603.11675 C 1409.6085 603.12835 1409.6185 603.13885 1409.6295 603.14795 L 1410.1608 603.58545 C 1410.1708 603.59705 1410.1808 603.60755 1410.1918 603.61665 C 1410.2018 603.61752 1410.2128 603.61752 1410.2228 603.61665 C 1410.2538 603.62465 1410.2858 603.62465 1410.3168 603.61665 L 1411.2401 603.45895 C 1411.2631 603.45295 1411.2841 603.44195 1411.3021 603.42775 C 1411.3141 603.41875 1411.3241 603.40815 1411.3331 603.39655 C 1411.3441 603.38755 1411.3551 603.37695 1411.3641 603.36535 C 1411.3781 603.34665 1411.3891 603.32545 1411.3951 603.30285 L 1411.5514 602.3966 L 1411.6764 601.5841 L 1412.2077 601.30285 L 1412.3639 602.05285 C 1412.3739 602.07545 1412.3809 602.09665 1412.3949 602.11535 C 1412.4049 602.12695 1412.4149 602.13745 1412.4259 602.14655 C 1412.4449 602.16075 1412.4659 602.17135 1412.4879 602.17775 C 1412.4979 602.17862 1412.5089 602.17862 1412.5189 602.17775 L 1413.3315 602.334 L 1413.9877 603.1465 L 1413.2401 603.7402 C 1413.2392 603.7506 1413.2392 603.761 1413.2401 603.7714 L 1412.4276 604.67765 L 1411.8963 605.2089 C 1411.8713 605.2245 1411.8493 605.2459 1411.8343 605.2714 L 1411.8343 605.3339 L 1411.8343 605.3651 L 1412.0217 606.20885 L 1412.0217 606.27135 L 1411.8655 606.89635 L 1411.178 606.6776 C 1411.168 606.67673 1411.157 606.67673 1411.147 606.6776 C 1411.127 606.6746 1411.105 606.6746 1411.085 606.6776 C 1411.074 606.67673 1411.064 606.67673 1411.054 606.6776 L 1410.1477 606.95885 C 1410.1367 606.96785 1410.1257 606.97845 1410.1167 606.99005 L 1409.2105 607.5213 C 1409.1985 607.5303 1409.1885 607.5409 1409.1795 607.5525 C 1409.1675 607.5615 1409.1575 607.5721 1409.1485 607.5837 L 1409.1485 607.6462 L 1408.9611 608.5212 C 1408.9471 608.5399 1408.9361 608.5611 1408.9301 608.5837 L 1409.0551 609.48995 C 1409.0542 609.50035 1409.0542 609.51075 1409.0551 609.52115 C 1409.0542 609.53155 1409.0542 609.54195 1409.0551 609.55235 C 1409.0651 609.56395 1409.0751 609.57445 1409.0861 609.58355 C 1409.1011 609.60905 1409.1231 609.63045 1409.1481 609.64605 C 1409.1891 609.66035 1409.2331 609.66035 1409.2731 609.64605 L 1409.8044 609.4898 L 1409.5857 610.02105 L 1409.5857 610.05225 L 1409.2401 610.9902 L 1409.2401 611.0214 L 1408.6463 611.86515 L 1408.6153 611.89635 L 1407.8965 612.77135 C 1407.8956 612.78175 1407.8956 612.79215 1407.8965 612.80255 L 1407.4591 613.67755 L 1407.4281 613.70875 L 1406.7718 614.08375 C 1406.7608 614.09275 1406.7498 614.10335 1406.7408 614.11495 C 1406.7268 614.13365 1406.7158 614.15485 1406.7098 614.17745 C 1406.6908 614.20535 1406.6808 614.23775 1406.6788 614.27115 C 1406.6888 614.28275 1406.6988 614.29325 1406.7098 614.30235 L 1406.9598 615.2086 C 1406.9698 615.2202 1406.9798 615.2307 1406.9908 615.2398 C 1407.0008 615.2514 1407.0108 615.2619 1407.0218 615.271 C 1407.0318 615.2826 1407.0418 615.2931 1407.0528 615.3022 L 1408.0528 615.9272 L 1408.9278 616.45845 L 1408.9588 616.48965 L 1409.8338 617.0834 L 1409.8338 617.1146 L 1410.7088 617.64585 L 1410.7398 617.64585 L 1411.1148 618.45835 C 1411.1248 618.46995 1411.1348 618.48045 1411.1458 618.48955 C 1411.1618 618.51505 1411.1828 618.53655 1411.2088 618.55205 L 1412.0838 619.0833 C 1412.0938 619.08417 1412.1048 619.08417 1412.1148 619.0833 L 1412.521 619.23955 L 1412.584 619.27075 L 1413.4277 620.052 C 1413.4377 620.0636 1413.4477 620.0741 1413.4587 620.0832 C 1413.4687 620.08407 1413.4797 620.08407 1413.4897 620.0832 C 1413.4997 620.0948 1413.5097 620.1053 1413.5207 620.1144 C 1413.5437 620.1084 1413.5647 620.0974 1413.5837 620.0832 L 1414.3961 619.92695 L 1415.2399 620.42695 L 1416.1461 621.05195 C 1416.1561 621.06355 1416.1661 621.07405 1416.1771 621.08315 L 1417.0208 621.33315 L 1417.0838 621.36435 L 1417.99 622.0206 L 1418.021 622.0518 L 1418.8023 622.9268 L 1418.8643 622.9893 L 1418.8643 622.8643 L 1419.0205 623.14555 C 1419.0206 623.03092 1419.0205 622.91643 1419.0205 622.8018 L 1418.876 622.99982 L 1419.032 668.78082 L 1433.001 668.78082 L 1432.813 709.28083 L 1432.813 730.87483 L 1432.803 730.86473 L 1432.803 730.73973 C 1432.4121 730.69273 1431.9968 730.71573 1430.9905 730.42723 L 1430.9595 730.42723 L 1430.1782 729.89593 L 1430.1782 729.86493 L 1429.7407 728.98993 C 1429.7307 728.97793 1429.7207 728.96793 1429.7097 728.95893 L 1429.0847 727.99013 C 1429.0687 727.96513 1429.0477 727.94313 1429.0217 727.92813 C 1429.0117 727.91613 1429.0017 727.90613 1428.9907 727.89713 L 1428.4282 727.67843 L 1427.8032 726.89713 L 1427.8342 726.89713 L 1427.3029 726.02213 L 1427.2409 725.24023 L 1427.7409 724.39643 C 1427.7529 724.38643 1427.7629 724.37643 1427.7719 724.36543 L 1427.8349 724.08423 C 1427.8489 724.06523 1427.8599 724.04423 1427.8659 724.02123 L 1427.7719 723.11503 L 1427.7719 723.08403 L 1427.7409 723.08403 C 1427.3281 721.97253 1427.0988 721.53193 1426.8034 720.99023 C 1426.8154 720.98023 1426.8254 720.97023 1426.8344 720.95923 C 1426.8444 720.96013 1426.8554 720.96013 1426.8654 720.95923 C 1426.8774 720.94923 1426.8874 720.93923 1426.8964 720.92823 C 1426.9084 720.91823 1426.9184 720.90823 1426.9274 720.89723 C 1426.9283 720.88723 1426.9283 720.87623 1426.9274 720.86623 C 1426.9394 720.85623 1426.9494 720.84623 1426.9584 720.83523 L 1426.9584 720.77223 C 1426.9484 720.74923 1426.9414 720.72823 1426.9274 720.71023 L 1426.8964 720.67923 L 1426.4902 719.80423 C 1426.4802 719.79223 1426.4702 719.78223 1426.4592 719.77323 L 1425.5529 718.86703 C 1425.5429 718.85503 1425.5329 718.84503 1425.5219 718.83603 L 1424.6469 718.11723 L 1424.3657 717.58603 L 1425.0532 717.64803 L 1425.1152 717.64803 C 1425.1382 717.63803 1425.1592 717.63103 1425.1772 717.61703 C 1425.1892 717.60703 1425.1992 717.59703 1425.2082 717.58603 C 1425.2222 717.56703 1425.2332 717.54603 1425.2392 717.52303 L 1425.5204 716.61683 L 1425.5204 716.58583 L 1425.5204 716.55483 C 1425.5204 716.52083 1425.5074 716.48883 1425.4894 716.46083 C 1425.4794 716.44883 1425.4694 716.43883 1425.4584 716.42983 C 1425.4394 716.41583 1425.4184 716.40483 1425.3954 716.39883 L 1424.6767 716.11763 L 1424.6147 716.11763 C 1424.6047 716.11673 1424.5937 716.11673 1424.5837 716.11763 C 1424.5727 716.11673 1424.5627 716.11673 1424.5527 716.11763 L 1423.6464 716.49263 C 1423.6364 716.49173 1423.6254 716.49173 1423.6154 716.49263 C 1423.6034 716.50263 1423.5934 716.51263 1423.5844 716.52363 C 1423.5724 716.53363 1423.5624 716.54363 1423.5534 716.55463 L 1422.9909 717.36713 L 1422.1784 717.36713 C 1422.1684 717.36623 1422.1574 717.36623 1422.1474 717.36713 C 1422.1244 717.37713 1422.1034 717.38413 1422.0854 717.39813 L 1421.2728 717.80443 L 1420.3041 717.80443 C 1420.2811 717.81443 1420.2601 717.82143 1420.2421 717.83543 L 1420.1481 717.83543 L 1420.3357 717.33543 L 1421.2419 716.52283 C 1421.2559 716.50483 1421.2669 716.48283 1421.2729 716.46083 C 1421.2869 716.44183 1421.2979 716.42083 1421.3039 716.39783 L 1421.3659 715.52283 L 1421.3659 715.49183 L 1421.5534 714.61683 L 1421.5534 714.55483 L 1421.4594 713.58613 C 1421.4603 713.57513 1421.4603 713.56513 1421.4594 713.55513 L 1421.2718 712.64883 L 1421.2718 712.61783 C 1421.2618 712.59483 1421.2548 712.57383 1421.2408 712.55583 L 1420.4596 711.74333 L 1420.4596 711.71233 L 1420.4286 711.68133 L 1420.2099 710.83763 C 1420.1999 710.82563 1420.1899 710.81563 1420.1789 710.80663 C 1420.1689 710.79463 1420.1589 710.78463 1420.1479 710.77563 C 1420.1379 710.76463 1420.1279 710.75363 1420.1169 710.74463 C 1420.0979 710.73063 1420.0769 710.71963 1420.0549 710.71363 L 1420.0239 710.71363 L 1419.1489 710.61963 L 1419.0869 710.61963 C 1419.0639 710.62963 1419.0429 710.63663 1419.0239 710.65063 C 1418.9989 710.66663 1418.9769 710.68763 1418.9619 710.71363 C 1418.4756 711.47413 1418.4564 712.20243 1418.3369 712.93233 C 1418.221 713.63593 1417.9899 714.36423 1417.2431 715.27603 L 1416.4931 715.02603 C 1416.4831 715.02513 1416.4721 715.02513 1416.4621 715.02603 L 1416.3991 715.02603 C 1416.3891 715.02513 1416.3781 715.02513 1416.3681 715.02603 L 1415.4619 715.30733 L 1414.5869 715.58863 L 1414.1181 715.71363 L 1414.4306 715.11983 L 1414.8369 714.33863 L 1415.6181 714.33863 C 1415.6281 714.33953 1415.6391 714.33953 1415.6491 714.33863 C 1415.6611 714.32863 1415.6711 714.31863 1415.6801 714.30763 C 1415.6901 714.30853 1415.7011 714.30853 1415.7111 714.30763 L 1416.5861 713.87013 C 1416.6091 713.86013 1416.6301 713.85313 1416.6481 713.83913 C 1416.6621 713.82013 1416.6731 713.79913 1416.6791 713.77613 C 1416.6931 713.75813 1416.7041 713.73613 1416.7101 713.71413 L 1416.8663 712.83913 L 1416.8663 712.77613 L 1416.8043 711.86993 C 1416.7943 711.85793 1416.7843 711.84793 1416.7733 711.83893 L 1416.7733 711.80793 L 1416.7733 711.77693 L 1416.6483 711.58953 L 1416.8671 710.77693 L 1417.1483 709.80823 L 1417.1483 709.77723 L 1417.4921 708.93353 L 1417.4921 708.90253 L 1417.9921 708.09013 L 1418.9609 707.27753 C 1418.9719 707.26753 1418.9829 707.25753 1418.9919 707.24653 C 1419.0039 707.23653 1419.0139 707.22653 1419.0229 707.21553 L 1419.0229 707.18453 C 1419.0349 707.17453 1419.0449 707.16453 1419.0539 707.15353 C 1419.0539 707.11953 1419.0409 707.08753 1419.0229 707.05953 L 1418.6792 706.09083 L 1418.6792 706.05983 L 1418.5229 705.34113 L 1419.3042 704.84113 C 1419.3142 704.84203 1419.3252 704.84203 1419.3352 704.84113 C 1419.3462 704.83113 1419.3572 704.82113 1419.3662 704.81013 C 1419.3802 704.79113 1419.3912 704.77013 1419.3972 704.74813 L 1419.3972 704.68613 L 1419.3972 704.65513 L 1419.3972 704.62413 L 1418.9598 703.78033 L 1418.8658 702.87413 C 1418.8558 702.85113 1418.8488 702.83013 1418.8348 702.81213 L 1418.3972 701.90583 C 1418.3872 701.89483 1418.3772 701.88383 1418.3662 701.87483 C 1418.3562 701.86283 1418.3462 701.85283 1418.3352 701.84383 C 1418.3162 701.82983 1418.2952 701.81883 1418.2722 701.81283 C 1418.2622 701.81193 1418.2512 701.81193 1418.2412 701.81283 L 1418.1792 701.81283 C 1418.1562 701.82283 1418.1352 701.82983 1418.1172 701.84383 C 1418.1052 701.85383 1418.0952 701.86383 1418.0862 701.87483 L 1417.7424 702.21863 C 1417.7304 702.22863 1417.7204 702.23863 1417.7114 702.24963 C 1417.6974 702.26863 1417.6864 702.28963 1417.6804 702.31163 C 1417.6795 702.32163 1417.6795 702.33263 1417.6804 702.34263 L 1417.6804 702.40463 L 1417.9304 703.24843 L 1417.6179 704.02963 L 1416.7741 704.52963 C 1416.7631 704.53963 1416.7521 704.54963 1416.7431 704.56063 C 1416.7422 704.57063 1416.7422 704.58163 1416.7431 704.59163 L 1416.0869 705.49783 C 1416.0729 705.51683 1416.0619 705.53783 1416.0559 705.55983 L 1415.8996 706.40353 L 1415.4309 707.21613 L 1414.5559 707.77853 L 1414.5249 707.77853 L 1412.7437 708.65353 C 1412.7317 708.66353 1412.7217 708.67353 1412.7127 708.68453 L 1411.8377 709.30953 C 1411.8147 709.31953 1411.7937 709.32653 1411.7747 709.34053 L 1411.2435 709.96553 C 1411.2315 709.97553 1411.2215 709.98553 1411.2125 709.99653 L 1410.6812 710.87153 L 1410.6812 710.90253 L 1410.0249 711.74633 L 1409.9939 711.77733 L 1409.0251 712.55863 C 1409.0001 712.57463 1408.9781 712.59563 1408.9631 712.62063 L 1408.9631 712.65163 L 1408.6818 713.55793 C 1408.6809 713.56793 1408.6809 713.57893 1408.6818 713.58893 L 1408.6818 713.65093 C 1408.6918 713.66293 1408.7018 713.67293 1408.7128 713.68193 L 1408.7128 713.71293 C 1408.7228 713.72393 1408.7328 713.73493 1408.7438 713.74393 C 1408.7628 713.75793 1408.7838 713.76893 1408.8058 713.77493 L 1408.1183 714.08753 L 1407.5871 713.30623 C 1407.5771 713.29423 1407.5671 713.28423 1407.5561 713.27523 L 1406.7124 712.52523 L 1406.4311 711.90023 L 1406.9311 712.05653 C 1406.9501 712.07053 1406.9711 712.08153 1406.9931 712.08753 C 1407.0271 712.08753 1407.0591 712.07453 1407.0871 712.05653 C 1407.0981 712.04653 1407.1091 712.03653 1407.1181 712.02553 C 1407.1321 712.00753 1407.1431 711.98553 1407.1491 711.96353 C 1407.1681 711.93553 1407.1781 711.90353 1407.1801 711.86953 C 1407.1701 711.85753 1407.1601 711.84753 1407.1491 711.83853 L 1406.9617 710.96353 L 1406.9617 710.90053 L 1406.5241 709.99433 L 1406.3367 709.15053 C 1406.3376 709.14053 1406.3376 709.12953 1406.3367 709.11953 L 1406.2427 708.93203 C 1406.2436 708.92203 1406.2436 708.91103 1406.2427 708.90103 C 1406.2327 708.89003 1406.2227 708.87903 1406.2117 708.87003 L 1405.3367 707.99503 L 1405.3057 707.96403 L 1404.6494 707.18273 L 1404.6494 707.15173 L 1404.5554 706.27673 C 1404.5563 706.26673 1404.5563 706.25573 1404.5554 706.24573 C 1404.5454 706.23373 1404.5354 706.22373 1404.5244 706.21473 C 1404.5144 706.20273 1404.5044 706.19273 1404.4934 706.18373 L 1403.5872 705.27743 C 1403.5772 705.26643 1403.5672 705.25543 1403.5562 705.24643 L 1402.6499 704.80893 C 1402.6399 704.79693 1402.6299 704.78693 1402.6189 704.77793 L 1401.7751 704.49673 L 1400.9939 703.68423 L 1401.5877 702.99673 L 1401.7439 702.99673 C 1401.7779 702.99673 1401.8099 702.98373 1401.8379 702.96573 C 1401.8629 702.94973 1401.8849 702.92873 1401.8999 702.90273 C 1401.9119 702.89273 1401.9219 702.88273 1401.9309 702.87173 C 1401.9318 702.86173 1401.9318 702.85073 1401.9309 702.84073 C 1401.9318 702.82973 1401.9318 702.81973 1401.9309 702.80973 C 1401.9318 702.79973 1401.9318 702.78873 1401.9309 702.77873 L 1401.8689 701.87253 C 1401.8589 701.86053 1401.8489 701.85053 1401.8379 701.84153 C 1401.8388 701.83053 1401.8388 701.82053 1401.8379 701.81053 C 1401.8279 701.79853 1401.8179 701.78853 1401.8069 701.77953 C 1401.7969 701.76853 1401.7869 701.75753 1401.7759 701.74853 L 1400.8697 701.21733 C 1400.8597 701.20533 1400.8497 701.19533 1400.8387 701.18633 C 1400.8277 701.18543 1400.8177 701.18543 1400.8077 701.18633 C 1400.7977 701.18543 1400.7867 701.18543 1400.7767 701.18633 L 1400.0267 701.18633 L 1399.9647 700.43633 C 1399.9656 700.42633 1399.9656 700.41533 1399.9647 700.40533 C 1399.9547 700.39433 1399.9447 700.38333 1399.9337 700.37433 C 1399.9237 700.36233 1399.9137 700.35233 1399.9027 700.34333 L 1399.0277 699.43703 C 1399.0177 699.42503 1399.0077 699.41503 1398.9967 699.40603 C 1398.9867 699.40513 1398.9757 699.40513 1398.9657 699.40603 C 1398.9557 699.39503 1398.9457 699.38403 1398.9347 699.37503 L 1398.8727 699.37503 C 1398.8627 699.37413 1398.8517 699.37413 1398.8417 699.37503 C 1398.8187 699.38503 1398.7977 699.39203 1398.7787 699.40603 C 1398.1705 699.84713 1397.7049 700.00593 1397.3413 699.99983 C 1396.977 699.98983 1396.6931 699.81733 1396.3725 699.59363 C 1395.7313 699.14533 1395.0365 698.41363 1393.8413 698.46863 L 1393.8103 698.46863 C 1393.7983 698.47863 1393.7883 698.48863 1393.7793 698.49963 L 1392.9043 698.93713 L 1392.8733 698.93713 L 1392.1545 698.84313 L 1391.2795 698.06183 C 1391.2695 698.06093 1391.2585 698.06093 1391.2485 698.06183 L 1390.2485 697.43683 C 1390.2385 697.42483 1390.2285 697.41483 1390.2175 697.40583 L 1389.3425 696.96842 L 1388.4362 696.53082 C 1388.4262 696.51982 1388.4162 696.50882 1388.4052 696.49982 L 1387.5302 696.15602 C 1387.5202 696.15512 1387.5092 696.15512 1387.4992 696.15602 C 1387.4892 696.14502 1387.4792 696.13402 1387.4682 696.12502 L 1387.4582 696.11502 L 1387.4582 696.11522 L 1387.4582 696.11522 C 1387.4242 696.11522 1387.3922 696.12822 1387.3642 696.14622 C 1387.3522 696.15622 1387.3422 696.16622 1387.3332 696.17722 C 1386.4645 696.80482 1385.6546 696.85132 1384.7706 696.80222 C 1383.8873 696.75322 1382.9552 696.59152 1381.9269 696.77122 C 1380.3877 696.94602 1378.834 696.89902 1377.3644 697.27123 L 1377.3744 697.28123 Z M 1384.1151 597.77145 L 1384.9276 598.33395 L 1385.8026 598.42765 L 1386.7401 598.42765 L 1387.6776 598.52135 L 1388.1463 597.89635 L 1388.9589 598.64635 L 1388.6151 599.5526 L 1386.9276 600.6151 L 1385.9589 600.6151 L 1385.1776 600.1776 L 1384.3963 599.45885 L 1384.0526 598.6151 L 1384.1146 597.77135 Z M 1383.5526 598.6777 L 1383.7713 599.3027 L 1383.9589 599.7402 L 1384.6776 600.3027 L 1384.0526 600.5527 L 1383.3339 600.2402 L 1382.6776 600.45895 L 1382.8963 599.6152 L 1382.8963 598.95895 Z M 1412.2089 609.8652 L 1413.0526 610.02145 L 1413.9901 609.92775 L 1413.2713 610.86525 L 1413.2713 611.3965 L 1414.2089 611.959 L 1413.2713 612.0215 L 1411.6151 611.61525 L 1411.7091 610.584 L 1412.2091 609.86525 Z M 1409.0839 713.83401 L 1409.5526 713.92801 L 1409.4586 714.27171 L 1409.0836 713.83431 Z M 1415.5526 717.83401 L 1416.4901 717.83401 L 1417.3963 718.52141 L 1418.3339 718.86521 L 1419.1776 718.55271 L 1419.1776 719.42771 L 1418.2713 719.17771 L 1417.3026 719.49021 L 1416.4276 720.24021 L 1415.9901 719.89641 L 1415.0839 720.08401 L 1414.2089 720.20901 L 1413.2401 720.11501 L 1412.3963 719.39621 L 1412.8651 718.55251 L 1413.7089 718.27121 L 1414.6776 718.14621 L 1415.5526 717.83381 Z"/>
</svg>
